<?xml version="1.0" encoding="UTF-8" standalone="no"?>
<svg
   xmlns:dc="http://purl.org/dc/elements/1.1/"
   xmlns:cc="http://creativecommons.org/ns#"
   xmlns:rdf="http://www.w3.org/1999/02/22-rdf-syntax-ns#"
   xmlns:svg="http://www.w3.org/2000/svg"
   xmlns="http://www.w3.org/2000/svg"
   viewBox="0 0 1000 666.66669"
   height="666.66669"
   width="1000"
   xml:space="preserve"
   id="svg2"
   version="1.1"><metadata
     id="metadata8"><rdf:RDF><cc:Work
         rdf:about=""><dc:format>image/svg+xml</dc:format><dc:type
           rdf:resource="http://purl.org/dc/dcmitype/StillImage" /></cc:Work></rdf:RDF></metadata><defs
     id="defs6"><clipPath
       id="clipPath36"
       clipPathUnits="userSpaceOnUse"><path
         id="path34"
         d="M 0,500 H 750 V 0 H 0 Z" /></clipPath><clipPath
       id="clipPath208"
       clipPathUnits="userSpaceOnUse"><path
         id="path206"
         d="M 290.731,477.81 H 459.269 V 309.272 H 290.731 Z" /></clipPath><clipPath
       id="clipPath424"
       clipPathUnits="userSpaceOnUse"><path
         id="path422"
         d="m 336.099,393.541 c 0,-21.485 17.417,-38.901 38.901,-38.901 v 0 c 21.484,0 38.901,17.416 38.901,38.901 v 0 c 0,21.485 -17.417,38.902 -38.901,38.902 v 0 c -21.484,0 -38.901,-17.417 -38.901,-38.902" /></clipPath><clipPath
       id="clipPath436"
       clipPathUnits="userSpaceOnUse"><path
         id="path434"
         d="M 0,500 H 750 V 0 H 0 Z" /></clipPath><clipPath
       id="clipPath516"
       clipPathUnits="userSpaceOnUse"><path
         id="path514"
         d="M 290.731,175.363 H 459.269 V 6.8252 H 290.731 Z" /></clipPath><clipPath
       id="clipPath540"
       clipPathUnits="userSpaceOnUse"><path
         id="path538"
         d="m 348.459,138.944 c 23.105,-2.715 32.929,-24.582 29.872,-40.731 v 0 C 376.282,87.38 365.052,81.252 365.052,81.252 v 0 l 11.002,-7.055 c -2.157,-6.401 -5.768,-12.585 -10.045,-17.624 v 0 c -1.897,0.397 -5.398,-1.436 -4.679,-4.757 v 0 c -3.97,-3.69 -7.911,-6.232 -12.871,-8.571 v 0 c 6.836,-3.224 14.469,-5.035 22.528,-5.035 v 0 c 29.207,0 52.884,23.678 52.884,52.884 v 0 c 0,29.207 -23.677,52.883 -52.884,52.883 v 0 c -8.059,0 -15.692,-1.809 -22.528,-5.033" /></clipPath><clipPath
       id="clipPath552"
       clipPathUnits="userSpaceOnUse"><path
         id="path550"
         d="M 0,500 H 750 V 0 H 0 Z" /></clipPath><clipPath
       id="clipPath718"
       clipPathUnits="userSpaceOnUse"><path
         id="path716"
         d="M 0,0 H 750 V 500 H 0 Z" /></clipPath></defs><g
     transform="matrix(1.3333333,0,0,-1.3333333,0,666.66667)"
     id="g10"><path
       id="path12"
       style="fill:#e4d8c7;fill-opacity:1;fill-rule:nonzero;stroke:none"
       d="M 0,0 H 750 V 500 H 0 Z" /><g
       transform="translate(37.9988,372.6354)"
       id="g14"><path
         id="path16"
         style="fill:none;stroke:#74410b;stroke-width:1;stroke-linecap:butt;stroke-linejoin:miter;stroke-miterlimit:10;stroke-dasharray:none;stroke-opacity:1"
         d="M 0,0 V 88.57 H 186.418" /></g><g
       transform="translate(712.0012,372.6354)"
       id="g18"><path
         id="path20"
         style="fill:none;stroke:#74410b;stroke-width:1;stroke-linecap:butt;stroke-linejoin:miter;stroke-miterlimit:10;stroke-dasharray:none;stroke-opacity:1"
         d="M 0,0 V 88.57 H -186.418" /></g><g
       transform="translate(37.9988,127.3646)"
       id="g22"><path
         id="path24"
         style="fill:none;stroke:#74410b;stroke-width:1;stroke-linecap:butt;stroke-linejoin:miter;stroke-miterlimit:10;stroke-dasharray:none;stroke-opacity:1"
         d="M 0,0 V -88.57 H 186.418" /></g><g
       transform="translate(712.0012,127.3646)"
       id="g26"><path
         id="path28"
         style="fill:none;stroke:#74410b;stroke-width:1;stroke-linecap:butt;stroke-linejoin:miter;stroke-miterlimit:10;stroke-dasharray:none;stroke-opacity:1"
         d="M 0,0 V -88.57 H -186.418" /></g><g
       id="g30"><g
         clip-path="url(#clipPath36)"
         id="g32"><g
           transform="translate(406.7544,198.9197)"
           id="g38"><path
             id="path40"
             style="fill:#fef8ed;fill-opacity:1;fill-rule:nonzero;stroke:none"
             d="m 0,0 c 0,-2.695 -2.185,-4.88 -4.88,-4.88 -2.696,0 -4.88,2.185 -4.88,4.88 0,2.695 2.184,4.88 4.88,4.88 C -2.185,4.88 0,2.695 0,0" /></g><g
           transform="translate(45.0217,105.6479)"
           id="g42"><path
             id="path44"
             style="fill:#fef8ed;fill-opacity:1;fill-rule:nonzero;stroke:none"
             d="m 0,0 c 0,-2.695 -2.185,-4.88 -4.88,-4.88 -2.696,0 -4.88,2.185 -4.88,4.88 0,2.695 2.184,4.88 4.88,4.88 C -2.185,4.88 0,2.695 0,0" /></g><g
           transform="translate(94.639,237.4866)"
           id="g46"><path
             id="path48"
             style="fill:#fef8ed;fill-opacity:1;fill-rule:nonzero;stroke:none"
             d="m 0,0 c 0,-2.245 -1.82,-4.065 -4.065,-4.065 -2.245,0 -4.065,1.82 -4.065,4.065 0,2.245 1.82,4.065 4.065,4.065 C -1.82,4.065 0,2.245 0,0" /></g><g
           transform="translate(631.7256,458.7269)"
           id="g50"><path
             id="path52"
             style="fill:#fef8ed;fill-opacity:1;fill-rule:nonzero;stroke:none"
             d="m 0,0 c 0,-2.047 -1.659,-3.706 -3.706,-3.706 -2.046,0 -3.706,1.659 -3.706,3.706 0,2.047 1.66,3.706 3.706,3.706 C -1.659,3.706 0,2.047 0,0" /></g><g
           transform="translate(418.1234,443.3482)"
           id="g54"><path
             id="path56"
             style="fill:#fef8ed;fill-opacity:1;fill-rule:nonzero;stroke:none"
             d="m 0,0 c 0,-2.809 -2.277,-5.086 -5.086,-5.086 -2.809,0 -5.086,2.277 -5.086,5.086 0,2.809 2.277,5.086 5.086,5.086 C -2.277,5.086 0,2.809 0,0" /></g><g
           transform="translate(550.8379,371.6095)"
           id="g58"><path
             id="path60"
             style="fill:#fef8ed;fill-opacity:1;fill-rule:nonzero;stroke:none"
             d="m 0,0 c 0,-3.095 -2.509,-5.603 -5.604,-5.603 -3.094,0 -5.603,2.508 -5.603,5.603 0,3.095 2.509,5.604 5.603,5.604 C -2.509,5.604 0,3.095 0,0" /></g><g
           transform="translate(231.5812,241.5513)"
           id="g62"><path
             id="path64"
             style="fill:#fef8ed;fill-opacity:1;fill-rule:nonzero;stroke:none"
             d="m 0,0 c 0,-3.095 -2.509,-5.603 -5.604,-5.603 -3.094,0 -5.603,2.508 -5.603,5.603 0,3.095 2.509,5.604 5.603,5.604 C -2.509,5.604 0,3.095 0,0" /></g><g
           transform="translate(247.7202,127.4423)"
           id="g66"><path
             id="path68"
             style="fill:#fef8ed;fill-opacity:1;fill-rule:nonzero;stroke:none"
             d="m 0,0 c 0,-1.709 -1.386,-3.095 -3.095,-3.095 -1.71,0 -3.095,1.386 -3.095,3.095 0,1.709 1.385,3.095 3.095,3.095 C -1.386,3.095 0,1.709 0,0" /></g><g
           transform="translate(250.8153,364.074)"
           id="g70"><path
             id="path72"
             style="fill:#fef8ed;fill-opacity:1;fill-rule:nonzero;stroke:none"
             d="m 0,0 c 0,-1.709 -1.386,-3.095 -3.095,-3.095 -1.709,0 -3.095,1.386 -3.095,3.095 0,1.709 1.386,3.095 3.095,3.095 C -1.386,3.095 0,1.709 0,0" /></g><g
           transform="translate(520.333,479.4428)"
           id="g74"><path
             id="path76"
             style="fill:#fef8ed;fill-opacity:1;fill-rule:nonzero;stroke:none"
             d="m 0,0 c 0,-1.709 -1.386,-3.095 -3.095,-3.095 -1.709,0 -3.095,1.386 -3.095,3.095 0,1.709 1.386,3.095 3.095,3.095 C -1.386,3.095 0,1.709 0,0" /></g><g
           transform="translate(735.7846,275.2654)"
           id="g78"><path
             id="path80"
             style="fill:#fef8ed;fill-opacity:1;fill-rule:nonzero;stroke:none"
             d="m 0,0 c 0,-1.709 -1.386,-3.095 -3.095,-3.095 -1.709,0 -3.095,1.386 -3.095,3.095 0,1.709 1.386,3.095 3.095,3.095 C -1.386,3.095 0,1.709 0,0" /></g><g
           transform="translate(553.7372,293.1313)"
           id="g82"><path
             id="path84"
             style="fill:#fef8ed;fill-opacity:1;fill-rule:nonzero;stroke:none"
             d="m 0,0 c 0,-1.333 -1.081,-2.413 -2.413,-2.413 -1.333,0 -2.414,1.08 -2.414,2.413 0,1.333 1.081,2.414 2.414,2.414 C -1.081,2.414 0,1.333 0,0" /></g><g
           transform="translate(429.1474,265.2414)"
           id="g86"><path
             id="path88"
             style="fill:#fef8ed;fill-opacity:1;fill-rule:nonzero;stroke:none"
             d="m 0,0 c 0,-1.333 -1.08,-2.413 -2.413,-2.413 -1.333,0 -2.414,1.08 -2.414,2.413 0,1.333 1.081,2.414 2.414,2.414 C -1.08,2.414 0,1.333 0,0" /></g><g
           transform="translate(295.0174,249.4563)"
           id="g90"><path
             id="path92"
             style="fill:#fef8ed;fill-opacity:1;fill-rule:nonzero;stroke:none"
             d="m 0,0 c 0,-1.333 -1.081,-2.413 -2.413,-2.413 -1.333,0 -2.414,1.08 -2.414,2.413 0,1.333 1.081,2.413 2.414,2.413 C -1.081,2.413 0,1.333 0,0" /></g><g
           transform="translate(180.1112,114.9282)"
           id="g94"><path
             id="path96"
             style="fill:#fef8ed;fill-opacity:1;fill-rule:nonzero;stroke:none"
             d="m 0,0 c 0,-1.333 -1.081,-2.413 -2.413,-2.413 -1.333,0 -2.414,1.08 -2.414,2.413 0,1.333 1.081,2.413 2.414,2.413 C -1.081,2.413 0,1.333 0,0" /></g><g
           transform="translate(361.9919,21.9675)"
           id="g98"><path
             id="path100"
             style="fill:#fef8ed;fill-opacity:1;fill-rule:nonzero;stroke:none"
             d="m 0,0 c 0,-2.766 -2.242,-5.008 -5.008,-5.008 -2.766,0 -5.008,2.242 -5.008,5.008 0,2.766 2.242,5.008 5.008,5.008 C -2.242,5.008 0,2.766 0,0" /></g><g
           transform="translate(385.6784,105.4495)"
           id="g102"><path
             id="path104"
             style="fill:#fef8ed;fill-opacity:1;fill-rule:nonzero;stroke:none"
             d="m 0,0 c 0,-1.383 -1.121,-2.504 -2.504,-2.504 -1.383,0 -2.504,1.121 -2.504,2.504 0,1.383 1.121,2.504 2.504,2.504 C -1.121,2.504 0,1.383 0,0" /></g><g
           transform="translate(574.5541,97.7712)"
           id="g106"><path
             id="path108"
             style="fill:#fef8ed;fill-opacity:1;fill-rule:nonzero;stroke:none"
             d="m 0,0 c 0,-1.383 -1.121,-2.504 -2.504,-2.504 -1.383,0 -2.504,1.121 -2.504,2.504 0,1.383 1.121,2.504 2.504,2.504 C -1.121,2.504 0,1.383 0,0" /></g><g
           transform="translate(640.3567,286.1073)"
           id="g110"><path
             id="path112"
             style="fill:#fef8ed;fill-opacity:1;fill-rule:nonzero;stroke:none"
             d="m 0,0 c 0,-1.383 -1.121,-2.504 -2.504,-2.504 -1.383,0 -2.504,1.121 -2.504,2.504 0,1.383 1.121,2.504 2.504,2.504 C -1.121,2.504 0,1.383 0,0" /></g><g
           transform="translate(290.0431,36.3809)"
           id="g114"><path
             id="path116"
             style="fill:#fef8ed;fill-opacity:1;fill-rule:nonzero;stroke:none"
             d="m 0,0 c 0,-1.383 -1.121,-2.504 -2.504,-2.504 -1.383,0 -2.504,1.121 -2.504,2.504 0,1.383 1.121,2.504 2.504,2.504 C -1.121,2.504 0,1.383 0,0" /></g><g
           transform="translate(446.8013,33.8769)"
           id="g118"><path
             id="path120"
             style="fill:#fef8ed;fill-opacity:1;fill-rule:nonzero;stroke:none"
             d="m 0,0 c 0,-3.573 -2.896,-6.469 -6.469,-6.469 -3.573,0 -6.469,2.896 -6.469,6.469 0,3.573 2.896,6.469 6.469,6.469 C -2.896,6.469 0,3.573 0,0" /></g><g
           transform="translate(78.1002,458.7269)"
           id="g122"><path
             id="path124"
             style="fill:#fef8ed;fill-opacity:1;fill-rule:nonzero;stroke:none"
             d="m 0,0 c 0,-1.311 -1.063,-2.374 -2.374,-2.374 -1.311,0 -2.374,1.063 -2.374,2.374 0,1.311 1.063,2.374 2.374,2.374 C -1.063,2.374 0,1.311 0,0" /></g><g
           transform="translate(307.858,403.6969)"
           id="g126"><path
             id="path128"
             style="fill:#fef8ed;fill-opacity:1;fill-rule:nonzero;stroke:none"
             d="m 0,0 c 0,-1.311 -1.063,-2.374 -2.374,-2.374 -1.311,0 -2.374,1.063 -2.374,2.374 0,1.311 1.063,2.374 2.374,2.374 C -1.063,2.374 0,1.311 0,0" /></g><g
           transform="translate(365.6467,348.0282)"
           id="g130"><path
             id="path132"
             style="fill:#fef8ed;fill-opacity:1;fill-rule:nonzero;stroke:none"
             d="m 0,0 c 0,-1.945 -1.577,-3.522 -3.522,-3.522 -1.946,0 -3.523,1.577 -3.523,3.522 0,1.945 1.577,3.522 3.523,3.522 C -1.577,3.522 0,1.945 0,0" /></g><g
           transform="translate(731.1656,479.8365)"
           id="g134"><path
             id="path136"
             style="fill:#fef8ed;fill-opacity:1;fill-rule:nonzero;stroke:none"
             d="m 0,0 c 0,-1.945 -1.577,-3.522 -3.522,-3.522 -1.946,0 -3.523,1.577 -3.523,3.522 0,1.945 1.577,3.523 3.523,3.523 C -1.577,3.523 0,1.945 0,0" /></g><g
           transform="translate(4.2201,52.0839)"
           id="g138"><path
             id="path140"
             style="fill:#fef8ed;fill-opacity:1;fill-rule:nonzero;stroke:none"
             d="m 0,0 c 0,-1.585 -1.285,-2.87 -2.87,-2.87 -1.585,0 -2.87,1.285 -2.87,2.87 0,1.585 1.285,2.87 2.87,2.87 C -1.285,2.87 0,1.585 0,0" /></g><g
           transform="translate(363.9896,441.31)"
           id="g142"><path
             id="path144"
             style="fill:#f5ede9;fill-opacity:1;fill-rule:nonzero;stroke:none"
             d="m 0,0 c 4.644,0.301 8.159,1.606 8.159,1.606 0,0 -3.515,1.305 -8.159,1.606 -0.246,6.402 -1.866,11.359 -1.866,11.359 0,0 -1.619,-4.957 -1.865,-11.359 -4.644,-0.301 -8.159,-1.606 -8.159,-1.606 0,0 3.515,-1.305 8.159,-1.606 0.246,-6.402 1.865,-11.359 1.865,-11.359 0,0 1.62,4.957 1.866,11.359" /></g><g
           transform="translate(338.0343,228.43)"
           id="g146"><path
             id="path148"
             style="fill:#f5ede9;fill-opacity:1;fill-rule:nonzero;stroke:none"
             d="m 0,0 c 5,0.324 8.784,1.729 8.784,1.729 0,0 -3.784,1.404 -8.784,1.729 -0.265,6.892 -2.008,12.228 -2.008,12.228 0,0 -1.743,-5.336 -2.008,-12.228 -5,-0.325 -8.784,-1.729 -8.784,-1.729 0,0 3.784,-1.405 8.784,-1.729 0.265,-6.892 2.008,-12.228 2.008,-12.228 0,0 1.743,5.336 2.008,12.228" /></g><g
           transform="translate(331.9575,58.588)"
           id="g150"><path
             id="path152"
             style="fill:#f5ede9;fill-opacity:1;fill-rule:nonzero;stroke:none"
             d="m 0,0 c 3.888,0.252 6.831,1.344 6.831,1.344 0,0 -2.943,1.093 -6.831,1.345 -0.206,5.359 -1.562,9.509 -1.562,9.509 0,0 -1.355,-4.15 -1.561,-9.509 -3.888,-0.252 -6.831,-1.345 -6.831,-1.345 0,0 2.943,-1.092 6.831,-1.344 0.206,-5.359 1.561,-9.509 1.561,-9.509 0,0 1.356,4.15 1.562,9.509" /></g><g
           transform="translate(232.1717,464.2611)"
           id="g154"><path
             id="path156"
             style="fill:#f5ede9;fill-opacity:1;fill-rule:nonzero;stroke:none"
             d="m 0,0 c 3.565,0.231 6.264,1.233 6.264,1.233 0,0 -2.699,1.001 -6.264,1.233 -0.189,4.914 -1.432,8.72 -1.432,8.72 0,0 -1.243,-3.806 -1.432,-8.72 -3.565,-0.232 -6.264,-1.233 -6.264,-1.233 0,0 2.699,-1.002 6.264,-1.233 0.189,-4.915 1.432,-8.72 1.432,-8.72 0,0 1.243,3.805 1.432,8.72" /></g><g
           transform="translate(434.5157,132.2636)"
           id="g158"><path
             id="path160"
             style="fill:#f5ede9;fill-opacity:1;fill-rule:nonzero;stroke:none"
             d="m 0,0 c 2.056,0.133 3.613,0.711 3.613,0.711 0,0 -1.557,0.578 -3.613,0.711 -0.109,2.835 -0.826,5.029 -0.826,5.029 0,0 -0.717,-2.194 -0.826,-5.029 -2.056,-0.133 -3.613,-0.711 -3.613,-0.711 0,0 1.557,-0.578 3.613,-0.711 0.109,-2.835 0.826,-5.029 0.826,-5.029 0,0 0.717,2.194 0.826,5.029" /></g><g
           transform="translate(120.6441,103.7745)"
           id="g162"><path
             id="path164"
             style="fill:#f5ede9;fill-opacity:1;fill-rule:nonzero;stroke:none"
             d="m 0,0 c 4.844,0.314 8.511,1.675 8.511,1.675 0,0 -3.667,1.361 -8.511,1.675 -0.257,6.677 -1.946,11.847 -1.946,11.847 0,0 -1.689,-5.17 -1.945,-11.847 -4.844,-0.314 -8.511,-1.675 -8.511,-1.675 0,0 3.667,-1.361 8.511,-1.675 0.256,-6.677 1.945,-11.848 1.945,-11.848 0,0 1.689,5.171 1.946,11.848" /></g><g
           transform="translate(109.0682,163.1027)"
           id="g166"><path
             id="path168"
             style="fill:#f5ede9;fill-opacity:1;fill-rule:nonzero;stroke:none"
             d="m 0,0 c 2.056,0.133 3.613,0.711 3.613,0.711 0,0 -1.557,0.578 -3.613,0.711 -0.109,2.835 -0.826,5.029 -0.826,5.029 0,0 -0.717,-2.194 -0.826,-5.029 -2.056,-0.133 -3.613,-0.711 -3.613,-0.711 0,0 1.557,-0.578 3.613,-0.711 0.109,-2.835 0.826,-5.029 0.826,-5.029 0,0 0.717,2.194 0.826,5.029" /></g><g
           transform="translate(521.1589,268.1822)"
           id="g170"><path
             id="path172"
             style="fill:#f5ede9;fill-opacity:1;fill-rule:nonzero;stroke:none"
             d="m 0,0 c 2.056,0.133 3.613,0.711 3.613,0.711 0,0 -1.557,0.578 -3.613,0.711 -0.109,2.835 -0.826,5.029 -0.826,5.029 0,0 -0.717,-2.194 -0.826,-5.029 -2.056,-0.133 -3.612,-0.711 -3.612,-0.711 0,0 1.556,-0.578 3.612,-0.711 0.109,-2.835 0.826,-5.029 0.826,-5.029 0,0 0.717,2.194 0.826,5.029" /></g><g
           transform="translate(675.3316,352.1973)"
           id="g174"><path
             id="path176"
             style="fill:#f5ede9;fill-opacity:1;fill-rule:nonzero;stroke:none"
             d="m 0,0 c 2.056,0.133 3.613,0.711 3.613,0.711 0,0 -1.557,0.578 -3.613,0.711 -0.109,2.835 -0.826,5.029 -0.826,5.029 0,0 -0.717,-2.194 -0.826,-5.029 -2.056,-0.133 -3.613,-0.711 -3.613,-0.711 0,0 1.557,-0.578 3.613,-0.711 0.109,-2.835 0.826,-5.029 0.826,-5.029 0,0 0.717,2.194 0.826,5.029" /></g><g
           transform="translate(699.7695,227.5515)"
           id="g178"><path
             id="path180"
             style="fill:#f5ede9;fill-opacity:1;fill-rule:nonzero;stroke:none"
             d="m 0,0 c 2.056,0.133 3.613,0.711 3.613,0.711 0,0 -1.557,0.578 -3.613,0.711 -0.109,2.835 -0.826,5.029 -0.826,5.029 0,0 -0.717,-2.194 -0.826,-5.029 -2.056,-0.133 -3.612,-0.711 -3.612,-0.711 0,0 1.556,-0.578 3.612,-0.711 0.109,-2.835 0.826,-5.029 0.826,-5.029 0,0 0.717,2.194 0.826,5.029" /></g><g
           transform="translate(519.3998,24.2831)"
           id="g182"><path
             id="path184"
             style="fill:#f5ede9;fill-opacity:1;fill-rule:nonzero;stroke:none"
             d="m 0,0 c 2.056,0.133 3.613,0.711 3.613,0.711 0,0 -1.557,0.578 -3.613,0.711 -0.109,2.835 -0.826,5.029 -0.826,5.029 0,0 -0.717,-2.194 -0.826,-5.029 -2.056,-0.133 -3.613,-0.711 -3.613,-0.711 0,0 1.557,-0.578 3.613,-0.711 0.109,-2.834 0.826,-5.029 0.826,-5.029 0,0 0.717,2.195 0.826,5.029" /></g><g
           transform="translate(306.3098,477.4822)"
           id="g186"><path
             id="path188"
             style="fill:#f5ede9;fill-opacity:1;fill-rule:nonzero;stroke:none"
             d="m 0,0 c 2.056,0.133 3.613,0.711 3.613,0.711 0,0 -1.557,0.578 -3.613,0.711 -0.109,2.835 -0.826,5.029 -0.826,5.029 0,0 -0.717,-2.194 -0.826,-5.029 -2.056,-0.133 -3.612,-0.711 -3.612,-0.711 0,0 1.556,-0.578 3.612,-0.711 0.109,-2.835 0.826,-5.029 0.826,-5.029 0,0 0.717,2.194 0.826,5.029" /></g><g
           transform="translate(63.0264,328.6379)"
           id="g190"><path
             id="path192"
             style="fill:#f5ede9;fill-opacity:1;fill-rule:nonzero;stroke:none"
             d="m 0,0 c 2.056,0.133 3.613,0.711 3.613,0.711 0,0 -1.557,0.578 -3.613,0.711 -0.109,2.835 -0.826,5.029 -0.826,5.029 0,0 -0.717,-2.194 -0.826,-5.029 -2.056,-0.133 -3.613,-0.711 -3.613,-0.711 0,0 1.557,-0.578 3.613,-0.711 0.109,-2.835 0.826,-5.029 0.826,-5.029 0,0 0.717,2.194 0.826,5.029" /></g><g
           transform="translate(18.6513,188.6663)"
           id="g194"><path
             id="path196"
             style="fill:#f5ede9;fill-opacity:1;fill-rule:nonzero;stroke:none"
             d="m 0,0 c 4.683,0.303 8.227,1.619 8.227,1.619 0,0 -3.544,1.316 -8.227,1.619 -0.248,6.455 -1.881,11.453 -1.881,11.453 0,0 -1.633,-4.998 -1.881,-11.453 -4.683,-0.303 -8.227,-1.619 -8.227,-1.619 0,0 3.544,-1.316 8.227,-1.619 0.248,-6.455 1.881,-11.453 1.881,-11.453 0,0 1.633,4.998 1.881,11.453" /></g><g
           transform="translate(603.681,349.3692)"
           id="g198"><path
             id="path200"
             style="fill:#f5ede9;fill-opacity:1;fill-rule:nonzero;stroke:none"
             d="m 0,0 c 3.888,0.252 6.831,1.344 6.831,1.344 0,0 -2.943,1.093 -6.831,1.345 -0.206,5.359 -1.562,9.509 -1.562,9.509 0,0 -1.355,-4.15 -1.562,-9.509 -3.887,-0.252 -6.83,-1.345 -6.83,-1.345 0,0 2.943,-1.092 6.83,-1.344 0.207,-5.359 1.562,-9.509 1.562,-9.509 0,0 1.356,4.15 1.562,9.509" /></g><g
           id="g202"><g
             id="g204" /><g
             id="g216"><g
               style="opacity:0.44999701"
               id="g214"
               clip-path="url(#clipPath208)"><g
                 id="g212"
                 transform="translate(459.269,393.5412)"><path
                   id="path210"
                   style="fill:#fef8ed;fill-opacity:1;fill-rule:nonzero;stroke:none"
                   d="m 0,0 c 0,-46.54 -37.729,-84.269 -84.269,-84.269 -46.541,0 -84.269,37.729 -84.269,84.269 0,46.54 37.728,84.269 84.269,84.269 C -37.729,84.269 0,46.54 0,0" /></g></g></g></g><g
           transform="translate(447.4931,393.5412)"
           id="g218"><path
             id="path220"
             style="fill:#fef8ed;fill-opacity:1;fill-rule:nonzero;stroke:none"
             d="m 0,0 c 0,-40.037 -32.456,-72.493 -72.493,-72.493 -40.037,0 -72.493,32.456 -72.493,72.493 0,40.037 32.456,72.493 72.493,72.493 C -32.456,72.493 0,40.037 0,0" /></g><g
           transform="translate(384.6186,430.5908)"
           id="g222"><path
             id="path224"
             style="fill:#b8824e;fill-opacity:1;fill-rule:nonzero;stroke:none"
             d="m 0,0 h -19.237 l 9.618,62.584 z" /></g><g
           transform="translate(384.6186,430.5908)"
           id="g226"><path
             id="path228"
             style="fill:#af6d33;fill-opacity:1;fill-rule:nonzero;stroke:none"
             d="M 0,0 H -9.619 V 62.584 Z" /></g><g
           transform="translate(374.6544,431.8175)"
           id="g230"><path
             id="path232"
             style="fill:#74410b;fill-opacity:1;fill-rule:nonzero;stroke:none"
             d="m 0,0 -18.576,-5.002 -0.599,39.219 z" /></g><g
           transform="translate(374.6544,431.8175)"
           id="g234"><path
             id="path236"
             style="fill:#af6d33;fill-opacity:1;fill-rule:nonzero;stroke:none"
             d="m 0,0 -9.288,-2.501 -9.887,36.718 z" /></g><g
           transform="translate(355.5626,426.5167)"
           id="g238"><path
             id="path240"
             style="fill:#74410b;fill-opacity:1;fill-rule:nonzero;stroke:none"
             d="M 0,0 -13.586,-13.62 -33.714,20.045 Z" /></g><g
           transform="translate(355.5626,426.5167)"
           id="g242"><path
             id="path244"
             style="fill:#af6d33;fill-opacity:1;fill-rule:nonzero;stroke:none"
             d="M 0,0 -6.793,-6.81 -33.714,20.045 Z" /></g><g
           transform="translate(341.679,412.3801)"
           id="g246"><path
             id="path248"
             style="fill:#74410b;fill-opacity:1;fill-rule:nonzero;stroke:none"
             d="M 0,0 -4.956,-18.588 -39.22,0.503 Z" /></g><g
           transform="translate(341.679,412.3801)"
           id="g250"><path
             id="path252"
             style="fill:#af6d33;fill-opacity:1;fill-rule:nonzero;stroke:none"
             d="M 0,0 -2.478,-9.294 -39.22,0.503 Z" /></g><g
           transform="translate(336.7237,393.1957)"
           id="g254"><path
             id="path256"
             style="fill:#74410b;fill-opacity:1;fill-rule:nonzero;stroke:none"
             d="m 0,0 5.002,-18.576 -39.219,-0.599 z" /></g><g
           transform="translate(336.7237,393.1957)"
           id="g258"><path
             id="path260"
             style="fill:#af6d33;fill-opacity:1;fill-rule:nonzero;stroke:none"
             d="m 0,0 2.501,-9.288 -36.718,-9.887 z" /></g><g
           transform="translate(342.0246,374.1039)"
           id="g262"><path
             id="path264"
             style="fill:#74410b;fill-opacity:1;fill-rule:nonzero;stroke:none"
             d="M 0,0 13.619,-13.586 -20.045,-33.714 Z" /></g><g
           transform="translate(342.0246,374.1039)"
           id="g266"><path
             id="path268"
             style="fill:#af6d33;fill-opacity:1;fill-rule:nonzero;stroke:none"
             d="M 0,0 6.81,-6.793 -20.045,-33.714 Z" /></g><g
           transform="translate(356.1612,360.2202)"
           id="g270"><path
             id="path272"
             style="fill:#74410b;fill-opacity:1;fill-rule:nonzero;stroke:none"
             d="M 0,0 18.588,-4.956 -0.503,-39.22 Z" /></g><g
           transform="translate(356.1612,360.2202)"
           id="g274"><path
             id="path276"
             style="fill:#af6d33;fill-opacity:1;fill-rule:nonzero;stroke:none"
             d="M 0,0 9.294,-2.478 -0.503,-39.22 Z" /></g><g
           transform="translate(375.3456,355.265)"
           id="g278"><path
             id="path280"
             style="fill:#74410b;fill-opacity:1;fill-rule:nonzero;stroke:none"
             d="m 0,0 18.576,5.002 0.599,-39.219 z" /></g><g
           transform="translate(375.3456,355.265)"
           id="g282"><path
             id="path284"
             style="fill:#af6d33;fill-opacity:1;fill-rule:nonzero;stroke:none"
             d="m 0,0 9.288,2.501 9.887,-36.718 z" /></g><g
           transform="translate(394.4374,360.5658)"
           id="g286"><path
             id="path288"
             style="fill:#74410b;fill-opacity:1;fill-rule:nonzero;stroke:none"
             d="M 0,0 13.586,13.62 33.714,-20.045 Z" /></g><g
           transform="translate(394.4374,360.5658)"
           id="g290"><path
             id="path292"
             style="fill:#af6d33;fill-opacity:1;fill-rule:nonzero;stroke:none"
             d="M 0,0 6.793,6.81 33.714,-20.045 Z" /></g><g
           transform="translate(408.321,374.7023)"
           id="g294"><path
             id="path296"
             style="fill:#74410b;fill-opacity:1;fill-rule:nonzero;stroke:none"
             d="M 0,0 4.956,18.588 39.22,-0.503 Z" /></g><g
           transform="translate(408.321,374.7023)"
           id="g298"><path
             id="path300"
             style="fill:#af6d33;fill-opacity:1;fill-rule:nonzero;stroke:none"
             d="M 0,0 2.478,9.294 39.22,-0.503 Z" /></g><g
           transform="translate(413.2763,393.8867)"
           id="g302"><path
             id="path304"
             style="fill:#74410b;fill-opacity:1;fill-rule:nonzero;stroke:none"
             d="m 0,0 -5.002,18.576 39.219,0.599 z" /></g><g
           transform="translate(413.2763,393.8867)"
           id="g306"><path
             id="path308"
             style="fill:#af6d33;fill-opacity:1;fill-rule:nonzero;stroke:none"
             d="m 0,0 -2.501,9.288 36.718,9.887 z" /></g><g
           transform="translate(407.9754,412.9786)"
           id="g310"><path
             id="path312"
             style="fill:#74410b;fill-opacity:1;fill-rule:nonzero;stroke:none"
             d="M 0,0 -13.619,13.586 20.045,33.714 Z" /></g><g
           transform="translate(407.9754,412.9786)"
           id="g314"><path
             id="path316"
             style="fill:#af6d33;fill-opacity:1;fill-rule:nonzero;stroke:none"
             d="M 0,0 -6.81,6.793 20.045,33.714 Z" /></g><g
           transform="translate(393.8388,426.8622)"
           id="g318"><path
             id="path320"
             style="fill:#74410b;fill-opacity:1;fill-rule:nonzero;stroke:none"
             d="M 0,0 -18.588,4.956 0.503,39.22 Z" /></g><g
           transform="translate(393.8388,426.8622)"
           id="g322"><path
             id="path324"
             style="fill:#af6d33;fill-opacity:1;fill-rule:nonzero;stroke:none"
             d="M 0,0 -9.294,2.478 0.503,39.22 Z" /></g><g
           transform="translate(347.7234,420.396)"
           id="g326"><path
             id="path328"
             style="fill:#b8824e;fill-opacity:1;fill-rule:nonzero;stroke:none"
             d="m 0,0 -9.619,-16.66 -49.39,39.622 z" /></g><g
           transform="translate(347.7234,420.396)"
           id="g330"><path
             id="path332"
             style="fill:#af6d33;fill-opacity:1;fill-rule:nonzero;stroke:none"
             d="m 0,0 -4.809,-8.33 -54.2,31.292 z" /></g><g
           transform="translate(338.1048,383.3464)"
           id="g334"><path
             id="path336"
             style="fill:#b8824e;fill-opacity:1;fill-rule:nonzero;stroke:none"
             d="M 0,0 9.619,-16.66 -49.39,-39.622 Z" /></g><g
           transform="translate(338.1048,383.3464)"
           id="g338"><path
             id="path340"
             style="fill:#af6d33;fill-opacity:1;fill-rule:nonzero;stroke:none"
             d="M 0,0 4.809,-8.33 -49.39,-39.622 Z" /></g><g
           transform="translate(365.3814,356.4916)"
           id="g342"><path
             id="path344"
             style="fill:#b8824e;fill-opacity:1;fill-rule:nonzero;stroke:none"
             d="M 0,0 H 19.237 L 9.619,-62.584 Z" /></g><g
           transform="translate(365.3814,356.4916)"
           id="g346"><path
             id="path348"
             style="fill:#af6d33;fill-opacity:1;fill-rule:nonzero;stroke:none"
             d="M 0,0 H 9.619 V -62.584 Z" /></g><g
           transform="translate(402.2766,366.6864)"
           id="g350"><path
             id="path352"
             style="fill:#b8824e;fill-opacity:1;fill-rule:nonzero;stroke:none"
             d="m 0,0 9.619,16.66 49.39,-39.622 z" /></g><g
           transform="translate(402.2766,366.6864)"
           id="g354"><path
             id="path356"
             style="fill:#af6d33;fill-opacity:1;fill-rule:nonzero;stroke:none"
             d="m 0,0 4.809,8.33 54.2,-31.292 z" /></g><g
           transform="translate(411.8952,403.7361)"
           id="g358"><path
             id="path360"
             style="fill:#b8824e;fill-opacity:1;fill-rule:nonzero;stroke:none"
             d="M 0,0 -9.619,16.66 49.39,39.622 Z" /></g><g
           transform="translate(411.8952,403.7361)"
           id="g362"><path
             id="path364"
             style="fill:#af6d33;fill-opacity:1;fill-rule:nonzero;stroke:none"
             d="M 0,0 -4.809,8.33 49.39,39.622 Z" /></g><g
           transform="translate(402.1148,420.8179)"
           id="g366"><path
             id="path368"
             style="fill:#b8824e;fill-opacity:1;fill-rule:nonzero;stroke:none"
             d="m 0,0 c -1.947,3.206 -7.663,6.412 -16.766,9.618 5.559,4.116 10.339,8.232 12.86,12.348 2.707,4.116 3.154,8.232 4.334,12.348 1.132,4.115 2.992,8.231 7.379,12.347 4.101,4.116 10.729,8.232 14.841,12.347 C 20.108,54.091 15.866,49.174 13.682,44.256 11.289,39.339 10.953,34.422 11.352,29.504 12.502,19.669 14.973,9.835 0,0" /></g><g
           transform="translate(402.1148,420.8179)"
           id="g370"><path
             id="path372"
             style="fill:#ce9f64;fill-opacity:1;fill-rule:nonzero;stroke:none"
             d="m 0,0 c -1.056,1.603 -2.861,3.206 -5.685,4.809 5.262,4.517 8.805,9.033 10.253,13.55 1.584,4.517 1.072,9.033 1.378,13.55 0.25,4.517 1.313,9.033 4.718,13.55 3.154,4.516 8.651,9.033 11.984,13.549 C 20.108,54.091 15.866,49.174 13.682,44.256 11.289,39.339 10.953,34.422 11.352,29.504 12.502,19.669 14.973,9.835 0,0" /></g><g
           transform="translate(364.9352,430.6616)"
           id="g374"><path
             id="path376"
             style="fill:#b8824e;fill-opacity:1;fill-rule:nonzero;stroke:none"
             d="m 0,0 c -3.75,-0.083 -9.385,-3.43 -16.713,-9.711 -0.785,6.872 -1.959,13.07 -4.263,17.312 -2.211,4.401 -5.552,6.847 -8.527,9.926 -2.998,3.039 -5.632,6.708 -7.003,12.564 -1.514,5.611 -1.765,13.408 -3.273,19.027 2.989,-4.658 5.126,-10.79 8.293,-15.141 3.062,-4.531 7.153,-7.28 11.611,-9.394 C -10.784,20.661 -1.031,17.885 0,0" /></g><g
           transform="translate(364.9352,430.6616)"
           id="g378"><path
             id="path380"
             style="fill:#ce9f64;fill-opacity:1;fill-rule:nonzero;stroke:none"
             d="m 0,0 c -1.917,-0.113 -4.207,-0.874 -7.008,-2.519 -1.28,6.815 -3.42,12.142 -6.608,15.654 -3.119,3.63 -7.286,5.446 -11.045,7.969 -3.787,2.475 -7.167,5.654 -9.375,10.861 -2.335,4.99 -3.498,12.008 -5.743,17.153 2.989,-4.658 5.126,-10.79 8.293,-15.141 3.062,-4.531 7.153,-7.28 11.611,-9.394 C -10.784,20.661 -1.031,17.885 0,0" /></g><g
           transform="translate(337.8204,403.3851)"
           id="g382"><path
             id="path384"
             style="fill:#b8824e;fill-opacity:1;fill-rule:nonzero;stroke:none"
             d="m 0,0 c -1.803,-3.289 -1.722,-9.843 0.053,-19.329 -6.344,2.756 -12.298,4.838 -17.123,4.963 -4.918,0.286 -8.706,-1.384 -12.86,-2.42 -4.131,-1.078 -8.625,-1.525 -14.383,0.216 -5.615,1.494 -12.493,5.176 -18.114,6.679 5.529,0.259 11.908,-0.955 17.259,-0.388 5.455,0.386 9.881,2.554 13.94,5.358 C -23.285,0.992 -16.004,8.05 0,0" /></g><g
           transform="translate(337.8204,403.3851)"
           id="g386"><path
             id="path388"
             style="fill:#ce9f64;fill-opacity:1;fill-rule:nonzero;stroke:none"
             d="m 0,0 c -0.86,-1.716 -1.346,-4.081 -1.322,-7.328 -6.543,2.298 -12.226,3.108 -16.861,2.104 -4.704,-0.887 -8.36,-3.587 -12.424,-5.581 -4.036,-2.042 -8.479,-3.38 -14.094,-2.689 -5.488,0.473 -12.148,2.975 -17.726,3.603 5.529,0.259 11.908,-0.955 17.259,-0.388 5.455,0.386 9.881,2.554 13.94,5.358 C -23.285,0.992 -16.004,8.05 0,0" /></g><g
           transform="translate(347.8852,366.2647)"
           id="g390"><path
             id="path392"
             style="fill:#b8824e;fill-opacity:1;fill-rule:nonzero;stroke:none"
             d="M 0,0 C 1.947,-3.206 7.663,-6.413 16.766,-9.619 11.207,-13.734 6.427,-17.85 3.906,-21.966 1.199,-26.082 0.752,-30.198 -0.428,-34.314 -1.56,-38.43 -3.42,-42.545 -7.807,-46.661 c -4.101,-4.116 -10.729,-8.232 -14.841,-12.348 2.54,4.918 6.782,9.835 8.966,14.752 2.393,4.918 2.729,9.835 2.33,14.753 C -12.502,-19.67 -14.973,-9.835 0,0" /></g><g
           transform="translate(347.8852,366.2647)"
           id="g394"><path
             id="path396"
             style="fill:#ce9f64;fill-opacity:1;fill-rule:nonzero;stroke:none"
             d="m 0,0 c 1.056,-1.603 2.861,-3.206 5.685,-4.809 -5.262,-4.517 -8.805,-9.034 -10.253,-13.55 -1.584,-4.517 -1.072,-9.033 -1.378,-13.55 -0.25,-4.517 -1.313,-9.033 -4.718,-13.55 -3.154,-4.516 -8.651,-9.033 -11.984,-13.55 2.54,4.918 6.782,9.835 8.966,14.752 2.393,4.918 2.729,9.835 2.33,14.753 C -12.502,-19.67 -14.973,-9.835 0,0" /></g><g
           transform="translate(385.0649,356.4208)"
           id="g398"><path
             id="path400"
             style="fill:#b8824e;fill-opacity:1;fill-rule:nonzero;stroke:none"
             d="m 0,0 c 3.75,0.083 9.385,3.43 16.713,9.711 0.785,-6.872 1.959,-13.07 4.263,-17.312 2.211,-4.401 5.552,-6.846 8.527,-9.926 2.998,-3.039 5.632,-6.708 7.003,-12.564 1.514,-5.611 1.765,-13.408 3.273,-19.027 -2.989,4.658 -5.126,10.79 -8.293,15.141 -3.062,4.531 -7.153,7.28 -11.611,9.394 C 10.783,-20.661 1.031,-17.885 0,0" /></g><g
           transform="translate(385.0649,356.4208)"
           id="g402"><path
             id="path404"
             style="fill:#ce9f64;fill-opacity:1;fill-rule:nonzero;stroke:none"
             d="m 0,0 c 1.917,0.113 4.207,0.874 7.008,2.519 1.28,-6.815 3.42,-12.142 6.608,-15.654 3.119,-3.63 7.286,-5.446 11.045,-7.969 3.787,-2.475 7.167,-5.653 9.375,-10.861 2.335,-4.99 3.498,-12.008 5.743,-17.153 -2.989,4.658 -5.126,10.79 -8.293,15.141 -3.062,4.531 -7.153,7.28 -11.611,9.394 C 10.783,-20.661 1.031,-17.885 0,0" /></g><g
           transform="translate(412.1796,383.6974)"
           id="g406"><path
             id="path408"
             style="fill:#b8824e;fill-opacity:1;fill-rule:nonzero;stroke:none"
             d="m 0,0 c 1.803,3.289 1.722,9.843 -0.053,19.329 6.344,-2.756 12.298,-4.838 17.123,-4.964 4.918,-0.285 8.706,1.385 12.86,2.421 4.131,1.078 8.625,1.525 14.383,-0.216 C 49.928,15.076 56.806,11.394 62.427,9.891 56.898,9.632 50.519,10.846 45.168,10.279 39.713,9.893 35.287,7.725 31.228,4.921 23.285,-0.992 16.004,-8.05 0,0" /></g><g
           transform="translate(412.1796,383.6974)"
           id="g410"><path
             id="path412"
             style="fill:#ce9f64;fill-opacity:1;fill-rule:nonzero;stroke:none"
             d="M 0,0 C 0.86,1.716 1.346,4.081 1.322,7.328 7.865,5.03 13.548,4.22 18.183,5.224 c 4.704,0.887 8.36,3.588 12.424,5.581 4.036,2.042 8.479,3.38 14.094,2.689 C 50.189,13.021 56.849,10.519 62.427,9.891 56.898,9.632 50.519,10.846 45.168,10.279 39.713,9.893 35.287,7.725 31.228,4.921 23.285,-0.992 16.004,-8.05 0,0" /></g><g
           transform="translate(413.9013,393.5412)"
           id="g414"><path
             id="path416"
             style="fill:#e0b17a;fill-opacity:1;fill-rule:nonzero;stroke:none"
             d="m 0,0 c 0,-21.485 -17.417,-38.901 -38.901,-38.901 -21.485,0 -38.902,17.416 -38.902,38.901 0,21.485 17.417,38.901 38.902,38.901 C -17.417,38.901 0,21.485 0,0" /></g></g></g><g
       id="g418"><g
         clip-path="url(#clipPath424)"
         id="g420"><g
           transform="translate(408.846,393.9294)"
           id="g426"><path
             id="path428"
             style="fill:#74410b;fill-opacity:1;fill-rule:nonzero;stroke:none"
             d="m 0,0 c -9.951,0 -18.018,-8.067 -18.018,-18.018 0,-9.951 8.067,-18.018 18.018,-18.018 9.951,0 18.018,8.067 18.018,18.018 C 18.018,-8.067 9.951,0 0,0 m -49.674,-18.018 c 0,-9.951 -8.067,-18.018 -18.018,-18.018 -9.951,0 -18.018,8.067 -18.018,18.018 0,9.951 8.067,18.018 18.018,18.018 9.951,0 18.018,-8.067 18.018,-18.018" /></g></g></g><g
       id="g430"><g
         clip-path="url(#clipPath436)"
         id="g432"><g
           transform="translate(368.5857,401.9391)"
           id="g438"><path
             id="path440"
             style="fill:#af6d33;fill-opacity:1;fill-rule:nonzero;stroke:none"
             d="m 0,0 c 0,0 -5.984,-7.199 -13.364,-7.199 -7.381,0 -13.365,7.199 -13.365,7.199 0,0 5.984,7.199 13.365,7.199 C -5.984,7.199 0,0 0,0" /></g><g
           transform="translate(368.5857,398.8224)"
           id="g442"><path
             id="path444"
             style="fill:#ffffff;fill-opacity:1;fill-rule:nonzero;stroke:none"
             d="m 0,0 c 0,0 -5.984,-7.199 -13.364,-7.199 -7.381,0 -13.365,7.199 -13.365,7.199 0,0 5.984,7.199 13.365,7.199 C -5.984,7.199 0,0 0,0" /></g><g
           transform="translate(362.9418,398.8021)"
           id="g446"><path
             id="path448"
             style="fill:#74410b;fill-opacity:1;fill-rule:nonzero;stroke:none"
             d="m 0,0 c 0,-4.179 -3.388,-7.566 -7.566,-7.566 -4.179,0 -7.567,3.387 -7.567,7.566 0,4.179 3.388,7.566 7.567,7.566 C -3.388,7.566 0,4.179 0,0" /></g><g
           transform="translate(361.2108,398.8021)"
           id="g450"><path
             id="path452"
             style="fill:#000000;fill-opacity:1;fill-rule:nonzero;stroke:none"
             d="m 0,0 c 0,-3.223 -2.613,-5.836 -5.835,-5.836 -3.223,0 -5.836,2.613 -5.836,5.836 0,3.223 2.613,5.835 5.836,5.835 C -2.613,5.835 0,3.223 0,0" /></g><g
           transform="translate(375,407.1472)"
           id="g454"><path
             id="path456"
             style="fill:#ffffff;fill-opacity:1;fill-rule:nonzero;stroke:none"
             d="m 0,0 c 0,0 -4.663,3.876 -4.663,8.656 0,4.781 4.663,8.656 4.663,8.656 0,0 4.663,-3.875 4.663,-8.656 C 4.663,3.876 0,0 0,0" /></g><g
           transform="translate(375,411.0265)"
           id="g458"><path
             id="path460"
             style="fill:#74410b;fill-opacity:1;fill-rule:nonzero;stroke:none"
             d="M 0,0 C -2.583,0 -4.677,2.094 -4.677,4.677 -4.677,7.26 -2.583,9.354 0,9.354 2.583,9.354 4.677,7.26 4.677,4.677 4.677,2.094 2.583,0 0,0" /></g><g
           transform="translate(408.171,401.9391)"
           id="g462"><path
             id="path464"
             style="fill:#af6d33;fill-opacity:1;fill-rule:nonzero;stroke:none"
             d="m 0,0 c 0,0 -5.983,-7.199 -13.364,-7.199 -7.381,0 -13.365,7.199 -13.365,7.199 0,0 5.984,7.199 13.365,7.199 C -5.983,7.199 0,0 0,0" /></g><g
           transform="translate(408.171,398.8224)"
           id="g466"><path
             id="path468"
             style="fill:#ffffff;fill-opacity:1;fill-rule:nonzero;stroke:none"
             d="m 0,0 c 0,0 -5.983,-7.199 -13.364,-7.199 -7.381,0 -13.365,7.199 -13.365,7.199 0,0 5.984,7.199 13.365,7.199 C -5.983,7.199 0,0 0,0" /></g><g
           transform="translate(402.5272,398.8021)"
           id="g470"><path
             id="path472"
             style="fill:#74410b;fill-opacity:1;fill-rule:nonzero;stroke:none"
             d="m 0,0 c 0,-4.179 -3.388,-7.566 -7.566,-7.566 -4.179,0 -7.567,3.387 -7.567,7.566 0,4.179 3.388,7.566 7.567,7.566 C -3.388,7.566 0,4.179 0,0" /></g><g
           transform="translate(400.7962,398.8021)"
           id="g474"><path
             id="path476"
             style="fill:#000000;fill-opacity:1;fill-rule:nonzero;stroke:none"
             d="m 0,0 c 0,-3.223 -2.613,-5.836 -5.835,-5.836 -3.223,0 -5.836,2.613 -5.836,5.836 0,3.223 2.613,5.835 5.836,5.835 C -2.613,5.835 0,3.223 0,0" /></g><g
           transform="translate(346.4419,406.9584)"
           id="g478"><path
             id="path480"
             style="fill:none;stroke:#74410b;stroke-width:1;stroke-linecap:butt;stroke-linejoin:miter;stroke-miterlimit:10;stroke-dasharray:none;stroke-opacity:1"
             d="m 0,0 1.376,-3.213 m -4.712,0.898 2.049,-2.832 m -2.411,-2.029 -2.773,2.129" /></g><g
           transform="translate(402.1817,403.7456)"
           id="g482"><path
             id="path484"
             style="fill:none;stroke:#000000;stroke-width:0.63499999;stroke-linecap:butt;stroke-linejoin:miter;stroke-miterlimit:10;stroke-dasharray:none;stroke-opacity:1"
             d="M 0,0 1.376,3.213 M 2.664,-1.935 4.712,0.897 M 7.847,-1.834 5.074,-3.963" /></g><g
           transform="translate(341.2183,412.0992)"
           id="g486"><path
             id="path488"
             style="fill:#74410b;fill-opacity:1;fill-rule:nonzero;stroke:none"
             d="m 0,0 c 0,0 10.132,9.931 24.943,0.523 l 2.139,-7.979 C 21.658,0.545 8.589,2.922 0,0" /></g><g
           transform="translate(408.7817,412.0992)"
           id="g490"><path
             id="path492"
             style="fill:#74410b;fill-opacity:1;fill-rule:nonzero;stroke:none"
             d="m 0,0 c 0,0 -10.132,9.931 -24.943,0.523 l -2.139,-7.979 C -21.658,0.545 -8.589,2.922 0,0" /></g><g
           transform="translate(341.1479,412.0992)"
           id="g494"><path
             id="path496"
             style="fill:none;stroke:#74410b;stroke-width:1;stroke-linecap:butt;stroke-linejoin:miter;stroke-miterlimit:10;stroke-dasharray:none;stroke-opacity:1"
             d="m 0,0 c 11.603,3.648 28.313,-1.412 29.583,-14.332 0.766,-7.795 -4.103,-11.466 -4.103,-11.466 l 8.372,-5.369 8.372,5.369 c 0,0 -4.869,3.671 -4.103,11.466 1.27,12.92 17.98,17.98 29.583,14.332" /></g><g
           transform="translate(386.9045,376.722)"
           id="g498"><path
             id="path500"
             style="fill:#000000;fill-opacity:1;fill-rule:nonzero;stroke:none"
             d="m 0,0 -5.975,0.805 c -1.972,0.266 -3.917,-0.7 -5.106,-2.534 l -0.823,-1.27 -0.824,1.27 c -1.189,1.834 -3.134,2.8 -5.105,2.534 L -23.809,0 C -15.873,-11.981 -7.936,-11.981 0,0" /></g><g
           transform="translate(361.2601,377.9563)"
           id="g502"><path
             id="path504"
             style="fill:none;stroke:#74410b;stroke-width:1;stroke-linecap:butt;stroke-linejoin:miter;stroke-miterlimit:10;stroke-dasharray:none;stroke-opacity:1"
             d="M 0,0 C 9.16,-6.603 18.32,-6.603 27.48,0" /></g><g
           transform="translate(384.1146,361.0594)"
           id="g506"><path
             id="path508"
             style="fill:none;stroke:#74410b;stroke-width:1;stroke-linecap:butt;stroke-linejoin:miter;stroke-miterlimit:10;stroke-dasharray:none;stroke-opacity:1"
             d="M 0,0 C -6.076,5.55 -12.153,5.55 -18.229,0" /></g><g
           id="g510"><g
             id="g512" /><g
             id="g524"><g
               style="opacity:0.44999701"
               id="g522"
               clip-path="url(#clipPath516)"><g
                 id="g520"
                 transform="translate(459.269,91.0941)"><path
                   id="path518"
                   style="fill:#fef8ed;fill-opacity:1;fill-rule:nonzero;stroke:none"
                   d="m 0,0 c 0,-46.54 -37.729,-84.269 -84.269,-84.269 -46.54,0 -84.269,37.729 -84.269,84.269 0,46.54 37.729,84.269 84.269,84.269 C -37.729,84.269 0,46.54 0,0" /></g></g></g></g><g
           transform="translate(435.2804,91.0941)"
           id="g526"><path
             id="path528"
             style="fill:#fef8ed;fill-opacity:1;fill-rule:nonzero;stroke:none"
             d="m 0,0 c 0,-33.292 -26.989,-60.28 -60.28,-60.28 -33.292,0 -60.281,26.988 -60.281,60.28 0,33.292 26.989,60.281 60.281,60.281 C -26.989,60.281 0,33.292 0,0" /></g><g
           transform="translate(370.987,143.9778)"
           id="g530"><path
             id="path532"
             style="fill:#e0b17a;fill-opacity:1;fill-rule:nonzero;stroke:none"
             d="M 0,0 C -8.059,0 -15.692,-1.81 -22.528,-5.034 0.577,-7.749 10.401,-29.615 7.345,-45.765 5.295,-56.598 -5.935,-62.726 -5.935,-62.726 l 11.002,-7.055 c -2.158,-6.4 -5.768,-12.584 -10.045,-17.624 -1.897,0.397 -5.398,-1.436 -4.679,-4.757 -3.969,-3.69 -7.911,-6.231 -12.871,-8.571 6.836,-3.224 14.469,-5.034 22.528,-5.034 29.207,0 52.884,23.676 52.884,52.883 C 52.884,-23.677 29.207,0 0,0" /></g></g></g><g
       id="g534"><g
         clip-path="url(#clipPath540)"
         id="g536"><g
           transform="translate(416.9983,91.6217)"
           id="g542"><path
             id="path544"
             style="fill:#74410b;fill-opacity:1;fill-rule:nonzero;stroke:none"
             d="m 0,0 c -13.528,0 -24.494,-10.966 -24.494,-24.494 0,-13.528 10.966,-24.494 24.494,-24.494 13.528,0 24.494,10.966 24.494,24.494 C 24.494,-10.966 13.528,0 0,0" /></g></g></g><g
       id="g546"><g
         clip-path="url(#clipPath552)"
         id="g548"><g
           transform="translate(367.4672,58.3736)"
           id="g554"><path
             id="path556"
             style="fill:#000000;fill-opacity:1;fill-rule:nonzero;stroke:none"
             d="m 0,0 c 2.361,-3.452 15.122,-0.85 21.249,11.019 l -9.431,0.743 C 4.097,12.269 3.39,8.367 4.097,5.983 0.799,5.603 -1.397,2.043 0,0" /></g><g
           transform="translate(371.5638,64.3571)"
           id="g558"><path
             id="path560"
             style="fill:none;stroke:#74410b;stroke-width:1;stroke-linecap:butt;stroke-linejoin:miter;stroke-miterlimit:10;stroke-dasharray:none;stroke-opacity:1"
             d="M 0,0 C 6.549,-0.245 13.098,1.993 19.647,6.714" /></g><g
           transform="translate(370.2884,54.3813)"
           id="g562"><path
             id="path564"
             style="fill:none;stroke:#74410b;stroke-width:1;stroke-linecap:butt;stroke-linejoin:miter;stroke-miterlimit:10;stroke-dasharray:none;stroke-opacity:1"
             d="M 0,0 C -4.965,4.712 -10.331,0.479 -8.64,-3.3" /></g><g
           transform="translate(416.0808,102.3137)"
           id="g566"><path
             id="path568"
             style="fill:#b8824e;fill-opacity:1;fill-rule:nonzero;stroke:none"
             d="M 0,0 C 0,0 -8.134,-9.787 -18.168,-9.787 -28.202,-9.787 -36.336,0 -36.336,0 c 0,0 8.134,9.787 18.168,9.787 C -8.134,9.787 0,0 0,0" /></g><g
           transform="translate(416.0808,98.2735)"
           id="g570"><path
             id="path572"
             style="fill:#ffffff;fill-opacity:1;fill-rule:nonzero;stroke:none"
             d="M 0,0 C 0,0 -8.134,-9.787 -18.168,-9.787 -28.202,-9.787 -36.336,0 -36.336,0 c 0,0 8.134,9.787 18.168,9.787 C -8.134,9.787 0,0 0,0" /></g><g
           transform="translate(408.895,98.623)"
           id="g574"><path
             id="path576"
             style="fill:#74410b;fill-opacity:1;fill-rule:nonzero;stroke:none"
             d="m 0,0 c 0,-5.95 -4.823,-10.773 -10.773,-10.773 -5.949,0 -10.773,4.823 -10.773,10.773 0,5.95 4.824,10.773 10.773,10.773 C -4.823,10.773 0,5.95 0,0" /></g><g
           transform="translate(406.4305,98.623)"
           id="g578"><path
             id="path580"
             style="fill:#000000;fill-opacity:1;fill-rule:nonzero;stroke:none"
             d="m 0,0 c 0,-4.589 -3.72,-8.308 -8.308,-8.308 -4.589,0 -8.309,3.719 -8.309,8.308 0,4.589 3.72,8.308 8.309,8.308 C -3.72,8.308 0,4.589 0,0" /></g><g
           transform="translate(407.9387,104.9663)"
           id="g582"><path
             id="path584"
             style="fill:none;stroke:#74410b;stroke-width:1;stroke-linecap:butt;stroke-linejoin:miter;stroke-miterlimit:10;stroke-dasharray:none;stroke-opacity:1"
             d="M 0,0 1.871,4.367 M 3.621,-2.63 6.406,1.22 M 10.667,-2.494 6.898,-5.387" /></g><g
           transform="translate(416.9109,116.3224)"
           id="g586"><path
             id="path588"
             style="fill:#74410b;fill-opacity:1;fill-rule:nonzero;stroke:none"
             d="m 0,0 c 0,0 -18.359,11.601 -38.493,-1.188 0.992,-2.71 1.597,-5.664 1.677,-8.948 C -29.443,0.741 -11.676,3.973 0,0" /></g><g
           transform="translate(75.7261,404.6632)"
           id="g590"><path
             id="path592"
             style="fill:none;stroke:#74410b;stroke-width:1;stroke-linecap:butt;stroke-linejoin:miter;stroke-miterlimit:10;stroke-dasharray:none;stroke-opacity:1"
             d="m 0,0 h -16.212 m 8.106,8.106 V -8.106" /></g><g
           transform="translate(491.1821,228.2626)"
           id="g594"><path
             id="path596"
             style="fill:none;stroke:#74410b;stroke-width:1;stroke-linecap:butt;stroke-linejoin:miter;stroke-miterlimit:10;stroke-dasharray:none;stroke-opacity:1"
             d="m 0,0 h -16.212 m 8.106,8.106 V -8.106" /></g><g
           transform="translate(179.5007,153.5322)"
           id="g598"><path
             id="path600"
             style="fill:none;stroke:#74410b;stroke-width:1;stroke-linecap:butt;stroke-linejoin:miter;stroke-miterlimit:10;stroke-dasharray:none;stroke-opacity:1"
             d="m 0,0 h -8.433 m 4.217,4.216 v -8.432" /></g><g
           transform="translate(220.3743,75.4791)"
           id="g602"><path
             id="path604"
             style="fill:none;stroke:#74410b;stroke-width:1;stroke-linecap:butt;stroke-linejoin:miter;stroke-miterlimit:10;stroke-dasharray:none;stroke-opacity:1"
             d="m 0,0 h -8.433 m 4.217,4.216 v -8.432" /></g><g
           transform="translate(194.7518,399.7829)"
           id="g606"><path
             id="path608"
             style="fill:none;stroke:#74410b;stroke-width:1;stroke-linecap:butt;stroke-linejoin:miter;stroke-miterlimit:10;stroke-dasharray:none;stroke-opacity:1"
             d="m 0,0 h -9.76 m 4.88,4.88 v -9.76" /></g><g
           transform="translate(584.3145,278.3606)"
           id="g610"><path
             id="path612"
             style="fill:none;stroke:#74410b;stroke-width:1;stroke-linecap:butt;stroke-linejoin:miter;stroke-miterlimit:10;stroke-dasharray:none;stroke-opacity:1"
             d="m 0,0 h -9.76 m 4.88,4.88 v -9.76" /></g><g
           transform="translate(255.6955,278.3606)"
           id="g614"><path
             id="path616"
             style="fill:none;stroke:#74410b;stroke-width:1;stroke-linecap:butt;stroke-linejoin:miter;stroke-miterlimit:10;stroke-dasharray:none;stroke-opacity:1"
             d="m 0,0 h -9.76 m 4.88,4.88 v -9.76" /></g><g
           transform="translate(134.0349,341.1661)"
           id="g618"><path
             id="path620"
             style="fill:none;stroke:#74410b;stroke-width:1;stroke-linecap:butt;stroke-linejoin:miter;stroke-miterlimit:10;stroke-dasharray:none;stroke-opacity:1"
             d="m 0,0 h -9.76 m 4.88,4.88 v -9.76" /></g><g
           transform="translate(664.2219,253.3417)"
           id="g622"><path
             id="path624"
             style="fill:none;stroke:#74410b;stroke-width:1;stroke-linecap:butt;stroke-linejoin:miter;stroke-miterlimit:10;stroke-dasharray:none;stroke-opacity:1"
             d="m 0,0 h -9.76 m 4.88,4.88 v -9.76" /></g><g
           transform="translate(527.8927,346.0463)"
           id="g626"><path
             id="path628"
             style="fill:none;stroke:#74410b;stroke-width:1;stroke-linecap:butt;stroke-linejoin:miter;stroke-miterlimit:10;stroke-dasharray:none;stroke-opacity:1"
             d="m 0,0 h -9.76 m 4.88,4.88 v -9.76" /></g><g
           transform="translate(692.3723,428.6309)"
           id="g630"><path
             id="path632"
             style="fill:none;stroke:#74410b;stroke-width:1;stroke-linecap:butt;stroke-linejoin:miter;stroke-miterlimit:10;stroke-dasharray:none;stroke-opacity:1"
             d="m 0,0 h -16.212 m 8.106,8.106 V -8.106" /></g><g
           transform="translate(244.8717,447.6755)"
           id="g634"><path
             id="path636"
             style="fill:none;stroke:#74410b;stroke-width:1;stroke-linecap:butt;stroke-linejoin:miter;stroke-miterlimit:10;stroke-dasharray:none;stroke-opacity:1"
             d="m 0,0 h -6.683 m 3.341,3.342 v -6.684" /></g><g
           transform="translate(531.2344,441.663)"
           id="g638"><path
             id="path640"
             style="fill:none;stroke:#74410b;stroke-width:1;stroke-linecap:butt;stroke-linejoin:miter;stroke-miterlimit:10;stroke-dasharray:none;stroke-opacity:1"
             d="m 0,0 h -6.683 m 3.341,3.342 v -6.684" /></g><g
           transform="translate(76.6938,262.8279)"
           id="g642"><path
             id="path644"
             style="fill:none;stroke:#74410b;stroke-width:1;stroke-linecap:butt;stroke-linejoin:miter;stroke-miterlimit:10;stroke-dasharray:none;stroke-opacity:1"
             d="m 0,0 h -6.684 m 3.342,3.342 v -6.684" /></g><g
           transform="translate(375,250)"
           id="g646"><path
             id="path648"
             style="fill:none;stroke:#74410b;stroke-width:1;stroke-linecap:butt;stroke-linejoin:miter;stroke-miterlimit:10;stroke-dasharray:none;stroke-opacity:1"
             d="m 0,0 h -6.684 m 3.342,3.342 v -6.684" /></g><g
           transform="translate(605.461,415.8034)"
           id="g650"><path
             id="path652"
             style="fill:none;stroke:#74410b;stroke-width:1;stroke-linecap:butt;stroke-linejoin:miter;stroke-miterlimit:10;stroke-dasharray:none;stroke-opacity:1"
             d="m 0,0 h -6.684 m 3.342,3.342 v -6.684" /></g><g
           transform="translate(534.576,87.8503)"
           id="g654"><path
             id="path656"
             style="fill:none;stroke:#74410b;stroke-width:1;stroke-linecap:butt;stroke-linejoin:miter;stroke-miterlimit:10;stroke-dasharray:none;stroke-opacity:1"
             d="m 0,0 h -6.683 m 3.341,3.342 v -6.684" /></g><g
           transform="translate(662.6835,59.9325)"
           id="g658"><path
             id="path660"
             style="fill:none;stroke:#74410b;stroke-width:1;stroke-linecap:butt;stroke-linejoin:miter;stroke-miterlimit:10;stroke-dasharray:none;stroke-opacity:1"
             d="m 0,0 h -6.683 m 3.341,3.342 v -6.684" /></g><g
           transform="translate(70.9616,95.2672)"
           id="g662"><path
             id="path664"
             style="fill:none;stroke:#74410b;stroke-width:1;stroke-linecap:butt;stroke-linejoin:miter;stroke-miterlimit:10;stroke-dasharray:none;stroke-opacity:1"
             d="m 0,0 h -6.684 m 3.342,3.342 v -6.684" /></g><path
           id="path666"
           style="fill:none;stroke:#74410b;stroke-width:3;stroke-linecap:butt;stroke-linejoin:miter;stroke-miterlimit:10;stroke-dasharray:none;stroke-opacity:1"
           d="M 739.047,11.16 H 10.953 v 477.681 h 728.094 z" /><g
           transform="translate(697.2068,23.686)"
           id="g668"><path
             id="path670"
             style="fill:none;stroke:#74410b;stroke-width:1;stroke-linecap:butt;stroke-linejoin:miter;stroke-miterlimit:10;stroke-dasharray:none;stroke-opacity:1"
             d="m 0,0 h -644.414 c 0,16.81 -13.626,30.436 -30.436,30.436 v 391.756 c 16.81,0 30.436,13.626 30.436,30.436 H 0 c 0,-16.81 13.627,-30.436 30.436,-30.436 V 30.436 C 13.627,30.436 0,16.81 0,0 Z" /></g><g
           transform="translate(38.1876,467.913)"
           id="g672"><path
             id="path674"
             style="fill:none;stroke:#74410b;stroke-width:1;stroke-linecap:butt;stroke-linejoin:miter;stroke-miterlimit:10;stroke-dasharray:none;stroke-opacity:1"
             d="m 0,0 c 0,-4.082 -3.309,-7.39 -7.39,-7.39 -4.082,0 -7.391,3.308 -7.391,7.39 0,4.082 3.309,7.391 7.391,7.391 C -3.309,7.391 0,4.082 0,0 Z" /></g><g
           transform="translate(33.1559,466.9022)"
           id="g676"><path
             id="path678"
             style="fill:#74410b;fill-opacity:1;fill-rule:nonzero;stroke:none"
             d="m 0,0 c 7.739,0.155 13.679,1.011 13.679,1.011 0,0 -5.94,0.856 -13.679,1.011 2.434,2.777 3.844,5.192 3.844,5.192 0,0 -2.414,-1.411 -5.192,-3.844 -0.155,7.739 -1.011,13.679 -1.011,13.679 0,0 -0.856,-5.94 -1.011,-13.679 -2.777,2.433 -5.191,3.844 -5.191,3.844 0,0 1.41,-2.415 3.844,-5.192 -7.739,-0.155 -13.68,-1.011 -13.68,-1.011 0,0 5.941,-0.856 13.68,-1.011 -2.434,-2.778 -3.844,-5.192 -3.844,-5.192 0,0 2.414,1.41 5.191,3.844 0.155,-7.739 1.011,-13.679 1.011,-13.679 0,0 0.856,5.94 1.011,13.679 2.778,-2.434 5.192,-3.844 5.192,-3.844 0,0 -1.41,2.414 -3.844,5.192" /></g><g
           transform="translate(726.5933,467.913)"
           id="g680"><path
             id="path682"
             style="fill:none;stroke:#74410b;stroke-width:1;stroke-linecap:butt;stroke-linejoin:miter;stroke-miterlimit:10;stroke-dasharray:none;stroke-opacity:1"
             d="m 0,0 c 0,-4.082 -3.309,-7.39 -7.391,-7.39 -4.081,0 -7.39,3.308 -7.39,7.39 0,4.082 3.309,7.391 7.39,7.391 C -3.309,7.391 0,4.082 0,0 Z" /></g><g
           transform="translate(721.5616,466.9022)"
           id="g684"><path
             id="path686"
             style="fill:#74410b;fill-opacity:1;fill-rule:nonzero;stroke:none"
             d="m 0,0 c 7.739,0.155 13.679,1.011 13.679,1.011 0,0 -5.94,0.856 -13.679,1.011 2.434,2.777 3.844,5.192 3.844,5.192 0,0 -2.414,-1.411 -5.192,-3.844 -0.155,7.739 -1.011,13.679 -1.011,13.679 0,0 -0.856,-5.94 -1.011,-13.679 -2.777,2.433 -5.191,3.844 -5.191,3.844 0,0 1.41,-2.415 3.843,-5.192 -7.738,-0.155 -13.679,-1.011 -13.679,-1.011 0,0 5.941,-0.856 13.679,-1.011 -2.433,-2.778 -3.843,-5.192 -3.843,-5.192 0,0 2.414,1.41 5.191,3.844 0.155,-7.739 1.011,-13.679 1.011,-13.679 0,0 0.856,5.94 1.011,13.679 2.778,-2.434 5.192,-3.844 5.192,-3.844 0,0 -1.41,2.414 -3.844,5.192" /></g><g
           transform="translate(38.1876,32.087)"
           id="g688"><path
             id="path690"
             style="fill:none;stroke:#74410b;stroke-width:1;stroke-linecap:butt;stroke-linejoin:miter;stroke-miterlimit:10;stroke-dasharray:none;stroke-opacity:1"
             d="m 0,0 c 0,-4.082 -3.309,-7.391 -7.39,-7.391 -4.082,0 -7.391,3.309 -7.391,7.391 0,4.082 3.309,7.39 7.391,7.39 C -3.309,7.39 0,4.082 0,0 Z" /></g><g
           transform="translate(33.1559,31.0761)"
           id="g692"><path
             id="path694"
             style="fill:#74410b;fill-opacity:1;fill-rule:nonzero;stroke:none"
             d="m 0,0 c 7.739,0.155 13.679,1.011 13.679,1.011 0,0 -5.94,0.856 -13.679,1.011 2.434,2.777 3.844,5.192 3.844,5.192 0,0 -2.414,-1.41 -5.192,-3.844 -0.155,7.739 -1.011,13.679 -1.011,13.679 0,0 -0.856,-5.94 -1.011,-13.679 -2.777,2.434 -5.191,3.844 -5.191,3.844 0,0 1.41,-2.415 3.844,-5.192 -7.739,-0.155 -13.68,-1.011 -13.68,-1.011 0,0 5.941,-0.856 13.68,-1.011 -2.434,-2.778 -3.844,-5.192 -3.844,-5.192 0,0 2.414,1.41 5.191,3.844 0.155,-7.739 1.011,-13.679 1.011,-13.679 0,0 0.856,5.94 1.011,13.679 2.778,-2.434 5.192,-3.844 5.192,-3.844 0,0 -1.41,2.414 -3.844,5.192" /></g><g
           transform="translate(726.5933,32.087)"
           id="g696"><path
             id="path698"
             style="fill:none;stroke:#74410b;stroke-width:1;stroke-linecap:butt;stroke-linejoin:miter;stroke-miterlimit:10;stroke-dasharray:none;stroke-opacity:1"
             d="m 0,0 c 0,-4.082 -3.309,-7.391 -7.391,-7.391 -4.081,0 -7.39,3.309 -7.39,7.391 0,4.082 3.309,7.39 7.39,7.39 C -3.309,7.39 0,4.082 0,0 Z" /></g><g
           transform="translate(721.5616,31.0761)"
           id="g700"><path
             id="path702"
             style="fill:#74410b;fill-opacity:1;fill-rule:nonzero;stroke:none"
             d="m 0,0 c 7.739,0.155 13.679,1.011 13.679,1.011 0,0 -5.94,0.856 -13.679,1.011 2.434,2.777 3.844,5.192 3.844,5.192 0,0 -2.414,-1.41 -5.192,-3.844 -0.155,7.739 -1.011,13.679 -1.011,13.679 0,0 -0.856,-5.94 -1.011,-13.679 -2.777,2.434 -5.191,3.844 -5.191,3.844 0,0 1.41,-2.415 3.843,-5.192 -7.738,-0.155 -13.679,-1.011 -13.679,-1.011 0,0 5.941,-0.856 13.679,-1.011 -2.433,-2.778 -3.843,-5.192 -3.843,-5.192 0,0 2.414,1.41 5.191,3.844 0.155,-7.739 1.011,-13.679 1.011,-13.679 0,0 0.856,5.94 1.011,13.679 2.778,-2.434 5.192,-3.844 5.192,-3.844 0,0 -1.41,2.414 -3.844,5.192" /></g><g
           transform="translate(39.1646,145.249)"
           id="g704"><path
             id="path706"
             style="fill:#74410b;fill-opacity:1;fill-rule:nonzero;stroke:none"
             d="m 0,0 c -5.066,0 -9.297,3.543 -10.372,8.283 -0.172,-0.76 -0.272,-1.548 -0.272,-2.36 0,-5.878 4.766,-10.644 10.644,-10.644 5.878,0 10.643,4.766 10.643,10.644 0,0.812 -0.099,1.6 -0.271,2.36 C 9.297,3.543 5.066,0 0,0 m 0,34.524 c -4.224,0 -7.862,2.467 -9.582,6.033 -0.673,-1.397 -1.062,-2.957 -1.062,-4.611 0,-5.878 4.766,-10.643 10.644,-10.643 5.878,0 10.643,4.765 10.643,10.643 0,1.654 -0.388,3.214 -1.061,4.611 C 7.862,36.991 4.224,34.524 0,34.524 m 0,37.994 c -3.652,0 -6.872,1.841 -8.789,4.644 -1.169,-1.709 -1.855,-3.774 -1.855,-6 0,-5.878 4.766,-10.643 10.644,-10.643 5.878,0 10.643,4.765 10.643,10.643 0,2.226 -0.685,4.291 -1.854,6 C 6.872,74.359 3.652,72.518 0,72.518 m 0,136.984 c 5.066,0 9.297,-3.542 10.372,-8.283 0.172,0.76 0.271,1.548 0.271,2.36 0,5.878 -4.765,10.644 -10.643,10.644 -5.878,0 -10.644,-4.766 -10.644,-10.644 0,-0.812 0.1,-1.6 0.272,-2.36 1.075,4.741 5.306,8.283 10.372,8.283 m 0,-34.524 c 4.224,0 7.862,-2.467 9.582,-6.033 0.673,1.397 1.061,2.957 1.061,4.611 0,5.878 -4.765,10.643 -10.643,10.643 -5.878,0 -10.644,-4.765 -10.644,-10.643 0,-1.654 0.389,-3.214 1.062,-4.611 1.72,3.566 5.358,6.033 9.582,6.033 m 0,-37.994 c 3.652,0 6.872,-1.841 8.789,-4.644 1.169,1.709 1.854,3.774 1.854,6 0,5.878 -4.765,10.643 -10.643,10.643 -5.878,0 -10.644,-4.765 -10.644,-10.643 0,-2.226 0.686,-4.291 1.855,-6 1.917,2.803 5.137,4.644 8.789,4.644 M 10.643,104.751 C 10.643,98.873 5.878,94.108 0,94.108 c -5.878,0 -10.644,4.765 -10.644,10.643 0,5.878 4.766,10.644 10.644,10.644 5.878,0 10.643,-4.766 10.643,-10.644" /></g><g
           transform="translate(710.8354,145.249)"
           id="g708"><path
             id="path710"
             style="fill:#74410b;fill-opacity:1;fill-rule:nonzero;stroke:none"
             d="m 0,0 c -5.066,0 -9.297,3.543 -10.372,8.283 -0.172,-0.76 -0.271,-1.548 -0.271,-2.36 0,-5.878 4.765,-10.644 10.643,-10.644 5.878,0 10.643,4.766 10.643,10.644 0,0.812 -0.099,1.6 -0.271,2.36 C 9.297,3.543 5.066,0 0,0 m 0,34.524 c -4.224,0 -7.862,2.467 -9.582,6.033 -0.673,-1.397 -1.061,-2.957 -1.061,-4.611 0,-5.878 4.765,-10.643 10.643,-10.643 5.878,0 10.643,4.765 10.643,10.643 0,1.654 -0.388,3.214 -1.061,4.611 C 7.862,36.991 4.224,34.524 0,34.524 m 0,37.994 c -3.652,0 -6.872,1.841 -8.789,4.644 -1.169,-1.709 -1.854,-3.774 -1.854,-6 0,-5.878 4.765,-10.643 10.643,-10.643 5.878,0 10.643,4.765 10.643,10.643 0,2.226 -0.685,4.291 -1.854,6 C 6.872,74.359 3.652,72.518 0,72.518 m 0,136.984 c 5.066,0 9.297,-3.542 10.372,-8.283 0.172,0.76 0.271,1.548 0.271,2.36 0,5.878 -4.765,10.644 -10.643,10.644 -5.878,0 -10.643,-4.766 -10.643,-10.644 0,-0.812 0.099,-1.6 0.271,-2.36 1.075,4.741 5.306,8.283 10.372,8.283 m 0,-34.524 c 4.224,0 7.862,-2.467 9.582,-6.033 0.673,1.397 1.061,2.957 1.061,4.611 0,5.878 -4.765,10.643 -10.643,10.643 -5.878,0 -10.643,-4.765 -10.643,-10.643 0,-1.654 0.388,-3.214 1.061,-4.611 1.72,3.566 5.358,6.033 9.582,6.033 m 0,-37.994 c 3.652,0 6.872,-1.841 8.789,-4.644 1.169,1.709 1.854,3.774 1.854,6 0,5.878 -4.765,10.643 -10.643,10.643 -5.878,0 -10.643,-4.765 -10.643,-10.643 0,-2.226 0.685,-4.291 1.854,-6 1.917,2.803 5.137,4.644 8.789,4.644 M 10.643,104.751 C 10.643,98.873 5.878,94.108 0,94.108 c -5.878,0 -10.643,4.765 -10.643,10.643 0,5.878 4.765,10.644 10.643,10.644 5.878,0 10.643,-4.766 10.643,-10.644" /></g></g></g><g
       id="g712"><g
         clip-path="url(#clipPath718)"
         id="g714"><g
           transform="translate(184.1895,246.2249)"
           id="g720"><path
             id="path722"
             style="fill:none;stroke:#74410b;stroke-width:1;stroke-linecap:butt;stroke-linejoin:miter;stroke-miterlimit:10;stroke-dasharray:none;stroke-opacity:1"
             d="m 0,0 c 0,-77.344 -62.699,-140.043 -140.043,-140.043 -77.344,0 -140.043,62.699 -140.043,140.043 0,77.344 62.699,140.043 140.043,140.043 C -62.699,140.043 0,77.344 0,0 Z" /></g><g
           transform="translate(222.5382,246.2249)"
           id="g724"><path
             id="path726"
             style="fill:none;stroke:#74410b;stroke-width:1;stroke-linecap:butt;stroke-linejoin:miter;stroke-miterlimit:10;stroke-dasharray:none;stroke-opacity:1"
             d="m 0,0 c 0,-98.523 -79.869,-178.392 -178.392,-178.392 -98.523,0 -178.392,79.869 -178.392,178.392 0,98.523 79.869,178.392 178.392,178.392 C -79.869,178.392 0,98.523 0,0 Z" /></g><g
           transform="translate(156.3802,246.2249)"
           id="g728"><path
             id="path730"
             style="fill:none;stroke:#74410b;stroke-width:1;stroke-linecap:butt;stroke-linejoin:miter;stroke-miterlimit:10;stroke-dasharray:none;stroke-opacity:1"
             d="m 0,0 c 0,-61.985 -50.249,-112.234 -112.234,-112.234 -61.985,0 -112.233,50.249 -112.233,112.234 0,61.985 50.248,112.234 112.233,112.234 C -50.249,112.234 0,61.985 0,0 Z" /></g><g
           transform="translate(189.5222,287.1694)"
           id="g732"><path
             id="path734"
             style="fill:#b8824e;fill-opacity:1;fill-rule:nonzero;stroke:none"
             d="m 0,0 c 0,-4.933 -3.999,-8.932 -8.932,-8.932 -4.933,0 -8.932,3.999 -8.932,8.932 0,4.933 3.999,8.932 8.932,8.932 C -3.999,8.932 0,4.933 0,0" /></g><g
           transform="translate(127.8227,127.8671)"
           id="g736"><path
             id="path738"
             style="fill:#b8824e;fill-opacity:1;fill-rule:nonzero;stroke:none"
             d="m 0,0 c 0,-3.081 -2.497,-5.578 -5.578,-5.578 -3.08,0 -5.578,2.497 -5.578,5.578 0,3.08 2.498,5.578 5.578,5.578 C -2.497,5.578 0,3.08 0,0" /></g><g
           transform="translate(69.9666,356.6853)"
           id="g740"><path
             id="path742"
             style="fill:#b8824e;fill-opacity:1;fill-rule:nonzero;stroke:none"
             d="m 0,0 c 0,-1.724 -1.398,-3.122 -3.122,-3.122 -1.724,0 -3.122,1.398 -3.122,3.122 0,1.724 1.398,3.122 3.122,3.122 C -1.398,3.122 0,1.724 0,0" /></g><g
           transform="translate(38.2077,386.2681)"
           id="g744"><path
             id="path746"
             style="fill:#74410b;fill-opacity:1;fill-rule:nonzero;stroke:none"
             d="m 0,0 c 0,-1.724 -1.398,-3.122 -3.122,-3.122 -1.724,0 -3.122,1.398 -3.122,3.122 0,1.724 1.398,3.122 3.122,3.122 C -1.398,3.122 0,1.724 0,0" /></g><g
           transform="translate(218.0459,193.4546)"
           id="g748"><path
             id="path750"
             style="fill:#74410b;fill-opacity:1;fill-rule:nonzero;stroke:none"
             d="m 0,0 c 0,-1.724 -1.398,-3.122 -3.122,-3.122 -1.724,0 -3.122,1.398 -3.122,3.122 0,1.724 1.398,3.122 3.122,3.122 C -1.398,3.122 0,1.724 0,0" /></g><g
           transform="translate(178.1085,196.8448)"
           id="g752"><path
             id="path754"
             style="fill:#e0b17a;fill-opacity:1;fill-rule:nonzero;stroke:none"
             d="m 0,0 c 7.193,0.144 12.714,0.939 12.714,0.939 0,0 -5.521,0.796 -12.714,0.94 2.262,2.581 3.573,4.825 3.573,4.825 0,0 -2.244,-1.31 -4.826,-3.572 -0.144,7.192 -0.939,12.714 -0.939,12.714 0,0 -0.796,-5.522 -0.94,-12.714 -2.581,2.262 -4.825,3.572 -4.825,3.572 0,0 1.31,-2.244 3.573,-4.825 -7.193,-0.144 -12.714,-0.94 -12.714,-0.94 0,0 5.521,-0.795 12.714,-0.939 -2.263,-2.582 -3.573,-4.826 -3.573,-4.826 0,0 2.244,1.311 4.825,3.573 0.144,-7.193 0.94,-12.714 0.94,-12.714 0,0 0.795,5.521 0.939,12.714 2.582,-2.262 4.826,-3.573 4.826,-3.573 0,0 -1.311,2.244 -3.573,4.826" /></g><g
           transform="translate(173.8509,367.7676)"
           id="g756"><path
             id="path758"
             style="fill:#b8824e;fill-opacity:1;fill-rule:nonzero;stroke:none"
             d="m 0,0 c 7.193,0.144 12.714,0.939 12.714,0.939 0,0 -5.521,0.796 -12.714,0.94 2.262,2.581 3.573,4.825 3.573,4.825 0,0 -2.244,-1.31 -4.826,-3.572 -0.144,7.192 -0.939,12.714 -0.939,12.714 0,0 -0.796,-5.522 -0.94,-12.714 -2.581,2.262 -4.825,3.572 -4.825,3.572 0,0 1.31,-2.244 3.572,-4.825 -7.192,-0.144 -12.713,-0.94 -12.713,-0.94 0,0 5.521,-0.795 12.713,-0.939 -2.262,-2.582 -3.572,-4.826 -3.572,-4.826 0,0 2.244,1.311 4.825,3.573 0.144,-7.193 0.94,-12.714 0.94,-12.714 0,0 0.795,5.521 0.939,12.714 2.582,-2.262 4.826,-3.573 4.826,-3.573 0,0 -1.311,2.244 -3.573,4.826" /></g><g
           transform="translate(131.864,322.4418)"
           id="g760"><path
             id="path762"
             style="fill:#b8824e;fill-opacity:1;fill-rule:nonzero;stroke:none"
             d="m 0,0 -4.181,-0.645 3.003,-2.979 -3.762,1.937 0.681,-4.176 -1.904,3.779 -1.905,-3.779 0.681,4.176 -3.762,-1.937 3.003,2.979 -4.181,0.645 4.181,0.645 -3.003,2.979 3.762,-1.937 -0.681,4.176 1.905,-3.779 1.904,3.779 -0.681,-4.176 3.762,1.937 -3.003,-2.979 z" /></g><g
           transform="translate(49.0862,426.3038)"
           id="g764"><path
             id="path766"
             style="fill:#b8824e;fill-opacity:1;fill-rule:nonzero;stroke:none"
             d="m 0,0 -4.181,-0.645 3.003,-2.979 -3.762,1.937 0.681,-4.176 -1.904,3.779 -1.905,-3.779 0.681,4.176 -3.762,-1.937 3.003,2.979 -4.181,0.645 4.181,0.645 -3.003,2.979 3.762,-1.937 -0.681,4.176 1.905,-3.779 1.904,3.779 -0.681,-4.176 3.762,1.937 -3.003,-2.979 z" /></g><g
           transform="translate(864.2278,246.2249)"
           id="g768"><path
             id="path770"
             style="fill:none;stroke:#74410b;stroke-width:1;stroke-linecap:butt;stroke-linejoin:miter;stroke-miterlimit:10;stroke-dasharray:none;stroke-opacity:1"
             d="m 0,0 c 0,-77.344 -62.699,-140.043 -140.043,-140.043 -77.344,0 -140.043,62.699 -140.043,140.043 0,77.344 62.699,140.043 140.043,140.043 C -62.699,140.043 0,77.344 0,0 Z" /></g><g
           transform="translate(902.5764,246.2249)"
           id="g772"><path
             id="path774"
             style="fill:none;stroke:#74410b;stroke-width:1;stroke-linecap:butt;stroke-linejoin:miter;stroke-miterlimit:10;stroke-dasharray:none;stroke-opacity:1"
             d="m 0,0 c 0,-98.523 -79.869,-178.392 -178.392,-178.392 -98.523,0 -178.392,79.869 -178.392,178.392 0,98.523 79.869,178.392 178.392,178.392 C -79.869,178.392 0,98.523 0,0 Z" /></g><g
           transform="translate(836.4184,246.2249)"
           id="g776"><path
             id="path778"
             style="fill:none;stroke:#74410b;stroke-width:1;stroke-linecap:butt;stroke-linejoin:miter;stroke-miterlimit:10;stroke-dasharray:none;stroke-opacity:1"
             d="m 0,0 c 0,-61.985 -50.249,-112.234 -112.234,-112.234 -61.985,0 -112.234,50.249 -112.234,112.234 0,61.985 50.249,112.234 112.234,112.234 C -50.249,112.234 0,61.985 0,0 Z" /></g><g
           transform="translate(595.9357,209.0312)"
           id="g780"><path
             id="path782"
             style="fill:#e0b17a;fill-opacity:1;fill-rule:nonzero;stroke:none"
             d="m 0,0 c 0,-3.257 -2.64,-5.897 -5.897,-5.897 -3.257,0 -5.897,2.64 -5.897,5.897 0,3.257 2.64,5.897 5.897,5.897 C -2.64,5.897 0,3.257 0,0" /></g><g
           transform="translate(598.9866,367.856)"
           id="g784"><path
             id="path786"
             style="fill:#b8824e;fill-opacity:1;fill-rule:nonzero;stroke:none"
             d="m 0,0 c 0,-3.137 -2.543,-5.68 -5.68,-5.68 -3.137,0 -5.68,2.543 -5.68,5.68 0,3.137 2.543,5.68 5.68,5.68 C -2.543,5.68 0,3.137 0,0" /></g><g
           transform="translate(750.0048,356.6853)"
           id="g788"><path
             id="path790"
             style="fill:#b8824e;fill-opacity:1;fill-rule:nonzero;stroke:none"
             d="m 0,0 c 0,-1.724 -1.398,-3.122 -3.122,-3.122 -1.724,0 -3.122,1.398 -3.122,3.122 0,1.724 1.398,3.122 3.122,3.122 C -1.398,3.122 0,1.724 0,0" /></g><g
           transform="translate(718.246,386.2681)"
           id="g792"><path
             id="path794"
             style="fill:#74410b;fill-opacity:1;fill-rule:nonzero;stroke:none"
             d="m 0,0 c 0,-1.724 -1.398,-3.122 -3.122,-3.122 -1.724,0 -3.122,1.398 -3.122,3.122 0,1.724 1.398,3.122 3.122,3.122 C -1.398,3.122 0,1.724 0,0" /></g><g
           transform="translate(575.1196,150.7746)"
           id="g796"><path
             id="path798"
             style="fill:#74410b;fill-opacity:1;fill-rule:nonzero;stroke:none"
             d="m 0,0 c 0,-1.724 -1.398,-3.122 -3.122,-3.122 -1.724,0 -3.122,1.398 -3.122,3.122 0,1.724 1.398,3.122 3.122,3.122 C -1.398,3.122 0,1.724 0,0" /></g><g
           transform="translate(553.0047,281.5324)"
           id="g800"><path
             id="path802"
             style="fill:#b8824e;fill-opacity:1;fill-rule:nonzero;stroke:none"
             d="m 0,0 c 10.745,0.215 18.993,1.403 18.993,1.403 0,0 -8.248,1.189 -18.993,1.404 3.379,3.856 5.337,7.209 5.337,7.209 0,0 -3.352,-1.958 -7.209,-5.338 -0.215,10.745 -1.403,18.993 -1.403,18.993 0,0 -1.188,-8.248 -1.403,-18.993 -3.857,3.38 -7.209,5.338 -7.209,5.338 0,0 1.958,-3.353 5.337,-7.209 -10.745,-0.215 -18.993,-1.404 -18.993,-1.404 0,0 8.248,-1.188 18.993,-1.403 -3.379,-3.857 -5.337,-7.209 -5.337,-7.209 0,0 3.352,1.958 7.209,5.337 0.215,-10.745 1.403,-18.993 1.403,-18.993 0,0 1.188,8.248 1.403,18.993 3.857,-3.379 7.209,-5.337 7.209,-5.337 0,0 -1.958,3.352 -5.337,7.209" /></g><g
           transform="translate(644.3981,168.2895)"
           id="g804"><path
             id="path806"
             style="fill:#b8824e;fill-opacity:1;fill-rule:nonzero;stroke:none"
             d="m 0,0 c 4.82,0.096 8.519,0.63 8.519,0.63 0,0 -3.699,0.532 -8.519,0.629 1.516,1.73 2.394,3.233 2.394,3.233 0,0 -1.504,-0.878 -3.233,-2.394 -0.097,4.82 -0.63,8.52 -0.63,8.52 0,0 -0.533,-3.7 -0.63,-8.52 -1.729,1.516 -3.233,2.394 -3.233,2.394 0,0 0.878,-1.503 2.394,-3.233 -4.82,-0.097 -8.519,-0.629 -8.519,-0.629 0,0 3.699,-0.534 8.519,-0.63 -1.516,-1.73 -2.394,-3.234 -2.394,-3.234 0,0 1.504,0.879 3.233,2.394 0.097,-4.819 0.63,-8.519 0.63,-8.519 0,0 0.533,3.7 0.63,8.519 1.729,-1.515 3.233,-2.394 3.233,-2.394 0,0 -0.878,1.504 -2.394,3.234" /></g><g
           transform="translate(638.0518,350.261)"
           id="g808"><path
             id="path810"
             style="fill:#74410b;fill-opacity:1;fill-rule:nonzero;stroke:none"
             d="m 0,0 -6.763,-1.043 4.858,-4.82 -6.086,3.134 1.101,-6.756 -3.081,6.114 -3.081,-6.114 1.101,6.756 -6.085,-3.134 4.858,4.82 -6.764,1.043 6.764,1.043 -4.858,4.82 6.086,-3.134 -1.102,6.756 3.081,-6.114 3.081,6.114 -1.101,-6.756 6.086,3.134 -4.858,-4.82 z" /></g><g
           transform="translate(638.0518,98.6033)"
           id="g812"><path
             id="path814"
             style="fill:#b8824e;fill-opacity:1;fill-rule:nonzero;stroke:none"
             d="m 0,0 -6.763,-1.043 4.858,-4.82 -6.086,3.134 1.101,-6.756 -3.081,6.114 -3.081,-6.114 1.101,6.756 -6.085,-3.134 4.858,4.82 -6.764,1.043 6.764,1.043 -4.858,4.82 6.086,-3.134 -1.102,6.756 3.081,-6.114 3.081,6.114 -1.101,-6.756 6.086,3.134 -4.858,-4.82 z" /></g><g
           transform="translate(729.1245,426.3038)"
           id="g816"><path
             id="path818"
             style="fill:#b8824e;fill-opacity:1;fill-rule:nonzero;stroke:none"
             d="m 0,0 -4.181,-0.645 3.003,-2.979 -3.762,1.937 0.681,-4.176 -1.904,3.779 -1.905,-3.779 0.681,4.176 -3.762,-1.937 3.003,2.979 -4.181,0.645 4.181,0.645 -3.003,2.979 3.762,-1.937 -0.681,4.176 1.905,-3.779 1.904,3.779 -0.681,-4.176 3.762,1.937 -3.003,-2.979 z" /></g><g
           transform="translate(347.6801,195.2303)"
           id="g820"><path
             id="path822"
             style="fill:none;stroke:#ce9f64;stroke-width:1;stroke-linecap:butt;stroke-linejoin:miter;stroke-miterlimit:10;stroke-dasharray:none;stroke-opacity:1"
             d="m 0,0 -2.071,7.887 m -46.32,-35.522 -5.757,5.815 m -22.378,-53.909 -7.865,2.151 m 7.576,-57.878 -7.887,-2.071 m 35.522,-46.32 -5.815,-5.757 m 51.758,-30.243 2.151,7.865 7.423,27.143 m 50.375,-35.319 -2.071,7.886 m 54.14,21.82 -5.75,5.816 m 36,45.943 -7.864,2.151 m 8.176,57.798 -7.894,-2.072 m -21.813,54.141 -5.815,-5.75 m -45.943,36 -2.151,-7.865 m -10.358,-37.859 8.238,30.117 m 44.53,-26.019 -22.192,-21.963 m 17.546,-30.76 30.201,7.924 m -30.385,-43.336 30.117,-8.237 m -47.982,-22.338 21.963,-22.192 m -44.798,-25.555 -7.925,30.201 m -35.411,0.184 -8.238,-30.117 m -44.53,26.019 22.192,21.963 m -17.546,30.759 -30.201,-7.924 m 30.385,43.336 -30.117,8.238 m 47.982,22.338 -21.963,22.192 M 9.957,-37.965 2.033,-7.764 M 53.944,-58.021 89.463,3.498 m -16.028,-81.009 61.519,35.518 m -54.385,-62.143 h 71.036 m -78.17,-26.625 61.519,-35.518 m -81.01,16.028 35.519,-61.52 m -62.143,54.386 v -71.037 m -26.625,78.171 -35.518,-61.52 m 16.028,81.01 -61.52,-35.518 m 54.386,62.143 h -71.037 m 78.171,26.625 -61.52,35.518 M 0.695,-58.021 -34.823,3.498 M 27.32,-50.887 v 71.036" /></g><g
           transform="translate(347.6801,497.6774)"
           id="g824"><path
             id="path826"
             style="fill:none;stroke:#ce9f64;stroke-width:1;stroke-linecap:butt;stroke-linejoin:miter;stroke-miterlimit:10;stroke-dasharray:none;stroke-opacity:1"
             d="m 0,0 -2.071,7.887 m -46.32,-35.522 -5.757,5.815 m -22.378,-53.909 -7.865,2.151 m 7.576,-57.878 -7.887,-2.071 m 35.522,-46.32 -5.815,-5.757 m 51.758,-30.243 2.151,7.865 7.423,27.143 m 50.375,-35.319 -2.071,7.886 m 54.14,21.82 -5.75,5.816 m 36,45.943 -7.864,2.15 m 8.176,57.799 -7.894,-2.072 m -21.813,54.141 -5.815,-5.75 m -45.943,36 -2.151,-7.865 m -10.358,-37.859 8.238,30.117 m 44.53,-26.019 -22.192,-21.963 m 17.546,-30.76 30.201,7.925 m -30.385,-43.336 30.117,-8.238 m -47.982,-22.338 21.963,-22.192 m -44.798,-25.555 -7.925,30.201 m -35.411,0.184 -8.238,-30.117 m -44.53,26.019 22.192,21.963 m -17.546,30.759 -30.201,-7.924 m 30.385,43.336 -30.117,8.238 m 47.982,22.338 -21.963,22.192 M 9.957,-37.965 2.033,-7.764 M 53.944,-58.021 89.463,3.498 m -16.028,-81.01 61.519,35.519 m -54.385,-62.143 h 71.036 m -78.17,-26.625 61.519,-35.518 m -81.01,16.028 35.519,-61.52 m -62.143,54.386 v -71.037 m -26.625,78.171 -35.518,-61.52 m 16.028,81.01 -61.52,-35.518 m 54.386,62.143 h -71.037 m 78.171,26.624 -61.52,35.519 M 0.695,-58.021 -34.823,3.498 M 27.32,-50.887 v 71.036" /></g></g></g></g></svg>