<?xml version="1.0" encoding="UTF-8"?>
<svg id="Calque_2" data-name="Calque 2" xmlns="http://www.w3.org/2000/svg" xmlns:xlink="http://www.w3.org/1999/xlink" viewBox="0 0 623.62 371.15">
  <defs>
    <style>
      .cls-1 {
        clip-path: url(#clippath);
      }

      .cls-2 {
        fill: none;
      }

      .cls-2, .cls-3, .cls-4 {
        stroke-width: 0px;
      }

      .cls-5 {
        clip-path: url(#clippath-1);
      }

      .cls-3 {
        fill: #222221;
      }

      .cls-4 {
        fill: #a98152;
      }
    </style>
    <clipPath id="clippath">
      <rect id="SVGID" class="cls-2" x="468.2" width="155.42" height="258.57"/>
    </clipPath>
    <clipPath id="clippath-1">
      <rect id="SVGID-2" data-name="SVGID" class="cls-2" y="112.58" width="155.42" height="258.57" transform="translate(155.42 483.74) rotate(180)"/>
    </clipPath>
  </defs>
  <g id="PRINT_2" data-name="PRINT 2">
    <g>
      <g class="cls-1">
        <g>
          <path class="cls-4" d="M638.64,244.72l48.17-46.41s-70.17-45.54-75.3-49.81c-5.12-4.27-15.06-9.04-16.88-16.97-1.82-7.93-13.55-42.14-14.25-48.3-.69-6.16-3.94-17.38-6.78-20.88-2.85-3.5-15.52-20.29-21.2-28.37s-9.63-11.04-12.49-12.42-46.81-6.4-56.48-9.41-1.73,12.1,6.82,15.98c0,0-11.21,4.24-12.28,5.49-1.07,1.25,4.09,9.24,17.33,7.01,0,0-9.9,5.99-12.02,8.4-2.12,2.41,3.45,9.96,11.88,7.39,0,0,3.99,2.88,11.8,5.88,7.81,3,17.94,9.39,17.94,9.39,0,0,10.02,20.51,10.48,27.69.46,7.18,10.51,51.31,20.19,59.13,9.68,7.82,13.64,10.2,13.64,10.2l69.42,76.01Z"/>
          <path class="cls-3" d="M528.2,42.63c.71.98,2.95,2.24,1.7,3.54-3.46,2.5-6.34,6.38-10.06,8.25-12.19-8.8-3.97-25.86,8.36-11.78Z"/>
          <path class="cls-3" d="M489.69,27.98c.99,0,.2,1.13-.18,1.46-12.85,10.38-19.52,2.86.18-1.46Z"/>
          <path class="cls-3" d="M480.6,14.77c-3.75-.96-1.99-4.54,1.22-4.22,3.06.4,5.86,2.03,8.91,2.57.61.16,1.49.24,1.67.97-1.04,5.15-8.51,1.62-11.8.68Z"/>
          <path class="cls-3" d="M563.1,92s-.04.03-.06.05c-.19.12-.45.07-.57-.12-.16-.25-16.15-24.81-21.76-35.12-5.87-10.78-17.84-22.01-22.93-19.27-5.62,3.02-5.59,8.22-3.7,12.08,2.12,4.31,10.52,20.56,10.61,20.73.1.2.03.45-.18.55-.2.1-.45.03-.55-.18-.08-.16-8.49-16.42-10.61-20.74-2.06-4.2-2.08-9.87,4.05-13.17,6-3.23,18.53,9.47,24.05,19.61,5.6,10.28,21.57,34.82,21.73,35.06.11.17.08.39-.06.52Z"/>
          <path class="cls-3" d="M520.14,37.01c-.13.12-.33.15-.49.06l-3.9-2.26c-10.45.44-24.32-5.85-24.46-5.91-.21-.09-.3-.34-.2-.54.09-.21.34-.3.54-.2.14.06,13.94,6.32,24.2,5.83.08,0,.16.02.23.06l4,2.32c.2.11.26.37.15.56-.02.03-.04.06-.07.09Z"/>
          <path class="cls-3" d="M512.17,40.89c-.1.1-.24.14-.39.1l-6.7-1.69c-3.97.73-9.7,1.74-9.7,1.74l-.14-.81s5.81-1.02,9.79-1.76c.06-.01.12,0,.18,0l6.79,1.71c.22.06.35.28.3.5-.02.08-.06.14-.11.2Z"/>
          <path class="cls-3" d="M515.15,53.1c-.11.1-.27.14-.42.09-.05-.02-5.17-1.78-8.32-.78-3.27,1.04-10.06,3.71-10.12,3.74-.21.08-.45-.02-.53-.23-.08-.21.02-.45.23-.53.07-.03,6.88-2.71,10.18-3.76,3.41-1.09,8.62.71,8.84.78.21.07.33.31.25.52-.02.06-.06.12-.1.16Z"/>
          <path class="cls-3" d="M516.17,34.4c-.11.11-.27.15-.43.09-.21-.08-.32-.32-.24-.53l1.58-4.29c.08-.21.31-.32.53-.24.21.08.32.31.24.53l-1.58,4.29c-.02.06-.06.11-.1.15Z"/>
          <path class="cls-3" d="M530.87,42.72c-.13.12-.32.15-.48.07-.2-.11-.28-.36-.17-.56,1.4-2.62,3.41-4.92,5.83-6.64.18-.13.44-.09.57.1.13.18.09.45-.1.57-2.31,1.65-4.24,3.85-5.58,6.36-.02.04-.05.07-.08.1Z"/>
          <path class="cls-3" d="M505.65,38.81c-.06.06-.15.1-.24.11-.23.03-.43-.14-.46-.36-.16-1.36.21-2.78,1.02-3.89.13-.18.39-.22.57-.09.18.13.23.39.09.57-.68.94-1,2.15-.87,3.31.02.13-.03.26-.12.34Z"/>
          <path class="cls-3" d="M506.9,51.9s-.09.07-.14.09c-.21.08-.45-.03-.53-.24-.78-2.13-.94-4.52-.45-6.73.05-.22.27-.36.49-.31.22.05.36.27.31.49-.46,2.06-.31,4.29.41,6.27.06.16.01.33-.1.44Z"/>
          <path class="cls-3" d="M582.98,161.65c-.07.06-.15.11-.25.11-4.33.36-8.62,2.31-11.69,5.37,0,0,0,0,0,0-.16.16-.42.15-.58,0-.16-.16-.16-.42,0-.58,3.25-3.17,7.68-5.22,12.2-5.6.23-.02.43.15.44.38.01.13-.04.25-.12.33Z"/>
        </g>
      </g>
      <g class="cls-5">
        <g>
          <path class="cls-4" d="M-15.02,126.43l-48.17,46.41S6.98,218.37,12.11,222.65c5.12,4.27,15.06,9.04,16.88,16.97,1.82,7.93,13.55,42.14,14.25,48.3.69,6.16,3.94,17.38,6.78,20.88,2.85,3.5,15.52,20.29,21.2,28.37,5.67,8.08,9.63,11.04,12.49,12.42,2.86,1.37,46.81,6.4,56.48,9.41,9.67,3.01,1.73-12.1-6.82-15.98,0,0,11.21-4.24,12.28-5.49,1.07-1.25-4.09-9.24-17.33-7.01,0,0,9.9-5.99,12.02-8.4,2.12-2.41-3.45-9.96-11.88-7.39,0,0-3.99-2.88-11.8-5.88-7.81-3-17.94-9.39-17.94-9.39,0,0-10.02-20.51-10.48-27.69-.46-7.18-10.51-51.31-20.19-59.13s-13.64-10.2-13.64-10.2L-15.02,126.43Z"/>
          <path class="cls-3" d="M95.42,328.53c-.71-.98-2.95-2.24-1.7-3.54,3.46-2.5,6.34-6.38,10.06-8.25,12.19,8.8,3.97,25.86-8.36,11.79Z"/>
          <path class="cls-3" d="M133.93,343.17c-.99,0-.2-1.13.18-1.46,12.85-10.38,19.52-2.86-.18,1.46Z"/>
          <path class="cls-3" d="M143.02,356.38c3.75.96,1.99,4.54-1.22,4.22-3.06-.4-5.86-2.03-8.91-2.57-.61-.16-1.49-.24-1.67-.97,1.04-5.15,8.51-1.62,11.8-.68Z"/>
          <path class="cls-3" d="M60.52,279.16s.04-.03.06-.05c.19-.12.45-.07.57.12.16.25,16.15,24.81,21.76,35.12,5.87,10.78,17.84,22.01,22.93,19.27,5.62-3.02,5.59-8.22,3.7-12.08-2.12-4.31-10.52-20.57-10.61-20.73-.1-.2-.03-.45.18-.55.2-.1.45-.03.55.18.08.16,8.49,16.42,10.61,20.74,2.06,4.2,2.08,9.87-4.05,13.17-6,3.23-18.53-9.47-24.05-19.61-5.6-10.28-21.57-34.82-21.73-35.06-.11-.17-.08-.39.06-.52Z"/>
          <path class="cls-3" d="M103.48,334.15c.13-.12.33-.15.49-.06l3.9,2.26c10.45-.44,24.32,5.85,24.46,5.91.21.09.3.34.2.54-.09.21-.34.3-.54.2-.14-.06-13.94-6.32-24.2-5.83-.08,0-.16-.02-.23-.06l-4-2.32c-.2-.11-.26-.37-.15-.56.02-.03.04-.06.07-.09Z"/>
          <path class="cls-3" d="M111.45,330.27c.1-.1.24-.14.39-.1l6.7,1.69c3.97-.73,9.7-1.74,9.7-1.74l.14.81s-5.81,1.02-9.79,1.76c-.06.01-.12,0-.18,0l-6.79-1.71c-.22-.06-.35-.28-.3-.5.02-.08.06-.14.11-.2Z"/>
          <path class="cls-3" d="M108.47,318.05c.11-.1.27-.14.42-.09.05.02,5.17,1.78,8.32.78,3.27-1.04,10.06-3.71,10.12-3.74.21-.08.45.02.53.23.08.21-.02.45-.23.53-.07.03-6.88,2.71-10.18,3.76-3.41,1.09-8.62-.71-8.84-.78-.21-.08-.33-.31-.25-.52.02-.06.06-.12.1-.16Z"/>
          <path class="cls-3" d="M107.45,336.75c.11-.11.27-.15.43-.09.21.08.32.32.24.53l-1.58,4.29c-.08.21-.31.32-.53.24-.21-.08-.32-.31-.24-.53l1.58-4.29c.02-.06.06-.11.1-.15Z"/>
          <path class="cls-3" d="M92.75,328.43c.12-.12.32-.15.48-.07.2.11.28.36.17.56-1.4,2.62-3.41,4.92-5.83,6.64-.18.13-.44.09-.57-.1-.13-.18-.09-.45.1-.57,2.31-1.65,4.24-3.85,5.58-6.36.02-.04.05-.07.08-.1Z"/>
          <path class="cls-3" d="M117.97,332.34c.06-.06.15-.1.24-.11.23-.03.43.14.46.36.16,1.36-.21,2.78-1.02,3.89-.13.18-.39.22-.57.09-.18-.13-.23-.39-.09-.57.68-.94,1-2.15.87-3.31-.02-.13.03-.26.12-.34Z"/>
          <path class="cls-3" d="M116.72,319.25s.09-.07.14-.09c.21-.08.45.03.53.25.78,2.13.94,4.52.45,6.73-.05.22-.27.36-.49.31-.22-.05-.36-.27-.31-.49.46-2.06.31-4.29-.41-6.27-.06-.16-.01-.33.1-.44Z"/>
          <path class="cls-3" d="M40.64,209.5c.07-.06.15-.11.25-.11,4.33-.36,8.62-2.31,11.69-5.37h0c.16-.16.42-.16.58,0,.16.16.16.42,0,.58-3.25,3.17-7.68,5.22-12.2,5.6-.23.02-.43-.15-.44-.38-.01-.13.04-.25.12-.33Z"/>
        </g>
      </g>
    </g>
  </g>
</svg>