<?xml version="1.0" encoding="UTF-8"?>
<svg xmlns="http://www.w3.org/2000/svg" xmlns:xlink="http://www.w3.org/1999/xlink" viewBox="0 0 750.46 500.5">
  <defs>
    <style>
      .cls-1 {
        clip-path: url(#clippath);
      }

      .cls-2, .cls-3, .cls-4, .cls-5, .cls-6, .cls-7, .cls-8, .cls-9, .cls-10, .cls-11 {
        fill: none;
      }

      .cls-2, .cls-12, .cls-13, .cls-14, .cls-15 {
        stroke-width: 0px;
      }

      .cls-3 {
        stroke: #f3eadf;
      }

      .cls-3, .cls-7 {
        stroke-width: .64px;
      }

      .cls-3, .cls-7, .cls-8, .cls-10, .cls-11 {
        stroke-linecap: round;
        stroke-linejoin: round;
      }

      .cls-4 {
        stroke-width: .86px;
      }

      .cls-4, .cls-5, .cls-6, .cls-9 {
        stroke-miterlimit: 10;
      }

      .cls-4, .cls-6, .cls-8, .cls-9, .cls-10 {
        stroke: #222221;
      }

      .cls-5 {
        stroke: #a98152;
        stroke-width: 1.28px;
      }

      .cls-6 {
        stroke-width: 1.25px;
      }

      .cls-7 {
        stroke: #353637;
      }

      .cls-16 {
        clip-path: url(#clippath-1);
      }

      .cls-17 {
        clip-path: url(#clippath-2);
      }

      .cls-8 {
        stroke-width: .4px;
      }

      .cls-9 {
        stroke-width: 1.02px;
      }

      .cls-10, .cls-11 {
        stroke-width: .5px;
      }

      .cls-11 {
        stroke: #dcd9cd;
      }

      .cls-12 {
        fill: #353637;
      }

      .cls-13 {
        fill: #222221;
      }

      .cls-14 {
        fill: #dcd9cd;
      }

      .cls-15 {
        fill: #a98152;
      }
    </style>
    <clipPath id="clippath">
      <path id="SVGID" class="cls-2" d="M390.52,247.17s7.61-17.02,22.57-14.31c0,0,6.28,1.64,10.27,5.71,3.99,4.07,9,5.49,9,5.49,0,0-9.8,10.94-41.84,3.11Z"/>
    </clipPath>
    <clipPath id="clippath-1">
      <path id="SVGID-2" data-name="SVGID" class="cls-2" d="M366,247.17s-7.61-17.02-22.57-14.31c0,0-6.28,1.64-10.27,5.71-3.99,4.07-9,5.49-9,5.49,0,0,9.8,10.94,41.84,3.11Z"/>
    </clipPath>
    <clipPath id="clippath-2">
      <rect id="SVGID-3" data-name="SVGID" class="cls-2" x="293.53" y="-265.54" width="163.39" height="721.9" rx="4.54" ry="4.54" transform="translate(470.64 -279.81) rotate(90)"/>
    </clipPath>
  </defs>
  <g id="BACKGROUND">
    <rect class="cls-14" x=".23" y=".21" width="750" height="500"/>
  </g>
  <g id="OBJECTS">
    <rect class="cls-5" x="138.73" y="-110.74" width="472.98" height="721.9" rx="7.72" ry="7.72" transform="translate(625.44 -125.01) rotate(90)"/>
    <g>
      <g>
        <g>
          <path class="cls-13" d="M328.33,197.04l-32.9-81.8,56.13,66.41s-3.67,14.86-23.22,15.39Z"/>
          <path class="cls-13" d="M427.69,307.74l29.3,76.13-52.55-60.78s4.11-14.17,23.25-15.35Z"/>
          <path class="cls-13" d="M327.85,303.71l-62.23,25.33,46.96-50.16s12.47,5.1,15.27,24.83Z"/>
          <path class="cls-13" d="M378.98,176.99l29.3-79.13-2.23,85.69s-12.39,7.34-27.07-6.56Z"/>
          <path class="cls-13" d="M377.26,327.85l-28.44,75.28,1.37-81.82s12.29-6.89,27.07,6.54Z"/>
          <path class="cls-13" d="M449.25,255.16l72.83,33.36-78.69-4.8s-6.82-13.37,5.86-28.56Z"/>
          <path class="cls-13" d="M306.86,249.88l-74.61-33.76,80.46,5.19s7.04,13.42-5.85,28.56Z"/>
          <path class="cls-15" d="M349.16,179.36s9.76-19.42,6.41-29.38c-3.35-9.96-17.63-25.06-10.55-38.66s3.89-17.86,3.89-17.86c0,0,6.87,6.58,4.81,18.39-2.06,11.81,11.55,21.16,14.59,24.1,4.67,4.5,16.93,19.82,6.83,39.67-10.1,19.85-30.58,15.1-25.98,3.73Z"/>
          <path class="cls-15" d="M406.59,325.36s-9.92,18.54-6.65,27.97c3.26,9.43,17.38,23.65,10.2,36.64-7.19,12.98-4.04,17-4.04,17,0,0-6.8-6.19-4.64-17.43,2.16-11.24-11.35-20-14.37-22.77-4.62-4.24-16.73-18.68-6.48-37.63,10.26-18.95,30.66-14.61,25.98-3.77Z"/>
          <path class="cls-15" d="M445.93,223.71s17.66,10.94,26.47,7.68c8.81-3.26,21.89-17.97,34.26-10.05,12.37,7.92,16.09,4.66,16.09,4.66,0,0-5.68,7.09-16.31,4.56-10.63-2.54-18.59,11.63-21.12,14.78-3.89,4.82-17.22,17.38-35.28,6.07-18.05-11.31-14.41-32.91-4.11-27.69Z"/>
          <path class="cls-15" d="M309.61,281.63s-18.71-10.76-28.15-7.39c-9.43,3.37-23.56,18.25-36.66,10.46-13.11-7.79-17.11-4.48-17.11-4.48,0,0,6.14-7.17,17.45-4.75,11.31,2.42,19.96-11.87,22.7-15.05,4.2-4.87,18.57-17.62,37.7-6.49,19.13,11.12,14.99,32.81,4.07,27.7Z"/>
          <path class="cls-15" d="M406,179.77s20.4-6.87,24.84-16.71c4.44-9.84,4.54-31.7,19-36.33,14.46-4.63,15.09-10.16,15.09-10.16,0,0,.42,10.02-9.2,17.12-9.62,7.11-6.24,24.25-6.07,28.71.26,6.83-1.44,27.33-22.38,34.26-20.94,6.93-32.43-12.03-21.29-16.89Z"/>
          <path class="cls-15" d="M350.19,324.37s-19.44,5.5-23.28,14.5c-3.85,9-2.95,29.46-16.74,33.13-13.79,3.67-14.15,8.82-14.15,8.82,0,0-.86-9.39,8.12-15.6,8.98-6.21,4.94-22.41,4.57-26.58-.57-6.4.15-25.51,20.1-31.04,19.95-5.53,31.93,12.73,21.38,16.78Z"/>
          <path class="cls-15" d="M445.34,283.15s4.01,19.96,11.74,23.85c7.73,3.89,25.7,2.8,28.34,16.97,2.64,14.16,7.14,14.49,7.14,14.49,0,0-8.27.96-13.34-8.23-5.07-9.2-19.44-4.9-23.11-4.49-5.63.63-22.35.05-26.37-20.44-4.01-20.49,12.5-32.97,15.6-22.14Z"/>
          <path class="cls-15" d="M309.69,221.56s-5.35-20.91-13.86-25.34c-8.51-4.43-27.75-4.25-31.33-19.07-3.58-14.82-8.43-15.4-8.43-15.4,0,0,8.83-.57,14.76,9.24,5.93,9.8,21.13,6.1,25.06,5.86,6.02-.36,24.01,1.11,29.39,22.57,5.38,21.46-11.7,33.54-15.6,22.14Z"/>
          <path class="cls-13" d="M429.02,200.93l74.02-32.82-58.83,57.7s-13.86-4.22-15.19-24.88Z"/>
        </g>
        <g>
          <ellipse class="cls-15" cx="377.93" cy="252.65" rx="78.35" ry="83.57" transform="translate(-37.39 67.79) rotate(-9.77)"/>
          <path class="cls-10" d="M335.09,181.76c26.08-17.44,58.48-16.16,83.45.41"/>
          <path class="cls-10" d="M312.13,296.64c-19.09-31.59-16.08-71.19,4.89-98.07"/>
          <path class="cls-10" d="M420.76,323.53c-29.64,19.82-67.47,15.47-93.24-8.06"/>
          <path class="cls-10" d="M443.72,208.65c20.85,34.5,15.34,78.53-11.12,105.14"/>
          <path class="cls-10" d="M387.33,177.11c9.78,1.6,19.26,5.31,27.8,10.98"/>
          <path class="cls-10" d="M338.69,187.71c13.09-8.76,27.93-12.36,42.43-11.33"/>
          <path class="cls-10" d="M313.09,218.07c2.42-5.31,5.44-10.34,9.05-14.95"/>
          <path class="cls-10" d="M306.45,259.63c-1.21-11.47.03-23,3.56-33.69"/>
          <path class="cls-10" d="M317.65,292.95c-4.73-7.83-7.98-16.2-9.83-24.73"/>
          <path class="cls-10" d="M349.21,322.05c-6.24-3.02-12.13-6.99-17.46-11.86"/>
          <path class="cls-10" d="M389.05,328.41c-10.86,1.55-21.92.4-32.3-3.23"/>
          <path class="cls-10" d="M417.17,317.58c-5.92,3.96-12.2,6.87-18.65,8.77"/>
          <path class="cls-10" d="M444.53,283.01c-3.68,9.54-9.24,18.31-16.53,25.64"/>
          <path class="cls-10" d="M438.2,212.34c10.64,17.6,13.78,37.92,10.3,56.67"/>
        </g>
      </g>
      <g>
        <g>
          <path class="cls-14" d="M390.52,247.17s7.61-17.02,22.57-14.31c0,0,6.28,1.64,10.27,5.71,3.99,4.07,9,5.49,9,5.49,0,0-9.8,10.94-41.84,3.11Z"/>
          <g class="cls-1">
            <circle class="cls-13" cx="411.44" cy="241.28" r="12.92" transform="translate(74.88 579.25) rotate(-75.51)"/>
          </g>
          <path class="cls-13" d="M394.93,240.4s10.37-6.26,20.31-2.52c5.87,2.21,12.73,9.66,24.14,5.21,0,0-8.83.22-18.24-6.4-9.41-6.62-20.18-6.2-26.21,3.71Z"/>
        </g>
        <g>
          <path class="cls-14" d="M366,247.17s-7.61-17.02-22.57-14.31c0,0-6.28,1.64-10.27,5.71-3.99,4.07-9,5.49-9,5.49,0,0,9.8,10.94,41.84,3.11Z"/>
          <g class="cls-16">
            <circle class="cls-13" cx="345.08" cy="241.28" r="12.92" transform="translate(-46 85.23) rotate(-13.21)"/>
          </g>
          <path class="cls-13" d="M361.59,240.4s-10.37-6.26-20.31-2.52c-5.87,2.21-12.73,9.66-24.14,5.21,0,0,8.83.22,18.24-6.4,9.41-6.62,20.18-6.2,26.21,3.71Z"/>
        </g>
        <path class="cls-13" d="M378.26,300.44c-15.09,0-18.43-11.45-18.43-11.45,0,0,4.63-1.94,6.9-4.6,2.26-2.66,7.65-4.29,11.53-1.74,3.88-2.56,9.27-.92,11.53,1.74,2.26,2.66,6.9,4.6,6.9,4.6,0,0-3.34,11.45-18.43,11.45Z"/>
        <path class="cls-13" d="M409.31,213.08s-17.7,4.25-17.23,9.32c.47,5.07,14.16,1.65,21-.94,6.84-2.6,14.75-4.48,23.95,4.6,0,0,.75.8.68-.87-.06-1.67-4.58-6-10.55-10.92-5.97-4.92-12.87-2.62-17.86-1.19Z"/>
        <path class="cls-13" d="M347.21,213.08s17.7,4.25,17.23,9.32c-.47,5.07-14.16,1.65-21-.94-6.84-2.6-14.75-4.48-23.95,4.6,0,0-.75.8-.68-.87.06-1.67,4.58-6,10.55-10.92s12.87-2.62,17.86-1.19Z"/>
        <path class="cls-10" d="M367.76,233.17s5.4,11.46,4.09,23.91"/>
        <path class="cls-10" d="M388.75,233.17s-5.4,11.46-4.09,23.91"/>
        <g>
          <path class="cls-10" d="M368.19,262.43s-6.6,4.81-.43,9.2"/>
          <path class="cls-10" d="M387.57,271.63c6.18-4.39-.43-9.2-.43-9.2"/>
          <path class="cls-10" d="M371.36,270.32s1.55-1.4,3.96.09"/>
          <path class="cls-10" d="M380.07,270.32s1.55-1.4,3.96.09"/>
        </g>
        <path class="cls-10" d="M398.37,284.23s3.4,1.65,2.27,5.71"/>
        <path class="cls-10" d="M358.15,284.23s-3.4,1.65-2.27,5.71"/>
        <path class="cls-11" d="M359.83,289.59s3.48.91,5.84.61c2.36-.3,5.27-1.46,7.79-1.46,1.53,0,2.97,1.02,3.87,1.82.53.47,1.33.47,1.87,0,.9-.8,2.34-1.82,3.87-1.82,2.51,0,5.42,1.16,7.79,1.46,2.36.3,5.84-.61,5.84-.61"/>
        <path class="cls-13" d="M377.74,205.08c.23-1.87-1.29-4.63-4.41-4.58.95-.62,2.1-.94,3.32-.85,2.94.22,5.13,2.79,4.91,5.72-.22,2.94-2.79,5.13-5.72,4.91-1.22-.09-2.31-.59-3.15-1.34,2.83.53,4.88-1.63,5.05-3.86Z"/>
      </g>
    </g>
    <g>
      <polygon class="cls-15" points="134.46 125.5 138.54 121.73 138.14 127.27 143.63 128.11 139.05 131.25 141.82 136.07 136.5 134.44 134.46 139.61 132.42 134.44 127.11 136.07 129.88 131.25 125.29 128.11 130.79 127.27 130.38 121.73 134.46 125.5"/>
      <polygon class="cls-15" points="480.05 59.87 484.14 56.1 483.73 61.64 489.23 62.48 484.64 65.62 487.41 70.44 482.09 68.81 480.05 73.98 478.01 68.81 472.7 70.44 475.47 65.62 470.88 62.48 476.38 61.64 475.97 56.1 480.05 59.87"/>
      <polygon class="cls-15" points="240.27 368.13 244.35 364.36 243.95 369.9 249.44 370.74 244.85 373.88 247.62 378.7 242.31 377.07 240.27 382.24 238.23 377.07 232.91 378.7 235.68 373.88 231.1 370.74 236.59 369.9 236.19 364.36 240.27 368.13"/>
      <polygon class="cls-15" points="655.89 386.76 659.97 382.99 659.57 388.53 665.06 389.37 660.48 392.51 663.25 397.33 657.93 395.7 655.89 400.87 653.85 395.7 648.54 397.33 651.31 392.51 646.72 389.37 652.21 388.53 651.81 382.99 655.89 386.76"/>
      <polygon class="cls-15" points="75.18 320.61 79.26 316.83 78.85 322.38 84.35 323.22 79.76 326.36 82.53 331.18 77.22 329.55 75.18 334.72 73.14 329.55 67.82 331.18 70.59 326.36 66 323.22 71.5 322.38 71.09 316.83 75.18 320.61"/>
      <polygon class="cls-15" points="516.81 386.76 520.89 382.99 520.49 388.53 525.98 389.37 521.39 392.51 524.16 397.33 518.85 395.7 516.81 400.87 514.77 395.7 509.45 397.33 512.22 392.51 507.64 389.37 513.13 388.53 512.73 382.99 516.81 386.76"/>
      <polygon class="cls-15" points="631.87 125.5 635.96 121.73 635.55 127.27 641.05 128.11 636.46 131.25 639.23 136.07 633.92 134.44 631.87 139.61 629.83 134.44 624.52 136.07 627.29 131.25 622.7 128.11 628.2 127.27 627.79 121.73 631.87 125.5"/>
      <polygon class="cls-15" points="277.35 61.24 281.43 57.47 281.02 63.01 286.52 63.85 281.93 66.99 284.7 71.81 279.39 70.18 277.35 75.35 275.31 70.18 269.99 71.81 272.76 66.99 268.17 63.85 273.67 63.01 273.26 57.47 277.35 61.24"/>
    </g>
    <g>
      <g>
        <path class="cls-15" d="M546.23,175.39c-.75.41-.34,1.57.5,1.4,10.59-2.18,35.73-4.53,59.14,14.36,30.67,24.76,6.69,30.75,13.37,46.08,6.68,15.33-31.16,25.93-4.67,35.57,0,0,.03,2.91-1.43,5.28-1.46,2.38,1.84,7.22,1.84,7.22,0,0-1.96,2.61.37,5.77,0,0-12.91,25.13-47.32,24.14-25.44-.74-42.42-11.45-49.54-16.99-.68-.53-1.55.32-1.06,1.02,8.92,12.83,39.86,49.2,95.89,34.45,67.55-17.79,74.46-89.34,52.26-126.12-21.47-35.58-73.11-57.51-119.36-32.18Z"/>
        <path class="cls-8" d="M613.15,278.08s5.23-.07,7.32,3.13c2.09,3.2,6.02-.25,6.02-.25,0,0-1.06,5.92-11.5,4.33,0,0-3.71-3.82-1.84-7.22Z"/>
        <path class="cls-8" d="M615.35,291.07s6.57-1.35,7.4-6.14"/>
        <path class="cls-8" d="M616.63,272.61s4.75.87,4.67-3.74"/>
        <path class="cls-8" d="M613.86,270.12c-1.53-2.62-4.72-1.94-4.72-1.94,0,0,1.14,1.67,3.51,1.03"/>
        <path class="cls-13" d="M624.1,240.64c.55,1.37,1.36,2.72,2.42,3.73,1.04,1.04,2.32,1.76,3.72,2.18,1.41.44,2.94.36,4.46.28.76-.11,1.52-.25,2.28-.38.75-.2,1.51-.41,2.28-.58h.04c.24-.07.48.08.53.32.05.21-.06.43-.26.51-.75.32-1.51.6-2.28.91-.79.23-1.6.42-2.41.6l-1.25.15-.63.06-.64-.03c-.42-.03-.85-.03-1.27-.08l-1.27-.25c-1.68-.43-3.25-1.38-4.4-2.67-1.14-1.31-1.91-2.85-2.2-4.56-.04-.24.12-.47.36-.51.21-.04.41.08.49.27l.02.05Z"/>
        <path class="cls-13" d="M618.12,233.26s7.65-3.81,13.5-3.23c0,0,4.84,1.22,7.29,2.8,0,0-.38-2.83-7.35-5.02-5.77-1.81-13.36,1.26-13.36,1.26,0,0-.56,2.02-.09,4.19Z"/>
        <path class="cls-13" d="M624.35,242.62l-2.54,1.4c-.1.06-.22.02-.28-.08-.05-.08-.03-.18.04-.25l2.06-2.03c.24-.23.62-.23.85,0,.23.24.23.62,0,.85-.04.04-.09.07-.13.1Z"/>
        <path class="cls-13" d="M626.26,244.99l-2.12,2.19c-.08.08-.21.08-.29,0-.07-.07-.08-.17-.04-.25l1.49-2.66c.16-.29.53-.39.82-.23s.39.53.23.82c-.03.05-.06.09-.09.12Z"/>
        <path class="cls-13" d="M629.01,246.94l-1.74,2.5c-.06.09-.19.12-.29.05-.08-.05-.11-.15-.08-.24l1.04-2.86c.11-.31.46-.47.77-.36.31.11.47.46.36.77-.02.05-.04.1-.07.14Z"/>
        <path class="cls-13" d="M632.34,247.84l-1.04,2.86c-.04.11-.16.16-.26.12-.09-.03-.14-.12-.13-.21l.27-3.03c.03-.33.32-.58.65-.55s.58.32.55.65c0,.05-.02.1-.03.15Z"/>
        <path class="cls-13" d="M635.66,247.53v3.05c-.02.11-.11.2-.22.2-.1,0-.17-.07-.2-.15l-.77-2.95c-.08-.32.11-.65.43-.73.32-.08.65.11.73.43.01.05.02.1.02.15Z"/>
        <path class="cls-13" d="M638.9,246.6l.78,2.95c.03.11-.04.22-.15.25-.09.02-.19-.02-.23-.1l-1.51-2.65c-.16-.29-.06-.66.22-.82.29-.16.66-.06.82.22.03.05.05.1.06.14Z"/>
        <path class="cls-8" d="M628.24,275.55s3.08,1.91,3.82,5.63"/>
        <path class="cls-8" d="M575.11,167.71s19.22-3.71,37.87,3.09"/>
        <path class="cls-8" d="M568.67,169.25s3.05-.88,4.16-1.14"/>
        <path class="cls-8" d="M597.18,182.37s19.27,10.39,24.91,23.84"/>
        <path class="cls-8" d="M660.14,203.82s11.14,16.83,13.23,37.7"/>
        <path class="cls-8" d="M530.24,311.72s10.05,10.77,21.59,15.11"/>
        <line class="cls-8" x1="529.09" y1="310.58" x2="527.73" y2="308.98"/>
        <path class="cls-13" d="M609.29,268.25s1.02,1.63,3.59.84c0,0-.73-1.31-3.59-.84Z"/>
        <path class="cls-8" d="M654.99,197.13s2.11,2.37,3.3,4.13"/>
        <path class="cls-8" d="M559.07,318.03c.08.35-.13.71-.49.79-.35.08-.71-.13-.79-.49-.08-.35.13-.71.49-.79.35-.08.71.13.79.49Z"/>
        <path class="cls-8" d="M667.66,247.21c.08.35-.13.71-.49.79-.35.08-.71-.13-.79-.49-.08-.35.13-.71.49-.79.35-.08.71.13.79.49Z"/>
        <path class="cls-8" d="M626.12,176.55c.08.35-.13.71-.49.79-.35.08-.71-.13-.79-.49-.08-.35.13-.71.49-.79.35-.08.71.13.79.49Z"/>
        <path class="cls-8" d="M669.65,253.69c.14.58-.22,1.17-.8,1.31-.58.14-1.17-.22-1.31-.8-.14-.58.22-1.17.8-1.31.58-.14,1.17.22,1.31.8Z"/>
        <path class="cls-8" d="M620.69,176.74c.14.58-.22,1.17-.8,1.31-.58.14-1.17-.22-1.31-.8-.14-.58.22-1.17.8-1.31.58-.14,1.17.22,1.31.8Z"/>
        <path class="cls-8" d="M664.85,251.43c.14.58-.22,1.17-.8,1.31-.58.14-1.17-.22-1.31-.8-.14-.58.22-1.17.8-1.31.58-.14,1.17.22,1.31.8Z"/>
        <path class="cls-8" d="M562.68,320.4c.14.58-.22,1.17-.8,1.31-.58.14-1.17-.22-1.31-.8-.14-.58.22-1.17.8-1.31.58-.14,1.17.22,1.31.8Z"/>
      </g>
      <g>
        <path class="cls-15" d="M213.92,175.39c.75.41.34,1.57-.5,1.4-10.59-2.18-35.73-4.53-59.14,14.36-30.67,24.76-6.69,30.75-13.37,46.08-6.68,15.33,31.16,25.93,4.67,35.57,0,0-.03,2.91,1.43,5.28,1.46,2.38-1.84,7.22-1.84,7.22,0,0,1.96,2.61-.37,5.77,0,0,12.91,25.13,47.32,24.14,25.44-.74,42.42-11.45,49.54-16.99.68-.53,1.55.32,1.06,1.02-8.92,12.83-39.86,49.2-95.89,34.45-67.55-17.79-74.46-89.34-52.26-126.12,21.47-35.58,73.11-57.51,119.36-32.18Z"/>
        <path class="cls-8" d="M147,278.08s-5.23-.07-7.32,3.13c-2.09,3.2-6.02-.25-6.02-.25,0,0,1.06,5.92,11.5,4.33,0,0,3.71-3.82,1.84-7.22Z"/>
        <path class="cls-8" d="M144.79,291.07s-6.57-1.35-7.4-6.14"/>
        <path class="cls-8" d="M143.52,272.61s-4.75.87-4.67-3.74"/>
        <path class="cls-8" d="M146.28,270.12c1.53-2.62,4.72-1.94,4.72-1.94,0,0-1.14,1.67-3.51,1.03"/>
        <path class="cls-13" d="M136.92,240.84c-.29,1.7-1.06,3.25-2.2,4.56-1.15,1.29-2.72,2.24-4.4,2.67l-1.27.25c-.42.05-.85.05-1.27.08l-.64.03-.63-.06-1.25-.15c-.81-.18-1.62-.37-2.41-.6-.76-.3-1.53-.59-2.28-.91-.23-.1-.33-.36-.24-.58.09-.2.3-.31.51-.26h.04c.77.19,1.52.4,2.28.59.76.13,1.52.28,2.28.38,1.52.07,3.04.16,4.46-.28,1.4-.42,2.68-1.14,3.72-2.18,1.06-1.01,1.87-2.35,2.42-3.73l.02-.05c.09-.23.35-.34.58-.25.2.08.31.29.27.49Z"/>
        <path class="cls-13" d="M142.03,233.26s-7.65-3.81-13.5-3.23c0,0-4.84,1.22-7.29,2.8,0,0,.38-2.83,7.35-5.02,5.77-1.81,13.36,1.26,13.36,1.26,0,0,.56,2.02.09,4.19Z"/>
        <path class="cls-13" d="M136.51,241.66l2.06,2.03c.08.08.08.21,0,.29-.07.07-.17.08-.25.04l-2.54-1.4c-.29-.16-.4-.53-.24-.82.16-.29.53-.4.82-.24.05.03.09.06.13.1Z"/>
        <path class="cls-13" d="M134.84,244.28l1.49,2.66c.06.1.02.22-.08.28-.08.05-.18.03-.25-.04l-2.12-2.19c-.23-.24-.22-.62.01-.85.24-.23.62-.22.85.01.04.04.07.08.09.12Z"/>
        <path class="cls-13" d="M132.2,246.39l1.04,2.86c.04.11-.02.22-.12.26-.09.03-.19,0-.24-.08l-1.74-2.5c-.19-.27-.12-.65.15-.84.27-.19.65-.12.84.15.03.04.05.09.07.14Z"/>
        <path class="cls-13" d="M128.97,247.58l.27,3.03c0,.11-.07.21-.19.22-.09,0-.18-.05-.21-.13l-1.04-2.86c-.11-.31.05-.66.36-.77.31-.11.66.05.77.36.02.05.03.1.03.15Z"/>
        <path class="cls-13" d="M125.68,247.68l-.77,2.95c-.03.11-.14.18-.25.15-.09-.02-.15-.11-.15-.2v-3.05c-.02-.33.25-.6.58-.61.33,0,.6.27.61.6,0,.05,0,.11-.02.15Z"/>
        <path class="cls-13" d="M122.35,247.05l-1.51,2.65c-.06.1-.18.13-.28.08-.08-.05-.12-.14-.1-.23l.78-2.95c.09-.32.41-.51.74-.43.32.09.51.41.43.74-.01.05-.03.1-.06.14Z"/>
        <path class="cls-8" d="M131.9,275.55s-3.08,1.91-3.82,5.63"/>
        <path class="cls-8" d="M185.04,167.71s-19.22-3.71-37.87,3.09"/>
        <path class="cls-8" d="M191.48,169.25s-3.05-.88-4.16-1.14"/>
        <path class="cls-8" d="M162.97,182.37s-19.27,10.39-24.91,23.84"/>
        <path class="cls-8" d="M100,203.82s-11.14,16.83-13.23,37.7"/>
        <path class="cls-8" d="M229.9,311.72s-10.05,10.77-21.59,15.11"/>
        <line class="cls-8" x1="231.06" y1="310.58" x2="232.42" y2="308.98"/>
        <path class="cls-13" d="M150.86,268.25s-1.02,1.63-3.59.84c0,0,.73-1.31,3.59-.84Z"/>
        <path class="cls-8" d="M105.16,197.13s-2.11,2.37-3.3,4.13"/>
        <path class="cls-8" d="M201.07,318.03c-.08.35.13.71.49.79.35.08.71-.13.79-.49.08-.35-.13-.71-.49-.79-.35-.08-.71.13-.79.49Z"/>
        <path class="cls-8" d="M92.49,247.21c-.08.35.13.71.49.79.35.08.71-.13.79-.49s-.13-.71-.49-.79c-.35-.08-.71.13-.79.49Z"/>
        <path class="cls-8" d="M134.03,176.55c-.08.35.13.71.49.79.35.08.71-.13.79-.49.08-.35-.13-.71-.49-.79-.35-.08-.71.13-.79.49Z"/>
        <path class="cls-8" d="M90.5,253.69c-.14.58.22,1.17.8,1.31.58.14,1.17-.22,1.31-.8s-.22-1.17-.8-1.31c-.58-.14-1.17.22-1.31.8Z"/>
        <path class="cls-8" d="M139.45,176.74c-.14.58.22,1.17.8,1.31.58.14,1.17-.22,1.31-.8.14-.58-.22-1.17-.8-1.31-.58-.14-1.17.22-1.31.8Z"/>
        <path class="cls-8" d="M95.29,251.43c-.14.58.22,1.17.8,1.31.58.14,1.17-.22,1.31-.8.14-.58-.22-1.17-.8-1.31-.58-.14-1.17.22-1.31.8Z"/>
        <path class="cls-8" d="M197.46,320.4c-.14.58.22,1.17.8,1.31.58.14,1.17-.22,1.31-.8.14-.58-.22-1.17-.8-1.31-.58-.14-1.17.22-1.31.8Z"/>
      </g>
    </g>
    <g>
      <circle class="cls-12" cx="253.33" cy="446.08" r="10.52"/>
      <circle class="cls-12" cx="497.12" cy="446.08" r="10.52"/>
      <g>
        <path class="cls-12" d="M302.7,446.08c0-5.09,4.13-9.22,9.22-9.22.46,0,.9.04,1.34.11-1.54-.89-3.33-1.41-5.24-1.41-5.81,0-10.52,4.71-10.52,10.52s4.71,10.52,10.52,10.52c1.91,0,3.7-.52,5.24-1.41-.44.06-.88.11-1.34.11-5.09,0-9.22-4.13-9.22-9.22Z"/>
        <path class="cls-15" d="M318.53,446.08c0-3.9-2.12-7.29-5.27-9.11-.44-.06-.88-.11-1.34-.11-5.09,0-9.22,4.13-9.22,9.22s4.13,9.22,9.22,9.22c.46,0,.9-.04,1.34-.11,3.15-1.82,5.27-5.21,5.27-9.11Z"/>
      </g>
      <g>
        <path class="cls-12" d="M455.76,446.08c0-5.09-4.13-9.22-9.22-9.22-.46,0-.9.04-1.34.11,1.54-.89,3.33-1.41,5.24-1.41,5.81,0,10.52,4.71,10.52,10.52s-4.71,10.52-10.52,10.52c-1.91,0-3.7-.52-5.24-1.41.44.06.88.11,1.34.11,5.09,0,9.22-4.13,9.22-9.22Z"/>
        <path class="cls-15" d="M439.93,446.08c0-3.9,2.12-7.29,5.27-9.11.44-.06.88-.11,1.34-.11,5.09,0,9.22,4.13,9.22,9.22s-4.13,9.22-9.22,9.22c-.46,0-.9-.04-1.34-.11-3.15-1.82-5.27-5.21-5.27-9.11Z"/>
      </g>
      <g>
        <path class="cls-15" d="M348.36,446.08c0,5.81,4.71,10.52,10.52,10.52v-21.03c-5.81,0-10.52,4.71-10.52,10.52Z"/>
        <path class="cls-12" d="M358.88,435.57v21.03c5.81,0,10.52-4.71,10.52-10.52s-4.71-10.52-10.52-10.52Z"/>
      </g>
      <g>
        <path class="cls-15" d="M415.88,446.08c0-5.81-4.71-10.52-10.52-10.52v21.03c5.81,0,10.52-4.71,10.52-10.52Z"/>
        <path class="cls-12" d="M405.37,456.6v-21.03c-5.81,0-10.52,4.71-10.52,10.52s4.71,10.52,10.52,10.52Z"/>
      </g>
    </g>
    <g class="cls-17">
      <g>
        <g>
          <path class="cls-12" d="M36.73,97.43s26.44,8.68,51.72-14.41c0,0-30.8-15.51-51.72,14.41Z"/>
          <path class="cls-12" d="M21.13,125.78s26.44,8.68,51.72-14.41c0,0-30.8-15.51-51.72,14.41Z"/>
          <path class="cls-12" d="M60.15,65.14s24.95,12.33,53.24-6.97c0,0-28.31-19.7-53.24,6.97Z"/>
          <path class="cls-12" d="M62.91,62.21s19.21-20.14,9.22-52.9c0,0-27.24,21.15-9.22,52.9Z"/>
          <path class="cls-12" d="M40.69,91.03s13.14-24.54-5.22-53.44c0,0-20.61,27.65,5.22,53.44Z"/>
          <path class="cls-12" d="M22.99,121.9s13.14-24.54-5.22-53.44c0,0-20.61,27.65,5.22,53.44Z"/>
          <path class="cls-3" d="M36.73,97.43s31.03-13.82,51.72-14.41"/>
          <path class="cls-3" d="M72.14,9.31s-9.04,22.37-9.22,52.9"/>
          <path class="cls-3" d="M22.99,121.9s-7.02-28.5-5.22-53.44"/>
          <path class="cls-3" d="M35.46,37.59s-2.8,26.94,5.22,53.44"/>
          <path class="cls-3" d="M21.13,125.78s23.29-10.95,51.72-14.41"/>
          <path class="cls-3" d="M60.15,65.14s31.36-9.15,53.24-6.97"/>
          <path class="cls-7" d="M14.84,140.28s21-58.54,76.67-107.42"/>
          <path class="cls-12" d="M83.7,40s27.82-.92,43.64-31.28c0,0-34.25-4-43.64,31.28Z"/>
          <path class="cls-3" d="M83.7,40s23.58-23.44,43.64-31.28"/>
        </g>
        <g>
          <path class="cls-12" d="M716.99,97.43s-26.44,8.68-51.72-14.41c0,0,30.8-15.51,51.72,14.41Z"/>
          <path class="cls-12" d="M732.59,125.78s-26.44,8.68-51.72-14.41c0,0,30.8-15.51,51.72,14.41Z"/>
          <path class="cls-12" d="M693.58,65.14s-24.95,12.33-53.24-6.97c0,0,28.31-19.7,53.24,6.97Z"/>
          <path class="cls-12" d="M690.81,62.21s-19.21-20.14-9.22-52.9c0,0,27.24,21.15,9.22,52.9Z"/>
          <path class="cls-12" d="M713.04,91.03s-13.14-24.54,5.22-53.44c0,0,20.61,27.65-5.22,53.44Z"/>
          <path class="cls-12" d="M730.74,121.9s-13.14-24.54,5.22-53.44c0,0,20.61,27.65-5.22,53.44Z"/>
          <path class="cls-3" d="M716.99,97.43s-31.03-13.82-51.72-14.41"/>
          <path class="cls-3" d="M681.59,9.31s9.04,22.37,9.22,52.9"/>
          <path class="cls-3" d="M730.74,121.9s7.02-28.5,5.22-53.44"/>
          <path class="cls-3" d="M718.26,37.59s2.8,26.94-5.22,53.44"/>
          <path class="cls-3" d="M732.59,125.78s-23.29-10.95-51.72-14.41"/>
          <path class="cls-3" d="M693.58,65.14s-31.36-9.15-53.24-6.97"/>
          <path class="cls-7" d="M738.89,140.28s-21-58.54-76.67-107.42"/>
          <path class="cls-12" d="M670.03,40s-27.82-.92-43.64-31.28c0,0,34.25-4,43.64,31.28Z"/>
          <path class="cls-3" d="M670.03,40s-23.58-23.44-43.64-31.28"/>
        </g>
      </g>
    </g>
    <g>
      <g>
        <g>
          <path class="cls-15" d="M650.08,467.76c-5.25-1.43-10.89-1.78-16.13-.3-5.24,1.48-10.04,4.92-12.57,9.78-3.39-.5-7.1.65-9.57,3.04-2.47,2.4-3.76,5.97-3.4,9.4-1.68-1.62-4.57-2.36-6.66-1.35-.55.27-1.05.63-1.5,1.05-1.06.97-1.87,2.22-2.34,3.6-2.48-5.03-7.18-9.04-12.49-10.73-5.31-1.69-11.2-1.29-16.35.86-5.14,2.15-9.53,6-12.59,10.69-1.26,1.93-2.29,3.99-3.33,6.05h97.93s-1.99-8.42-1.99-16.67.97-15.41.97-15.41Z"/>
          <g>
            <path class="cls-4" d="M633.44,490.35c-.48,1.4.16,3.02,1.28,3.98,1.87,1.6,4.89,1.48,6.79-.08,1.9-1.56,2.63-4.31,2.01-6.69-.62-2.38-2.46-4.35-4.69-5.39-2.4-1.12-5.27-1.22-7.74-.26-2.47.96-4.52,2.96-5.54,5.41-2.08-.41-4.54,0-6.16,1.38-1.61,1.38-2.55,3.51-2.47,5.63"/>
            <path class="cls-4" d="M646.69,471.05c-4.1-1.32-8.42-1.56-12.55-.33-4.13,1.23-7.18,4.14-9.35,7.63"/>
            <path class="cls-4" d="M559.69,499.07c1.65-4.16,4.61-7.83,8.46-9.7"/>
            <path class="cls-4" d="M600.09,495.24c-.69-.83-1.71-1.37-2.78-1.47-1.07-.1-2.18.25-3,.94"/>
            <path class="cls-4" d="M607.41,491.8c.94-1.08,2.37-1.71,3.8-1.69"/>
            <path class="cls-4" d="M644.35,476.89c-2.31-1.54-5.17-2.24-7.93-1.93"/>
            <path class="cls-4" d="M639.92,491.43c.39-.62.55-1.37.46-2.1-.06-.47-.23-.93-.51-1.3-.66-.88-1.88-1.21-2.97-1.07-.66.08-1.36.36-1.68.95"/>
            <path class="cls-4" d="M636.03,499.36c-2.69-.14-5.24-1.85-6.39-4.29-1.15-2.44-.85-5.49.75-7.66"/>
          </g>
        </g>
        <g>
          <path class="cls-15" d="M750.14,329.75c-6.25.04-12.15,3.79-15.62,9-3.47,5.2-4.7,11.67-4.37,17.92-4.85.65-9.22,4.53-10.69,9.19-1.48,4.66-.71,9.82,1.24,14.31-5.63,5.39-7.94,13.43-7.89,21.22.05,7.94,2.45,16,7.57,22.07,5.11,6.07,13.1,9.89,20.99,9.11-.19,3.13.55,6.1,1.96,8.91,1.41,2.8,4.02,5.47,6.89,6.75l-.08-118.48Z"/>
          <g>
            <path class="cls-4" d="M720.87,380.32c-.18-.09-.06-.36.08-.5,3.56-3.73,8.95-5.62,14.06-4.93"/>
            <path class="cls-4" d="M735.4,388.17c3.22,1.11,5.72,4.09,6.26,7.45.54,3.36-.9,6.97-3.61,9.04-1.67,1.28-3.86,1.98-5.92,1.56-2.06-.41-3.91-2.07-4.23-4.15-.32-2.08,1.15-4.37,3.24-4.65"/>
            <path class="cls-4" d="M721.16,386.34c-3.71,5.95-4.68,13.53-2.59,20.21"/>
            <path class="cls-4" d="M721.4,414.78c3.11,7.07,10.79,11.86,18.51,11.56"/>
            <path class="cls-4" d="M733.21,355.23c-1.98.82-3.42,2.81-3.58,4.95"/>
            <path class="cls-4" d="M750.14,333.31c-3.51.24-6.94,1.64-9.62,3.93-2.67,2.29-4.58,5.47-5.34,8.91"/>
            <path class="cls-4" d="M724.2,369c-.09.08-.12.2-.14.32-.39,2.43.01,4.98,1.13,7.17"/>
            <path class="cls-4" d="M750.22,355.35c-1.92.74-3.45,2.3-4.44,4.11-.99,1.81-1.47,3.85-1.72,5.89-.37,3.05-.22,5.72.69,8.65.91,2.93,2.88,5.81,5.3,6.88"/>
            <path class="cls-4" d="M747.48,406.24c-1.08,3.22-3.39,6-6.35,7.66-2.96,1.66-6.54,2.17-9.85,1.4"/>
            <path class="cls-4" d="M737.17,401.42c1.66-2.04,1.92-5.11.62-7.39-1.3-2.28-4.07-3.63-6.67-3.24-2.6.39-4.85,2.49-5.43,5.05"/>
            <path class="cls-4" d="M745.13,417.47c-1.31,1.39-3.01,2.42-4.85,2.94"/>
            <path class="cls-4" d="M749.93,345.18c-3.16.77-5.78,3.42-6.52,6.58"/>
          </g>
        </g>
        <g>
          <path class="cls-12" d="M750.18,424.6c-7.35-5.15-16.84-7.49-25.58-5.4-8.73,2.09-16.4,8.89-18.68,17.57-3.37-2.46-9.78-3.1-13.81-2.01-4.03,1.1-7.5,4.1-9.16,7.93-11.34-5.13-27.5-.76-34.64,9.42-7.14,10.19-7.06,24.54-.93,35.37-1.43,0-4.38.28-6.33,1.67-3.69,2.63-4.69,6.5-4.08,11.04h113.21v-75.61Z"/>
          <g>
            <path class="cls-4" d="M681.81,442.27c-6.95-1.99-15.96-.11-21.58,4.31-5.62,4.41-8.99,11.34-9.15,18.32-.07,3.2.49,6.45,1.89,9.36,2.45,5.06,7.09,9.53,13.86,10.26,6.78.72,12.54-2.4,15.78-7.02,3.25-4.62,3.32-11.18-.04-15.73-3.36-4.55-10-6.63-15.41-4.63"/>
            <path class="cls-4" d="M750,453.85c-7.03-3.43-15.49-4.24-22.74-1.3-7.25,2.94-12.95,9.88-13.56,17.67-3.61-.81-8.07-.65-11.11,1.45-3.29,2.27-5.09,5.99-4.96,9.68-4.4,0-9.03,1.57-11.84,5.69-2.45,3.6-2.65,9.39-1.17,13.17"/>
            <path class="cls-4" d="M742.37,497.02c1.76-1.63,2.37-4.63,1.68-6.97-.69-2.34-2.59-4.21-4.81-5.01-2.22-.81-4.73-.92-6.9.03-1.89.83-3.76,3.22-3.76,5.64"/>
            <path class="cls-4" d="M671.63,477.6c-4,1.19-8.64-.61-10.96-4.09-2.32-3.47-2.24-8.32.01-11.84"/>
            <path class="cls-4" d="M712.22,437.09c-1.89-.15-3.84.02-5.59.73-1.76.71-3.32,2.01-4.13,3.72"/>
            <path class="cls-4" d="M686.29,444.86c-1.86-1.52-4.87-1.38-6.57.31"/>
            <path class="cls-4" d="M648.36,474.73c-3.59-8.42-2.59-18.82,6.01-28.57"/>
            <path class="cls-4" d="M649.11,494.74c-1.29.07-2.55.65-3.44,1.58-.89.94-1.4,2.23-1.39,3.52"/>
            <path class="cls-4" d="M743.31,478.45c-4.78-2.36-10.66-2.35-15.42.04-4.76,2.38-8.3,7.09-9.27,12.32-3.09-.61-6.64-.6-9.37.96-2.73,1.56-4.73,4.95-4.64,8.09"/>
            <path class="cls-4" d="M749.85,443.96c-5.43-2.64-11.54-4.08-17.54-3.46-6.01.62-11.88,3.42-15.65,8.14"/>
            <path class="cls-4" d="M646.72,486.26c2.4,4.14,7.34,7.91,11.91,8.8"/>
            <path class="cls-4" d="M720.41,468.55c-2.99,0-5.86,1.08-7.61,3.32-.92,1.18-1.49,2.68-1.82,4.47"/>
            <path class="cls-4" d="M690.18,500.21c-1.68-3.4-1.49-7.66.48-10.9"/>
            <path class="cls-4" d="M749.85,438.73c-2.55-1.82-5.59-2.94-8.71-3.22"/>
            <path class="cls-4" d="M750.18,431.01c-3.55-3.07-8.61-5.74-13.26-6.43-3.4-.51-6.9-.63-10.28.04-3.38.67-6.64,2.15-9.12,4.53"/>
          </g>
        </g>
      </g>
      <g>
        <g>
          <path class="cls-15" d="M38.73,381.39c1.7-6.23,2.12-12.92.36-19.14-1.76-6.22-5.84-11.91-11.61-14.91.59-4.02-.77-8.42-3.61-11.35-2.84-2.93-7.08-4.46-11.16-4.03,1.92-1.99,2.8-5.42,1.6-7.9-.32-.65-.75-1.24-1.24-1.78-1.16-1.26-2.64-2.22-4.27-2.77,5.96-2.94,10.73-8.52,12.74-14.82,2.01-6.3,1.53-13.29-1.02-19.4-2.55-6.1-7.12-11.31-12.69-14.93-2.29-1.49-4.73-2.72-7.17-3.95v116.19s9.99-2.36,19.78-2.36,18.29,1.15,18.29,1.15Z"/>
          <g>
            <path class="cls-9" d="M11.92,361.65c-1.66-.57-3.58.19-4.72,1.52-1.9,2.21-1.76,5.8.09,8.06,1.85,2.25,5.12,3.12,7.94,2.38,2.82-.74,5.16-2.92,6.39-5.57,1.33-2.85,1.45-6.25.31-9.18-1.14-2.93-3.51-5.37-6.42-6.57.49-2.47,0-5.39-1.64-7.31-1.63-1.92-4.17-3.03-6.68-2.93"/>
            <path class="cls-9" d="M34.83,377.37c1.57-4.87,1.85-9.99.39-14.9-1.46-4.9-4.91-8.51-9.06-11.1"/>
            <path class="cls-9" d="M1.59,274.14c4.94,1.96,9.29,5.47,11.51,10.04"/>
            <path class="cls-9" d="M6.12,322.08c.99-.81,1.63-2.03,1.74-3.3s-.3-2.59-1.12-3.56"/>
            <path class="cls-9" d="M10.21,330.77c1.28,1.12,2.03,2.81,2.01,4.5"/>
            <path class="cls-9" d="M27.9,374.59c1.83-2.74,2.66-6.13,2.29-9.41"/>
            <path class="cls-9" d="M10.65,369.34c.73.46,1.63.66,2.49.54.56-.07,1.1-.27,1.55-.61,1.05-.79,1.43-2.23,1.27-3.53-.1-.79-.43-1.61-1.13-1.99"/>
            <path class="cls-9" d="M1.23,364.72c.17-3.19,2.2-6.22,5.09-7.58s6.52-1.01,9.09.89"/>
          </g>
        </g>
        <g>
          <path class="cls-15" d="M202.47,500.12c-.04-7.42-4.5-14.41-10.68-18.53-6.17-4.12-13.85-5.58-21.26-5.19-.77-5.75-5.37-10.93-10.91-12.69-5.53-1.75-11.65-.84-16.98,1.47-6.4-6.68-15.93-9.42-25.18-9.36-9.42.06-18.99,2.91-26.19,8.98-7.2,6.07-11.74,15.54-10.81,24.91-3.72-.22-7.24.65-10.57,2.32-3.33,1.67-6.49,4.77-8.01,8.17l140.58-.1Z"/>
          <g>
            <path class="cls-9" d="M142.47,465.39c.11-.21.43-.07.6.09,4.42,4.22,6.67,10.62,5.85,16.68"/>
            <path class="cls-9" d="M133.17,482.62c-1.32,3.82-4.85,6.79-8.84,7.43-3.99.64-8.27-1.07-10.73-4.28-1.51-1.98-2.35-4.57-1.85-7.02.49-2.45,2.46-4.64,4.92-5.02,2.47-.38,5.18,1.37,5.52,3.84"/>
            <path class="cls-9" d="M135.33,465.73c-7.05-4.4-16.05-5.55-23.98-3.07"/>
            <path class="cls-9" d="M101.6,466.01c-8.39,3.69-14.08,12.8-13.71,21.96"/>
            <path class="cls-9" d="M172.25,480.03c-.97-2.35-3.34-4.05-5.87-4.24"/>
            <path class="cls-9" d="M198.25,500.12c-.28-4.17-1.94-8.24-4.66-11.41-2.72-3.17-6.49-5.43-10.57-6.34"/>
            <path class="cls-9" d="M155.91,469.34c-.09-.11-.24-.14-.38-.16-2.88-.47-5.91.01-8.5,1.34"/>
            <path class="cls-9" d="M172.11,500.2c-.88-2.28-2.73-4.09-4.87-5.26-2.14-1.17-4.56-1.74-6.99-2.04-3.62-.44-6.78-.27-10.26.81-3.48,1.08-6.89,3.41-8.16,6.29"/>
            <path class="cls-9" d="M111.72,496.96c-3.82-1.28-7.12-4.02-9.09-7.54-1.96-3.51-2.57-7.76-1.67-11.69"/>
            <path class="cls-9" d="M117.44,484.73c2.41,1.97,6.06,2.27,8.76.73,2.71-1.54,4.3-4.83,3.84-7.91-.46-3.08-2.95-5.76-5.99-6.44"/>
            <path class="cls-9" d="M98.4,494.17c-1.65-1.56-2.87-3.57-3.49-5.75"/>
            <path class="cls-9" d="M184.17,499.87c-.91-3.75-4.06-6.86-7.81-7.73"/>
          </g>
        </g>
        <g>
          <path class="cls-12" d="M89.94,500.16c6.12-8.72,8.88-19.98,6.4-30.34s-10.54-19.46-20.85-22.16c2.92-4,3.68-11.6,2.38-16.38-1.3-4.78-4.86-8.89-9.41-10.86,6.09-13.45.91-32.63-11.18-41.11-12.09-8.48-29.12-8.37-41.97-1.1,0-1.7-.33-5.2-1.98-7.52-3.12-4.38-7.72-5.56-13.1-4.85v134.33h89.71Z"/>
          <g>
            <path class="cls-9" d="M68.98,419.04c2.36-8.25.13-18.94-5.11-25.61s-13.46-10.67-21.74-10.86c-3.8-.09-7.65.58-11.1,2.25-6,2.9-11.31,8.41-12.17,16.44-.86,8.05,2.85,14.87,8.33,18.73,5.48,3.85,13.27,3.94,18.66-.05s7.86-11.87,5.49-18.28"/>
            <path class="cls-9" d="M55.24,499.94c4.07-8.34,5.03-18.38,1.55-26.98-3.48-8.6-11.72-15.37-20.97-16.08.96-4.28.77-9.57-1.72-13.18-2.69-3.9-7.11-6.04-11.49-5.89,0-5.23-1.87-10.72-6.75-14.05-4.27-2.91-11.14-3.14-15.63-1.39"/>
            <path class="cls-9" d="M4.01,490.89c1.94,2.08,5.49,2.82,8.27,1.99,2.78-.82,4.99-3.07,5.95-5.71.96-2.64,1.09-5.61-.04-8.19-.98-2.24-3.82-4.46-6.69-4.46"/>
            <path class="cls-9" d="M27.06,406.96c-1.41-4.75.73-10.26,4.85-13,4.12-2.75,9.87-2.66,14.04.01"/>
            <path class="cls-9" d="M75.12,455.12c.18-2.24-.02-4.55-.87-6.64-.85-2.09-2.38-3.94-4.42-4.91"/>
            <path class="cls-9" d="M65.9,424.36c1.81-2.2,1.64-5.77-.37-7.8"/>
            <path class="cls-9" d="M30.46,379.35c9.99-4.26,22.33-3.07,33.9,7.14"/>
            <path class="cls-9" d="M6.72,380.24c-.08-1.53-.77-3.02-1.88-4.08-1.11-1.05-2.64-1.66-4.18-1.65"/>
            <path class="cls-9" d="M26.05,492.01c2.8-5.67,2.79-12.65-.04-18.3-2.83-5.65-8.41-9.85-14.62-11,.72-3.66.72-7.88-1.14-11.12-1.85-3.24-5.87-5.61-9.6-5.5"/>
            <path class="cls-9" d="M66.97,499.77c3.13-6.44,4.84-13.69,4.11-20.82s-4.06-14.1-9.66-18.57"/>
            <path class="cls-9" d="M16.78,377.41c-4.92,2.84-9.39,8.71-10.44,14.13"/>
            <path class="cls-9" d="M37.8,464.84c0-3.55-1.28-6.96-3.94-9.03-1.4-1.09-3.18-1.76-5.3-2.16"/>
            <path class="cls-9" d="M.23,428.97c4.04-1.99,9.09-1.77,12.93.57"/>
            <path class="cls-9" d="M73.18,499.77c2.16-3.02,3.49-6.63,3.81-10.33"/>
            <path class="cls-9" d="M82.34,500.16c3.65-4.21,6.81-10.22,7.63-15.73.6-4.04.74-8.19-.05-12.19-.79-4.01-2.55-7.88-5.38-10.82"/>
          </g>
        </g>
      </g>
      <g>
        <path class="cls-15" d="M289.05.33c.05,9.1,5.52,17.67,13.09,22.72,7.57,5.05,16.98,6.84,26.06,6.36.95,7.05,6.59,13.41,13.37,15.55,6.79,2.15,14.29,1.03,20.82-1.81,7.84,8.19,19.53,11.55,30.87,11.47,11.54-.08,23.28-3.57,32.11-11.01,8.83-7.44,14.39-19.05,13.26-30.54,4.56.28,8.88-.8,12.95-2.85,4.08-2.05,7.96-5.85,9.82-10.02l-172.35.12Z"/>
        <g>
          <path class="cls-6" d="M362.61,42.91c-.13.26-.52.09-.73-.11-5.42-5.18-8.18-13.02-7.18-20.45"/>
          <path class="cls-6" d="M374.02,21.78c1.62-4.68,5.95-8.32,10.84-9.11,4.89-.79,10.14,1.31,13.15,5.25,1.86,2.43,2.88,5.61,2.27,8.61-.6,3-3.01,5.68-6.04,6.15-3.02.47-6.35-1.68-6.77-4.71"/>
          <path class="cls-6" d="M371.37,42.49c8.65,5.4,19.68,6.81,29.41,3.76"/>
          <path class="cls-6" d="M412.73,42.14c10.29-4.53,17.26-15.69,16.81-26.92"/>
          <path class="cls-6" d="M326.11,24.96c1.2,2.88,4.09,4.97,7.2,5.2"/>
          <path class="cls-6" d="M294.23.33c.34,5.11,2.38,10.1,5.72,13.99,3.34,3.89,7.96,6.66,12.96,7.77"/>
          <path class="cls-6" d="M346.14,38.07c.11.13.3.17.47.2,3.53.57,7.24-.01,10.43-1.64"/>
          <path class="cls-6" d="M326.28.23c1.08,2.79,3.35,5.02,5.98,6.45,2.63,1.44,5.6,2.14,8.57,2.5,4.43.53,8.32.33,12.58-1,4.27-1.32,8.45-4.19,10.01-7.71"/>
          <path class="cls-6" d="M400.32,4.21c4.68,1.57,8.73,4.93,11.14,9.24,2.41,4.31,3.15,9.52,2.04,14.33"/>
          <path class="cls-6" d="M393.3,19.2c-2.96-2.41-7.43-2.79-10.75-.9-3.32,1.89-5.28,5.92-4.71,9.7.57,3.78,3.62,7.06,7.35,7.89"/>
          <path class="cls-6" d="M416.65,7.63c2.02,1.91,3.52,4.37,4.28,7.05"/>
          <path class="cls-6" d="M311.49.64c1.12,4.59,4.97,8.41,9.58,9.48"/>
        </g>
      </g>
    </g>
    <g>
      <path class="cls-13" d="M593.19,412.31c-2.61-.6-5.18-1.13-7.79-1.73-.74-3.02-1.62-6.44-2.36-9.46-.43,3.09-1.01,6.16-1.74,9.19-2.46.68-4.81,1.32-7.23,2.11-.19.06.26.12.45.18,2.23.64,4.49,1.16,6.77,1.55.7,3.07,1.18,6.1,2.11,9.11.65-3.05,1.49-6.06,2.49-9.01l7.3-1.93Z"/>
      <path class="cls-13" d="M146.9,390.58c-2.61-.6-5.18-1.13-7.79-1.73-.74-3.02-1.62-6.44-2.36-9.46-.43,3.09-1.01,6.16-1.74,9.19-2.46.68-4.81,1.32-7.23,2.11-.19.06.26.12.45.18,2.23.64,4.49,1.16,6.77,1.55.7,3.07,1.18,6.1,2.11,9.11.65-3.05,1.49-6.06,2.49-9.01l7.3-1.93Z"/>
      <path class="cls-13" d="M562.75,107.66c-2.61-.6-5.18-1.13-7.79-1.73-.74-3.02-1.62-6.44-2.36-9.46-.43,3.09-1.01,6.16-1.74,9.19-2.46.68-4.81,1.32-7.23,2.11-.19.06.26.12.45.18,2.23.64,4.49,1.16,6.77,1.55.7,3.07,1.18,6.1,2.11,9.11.65-3.05,1.49-6.06,2.49-9.01l7.3-1.93Z"/>
      <path class="cls-13" d="M55.08,215.49c-1.73-.4-3.43-.75-5.16-1.15-.49-2-1.07-4.27-1.56-6.27-.28,2.05-.67,4.08-1.15,6.09-1.63.45-3.18.87-4.79,1.4-.12.04.17.08.3.12,1.47.42,2.97.77,4.49,1.02.46,2.03.78,4.04,1.4,6.03.43-2.02.98-4.01,1.65-5.97l4.84-1.28Z"/>
      <path class="cls-13" d="M722.71,246.9c-1.42-.33-2.82-.62-4.24-.94-.4-1.65-.88-3.51-1.29-5.16-.23,1.68-.55,3.36-.95,5.01-1.34.37-2.62.72-3.94,1.15-.1.03.14.07.25.1,1.21.35,2.45.63,3.69.84.38,1.67.64,3.33,1.15,4.97.36-1.66.81-3.3,1.35-4.91l3.98-1.05Z"/>
      <path class="cls-13" d="M207.21,76.38c-2.61-.6-5.18-1.13-7.79-1.73-.74-3.02-1.62-6.44-2.36-9.46-.43,3.09-1.01,6.16-1.74,9.19-2.46.68-4.81,1.32-7.23,2.11-.19.06.26.12.45.18,2.23.64,4.49,1.16,6.77,1.55.7,3.07,1.18,6.1,2.11,9.11.65-3.05,1.49-6.06,2.49-9.01l7.3-1.93Z"/>
    </g>
  </g>
</svg>