<?xml version="1.0" encoding="UTF-8"?>
<svg xmlns="http://www.w3.org/2000/svg" xmlns:xlink="http://www.w3.org/1999/xlink" viewBox="0 0 752 502.31">
  <defs>
    <style>
      .cls-1 {
        stroke-width: .74px;
      }

      .cls-1, .cls-2, .cls-3, .cls-4 {
        fill: none;
      }

      .cls-1, .cls-3 {
        stroke: #1c1c1b;
      }

      .cls-1, .cls-3, .cls-4 {
        stroke-miterlimit: 10;
      }

      .cls-5 {
        clip-path: url(#clippath);
      }

      .cls-2, .cls-6, .cls-7, .cls-8, .cls-9 {
        stroke-width: 0px;
      }

      .cls-3 {
        stroke-width: .86px;
      }

      .cls-4 {
        stroke: #dedace;
        stroke-width: .79px;
      }

      .cls-6 {
        fill: #1c1c1b;
      }

      .cls-7 {
        fill: #dedace;
      }

      .cls-8 {
        fill: #bc985e;
      }

      .cls-9 {
        fill: #b8824e;
      }
    </style>
    <clipPath id="clippath">
      <rect class="cls-2" x="1" y="2.15" width="750" height="500" transform="translate(752 504.29) rotate(180)"/>
    </clipPath>
  </defs>
  <g id="BACKGROUND">
    <rect class="cls-6" x="1" y="2.15" width="750" height="500"/>
  </g>
  <g id="OBJECTS">
    <g class="cls-5">
      <g>
        <g>
          <path class="cls-7" d="M752,193.62c-9.66-3.72-16.19-13.95-17.31-23.81-1.12-9.86,3.07-19.59,9.89-26.8-3.61-2.79-5.15-7.94-3.46-12.19-8.94-3.55-16.37-10.73-20.22-19.55-3.84-8.82-3.84-20.38,0-29.74,2.13-.83,4.12,1.17,6.34,1.74,4.02,1.03,8.15,1.86,12.3,1.67,4.15-.19,9-1.5,12.06-4.3l.41,112.98Z"/>
          <g>
            <path class="cls-3" d="M722.57,97.19c-.16,8.25,3.31,16.91,9.68,21.54"/>
            <path class="cls-3" d="M739.57,123.18c-1.49-.31-2.9-1.05-4-2.1"/>
            <path class="cls-3" d="M751.66,152.31c-3.56,2.58-6.44,6.2-7.76,10.39-1.32,4.2-.96,8.98,1.34,12.72"/>
            <path class="cls-3" d="M751.59,188.23c-6.39-2.78-11.07-9.17-11.78-16.1"/>
            <path class="cls-3" d="M730.4,85.56c-1.07,1.2-1.7,2.74-2.05,4.31-.35,1.57-.42,3.18-.5,4.79"/>
            <path class="cls-3" d="M724.45,83.53c-1.04,1.45-1.66,3.2-1.76,4.99"/>
            <path class="cls-3" d="M741.15,100.57c1.32,1.3,3.59,1.35,5.11.3,1.52-1.05,2.28-3.01,2.11-4.86-.23-2.57-2.18-4.87-4.65-5.62-2.47-.75-5.31.01-7.15,1.82-1.04,1.02-1.78,2.33-2.3,3.7-.93,2.46-1.2,5.2-.58,7.76.62,2.56,2.16,4.92,4.36,6.36-.79,2.5.01,5.38,1.64,7.43,1.63,2.05,4,3.4,6.48,4.24-.67,1.98-.34,4.22.54,6.12.87,1.9,2.49,3.45,4.43,4.23"/>
            <path class="cls-3" d="M743.65,94.53c-.82-.95-2.33-1.2-3.42-.58s-1.63,2.06-1.22,3.24"/>
            <path class="cls-3" d="M751.45,100.79c-.8,1.77-2.28,3.23-4.07,4.01-1.79.77-3.86.86-5.7.23"/>
            <path class="cls-3" d="M751.26,106.55c-1.39,2.01-3.83,3.23-6.27,3.15"/>
          </g>
        </g>
        <g>
          <path class="cls-9" d="M695.53,40.45c-.12,3.33.9,6.7,2.84,9.41,1.94,2.71,4.8,4.76,7.99,5.73.37,11.83,7.59,23.09,18.34,28.06,8.3,3.84,17.9,4.47,26.91,2.89V1.96h-3.76s-1.77,6.77-16.13,8.01c0,0,2.04,29.42-36.2,30.48Z"/>
          <g>
            <path class="cls-3" d="M751.61,78.71c-2.79.84-5.68,1.2-8.82,1.18-2.84-.02-5.7-.42-8.43-1.23-4.12-1.22-7.85-3.86-10.16-7.48-2.3-3.63-3.1-8.24-1.87-12.36,1.22-4.12,4.52-7.62,8.64-8.85,4.12-1.22,8.93,0,11.78,3.2,1.23,1.38,2.1,3.12,2.29,4.96.19,1.84-.15,3.97-1.39,5.34-1.01,1.12-2.36,1.89-3.82,2.27-1.32.35-2.8.39-4.12.02-1.31-.37-2.7-1.3-3.23-2.74"/>
            <path class="cls-3" d="M725.41,66.69c1.69,4.01,5.18,7.23,9.32,8.57"/>
            <path class="cls-3" d="M720.57,44.81c4.3-3.25,9.68-5.03,15.07-4.99,5.39.04,11.92,2.34,15.98,8.1"/>
            <path class="cls-3" d="M739.91,33.01c4.27.06,8.5,1.67,11.72,4.48"/>
            <path class="cls-3" d="M742.98,28.89c1.92.19,3.82.69,5.58,1.48"/>
            <path class="cls-3" d="M700.21,40.2c.01,3.59,2.15,7.1,5.34,8.75"/>
            <path class="cls-3" d="M738.29,68.35c-2.71.59-5.72-.34-7.56-2.33-1.84-1.99-2.43-4.97-1.49-7.47.25-.67.61-1.31,1.08-1.86,1.2-1.38,3.19-2.1,5.04-1.83,1.86.28,3.52,1.54,4.23,3.21"/>
          </g>
        </g>
        <g>
          <path class="cls-7" d="M619.3.24c.04,6.88,4.17,13.36,9.9,17.18,5.72,3.82,12.84,5.17,19.71,4.81.72,5.33,4.98,10.14,10.11,11.76,5.13,1.62,10.8.78,15.74-1.37,5.93,6.19,14.77,8.73,23.34,8.67,8.73-.06,17.6-2.7,24.28-8.32,6.68-5.62,10.88-14.4,10.02-23.09,3.44.21,6.71-.6,9.8-2.15,3.08-1.55,6.02-4.42,7.43-7.58l-130.32.09Z"/>
          <g>
            <path class="cls-3" d="M674.93,32.43c-.1.2-.4.07-.55-.09-4.1-3.92-6.18-9.85-5.43-15.47"/>
            <path class="cls-3" d="M683.56,16.45c1.23-3.54,4.5-6.29,8.2-6.89,3.7-.6,7.67.99,9.94,3.97,1.4,1.84,2.17,4.24,1.72,6.51-.45,2.27-2.28,4.3-4.56,4.65-2.29.36-4.8-1.27-5.12-3.56"/>
            <path class="cls-3" d="M681.55,32.11c6.54,4.08,14.88,5.15,22.23,2.85"/>
            <path class="cls-3" d="M712.82,31.85c7.78-3.42,13.05-11.87,12.71-20.36"/>
            <path class="cls-3" d="M647.32,18.86c.9,2.18,3.09,3.76,5.44,3.93"/>
            <path class="cls-3" d="M623.22.24c.26,3.87,1.8,7.64,4.32,10.58,2.52,2.94,6.02,5.04,9.8,5.88"/>
            <path class="cls-3" d="M662.47,28.77c.08.1.22.13.35.15,2.67.43,5.48-.01,7.88-1.24"/>
            <path class="cls-3" d="M647.45.16c.82,2.11,2.53,3.79,4.52,4.88,1.99,1.09,4.23,1.62,6.48,1.89,3.35.4,6.29.25,9.51-.75,3.23-1,6.39-3.16,7.57-5.83"/>
            <path class="cls-3" d="M703.44,3.17c3.54,1.19,6.6,3.73,8.42,6.99,1.82,3.26,2.38,7.2,1.54,10.83"/>
            <path class="cls-3" d="M698.13,14.5c-2.24-1.83-5.62-2.11-8.12-.68-2.51,1.43-3.99,4.48-3.56,7.33.43,2.86,2.74,5.34,5.56,5.97"/>
            <path class="cls-3" d="M715.78,5.75c1.53,1.45,2.66,3.31,3.24,5.33"/>
            <path class="cls-3" d="M636.27.47c.85,3.47,3.76,6.36,7.24,7.17"/>
          </g>
        </g>
      </g>
      <g>
        <g>
          <path class="cls-7" d="M0,193.62c9.66-3.72,16.19-13.95,17.31-23.81,1.12-9.86-3.07-19.59-9.89-26.8,3.61-2.79,5.15-7.94,3.46-12.19,8.94-3.55,16.37-10.73,20.22-19.55,3.84-8.82,3.84-20.38,0-29.74-2.13-.83-4.12,1.17-6.34,1.74-4.02,1.03-8.15,1.86-12.3,1.67-4.15-.19-9-1.5-12.06-4.3l-.41,112.98Z"/>
          <g>
            <path class="cls-3" d="M29.43,97.19c.16,8.25-3.31,16.91-9.68,21.54"/>
            <path class="cls-3" d="M12.43,123.18c1.49-.31,2.9-1.05,4-2.1"/>
            <path class="cls-3" d="M.34,152.31c3.56,2.58,6.44,6.2,7.76,10.39,1.32,4.2.96,8.98-1.34,12.72"/>
            <path class="cls-3" d="M.41,188.23c6.39-2.78,11.07-9.17,11.78-16.1"/>
            <path class="cls-3" d="M21.6,85.56c1.07,1.2,1.7,2.74,2.05,4.31.35,1.57.42,3.18.5,4.79"/>
            <path class="cls-3" d="M27.55,83.53c1.04,1.45,1.66,3.2,1.76,4.99"/>
            <path class="cls-3" d="M10.85,100.57c-1.32,1.3-3.59,1.35-5.11.3-1.52-1.05-2.28-3.01-2.11-4.86.23-2.57,2.18-4.87,4.65-5.62,2.47-.75,5.31.01,7.15,1.82,1.04,1.02,1.78,2.33,2.3,3.7.93,2.46,1.2,5.2.58,7.76-.62,2.56-2.16,4.92-4.36,6.36.79,2.5-.01,5.38-1.64,7.43-1.63,2.05-4,3.4-6.48,4.24.67,1.98.34,4.22-.54,6.12s-2.49,3.45-4.43,4.23"/>
            <path class="cls-3" d="M8.35,94.53c.82-.95,2.33-1.2,3.42-.58s1.63,2.06,1.22,3.24"/>
            <path class="cls-3" d="M.55,100.79c.8,1.77,2.28,3.23,4.07,4.01,1.79.77,3.86.86,5.7.23"/>
            <path class="cls-3" d="M.74,106.55c1.39,2.01,3.83,3.23,6.27,3.15"/>
          </g>
        </g>
        <g>
          <path class="cls-9" d="M56.47,40.45c.12,3.33-.9,6.7-2.84,9.41-1.94,2.71-4.8,4.76-7.99,5.73-.37,11.83-7.59,23.09-18.34,28.06-8.3,3.84-17.9,4.47-26.91,2.89V1.96h3.76s1.77,6.77,16.13,8.01c0,0-2.04,29.42,36.2,30.48Z"/>
          <g>
            <path class="cls-3" d="M.39,78.71c2.79.84,5.68,1.2,8.82,1.18,2.84-.02,5.7-.42,8.43-1.23,4.12-1.22,7.85-3.86,10.16-7.48,2.3-3.63,3.1-8.24,1.87-12.36-1.22-4.12-4.52-7.62-8.64-8.85-4.12-1.22-8.93,0-11.78,3.2-1.23,1.38-2.1,3.12-2.29,4.96-.19,1.84.15,3.97,1.39,5.34,1.01,1.12,2.36,1.89,3.82,2.27,1.32.35,2.8.39,4.12.02,1.31-.37,2.7-1.3,3.23-2.74"/>
            <path class="cls-3" d="M26.59,66.69c-1.69,4.01-5.18,7.23-9.32,8.57"/>
            <path class="cls-3" d="M31.43,44.81c-4.3-3.25-9.68-5.03-15.07-4.99-5.39.04-11.92,2.34-15.98,8.1"/>
            <path class="cls-3" d="M12.09,33.01c-4.27.06-8.5,1.67-11.72,4.48"/>
            <path class="cls-3" d="M9.02,28.89c-1.92.19-3.82.69-5.58,1.48"/>
            <path class="cls-3" d="M51.79,40.2c-.01,3.59-2.15,7.1-5.34,8.75"/>
            <path class="cls-3" d="M13.71,68.35c2.71.59,5.72-.34,7.56-2.33,1.84-1.99,2.43-4.97,1.49-7.47-.25-.67-.61-1.31-1.08-1.86-1.2-1.38-3.19-2.1-5.05-1.83-1.86.28-3.52,1.54-4.23,3.21"/>
          </g>
        </g>
        <g>
          <path class="cls-7" d="M132.7.24c-.04,6.88-4.17,13.36-9.9,17.18-5.72,3.82-12.84,5.17-19.71,4.81-.72,5.33-4.98,10.14-10.11,11.76-5.13,1.62-10.8.78-15.74-1.37-5.93,6.19-14.77,8.73-23.34,8.67-8.73-.06-17.6-2.7-24.28-8.32-6.68-5.62-10.88-14.4-10.02-23.09-3.44.21-6.71-.6-9.8-2.15C6.72,6.17,3.78,3.3,2.38.15l130.32.09Z"/>
          <g>
            <path class="cls-3" d="M77.07,32.43c.1.2.4.07.55-.09,4.1-3.92,6.18-9.85,5.43-15.47"/>
            <path class="cls-3" d="M68.44,16.45c-1.23-3.54-4.5-6.29-8.2-6.89-3.7-.6-7.67.99-9.94,3.97-1.4,1.84-2.17,4.24-1.72,6.51.45,2.27,2.28,4.3,4.56,4.65,2.29.36,4.8-1.27,5.12-3.56"/>
            <path class="cls-3" d="M70.45,32.11c-6.54,4.08-14.88,5.15-22.23,2.85"/>
            <path class="cls-3" d="M39.18,31.85c-7.78-3.42-13.05-11.87-12.71-20.36"/>
            <path class="cls-3" d="M104.68,18.86c-.9,2.18-3.09,3.76-5.44,3.93"/>
            <path class="cls-3" d="M128.78.24c-.26,3.87-1.8,7.64-4.32,10.58-2.52,2.94-6.02,5.04-9.8,5.88"/>
            <path class="cls-3" d="M89.53,28.77c-.08.1-.22.13-.35.15-2.67.43-5.48-.01-7.88-1.24"/>
            <path class="cls-3" d="M104.55.16c-.82,2.11-2.53,3.79-4.52,4.88-1.99,1.09-4.23,1.62-6.48,1.89-3.35.4-6.29.25-9.51-.75-3.23-1-6.39-3.16-7.57-5.83"/>
            <path class="cls-3" d="M48.56,3.17c-3.54,1.19-6.6,3.73-8.42,6.99-1.82,3.26-2.38,7.2-1.54,10.83"/>
            <path class="cls-3" d="M53.87,14.5c2.24-1.83,5.62-2.11,8.12-.68,2.51,1.43,3.99,4.48,3.56,7.33-.43,2.86-2.74,5.34-5.56,5.97"/>
            <path class="cls-3" d="M36.22,5.75c-1.53,1.45-2.66,3.31-3.24,5.33"/>
            <path class="cls-3" d="M115.73.47c-.85,3.47-3.76,6.36-7.24,7.17"/>
          </g>
        </g>
      </g>
      <g>
        <g>
          <path class="cls-9" d="M721.39,429.62c-1.37-5.01-1.7-10.39-.29-15.39,1.41-5,4.7-9.58,9.33-11.99-.47-3.24.62-6.77,2.9-9.13,2.28-2.36,5.69-3.59,8.97-3.24-1.54-1.6-2.25-4.36-1.29-6.35.25-.53.6-1,1-1.43.93-1.01,2.12-1.79,3.43-2.23-4.8-2.36-8.63-6.85-10.24-11.92-1.62-5.07-1.23-10.69.82-15.59,2.05-4.91,5.72-9.09,10.2-12.01,1.84-1.2,3.81-2.19,5.77-3.17v93.42s-8.03-5.94-15.9-5.94-14.7,4.97-14.7,4.97Z"/>
          <g>
            <path class="cls-1" d="M742.94,413.75c1.34-.46,2.88.15,3.8,1.22,1.53,1.78,1.42,4.67-.07,6.48-1.49,1.81-4.11,2.51-6.38,1.92-2.27-.59-4.15-2.35-5.14-4.47-1.07-2.29-1.16-5.02-.25-7.38.92-2.36,2.83-4.31,5.16-5.28-.39-1.98,0-4.33,1.32-5.87,1.31-1.54,3.35-2.43,5.37-2.36"/>
            <path class="cls-1" d="M724.52,426.39c-1.26-3.91-1.49-8.04-.32-11.98,1.17-3.94,3.95-6.85,7.28-8.92"/>
            <path class="cls-1" d="M751.25,343.39c-3.97,1.58-7.47,4.4-9.26,8.07"/>
            <path class="cls-1" d="M747.61,381.94c-.79-.65-1.31-1.63-1.4-2.66-.09-1.02.24-2.08.9-2.86"/>
            <path class="cls-1" d="M744.33,388.92c-1.03.9-1.63,2.26-1.62,3.62"/>
            <path class="cls-1" d="M730.1,424.15c-1.47-2.2-2.14-4.93-1.84-7.56"/>
            <path class="cls-1" d="M743.97,419.94c-.59.37-1.31.53-2,.44-.45-.06-.88-.22-1.24-.49-.84-.63-1.15-1.79-1.02-2.84.08-.63.35-1.3.91-1.6"/>
            <path class="cls-1" d="M751.54,416.22c-.13-2.57-1.77-5-4.09-6.1-2.32-1.1-5.24-.81-7.31.72"/>
          </g>
        </g>
        <g>
          <path class="cls-7" d="M751.64,430.02c-7.01-4.92-16.07-7.14-24.4-5.15-8.33,1.99-15.65,8.48-17.82,16.76-3.22-2.35-9.33-2.96-13.17-1.92-3.84,1.05-7.15,3.91-8.74,7.57-10.81-4.9-26.24-.73-33.05,8.99-6.81,9.72-6.73,23.41-.89,33.74-1.37,0-4.18.26-6.04,1.59-3.52,2.51-4.47,6.2-3.9,10.54h108v-72.13Z"/>
          <g>
            <path class="cls-1" d="M686.44,446.41c-6.63-1.9-15.25.36-20.61,4.57-5.36,4.21-8.58,10.82-8.73,17.48-.07,3.06.46,6.15,1.81,8.93,2.34,4.82,6.76,9.09,13.22,9.78,6.47.69,11.96-2.29,15.06-6.69,3.1-4.41,3.17-10.67-.04-15-3.2-4.34-9.54-6.32-14.7-4.41"/>
            <path class="cls-1" d="M751.47,457.92c-6.7-3.27-14.78-4.05-21.69-1.24-6.91,2.8-12.36,9.42-12.93,16.86-3.44-.77-7.7-.62-10.6,1.38-3.13,2.16-4.86,5.71-4.73,9.24-4.2,0-8.62,1.5-11.29,5.43-2.34,3.44-2.52,8.96-1.11,12.57"/>
            <path class="cls-1" d="M744.19,499.1c1.67-1.56,2.26-4.41,1.6-6.65-.66-2.23-2.47-4.01-4.59-4.78-2.12-.77-4.51-.88-6.58.03-1.8.79-3.59,3.07-3.59,5.38"/>
            <path class="cls-1" d="M676.7,480.57c-3.82,1.13-8.25-.58-10.46-3.9-2.21-3.31-2.14-7.94.01-11.29"/>
            <path class="cls-1" d="M715.42,441.93c-1.8-.14-3.66.02-5.34.7-1.68.68-3.17,1.92-3.94,3.55"/>
            <path class="cls-1" d="M690.69,449.34c-1.77-1.45-4.64-1.32-6.27.29"/>
            <path class="cls-1" d="M654.51,477.84c-3.43-8.04-2.75-18.22,5.45-27.53"/>
            <path class="cls-1" d="M655.22,496.93c-1.23.06-2.43.62-3.28,1.51-.85.9-1.33,2.12-1.32,3.36"/>
            <path class="cls-1" d="M745.08,481.39c-4.56-2.25-10.17-2.24-14.71.03-4.55,2.28-7.92,6.76-8.85,11.76-2.94-.58-6.33-.58-8.94.91-2.61,1.49-4.51,4.72-4.42,7.72"/>
            <path class="cls-1" d="M751.33,448.48c-5.18-2.52-11.01-3.89-16.74-3.3-5.73.59-11.33,3.27-14.93,7.77"/>
            <path class="cls-1" d="M652.53,489.02c2.29,3.95,7.42,7.37,11.77,8.22"/>
            <path class="cls-1" d="M723.24,471.94c-2.85,0-5.59,1.03-7.26,3.17-.88,1.12-1.42,2.56-1.73,4.27"/>
            <path class="cls-1" d="M694.4,502.15c-1.6-3.25-1.42-7.31.46-10.4"/>
            <path class="cls-1" d="M751.33,443.49c-2.43-1.74-5.33-2.81-8.31-3.07"/>
            <path class="cls-1" d="M751.64,436.13c-3.38-2.93-8.22-5.47-12.64-6.14-3.25-.49-6.58-.6-9.8.04-3.22.63-6.34,2.05-8.7,4.32"/>
          </g>
        </g>
      </g>
      <g>
        <g>
          <path class="cls-9" d="M30.61,429.62c1.37-5.01,1.7-10.39.29-15.39-1.41-5-4.7-9.58-9.33-11.99.47-3.24-.62-6.77-2.9-9.13-2.29-2.36-5.69-3.59-8.97-3.24,1.54-1.6,2.25-4.36,1.29-6.35-.25-.53-.6-1-1-1.43-.93-1.01-2.12-1.79-3.43-2.23,4.8-2.36,8.63-6.85,10.24-11.92,1.62-5.07,1.23-10.69-.82-15.59-2.05-4.91-5.72-9.09-10.2-12.01-1.84-1.2-3.81-2.19-5.77-3.17v93.42s8.03-5.94,15.9-5.94,14.7,4.97,14.7,4.97Z"/>
          <g>
            <path class="cls-1" d="M9.06,413.75c-1.34-.46-2.88.15-3.8,1.22-1.53,1.78-1.42,4.67.07,6.48,1.49,1.81,4.11,2.51,6.38,1.92,2.27-.59,4.15-2.35,5.14-4.47,1.07-2.29,1.16-5.02.25-7.38-.92-2.36-2.83-4.31-5.16-5.28.39-1.98,0-4.33-1.32-5.87-1.31-1.54-3.35-2.43-5.37-2.36"/>
            <path class="cls-1" d="M27.48,426.39c1.26-3.91,1.49-8.04.32-11.98-1.17-3.94-3.95-6.85-7.28-8.92"/>
            <path class="cls-1" d="M.75,343.39c3.97,1.58,7.47,4.4,9.26,8.07"/>
            <path class="cls-1" d="M4.39,381.94c.79-.65,1.31-1.63,1.4-2.66.09-1.02-.24-2.08-.9-2.86"/>
            <path class="cls-1" d="M7.67,388.92c1.03.9,1.63,2.26,1.62,3.62"/>
            <path class="cls-1" d="M21.9,424.15c1.47-2.2,2.14-4.93,1.84-7.56"/>
            <path class="cls-1" d="M8.03,419.94c.59.37,1.31.53,2,.44.45-.06.88-.22,1.24-.49.84-.63,1.15-1.79,1.02-2.84-.08-.63-.35-1.3-.91-1.6"/>
            <path class="cls-1" d="M.46,416.22c.13-2.57,1.77-5,4.09-6.1,2.32-1.1,5.24-.81,7.31.72"/>
          </g>
        </g>
        <g>
          <path class="cls-7" d="M.36,430.02c7.01-4.92,16.07-7.14,24.4-5.15,8.33,1.99,15.65,8.48,17.82,16.76,3.22-2.35,9.33-2.96,13.17-1.92,3.84,1.05,7.15,3.91,8.74,7.57,10.81-4.9,26.24-.73,33.05,8.99,6.81,9.72,6.73,23.41.89,33.74,1.37,0,4.18.26,6.04,1.59,3.52,2.51,4.47,6.2,3.9,10.54H.36v-72.13Z"/>
          <g>
            <path class="cls-1" d="M65.46,446.45c6.63-1.9,15.35.32,20.71,4.53,5.36,4.21,8.58,10.82,8.73,17.48.07,3.06-.46,6.15-1.81,8.93-2.34,4.82-6.76,9.09-13.22,9.78-6.47.69-11.96-2.29-15.06-6.69-3.1-4.41-3.17-10.67.04-15,3.2-4.34,9.54-6.32,14.7-4.41"/>
            <path class="cls-1" d="M.53,457.92c6.7-3.27,14.78-4.05,21.69-1.24,6.91,2.8,12.36,9.42,12.93,16.86,3.44-.77,7.7-.62,10.6,1.38,3.13,2.16,4.86,5.71,4.73,9.24,4.2,0,8.62,1.5,11.29,5.43,2.34,3.44,2.52,8.96,1.11,12.57"/>
            <path class="cls-1" d="M7.81,499.1c-1.67-1.56-2.26-4.41-1.6-6.65.66-2.23,2.47-4.01,4.59-4.78,2.12-.77,4.51-.88,6.58.03,1.8.79,3.59,3.07,3.59,5.38"/>
            <path class="cls-1" d="M75.3,480.57c3.82,1.13,8.25-.58,10.46-3.9,2.21-3.31,2.14-7.94-.01-11.29"/>
            <path class="cls-1" d="M36.58,441.93c1.8-.14,3.66.02,5.34.7,1.68.68,3.17,1.92,3.94,3.55"/>
            <path class="cls-1" d="M61.31,449.34c1.77-1.45,4.64-1.32,6.27.29"/>
            <path class="cls-1" d="M97.49,477.84c3.43-8.04,2.97-18.1-5.24-27.41"/>
            <path class="cls-1" d="M96.78,496.93c1.23.06,2.43.62,3.28,1.51.85.9,1.33,2.12,1.32,3.36"/>
            <path class="cls-1" d="M6.92,481.39c4.56-2.25,10.17-2.24,14.71.03,4.55,2.28,7.92,6.76,8.85,11.76,2.94-.58,6.33-.58,8.94.91,2.61,1.49,4.51,4.72,4.42,7.72"/>
            <path class="cls-1" d="M.67,448.48c5.18-2.52,11.01-3.89,16.74-3.3,5.73.59,11.33,3.27,14.93,7.77"/>
            <path class="cls-1" d="M99.5,489.01c-2.29,3.95-7.45,7.37-11.81,8.22"/>
            <path class="cls-1" d="M28.76,471.94c2.85,0,5.59,1.03,7.26,3.17.88,1.12,1.42,2.56,1.73,4.27"/>
            <path class="cls-1" d="M57.6,502.15c1.6-3.25,1.42-7.31-.46-10.4"/>
            <path class="cls-1" d="M.67,443.49c2.43-1.74,5.33-2.81,8.31-3.07"/>
            <path class="cls-1" d="M.36,436.13c3.38-2.93,8.22-5.47,12.65-6.14,3.25-.49,6.58-.6,9.8.04,3.22.63,6.34,2.05,8.7,4.32"/>
          </g>
        </g>
      </g>
    </g>
    <g>
      <path class="cls-7" d="M620.06,458.8c0-.99.8-1.79,1.79-1.79s1.79.8,1.79,1.79-.8,1.79-1.79,1.79-1.79-.8-1.79-1.79Z"/>
      <path class="cls-7" d="M204.83,424.79c0-.99.8-1.79,1.79-1.79s1.79.8,1.79,1.79-.8,1.79-1.79,1.79-1.79-.8-1.79-1.79Z"/>
      <path class="cls-7" d="M60.17,394.95c0-.99.8-1.79,1.79-1.79s1.79.8,1.79,1.79-.8,1.79-1.79,1.79-1.79-.8-1.79-1.79Z"/>
      <path class="cls-7" d="M134.48,465.35c0-.99.8-1.79,1.79-1.79s1.79.8,1.79,1.79-.8,1.79-1.79,1.79-1.79-.8-1.79-1.79Z"/>
      <path class="cls-7" d="M584,336.93c0-.99.8-1.79,1.79-1.79s1.79.8,1.79,1.79-.8,1.79-1.79,1.79-1.79-.8-1.79-1.79Z"/>
      <path class="cls-7" d="M165.48,157.25c0-.99.8-1.79,1.79-1.79s1.79.8,1.79,1.79-.8,1.79-1.79,1.79-1.79-.8-1.79-1.79Z"/>
      <path class="cls-7" d="M23.89,226.82c0-.99.8-1.79,1.79-1.79s1.79.8,1.79,1.79-.8,1.79-1.79,1.79-1.79-.8-1.79-1.79Z"/>
      <path class="cls-7" d="M584,149.08c0-.99.8-1.79,1.79-1.79s1.79.8,1.79,1.79-.8,1.79-1.79,1.79-1.79-.8-1.79-1.79Z"/>
      <path class="cls-7" d="M721.41,262.94c0-.99.8-1.79,1.79-1.79s1.79.8,1.79,1.79-.8,1.79-1.79,1.79-1.79-.8-1.79-1.79Z"/>
      <path class="cls-7" d="M484.14,43.53c0-.99.8-1.79,1.79-1.79s1.79.8,1.79,1.79-.8,1.79-1.79,1.79-1.79-.8-1.79-1.79Z"/>
      <path class="cls-7" d="M88.78,84.92c0-.99.8-1.79,1.79-1.79s1.79.8,1.79,1.79-.8,1.79-1.79,1.79-1.79-.8-1.79-1.79Z"/>
      <polygon class="cls-9" points="574.9 411.29 574.35 407.69 572.36 408.9 573.57 406.91 569.97 406.36 573.57 405.8 572.36 403.81 574.35 405.02 574.9 401.42 575.46 405.02 577.45 403.81 576.24 405.8 579.84 406.36 576.24 406.91 577.45 408.9 575.46 407.69 574.9 411.29"/>
      <polygon class="cls-9" points="676.84 418.8 676.29 415.2 674.3 416.41 675.51 414.42 671.9 413.86 675.51 413.31 674.3 411.32 676.29 412.53 676.84 408.93 677.4 412.53 679.39 411.32 678.18 413.31 681.78 413.86 678.18 414.42 679.39 416.41 677.4 415.2 676.84 418.8"/>
      <polygon class="cls-9" points="671.91 91.84 671.35 88.24 669.36 89.44 670.57 87.45 666.97 86.9 670.57 86.35 669.36 84.36 671.35 85.56 671.91 81.96 672.46 85.56 674.45 84.36 673.24 86.35 676.84 86.9 673.24 87.45 674.45 89.44 672.46 88.24 671.91 91.84"/>
      <polygon class="cls-9" points="269.26 478.81 268.7 475.2 266.72 476.41 267.92 474.42 264.32 473.87 267.92 473.31 266.72 471.32 268.7 472.53 269.26 468.93 269.81 472.53 271.8 471.32 270.6 473.31 274.2 473.87 270.6 474.42 271.8 476.41 269.81 475.2 269.26 478.81"/>
      <polygon class="cls-9" points="155.46 406.76 154.13 398.15 149.37 401.03 152.26 396.28 143.64 394.95 152.26 393.63 149.37 388.87 154.13 391.75 155.46 383.14 156.78 391.75 161.54 388.87 158.66 393.63 167.27 394.95 158.66 396.28 161.54 401.03 156.78 398.15 155.46 406.76"/>
      <polygon class="cls-7" points="498.78 475.56 497.85 469.48 494.49 471.51 496.53 468.16 490.45 467.22 496.53 466.29 494.49 462.93 497.85 464.96 498.78 458.88 499.72 464.96 503.08 462.93 501.04 466.29 507.12 467.22 501.04 468.16 503.08 471.51 499.72 469.48 498.78 475.56"/>
      <polygon class="cls-7" points="250.98 58.41 250.05 52.33 246.69 54.37 248.72 51.01 242.64 50.07 248.72 49.14 246.69 45.78 250.05 47.82 250.98 41.74 251.91 47.82 255.27 45.78 253.24 49.14 259.32 50.07 253.24 51.01 255.27 54.37 251.91 52.33 250.98 58.41"/>
      <polygon class="cls-9" points="600.13 83.13 598.81 74.51 594.05 77.4 596.93 72.64 588.32 71.32 596.93 69.99 594.05 65.23 598.81 68.12 600.13 59.5 601.46 68.12 606.21 65.23 603.33 69.99 611.95 71.32 603.33 72.64 606.21 77.4 601.46 74.51 600.13 83.13"/>
      <polygon class="cls-9" points="162.33 298.48 161.78 294.88 159.79 296.08 161 294.09 157.39 293.54 161 292.99 159.79 291 161.78 292.2 162.33 288.6 162.89 292.2 164.88 291 163.67 292.99 167.27 293.54 163.67 294.09 164.88 296.08 162.89 294.88 162.33 298.48"/>
      <polygon class="cls-9" points="170.62 77.53 170.07 73.93 168.08 75.13 169.29 73.14 165.69 72.59 169.29 72.03 168.08 70.05 170.07 71.25 170.62 67.65 171.18 71.25 173.17 70.05 171.96 72.03 175.56 72.59 171.96 73.14 173.17 75.13 171.18 73.93 170.62 77.53"/>
    </g>
    <g>
      <g>
        <polygon class="cls-8" points="373.23 201.29 376 30.43 378.77 201.29 373.23 201.29 373.23 201.29"/>
        <polygon class="cls-8" points="376 473.87 373.23 303 378.77 303 376 473.87 376 473.87"/>
        <polygon class="cls-8" points="426.86 249.37 597.72 252.15 426.86 254.92 426.86 249.37 426.86 249.37"/>
        <polygon class="cls-8" points="154.28 252.15 325.14 249.37 325.14 254.92 154.28 252.15 154.28 252.15"/>
        <polygon class="cls-8" points="338.08 218.15 219.22 95.37 342 214.23 338.08 218.15 338.08 218.15"/>
        <polygon class="cls-8" points="532.78 408.93 410 290.07 413.92 286.15 532.78 408.93 532.78 408.93"/>
        <polygon class="cls-8" points="410 214.23 532.78 95.37 413.92 218.15 410 214.23 410 214.23"/>
        <polygon class="cls-8" points="219.22 408.93 338.08 286.15 342 290.07 219.22 408.93 219.22 408.93"/>
      </g>
      <g>
        <g>
          <polygon class="cls-8" points="319.74 116.32 359.37 202.33 352.54 205.16 319.74 116.32 319.74 116.32"/>
          <polygon class="cls-8" points="399.46 299.13 432.26 387.97 392.63 301.96 399.46 299.13 399.46 299.13"/>
        </g>
        <g>
          <polygon class="cls-8" points="240.18 195.89 329.01 228.68 326.18 235.51 240.18 195.89 240.18 195.89"/>
          <polygon class="cls-8" points="425.82 268.78 511.82 308.41 422.99 275.61 425.82 268.78 425.82 268.78"/>
        </g>
        <g>
          <polygon class="cls-8" points="240.18 308.41 326.18 268.78 329.01 275.61 240.18 308.41 240.18 308.41"/>
          <polygon class="cls-8" points="422.99 228.68 511.82 195.89 425.82 235.51 422.99 228.68 422.99 228.68"/>
        </g>
        <g>
          <polygon class="cls-8" points="319.74 387.97 352.54 299.13 359.37 301.96 319.74 387.97 319.74 387.97"/>
          <polygon class="cls-8" points="392.63 202.33 432.26 116.32 399.46 205.16 392.63 202.33 392.63 202.33"/>
        </g>
      </g>
      <g>
        <g>
          <polygon class="cls-8" points="295.22 129.32 348.37 207.61 346.05 209.14 295.22 129.32 295.22 129.32"/>
          <polygon class="cls-8" points="405.95 295.16 456.78 374.97 403.63 296.68 405.95 295.16 405.95 295.16"/>
        </g>
        <g>
          <polygon class="cls-8" points="232.03 222.42 324.97 240.19 324.41 242.91 232.03 222.42 232.03 222.42"/>
          <polygon class="cls-8" points="427.59 261.38 519.97 281.88 427.03 264.1 427.59 261.38 427.59 261.38"/>
        </g>
        <g>
          <polygon class="cls-8" points="253.17 332.93 331.47 279.78 332.99 282.09 253.17 332.93 253.17 332.93"/>
          <polygon class="cls-8" points="419.01 222.2 498.83 171.36 420.53 224.52 419.01 222.2 419.01 222.2"/>
        </g>
        <g>
          <polygon class="cls-8" points="346.27 396.12 364.05 303.17 366.76 303.73 346.27 396.12 346.27 396.12"/>
          <polygon class="cls-8" points="385.24 200.56 405.73 108.17 387.95 201.12 385.24 200.56 385.24 200.56"/>
        </g>
      </g>
      <g>
        <g>
          <polygon class="cls-8" points="342.29 109.05 365.34 200.83 362.64 201.47 342.29 109.05 342.29 109.05"/>
          <polygon class="cls-8" points="389.36 302.82 409.71 395.24 386.66 303.46 389.36 302.82 389.36 302.82"/>
        </g>
        <g>
          <polygon class="cls-8" points="250.98 174.8 332.18 223.4 330.72 225.76 250.98 174.8 250.98 174.8"/>
          <polygon class="cls-8" points="421.28 278.53 501.02 329.49 419.82 280.89 421.28 278.53 421.28 278.53"/>
        </g>
        <g>
          <polygon class="cls-8" points="232.91 285.86 324.69 262.81 325.32 265.51 232.91 285.86 232.91 285.86"/>
          <polygon class="cls-8" points="426.68 238.78 519.09 218.44 427.31 241.48 426.68 238.78 426.68 238.78"/>
        </g>
        <g>
          <polygon class="cls-8" points="298.65 377.17 347.26 295.97 349.61 297.43 298.65 377.17 298.65 377.17"/>
          <polygon class="cls-8" points="402.38 206.86 453.35 127.13 404.74 208.32 402.38 206.86 402.38 206.86"/>
        </g>
      </g>
    </g>
    <g>
      <circle class="cls-9" cx="376" cy="252.14" r="102.56" transform="translate(-68.17 339.72) rotate(-45)"/>
      <g>
        <g>
          <path class="cls-7" d="M284.84,242.53s18.37-5.17,26.68-10.95c0,0,3.74,8.17.79,15.47,0,0-15.99-4.24-27.47-4.51Z"/>
          <path class="cls-7" d="M324.83,280.76s-4.24,6.24-17.89,6.88c0,0,1.16,10.08,25.05,15.94l.27-3.44.94-4.21-.2-1.83-2.25-3.79-.41-1.67.41-2.92-1.82-2.5-4.1-2.45Z"/>
        </g>
        <g>
          <path class="cls-7" d="M467.16,242.53s-18.37-5.17-26.68-10.95c0,0-3.74,8.17-.79,15.47,0,0,15.99-4.24,27.47-4.51Z"/>
          <path class="cls-7" d="M427.17,280.76s4.24,6.24,17.89,6.88c0,0-1.16,10.08-25.05,15.94l-.27-3.44-.94-4.21.2-1.83,2.25-3.79.41-1.67-.41-2.92,1.82-2.5,4.1-2.45Z"/>
        </g>
      </g>
      <path class="cls-7" d="M421.34,286.24c-.11,1.17.54,2.33.33,3.48-.01.05-.02.1-.04.15-.3,1.23-1.47,2.06-2.13,3.16-1.94,3.24,1,7.32.6,11.08-.21,1.99-1.35,3.74-2.48,5.39-11.42,16.73-25.16,32.23-40.7,45.2-.31.01-.61.01-.92.01s-.61,0-.91-.01c-15.54-12.97-29.28-28.47-40.7-45.2-1.13-1.65-2.27-3.4-2.48-5.39-.4-3.76,2.54-7.84.6-11.08-.66-1.1-1.83-1.93-2.13-3.16-.02-.05-.03-.1-.04-.15-.21-1.15.44-2.31.33-3.48-.35-3.86-7.97-4.72-6.87-8.44.35-1.21,1.59-1.9,2.75-2.4,4.75-2.05,10.63-3.49,12.61-8.28,2.27-5.47-2.13-11.16-5.22-16.22-5.32-8.71-7.15-19.28-6.34-29.46.8-10.17,4.11-20.02,8.45-29.26,8.4-17.91,21.47-34.48,39.48-42.59.16,0,.31,0,.47,0s.32,0,.48,0c0,0,0,0,0,0,18,8.12,31.07,24.69,39.47,42.59,4.34,9.24,7.65,19.09,8.45,29.26.81,10.18-1.02,20.75-6.34,29.46-3.09,5.06-7.49,10.75-5.22,16.22,1.98,4.79,7.86,6.23,12.61,8.28,1.16.5,2.4,1.19,2.75,2.4,1.1,3.72-6.52,4.58-6.87,8.44Z"/>
      <g>
        <g>
          <path class="cls-6" d="M375.31,354.48c-14.29-11.95-26.92-25.83-37.75-40.98-1.31-1.84-2.67-3.67-3.85-5.6-1.4-2.28-1.77-4.43-1.2-7.03.38-1.76,1.02-3.53.98-5.35-.03-1.69-.81-2.84-1.85-4.11-.89-1.08-1.14-1.95-.87-3.33.15-.78.33-1.56.13-2.35-.26-1.05-1.02-1.86-1.84-2.52-1.47-1.18-5.34-2.6-5.03-4.95.28-2.13,3.32-2.86,4.99-3.52,1.59-.63,3.2-1.24,4.73-2.02,2.9-1.47,5.49-3.68,6.18-7.01.8-3.87-1.22-7.68-3.16-10.89-2.4-3.97-4.81-7.75-6.34-12.16-6.29-18.13-.64-37.72,7.79-54.15,7.45-14.51,18.12-27.98,32.49-36.11.84-.47,1.69-.93,2.55-1.36.46-.23.92-.46,1.39-.68.21-.1.69-.44.91-.44.41,0,.41-.64,0-.64-.5,0-1.14.49-1.58.7-.93.45-1.84.92-2.74,1.41-1.8.98-3.55,2.05-5.25,3.2-3.37,2.28-6.52,4.86-9.46,7.67-5.97,5.72-11.02,12.36-15.26,19.45-9.18,15.34-16.17,33.8-13.64,51.92.63,4.51,1.85,8.93,3.73,13.08,1.88,4.13,4.75,7.68,6.68,11.77,1.03,2.18,1.78,4.66,1.28,7.08-.41,1.98-1.56,3.66-3.13,4.91-2.96,2.36-6.74,3.25-10.11,4.82-2.28,1.06-3.7,3.37-1.66,5.41,1.71,1.71,5.01,2.54,5.82,5.01.54,1.67-.74,3.32.11,4.98.43.84,1.17,1.46,1.7,2.23.68.99.88,2.14.79,3.31-.15,2.05-.96,3.98-1.21,6.02-.23,1.95.25,3.73,1.21,5.43,2.28,4.04,5.31,7.8,8.11,11.49,2.83,3.73,5.76,7.37,8.81,10.92,6.15,7.16,12.75,13.94,19.78,20.24,1.75,1.57,3.53,3.1,5.33,4.61.31.26.77-.19.45-.45h0Z"/>
          <path class="cls-6" d="M331.24,303.2c-5.24-1.13-10.06-3.07-14.66-5.83-4.09-2.45-7.98-5.51-9.99-9.96l-.63.63c7.37,4.34,16.48,5.2,24.52,2.27.54-.2.31-1.07-.24-.87-7.83,2.84-16.64,2.04-23.82-2.19-.42-.25-.8.23-.63.63,2.03,4.51,5.99,7.69,10.15,10.18,4.58,2.74,9.81,5.3,15.22,5.62.27.02.33-.42.06-.47h0Z"/>
          <path class="cls-6" d="M306.51,287.68c1.48.38,3.14.27,4.65.1,1.56-.17,3.1-.51,4.6-.98,2.97-.94,5.85-2.45,8.2-4.52.41-.36-.18-.91-.58-.58-2.41,1.91-5.02,3.42-7.96,4.36-1.43.46-2.9.77-4.39.96-1.48.19-2.97.13-4.46.28-.21.02-.28.33-.05.38h0Z"/>
          <path class="cls-6" d="M321.33,272.59c-.75-.3-1.51-.82-2.08-1.39-.55-.55-1.01-1.27-1.12-2.06-.2-1.38.67-2.86,2.08-3.1.55-.09.42-1.05-.13-.97-1.91.25-3.15,2.21-2.93,4.06.12,1,.63,1.91,1.36,2.59.78.73,1.67,1.11,2.71,1.3.29.05.39-.33.12-.43h0Z"/>
          <path class="cls-6" d="M281.89,243.11c2.73.38,5.52.36,8.27.59,3,.24,5.99.63,8.96,1.13,2.78.47,5.54,1.05,8.28,1.74,1.44.37,2.88.76,4.3,1.19,1.41.42,2.83,1.03,4.27,1.31.53.1.93-.64.39-.92-2.47-1.27-5.52-1.87-8.2-2.55-2.96-.75-5.96-1.37-8.98-1.85-2.83-.45-5.68-.77-8.54-.97-2.87-.21-5.87-.43-8.74,0-.17.03-.17.31,0,.34h0Z"/>
          <path class="cls-6" d="M281.99,243.16c3.75-.51,7.48-1.64,11.06-2.83,3.52-1.18,6.96-2.56,10.32-4.14,1.69-.79,3.36-1.64,5-2.53,1.11-.6,3.04-1.27,3.71-2.44.67-1.17-.27-2.84-.77-3.92-.74-1.6-1.72-3.06-2.88-4.38-.2-.23-.61.08-.42.33,1.02,1.36,1.87,2.81,2.48,4.4.31.82.68,1.71.57,2.59-.11.92-1.14,1.25-1.89,1.67-2.8,1.58-5.67,3.01-8.61,4.3-3.03,1.33-6.13,2.51-9.28,3.53-3.13,1.01-6.32,1.77-9.47,2.7-.47.14-.26.77.2.71h0Z"/>
          <path class="cls-6" d="M311.19,231.53c1.05,2.57,1.74,5.29,1.87,8.07.07,1.41,0,2.83-.21,4.22-.1.63-.22,1.25-.38,1.87-.15.61-.4,1.17-.27,1.8.05.25.37.3.54.14.47-.43.57-1.07.71-1.67.17-.71.3-1.43.4-2.15.2-1.44.25-2.9.16-4.36-.18-2.86-.9-5.65-2.26-8.17-.16-.3-.7-.09-.56.24h0Z"/>
          <path class="cls-6" d="M313.33,242.9c-1.82-.36-3.74-2.07-3.81-3.92-.07-1.85,1.7-3.67,3.48-4.17"/>
          <path class="cls-6" d="M288.9,225.63c1.66-1.46,2.94-3.44,4.45-5.07,1.61-1.74,3.39-3.37,5.43-4.6,1.91-1.15,4.09-1.93,6.31-2.12,1.06-.09,2.13-.06,3.18.14,1.11.22,2.07.71,3.11,1.1.42.16.82-.49.45-.78-3.51-2.77-9.22-1.61-12.81.31-2.15,1.15-4.05,2.78-5.71,4.55-1.71,1.82-3.66,3.95-4.75,6.2-.11.22.15.43.34.26h0Z"/>
          <path class="cls-6" d="M288.82,225.78c4.19-2.83,8.73-5,13.8-5.6,1.16-.14,2.33-.2,3.49-.18,1.18.02,2.4.31,3.58.26.8-.03,1.32-.43,1.54-1.19.33-1.13.63-2.7.55-3.88-.03-.44-.57-.48-.73-.1-.25.61-.31,1.27-.42,1.91-.08.5-.07,1.35-.31,1.81-.49.96-2.79.29-3.66.26-2.19-.08-4.39.12-6.53.58-4.25.91-8.41,2.77-11.51,5.86-.13.13.04.37.2.26h0Z"/>
        </g>
        <path class="cls-6" d="M334.54,207.28c1.92-3.76,3.43-7.75,5.32-11.53,1.9-3.8,4-7.48,6.18-11.12l-.55-.23c-.06.24-.11.49-.17.73-.05.24.3.42.41.17.1-.22.21-.45.31-.67.16-.35-.31-.64-.52-.3-2.28,3.66-4.34,7.46-6.24,11.33-1.82,3.7-3.77,7.58-4.89,11.56-.03.09.11.15.16.07h0Z"/>
        <path class="cls-6" d="M338.57,193.85c1.74-3.43,3.3-6.88,5.43-10.1,1.09-1.65,2.26-3.24,3.51-4.77.58-.71,1.18-1.4,1.8-2.08.62-.68,1.37-1.32,1.89-2.08.12-.17-.12-.41-.29-.29-.71.49-1.29,1.23-1.87,1.87-.69.76-1.35,1.54-2,2.34-1.2,1.49-2.32,3.04-3.37,4.64-2.09,3.21-4.12,6.74-5.2,10.44-.02.06.07.09.1.04h0Z"/>
        <path class="cls-6" d="M387,341.55c3.7-2.75,6.99-6.18,10.03-9.63,1.49-1.69,2.91-3.43,4.27-5.22.73-.96,1.43-1.93,2.12-2.92.61-.87,1.4-1.78,1.76-2.79.07-.21-.21-.35-.36-.21-.73.7-1.23,1.72-1.81,2.55-.65.94-1.32,1.86-2,2.78-1.43,1.9-2.92,3.76-4.49,5.55-3.02,3.45-6.38,6.5-9.68,9.68-.11.1.04.3.16.21h0Z"/>
        <path class="cls-6" d="M397.76,326.96c1.56-1.93,3.11-3.86,4.63-5.82.78-1.01,1.55-2.02,2.33-3.03.39-.5.78-1.01,1.17-1.52.38-.5.84-.98,1.11-1.55.11-.22-.15-.43-.34-.26-.43.38-.75.89-1.09,1.35-.38.51-.76,1.02-1.14,1.53-.76,1.02-1.52,2.04-2.28,3.06-1.52,2.04-2.99,4.1-4.46,6.18-.04.06.05.13.09.07h0Z"/>
      </g>
      <g>
        <path class="cls-6" d="M377.14,354.93c14.5-12.13,27.29-26.25,38.23-41.65,2.32-3.27,5.53-6.8,5-11.09-.26-2.07-1.11-4.06-1.21-6.15-.06-1.12.16-2.2.8-3.14.53-.77,1.27-1.39,1.7-2.23.88-1.71-.48-3.44.18-5.14.49-1.28,1.81-2.1,2.9-2.81,1.58-1.03,4.18-2.31,3.86-4.59-.22-1.57-1.66-2.42-2.99-3.01-1.7-.75-3.45-1.36-5.15-2.08-3.63-1.55-7.39-3.86-7.87-8.17-.51-4.54,2.59-8.78,4.88-12.42,2.43-3.85,4.33-7.91,5.56-12.3,5.08-18.15-.86-37.25-9.41-53.36-7.66-14.44-18.6-27.77-33.17-35.61-.91-.49-1.82-.95-2.75-1.39-.36-.17-.84-.53-1.24-.53s-.41.64,0,.64c.48,0,1.35.65,1.79.86.98.48,1.94.99,2.9,1.53,1.73.97,3.41,2.03,5.05,3.15,3.41,2.35,6.59,5.02,9.54,7.92,5.86,5.76,10.81,12.4,14.97,19.48,9.22,15.72,16.17,34.73,12.66,53.14-.87,4.55-2.37,8.99-4.59,13.06-2.04,3.74-4.84,7.13-6.2,11.21-1.11,3.32-.78,6.88,1.64,9.53,2.29,2.52,5.7,3.72,8.79,4.93,1.66.65,4.53,1.35,4.97,3.36.3,1.38-.99,2.37-1.98,3.06-1.73,1.21-4.31,2.31-4.87,4.57-.18.72-.04,1.44.09,2.16.27,1.46.11,2.38-.83,3.53-1.04,1.26-1.81,2.41-1.85,4.11-.03,1.83.6,3.59.98,5.35.57,2.6.19,4.75-1.2,7.03-2.4,3.92-5.27,7.63-8.05,11.29-2.89,3.8-5.9,7.5-9.02,11.11-6.03,6.97-12.49,13.58-19.36,19.72-1.7,1.52-3.42,3-5.17,4.46-.32.27.14.72.45.45h0Z"/>
        <path class="cls-6" d="M420.82,303.67c5.42-.32,10.64-2.88,15.22-5.62,4.16-2.49,8.12-5.67,10.15-10.18.18-.39-.2-.88-.63-.63-7.17,4.23-15.99,5.03-23.82,2.19-.55-.2-.79.68-.24.87,8.04,2.92,17.15,2.07,24.52-2.27l-.63-.63c-2.01,4.45-5.89,7.51-9.99,9.96-4.6,2.76-9.41,4.7-14.66,5.83-.26.06-.21.49.06.47h0Z"/>
        <path class="cls-6" d="M445.44,287.3c-1.48-.15-2.97-.09-4.46-.28-1.49-.19-2.96-.51-4.39-.96-2.94-.94-5.55-2.45-7.96-4.36-.41-.32-.99.23-.58.58,2.35,2.06,5.23,3.57,8.2,4.52,1.45.46,2.95.79,4.46.97,1.55.18,3.26.3,4.78-.09.23-.06.16-.36-.05-.38h0Z"/>
        <path class="cls-6" d="M430.79,273.02c1.03-.19,1.93-.57,2.71-1.3.73-.68,1.24-1.59,1.36-2.59.22-1.86-1.03-3.81-2.93-4.06-.55-.07-.68.88-.13.97,1.42.24,2.28,1.72,2.08,3.1-.11.77-.55,1.48-1.08,2.02-.58.59-1.35,1.12-2.12,1.43-.27.11-.17.49.12.43h0Z"/>
        <path class="cls-6" d="M470.11,242.78c-2.79-.42-5.7-.21-8.5-.02-2.94.2-5.87.53-8.78.99-2.94.47-5.86,1.07-8.75,1.8-1.44.36-2.88.76-4.3,1.19-1.37.41-2.85.76-4.13,1.42-.53.28-.14,1.02.39.92,1.37-.26,2.71-.84,4.04-1.24,1.43-.43,2.86-.83,4.3-1.2,2.81-.72,5.65-1.32,8.5-1.8,2.89-.49,5.8-.87,8.72-1.11,2.82-.24,5.7-.21,8.5-.6.17-.02.17-.31,0-.34h0Z"/>
        <path class="cls-6" d="M470.21,242.45c-3.15-.93-6.34-1.69-9.47-2.7-3.15-1.02-6.25-2.2-9.28-3.53-2.94-1.29-5.81-2.73-8.61-4.3-.5-.28-1.5-.64-1.83-1.14-.51-.77.21-2.34.51-3.12.6-1.59,1.46-3.05,2.48-4.4.18-.24-.22-.56-.42-.33-1.16,1.32-2.14,2.78-2.88,4.38-.49,1.05-1.36,2.61-.83,3.77.55,1.21,2.5,1.89,3.58,2.47,1.7.93,3.44,1.81,5.19,2.63,6.68,3.13,14.03,5.97,21.38,6.97.45.06.67-.57.2-.71h0Z"/>
        <path class="cls-6" d="M440.25,231.3c-1.36,2.52-2.08,5.32-2.26,8.17-.09,1.43-.03,2.87.16,4.29.09.7.22,1.39.38,2.08.15.64.25,1.34.74,1.8.17.15.49.11.54-.14.13-.63-.12-1.19-.27-1.8-.15-.62-.28-1.24-.38-1.87-.21-1.39-.28-2.81-.21-4.22.13-2.78.82-5.5,1.87-8.07.13-.32-.4-.54-.56-.24h0Z"/>
        <path class="cls-6" d="M438.53,242.9c1.82-.36,3.88-2.07,3.96-3.92.07-1.85-1.45-3.67-3.23-4.17"/>
        <path class="cls-6" d="M463.44,225.37c-1.07-2.2-2.96-4.28-4.62-6.06-1.7-1.83-3.63-3.51-5.84-4.69-3.59-1.93-9.31-3.08-12.81-.31-.36.29.03.94.45.78,2.08-.78,3.85-1.42,6.12-1.25,2.29.17,4.53.95,6.49,2.13,1.99,1.2,3.72,2.77,5.3,4.46,1.56,1.67,2.86,3.71,4.58,5.21.19.16.45-.04.34-.26h0Z"/>
        <path class="cls-6" d="M463.38,225.52c-3.1-3.09-7.26-4.95-11.51-5.86-2.08-.45-4.22-.65-6.35-.58-.95.03-2.79.58-3.53,0-.53-.42-.48-1.2-.59-1.85-.12-.72-.18-1.46-.46-2.13-.16-.38-.7-.34-.73.1-.08,1.19.22,2.73.55,3.88.22.76.75,1.16,1.54,1.19,1.11.04,2.27-.23,3.39-.26,1.23-.03,2.46.03,3.68.18,5.07.61,9.6,2.77,13.8,5.6.16.11.34-.13.2-.26h0Z"/>
      </g>
    </g>
    <g>
      <polygon class="cls-9" points="376 297.46 378.04 310.02 385.34 305.59 380.91 312.9 393.47 314.93 380.91 316.97 385.34 324.28 378.04 319.85 376 332.4 373.96 319.85 366.66 324.28 371.09 316.97 358.53 314.93 371.09 312.9 366.66 305.59 373.96 310.02 376 297.46"/>
      <polygon class="cls-9" points="353.14 206.4 354.54 215.05 359.57 212 356.52 217.03 365.17 218.44 356.52 219.84 359.57 224.87 354.54 221.82 353.14 230.47 351.74 221.82 346.7 224.87 349.75 219.84 341.11 218.44 349.75 217.03 346.7 212 351.74 215.05 353.14 206.4"/>
      <polygon class="cls-9" points="376 174.26 376.71 178.66 379.27 177.11 377.72 179.67 382.12 180.38 377.72 181.1 379.27 183.66 376.71 182.11 376 186.51 375.29 182.11 372.73 183.66 374.28 181.1 369.88 180.38 374.28 179.67 372.73 177.11 375.29 178.66 376 174.26"/>
      <polygon class="cls-9" points="394.88 236.3 396.06 243.55 400.28 240.99 397.72 245.21 404.97 246.39 397.72 247.56 400.28 251.79 396.06 249.23 394.88 256.48 393.71 249.23 389.49 251.79 392.05 247.56 384.8 246.39 392.05 245.21 389.49 240.99 393.71 243.55 394.88 236.3"/>
      <circle class="cls-9" cx="397.72" cy="208.37" r="9.86"/>
      <circle class="cls-9" cx="357.07" cy="261.18" r="8.63"/>
      <path class="cls-9" d="M400.29,284.78c0,2.28-1.85,4.13-4.13,4.13s-4.13-1.85-4.13-4.13,1.85-4.13,4.13-4.13,4.13,1.85,4.13,4.13Z"/>
    </g>
    <g>
      <path class="cls-7" d="M376,61.5c-105.13,0-190.64,85.52-190.64,190.65s85.51,190.64,190.64,190.64,190.64-85.52,190.64-190.64S481.11,61.5,376,61.5ZM376.26,398.5c-80.89,0-146.46-65.58-146.46-146.47s65.58-146.46,146.46-146.46,146.46,65.58,146.46,146.46-65.58,146.47-146.46,146.47Z"/>
      <path class="cls-9" d="M376,443.38c-105.45,0-191.24-85.79-191.24-191.24S270.55,60.91,376,60.91s191.24,85.79,191.24,191.24-85.79,191.24-191.24,191.24ZM376,62.11c-104.79,0-190.04,85.25-190.04,190.04s85.25,190.04,190.04,190.04,190.04-85.25,190.04-190.04S480.79,62.11,376,62.11Z"/>
      <path class="cls-9" d="M268.74,145.49c-.15,0-.31-.06-.42-.18l-27.36-27.36c-.23-.23-.23-.61,0-.85.23-.23.61-.23.85,0l27.36,27.36c.23.23.23.61,0,.85-.12.12-.27.18-.42.18Z"/>
      <path class="cls-9" d="M336.72,106.15c-.26,0-.51-.18-.58-.44l-10-37.3c-.09-.32.1-.65.42-.73.32-.09.65.1.73.42l10,37.3c.09.32-.1.65-.42.73-.05.01-.1.02-.16.02Z"/>
      <path class="cls-9" d="M229.4,213.46c-.05,0-.1,0-.16-.02l-37.3-9.99c-.32-.09-.51-.41-.42-.73.09-.32.42-.51.73-.42l37.3,9.99c.32.09.51.41.42.73-.07.27-.31.44-.58.44Z"/>
      <path class="cls-9" d="M192.1,302.02c-.26,0-.51-.18-.58-.44-.09-.32.1-.65.42-.73l37.28-10.06c.32-.08.65.1.73.42.09.32-.1.65-.42.73l-37.28,10.06c-.05.01-.1.02-.16.02Z"/>
      <path class="cls-9" d="M241.38,387.37c-.15,0-.31-.06-.42-.18-.23-.23-.23-.61,0-.85l27.36-27.36c.23-.23.61-.23.85,0,.23.23.23.61,0,.85l-27.36,27.36c-.12.12-.27.18-.42.18Z"/>
      <path class="cls-9" d="M326.73,436.64c-.05,0-.1,0-.16-.02-.32-.09-.51-.41-.42-.73l9.99-37.3c.09-.32.42-.5.73-.42.32.09.51.41.42.73l-9.99,37.3c-.07.27-.31.44-.58.44Z"/>
      <path class="cls-9" d="M425.27,436.64c-.26,0-.51-.18-.58-.44l-9.99-37.3c-.09-.32.1-.65.42-.73.32-.08.65.11.73.42l9.99,37.3c.09.32-.1.65-.42.73-.05.01-.1.02-.16.02Z"/>
      <path class="cls-9" d="M510.62,387.37c-.15,0-.31-.06-.42-.18l-27.36-27.36c-.23-.23-.23-.61,0-.85s.61-.23.85,0l27.36,27.36c.23.23.23.61,0,.85-.12.12-.27.18-.42.18Z"/>
      <path class="cls-9" d="M559.9,302.02c-.05,0-.1,0-.16-.02l-37.45-10.04c-.32-.09-.51-.41-.42-.73.09-.32.41-.5.73-.42l37.45,10.04c.32.09.51.41.42.73-.07.27-.31.44-.58.44Z"/>
      <path class="cls-9" d="M522.6,213.46c-.26,0-.51-.18-.58-.44-.09-.32.1-.65.42-.73l37.3-9.99c.33-.09.65.1.73.42.09.32-.1.65-.42.73l-37.3,9.99c-.05.01-.1.02-.16.02Z"/>
      <path class="cls-9" d="M483.26,145.49c-.15,0-.31-.06-.42-.18-.23-.23-.23-.61,0-.85l27.36-27.36c.23-.23.61-.23.85,0,.23.23.23.61,0,.85l-27.36,27.36c-.12.12-.27.18-.42.18Z"/>
      <path class="cls-9" d="M415.28,106.15c-.05,0-.1,0-.16-.02-.32-.09-.51-.41-.42-.73l9.99-37.3c.09-.32.41-.51.73-.42.32.09.51.41.42.73l-9.99,37.3c-.07.27-.31.44-.58.44Z"/>
      <path class="cls-6" d="M391.75,79.69c-.18.8-.97,1.31-1.77,1.15-.81-.17-1.32-.96-1.16-1.77.25-1.2.6-4.72-.84-6.49-.64-.79-1.61-1.18-2.96-1.18-4.03,0-6.87,13.26-7.54,22.21-.06.78-.7,1.39-1.49,1.39s-1.43-.61-1.48-1.39c-.66-8.95-3.51-22.21-7.54-22.21-1.34,0-2.31.38-2.96,1.18-1.44,1.77-1.09,5.29-.84,6.49.17.81-.35,1.6-1.16,1.77-.8.17-1.59-.35-1.77-1.15-.05-.23-1.18-5.74,1.45-8.99.84-1.04,2.44-2.29,5.28-2.29,4.91,0,7.59,7.36,9.02,14.2,1.44-6.85,4.11-14.2,9.03-14.2,2.83,0,4.44,1.25,5.28,2.29,2.63,3.25,1.49,8.76,1.45,8.99Z"/>
      <path class="cls-6" d="M474.84,94.99c-1.2-.59-3.94-1.07-5.64,1.39-.43.62-.69,1.29-.94,1.93-.73,1.85-1.36,3.44-5.9,3.44s-5.17-1.59-5.89-3.44c-.25-.64-.52-1.31-.94-1.93-1.72-2.46-4.44-1.98-5.65-1.39-.74.37-1.04,1.27-.67,2,.36.74,1.26,1.04,2,.68.12-.06,1.19-.56,1.87.41.22.33.41.81.62,1.32.52,1.33,1.21,3.11,3.29,4.22-2,1.59-3.27,4.04-3.27,6.78,0,4.77,3.88,8.66,8.65,8.66s8.66-3.89,8.66-8.66c0-2.74-1.28-5.19-3.27-6.78,2.07-1.13,2.77-2.89,3.29-4.22.21-.51.39-1,.62-1.32.61-.87,1.51-.58,1.88-.41.74.35,1.62.06,1.99-.68.36-.74.07-1.63-.68-2ZM468.02,110.42c0,3.12-2.54,5.67-5.67,5.67s-5.67-2.55-5.67-5.67,2.55-5.67,5.67-5.67,5.67,2.55,5.67,5.67Z"/>
      <path class="cls-6" d="M527.75,175.92v-13.76c3.49-1.15,6.21-3.41,7.34-6.34.3-.76-.08-1.63-.85-1.93-.76-.3-1.64.08-1.94.85-.84,2.17-3.07,3.87-5.9,4.69h0s-.08,0-.13,0c-.31,0-.6.09-.84.25-.91.2-1.88.3-2.87.3s-1.96-.1-2.87-.3c-.23-.16-.52-.25-.83-.25-.05,0-.09,0-.14,0-2.83-.82-5.07-2.52-5.9-4.69-.31-.76-1.17-1.15-1.94-.85-.77.3-1.16,1.17-.86,1.93,1.14,2.93,3.86,5.19,7.34,6.34v13.76c-3.48,1.15-6.2,3.41-7.34,6.34-.3.76.08,1.63.86,1.93.18.07.36.1.54.1.6,0,1.17-.36,1.39-.95.9-2.28,3.32-4.06,6.37-4.82,1.06-.26,2.21-.41,3.39-.41s2.24.13,3.27.38c.04,0,.08.02.12.03,3.05.77,5.47,2.54,6.36,4.82.3.76,1.17,1.15,1.94.85.76-.3,1.15-1.17.85-1.93-1.13-2.93-3.85-5.19-7.34-6.34ZM520.33,175.26v-12.44c.72.09,1.45.14,2.21.14s1.5-.05,2.22-.14v12.44c-.72-.09-1.46-.14-2.22-.14s-1.49.05-2.21.14Z"/>
      <g>
        <path class="cls-6" d="M560.35,240.9c-15.66-7.34-24.58-.9-25.7,0,0,0-.02,0-.02.02-1.84,1.13-3.07,3.16-3.07,5.48s1.13,4.19,2.84,5.34c1.03.7,2.28,1.11,3.61,1.11,3.56,0,6.46-2.9,6.46-6.45,0-2.27-1.17-4.27-2.96-5.42,3.79-.93,9.67-1.06,17.56,2.63.1.05.21.08.32.1.1.03.21.04.32.04.56,0,1.1-.32,1.35-.86.35-.75.03-1.64-.72-1.99ZM538.02,249.85c-1.91,0-3.46-1.56-3.46-3.46s1.55-3.47,3.46-3.47,3.47,1.56,3.47,3.47-1.56,3.46-3.47,3.46Z"/>
        <path class="cls-6" d="M557.14,245.3c-.77-.33-1.61-.51-2.51-.51-3.56,0-6.45,2.89-6.45,6.45,0,2.27,1.17,4.26,2.95,5.41-3.79.94-9.67,1.07-17.56-2.62-.21-.09-.42-.14-.63-.14-.56,0-1.09.32-1.35.86-.35.75-.03,1.64.72,1.99,5.55,2.6,10.26,3.47,14.06,3.47,7.16,0,11.16-3.07,11.7-3.51,0,0,.02,0,.02-.02,1.81-1.13,3-3.14,3-5.44,0-2.67-1.62-4.96-3.94-5.94ZM554.64,247.78c1.91,0,3.47,1.55,3.47,3.46s-1.56,3.47-3.47,3.47-3.47-1.56-3.47-3.47,1.56-3.46,3.47-3.46Z"/>
      </g>
      <g>
        <path class="cls-9" d="M517.27,341.21c.32.69.54,1.11.55,1.12.02.04.05.08.06.12-.15-.44-.35-.85-.61-1.24Z"/>
        <path class="cls-9" d="M515.13,343.63c-.09-.2-.27-.53-.48-.98.21.3.37.62.48.98Z"/>
        <path class="cls-6" d="M528.36,351.55c-.73-.38-1.63-.09-2.01.63-.2.36-1.25,2.15-2.92,1.46-1.62-.67-.66-3.82,1.18-9.33l.11-.35c2.04-6.09,2-9.78,1.99-9.91,0-3.87-3.14-7.02-7.02-7.02s-6.96,3.09-7.01,6.91c0,.04,0,.07,0,.11-.07,1.44.13,2.88.44,4.2-.46-.1-.93-.16-1.42-.16-3.65,0-6.61,2.97-6.61,6.6s2.97,6.61,6.61,6.61,6.6-2.97,6.6-6.61c0-.75-.12-1.45-.35-2.12,0-.05-.03-.09-.06-.14,0-.04-.04-.08-.06-.12,0,0-.23-.43-.55-1.12-.68-1.52-1.75-4.37-1.61-7.06v-.08c0-2.22,1.81-4.03,4.03-4.03s4.04,1.81,4.04,4.06c0,.04.02,3.39-1.84,8.93l-.11.34c-2.12,6.3-3.79,11.28.51,13.04.67.28,1.31.4,1.91.4,2.42,0,4.13-1.97,4.79-3.25.38-.73.09-1.62-.63-2ZM511.68,348.32c-2,0-3.62-1.62-3.62-3.62s1.62-3.61,3.62-3.61c1.23,0,2.32.62,2.97,1.56.21.3.37.62.48.98.11.34.17.7.17,1.07,0,2-1.62,3.62-3.61,3.62Z"/>
      </g>
      <path class="cls-6" d="M472.24,403.87c1.8-6.52-1.47-11.33-1.61-11.53-.23-.34-.6-.56-1.01-.62-.4-.07-.82.05-1.14.3-.34.26-.66.62-.97,1.02-.51-3.38-2.48-4.9-2.57-4.97-.65-.48-1.58-.36-2.08.28l-2.16,2.77c-.76-2.04-2-2.99-2.07-3.05-.65-.48-1.58-.36-2.08.28l-1.77,2.28c-.59-2.03-2.09-3.63-2.29-3.83-.58-.59-1.52-.6-2.12-.02-.59.58-.6,1.52-.02,2.12.47.48,1.68,2.01,1.68,3.31v17.14c0,.82.66,1.49,1.49,1.49s1.49-.67,1.49-1.49v-14.14l2.71-3.49c.33.68.62,1.64.62,2.96v14.67c0,.66.43,1.23,1.04,1.41-.31.34-.46.8-.35,1.29.14.71.76,1.2,1.46,1.2.09,0,.2,0,.29-.03,1.66-.34,3.17-.81,4.5-1.45.44,1.02,1.17,2.28,2.43,3.61.3.31.69.47,1.09.47.36,0,.74-.13,1.03-.41.6-.56.62-1.51.06-2.11-1.04-1.1-1.59-2.1-1.89-2.82-.04-.09-.07-.19-.11-.27,2.16-1.6,3.65-3.75,4.36-6.36ZM461.32,409.33v-14.14l2.71-3.49c.33.68.62,1.65.62,2.97v14.05c-1.14.62-2.36,1.03-3.52,1.32.12-.21.19-.46.19-.72ZM467.63,406.36v-6.83c.36-1.05.91-2.41,1.49-3.49.57,1.62,1.04,4.1.23,7.02-.35,1.31-.96,2.4-1.73,3.29Z"/>
      <g>
        <path class="cls-6" d="M363.18,423.3c0-.83.67-1.5,1.49-1.5h5.07c-.58-1.04-.9-2.23-.9-3.47,0-3.94,3.21-7.16,7.15-7.16s7.16,3.22,7.16,7.16c0,1.24-.33,2.42-.9,3.47h5.06c.82,0,1.49.67,1.49,1.5s-.67,1.49-1.49,1.49h-8.6c-.68,0-1.28-.47-1.45-1.13-.18-.65.13-1.35.73-1.68,1.33-.74,2.16-2.14,2.16-3.66,0-2.29-1.87-4.17-4.17-4.17s-4.17,1.87-4.17,4.17c0,1.52.84,2.92,2.17,3.66.6.33.9,1.03.73,1.68-.17.66-.76,1.13-1.45,1.13h-8.62c-.82,0-1.49-.67-1.49-1.49Z"/>
        <path class="cls-6" d="M388.82,429.45c0,.83-.67,1.49-1.5,1.49h-22.64c-.83,0-1.5-.66-1.5-1.49s.67-1.49,1.5-1.49h22.64c.83,0,1.5.66,1.5,1.49Z"/>
      </g>
      <path class="cls-6" d="M303.79,413.5l-4.26,2.45c-.32.2-.74-.05-.74-.43v-.96c-2.98-.13-5.36-2.6-5.36-5.61v-13.04c0-1.31-.29-2.28-.62-2.97l-2.69,3.47v14.16c0,.82-.67,1.49-1.5,1.49s-1.49-.67-1.49-1.49v-14.66c0-1.31-.29-2.28-.62-2.97l-2.69,3.47v14.16c0,.82-.67,1.49-1.5,1.49s-1.49-.67-1.49-1.49v-17.14c0-1.3-1.21-2.84-1.68-3.31-.58-.6-.57-1.54.03-2.12.59-.58,1.53-.57,2.11.02.21.21,1.72,1.79,2.29,3.83l1.77-2.28c.5-.64,1.43-.76,2.08-.27.07.05,1.31,1,2.08,3.04l2.15-2.77c.5-.64,1.43-.76,2.08-.27.11.07,2.7,2.08,2.7,6.6v13.04c0,1.37,1.04,2.49,2.37,2.62v-.94c0-.38.42-.62.74-.44l4.26,2.46c.32.19.32.65,0,.85Z"/>
      <path class="cls-6" d="M239.49,330.44l-1.84,9.62c-.15.81-.94,1.34-1.76,1.18-.81-.15-1.34-.94-1.18-1.75l1.16-6.05-9.46,6.43,2.07,3.06c.47.69.29,1.61-.4,2.08-.34.23-.74.3-1.12.23-.38-.07-.72-.29-.96-.63l-2.07-3.06-5.42,3.68c-.35.23-.75.3-1.13.23-.38-.07-.72-.29-.95-.63-.47-.69-.29-1.61.4-2.08l5.42-3.68-2.07-3.06c-.46-.69-.28-1.61.4-2.08.69-.47,1.61-.29,2.08.4l2.07,3.06,9.51-6.45-6.04-1.16c-.82-.16-1.34-.94-1.19-1.75.16-.82.93-1.35,1.75-1.19l9.54,1.83c.82.16,1.35.94,1.19,1.76Z"/>
      <g>
        <path class="cls-6" d="M214.71,252.62c-2.18,0-4.1,1.15-5.19,2.88-.28-1.21-.34-2.12-.34-2.14-.28-5.05-1.45-9.85-1.49-10.04-.11-.46-.43-.83-.86-1.02-.42-.19-.91-.17-1.32.07-2.92,1.62-4.69,4.26-5.76,6.9-.36-1.82-.76-3.4-1.16-4.14-1.21-2.29-3.71-2.45-5.01-2.19-.8.16-1.31.94-1.16,1.74.16.8.93,1.32,1.74,1.18.14-.02,1.31-.21,1.78.66.61,1.16,1.63,7.43,2.16,11.52.1.79.79,1.35,1.59,1.3.79-.06,1.4-.72,1.39-1.51,0-.08-.07-7.63,4.16-11.6.34,1.83.79,4.55.94,7.3,0,.22.25,3.71,1.99,6.81-.56,1.68-1.63,3.72-2.69,4.97-.77.91-2.97.83-3.93.64-.81-.17-1.59.36-1.76,1.18-.16.81.36,1.59,1.18,1.76.19.04.97.18,1.98.18,1.52,0,3.55-.33,4.82-1.84.88-1.04,1.82-2.56,2.55-4.17.16.15.33.28.49.4.09.08.19.16.29.22.27.21.56.38.87.52.13.08.27.15.41.2.04.02.07.04.11.06.08.04.16.06.24.07.02.02.04.02.06.02.6.21,1.24.32,1.91.32,3.39,0,6.14-2.75,6.14-6.13s-2.75-6.13-6.14-6.13ZM214.71,261.89c-.39,0-.77-.07-1.11-.21-.33-.11-.62-.29-.88-.5l-.02-.02c-.69-.58-1.13-1.44-1.13-2.41,0-1.73,1.41-3.14,3.13-3.14s3.14,1.41,3.14,3.14-1.41,3.14-3.14,3.14Z"/>
        <path class="cls-9" d="M213.6,261.68c-.33-.11-.62-.29-.88-.5.27.19.56.36.88.5Z"/>
      </g>
      <g>
        <path class="cls-6" d="M241.4,175.58c-.79.22-1.62-.24-1.84-1.04l-.74-2.63-5.37,3.47c-.4.26-.9.32-1.34.14-.45-.17-.78-.53-.91-.99l-.73-2.62-5.23,3.42c-.4.26-.9.33-1.34.16-.45-.17-.78-.54-.91-1l-.69-2.44-5.21,3.83c-.26.2-.58.3-.89.3-.46,0-.9-.21-1.2-.62-.48-.66-.34-1.59.32-2.09l6.95-5.11c.39-.29.9-.36,1.37-.21.46.17.82.54.95,1.02l.73,2.56,5.24-3.44c.39-.26.9-.32,1.34-.15.45.17.78.54.91,1l.74,2.64,5.37-3.47c.39-.26.9-.32,1.33-.14.45.17.78.53.91.99l1.28,4.59c.22.79-.24,1.62-1.03,1.84Z"/>
        <path class="cls-6" d="M214.87,164.78c-.49-.66-.35-1.59.32-2.09l6.94-5.11c.4-.29.91-.36,1.37-.21.47.17.82.54.96,1.02l.72,2.56,5.24-3.44c.4-.26.9-.31,1.34-.15.45.17.79.54.91,1l.74,2.64,5.37-3.47c.4-.26.9-.31,1.34-.14.45.17.78.53.91.99l1.28,4.59c.22.79-.24,1.62-1.04,1.85-.79.22-1.62-.24-1.85-1.04l-.74-2.63-5.37,3.47c-.4.26-.9.32-1.34.14-.44-.17-.77-.53-.9-.99l-.74-2.62-5.22,3.43c-.4.26-.9.32-1.34.15-.45-.17-.79-.54-.92-1l-.69-2.44-5.2,3.84c-.27.2-.58.29-.89.29-.46,0-.91-.21-1.2-.62Z"/>
      </g>
      <path class="cls-6" d="M305.41,114.5c-.22.6-.79.96-1.39.96-.18,0-.36-.04-.54-.1-4.04-1.57-6.82-6.15-7.11-11.57h-2.5c-.29,5.43-3.07,10.01-7.11,11.57-.18.07-.35.1-.54.1-.6,0-1.17-.36-1.39-.96-.3-.76.08-1.63.85-1.93,2.85-1.11,4.91-4.64,5.19-8.78h-4.2c-.82,0-1.49-.66-1.49-1.49s.67-1.49,1.49-1.49h4.08c-.52-3.68-2.47-6.72-5.08-7.74-.76-.3-1.15-1.17-.85-1.94.3-.76,1.17-1.15,1.93-.85,3.78,1.45,6.45,5.57,7.02,10.53h2.67c.57-4.96,3.25-9.07,7.02-10.53.76-.3,1.63.08,1.93.85.3.77-.08,1.64-.85,1.94-2.61,1.02-4.56,4.06-5.08,7.74h3.75c.82,0,1.49.66,1.49,1.49s-.67,1.49-1.49,1.49h-3.86c.28,4.14,2.34,7.67,5.19,8.78.76.3,1.15,1.17.85,1.93Z"/>
      <circle class="cls-4" cx="376" cy="252.15" r="125.02"/>
    </g>
    <g>
      <g>
        <path class="cls-9" d="M93.25,159.4c17,0,30.77,13.78,30.77,30.77,0,1.52-.15,3.01-.36,4.47,2.98-5.16,4.7-11.12,4.7-17.51,0-19.39-15.72-35.12-35.12-35.12s-35.12,15.72-35.12,35.12c0,6.38,1.73,12.35,4.71,17.51-.21-1.46-.36-2.95-.36-4.47,0-17,13.78-30.77,30.77-30.77Z"/>
        <path class="cls-9" d="M93.25,222c13.21,0,23.91,10.71,23.91,23.91,0,1.18-.11,2.34-.28,3.48,2.31-4.01,3.66-8.64,3.66-13.6,0-15.07-12.22-27.29-27.29-27.29s-27.29,12.22-27.29,27.29c0,4.96,1.34,9.6,3.66,13.6-.17-1.14-.28-2.29-.28-3.48,0-13.21,10.71-23.91,23.91-23.91Z"/>
        <path class="cls-7" d="M100.16,192.84c0,3.82-3.1,6.92-6.92,6.92s-6.92-3.1-6.92-6.92,3.1-6.92,6.92-6.92,6.92,3.1,6.92,6.92Z"/>
        <path class="cls-7" d="M95.92,173.87c0,1.48-1.2,2.68-2.68,2.68s-2.68-1.2-2.68-2.68,1.2-2.68,2.68-2.68,2.68,1.2,2.68,2.68Z"/>
      </g>
      <g>
        <path class="cls-9" d="M93.25,344.71c-17,0-30.77-13.78-30.77-30.77,0-1.52.15-3.01.36-4.47-2.98,5.16-4.7,11.12-4.7,17.51,0,19.39,15.72,35.12,35.12,35.12s35.12-15.72,35.12-35.12c0-6.38-1.73-12.35-4.71-17.51.21,1.46.36,2.95.36,4.47,0,17-13.78,30.77-30.77,30.77Z"/>
        <path class="cls-9" d="M93.25,282.11c-13.21,0-23.91-10.71-23.91-23.91,0-1.18.11-2.34.28-3.48-2.31,4.01-3.66,8.64-3.66,13.6,0,15.07,12.22,27.29,27.29,27.29s27.29-12.22,27.29-27.29c0-4.96-1.34-9.6-3.66-13.6.17,1.14.28,2.29.28,3.48,0,13.21-10.71,23.91-23.91,23.91Z"/>
        <path class="cls-7" d="M86.33,311.27c0-3.82,3.1-6.92,6.92-6.92s6.92,3.1,6.92,6.92-3.1,6.92-6.92,6.92-6.92-3.1-6.92-6.92Z"/>
        <path class="cls-7" d="M90.57,330.24c0-1.48,1.2-2.68,2.68-2.68s2.68,1.2,2.68,2.68-1.2,2.68-2.68,2.68-2.68-1.2-2.68-2.68Z"/>
      </g>
      <circle class="cls-7" cx="93.1" cy="252.15" r="10.3"/>
    </g>
    <g>
      <g>
        <path class="cls-9" d="M658.75,159.4c17,0,30.77,13.78,30.77,30.77,0,1.52-.15,3.01-.36,4.47,2.98-5.16,4.7-11.12,4.7-17.51,0-19.39-15.72-35.12-35.12-35.12s-35.12,15.72-35.12,35.12c0,6.38,1.73,12.35,4.71,17.51-.21-1.46-.36-2.95-.36-4.47,0-17,13.78-30.77,30.77-30.77Z"/>
        <path class="cls-9" d="M658.75,222c13.21,0,23.91,10.71,23.91,23.91,0,1.18-.11,2.34-.28,3.48,2.31-4.01,3.66-8.64,3.66-13.6,0-15.07-12.22-27.29-27.29-27.29s-27.29,12.22-27.29,27.29c0,4.96,1.34,9.6,3.66,13.6-.17-1.14-.28-2.29-.28-3.48,0-13.21,10.71-23.91,23.91-23.91Z"/>
        <path class="cls-7" d="M665.67,192.84c0,3.82-3.1,6.92-6.92,6.92s-6.92-3.1-6.92-6.92,3.1-6.92,6.92-6.92,6.92,3.1,6.92,6.92Z"/>
        <path class="cls-7" d="M661.43,173.87c0,1.48-1.2,2.68-2.68,2.68s-2.68-1.2-2.68-2.68,1.2-2.68,2.68-2.68,2.68,1.2,2.68,2.68Z"/>
      </g>
      <g>
        <path class="cls-9" d="M658.75,344.71c-17,0-30.77-13.78-30.77-30.77,0-1.52.15-3.01.36-4.47-2.98,5.16-4.7,11.12-4.7,17.51,0,19.39,15.72,35.12,35.12,35.12s35.12-15.72,35.12-35.12c0-6.38-1.73-12.35-4.71-17.51.21,1.46.36,2.95.36,4.47,0,17-13.78,30.77-30.77,30.77Z"/>
        <path class="cls-9" d="M658.75,282.11c-13.21,0-23.91-10.71-23.91-23.91,0-1.18.11-2.34.28-3.48-2.31,4.01-3.66,8.64-3.66,13.6,0,15.07,12.22,27.29,27.29,27.29s27.29-12.22,27.29-27.29c0-4.96-1.34-9.6-3.66-13.6.17,1.14.28,2.29.28,3.48,0,13.21-10.71,23.91-23.91,23.91Z"/>
        <path class="cls-7" d="M651.84,311.27c0-3.82,3.1-6.92,6.92-6.92s6.92,3.1,6.92,6.92-3.1,6.92-6.92,6.92-6.92-3.1-6.92-6.92Z"/>
        <path class="cls-7" d="M656.08,330.24c0-1.48,1.2-2.68,2.68-2.68s2.68,1.2,2.68,2.68-1.2,2.68-2.68,2.68-2.68-1.2-2.68-2.68Z"/>
      </g>
      <circle class="cls-7" cx="658.61" cy="252.15" r="10.3"/>
    </g>
  </g>
</svg>