<?xml version="1.0" encoding="UTF-8"?>
<svg xmlns="http://www.w3.org/2000/svg" xmlns:xlink="http://www.w3.org/1999/xlink" viewBox="0 0 770.37 522.84">
  <defs>
    <style>
      .cls-1, .cls-2, .cls-3, .cls-4, .cls-5, .cls-6, .cls-7, .cls-8, .cls-9, .cls-10, .cls-11, .cls-12 {
        stroke-miterlimit: 10;
      }

      .cls-1, .cls-2, .cls-3, .cls-6, .cls-8, .cls-9, .cls-11 {
        stroke: #222221;
      }

      .cls-1, .cls-2, .cls-5, .cls-6 {
        stroke-width: 1.26px;
      }

      .cls-1, .cls-13 {
        fill: #a98152;
      }

      .cls-2, .cls-14 {
        fill: #222221;
      }

      .cls-15 {
        stroke-dasharray: 0 0 .13 5.21;
      }

      .cls-15, .cls-16, .cls-3, .cls-17, .cls-18, .cls-19, .cls-20, .cls-21, .cls-5, .cls-6, .cls-22, .cls-23, .cls-24, .cls-25, .cls-26, .cls-8, .cls-27, .cls-28, .cls-29, .cls-30, .cls-9, .cls-31, .cls-32, .cls-33, .cls-11, .cls-34 {
        fill: none;
      }

      .cls-15, .cls-16, .cls-17, .cls-19, .cls-20, .cls-21, .cls-22, .cls-23, .cls-24, .cls-25, .cls-26, .cls-27, .cls-28, .cls-29, .cls-30, .cls-31, .cls-32, .cls-33, .cls-34 {
        stroke-linecap: round;
        stroke-linejoin: round;
      }

      .cls-15, .cls-16, .cls-17, .cls-19, .cls-20, .cls-4, .cls-22, .cls-24, .cls-7, .cls-25, .cls-26, .cls-27, .cls-28, .cls-29, .cls-30, .cls-10, .cls-31, .cls-32, .cls-33, .cls-12, .cls-34 {
        stroke: #dbc3ad;
      }

      .cls-15, .cls-16, .cls-17, .cls-19, .cls-20, .cls-22, .cls-24, .cls-26, .cls-27, .cls-28, .cls-30, .cls-31, .cls-32, .cls-33, .cls-34 {
        stroke-width: 1.3px;
      }

      .cls-16 {
        stroke-dasharray: 0 0 .13 5.21;
      }

      .cls-3 {
        stroke-width: 1.07px;
      }

      .cls-17 {
        stroke-dasharray: 0 0 .13 5.27;
      }

      .cls-35 {
        clip-path: url(#clippath);
      }

      .cls-18, .cls-14, .cls-36, .cls-37, .cls-13 {
        stroke-width: 0px;
      }

      .cls-19 {
        stroke-dasharray: 0 0 .15 6.09;
      }

      .cls-20 {
        stroke-dasharray: 0 0 .14 5.46;
      }

      .cls-21 {
        stroke: #f3eadf;
      }

      .cls-21, .cls-23 {
        stroke-width: .64px;
      }

      .cls-4 {
        stroke-width: .79px;
      }

      .cls-4, .cls-7, .cls-10, .cls-37, .cls-12 {
        fill: #dbc3ad;
      }

      .cls-5, .cls-23 {
        stroke: #a98152;
      }

      .cls-22 {
        stroke-dasharray: 0 0 .15 5.82;
      }

      .cls-38 {
        clip-path: url(#clippath-1);
      }

      .cls-24 {
        stroke-dasharray: 0 0 .12 4.95;
      }

      .cls-7 {
        stroke-width: .98px;
      }

      .cls-25 {
        stroke-dasharray: 0 0 .1 4.15;
        stroke-width: 1.04px;
      }

      .cls-26 {
        stroke-dasharray: 0 0 .15 5.82;
      }

      .cls-8 {
        stroke-width: 1.03px;
      }

      .cls-27 {
        stroke-dasharray: 0 0 .12 4.94;
      }

      .cls-28 {
        stroke-dasharray: 0 0 .13 5.03;
      }

      .cls-29 {
        stroke-dasharray: 0 0 .14 5.71;
      }

      .cls-29, .cls-12 {
        stroke-width: 1.43px;
      }

      .cls-30 {
        stroke-dasharray: 0 0 .12 4.94;
      }

      .cls-9 {
        stroke-width: .63px;
      }

      .cls-10 {
        stroke-width: .78px;
      }

      .cls-31 {
        stroke-dasharray: 0 0 .14 5.46;
      }

      .cls-32 {
        stroke-dasharray: 0 0 .13 5.38;
      }

      .cls-36 {
        fill: #dcd9cd;
      }

      .cls-11 {
        stroke-width: 1.89px;
      }

      .cls-34 {
        stroke-dasharray: 0 0 .13 5.27;
      }
    </style>
    <clipPath id="clippath">
      <rect id="SVGID" class="cls-18" x="637.95" y="381.99" width="122.24" height="118.29"/>
    </clipPath>
    <clipPath id="clippath-1">
      <rect id="SVGID-2" data-name="SVGID" class="cls-18" x="10.19" y="381.99" width="122.24" height="118.29" transform="translate(142.61 882.27) rotate(180)"/>
    </clipPath>
  </defs>
  <g id="BACKGROUND">
    <rect class="cls-14" x="10.19" y=".28" width="750" height="500"/>
  </g>
  <g id="OBJECTS">
    <g>
      <g>
        <g>
          <path class="cls-13" d="M721.33,120.19c-1.72,6.29-2.14,13.04-.36,19.31,1.78,6.27,5.89,12.02,11.71,15.05-.6,4.06.78,8.5,3.64,11.45,2.87,2.96,7.15,4.5,11.26,4.07-1.94,2.01-2.83,5.47-1.62,7.98.32.66.76,1.26,1.25,1.8,1.17,1.27,2.66,2.24,4.31,2.8-6.02,2.97-10.83,8.6-12.85,14.96-2.03,6.36-1.55,13.41,1.03,19.57,2.58,6.16,7.18,11.41,12.8,15.07,2.31,1.5,4.78,2.74,7.24,3.98v-117.26s-10.08,2.38-19.96,2.38-18.46-1.16-18.46-1.16Z"/>
          <g>
            <path class="cls-8" d="M748.38,140.11c1.68.57,3.61-.19,4.77-1.54,1.92-2.23,1.78-5.86-.09-8.13-1.87-2.28-5.16-3.15-8.01-2.41-2.85.74-5.2,2.95-6.45,5.62-1.34,2.88-1.46,6.31-.31,9.27,1.15,2.96,3.55,5.41,6.48,6.63-.49,2.49,0,5.44,1.66,7.37,1.65,1.93,4.2,3.06,6.74,2.96"/>
            <path class="cls-8" d="M725.26,124.25c-1.58,4.91-1.87,10.09-.4,15.03,1.47,4.95,4.96,8.59,9.14,11.2"/>
            <path class="cls-8" d="M758.81,228.42c-4.99-1.98-9.37-5.52-11.62-10.13"/>
            <path class="cls-8" d="M754.23,180.04c-.99.82-1.64,2.05-1.76,3.33-.12,1.28.3,2.61,1.13,3.6"/>
            <path class="cls-8" d="M750.11,171.28c-1.29-1.13-2.05-2.83-2.03-4.55"/>
            <path class="cls-8" d="M732.25,127.05c-1.85,2.76-2.68,6.19-2.31,9.49"/>
            <path class="cls-8" d="M749.66,132.35c-.74-.46-1.65-.66-2.51-.55-.56.07-1.11.27-1.56.62-1.06.8-1.45,2.25-1.28,3.56.1.79.43,1.63,1.14,2.01"/>
            <path class="cls-8" d="M759.17,137.01c-.17,3.22-2.22,6.28-5.13,7.65-2.92,1.38-6.58,1.02-9.17-.9"/>
          </g>
        </g>
        <g>
          <path class="cls-13" d="M556.09.38c.04,7.49,4.54,14.55,10.77,18.7,6.23,4.15,13.97,5.63,21.45,5.23.78,5.81,5.42,11.03,11.01,12.8,5.59,1.77,11.76.85,17.13-1.49,6.46,6.74,16.07,9.51,25.41,9.44,9.5-.07,19.16-2.94,26.43-9.06,7.27-6.12,11.84-15.68,10.91-25.14,3.75.23,7.31-.66,10.66-2.34,3.36-1.69,6.55-4.82,8.08-8.25l-141.86.1Z"/>
          <g>
            <path class="cls-8" d="M616.64,35.43c-.11.21-.43.07-.6-.09-4.46-4.26-6.73-10.72-5.91-16.83"/>
            <path class="cls-8" d="M626.03,18.03c1.33-3.86,4.9-6.85,8.92-7.5,4.03-.65,8.35,1.08,10.82,4.32,1.53,2,2.37,4.62,1.87,7.09-.49,2.47-2.48,4.68-4.97,5.07-2.49.39-5.23-1.38-5.57-3.87"/>
            <path class="cls-8" d="M623.85,35.08c7.12,4.44,16.2,5.6,24.2,3.1"/>
            <path class="cls-8" d="M657.89,34.8c8.47-3.73,14.2-12.92,13.84-22.16"/>
            <path class="cls-8" d="M586.59,20.65c.98,2.37,3.37,4.09,5.92,4.28"/>
            <path class="cls-8" d="M560.35.38c.28,4.21,1.96,8.31,4.71,11.51,2.75,3.2,6.55,5.48,10.67,6.4"/>
            <path class="cls-8" d="M603.08,31.44c.09.11.24.14.38.16,2.91.47,5.96-.01,8.58-1.35"/>
            <path class="cls-8" d="M586.73.29c.89,2.3,2.76,4.13,4.92,5.31,2.16,1.18,4.61,1.76,7.05,2.05,3.65.44,6.85.27,10.36-.82,3.51-1.09,6.96-3.44,8.24-6.35"/>
            <path class="cls-8" d="M647.67,3.57c3.85,1.29,7.19,4.06,9.17,7.6,1.98,3.54,2.59,7.83,1.68,11.79"/>
            <path class="cls-8" d="M641.9,15.91c-2.44-1.99-6.11-2.29-8.84-.74-2.73,1.56-4.34,4.87-3.88,7.98.47,3.11,2.98,5.81,6.05,6.5"/>
            <path class="cls-8" d="M661.11,6.38c1.66,1.57,2.89,3.6,3.52,5.8"/>
            <path class="cls-8" d="M574.56.63c.92,3.78,4.09,6.92,7.88,7.8"/>
          </g>
        </g>
        <g>
          <path class="cls-36" d="M669.66.34c-6.17,8.8-8.96,20.17-6.46,30.62,2.5,10.46,10.64,19.64,21.04,22.37-2.95,4.04-3.72,11.7-2.4,16.53,1.31,4.83,4.91,8.98,9.5,10.96-6.14,13.57-.91,32.93,11.28,41.48,12.2,8.55,29.39,8.45,42.35,1.11,0,1.72.33,5.25,2,7.58,3.15,4.42,7.79,5.62,13.22,4.89V.34h-90.53Z"/>
          <g>
            <path class="cls-8" d="M690.8,82.2c-2.39,8.32-.13,19.11,5.16,25.84,5.28,6.73,13.58,10.77,21.94,10.96,3.84.09,7.72-.58,11.2-2.27,6.05-2.93,11.41-8.49,12.28-16.59.87-8.12-2.87-15.01-8.4-18.9-5.53-3.89-13.39-3.97-18.83.05-5.44,4.02-7.93,11.98-5.54,18.45"/>
            <path class="cls-8" d="M704.67.56c-4.11,8.41-5.08,18.55-1.56,27.22,3.52,8.68,11.82,15.51,21.16,16.23-.97,4.32-.78,9.66,1.73,13.3,2.72,3.93,7.17,6.1,11.59,5.94,0,5.27,1.88,10.82,6.82,14.17,4.31,2.93,11.24,3.17,15.77,1.4"/>
            <path class="cls-8" d="M756.36,9.69c-1.96-2.1-5.54-2.84-8.34-2.01-2.8.83-5.04,3.1-6,5.76-.96,2.66-1.1,5.66.04,8.26.99,2.27,3.85,4.5,6.75,4.5"/>
            <path class="cls-8" d="M733.1,94.39c1.42,4.79-.73,10.35-4.89,13.12-4.16,2.77-9.96,2.69-14.17-.01"/>
            <path class="cls-8" d="M684.61,45.79c-.18,2.27.02,4.59.88,6.7.86,2.11,2.41,3.97,4.46,4.95"/>
            <path class="cls-8" d="M693.91,76.83c-1.83,2.22-1.66,5.83.37,7.87"/>
            <path class="cls-8" d="M729.68,122.25c-10.09,4.3-22.53,3.1-34.21-7.2"/>
            <path class="cls-8" d="M753.64,121.35c.08,1.55.77,3.05,1.9,4.11,1.12,1.06,2.67,1.67,4.21,1.66"/>
            <path class="cls-8" d="M734.13,8.57c-2.83,5.72-2.81,12.76.04,18.47,2.86,5.7,8.48,9.94,14.76,11.1-.73,3.7-.72,7.95,1.15,11.22,1.87,3.27,5.92,5.66,9.69,5.55"/>
            <path class="cls-8" d="M692.83.73c-3.16,6.5-4.89,13.81-4.14,21,.74,7.19,4.1,14.23,9.75,18.74"/>
            <path class="cls-8" d="M743.48,124.21c4.96-2.87,9.47-8.79,10.54-14.26"/>
            <path class="cls-8" d="M722.27,35.98c0,3.58,1.29,7.02,3.98,9.12,1.41,1.1,3.21,1.78,5.35,2.18"/>
            <path class="cls-8" d="M760.19,72.18c-4.07,2.01-9.17,1.79-13.05-.58"/>
            <path class="cls-8" d="M686.57.73c-2.18,3.05-3.52,6.69-3.85,10.43"/>
            <path class="cls-8" d="M677.33.34c-3.68,4.25-6.87,10.31-7.7,15.87-.61,4.08-.75,8.26.05,12.31.8,4.04,2.57,7.95,5.43,10.92"/>
          </g>
        </g>
      </g>
      <g>
        <g>
          <path class="cls-13" d="M135.2,40.8c6.56,1.79,13.59,2.23,20.13.38,6.54-1.85,12.54-6.15,15.69-12.21,4.23.62,8.86-.81,11.94-3.8,3.08-2.99,4.69-7.45,4.24-11.74,2.09,2.02,5.7,2.95,8.32,1.68.69-.33,1.31-.79,1.87-1.31,1.33-1.22,2.34-2.78,2.92-4.49,3.09,6.28,8.97,11.29,15.6,13.4,6.63,2.11,13.99,1.61,20.41-1.08,6.42-2.69,11.9-7.49,15.71-13.35,1.57-2.41,2.86-4.98,4.15-7.55h-122.25s2.48,10.51,2.48,20.81-1.21,19.24-1.21,19.24Z"/>
          <g>
            <path class="cls-3" d="M155.97,12.59c.6-1.75-.2-3.76-1.6-4.97-2.33-2-6.11-1.85-8.48.1-2.37,1.95-3.28,5.38-2.51,8.35.78,2.97,3.07,5.43,5.86,6.73,3,1.4,6.57,1.52,9.66.32,3.09-1.2,5.64-3.7,6.91-6.76,2.6.52,5.67,0,7.69-1.73s3.19-4.38,3.09-7.03"/>
            <path class="cls-3" d="M139.44,36.7c5.12,1.65,10.51,1.95,15.67.41,5.16-1.53,8.96-5.17,11.67-9.53"/>
            <path class="cls-3" d="M248.04,1.72c-2.06,5.2-5.75,9.77-10.56,12.11"/>
            <path class="cls-3" d="M197.6,6.49c.86,1.04,2.14,1.71,3.47,1.83,1.34.12,2.72-.31,3.75-1.18"/>
            <path class="cls-3" d="M188.47,10.79c-1.18,1.34-2.95,2.14-4.74,2.11"/>
            <path class="cls-3" d="M142.36,29.41c2.88,1.93,6.45,2.79,9.9,2.41"/>
            <path class="cls-3" d="M147.88,11.26c-.48.77-.69,1.72-.57,2.62.08.58.29,1.16.64,1.63.83,1.1,2.34,1.51,3.71,1.33.83-.1,1.7-.45,2.09-1.19"/>
            <path class="cls-3" d="M152.74,1.35c3.36.17,6.54,2.31,7.98,5.35,1.44,3.04,1.06,6.86-.94,9.56"/>
          </g>
        </g>
        <g>
          <path class="cls-13" d="M10.29,213.08c7.81-.04,15.17-4.74,19.5-11.23,4.33-6.5,5.87-14.57,5.46-22.37,6.05-.81,11.5-5.65,13.35-11.48,1.84-5.82.88-12.26-1.55-17.86,7.03-6.73,9.91-16.76,9.84-26.49-.07-9.91-3.06-19.98-9.45-27.55-6.38-7.58-16.35-12.35-26.21-11.38.24-3.91-.69-7.62-2.44-11.12-1.76-3.5-5.02-6.83-8.6-8.43l.1,147.9Z"/>
          <g>
            <path class="cls-3" d="M46.83,149.95c.22.11.07.45-.1.63-4.45,4.65-11.17,7.02-17.55,6.16"/>
            <path class="cls-3" d="M28.69,140.15c-4.02-1.39-7.14-5.1-7.81-9.3-.68-4.2,1.12-8.7,4.5-11.29,2.09-1.59,4.81-2.47,7.39-1.95,2.57.52,4.88,2.59,5.28,5.18.4,2.59-1.44,5.45-4.04,5.81"/>
            <path class="cls-3" d="M46.47,142.43c4.63-7.42,5.84-16.89,3.23-25.23"/>
            <path class="cls-3" d="M46.17,106.94c-3.89-8.83-13.47-14.81-23.1-14.43"/>
            <path class="cls-3" d="M31.42,181.28c2.47-1.03,4.26-3.51,4.46-6.18"/>
            <path class="cls-3" d="M10.29,208.63c4.39-.29,8.67-2.04,12-4.91,3.34-2.86,5.71-6.83,6.67-11.12"/>
            <path class="cls-3" d="M42.67,164.08c.11-.1.15-.25.17-.4.49-3.03-.01-6.21-1.41-8.95"/>
            <path class="cls-3" d="M10.2,181.13c2.39-.93,4.31-2.87,5.54-5.13,1.23-2.25,1.83-4.8,2.14-7.35.46-3.81.28-7.14-.86-10.8-1.14-3.66-3.59-7.25-6.62-8.59"/>
            <path class="cls-3" d="M13.61,117.59c1.35-4.01,4.23-7.49,7.93-9.56,3.7-2.07,8.17-2.7,12.29-1.75"/>
            <path class="cls-3" d="M26.48,123.61c-2.07,2.54-2.39,6.37-.77,9.22,1.62,2.85,5.08,4.53,8.32,4.04,3.24-.49,6.06-3.11,6.77-6.31"/>
            <path class="cls-3" d="M16.55,103.58c1.64-1.73,3.75-3.02,6.05-3.67"/>
            <path class="cls-3" d="M10.55,193.82c3.94-.96,7.21-4.27,8.13-8.22"/>
          </g>
        </g>
        <g>
          <path class="cls-36" d="M10.24,94.67c9.18,6.43,21.03,9.35,31.93,6.74,10.9-2.61,20.48-11.09,23.32-21.94,4.21,3.07,12.2,3.87,17.23,2.51,5.03-1.37,9.36-5.12,11.43-9.9,14.15,6.41,34.33.95,43.25-11.77,8.92-12.72,8.81-30.64,1.16-44.16,1.79,0,5.47-.35,7.91-2.08,4.61-3.28,5.85-8.12,5.1-13.79H10.24v94.38Z"/>
          <g>
            <path class="cls-3" d="M95.59,72.62c8.68,2.49,19.92.13,26.94-5.38,7.02-5.51,11.23-14.16,11.43-22.88.09-4-.61-8.05-2.36-11.68-3.06-6.31-8.85-11.9-17.3-12.8-8.47-.9-15.65,2.99-19.7,8.76-4.05,5.77-4.14,13.96.05,19.63,4.19,5.68,12.49,8.27,19.24,5.78"/>
            <path class="cls-3" d="M10.47,58.16c8.77,4.28,19.34,5.29,28.38,1.63,9.05-3.67,16.17-12.33,16.92-22.06,4.5,1.01,10.07.82,13.87-1.81,4.1-2.83,6.36-7.48,6.2-12.09,5.5,0,11.28-1.96,14.78-7.11,3.06-4.49,3.3-11.72,1.46-16.44"/>
            <path class="cls-3" d="M20,4.27c-2.19,2.04-2.96,5.78-2.1,8.7.87,2.92,3.23,5.25,6.01,6.26,2.78,1.01,5.91,1.15,8.62-.04,2.36-1.03,4.69-4.02,4.69-7.03"/>
            <path class="cls-3" d="M108.3,28.52c5-1.48,10.79.76,13.68,5.1,2.89,4.34,2.8,10.39-.01,14.77"/>
            <path class="cls-3" d="M57.63,79.08c2.36.19,4.79-.03,6.98-.92,2.2-.89,4.14-2.51,5.16-4.65"/>
            <path class="cls-3" d="M90,69.38c2.32,1.9,6.07,1.73,8.2-.38"/>
            <path class="cls-3" d="M137.35,32.09c4.48,10.52,3.23,23.49-7.51,35.67"/>
            <path class="cls-3" d="M136.41,7.11c1.61-.08,3.18-.81,4.29-1.98,1.11-1.17,1.74-2.78,1.73-4.39"/>
            <path class="cls-3" d="M18.82,27.45c5.96,2.95,13.3,2.93,19.25-.04,5.95-2.98,10.36-8.84,11.57-15.39,3.85.76,8.29.75,11.7-1.19,3.41-1.95,5.91-6.17,5.79-10.1"/>
            <path class="cls-3" d="M10.65,70.51c6.78,3.3,14.4,5.09,21.9,4.32s14.83-4.28,19.54-10.16"/>
            <path class="cls-3" d="M139.4,17.7c-2.99-5.17-9.17-9.88-14.87-10.99"/>
            <path class="cls-3" d="M47.4,39.81c3.73,0,7.32-1.35,9.51-4.15,1.15-1.47,1.85-3.35,2.27-5.58"/>
            <path class="cls-3" d="M85.14.28c2.1,4.25,1.86,9.56-.6,13.61"/>
            <path class="cls-3" d="M10.65,77.04c3.18,2.27,6.98,3.67,10.87,4.01"/>
            <path class="cls-3" d="M10.24,86.68c4.43,3.84,10.75,7.16,16.55,8.03,4.25.64,8.61.78,12.83-.05,4.22-.83,8.29-2.68,11.39-5.66"/>
          </g>
        </g>
      </g>
    </g>
    <g>
      <g>
        <polygon class="cls-13" points="150.27 233.85 151.93 244.08 157.88 240.47 154.27 246.43 164.5 248.08 154.27 249.74 157.88 255.7 151.93 252.09 150.27 262.32 148.61 252.09 142.65 255.7 146.27 249.74 136.03 248.08 146.27 246.43 142.65 240.47 148.61 244.08 150.27 233.85"/>
        <polygon class="cls-13" points="191.73 228.88 193.97 242.68 202.01 237.81 197.13 245.85 210.94 248.08 197.13 250.32 202.01 258.36 193.97 253.49 191.73 267.29 189.49 253.49 181.46 258.36 186.33 250.32 172.52 248.08 186.33 245.85 181.46 237.81 189.49 242.68 191.73 228.88"/>
        <polygon class="cls-13" points="82.81 239.54 83.81 245.68 87.38 243.51 85.21 247.09 91.35 248.08 85.21 249.08 87.38 252.65 83.81 250.49 82.81 256.63 81.82 250.49 78.24 252.65 80.41 249.08 74.27 248.08 80.41 247.09 78.24 243.51 81.82 245.68 82.81 239.54"/>
        <polygon class="cls-13" points="57.45 242.9 58.05 246.63 60.22 245.31 58.91 247.48 62.64 248.08 58.91 248.69 60.22 250.86 58.05 249.54 57.45 253.27 56.85 249.54 54.68 250.86 55.99 248.69 52.26 248.08 55.99 247.48 54.68 245.31 56.85 246.63 57.45 242.9"/>
        <path class="cls-13" d="M121.6,250.28c0-18.2,14.76-32.96,32.96-32.96,1.63,0,3.22.16,4.79.39-5.52-3.19-11.92-5.04-18.75-5.04-20.77,0-37.62,16.84-37.62,37.62s16.84,37.62,37.62,37.62c6.84,0,13.23-1.85,18.75-5.04-1.57.23-3.16.39-4.79.39-18.21,0-32.96-14.76-32.96-32.96Z"/>
      </g>
      <g>
        <polygon class="cls-13" points="623.23 233.85 621.57 244.08 615.62 240.47 619.23 246.43 609 248.08 619.23 249.74 615.62 255.7 621.57 252.09 623.23 262.32 624.89 252.09 630.85 255.7 627.24 249.74 637.47 248.08 627.24 246.43 630.85 240.47 624.89 244.08 623.23 233.85"/>
        <polygon class="cls-13" points="581.77 228.88 579.53 242.68 571.5 237.81 576.37 245.85 562.56 248.08 576.37 250.32 571.5 258.36 579.53 253.49 581.77 267.29 584.01 253.49 592.04 258.36 587.17 250.32 600.98 248.08 587.17 245.85 592.04 237.81 584.01 242.68 581.77 228.88"/>
        <polygon class="cls-13" points="693.39 239.54 692.4 245.68 688.82 243.51 690.99 247.09 684.85 248.08 690.99 249.08 688.82 252.65 692.4 250.49 693.39 256.63 694.39 250.49 697.96 252.65 695.79 249.08 701.93 248.08 695.79 247.09 697.96 243.51 694.39 245.68 693.39 239.54"/>
        <polygon class="cls-13" points="716.05 242.9 715.45 246.63 713.28 245.31 714.59 247.48 710.87 248.08 714.59 248.69 713.28 250.86 715.45 249.54 716.05 253.27 716.66 249.54 718.82 250.86 717.51 248.69 721.24 248.08 717.51 247.48 718.82 245.31 716.66 246.63 716.05 242.9"/>
        <path class="cls-13" d="M651.9,250.28c0-18.2-14.76-32.96-32.96-32.96-1.63,0-3.22.16-4.79.39,5.52-3.19,11.92-5.04,18.75-5.04,20.77,0,37.62,16.84,37.62,37.62s-16.84,37.62-37.62,37.62c-6.84,0-13.23-1.85-18.75-5.04,1.57.23,3.16.39,4.79.39,18.21,0,32.96-14.76,32.96-32.96Z"/>
      </g>
    </g>
    <g>
      <circle class="cls-4" cx="385.19" cy="250.28" r="152.92" transform="translate(-64.16 345.67) rotate(-45)"/>
      <circle class="cls-9" cx="385.19" cy="250.28" r="122.22" transform="translate(-64.16 345.67) rotate(-45)"/>
      <path class="cls-14" d="M385.19,155.07c-52.58,0-95.21,42.63-95.21,95.21s42.63,95.21,95.21,95.21,95.21-42.63,95.21-95.21-42.63-95.21-95.21-95.21ZM385.19,311.67c-33.9,0-61.38-27.48-61.38-61.38s27.48-61.38,61.38-61.38,61.38,27.48,61.38,61.38-27.48,61.38-61.38,61.38Z"/>
      <path class="cls-14" d="M375.9,250.28c0,5.13,4.16,9.28,9.28,9.28s9.28-4.16,9.28-9.28-4.16-9.28-9.28-9.28-9.28,4.16-9.28,9.28Z"/>
      <circle class="cls-11" cx="385.19" cy="250.28" r="22.76" transform="translate(-47.38 95.69) rotate(-13.35)"/>
      <g>
        <path class="cls-1" d="M367.92,372.5c0,9.53,7.73,17.26,17.26,17.26s17.26-7.73,17.26-17.26-7.73-17.26-17.26-17.26-17.26,7.73-17.26,17.26Z"/>
        <circle class="cls-2" cx="385.19" cy="128.07" r="17.26" transform="translate(22.26 309.88) rotate(-45)"/>
        <g>
          <g>
            <path class="cls-13" d="M290.05,163.87c0-8.35,6.77-15.13,15.13-15.13.75,0,1.48.07,2.2.18-2.54-1.46-5.47-2.31-8.61-2.31-9.53,0-17.26,7.73-17.26,17.26s7.73,17.26,17.26,17.26c3.14,0,6.07-.85,8.61-2.31-.72.11-1.45.18-2.2.18-8.35,0-15.13-6.77-15.13-15.13Z"/>
            <path class="cls-14" d="M316.03,163.87c0-6.4-3.49-11.97-8.66-14.95-.72-.11-1.45-.18-2.2-.18-8.35,0-15.13,6.77-15.13,15.13s6.77,15.13,15.13,15.13c.75,0,1.48-.07,2.2-.18,5.17-2.98,8.66-8.55,8.66-14.95Z"/>
          </g>
          <path class="cls-6" d="M307.37,148.92c-2.54-1.46-5.47-2.31-8.61-2.31-9.53,0-17.26,7.73-17.26,17.26s7.73,17.26,17.26,17.26c3.14,0,6.07-.85,8.61-2.31,5.17-2.98,8.66-8.55,8.66-14.95s-3.49-11.97-8.66-14.95Z"/>
        </g>
        <g>
          <g>
            <path class="cls-13" d="M480.32,163.87c0,8.35-6.77,15.13-15.13,15.13-.75,0-1.48-.07-2.2-.18,2.53,1.46,5.47,2.31,8.61,2.31,9.53,0,17.26-7.73,17.26-17.26s-7.73-17.26-17.26-17.26c-3.14,0-6.07.85-8.61,2.31.72-.11,1.45-.18,2.2-.18,8.35,0,15.13,6.77,15.13,15.13Z"/>
            <path class="cls-14" d="M454.34,163.87c0,6.4,3.49,11.97,8.66,14.95.72.11,1.45.18,2.2.18,8.35,0,15.13-6.77,15.13-15.13s-6.77-15.13-15.13-15.13c-.75,0-1.48.07-2.2.18-5.17,2.98-8.66,8.55-8.66,14.95Z"/>
          </g>
          <path class="cls-6" d="M463,178.81c2.53,1.46,5.47,2.31,8.61,2.31,9.53,0,17.26-7.73,17.26-17.26s-7.73-17.26-17.26-17.26c-3.14,0-6.07.85-8.61,2.31-5.17,2.98-8.66,8.55-8.66,14.95s3.49,11.97,8.66,14.95Z"/>
        </g>
        <g>
          <g>
            <path class="cls-14" d="M307.49,336.7c0,8.35-6.77,15.13-15.13,15.13-.75,0-1.48-.07-2.2-.18,2.53,1.46,5.47,2.31,8.61,2.31,9.53,0,17.26-7.73,17.26-17.26s-7.73-17.26-17.26-17.26c-3.14,0-6.07.85-8.61,2.31.72-.11,1.45-.18,2.2-.18,8.35,0,15.13,6.77,15.13,15.13Z"/>
            <path class="cls-13" d="M281.51,336.7c0,6.4,3.49,11.97,8.66,14.95.72.11,1.45.18,2.2.18,8.35,0,15.13-6.77,15.13-15.13s-6.77-15.13-15.13-15.13c-.75,0-1.48.07-2.2.18-5.17,2.98-8.66,8.55-8.66,14.95Z"/>
          </g>
          <path class="cls-6" d="M307.37,321.75c-2.54-1.46-5.47-2.31-8.61-2.31-9.53,0-17.26,7.73-17.26,17.26s7.73,17.26,17.26,17.26c3.14,0,6.07-.85,8.61-2.31,5.17-2.98,8.66-8.55,8.66-14.95s-3.49-11.97-8.66-14.95Z"/>
        </g>
        <g>
          <g>
            <path class="cls-14" d="M462.88,336.7c0-8.35,6.77-15.13,15.13-15.13.75,0,1.48.07,2.2.18-2.53-1.46-5.47-2.31-8.61-2.31-9.53,0-17.26,7.73-17.26,17.26s7.73,17.26,17.26,17.26c3.14,0,6.07-.85,8.61-2.31-.72.11-1.45.18-2.2.18-8.35,0-15.13-6.77-15.13-15.13Z"/>
            <path class="cls-13" d="M488.87,336.7c0-6.4-3.49-11.97-8.66-14.95-.72-.11-1.45-.18-2.2-.18-8.35,0-15.13,6.77-15.13,15.13s6.77,15.13,15.13,15.13c.75,0,1.48-.07,2.2-.18,5.17-2.98,8.66-8.55,8.66-14.95Z"/>
          </g>
          <path class="cls-6" d="M463,351.65c2.53,1.46,5.47,2.31,8.61,2.31,9.53,0,17.26-7.73,17.26-17.26s-7.73-17.26-17.26-17.26c-3.14,0-6.07.85-8.61,2.31-5.17,2.98-8.66,8.55-8.66,14.95s3.49,11.97,8.66,14.95Z"/>
        </g>
        <g>
          <g>
            <path class="cls-13" d="M245.71,250.28c0,9.53,7.73,17.26,17.26,17.26v-34.52c-9.53,0-17.26,7.73-17.26,17.26Z"/>
            <path class="cls-14" d="M262.97,233.02v34.52c9.53,0,17.26-7.73,17.26-17.26s-7.73-17.26-17.26-17.26Z"/>
          </g>
          <path class="cls-6" d="M271.58,235.34c-2.53-1.46-5.47-2.31-8.61-2.31-9.53,0-17.26,7.73-17.26,17.26s7.73,17.26,17.26,17.26c3.14,0,6.07-.85,8.61-2.31,5.17-2.98,8.66-8.55,8.66-14.95s-3.49-11.97-8.66-14.95Z"/>
        </g>
        <g>
          <g>
            <path class="cls-13" d="M524.66,250.28c0-9.53-7.73-17.26-17.26-17.26v34.52c9.53,0,17.26-7.73,17.26-17.26Z"/>
            <path class="cls-14" d="M507.4,267.55v-34.52c-9.53,0-17.26,7.73-17.26,17.26s7.73,17.26,17.26,17.26Z"/>
          </g>
          <path class="cls-6" d="M516.01,235.34c-2.54-1.46-5.47-2.31-8.61-2.31-9.53,0-17.26,7.73-17.26,17.26s7.73,17.26,17.26,17.26c3.14,0,6.07-.85,8.61-2.31,5.17-2.98,8.66-8.55,8.66-14.95s-3.49-11.97-8.66-14.95Z"/>
        </g>
      </g>
      <polygon class="cls-5" points="316.96 256.84 298.53 256.84 307.74 241.24 316.96 256.84"/>
      <polygon class="cls-5" points="453.65 242.49 472.08 242.49 462.87 258.08 453.65 242.49"/>
      <g>
        <polygon class="cls-5" points="394.4 179.75 375.97 179.75 385.19 164.15 394.4 179.75"/>
        <line class="cls-5" x1="374.13" y1="170.64" x2="396.24" y2="170.64"/>
      </g>
      <g>
        <polygon class="cls-5" points="376.04 320.82 394.47 320.82 385.25 336.42 376.04 320.82"/>
        <line class="cls-5" x1="374.13" y1="328.62" x2="396.24" y2="328.62"/>
      </g>
      <g>
        <line class="cls-9" x1="385.19" y1="188.9" x2="385.19" y2="311.67"/>
        <line class="cls-9" x1="446.57" y1="250.28" x2="323.8" y2="250.28"/>
        <g>
          <line class="cls-9" x1="347.58" y1="212.68" x2="422.8" y2="287.89"/>
          <line class="cls-9" x1="422.8" y1="212.68" x2="347.58" y2="287.89"/>
        </g>
        <line class="cls-9" x1="343.31" y1="216.93" x2="351.83" y2="208.4"/>
        <line class="cls-9" x1="418.26" y1="291.88" x2="426.79" y2="283.36"/>
        <line class="cls-9" x1="418.26" y1="208.4" x2="426.79" y2="216.93"/>
        <line class="cls-9" x1="343.31" y1="283.36" x2="351.83" y2="291.88"/>
      </g>
      <g>
        <path class="cls-6" d="M344.69,250.28c0-3.33-2.7-6.03-6.03-6.03s-6.03,2.7-6.03,6.03,2.7,6.03,6.03,6.03,6.03-2.7,6.03-6.03Z"/>
        <g>
          <path class="cls-6" d="M391.29,208.05c0-3.33-2.7-6.03-6.03-6.03s-6.03,2.7-6.03,6.03,2.7,6.03,6.03,6.03,6.03-2.7,6.03-6.03Z"/>
          <path class="cls-6" d="M379.22,195.17c0,3.33,2.7,6.03,6.03,6.03s6.03-2.7,6.03-6.03"/>
          <line class="cls-6" x1="379.22" y1="217.51" x2="391.29" y2="217.51"/>
        </g>
        <g>
          <polygon class="cls-6" points="429.27 256.32 429.27 244.25 439.48 250.28 429.27 256.32"/>
          <line class="cls-6" x1="425.78" y1="243.37" x2="425.78" y2="257.2"/>
        </g>
        <g>
          <path class="cls-6" d="M397.96,294.85c-1.81,0-1.81,1.6-3.62,1.6s-1.81-1.6-3.63-1.6-1.81,1.6-3.63,1.6-1.81-1.6-3.62-1.6-1.82,1.6-3.63,1.6-1.82-1.6-3.64-1.6-1.82,1.6-3.64,1.6"/>
          <path class="cls-6" d="M397.96,299.92c-1.81,0-1.81,1.6-3.62,1.6s-1.81-1.6-3.63-1.6-1.81,1.6-3.63,1.6-1.81-1.6-3.62-1.6-1.82,1.6-3.63,1.6-1.82-1.6-3.64-1.6-1.82,1.6-3.64,1.6"/>
        </g>
      </g>
      <g>
        <path class="cls-5" d="M335.38,310.42l5.96,3.44c-1.72,2.97-.7,6.77,2.27,8.49,2.97,1.72,6.77.7,8.49-2.27l5.96,3.44"/>
        <line class="cls-5" x1="359.97" y1="320.2" x2="337.29" y2="307.1"/>
      </g>
      <g>
        <polyline class="cls-5" points="315.09 279.59 326.34 284.23 324.73 296.29"/>
        <line class="cls-5" x1="326.34" y1="284.23" x2="308.6" y2="294.47"/>
        <line class="cls-5" x1="316.97" y1="296.02" x2="311.45" y2="286.46"/>
      </g>
      <path class="cls-5" d="M437.23,185.27c1.37-2.37.56-5.41-1.82-6.78-1.59-.92-3.47-.86-4.96,0,0,0-4.4,2.08-11.14,12.81,5.93-11.2,5.53-16.05,5.53-16.05,0-1.71-.89-3.38-2.48-4.29-2.37-1.37-5.41-.56-6.78,1.82"/>
      <g>
        <path class="cls-5" d="M456.52,195.15c-1.21,4.17-.8,8.8,1.54,12.85,2.34,4.06,6.15,6.73,10.36,7.76"/>
        <path class="cls-5" d="M449.04,226.95c1.21-4.17.8-8.8-1.54-12.85-2.34-4.06-6.15-6.73-10.36-7.76"/>
        <line class="cls-5" x1="455.94" y1="202.5" x2="443.85" y2="209.48"/>
        <line class="cls-5" x1="461.77" y1="212.59" x2="449.68" y2="219.57"/>
      </g>
      <g>
        <g>
          <path class="cls-5" d="M348.29,167.56c-1.26,4.15-.91,8.79,1.39,12.87,2.29,4.08,6.07,6.8,10.27,7.88"/>
          <path class="cls-5" d="M343.95,197.3c1.26-4.15.91-8.79-1.39-12.87-2.29-4.08-6.07-6.8-10.27-7.88"/>
        </g>
        <line class="cls-5" x1="354.39" y1="177.79" x2="337.85" y2="187.08"/>
      </g>
      <g>
        <g>
          <path class="cls-5" d="M448.44,286.44c1.84,1.06,4.2.43,5.26-1.41,1.06-1.84.43-4.2-1.41-5.26-1.84-1.06-4.2-.43-5.26,1.41s-.43,4.2,1.41,5.26Z"/>
          <path class="cls-5" d="M452.29,279.77s8.29,3.4,9.45,11.09"/>
        </g>
        <g>
          <path class="cls-5" d="M456.61,292.04c-1.84-1.06-4.2-.43-5.26,1.41-1.06,1.84-.43,4.2,1.41,5.26,1.84,1.06,4.2.43,5.26-1.41,1.06-1.84.43-4.2-1.41-5.26Z"/>
          <path class="cls-5" d="M452.76,298.71s-8.29-3.4-9.45-11.09"/>
        </g>
      </g>
      <g>
        <path class="cls-5" d="M321.61,219.7l-11.35-6.56c-2.18-1.26-2.99-3.95-1.8-6,1.19-2.06,3.92-2.7,6.1-1.44,2.48,1.43,4.96,3.05,7.45,4.47,2.1,1.2,4.45,2.44,6.8,1.91,1.59-.36,2.95-1.56,3.51-3.09.37-1.02.37-2.22-.24-3.11-.61-.89-1.92-1.32-2.84-.75-.43.27-.72.7-.97,1.14-1.35,2.43-1.45,5.33-1.96,8.07-.59,3.19-1.77,6.26-3.46,9.03"/>
        <path class="cls-5" d="M310.26,213.15s-3.7-1.51-5.77.87"/>
      </g>
      <g>
        <path class="cls-5" d="M428.85,304.06l7.87,11.44c1.51,2.2,1.27,4.99-.53,6.23-1.81,1.24-4.5.47-6.01-1.73-1.72-2.5-6.03-9.02-7.76-11.51"/>
        <path class="cls-5" d="M422.31,308.57l7.87,11.44c1.51,2.2,1.27,4.99-.53,6.23-1.81,1.24-4.5.47-6.01-1.73-1.72-2.5-6.94-10.34-8.66-12.83"/>
        <path class="cls-5" d="M436.72,315.5s2.79,3.17,5.51,2.07"/>
        <path class="cls-5" d="M422.65,323.07s2.1,3.64.88,5.26c-.37.48-1.21.64-1.77.41-.56-.24-.99-.71-1.36-1.19-2.29-2.97-3.16-6.87-2.95-10.61.21-3.74,1.41-7.37,2.91-10.8"/>
      </g>
    </g>
    <g>
      <g class="cls-35">
        <g>
          <path class="cls-13" d="M679.44,479.21s26.44,8.68,51.72-14.41c0,0-30.8-15.51-51.72,14.41Z"/>
          <path class="cls-13" d="M663.85,508.02s26.44,8.68,51.72-14.41c0,0-30.8-15.51-51.72,14.41Z"/>
          <path class="cls-13" d="M702.86,447.38c-1.03-.51,25.98,11.62,53.24-6.97,0,0-28.31-19.7-53.24,6.97Z"/>
          <path class="cls-13" d="M705.63,444.44s19.21-20.14,9.22-52.9c0,0-27.24,21.15-9.22,52.9Z"/>
          <path class="cls-13" d="M683.4,473.27s13.14-24.54-5.22-53.44c0,0-20.61,27.65,5.22,53.44Z"/>
          <path class="cls-13" d="M665.7,504.14s13.14-24.54-5.22-53.44c0,0-20.61,27.65,5.22,53.44Z"/>
          <path class="cls-21" d="M679.44,479.67s31.03-13.82,51.72-14.41"/>
          <path class="cls-21" d="M714.85,391.55s-9.04,22.37-9.22,52.9"/>
          <path class="cls-21" d="M665.7,504.14s-7.02-28.5-5.22-53.44"/>
          <path class="cls-21" d="M678.17,419.83s-2.8,26.94,5.22,53.44"/>
          <path class="cls-21" d="M663.85,508.02s23.29-10.95,51.72-14.41"/>
          <path class="cls-21" d="M702.86,447.38s31.36-9.15,53.24-6.97"/>
          <path class="cls-23" d="M657.55,522.52s21-58.54,76.67-107.42"/>
          <path class="cls-13" d="M726.41,422.24s27.82-.92,43.64-31.28c0,0-34.25-4-43.64,31.28Z"/>
          <path class="cls-21" d="M726.41,422.24s23.58-23.44,43.64-31.28"/>
        </g>
      </g>
      <g class="cls-38">
        <g>
          <path class="cls-13" d="M90.93,479.21s-26.44,8.68-51.72-14.41c0,0,30.8-15.51,51.72,14.41Z"/>
          <path class="cls-13" d="M106.53,508.02s-26.44,8.68-51.72-14.41c0,0,30.8-15.51,51.72,14.41Z"/>
          <path class="cls-13" d="M67.51,447.38c1.03-.51-25.98,11.62-53.24-6.97,0,0,28.31-19.7,53.24,6.97Z"/>
          <path class="cls-13" d="M64.75,444.44s-19.21-20.14-9.22-52.9c0,0,27.24,21.15,9.22,52.9Z"/>
          <path class="cls-13" d="M86.97,473.27s-13.14-24.54,5.22-53.44c0,0,20.61,27.65-5.22,53.44Z"/>
          <path class="cls-13" d="M104.67,504.14s-13.14-24.54,5.22-53.44c0,0,20.61,27.65-5.22,53.44Z"/>
          <path class="cls-21" d="M90.93,479.67s-31.03-13.82-51.72-14.41"/>
          <path class="cls-21" d="M55.52,391.55s9.04,22.37,9.22,52.9"/>
          <path class="cls-21" d="M104.67,504.14s7.02-28.5,5.22-53.44"/>
          <path class="cls-21" d="M92.2,419.83s2.8,26.94-5.22,53.44"/>
          <path class="cls-21" d="M106.53,508.02s-23.29-10.95-51.72-14.41"/>
          <path class="cls-21" d="M67.51,447.38s-31.36-9.15-53.24-6.97"/>
          <path class="cls-23" d="M112.82,522.52s-21-58.54-76.67-107.42"/>
          <path class="cls-13" d="M43.96,422.24s-27.82-.92-43.64-31.28c0,0,34.25-4,43.64,31.28Z"/>
          <path class="cls-21" d="M43.96,422.24s-23.58-23.44-43.64-31.28"/>
        </g>
      </g>
    </g>
    <g>
      <g>
        <g>
          <line class="cls-25" x1="542.9" y1="55.79" x2="528.98" y2="53.52"/>
          <line class="cls-25" x1="517.13" y1="60.38" x2="528.98" y2="53.52"/>
          <line class="cls-25" x1="504.27" y1="68.85" x2="516.69" y2="60.34"/>
          <line class="cls-25" x1="533.07" y1="79.61" x2="517.13" y2="60.38"/>
          <line class="cls-25" x1="606.47" y1="101.14" x2="573.26" y2="98.07"/>
          <line class="cls-25" x1="542.29" y1="90.59" x2="573.26" y2="98.07"/>
          <line class="cls-25" x1="612.59" y1="129.33" x2="606.87" y2="101.18"/>
          <line class="cls-25" x1="603.29" y1="139.84" x2="612.01" y2="130.34"/>
          <line class="cls-25" x1="582.02" y1="132.63" x2="603.22" y2="140.61"/>
          <line class="cls-25" x1="542.29" y1="90.59" x2="533.07" y2="79.61"/>
        </g>
        <g>
          <path class="cls-10" d="M516.94,57.63c-1.5-.14-2.82.96-2.96,2.46-.14,1.5.96,2.82,2.46,2.96,1.5.14,2.82-.96,2.96-2.46.14-1.5-.96-2.82-2.46-2.96Z"/>
          <path class="cls-10" d="M603.47,137.9c-1.5-.14-2.82.96-2.96,2.46-.14,1.5.96,2.82,2.46,2.96,1.5.14,2.82-.96,2.96-2.46.14-1.5-.96-2.82-2.46-2.96Z"/>
          <path class="cls-10" d="M573.51,95.36c-1.5-.14-2.82.96-2.96,2.46-.14,1.5.96,2.82,2.46,2.96,1.5.14,2.82-.96,2.96-2.46.14-1.5-.96-2.82-2.46-2.96Z"/>
          <path class="cls-37" d="M504.45,66.99c-1.03-.1-1.94.66-2.03,1.69-.1,1.03.66,1.94,1.69,2.03,1.03.1,1.94-.66,2.03-1.69.1-1.03-.66-1.94-1.69-2.03Z"/>
          <path class="cls-37" d="M529.15,51.66c-1.03-.1-1.94.66-2.03,1.69-.09,1.03.66,1.94,1.69,2.03,1.03.1,1.94-.66,2.03-1.69.1-1.03-.66-1.94-1.69-2.03Z"/>
          <path class="cls-37" d="M543.07,53.93c-1.03-.1-1.94.66-2.03,1.69-.1,1.03.66,1.94,1.69,2.03,1.03.1,1.94-.66,2.03-1.69.1-1.03-.66-1.94-1.69-2.03Z"/>
          <path class="cls-37" d="M542.47,88.73c-1.03-.09-1.94.66-2.03,1.69-.1,1.03.66,1.94,1.69,2.03,1.03.09,1.94-.66,2.03-1.69.1-1.03-.66-1.94-1.69-2.03Z"/>
          <path class="cls-37" d="M582.19,130.77c-1.03-.1-1.94.66-2.03,1.69-.1,1.03.66,1.94,1.69,2.03,1.03.1,1.94-.66,2.03-1.69.1-1.03-.66-1.94-1.69-2.03Z"/>
          <path class="cls-37" d="M612.77,127.47c-1.03-.1-1.94.66-2.03,1.69-.1,1.03.66,1.94,1.69,2.03,1.03.1,1.94-.66,2.03-1.69.09-1.03-.66-1.94-1.69-2.03Z"/>
          <path class="cls-37" d="M607.04,99.32c-1.03-.1-1.94.66-2.03,1.69s.66,1.94,1.69,2.03c1.03.1,1.94-.66,2.03-1.69.1-1.03-.66-1.94-1.69-2.03Z"/>
        </g>
      </g>
      <g>
        <g>
          <g>
            <line class="cls-33" x1="533.59" y1="432.78" x2="533.63" y2="432.73"/>
            <line class="cls-20" x1="536.84" y1="428.32" x2="551.7" y2="407.91"/>
            <line class="cls-33" x1="553.31" y1="405.7" x2="553.35" y2="405.65"/>
          </g>
          <g>
            <line class="cls-33" x1="556.46" y1="426.01" x2="556.52" y2="426.03"/>
            <line class="cls-15" x1="561.61" y1="427.14" x2="574.72" y2="429.99"/>
            <line class="cls-33" x1="577.27" y1="430.55" x2="577.33" y2="430.56"/>
          </g>
          <g>
            <line class="cls-33" x1="533.59" y1="432.78" x2="533.65" y2="432.76"/>
            <line class="cls-22" x1="539.24" y1="431.11" x2="553.61" y2="426.86"/>
            <line class="cls-33" x1="556.4" y1="426.03" x2="556.46" y2="426.01"/>
          </g>
          <g>
            <line class="cls-33" x1="553.35" y1="405.65" x2="553.41" y2="405.63"/>
            <line class="cls-24" x1="558.08" y1="403.99" x2="570.1" y2="399.76"/>
            <line class="cls-33" x1="572.43" y1="398.93" x2="572.5" y2="398.91"/>
          </g>
          <g>
            <line class="cls-33" x1="577.33" y1="430.56" x2="577.39" y2="430.54"/>
            <line class="cls-17" x1="582.21" y1="428.4" x2="594.63" y2="422.9"/>
            <line class="cls-33" x1="597.04" y1="421.83" x2="597.1" y2="421.8"/>
          </g>
          <g>
            <line class="cls-33" x1="572.5" y1="398.91" x2="572.53" y2="398.86"/>
            <line class="cls-32" x1="575.73" y1="394.54" x2="610.17" y2="347.95"/>
            <line class="cls-33" x1="611.77" y1="345.79" x2="611.81" y2="345.74"/>
          </g>
          <g>
            <line class="cls-33" x1="621.16" y1="406.94" x2="621.15" y2="406.88"/>
            <line class="cls-28" x1="620.39" y1="401.9" x2="612.2" y2="348.29"/>
            <line class="cls-33" x1="611.82" y1="345.8" x2="611.81" y2="345.74"/>
          </g>
          <g>
            <line class="cls-33" x1="617.13" y1="418.74" x2="617.16" y2="418.68"/>
            <line class="cls-19" x1="619.12" y1="412.91" x2="620.15" y2="409.89"/>
            <line class="cls-33" x1="621.14" y1="407" x2="621.16" y2="406.94"/>
          </g>
          <g>
            <line class="cls-33" x1="597.1" y1="421.8" x2="597.16" y2="421.79"/>
            <line class="cls-30" x1="602.05" y1="421.04" x2="614.63" y2="419.12"/>
            <line class="cls-33" x1="617.07" y1="418.75" x2="617.13" y2="418.74"/>
          </g>
        </g>
        <g>
          <path class="cls-7" d="M536.44,432.35c-.24-1.57-1.71-2.65-3.28-2.41-1.57.24-2.65,1.71-2.41,3.28.24,1.57,1.71,2.65,3.28,2.41,1.57-.24,2.65-1.71,2.41-3.28Z"/>
          <path class="cls-7" d="M614.65,345.3c-.24-1.57-1.71-2.65-3.28-2.41-1.57.24-2.65,1.71-2.41,3.28.24,1.57,1.71,2.65,3.28,2.41,1.57-.24,2.65-1.71,2.41-3.28Z"/>
          <path class="cls-7" d="M619.98,418.3c-.24-1.57-1.71-2.65-3.28-2.41-1.57.24-2.65,1.71-2.41,3.28.24,1.57,1.71,2.65,3.28,2.41,1.57-.24,2.65-1.71,2.41-3.28Z"/>
          <path class="cls-37" d="M599.05,421.5c-.16-1.08-1.17-1.82-2.25-1.65-1.08.16-1.82,1.17-1.65,2.25.16,1.08,1.17,1.82,2.25,1.65,1.08-.16,1.82-1.17,1.65-2.25Z"/>
          <path class="cls-37" d="M574.45,398.62c-.16-1.08-1.17-1.82-2.25-1.65-1.08.16-1.82,1.17-1.65,2.25.16,1.08,1.17,1.82,2.25,1.65,1.08-.16,1.82-1.17,1.65-2.25Z"/>
          <path class="cls-37" d="M579.28,430.27c-.16-1.08-1.17-1.82-2.25-1.65-1.08.16-1.82,1.17-1.65,2.25.16,1.08,1.17,1.82,2.25,1.65,1.08-.16,1.82-1.17,1.65-2.25Z"/>
          <path class="cls-37" d="M623.11,406.64c-.16-1.08-1.17-1.82-2.25-1.65-1.08.16-1.82,1.17-1.65,2.25.16,1.08,1.17,1.82,2.25,1.65,1.08-.16,1.82-1.17,1.65-2.25Z"/>
          <path class="cls-37" d="M555.3,405.35c-.16-1.08-1.17-1.82-2.25-1.65-1.08.16-1.82,1.17-1.65,2.25.16,1.08,1.17,1.82,2.25,1.65s1.82-1.17,1.65-2.25Z"/>
          <path class="cls-37" d="M558.41,425.71c-.16-1.08-1.17-1.82-2.25-1.65-1.08.16-1.82,1.17-1.65,2.25.16,1.08,1.17,1.82,2.25,1.65,1.08-.16,1.82-1.17,1.65-2.25Z"/>
        </g>
      </g>
      <g>
        <g>
          <g>
            <line class="cls-33" x1="293.42" y1="59.93" x2="293.37" y2="59.98"/>
            <line class="cls-31" x1="289.6" y1="63.93" x2="272.17" y2="82.19"/>
            <line class="cls-33" x1="270.28" y1="84.16" x2="270.24" y2="84.21"/>
          </g>
          <g>
            <line class="cls-33" x1="269.85" y1="63.61" x2="269.79" y2="63.59"/>
            <line class="cls-16" x1="264.89" y1="61.81" x2="252.28" y2="57.24"/>
            <line class="cls-33" x1="249.83" y1="56.36" x2="249.77" y2="56.33"/>
          </g>
          <g>
            <line class="cls-33" x1="293.42" y1="59.93" x2="293.35" y2="59.94"/>
            <line class="cls-26" x1="287.6" y1="60.84" x2="272.79" y2="63.15"/>
            <line class="cls-33" x1="269.92" y1="63.6" x2="269.85" y2="63.61"/>
          </g>
          <g>
            <line class="cls-33" x1="270.24" y1="84.21" x2="270.17" y2="84.22"/>
            <line class="cls-24" x1="265.33" y1="85.23" x2="252.85" y2="87.83"/>
            <line class="cls-33" x1="250.43" y1="88.33" x2="250.37" y2="88.35"/>
          </g>
          <g>
            <line class="cls-33" x1="249.77" y1="56.33" x2="249.71" y2="56.35"/>
            <line class="cls-34" x1="244.65" y1="57.83" x2="231.61" y2="61.64"/>
            <line class="cls-33" x1="229.08" y1="62.38" x2="229.02" y2="62.4"/>
          </g>
          <g>
            <line class="cls-33" x1="250.37" y1="88.35" x2="250.32" y2="88.39"/>
            <line class="cls-32" x1="246.58" y1="92.25" x2="206.27" y2="133.86"/>
            <line class="cls-33" x1="204.4" y1="135.79" x2="204.35" y2="135.84"/>
          </g>
          <g>
            <line class="cls-33" x1="203.2" y1="73.93" x2="203.2" y2="74"/>
            <line class="cls-28" x1="203.29" y1="79.03" x2="204.3" y2="133.26"/>
            <line class="cls-33" x1="204.35" y1="135.77" x2="204.35" y2="135.84"/>
          </g>
          <g>
            <line class="cls-33" x1="208.75" y1="62.77" x2="208.72" y2="62.83"/>
            <line class="cls-19" x1="206.01" y1="68.29" x2="204.58" y2="71.15"/>
            <line class="cls-33" x1="203.23" y1="73.88" x2="203.2" y2="73.93"/>
          </g>
          <g>
            <line class="cls-33" x1="229.02" y1="62.4" x2="228.95" y2="62.4"/>
            <line class="cls-27" x1="224.01" y1="62.49" x2="211.29" y2="62.73"/>
            <line class="cls-33" x1="208.82" y1="62.77" x2="208.75" y2="62.77"/>
          </g>
        </g>
        <g>
          <path class="cls-7" d="M290.54,59.99c.03,1.59,1.34,2.85,2.93,2.82,1.59-.03,2.85-1.34,2.82-2.93-.03-1.59-1.34-2.85-2.93-2.82-1.59.03-2.85,1.34-2.82,2.93Z"/>
          <path class="cls-7" d="M201.47,135.89c.03,1.59,1.34,2.85,2.93,2.82,1.59-.03,2.85-1.34,2.82-2.93-.03-1.59-1.34-2.85-2.93-2.82s-2.85,1.34-2.82,2.93Z"/>
          <path class="cls-7" d="M205.87,62.83c.03,1.59,1.34,2.85,2.93,2.83,1.59-.03,2.85-1.34,2.82-2.93-.03-1.59-1.34-2.85-2.93-2.83s-2.85,1.34-2.82,2.93Z"/>
          <path class="cls-37" d="M227.04,62.43c.02,1.09.92,1.96,2.01,1.94,1.09-.02,1.96-.92,1.94-2.01-.02-1.09-.92-1.96-2.01-1.94-1.09.02-1.96.92-1.94,2.01Z"/>
          <path class="cls-37" d="M248.39,88.38c.02,1.09.92,1.96,2.01,1.94,1.09-.02,1.96-.92,1.94-2.01-.02-1.09-.92-1.96-2.01-1.94-1.09.02-1.96.92-1.94,2.01Z"/>
          <path class="cls-37" d="M247.8,56.37c.02,1.09.92,1.96,2.01,1.94,1.09-.02,1.96-.92,1.94-2.01-.02-1.09-.92-1.96-2.01-1.94-1.09.02-1.96.92-1.94,2.01Z"/>
          <path class="cls-37" d="M201.23,73.97c.02,1.09.92,1.96,2.01,1.94,1.09-.02,1.96-.92,1.94-2.01-.02-1.09-.92-1.96-2.01-1.94-1.09.02-1.96.92-1.94,2.01Z"/>
          <path class="cls-37" d="M268.26,84.24c.02,1.09.92,1.96,2.01,1.94,1.09-.02,1.96-.92,1.94-2.01-.02-1.09-.92-1.96-2.01-1.94-1.09.02-1.96.92-1.94,2.01Z"/>
          <path class="cls-37" d="M267.88,63.65c.02,1.09.92,1.96,2.01,1.94,1.09-.02,1.96-.92,1.94-2.01-.02-1.09-.92-1.96-2.01-1.94s-1.96.92-1.94,2.01Z"/>
        </g>
      </g>
      <g>
        <g>
          <line class="cls-29" x1="275.63" y1="451.34" x2="222.4" y2="410.33"/>
          <line class="cls-29" x1="218.23" y1="365.12" x2="222.16" y2="408.51"/>
          <line class="cls-29" x1="221.48" y1="408.96" x2="162.14" y2="411.49"/>
        </g>
        <g>
          <path class="cls-12" d="M160.13,412.83c.74,1.11,2.24,1.41,3.35.67,1.11-.74,1.41-2.24.67-3.35-.74-1.11-2.24-1.41-3.35-.67-1.11.74-1.41,2.24-.67,3.35Z"/>
          <path class="cls-12" d="M273.62,452.68c.74,1.11,2.24,1.41,3.35.67,1.11-.74,1.41-2.24.67-3.35-.74-1.11-2.24-1.41-3.35-.67-1.11.74-1.41,2.24-.67,3.35Z"/>
          <path class="cls-37" d="M219.84,410.05c.6.91,1.83,1.15,2.73.55.91-.6,1.15-1.83.55-2.74-.6-.91-1.83-1.15-2.73-.55-.91.6-1.15,1.83-.55,2.73Z"/>
          <path class="cls-37" d="M237.49,424.14c.56.84,1.69,1.07,2.53.51.84-.56,1.07-1.69.51-2.53-.56-.84-1.69-1.07-2.53-.51-.84.56-1.07,1.69-.51,2.53Z"/>
          <path class="cls-12" d="M216.22,366.46c.74,1.11,2.24,1.41,3.35.67,1.11-.74,1.41-2.24.67-3.35-.74-1.11-2.24-1.41-3.35-.67-1.11.74-1.41,2.24-.67,3.35Z"/>
        </g>
      </g>
    </g>
    <g>
      <path class="cls-37" d="M346.12,32.09c0,.99-.8,1.79-1.79,1.79s-1.79-.8-1.79-1.79.8-1.79,1.79-1.79,1.79.8,1.79,1.79Z"/>
      <circle class="cls-37" cx="721.24" cy="339.09" r="1.79"/>
      <path class="cls-37" d="M322.51,463.25c0,.99-.8,1.79-1.79,1.79s-1.79-.8-1.79-1.79.8-1.79,1.79-1.79,1.79.8,1.79,1.79Z"/>
      <path class="cls-37" d="M64.42,306.13c0,.99-.8,1.79-1.79,1.79s-1.79-.8-1.79-1.79.8-1.79,1.79-1.79,1.79.8,1.79,1.79Z"/>
      <path class="cls-37" d="M455.66,61.64c0,1.6-1.3,2.9-2.9,2.9s-2.9-1.3-2.9-2.9,1.3-2.9,2.9-2.9,2.9,1.3,2.9,2.9Z"/>
      <path class="cls-37" d="M455.66,446.23c0,1.6-1.3,2.9-2.9,2.9s-2.9-1.3-2.9-2.9,1.3-2.9,2.9-2.9,2.9,1.3,2.9,2.9Z"/>
      <path class="cls-37" d="M650.95,111.72c0,1.6-1.3,2.9-2.9,2.9s-2.9-1.3-2.9-2.9,1.3-2.9,2.9-2.9,2.9,1.3,2.9,2.9Z"/>
      <path class="cls-37" d="M156.65,357.77c0,1.6-1.3,2.9-2.9,2.9s-2.9-1.3-2.9-2.9,1.3-2.9,2.9-2.9,2.9,1.3,2.9,2.9Z"/>
      <path class="cls-37" d="M89.46,177.18c0,1.6-1.3,2.9-2.9,2.9s-2.9-1.3-2.9-2.9,1.3-2.9,2.9-2.9,2.9,1.3,2.9,2.9Z"/>
    </g>
    <g>
      <polygon class="cls-13" points="187.76 458.99 189.39 461.55 192.42 461.66 190.49 464 191.32 466.92 188.5 465.81 185.98 467.5 186.17 464.47 183.78 462.6 186.72 461.84 187.76 458.99"/>
      <polygon class="cls-13" points="398.31 42.15 399.59 46.55 403.94 47.99 400.15 50.56 400.12 55.14 396.5 52.34 392.14 53.72 393.69 49.41 391.02 45.69 395.6 45.84 398.31 42.15"/>
      <polygon class="cls-13" points="96.97 345.73 95.39 349.81 97.86 353.42 93.5 353.19 90.82 356.65 89.7 352.43 85.58 350.96 89.25 348.58 89.37 344.2 92.77 346.96 96.97 345.73"/>
      <polygon class="cls-13" points="138.93 123.97 143.68 121.39 144.25 116.01 148.18 119.73 153.47 118.62 151.14 123.5 153.84 128.18 148.47 127.47 144.85 131.49 143.87 126.17 138.93 123.97"/>
      <polygon class="cls-13" points="664.65 164.58 668.39 160.68 667.31 155.38 672.18 157.74 676.88 155.07 676.14 160.43 680.13 164.08 674.81 165.03 672.57 169.96 670.02 165.19 664.65 164.58"/>
      <polygon class="cls-13" points="669.04 337.21 674.16 335.48 675.64 330.28 678.87 334.62 684.28 334.42 681.15 338.83 683.01 343.91 677.85 342.3 673.59 345.63 673.53 340.23 669.04 337.21"/>
      <polygon class="cls-13" points="386.31 452.53 387.27 457.86 392.2 460.08 387.43 462.64 386.84 468.02 382.93 464.28 377.63 465.37 379.99 460.5 377.31 455.8 382.67 456.53 386.31 452.53"/>
      <polygon class="cls-13" points="593.02 468.48 593.32 472.24 596.58 474.12 593.1 475.57 592.31 479.25 589.87 476.39 586.12 476.78 588.09 473.57 586.56 470.12 590.22 471 593.02 468.48"/>
    </g>
  </g>
</svg>