<?xml version="1.0" encoding="UTF-8"?>
<svg id="Calque_2" data-name="Calque 2" xmlns="http://www.w3.org/2000/svg" viewBox="0 0 488.54 324.03">
  <defs>
    <style>
      .cls-1 {
        fill: #222221;
        stroke-width: 0px;
      }
    </style>
  </defs>
  <g id="PRINT_2" data-name="PRINT 2">
    <g>
      <path class="cls-1" d="M488.54,297.23c-6.39-1.46-12.69-2.78-19.07-4.24-1.81-7.4-3.97-15.78-5.77-23.18-1.05,7.57-2.48,15.08-4.26,22.51-6.03,1.66-11.78,3.24-17.72,5.18-.46.15.65.3,1.11.43,5.45,1.57,10.99,2.83,16.59,3.79,1.7,7.52,2.9,14.95,5.16,22.32,1.6-7.47,3.64-14.85,6.09-22.08l17.88-4.72Z"/>
      <path class="cls-1" d="M46.94,27.42c-6.39-1.46-12.69-2.78-19.07-4.24-1.81-7.4-3.97-15.78-5.77-23.18-1.05,7.57-2.48,15.08-4.26,22.51-6.03,1.66-11.78,3.24-17.72,5.18-.46.15.65.3,1.11.43,5.45,1.57,10.99,2.83,16.59,3.79,1.7,7.52,2.9,14.95,5.16,22.32,1.6-7.47,3.64-14.85,6.09-22.08l17.88-4.72Z"/>
    </g>
  </g>
</svg>