<?xml version="1.0" encoding="UTF-8"?>
<svg id="Calque_2" data-name="Calque 2" xmlns="http://www.w3.org/2000/svg" viewBox="0 0 356.66 378.95">
  <defs>
    <style>
      .cls-1 {
        fill: none;
        stroke: #222221;
        stroke-linecap: round;
        stroke-linejoin: round;
        stroke-width: .61px;
      }

      .cls-2 {
        fill: #222221;
      }

      .cls-2, .cls-3 {
        stroke-width: 0px;
      }

      .cls-3 {
        fill: #a98152;
      }
    </style>
  </defs>
  <g id="PRINT_2" data-name="PRINT 2">
    <g>
      <g>
        <path class="cls-2" d="M121.64,125.19L81.87,26.31l67.85,80.28s-4.43,17.97-28.07,18.6Z"/>
        <path class="cls-2" d="M241.74,259.01l35.42,92.02-63.52-73.47s4.97-17.13,28.1-18.56Z"/>
        <path class="cls-2" d="M121.06,254.14l-75.22,30.62,56.77-60.63s15.08,6.17,18.45,30.01Z"/>
        <path class="cls-2" d="M182.87,100.96L218.29,5.31l-2.7,103.58s-14.98,8.88-32.72-7.93Z"/>
        <path class="cls-2" d="M180.79,283.32l-34.38,91,1.66-98.9s14.86-8.33,32.72,7.9Z"/>
        <path class="cls-2" d="M267.81,195.46l88.04,40.32-95.12-5.8s-8.24-16.16,7.08-34.53Z"/>
        <path class="cls-2" d="M95.69,189.07L5.5,148.27l97.25,6.27s8.5,16.22-7.07,34.53Z"/>
        <path class="cls-3" d="M146.83,103.83s11.8-23.48,7.75-35.51c-4.05-12.04-21.31-30.29-12.75-46.73,8.56-16.44,4.7-21.59,4.7-21.59,0,0,8.3,7.95,5.81,22.23-2.49,14.28,13.96,25.58,17.64,29.13,5.64,5.44,20.46,23.96,8.26,47.95-12.21,24-36.96,18.25-31.41,4.51Z"/>
        <path class="cls-3" d="M216.25,280.3s-11.99,22.41-8.04,33.81c3.94,11.4,21.01,28.59,12.33,44.29-8.69,15.69-4.88,20.55-4.88,20.55,0,0-8.22-7.48-5.61-21.07s-13.72-24.18-17.37-27.53c-5.58-5.12-20.23-22.58-7.83-45.48,12.4-22.9,37.07-17.66,31.4-4.56Z"/>
        <path class="cls-3" d="M263.8,157.44s21.35,13.22,31.99,9.28c10.65-3.95,26.46-21.72,41.42-12.15,14.96,9.57,19.45,5.63,19.45,5.63,0,0-6.87,8.58-19.71,5.51-12.85-3.07-22.47,14.06-25.53,17.86-4.7,5.83-20.82,21.01-42.64,7.34-21.82-13.67-17.42-39.78-4.97-33.47Z"/>
        <path class="cls-3" d="M99.02,227.45s-22.62-13.01-34.02-8.93c-11.4,4.08-28.47,22.07-44.32,12.65-15.85-9.42-20.68-5.42-20.68-5.42,0,0,7.42-8.67,21.09-5.74,13.67,2.93,24.12-14.35,27.44-18.19,5.08-5.89,22.45-21.29,45.57-7.85,23.12,13.45,18.13,39.66,4.92,33.48Z"/>
        <path class="cls-3" d="M215.53,104.32s24.66-8.31,30.03-20.2c5.36-11.89,5.49-38.32,22.97-43.92,17.48-5.59,18.24-12.28,18.24-12.28,0,0,.51,12.11-11.12,20.7-11.62,8.59-7.54,29.31-7.34,34.7.32,8.25-1.74,33.04-27.05,41.42-25.31,8.38-39.2-14.54-25.74-20.42Z"/>
        <path class="cls-3" d="M148.07,279.11s-23.49,6.65-28.14,17.53c-4.65,10.88-3.57,35.61-20.24,40.04-16.67,4.44-17.1,10.66-17.1,10.66,0,0-1.04-11.35,9.82-18.86,10.86-7.51,5.97-27.08,5.52-32.14-.68-7.74.18-30.83,24.3-37.52,24.12-6.69,38.6,15.39,25.84,20.28Z"/>
        <path class="cls-3" d="M263.08,229.28s4.85,24.13,14.19,28.83c9.35,4.7,31.06,3.39,34.26,20.51,3.19,17.12,8.63,17.51,8.63,17.51,0,0-10,1.17-16.12-9.95-6.13-11.12-23.49-5.93-27.94-5.42-6.81.77-27.02.06-31.87-24.71-4.85-24.77,15.11-39.86,18.86-26.76Z"/>
        <path class="cls-3" d="M99.12,154.84s-6.46-25.27-16.75-30.63c-10.28-5.36-33.54-5.14-37.87-23.06-4.33-17.92-10.19-18.61-10.19-18.61,0,0,10.67-.69,17.84,11.16,7.16,11.85,25.54,7.37,30.29,7.09,7.28-.44,29.02,1.35,35.52,27.29,6.51,25.94-14.14,40.54-18.86,26.77Z"/>
        <path class="cls-2" d="M243.36,129.9l89.47-39.68-71.11,69.75s-16.76-5.1-18.36-30.07Z"/>
      </g>
      <g>
        <ellipse class="cls-3" cx="181.6" cy="192.41" rx="94.71" ry="101.02" transform="translate(-30.01 33.6) rotate(-9.77)"/>
        <path class="cls-1" d="M129.82,106.73c31.52-21.08,70.69-19.54,100.87.5"/>
        <path class="cls-1" d="M102.06,245.6c-23.08-38.19-19.44-86.05,5.91-118.54"/>
        <path class="cls-1" d="M233.37,278.09c-35.83,23.96-81.56,18.69-112.71-9.75"/>
        <path class="cls-1" d="M261.13,139.23c25.2,41.7,18.54,94.93-13.45,127.09"/>
        <path class="cls-1" d="M192.96,101.1c11.82,1.93,23.29,6.42,33.61,13.27"/>
        <path class="cls-1" d="M134.16,113.92c15.83-10.58,33.76-14.94,51.29-13.7"/>
        <path class="cls-1" d="M103.22,150.62c2.93-6.42,6.58-12.49,10.93-18.08"/>
        <path class="cls-1" d="M95.2,200.86c-1.47-13.86.04-27.8,4.3-40.73"/>
        <path class="cls-1" d="M108.74,241.13c-5.72-9.47-9.65-19.59-11.88-29.9"/>
        <path class="cls-1" d="M146.88,276.31c-7.54-3.65-14.66-8.45-21.11-14.33"/>
        <path class="cls-1" d="M195.04,283.99c-13.13,1.87-26.5.49-39.05-3.9"/>
        <path class="cls-1" d="M229.03,270.9c-7.16,4.79-14.75,8.3-22.54,10.6"/>
        <path class="cls-1" d="M262.11,229.12c-4.45,11.53-11.17,22.13-19.98,30.99"/>
        <path class="cls-1" d="M254.45,143.69c12.86,21.28,16.66,45.83,12.44,68.5"/>
      </g>
    </g>
  </g>
</svg>