<?xml version="1.0" encoding="UTF-8" standalone="no"?>
<svg
   xmlns:dc="http://purl.org/dc/elements/1.1/"
   xmlns:cc="http://creativecommons.org/ns#"
   xmlns:rdf="http://www.w3.org/1999/02/22-rdf-syntax-ns#"
   xmlns:svg="http://www.w3.org/2000/svg"
   xmlns="http://www.w3.org/2000/svg"
   viewBox="0 0 1000 666.66669"
   height="666.66669"
   width="1000"
   xml:space="preserve"
   id="svg2"
   version="1.1"><metadata
     id="metadata8"><rdf:RDF><cc:Work
         rdf:about=""><dc:format>image/svg+xml</dc:format><dc:type
           rdf:resource="http://purl.org/dc/dcmitype/StillImage" /></cc:Work></rdf:RDF></metadata><defs
     id="defs6"><clipPath
       id="clipPath16"
       clipPathUnits="userSpaceOnUse"><path
         id="path14"
         d="m 524.321,63.953 c 0,-19.217 -15.578,-34.796 -34.795,-34.796 -19.217,0 -34.796,15.579 -34.796,34.796 0,19.217 15.579,34.795 34.796,34.795 19.217,0 34.795,-15.578 34.795,-34.795" /></clipPath><clipPath
       id="clipPath20"
       clipPathUnits="userSpaceOnUse"><path
         id="path18"
         d="m 52.764,63.953 c 0,-19.217 -15.579,-34.796 -34.796,-34.796 -19.217,0 -34.795,15.579 -34.795,34.796 0,19.217 15.578,34.795 34.795,34.795 19.217,0 34.796,-15.578 34.796,-34.795" /></clipPath><clipPath
       id="clipPath24"
       clipPathUnits="userSpaceOnUse"><path
         id="path22"
         d="m 288.543,224.18 c 0,-19.217 -15.579,-34.796 -34.796,-34.796 -19.217,0 -34.796,15.579 -34.796,34.796 0,19.217 15.579,34.795 34.796,34.795 19.217,0 34.796,-15.578 34.796,-34.795" /></clipPath><pattern
       id="pattern994"
       height="320.454"
       width="471.558"
       y="0"
       x="0"
       patternUnits="userSpaceOnUse"
       patternTransform="translate(0,500)"><g
         id="g28"
         transform="translate(463.2368,164.1521)"><path
           id="path26"
           style="fill:none;stroke:#cd9e64;stroke-opacity:1;stroke-width:0.894;stroke-linecap:butt;stroke-linejoin:miter;stroke-miterlimit:10;stroke-dasharray:none"
           d="m 0,0 1.853,-7.054 m -48.434,-19.517 5.15,-5.202 m -32.2,-41.094 7.035,-1.924 m -7.314,-51.698 7.054,1.853 m 19.517,-48.433 5.202,5.149 m 49.658,-0.887 -6.64,-24.278 -1.924,-7.035 m 51.769,6.776 1.853,-7.054 m 41.431,31.772 5.143,-5.201 m 20.023,48.219 7.034,-1.924 m -6.782,51.77 7.061,1.852 m -31.773,41.431 5.202,5.143 m -48.22,20.023 1.924,7.034 m -3.82,-13.96 -7.368,-26.938 m 27.348,-15.979 19.85,19.644 m 22.858,-40.07 -27.013,-7.088 m 26.773,-39.042 -26.938,7.368 m 3.665,-47.198 -19.645,19.85 m -27.513,-15.695 7.088,-27.013 m -46.131,0.24 7.369,26.938 m -27.349,15.98 -19.85,-19.645 m -22.857,40.07 27.013,7.088 m -26.774,39.042 26.938,-7.368 m -3.665,47.198 19.645,-19.85 m 20.425,42.708 7.088,-27.013 M 81.873,-3.925 50.104,-58.951 m 72.46,14.336 -55.027,-31.77 m 69.92,-23.814 -63.539,0 m 48.646,-55.585 -55.027,31.77 m 14.336,-72.46 -31.769,55.026 m -23.815,-69.92 0,63.539 m -55.584,-48.645 31.769,55.026 m -72.459,-14.336 55.026,31.77 m -69.92,23.815 63.539,0 m -48.645,55.584 55.026,-31.77 m -14.336,72.46 31.769,-55.026 m 23.815,69.92 0,-63.539" /></g><g
         id="g32"
         transform="translate(337.9019,157.4597)"><path
           id="path30"
           style="fill:#fdf7ec;fill-opacity:1;fill-rule:nonzero;stroke:none"
           d="m 0,0 c 0,-1.529 -1.239,-2.769 -2.768,-2.769 -1.529,0 -2.769,1.24 -2.769,2.769 0,1.529 1.24,2.768 2.769,2.768 C -1.239,2.768 0,1.529 0,0" /></g><g
         id="g36"
         transform="translate(398.7421,41.5132)"><path
           id="path34"
           style="fill:#fdf7ec;fill-opacity:1;fill-rule:nonzero;stroke:none"
           d="m 0,0 c 0,-1.192 -0.966,-2.159 -2.159,-2.159 -1.192,0 -2.159,0.967 -2.159,2.159 0,1.192 0.967,2.159 2.159,2.159 C -0.966,2.159 0,1.192 0,0" /></g><g
         id="g40"
         transform="translate(363.708,89.0902)"><path
           id="path38"
           style="fill:#fdf7ec;fill-opacity:1;fill-rule:nonzero;stroke:none"
           d="m 0,0 c 0,-1.192 -0.966,-2.159 -2.159,-2.159 -1.192,0 -2.158,0.967 -2.158,2.159 0,1.192 0.966,2.159 2.158,2.159 C -0.966,2.159 0,1.192 0,0" /></g><g
         id="g44"
         transform="translate(410.2275,179.4749)"><path
           id="path42"
           style="fill:#fdf7ec;fill-opacity:1;fill-rule:nonzero;stroke:none"
           d="m 0,0 c 0,-1.173 -0.951,-2.124 -2.124,-2.124 -1.172,0 -2.123,0.951 -2.123,2.124 0,1.173 0.951,2.123 2.123,2.123 C -0.951,2.123 0,1.173 0,0" /></g><g
         id="g48"
         transform="translate(352.3608,23.6173)"><path
           id="path46"
           style="fill:#cd9e64;fill-opacity:1;fill-rule:nonzero;stroke:none"
           d="m 0,0 c 1.839,0.119 3.231,0.636 3.231,0.636 0,0 -1.392,0.517 -3.231,0.636 -0.097,2.535 -0.739,4.498 -0.739,4.498 0,0 -0.641,-1.963 -0.738,-4.498 -1.84,-0.119 -3.232,-0.636 -3.232,-0.636 0,0 1.392,-0.517 3.232,-0.636 0.097,-2.535 0.738,-4.498 0.738,-4.498 0,0 0.642,1.963 0.739,4.498" /></g><g
         id="g52"
         transform="translate(554.368,63.9526)"><path
           id="path50"
           style="fill:#fdf7ec;fill-opacity:1;fill-rule:nonzero;stroke:none"
           d="m 0,0 c 0,-35.811 -29.031,-64.842 -64.842,-64.842 -35.811,0 -64.842,29.031 -64.842,64.842 0,35.811 29.031,64.842 64.842,64.842 C -29.031,64.842 0,35.811 0,0" /></g><g
         id="g56"
         transform="translate(472.14,93.4477)"><path
           id="path54"
           style="fill:#74410b;fill-opacity:1;fill-rule:nonzero;stroke:none"
           d="M 0,0 -12.152,-12.182 -30.156,17.93 0,0 Z" /></g><g
         id="g60"
         transform="translate(472.14,93.4477)"><path
           id="path58"
           style="fill:#ae6d33;fill-opacity:1;fill-rule:nonzero;stroke:none"
           d="M 0,0 -6.076,-6.091 -30.156,17.93 0,0 Z" /></g><g
         id="g64"
         transform="translate(459.7217,80.8032)"><path
           id="path62"
           style="fill:#74410b;fill-opacity:1;fill-rule:nonzero;stroke:none"
           d="M 0,0 -4.433,-16.626 -35.081,0.449 0,0 Z" /></g><g
         id="g68"
         transform="translate(459.7217,80.8032)"><path
           id="path66"
           style="fill:#ae6d33;fill-opacity:1;fill-rule:nonzero;stroke:none"
           d="M 0,0 -2.216,-8.313 -35.081,0.449 0,0 Z" /></g><g
         id="g72"
         transform="translate(455.2895,63.6435)"><path
           id="path70"
           style="fill:#74410b;fill-opacity:1;fill-rule:nonzero;stroke:none"
           d="M 0,0 4.474,-16.615 -30.606,-17.151 0,0 Z" /></g><g
         id="g76"
         transform="translate(455.2895,63.6435)"><path
           id="path74"
           style="fill:#ae6d33;fill-opacity:1;fill-rule:nonzero;stroke:none"
           d="M 0,0 2.237,-8.307 -30.606,-17.151 0,0 Z" /></g><g
         id="g80"
         transform="translate(460.0308,46.5667)"><path
           id="path78"
           style="fill:#74410b;fill-opacity:1;fill-rule:nonzero;stroke:none"
           d="M 0,0 12.182,-12.152 -17.93,-30.156 0,0 Z" /></g><g
         id="g84"
         transform="translate(460.0308,46.5667)"><path
           id="path82"
           style="fill:#ae6d33;fill-opacity:1;fill-rule:nonzero;stroke:none"
           d="M 0,0 6.091,-6.076 -17.93,-30.156 0,0 Z" /></g><g
         id="g88"
         transform="translate(465.1282,87.9731)"><path
           id="path86"
           style="fill:#b7814e;fill-opacity:1;fill-rule:nonzero;stroke:none"
           d="M 0,0 -8.603,-14.902 -52.781,20.538 0,0 Z" /></g><g
         id="g92"
         transform="translate(465.1282,87.9731)"><path
           id="path90"
           style="fill:#ae6d33;fill-opacity:1;fill-rule:nonzero;stroke:none"
           d="M 0,0 -4.302,-7.451 -52.781,20.538 0,0 Z" /></g><g
         id="g96"
         transform="translate(456.5248,54.8337)"><path
           id="path94"
           style="fill:#b7814e;fill-opacity:1;fill-rule:nonzero;stroke:none"
           d="M 0,0 8.603,-14.902 -44.177,-35.44 0,0 Z" /></g><g
         id="g100"
         transform="translate(456.5248,54.8337)"><path
           id="path98"
           style="fill:#ae6d33;fill-opacity:1;fill-rule:nonzero;stroke:none"
           d="M 0,0 4.302,-7.451 -44.177,-35.44 0,0 Z" /></g><g
         id="g104"
         transform="translate(480.5234,97.1552)"><path
           id="path102"
           style="fill:#b7814e;fill-opacity:1;fill-rule:nonzero;stroke:none"
           d="m 0,0 c -3.354,-0.074 -8.395,-3.068 -14.949,-8.686 -0.702,6.147 -1.752,11.691 -3.813,15.485 -1.978,3.937 -4.966,6.124 -7.627,8.879 -2.682,2.717 -5.038,5.999 -6.264,11.237 -1.354,5.019 -1.578,11.993 -2.928,17.019 2.673,-4.167 4.586,-9.652 7.418,-13.543 2.739,-4.053 6.398,-6.512 10.385,-8.402 C -9.645,18.481 -0.922,15.997 0,0" /></g><g
         id="g108"
         transform="translate(480.5234,97.1552)"><path
           id="path106"
           style="fill:#cd9e64;fill-opacity:1;fill-rule:nonzero;stroke:none"
           d="m 0,0 c -1.714,-0.101 -3.763,-0.782 -6.268,-2.253 -1.145,6.096 -3.06,10.86 -5.911,14.002 -2.79,3.247 -6.517,4.871 -9.879,7.128 -3.387,2.213 -6.41,5.057 -8.386,9.714 -2.088,4.463 -3.129,10.741 -5.137,15.343 2.673,-4.167 4.586,-9.652 7.418,-13.543 2.739,-4.053 6.398,-6.512 10.385,-8.402 C -9.645,18.481 -0.922,15.997 0,0" /></g><g
         id="g112"
         transform="translate(456.2703,72.7575)"><path
           id="path110"
           style="fill:#b7814e;fill-opacity:1;fill-rule:nonzero;stroke:none"
           d="m 0,0 c -1.613,-2.942 -1.54,-8.804 0.048,-17.289 -5.675,2.465 -11.001,4.327 -15.317,4.44 -4.398,0.255 -7.786,-1.239 -11.502,-2.166 -3.695,-0.964 -7.715,-1.363 -12.865,0.194 -5.023,1.336 -11.175,4.63 -16.202,5.974 4.945,0.232 10.651,-0.855 15.437,-0.347 4.879,0.345 8.839,2.284 12.469,4.792 C -20.828,0.887 -14.315,7.2 0,0" /></g><g
         id="g116"
         transform="translate(456.2703,72.7575)"><path
           id="path114"
           style="fill:#cd9e64;fill-opacity:1;fill-rule:nonzero;stroke:none"
           d="m 0,0 c -0.769,-1.535 -1.204,-3.65 -1.183,-6.555 -5.852,2.056 -10.935,2.781 -15.081,1.882 -4.207,-0.793 -7.477,-3.209 -11.113,-4.992 -3.61,-1.826 -7.584,-3.023 -12.606,-2.405 -4.909,0.424 -10.866,2.661 -15.855,3.223 4.945,0.232 10.651,-0.855 15.437,-0.347 4.879,0.345 8.839,2.284 12.469,4.792 C -20.828,0.887 -14.315,7.2 0,0" /></g><g
         id="g120"
         transform="translate(465.2729,39.5549)"><path
           id="path118"
           style="fill:#b7814e;fill-opacity:1;fill-rule:nonzero;stroke:none"
           d="m 0,0 c 1.741,-2.868 6.855,-5.736 14.997,-8.604 -4.973,-3.681 -9.248,-7.362 -11.504,-11.044 -2.42,-3.681 -2.82,-7.363 -3.876,-11.044 -1.012,-3.682 -2.676,-7.363 -6.6,-11.044 -3.668,-3.682 -9.596,-7.363 -13.275,-11.045 2.272,4.399 6.066,8.797 8.02,13.195 2.141,4.399 2.441,8.797 2.084,13.196 C -11.182,-17.594 -13.393,-8.797 0,0" /></g><g
         id="g124"
         transform="translate(465.2729,39.5549)"><path
           id="path122"
           style="fill:#cd9e64;fill-opacity:1;fill-rule:nonzero;stroke:none"
           d="m 0,0 c 0.945,-1.434 2.559,-2.868 5.085,-4.302 -4.706,-4.04 -7.875,-8.08 -9.171,-12.119 -1.416,-4.041 -0.959,-8.08 -1.233,-12.12 -0.223,-4.04 -1.174,-8.08 -4.22,-12.12 -2.821,-4.04 -7.737,-8.08 -10.719,-12.12 2.272,4.399 6.066,8.797 8.02,13.195 2.141,4.399 2.441,8.797 2.084,13.196 C -11.182,-17.594 -13.393,-8.797 0,0" /></g><g
         id="g128"
         transform="translate(524.3215,63.9526)"><path
           id="path126"
           style="fill:#dfb07a;fill-opacity:1;fill-rule:nonzero;stroke:none"
           d="m 0,0 c 0,-19.217 -15.578,-34.796 -34.795,-34.796 -19.218,0 -34.796,15.579 -34.796,34.796 0,19.217 15.578,34.796 34.796,34.796 C -15.578,34.796 0,19.217 0,0" /></g><g
         id="g136"><g
           id="g134"
           clip-path="url(#clipPath16)"><g
             id="g132"
             transform="translate(535.916,48.1834)"><path
               id="path130"
               style="fill:#74410b;fill-opacity:1;fill-rule:nonzero;stroke:none"
               d="m 0,0 c 0,-8.901 -7.216,-16.116 -16.116,-16.116 -8.901,0 -16.117,7.215 -16.117,16.116 0,8.901 7.216,16.116 16.117,16.116 C -7.216,16.116 0,8.901 0,0 M -76.664,16.116 C -85.565,16.116 -92.78,8.901 -92.78,0 c 0,-8.901 7.215,-16.116 16.116,-16.116 8.901,0 16.116,7.215 16.116,16.116 0,8.901 -7.215,16.116 -16.116,16.116" /></g></g></g><g
         id="g140"
         transform="translate(483.7886,71.4642)"><path
           id="path138"
           style="fill:#ae6d33;fill-opacity:1;fill-rule:nonzero;stroke:none"
           d="m 0,0 c 0,0 -5.352,-6.439 -11.954,-6.439 -6.602,0 -11.954,6.439 -11.954,6.439 0,0 5.352,6.439 11.954,6.439 C -5.352,6.439 0,0 0,0" /></g><g
         id="g144"
         transform="translate(483.7886,68.6764)"><path
           id="path142"
           style="fill:#ffffff;fill-opacity:1;fill-rule:nonzero;stroke:none"
           d="m 0,0 c 0,0 -5.352,-6.439 -11.954,-6.439 -6.602,0 -11.954,6.439 -11.954,6.439 0,0 5.352,6.439 11.954,6.439 C -5.352,6.439 0,0 0,0" /></g><g
         id="g148"
         transform="translate(478.7404,68.6582)"><path
           id="path146"
           style="fill:#74410b;fill-opacity:1;fill-rule:nonzero;stroke:none"
           d="m 0,0 c 0,-3.738 -3.03,-6.768 -6.768,-6.768 -3.738,0 -6.768,3.03 -6.768,6.768 0,3.738 3.03,6.768 6.768,6.768 C -3.03,6.768 0,3.738 0,0" /></g><g
         id="g152"
         transform="translate(477.1921,68.6582)"><path
           id="path150"
           style="fill:#000000;fill-opacity:1;fill-rule:nonzero;stroke:none"
           d="m 0,0 c 0,-2.883 -2.337,-5.22 -5.219,-5.22 -2.883,0 -5.22,2.337 -5.22,5.22 0,2.883 2.337,5.219 5.22,5.219 C -2.337,5.219 0,2.883 0,0" /></g><g
         id="g156"
         transform="translate(465.2131,73.08)"><path
           id="path154"
           style="fill:none;stroke:#74410b;stroke-opacity:1;stroke-width:0.894;stroke-linecap:butt;stroke-linejoin:miter;stroke-miterlimit:10;stroke-dasharray:none"
           d="M 0,0 -1.231,2.874 M -2.383,-1.73 -4.215,0.803 m -2.804,-2.444 2.48,-1.903" /></g><g
         id="g160"
         transform="translate(459.3097,80.5519)"><path
           id="path158"
           style="fill:#74410b;fill-opacity:1;fill-rule:nonzero;stroke:none"
           d="m 0,0 c 0,0 9.063,8.883 22.31,0.468 l 1.913,-7.137 C 19.372,0.487 7.682,2.614 0,0" /></g><g
         id="g164"
         transform="translate(459.2466,80.5519)"><path
           id="path162"
           style="fill:none;stroke:#74410b;stroke-opacity:1;stroke-width:0.894;stroke-linecap:butt;stroke-linejoin:miter;stroke-miterlimit:10;stroke-dasharray:none"
           d="m 0,0 c 10.378,3.263 25.325,-1.263 26.461,-12.819 0.685,-6.973 -3.67,-10.256 -3.67,-10.256 l 7.488,-4.802 7.489,4.802 c 0,0 -4.356,3.283 -3.67,10.256 C 35.234,-1.263 50.18,3.263 60.559,0" /></g><g
         id="g168"
         transform="translate(227.458,3.9248)"><path
           id="path166"
           style="fill:none;stroke:#cd9e64;stroke-opacity:1;stroke-width:0.894;stroke-linecap:butt;stroke-linejoin:miter;stroke-miterlimit:10;stroke-dasharray:none"
           d="m 0,0 1.853,-7.054 m -48.434,-19.517 5.15,-5.202 m -32.2,-41.094 7.034,-1.924 m -7.313,-51.698 7.054,1.853 m 19.517,-48.433 5.202,5.149 m 49.658,-0.887 -6.64,-24.278 -1.924,-7.035 m 51.769,6.776 1.853,-7.054 m 41.431,31.772 5.143,-5.201 m 20.022,48.219 7.035,-1.924 m -6.782,51.77 7.061,1.852 m -31.773,41.431 5.201,5.143 m -48.219,20.023 1.924,7.034 m -3.82,-13.96 -7.369,-26.938 m 27.349,-15.979 19.85,19.644 m 22.858,-40.07 -27.014,-7.088 m 26.774,-39.042 -26.938,7.368 m 3.665,-47.198 -19.645,19.85 m -27.513,-15.695 7.088,-27.013 m -46.131,0.24 7.369,26.938 m -27.349,15.98 -19.85,-19.645 m -22.858,40.07 27.014,7.088 m -26.774,39.042 26.938,-7.368 m -3.665,47.198 19.645,-19.85 m 20.425,42.708 7.088,-27.013 M 81.873,-3.925 50.104,-58.951 m 72.46,14.336 -55.027,-31.77 m 69.92,-23.814 -63.539,0 m 48.646,-55.585 -55.027,31.77 m 14.336,-72.46 -31.769,55.026 m -23.815,-69.92 0,63.539 m -55.584,-48.645 31.769,55.026 m -72.459,-14.336 55.026,31.77 m -69.92,23.815 63.539,0 m -48.645,55.584 55.026,-31.77 m -14.336,72.46 31.769,-55.026 m 23.815,69.92 0,-63.539" /></g><g
         id="g172"
         transform="translate(391.1284,68.4696)"><path
           id="path170"
           style="fill:#fdf7ec;fill-opacity:1;fill-rule:nonzero;stroke:none"
           d="m 0,0 c 0,-1.831 -1.484,-3.315 -3.315,-3.315 -1.83,0 -3.314,1.484 -3.314,3.315 0,1.831 1.484,3.315 3.314,3.315 C -1.484,3.315 0,1.831 0,0" /></g><g
         id="g176"
         transform="translate(174.4486,19.2476)"><path
           id="path174"
           style="fill:#fdf7ec;fill-opacity:1;fill-rule:nonzero;stroke:none"
           d="m 0,0 c 0,-1.173 -0.951,-2.124 -2.124,-2.124 -1.172,0 -2.123,0.951 -2.123,2.124 0,1.173 0.951,2.124 2.123,2.124 C -0.951,2.124 0,1.173 0,0" /></g><g
         id="g180"
         transform="translate(-8.3209,164.1521)"><path
           id="path178"
           style="fill:none;stroke:#cd9e64;stroke-opacity:1;stroke-width:0.894;stroke-linecap:butt;stroke-linejoin:miter;stroke-miterlimit:10;stroke-dasharray:none"
           d="m 0,0 1.853,-7.054 m -48.434,-19.517 5.15,-5.202 m -32.2,-41.094 7.035,-1.924 m -7.314,-51.698 7.054,1.853 m 19.517,-48.433 5.202,5.149 m 49.657,-0.887 -6.639,-24.278 -1.924,-7.035 m 51.769,6.776 1.853,-7.054 m 41.431,31.772 5.143,-5.201 m 20.022,48.219 7.035,-1.924 m -6.782,51.77 7.061,1.852 m -31.773,41.431 5.201,5.143 m -48.219,20.023 1.924,7.034 m -3.82,-13.96 -7.368,-26.938 m 27.348,-15.979 19.85,19.644 m 22.858,-40.07 -27.013,-7.088 m 26.773,-39.042 -26.938,7.368 m 3.665,-47.198 -19.645,19.85 m -27.513,-15.695 7.088,-27.013 m -46.131,0.24 7.369,26.938 m -27.349,15.98 -19.85,-19.645 m -22.858,40.07 27.014,7.088 m -26.774,39.042 26.938,-7.368 m -3.665,47.198 19.645,-19.85 m 20.425,42.708 7.088,-27.013 M 81.873,-3.925 50.104,-58.951 m 72.46,14.336 -55.027,-31.77 m 69.92,-23.814 -63.539,0 m 48.646,-55.585 -55.027,31.77 m 14.336,-72.46 -31.769,55.026 m -23.815,-69.92 0,63.539 m -55.584,-48.645 31.77,55.026 m -72.46,-14.336 55.026,31.77 m -69.92,23.815 63.539,0 m -48.645,55.584 55.026,-31.77 m -14.336,72.46 31.77,-55.026 m 23.814,69.92 0,-63.539" /></g><g
         id="g184"
         transform="translate(155.3495,228.6969)"><path
           id="path182"
           style="fill:#fdf7ec;fill-opacity:1;fill-rule:nonzero;stroke:none"
           d="m 0,0 c 0,-1.831 -1.484,-3.315 -3.315,-3.315 -1.83,0 -3.314,1.484 -3.314,3.315 0,1.831 1.484,3.315 3.314,3.315 C -1.484,3.315 0,1.831 0,0" /></g><g
         id="g188"
         transform="translate(138.765,132.8323)"><path
           id="path186"
           style="fill:#fdf7ec;fill-opacity:1;fill-rule:nonzero;stroke:none"
           d="m 0,0 c 0,-2.768 -2.244,-5.012 -5.012,-5.012 -2.768,0 -5.012,2.244 -5.012,5.012 0,2.768 2.244,5.012 5.012,5.012 C -2.244,5.012 0,2.768 0,0" /></g><g
         id="g192"
         transform="translate(171.9972,81.1431)"><path
           id="path190"
           style="fill:#fdf7ec;fill-opacity:1;fill-rule:nonzero;stroke:none"
           d="m 0,0 c 0,-1.192 -0.966,-2.159 -2.159,-2.159 -1.192,0 -2.158,0.967 -2.158,2.159 0,1.192 0.966,2.159 2.158,2.159 C -0.966,2.159 0,1.192 0,0" /></g><g
         id="g196"
         transform="translate(47.1579,55.6323)"><path
           id="path194"
           style="fill:#fdf7ec;fill-opacity:1;fill-rule:nonzero;stroke:none"
           d="m 0,0 c 0,-1.192 -0.966,-2.159 -2.159,-2.159 -1.192,0 -2.158,0.967 -2.158,2.159 0,1.192 0.966,2.159 2.158,2.159 C -0.966,2.159 0,1.192 0,0" /></g><g
         id="g200"
         transform="translate(129.8751,149.5172)"><path
           id="path198"
           style="fill:#cd9e64;fill-opacity:1;fill-rule:nonzero;stroke:none"
           d="m 0,0 c 1.839,0.119 3.231,0.636 3.231,0.636 0,0 -1.392,0.517 -3.231,0.636 -0.097,2.535 -0.739,4.498 -0.739,4.498 0,0 -0.641,-1.963 -0.738,-4.498 -1.84,-0.119 -3.232,-0.636 -3.232,-0.636 0,0 1.392,-0.517 3.232,-0.636 0.097,-2.535 0.738,-4.498 0.738,-4.498 0,0 0.642,1.963 0.739,4.498" /></g><g
         id="g204"
         transform="translate(132.2317,113.9956)"><path
           id="path202"
           style="fill:none;stroke:#74410b;stroke-opacity:1;stroke-width:0.894;stroke-linecap:butt;stroke-linejoin:miter;stroke-miterlimit:10;stroke-dasharray:none"
           d="m 0,0 8.73,0 m -4.365,-4.365 0,8.73" /></g><g
         id="g208"
         transform="translate(82.8102,63.9526)"><path
           id="path206"
           style="fill:#fdf7ec;fill-opacity:1;fill-rule:nonzero;stroke:none"
           d="m 0,0 c 0,-35.811 -29.031,-64.842 -64.842,-64.842 -35.811,0 -64.842,29.031 -64.842,64.842 0,35.811 29.031,64.842 64.842,64.842 C -29.031,64.842 0,35.811 0,0" /></g><g
         id="g212"
         transform="translate(26.5716,97.0919)"><path
           id="path210"
           style="fill:#b7814e;fill-opacity:1;fill-rule:nonzero;stroke:none"
           d="M 0,0 -17.207,0 -8.603,55.979 0,0 Z" /></g><g
         id="g216"
         transform="translate(26.5716,97.0919)"><path
           id="path214"
           style="fill:#ae6d33;fill-opacity:1;fill-rule:nonzero;stroke:none"
           d="M 0,0 -8.604,0 -8.603,55.979 0,0 Z" /></g><g
         id="g220"
         transform="translate(17.6591,98.1891)"><path
           id="path218"
           style="fill:#74410b;fill-opacity:1;fill-rule:nonzero;stroke:none"
           d="M 0,0 -16.615,-4.474 -17.151,30.606 0,0 Z" /></g><g
         id="g224"
         transform="translate(17.6591,98.1891)"><path
           id="path222"
           style="fill:#ae6d33;fill-opacity:1;fill-rule:nonzero;stroke:none"
           d="M 0,0 -8.307,-2.237 -17.151,30.606 0,0 Z" /></g><g
         id="g228"
         transform="translate(0.5823,93.4477)"><path
           id="path226"
           style="fill:#74410b;fill-opacity:1;fill-rule:nonzero;stroke:none"
           d="M 0,0 -12.152,-12.182 -30.156,17.93 0,0 Z" /></g><g
         id="g232"
         transform="translate(0.5823,93.4477)"><path
           id="path230"
           style="fill:#ae6d33;fill-opacity:1;fill-rule:nonzero;stroke:none"
           d="M 0,0 -6.076,-6.091 -30.156,17.93 0,0 Z" /></g><g
         id="g236"
         transform="translate(-11.5269,46.5667)"><path
           id="path234"
           style="fill:#74410b;fill-opacity:1;fill-rule:nonzero;stroke:none"
           d="M 0,0 12.182,-12.152 -17.93,-30.156 0,0 Z" /></g><g
         id="g240"
         transform="translate(1.1176,34.1484)"><path
           id="path238"
           style="fill:#74410b;fill-opacity:1;fill-rule:nonzero;stroke:none"
           d="M 0,0 16.626,-4.433 -0.449,-35.081 0,0 Z" /></g><g
         id="g244"
         transform="translate(1.1176,34.1484)"><path
           id="path242"
           style="fill:#ae6d33;fill-opacity:1;fill-rule:nonzero;stroke:none"
           d="M 0,0 8.313,-2.216 -0.449,-35.081 0,0 Z" /></g><g
         id="g248"
         transform="translate(18.2773,29.7161)"><path
           id="path246"
           style="fill:#74410b;fill-opacity:1;fill-rule:nonzero;stroke:none"
           d="M 0,0 16.615,4.474 17.151,-30.606 0,0 Z" /></g><g
         id="g252"
         transform="translate(18.2773,29.7161)"><path
           id="path250"
           style="fill:#ae6d33;fill-opacity:1;fill-rule:nonzero;stroke:none"
           d="M 0,0 8.307,2.237 17.151,-30.606 0,0 Z" /></g><g
         id="g256"
         transform="translate(35.3541,34.4575)"><path
           id="path254"
           style="fill:#74410b;fill-opacity:1;fill-rule:nonzero;stroke:none"
           d="M 0,0 12.152,12.182 30.156,-17.93 0,0 Z" /></g><g
         id="g260"
         transform="translate(35.3541,34.4575)"><path
           id="path258"
           style="fill:#ae6d33;fill-opacity:1;fill-rule:nonzero;stroke:none"
           d="M 0,0 6.076,6.091 30.156,-17.93 0,0 Z" /></g><g
         id="g264"
         transform="translate(47.7724,47.102)"><path
           id="path262"
           style="fill:#74410b;fill-opacity:1;fill-rule:nonzero;stroke:none"
           d="M 0,0 4.433,16.626 35.081,-0.45 0,0 Z" /></g><g
         id="g268"
         transform="translate(47.7724,47.102)"><path
           id="path266"
           style="fill:#ae6d33;fill-opacity:1;fill-rule:nonzero;stroke:none"
           d="M 0,0 2.217,8.313 35.081,-0.45 0,0 Z" /></g><g
         id="g272"
         transform="translate(52.2047,64.2617)"><path
           id="path270"
           style="fill:#74410b;fill-opacity:1;fill-rule:nonzero;stroke:none"
           d="M 0,0 -4.474,16.615 30.605,17.151 0,0 Z" /></g><g
         id="g276"
         transform="translate(52.2047,64.2617)"><path
           id="path274"
           style="fill:#ae6d33;fill-opacity:1;fill-rule:nonzero;stroke:none"
           d="M 0,0 -2.237,8.307 30.605,17.151 0,0 Z" /></g><g
         id="g280"
         transform="translate(47.4633,81.3385)"><path
           id="path278"
           style="fill:#74410b;fill-opacity:1;fill-rule:nonzero;stroke:none"
           d="M 0,0 -12.182,12.152 17.93,30.156 0,0 Z" /></g><g
         id="g284"
         transform="translate(47.4633,81.3385)"><path
           id="path282"
           style="fill:#ae6d33;fill-opacity:1;fill-rule:nonzero;stroke:none"
           d="M 0,0 -6.091,6.076 17.93,30.156 0,0 Z" /></g><g
         id="g288"
         transform="translate(34.8187,93.7568)"><path
           id="path286"
           style="fill:#74410b;fill-opacity:1;fill-rule:nonzero;stroke:none"
           d="M 0,0 -16.626,4.433 0.45,35.081 0,0 Z" /></g><g
         id="g292"
         transform="translate(34.8187,93.7568)"><path
           id="path290"
           style="fill:#ae6d33;fill-opacity:1;fill-rule:nonzero;stroke:none"
           d="M 0,0 -8.313,2.216 0.45,35.081 0,0 Z" /></g><g
         id="g296"
         transform="translate(9.3647,30.8133)"><path
           id="path294"
           style="fill:#b7814e;fill-opacity:1;fill-rule:nonzero;stroke:none"
           d="M 0,0 17.207,0 8.604,-55.979 0,0 Z" /></g><g
         id="g300"
         transform="translate(9.3647,30.8133)"><path
           id="path298"
           style="fill:#ae6d33;fill-opacity:1;fill-rule:nonzero;stroke:none"
           d="m 0,0 8.604,0 0,-55.979 L 0,0 Z" /></g><g
         id="g304"
         transform="translate(42.3659,39.9321)"><path
           id="path302"
           style="fill:#b7814e;fill-opacity:1;fill-rule:nonzero;stroke:none"
           d="M 0,0 8.604,14.902 52.781,-20.539 0,0 Z" /></g><g
         id="g308"
         transform="translate(42.3659,39.9321)"><path
           id="path306"
           style="fill:#ae6d33;fill-opacity:1;fill-rule:nonzero;stroke:none"
           d="M 0,0 4.302,7.451 52.781,-20.539 0,0 Z" /></g><g
         id="g312"
         transform="translate(50.9694,73.0715)"><path
           id="path310"
           style="fill:#b7814e;fill-opacity:1;fill-rule:nonzero;stroke:none"
           d="M 0,0 -8.604,14.902 44.177,35.44 0,0 Z" /></g><g
         id="g316"
         transform="translate(50.9694,73.0715)"><path
           id="path314"
           style="fill:#ae6d33;fill-opacity:1;fill-rule:nonzero;stroke:none"
           d="M 0,0 -4.302,7.451 44.177,35.44 0,0 Z" /></g><g
         id="g320"
         transform="translate(42.2212,88.3504)"><path
           id="path318"
           style="fill:#b7814e;fill-opacity:1;fill-rule:nonzero;stroke:none"
           d="m 0,0 c -1.741,2.868 -6.855,5.736 -14.997,8.603 4.973,3.682 9.249,7.363 11.504,11.045 2.42,3.681 2.82,7.363 3.876,11.044 1.012,3.682 2.676,7.363 6.6,11.044 3.669,3.682 9.596,7.363 13.275,11.045 C 17.986,48.382 14.192,43.984 12.238,39.585 10.097,35.187 9.797,30.789 10.154,26.39 11.182,17.594 13.393,8.797 0,0" /></g><g
         id="g324"
         transform="translate(42.2212,88.3504)"><path
           id="path322"
           style="fill:#cd9e64;fill-opacity:1;fill-rule:nonzero;stroke:none"
           d="m 0,0 c -0.945,1.434 -2.559,2.868 -5.085,4.302 4.706,4.04 7.875,8.08 9.17,12.119 1.417,4.04 0.96,8.08 1.234,12.12 0.223,4.04 1.174,8.08 4.22,12.12 2.821,4.04 7.737,8.08 10.719,12.12 C 17.986,48.382 14.192,43.984 12.238,39.585 10.097,35.187 9.797,30.789 10.154,26.39 11.182,17.594 13.393,8.797 0,0" /></g><g
         id="g328"
         transform="translate(8.9656,97.1552)"><path
           id="path326"
           style="fill:#b7814e;fill-opacity:1;fill-rule:nonzero;stroke:none"
           d="m 0,0 c -3.354,-0.074 -8.395,-3.068 -14.949,-8.686 -0.702,6.147 -1.753,11.691 -3.813,15.485 -1.978,3.937 -4.966,6.124 -7.627,8.879 -2.682,2.717 -5.038,5.999 -6.264,11.237 -1.354,5.019 -1.579,11.993 -2.928,17.019 2.674,-4.167 4.586,-9.652 7.418,-13.543 2.739,-4.053 6.398,-6.512 10.385,-8.402 C -9.645,18.481 -0.922,15.997 0,0" /></g><g
         id="g332"
         transform="translate(8.9656,97.1552)"><path
           id="path330"
           style="fill:#cd9e64;fill-opacity:1;fill-rule:nonzero;stroke:none"
           d="m 0,0 c -1.714,-0.101 -3.763,-0.782 -6.268,-2.253 -1.145,6.096 -3.06,10.86 -5.911,14.002 -2.79,3.247 -6.517,4.871 -9.879,7.128 -3.387,2.213 -6.41,5.057 -8.386,9.714 -2.088,4.463 -3.129,10.741 -5.137,15.343 2.674,-4.167 4.586,-9.652 7.418,-13.543 2.739,-4.053 6.398,-6.512 10.385,-8.402 C -9.645,18.481 -0.922,15.997 0,0" /></g><g
         id="g336"
         transform="translate(-6.2849,39.5549)"><path
           id="path334"
           style="fill:#b7814e;fill-opacity:1;fill-rule:nonzero;stroke:none"
           d="m 0,0 c 1.741,-2.868 6.855,-5.736 14.997,-8.604 -4.973,-3.681 -9.248,-7.362 -11.504,-11.044 -2.42,-3.681 -2.82,-7.363 -3.876,-11.044 -1.012,-3.682 -2.676,-7.363 -6.6,-11.044 -3.669,-3.682 -9.596,-7.363 -13.275,-11.045 2.272,4.399 6.066,8.797 8.02,13.195 2.141,4.399 2.441,8.797 2.084,13.196 C -11.182,-17.594 -13.393,-8.797 0,0" /></g><g
         id="g340"
         transform="translate(26.9708,30.75)"><path
           id="path338"
           style="fill:#b7814e;fill-opacity:1;fill-rule:nonzero;stroke:none"
           d="m 0,0 c 3.354,0.074 8.394,3.068 14.949,8.686 0.702,-6.147 1.752,-11.691 3.813,-15.484 1.978,-3.938 4.966,-6.125 7.627,-8.88 2.682,-2.717 5.038,-5.999 6.264,-11.237 1.354,-5.019 1.578,-11.993 2.928,-17.019 -2.674,4.167 -4.586,9.652 -7.418,13.543 -2.739,4.053 -6.398,6.512 -10.385,8.402 C 9.645,-18.481 0.922,-15.997 0,0" /></g><g
         id="g344"
         transform="translate(26.9708,30.75)"><path
           id="path342"
           style="fill:#cd9e64;fill-opacity:1;fill-rule:nonzero;stroke:none"
           d="m 0,0 c 1.714,0.101 3.763,0.782 6.268,2.253 1.145,-6.096 3.059,-10.86 5.911,-14.002 2.79,-3.247 6.517,-4.871 9.879,-7.128 3.387,-2.213 6.41,-5.056 8.386,-9.714 2.088,-4.463 3.129,-10.741 5.137,-15.343 -2.674,4.167 -4.586,9.652 -7.418,13.543 -2.739,4.053 -6.398,6.512 -10.385,8.402 C 9.645,-18.481 0.922,-15.997 0,0" /></g><g
         id="g348"
         transform="translate(51.2238,55.1477)"><path
           id="path346"
           style="fill:#b7814e;fill-opacity:1;fill-rule:nonzero;stroke:none"
           d="m 0,0 c 1.613,2.942 1.54,8.804 -0.048,17.289 5.675,-2.465 11.001,-4.327 15.317,-4.44 4.398,-0.255 7.786,1.239 11.502,2.166 3.695,0.964 7.715,1.363 12.865,-0.194 5.023,-1.337 11.175,-4.63 16.202,-5.974 C 50.893,8.615 45.187,9.702 40.401,9.194 35.522,8.849 31.562,6.91 27.932,4.402 20.827,-0.887 14.315,-7.2 0,0" /></g><g
         id="g352"
         transform="translate(51.2238,55.1477)"><path
           id="path350"
           style="fill:#cd9e64;fill-opacity:1;fill-rule:nonzero;stroke:none"
           d="M 0,0 C 0.769,1.535 1.204,3.65 1.183,6.555 7.035,4.499 12.118,3.774 16.264,4.673 c 4.207,0.793 7.477,3.209 11.113,4.991 3.61,1.827 7.584,3.024 12.606,2.406 C 44.892,11.646 50.849,9.409 55.838,8.847 50.893,8.615 45.187,9.702 40.401,9.194 35.522,8.849 31.562,6.91 27.932,4.402 20.827,-0.887 14.315,-7.2 0,0" /></g><g
         id="g356"
         transform="translate(52.7637,63.9526)"><path
           id="path354"
           style="fill:#dfb07a;fill-opacity:1;fill-rule:nonzero;stroke:none"
           d="m 0,0 c 0,-19.217 -15.578,-34.796 -34.796,-34.796 -19.217,0 -34.795,15.579 -34.795,34.796 0,19.217 15.578,34.796 34.795,34.796 C -15.578,34.796 0,19.217 0,0" /></g><g
         id="g364"><g
           id="g362"
           clip-path="url(#clipPath20)"><g
             id="g360"
             transform="translate(64.3583,48.1834)"><path
               id="path358"
               style="fill:#74410b;fill-opacity:1;fill-rule:nonzero;stroke:none"
               d="m 0,0 c 0,-8.901 -7.215,-16.116 -16.116,-16.116 -8.901,0 -16.117,7.215 -16.117,16.116 0,8.901 7.216,16.116 16.117,16.116 C -7.215,16.116 0,8.901 0,0 M -76.664,16.116 C -85.565,16.116 -92.78,8.901 -92.78,0 c 0,-8.901 7.215,-16.116 16.116,-16.116 8.901,0 16.116,7.215 16.116,16.116 0,8.901 -7.215,16.116 -16.116,16.116" /></g></g></g><g
         id="g368"
         transform="translate(12.2308,71.4642)"><path
           id="path366"
           style="fill:#ae6d33;fill-opacity:1;fill-rule:nonzero;stroke:none"
           d="m 0,0 c 0,0 -5.352,-6.439 -11.954,-6.439 -6.602,0 -11.954,6.439 -11.954,6.439 0,0 5.352,6.439 11.954,6.439 C -5.352,6.439 0,0 0,0" /></g><g
         id="g372"
         transform="translate(12.2308,68.6764)"><path
           id="path370"
           style="fill:#ffffff;fill-opacity:1;fill-rule:nonzero;stroke:none"
           d="m 0,0 c 0,0 -5.352,-6.439 -11.954,-6.439 -6.602,0 -11.954,6.439 -11.954,6.439 0,0 5.352,6.439 11.954,6.439 C -5.352,6.439 0,0 0,0" /></g><g
         id="g376"
         transform="translate(7.1826,68.6582)"><path
           id="path374"
           style="fill:#74410b;fill-opacity:1;fill-rule:nonzero;stroke:none"
           d="m 0,0 c 0,-3.738 -3.03,-6.768 -6.768,-6.768 -3.738,0 -6.768,3.03 -6.768,6.768 0,3.738 3.03,6.768 6.768,6.768 C -3.03,6.768 0,3.738 0,0" /></g><g
         id="g380"
         transform="translate(5.6344,68.6582)"><path
           id="path378"
           style="fill:#000000;fill-opacity:1;fill-rule:nonzero;stroke:none"
           d="m 0,0 c 0,-2.883 -2.337,-5.22 -5.22,-5.22 -2.882,0 -5.219,2.337 -5.219,5.22 0,2.883 2.337,5.219 5.219,5.219 C -2.337,5.219 0,2.883 0,0" /></g><g
         id="g384"
         transform="translate(17.9682,76.1226)"><path
           id="path382"
           style="fill:#ffffff;fill-opacity:1;fill-rule:nonzero;stroke:none"
           d="m 0,0 c 0,0 -4.171,3.466 -4.171,7.743 0,4.276 4.171,7.742 4.171,7.742 0,0 4.171,-3.466 4.171,-7.742 C 4.171,3.466 0,0 0,0" /></g><g
         id="g388"
         transform="translate(17.9682,79.5924)"><path
           id="path386"
           style="fill:#74410b;fill-opacity:1;fill-rule:nonzero;stroke:none"
           d="m 0,0 c -2.311,0 -4.184,1.873 -4.184,4.183 0,2.311 1.873,4.184 4.184,4.184 2.311,0 4.183,-1.873 4.183,-4.184 C 4.183,1.873 2.311,0 0,0" /></g><g
         id="g392"
         transform="translate(47.6383,71.4642)"><path
           id="path390"
           style="fill:#ae6d33;fill-opacity:1;fill-rule:nonzero;stroke:none"
           d="m 0,0 c 0,0 -5.352,-6.439 -11.954,-6.439 -6.602,0 -11.954,6.439 -11.954,6.439 0,0 5.352,6.439 11.954,6.439 C -5.352,6.439 0,0 0,0" /></g><g
         id="g396"
         transform="translate(47.6383,68.6764)"><path
           id="path394"
           style="fill:#ffffff;fill-opacity:1;fill-rule:nonzero;stroke:none"
           d="m 0,0 c 0,0 -5.352,-6.439 -11.954,-6.439 -6.602,0 -11.954,6.439 -11.954,6.439 0,0 5.352,6.439 11.954,6.439 C -5.352,6.439 0,0 0,0" /></g><g
         id="g400"
         transform="translate(42.5901,68.6582)"><path
           id="path398"
           style="fill:#74410b;fill-opacity:1;fill-rule:nonzero;stroke:none"
           d="m 0,0 c 0,-3.738 -3.03,-6.768 -6.768,-6.768 -3.738,0 -6.768,3.03 -6.768,6.768 0,3.738 3.03,6.768 6.768,6.768 C -3.03,6.768 0,3.738 0,0" /></g><g
         id="g404"
         transform="translate(41.0418,68.6582)"><path
           id="path402"
           style="fill:#000000;fill-opacity:1;fill-rule:nonzero;stroke:none"
           d="m 0,0 c 0,-2.883 -2.337,-5.22 -5.22,-5.22 -2.882,0 -5.219,2.337 -5.219,5.22 0,2.883 2.337,5.219 5.219,5.219 C -2.337,5.219 0,2.883 0,0" /></g><g
         id="g408"
         transform="translate(43.5122,75.9537)"><path
           id="path406"
           style="fill:none;stroke:#000000;stroke-opacity:1;stroke-width:0.568;stroke-linecap:butt;stroke-linejoin:miter;stroke-miterlimit:10;stroke-dasharray:none"
           d="m 0,0 -1.231,-2.874 m 4.215,0.803 -1.833,-2.533 m 2.157,-1.814 2.479,1.904" /></g><g
         id="g412"
         transform="translate(-12.2481,80.5519)"><path
           id="path410"
           style="fill:#74410b;fill-opacity:1;fill-rule:nonzero;stroke:none"
           d="m 0,0 c 0,0 9.063,8.883 22.31,0.468 l 1.913,-7.137 C 19.372,0.487 7.683,2.614 0,0" /></g><g
         id="g416"
         transform="translate(48.1845,80.5519)"><path
           id="path414"
           style="fill:#74410b;fill-opacity:1;fill-rule:nonzero;stroke:none"
           d="m 0,0 c 0,0 -9.063,8.883 -22.31,0.468 l -1.913,-7.137 C -19.372,0.487 -7.683,2.614 0,0" /></g><g
         id="g420"
         transform="translate(-12.3111,80.5519)"><path
           id="path418"
           style="fill:none;stroke:#74410b;stroke-opacity:1;stroke-width:0.894;stroke-linecap:butt;stroke-linejoin:miter;stroke-miterlimit:10;stroke-dasharray:none"
           d="m 0,0 c 10.378,3.263 25.325,-1.263 26.461,-12.819 0.685,-6.973 -3.671,-10.256 -3.671,-10.256 l 7.489,-4.802 7.489,4.802 c 0,0 -4.356,3.283 -3.67,10.256 C 35.234,-1.263 50.18,3.263 60.559,0" /></g><g
         id="g424"
         transform="translate(28.6163,48.9086)"><path
           id="path422"
           style="fill:#000000;fill-opacity:1;fill-rule:nonzero;stroke:none"
           d="M 0,0 -5.345,0.72 C -7.108,0.958 -8.848,0.094 -9.912,-1.547 l -0.736,-1.136 -0.737,1.136 c -1.063,1.641 -2.803,2.505 -4.566,2.267 L -21.296,0 C -14.198,-10.717 -7.099,-10.717 0,0" /></g><g
         id="g428"
         transform="translate(5.6784,50.0125)"><path
           id="path426"
           style="fill:none;stroke:#74410b;stroke-opacity:1;stroke-width:0.894;stroke-linecap:butt;stroke-linejoin:miter;stroke-miterlimit:10;stroke-dasharray:none"
           d="M 0,0 C 8.193,-5.906 16.386,-5.906 24.58,0" /></g><g
         id="g432"
         transform="translate(26.1208,34.899)"><path
           id="path430"
           style="fill:none;stroke:#74410b;stroke-opacity:1;stroke-width:0.894;stroke-linecap:butt;stroke-linejoin:miter;stroke-miterlimit:10;stroke-dasharray:none"
           d="M 0,0 C -5.435,4.965 -10.87,4.965 -16.305,0" /></g><g
         id="g436"
         transform="translate(463.2368,484.6067)"><path
           id="path434"
           style="fill:none;stroke:#cd9e64;stroke-opacity:1;stroke-width:0.894;stroke-linecap:butt;stroke-linejoin:miter;stroke-miterlimit:10;stroke-dasharray:none"
           d="m 0,0 1.853,-7.054 m -48.434,-19.517 5.15,-5.202 m -32.2,-41.094 7.035,-1.924 m -7.314,-51.698 7.054,1.853 m 19.517,-48.433 5.202,5.149 m 49.658,-0.887 -6.64,-24.278 -1.924,-7.035 m 51.769,6.776 1.853,-7.054 m 41.431,31.772 5.143,-5.201 m 20.023,48.219 7.034,-1.924 m -6.782,51.77 7.061,1.852 m -31.773,41.431 5.202,5.143 m -48.22,20.023 1.924,7.034 m -3.82,-13.96 -7.368,-26.938 m 27.348,-15.979 19.85,19.644 m 22.858,-40.07 -27.013,-7.088 m 26.773,-39.042 -26.938,7.368 m 3.665,-47.199 -19.645,19.851 m -27.513,-15.695 7.088,-27.013 m -46.131,0.24 7.369,26.938 m -27.349,15.979 -19.85,-19.645 m -22.857,40.071 27.013,7.088 m -26.774,39.042 26.938,-7.368 m -3.665,47.198 19.645,-19.85 m 20.425,42.708 7.088,-27.013 M 81.873,-3.925 50.104,-58.951 m 72.46,14.336 -55.027,-31.77 m 69.92,-23.814 -63.539,0 m 48.646,-55.585 -55.027,31.77 m 14.336,-72.46 -31.769,55.026 m -23.815,-69.92 0,63.539 m -55.584,-48.645 31.769,55.026 m -72.459,-14.336 55.026,31.77 m -69.92,23.815 63.539,0 m -48.645,55.584 55.026,-31.77 m -14.336,72.46 31.769,-55.026 m 23.815,69.92 0,-63.539" /></g><g
         id="g440"
         transform="translate(414.5926,281.1257)"><path
           id="path438"
           style="fill:#fdf7ec;fill-opacity:1;fill-rule:nonzero;stroke:none"
           d="m 0,0 c 0,-2.411 -1.954,-4.365 -4.365,-4.365 -2.411,0 -4.365,1.954 -4.365,4.365 0,2.411 1.954,4.365 4.365,4.365 C -1.954,4.365 0,2.411 0,0" /></g><g
         id="g444"
         transform="translate(356.4368,252.8314)"><path
           id="path442"
           style="fill:#fdf7ec;fill-opacity:1;fill-rule:nonzero;stroke:none"
           d="m 0,0 c 0,-1.529 -1.24,-2.768 -2.768,-2.768 -1.53,0 -2.769,1.239 -2.769,2.768 0,1.529 1.239,2.769 2.769,2.769 C -1.24,2.769 0,1.529 0,0" /></g><g
         id="g448"
         transform="translate(422.5447,272.5251)"><path
           id="path446"
           style="fill:#cd9e64;fill-opacity:1;fill-rule:nonzero;stroke:none"
           d="m 0,0 c 1.839,0.119 3.231,0.636 3.231,0.636 0,0 -1.392,0.517 -3.231,0.636 -0.098,2.535 -0.739,4.498 -0.739,4.498 0,0 -0.641,-1.963 -0.739,-4.498 -1.839,-0.119 -3.231,-0.636 -3.231,-0.636 0,0 1.392,-0.517 3.231,-0.636 0.098,-2.535 0.739,-4.498 0.739,-4.498 0,0 0.641,1.963 0.739,4.498" /></g><g
         id="g452"
         transform="translate(329.9148,192.4393)"><path
           id="path450"
           style="fill:none;stroke:#74410b;stroke-opacity:1;stroke-width:0.894;stroke-linecap:butt;stroke-linejoin:miter;stroke-miterlimit:10;stroke-dasharray:none"
           d="m 0,0 7.543,0 m -3.772,-3.771 0,7.542" /></g><g
         id="g456"
         transform="translate(378.452,282.9753)"><path
           id="path454"
           style="fill:none;stroke:#74410b;stroke-opacity:1;stroke-width:0.531;stroke-linecap:butt;stroke-linejoin:miter;stroke-miterlimit:10;stroke-dasharray:none"
           d="m 0,0 c 3.383,-4.238 7.275,-7.927 9.338,-12.942 m 12.088,-18.506 c -1.475,3.52 -3.943,8.218 -3.992,12.033 m -14.872,9.403 c 3.578,-1.281 8.205,-4.613 10.471,-7.663 m 14.558,-33.103 c 5.421,-3.694 9.243,-7.557 13.825,-12.251 m 34.271,-31.693 c 6.683,2.385 11.769,2.396 17.443,2.008 m 1.685,-7.831 c 2.619,3.632 7.672,5.685 12.125,6.156 m 8.079,-0.04 c -3.15,0.011 -7.731,1.5 -9.188,4.293 m -22.572,-0.062 c -4.253,1.862 -9.774,5.193 -12.622,8.86 m -34.2,13.077 c 6.842,-1.152 14.668,-4.9 20.469,-8.707 M -26.549,2.308 c 14.351,3.254 28.867,-6.014 37.859,-17.662 8.992,-11.648 14.296,-25.717 22.522,-37.918 11.203,-16.618 27.891,-29.471 46.817,-36.062 18.927,-6.59 39.988,-6.881 59.09,-0.816" /></g><g
         id="g460"
         transform="translate(434.497,212.0164)"><path
           id="path458"
           style="fill:#ae6d33;fill-opacity:1;fill-rule:nonzero;stroke:none"
           d="M 0,0 C -3.612,6.015 -3.9,11.524 -4.719,17.568 -5.538,23.612 -6.276,29.78 -8.796,35.334 0.14,26.699 8.596,17.261 13.118,5.687 c 3.507,-8.976 7.049,-21.02 7.049,-21.02 0,0 -13.855,4.823 -20.167,15.333" /></g><g
         id="g464"
         transform="translate(390.2601,241.6888)"><path
           id="path462"
           style="fill:#ae6d33;fill-opacity:1;fill-rule:nonzero;stroke:none"
           d="M 0,0 C -5.855,5.865 -8.27,11.672 -12.038,19.053 -11.435,17.872 -1.485,12.162 7.063,3.86 15.569,-4.402 18.253,-11.229 18.253,-11.229 18.253,-11.229 7.231,-7.243 0,0" /></g><g
         id="g468"
         transform="translate(390.8814,276.1467)"><path
           id="path466"
           style="fill:#74410b;fill-opacity:1;fill-rule:nonzero;stroke:none"
           d="M 0,0 C -0.492,8.663 0.04,11.066 -1.589,18.808 7.737,7.224 7.012,-6.378 5.268,-16.33 5.268,-16.33 0.528,-9.302 0,0" /></g><g
         id="g472"
         transform="translate(370.0435,277.7994)"><path
           id="path470"
           style="fill:#74410b;fill-opacity:1;fill-rule:nonzero;stroke:none"
           d="m 0,0 c -5.264,0.148 -10.408,-2.421 -14.262,-6.009 2.892,1.743 6.589,2.161 9.837,1.238 C 10.91,-9.132 13.596,-5.75 13.596,-5.75 13.596,-5.75 9.252,-0.26 0,0" /></g><g
         id="g476"
         transform="translate(410.1534,220.9582)"><path
           id="path474"
           style="fill:#74410b;fill-opacity:1;fill-rule:nonzero;stroke:none"
           d="m 0,0 c -5.181,1.04 -12.05,0.524 -17.39,-1.342 12.245,-9.689 27.91,-6.886 33.068,-8.82 0,0 -6.572,8.334 -15.678,10.162" /></g><g
         id="g480"
         transform="translate(361.2203,302.1525)"><path
           id="path478"
           style="fill:#ae6d33;fill-opacity:1;fill-rule:nonzero;stroke:none"
           d="m 0,0 c 15.1,-10.625 16.572,-16.159 20.732,-23.756 0,0 -8.406,4.932 -13.656,10.013 C 3.332,-10.12 1.068,-5.111 0,0" /></g><g
         id="g484"
         transform="translate(336.988,287.0283)"><path
           id="path482"
           style="fill:#74410b;fill-opacity:1;fill-rule:nonzero;stroke:none"
           d="m 0,0 c 2.647,0.697 5.239,1.644 7.94,2.09 17.659,2.916 23.027,-4.971 23.027,-4.971 0,0 -6.245,-1.148 -11.029,-0.962 C 11.867,-3.528 6.16,-0.036 0,0" /></g><g
         id="g488"
         transform="translate(403.1222,175.3643)"><path
           id="path486"
           style="fill:#74410b;fill-opacity:1;fill-rule:nonzero;stroke:none"
           d="m 0,0 c 4.512,4.456 13.521,5.688 19.489,6.277 3.546,0.35 7.112,0.425 10.672,0.419 3.216,-0.006 7.851,-0.049 11.087,0.872 9.656,2.749 15.153,7.09 15.153,7.09 0,0 -8.713,2.71 -16.719,3.195 C 34.119,18.19 24.983,15.676 20.312,13.651 12.786,10.389 5.839,5.767 0,0" /></g><g
         id="g492"
         transform="translate(466.0537,204.7753)"><path
           id="path490"
           style="fill:#74410b;fill-opacity:1;fill-rule:nonzero;stroke:none"
           d="M 0,0 C -3.812,6.295 -5.52,13.645 -8.28,20.467 -5.201,13.066 2.008,8.456 8.394,3.611 22.107,-6.793 21.413,-14.965 21.413,-14.965 c 0,0 -12.895,0.9 -21.413,14.965" /></g><g
         id="g496"
         transform="translate(410.129,238.4104)"><path
           id="path494"
           style="fill:#74410b;fill-opacity:1;fill-rule:nonzero;stroke:none"
           d="M 0,0 C -3.307,10.037 -1.352,15.933 -0.872,23.921 -0.977,22.18 6.476,12.69 8.049,5.479 11.089,-8.456 6.232,-14.262 6.232,-14.262 6.232,-14.262 2.929,-8.89 0,0" /></g><g
         id="g500"
         transform="translate(463.5801,175.4773)"><path
           id="path498"
           style="fill:#ae6d33;fill-opacity:1;fill-rule:nonzero;stroke:none"
           d="m 0,0 c -3.43,-4.519 -5.272,-10.039 -7.513,-15.251 4.393,4.114 7.714,6.209 11.751,10.673 10.323,11.414 10.665,15.7 10.665,15.7 C 14.903,11.122 8.036,10.587 0,0" /></g><g
         id="g504"
         transform="translate(554.368,384.4072)"><path
           id="path502"
           style="fill:#fdf7ec;fill-opacity:1;fill-rule:nonzero;stroke:none"
           d="m 0,0 c 0,-35.811 -29.031,-64.842 -64.842,-64.842 -35.811,0 -64.842,29.031 -64.842,64.842 0,35.811 29.031,64.842 64.842,64.842 C -29.031,64.842 0,35.811 0,0" /></g><g
         id="g508"
         transform="translate(465.2729,360.0095)"><path
           id="path506"
           style="fill:#b7814e;fill-opacity:1;fill-rule:nonzero;stroke:none"
           d="m 0,0 c 1.741,-2.868 6.855,-5.736 14.997,-8.603 -4.973,-3.682 -9.248,-7.363 -11.504,-11.045 -2.42,-3.681 -2.82,-7.363 -3.876,-11.044 -1.012,-3.682 -2.676,-7.363 -6.6,-11.045 -3.668,-3.681 -9.596,-7.362 -13.275,-11.044 2.272,4.399 6.066,8.797 8.02,13.195 2.141,4.399 2.441,8.797 2.084,13.195 C -11.182,-17.594 -13.393,-8.797 0,0" /></g><g
         id="g512"
         transform="translate(465.2729,360.0095)"><path
           id="path510"
           style="fill:#cd9e64;fill-opacity:1;fill-rule:nonzero;stroke:none"
           d="m 0,0 c 0.945,-1.434 2.559,-2.868 5.085,-4.302 -4.706,-4.04 -7.875,-8.08 -9.171,-12.12 -1.416,-4.039 -0.959,-8.079 -1.233,-12.119 -0.223,-4.04 -1.174,-8.08 -4.22,-12.12 -2.821,-4.04 -7.737,-8.08 -10.719,-12.12 2.272,4.399 6.066,8.797 8.02,13.195 2.141,4.399 2.441,8.797 2.084,13.195 C -11.182,-17.594 -13.393,-8.797 0,0" /></g><g
         id="g516"
         transform="translate(227.458,324.3794)"><path
           id="path514"
           style="fill:none;stroke:#cd9e64;stroke-opacity:1;stroke-width:0.894;stroke-linecap:butt;stroke-linejoin:miter;stroke-miterlimit:10;stroke-dasharray:none"
           d="m 0,0 1.853,-7.054 m -48.434,-19.517 5.15,-5.202 m -32.2,-41.094 7.034,-1.924 m -7.313,-51.698 7.054,1.853 m 19.517,-48.433 5.202,5.149 m 49.658,-0.887 -6.64,-24.278 -1.924,-7.035 m 51.769,6.776 1.853,-7.054 m 41.431,31.772 5.143,-5.201 m 20.022,48.219 7.035,-1.924 m -6.782,51.77 7.061,1.852 m -31.773,41.431 5.201,5.143 m -48.219,20.023 1.924,7.034 m -3.82,-13.96 -7.369,-26.938 m 27.349,-15.979 19.85,19.644 m 22.858,-40.07 -27.014,-7.088 m 26.774,-39.042 -26.938,7.368 m 3.665,-47.199 -19.645,19.851 m -27.513,-15.695 7.088,-27.013 m -46.131,0.24 7.369,26.938 m -27.349,15.98 -19.85,-19.645 m -22.858,40.07 27.014,7.088 m -26.774,39.042 26.938,-7.368 m -3.665,47.198 19.645,-19.85 m 20.425,42.708 7.088,-27.013 M 81.873,-3.925 50.104,-58.951 m 72.46,14.336 -55.027,-31.77 m 69.92,-23.814 -63.539,0 m 48.646,-55.585 -55.027,31.77 m 14.336,-72.46 -31.769,55.026 m -23.815,-69.92 0,63.539 m -55.584,-48.645 31.769,55.026 m -72.459,-14.336 55.026,31.77 m -69.92,23.815 63.539,0 m -48.645,55.584 55.026,-31.77 m -14.336,72.46 31.769,-55.026 m 23.815,69.92 0,-63.539" /></g><g
         id="g520"
         transform="translate(178.8137,120.8984)"><path
           id="path518"
           style="fill:#fdf7ec;fill-opacity:1;fill-rule:nonzero;stroke:none"
           d="m 0,0 c 0,-2.411 -1.954,-4.365 -4.365,-4.365 -2.411,0 -4.365,1.954 -4.365,4.365 0,2.411 1.954,4.365 4.365,4.365 C -1.954,4.365 0,2.411 0,0" /></g><g
         id="g524"
         transform="translate(374.5439,293.0596)"><path
           id="path522"
           style="fill:#fdf7ec;fill-opacity:1;fill-rule:nonzero;stroke:none"
           d="m 0,0 c 0,-2.768 -2.244,-5.012 -5.012,-5.012 -2.768,0 -5.012,2.244 -5.012,5.012 0,2.768 2.244,5.012 5.012,5.012 C -2.244,5.012 0,2.768 0,0" /></g><g
         id="g528"
         transform="translate(120.6579,92.6042)"><path
           id="path526"
           style="fill:#fdf7ec;fill-opacity:1;fill-rule:nonzero;stroke:none"
           d="m 0,0 c 0,-1.529 -1.24,-2.768 -2.768,-2.768 -1.529,0 -2.769,1.239 -2.769,2.768 0,1.529 1.24,2.768 2.769,2.768 C -1.24,2.768 0,1.529 0,0" /></g><g
         id="g532"
         transform="translate(102.123,317.687)"><path
           id="path530"
           style="fill:#fdf7ec;fill-opacity:1;fill-rule:nonzero;stroke:none"
           d="m 0,0 c 0,-1.529 -1.239,-2.768 -2.768,-2.768 -1.529,0 -2.769,1.239 -2.769,2.768 0,1.529 1.24,2.769 2.769,2.769 C -1.239,2.769 0,1.529 0,0" /></g><g
         id="g536"
         transform="translate(407.7761,241.3704)"><path
           id="path534"
           style="fill:#fdf7ec;fill-opacity:1;fill-rule:nonzero;stroke:none"
           d="m 0,0 c 0,-1.192 -0.966,-2.159 -2.159,-2.159 -1.192,0 -2.158,0.967 -2.158,2.159 0,1.192 0.966,2.159 2.158,2.159 C -0.966,2.159 0,1.192 0,0" /></g><g
         id="g540"
         transform="translate(282.9368,215.8596)"><path
           id="path538"
           style="fill:#fdf7ec;fill-opacity:1;fill-rule:nonzero;stroke:none"
           d="m 0,0 c 0,-1.192 -0.966,-2.159 -2.159,-2.159 -1.192,0 -2.158,0.967 -2.158,2.159 0,1.192 0.966,2.159 2.158,2.159 C -0.966,2.159 0,1.192 0,0" /></g><g
         id="g544"
         transform="translate(162.9632,201.7405)"><path
           id="path542"
           style="fill:#fdf7ec;fill-opacity:1;fill-rule:nonzero;stroke:none"
           d="m 0,0 c 0,-1.192 -0.966,-2.159 -2.159,-2.159 -1.192,0 -2.158,0.967 -2.158,2.159 0,1.192 0.966,2.159 2.158,2.159 C -0.966,2.159 0,1.192 0,0" /></g><g
         id="g548"
         transform="translate(127.9291,249.3175)"><path
           id="path546"
           style="fill:#fdf7ec;fill-opacity:1;fill-rule:nonzero;stroke:none"
           d="m 0,0 c 0,-1.192 -0.966,-2.159 -2.159,-2.159 -1.192,0 -2.158,0.967 -2.158,2.159 0,1.192 0.966,2.159 2.158,2.159 C -0.966,2.159 0,1.192 0,0" /></g><g
         id="g552"
         transform="translate(246.2954,89.8357)"><path
           id="path550"
           style="fill:#fdf7ec;fill-opacity:1;fill-rule:nonzero;stroke:none"
           d="m 0,0 c 0,-1.237 -1.003,-2.24 -2.24,-2.24 -1.237,0 -2.24,1.003 -2.24,2.24 0,1.237 1.003,2.24 2.24,2.24 C -1.003,2.24 0,1.237 0,0" /></g><g
         id="g556"
         transform="translate(334.9085,55.2516)"><path
           id="path554"
           style="fill:#fdf7ec;fill-opacity:1;fill-rule:nonzero;stroke:none"
           d="m 0,0 c 0,-3.196 -2.591,-5.786 -5.786,-5.786 -3.196,0 -5.787,2.59 -5.787,5.786 0,3.196 2.591,5.786 5.787,5.786 C -2.591,5.786 0,3.196 0,0" /></g><g
         id="g560"
         transform="translate(302.4462,85.3309)"><path
           id="path558"
           style="fill:#cd9e64;fill-opacity:1;fill-rule:nonzero;stroke:none"
           d="m 0,0 c 3.478,0.226 6.11,1.203 6.11,1.203 0,0 -2.632,0.977 -6.11,1.202 -0.184,4.794 -1.397,8.506 -1.397,8.506 0,0 -1.212,-3.712 -1.397,-8.506 -3.477,-0.225 -6.11,-1.202 -6.11,-1.202 0,0 2.633,-0.977 6.11,-1.203 0.185,-4.794 1.397,-8.506 1.397,-8.506 0,0 1.213,3.712 1.397,8.506" /></g><g
         id="g564"
         transform="translate(186.7659,112.2978)"><path
           id="path562"
           style="fill:#cd9e64;fill-opacity:1;fill-rule:nonzero;stroke:none"
           d="m 0,0 c 1.839,0.119 3.231,0.636 3.231,0.636 0,0 -1.392,0.517 -3.231,0.636 -0.098,2.535 -0.739,4.498 -0.739,4.498 0,0 -0.641,-1.963 -0.739,-4.498 -1.839,-0.119 -3.231,-0.636 -3.231,-0.636 0,0 1.392,-0.517 3.231,-0.636 0.098,-2.535 0.739,-4.498 0.739,-4.498 0,0 0.641,1.963 0.739,4.498" /></g><g
         id="g568"
         transform="translate(365.654,309.7445)"><path
           id="path566"
           style="fill:#cd9e64;fill-opacity:1;fill-rule:nonzero;stroke:none"
           d="m 0,0 c 1.839,0.119 3.231,0.636 3.231,0.636 0,0 -1.392,0.517 -3.231,0.636 -0.098,2.535 -0.739,4.498 -0.739,4.498 0,0 -0.641,-1.963 -0.739,-4.498 -1.839,-0.119 -3.231,-0.636 -3.231,-0.636 0,0 1.392,-0.517 3.231,-0.636 0.098,-2.535 0.739,-4.498 0.739,-4.498 0,0 0.641,1.963 0.739,4.498" /></g><g
         id="g572"
         transform="translate(116.582,183.8446)"><path
           id="path570"
           style="fill:#cd9e64;fill-opacity:1;fill-rule:nonzero;stroke:none"
           d="m 0,0 c 1.839,0.119 3.231,0.636 3.231,0.636 0,0 -1.392,0.517 -3.231,0.636 -0.098,2.535 -0.739,4.498 -0.739,4.498 0,0 -0.641,-1.963 -0.739,-4.498 -1.839,-0.119 -3.231,-0.636 -3.231,-0.636 0,0 1.392,-0.517 3.231,-0.636 0.098,-2.535 0.739,-4.498 0.739,-4.498 0,0 0.641,1.963 0.739,4.498" /></g><g
         id="g576"
         transform="translate(320.1247,111.6927)"><path
           id="path574"
           style="fill:none;stroke:#74410b;stroke-opacity:1;stroke-width:0.894;stroke-linecap:butt;stroke-linejoin:miter;stroke-miterlimit:10;stroke-dasharray:none"
           d="m 0,0 14.501,0 m -7.25,-7.251 0,14.502" /></g><g
         id="g580"
         transform="translate(94.1359,32.212)"><path
           id="path578"
           style="fill:none;stroke:#74410b;stroke-opacity:1;stroke-width:0.894;stroke-linecap:butt;stroke-linejoin:miter;stroke-miterlimit:10;stroke-dasharray:none"
           d="m 0,0 7.543,0 m -3.772,-3.771 0,7.542" /></g><g
         id="g584"
         transform="translate(368.0106,274.2229)"><path
           id="path582"
           style="fill:none;stroke:#74410b;stroke-opacity:1;stroke-width:0.894;stroke-linecap:butt;stroke-linejoin:miter;stroke-miterlimit:10;stroke-dasharray:none"
           d="m 0,0 8.73,0 m -4.365,-4.365 0,8.73" /></g><g
         id="g588"
         transform="translate(241.5018,79.0694)"><path
           id="path586"
           style="fill:none;stroke:#74410b;stroke-opacity:1;stroke-width:0.894;stroke-linecap:butt;stroke-linejoin:miter;stroke-miterlimit:10;stroke-dasharray:none"
           d="m 0,0 5.978,0 m -2.989,-2.989 0,5.978" /></g><g
         id="g592"
         transform="translate(142.6731,122.748)"><path
           id="path590"
           style="fill:none;stroke:#74410b;stroke-opacity:1;stroke-width:0.531;stroke-linecap:butt;stroke-linejoin:miter;stroke-miterlimit:10;stroke-dasharray:none"
           d="m 0,0 c 3.383,-4.238 7.275,-7.927 9.338,-12.942 m 12.088,-18.506 c -1.475,3.52 -3.942,8.218 -3.992,12.033 m -14.872,9.403 c 3.578,-1.281 8.205,-4.613 10.471,-7.664 m 14.559,-33.102 c 5.42,-3.694 9.242,-7.557 13.824,-12.251 m 34.271,-31.693 c 6.683,2.385 11.769,2.396 17.443,2.008 m 1.685,-7.831 c 2.619,3.632 7.672,5.685 12.125,6.156 m 8.079,-0.04 c -3.15,0.011 -7.731,1.5 -9.187,4.293 m -22.573,-0.062 c -4.253,1.862 -9.774,5.193 -12.622,8.86 m -34.2,13.077 c 6.842,-1.152 14.668,-4.9 20.469,-8.707 M -26.549,2.308 c 14.351,3.254 28.867,-6.014 37.859,-17.662 8.993,-11.648 14.296,-25.717 22.522,-37.918 11.204,-16.618 27.891,-29.471 46.817,-36.062 18.927,-6.59 39.989,-6.881 59.09,-0.816" /></g><g
         id="g596"
         transform="translate(198.7181,51.7891)"><path
           id="path594"
           style="fill:#ae6d33;fill-opacity:1;fill-rule:nonzero;stroke:none"
           d="M 0,0 C -3.612,6.014 -3.9,11.524 -4.719,17.568 -5.538,23.612 -6.276,29.78 -8.796,35.334 0.14,26.699 8.596,17.261 13.118,5.687 c 3.507,-8.976 7.049,-21.02 7.049,-21.02 0,0 -13.855,4.822 -20.167,15.333" /></g><g
         id="g600"
         transform="translate(154.4812,81.4616)"><path
           id="path598"
           style="fill:#ae6d33;fill-opacity:1;fill-rule:nonzero;stroke:none"
           d="M 0,0 C -5.855,5.865 -8.27,11.672 -12.038,19.053 -11.435,17.872 -1.485,12.162 7.063,3.86 15.569,-4.402 18.253,-11.229 18.253,-11.229 18.253,-11.229 7.231,-7.243 0,0" /></g><g
         id="g604"
         transform="translate(155.1025,115.9194)"><path
           id="path602"
           style="fill:#74410b;fill-opacity:1;fill-rule:nonzero;stroke:none"
           d="M 0,0 C -0.492,8.663 0.04,11.066 -1.589,18.808 7.736,7.224 7.012,-6.378 5.268,-16.33 5.268,-16.33 0.528,-9.301 0,0" /></g><g
         id="g608"
         transform="translate(134.2646,117.5721)"><path
           id="path606"
           style="fill:#74410b;fill-opacity:1;fill-rule:nonzero;stroke:none"
           d="m 0,0 c -5.264,0.148 -10.408,-2.421 -14.262,-6.009 2.892,1.743 6.589,2.161 9.837,1.238 C 10.91,-9.132 13.596,-5.75 13.596,-5.75 13.596,-5.75 9.252,-0.26 0,0" /></g><g
         id="g612"
         transform="translate(174.3745,60.7309)"><path
           id="path610"
           style="fill:#74410b;fill-opacity:1;fill-rule:nonzero;stroke:none"
           d="m 0,0 c -5.181,1.04 -12.05,0.524 -17.39,-1.342 12.245,-9.689 27.91,-6.886 33.068,-8.82 0,0 -6.572,8.334 -15.678,10.162" /></g><g
         id="g616"
         transform="translate(125.4414,141.9252)"><path
           id="path614"
           style="fill:#ae6d33;fill-opacity:1;fill-rule:nonzero;stroke:none"
           d="m 0,0 c 15.1,-10.625 16.572,-16.159 20.732,-23.756 0,0 -8.406,4.932 -13.656,10.013 C 3.332,-10.12 1.068,-5.111 0,0" /></g><g
         id="g620"
         transform="translate(101.2091,126.801)"><path
           id="path618"
           style="fill:#74410b;fill-opacity:1;fill-rule:nonzero;stroke:none"
           d="m 0,0 c 2.647,0.697 5.24,1.644 7.94,2.09 17.659,2.916 23.027,-4.971 23.027,-4.971 0,0 -6.245,-1.148 -11.029,-0.962 C 11.867,-3.528 6.16,-0.036 0,0" /></g><g
         id="g624"
         transform="translate(167.3433,15.137)"><path
           id="path622"
           style="fill:#74410b;fill-opacity:1;fill-rule:nonzero;stroke:none"
           d="m 0,0 c 4.512,4.456 13.521,5.688 19.489,6.277 3.546,0.35 7.112,0.425 10.672,0.419 3.216,-0.006 7.851,-0.049 11.087,0.872 9.656,2.749 15.153,7.09 15.153,7.09 0,0 -8.713,2.71 -16.719,3.195 C 34.119,18.19 24.983,15.676 20.312,13.651 12.786,10.389 5.839,5.767 0,0" /></g><g
         id="g628"
         transform="translate(230.2749,44.5481)"><path
           id="path626"
           style="fill:#74410b;fill-opacity:1;fill-rule:nonzero;stroke:none"
           d="M 0,0 C -3.812,6.295 -5.52,13.645 -8.28,20.467 -5.201,13.066 2.008,8.456 8.394,3.611 22.107,-6.793 21.412,-14.965 21.412,-14.965 c 0,0 -12.894,0.9 -21.412,14.965" /></g><g
         id="g632"
         transform="translate(174.3501,78.1831)"><path
           id="path630"
           style="fill:#74410b;fill-opacity:1;fill-rule:nonzero;stroke:none"
           d="M 0,0 C -3.307,10.037 -1.352,15.933 -0.872,23.921 -0.977,22.18 6.476,12.69 8.049,5.479 11.089,-8.456 6.232,-14.262 6.232,-14.262 6.232,-14.262 2.929,-8.89 0,0" /></g><g
         id="g636"
         transform="translate(227.8012,15.25)"><path
           id="path634"
           style="fill:#ae6d33;fill-opacity:1;fill-rule:nonzero;stroke:none"
           d="m 0,0 c -3.43,-4.519 -5.272,-10.039 -7.513,-15.251 4.393,4.114 7.714,6.209 11.751,10.673 10.323,11.414 10.665,15.7 10.665,15.7 C 14.903,11.122 8.036,10.588 0,0" /></g><g
         id="g640"
         transform="translate(318.5891,224.1799)"><path
           id="path638"
           style="fill:#fdf7ec;fill-opacity:1;fill-rule:nonzero;stroke:none"
           d="m 0,0 c 0,-35.811 -29.031,-64.842 -64.842,-64.842 -35.811,0 -64.842,29.031 -64.842,64.842 0,35.811 29.031,64.842 64.842,64.842 C -29.031,64.842 0,35.811 0,0" /></g><g
         id="g644"
         transform="translate(262.3505,257.3192)"><path
           id="path642"
           style="fill:#b7814e;fill-opacity:1;fill-rule:nonzero;stroke:none"
           d="M 0,0 -17.207,0 -8.603,55.979 0,0 Z" /></g><g
         id="g648"
         transform="translate(262.3505,257.3192)"><path
           id="path646"
           style="fill:#ae6d33;fill-opacity:1;fill-rule:nonzero;stroke:none"
           d="M 0,0 -8.604,0 -8.603,55.979 0,0 Z" /></g><g
         id="g652"
         transform="translate(253.438,258.4164)"><path
           id="path650"
           style="fill:#74410b;fill-opacity:1;fill-rule:nonzero;stroke:none"
           d="M 0,0 -16.615,-4.474 -17.151,30.605 0,0 Z" /></g><g
         id="g656"
         transform="translate(253.438,258.4164)"><path
           id="path654"
           style="fill:#ae6d33;fill-opacity:1;fill-rule:nonzero;stroke:none"
           d="M 0,0 -8.307,-2.237 -17.151,30.605 0,0 Z" /></g><g
         id="g660"
         transform="translate(236.3612,253.675)"><path
           id="path658"
           style="fill:#74410b;fill-opacity:1;fill-rule:nonzero;stroke:none"
           d="M 0,0 -12.152,-12.182 -30.156,17.93 0,0 Z" /></g><g
         id="g664"
         transform="translate(236.3612,253.675)"><path
           id="path662"
           style="fill:#ae6d33;fill-opacity:1;fill-rule:nonzero;stroke:none"
           d="M 0,0 -6.076,-6.091 -30.156,17.93 0,0 Z" /></g><g
         id="g668"
         transform="translate(223.9428,241.0305)"><path
           id="path666"
           style="fill:#74410b;fill-opacity:1;fill-rule:nonzero;stroke:none"
           d="M 0,0 -4.433,-16.626 -35.081,0.45 0,0 Z" /></g><g
         id="g672"
         transform="translate(223.9428,241.0305)"><path
           id="path670"
           style="fill:#ae6d33;fill-opacity:1;fill-rule:nonzero;stroke:none"
           d="M 0,0 -2.216,-8.313 -35.081,0.45 0,0 Z" /></g><g
         id="g676"
         transform="translate(219.5106,223.8708)"><path
           id="path674"
           style="fill:#74410b;fill-opacity:1;fill-rule:nonzero;stroke:none"
           d="M 0,0 4.474,-16.615 -30.606,-17.151 0,0 Z" /></g><g
         id="g680"
         transform="translate(219.5106,223.8708)"><path
           id="path678"
           style="fill:#ae6d33;fill-opacity:1;fill-rule:nonzero;stroke:none"
           d="M 0,0 2.237,-8.307 -30.606,-17.151 0,0 Z" /></g><g
         id="g684"
         transform="translate(224.252,206.794)"><path
           id="path682"
           style="fill:#74410b;fill-opacity:1;fill-rule:nonzero;stroke:none"
           d="M 0,0 12.182,-12.152 -17.93,-30.156 0,0 Z" /></g><g
         id="g688"
         transform="translate(224.252,206.794)"><path
           id="path686"
           style="fill:#ae6d33;fill-opacity:1;fill-rule:nonzero;stroke:none"
           d="M 0,0 6.091,-6.076 -17.93,-30.156 0,0 Z" /></g><g
         id="g692"
         transform="translate(236.8965,194.3757)"><path
           id="path690"
           style="fill:#74410b;fill-opacity:1;fill-rule:nonzero;stroke:none"
           d="M 0,0 16.626,-4.433 -0.45,-35.081 0,0 Z" /></g><g
         id="g696"
         transform="translate(236.8965,194.3757)"><path
           id="path694"
           style="fill:#ae6d33;fill-opacity:1;fill-rule:nonzero;stroke:none"
           d="M 0,0 8.313,-2.217 -0.45,-35.081 0,0 Z" /></g><g
         id="g700"
         transform="translate(254.0562,189.9434)"><path
           id="path698"
           style="fill:#74410b;fill-opacity:1;fill-rule:nonzero;stroke:none"
           d="M 0,0 16.615,4.474 17.151,-30.606 0,0 Z" /></g><g
         id="g704"
         transform="translate(254.0562,189.9434)"><path
           id="path702"
           style="fill:#ae6d33;fill-opacity:1;fill-rule:nonzero;stroke:none"
           d="M 0,0 8.307,2.237 17.151,-30.606 0,0 Z" /></g><g
         id="g708"
         transform="translate(271.133,194.6847)"><path
           id="path706"
           style="fill:#74410b;fill-opacity:1;fill-rule:nonzero;stroke:none"
           d="M 0,0 12.152,12.182 30.156,-17.93 0,0 Z" /></g><g
         id="g712"
         transform="translate(271.133,194.6847)"><path
           id="path710"
           style="fill:#ae6d33;fill-opacity:1;fill-rule:nonzero;stroke:none"
           d="M 0,0 6.076,6.091 30.156,-17.93 0,0 Z" /></g><g
         id="g716"
         transform="translate(283.5513,207.3293)"><path
           id="path714"
           style="fill:#74410b;fill-opacity:1;fill-rule:nonzero;stroke:none"
           d="M 0,0 4.433,16.626 35.081,-0.45 0,0 Z" /></g><g
         id="g720"
         transform="translate(283.5513,207.3293)"><path
           id="path718"
           style="fill:#ae6d33;fill-opacity:1;fill-rule:nonzero;stroke:none"
           d="M 0,0 2.216,8.313 35.081,-0.45 0,0 Z" /></g><g
         id="g724"
         transform="translate(287.9836,224.4889)"><path
           id="path722"
           style="fill:#74410b;fill-opacity:1;fill-rule:nonzero;stroke:none"
           d="M 0,0 -4.474,16.615 30.605,17.151 0,0 Z" /></g><g
         id="g728"
         transform="translate(287.9836,224.4889)"><path
           id="path726"
           style="fill:#ae6d33;fill-opacity:1;fill-rule:nonzero;stroke:none"
           d="M 0,0 -2.237,8.308 30.605,17.151 0,0 Z" /></g><g
         id="g732"
         transform="translate(283.2422,241.5658)"><path
           id="path730"
           style="fill:#74410b;fill-opacity:1;fill-rule:nonzero;stroke:none"
           d="M 0,0 -12.182,12.152 17.93,30.156 0,0 Z" /></g><g
         id="g736"
         transform="translate(283.2422,241.5658)"><path
           id="path734"
           style="fill:#ae6d33;fill-opacity:1;fill-rule:nonzero;stroke:none"
           d="M 0,0 -6.091,6.076 17.93,30.156 0,0 Z" /></g><g
         id="g740"
         transform="translate(270.5976,253.9841)"><path
           id="path738"
           style="fill:#74410b;fill-opacity:1;fill-rule:nonzero;stroke:none"
           d="M 0,0 -16.626,4.433 0.449,35.081 0,0 Z" /></g><g
         id="g744"
         transform="translate(270.5976,253.9841)"><path
           id="path742"
           style="fill:#ae6d33;fill-opacity:1;fill-rule:nonzero;stroke:none"
           d="M 0,0 -8.313,2.216 0.449,35.081 0,0 Z" /></g><g
         id="g748"
         transform="translate(229.3493,248.2003)"><path
           id="path746"
           style="fill:#b7814e;fill-opacity:1;fill-rule:nonzero;stroke:none"
           d="M 0,0 -8.603,-14.902 -52.781,20.539 0,0 Z" /></g><g
         id="g752"
         transform="translate(229.3493,248.2003)"><path
           id="path750"
           style="fill:#ae6d33;fill-opacity:1;fill-rule:nonzero;stroke:none"
           d="M 0,0 -4.302,-7.451 -52.781,20.539 0,0 Z" /></g><g
         id="g756"
         transform="translate(220.7459,215.061)"><path
           id="path754"
           style="fill:#b7814e;fill-opacity:1;fill-rule:nonzero;stroke:none"
           d="M 0,0 8.603,-14.902 -44.177,-35.44 0,0 Z" /></g><g
         id="g760"
         transform="translate(220.7459,215.061)"><path
           id="path758"
           style="fill:#ae6d33;fill-opacity:1;fill-rule:nonzero;stroke:none"
           d="M 0,0 4.302,-7.451 -44.177,-35.44 0,0 Z" /></g><g
         id="g764"
         transform="translate(245.1436,191.0406)"><path
           id="path762"
           style="fill:#b7814e;fill-opacity:1;fill-rule:nonzero;stroke:none"
           d="M 0,0 17.207,0 8.604,-55.979 0,0 Z" /></g><g
         id="g768"
         transform="translate(245.1436,191.0406)"><path
           id="path766"
           style="fill:#ae6d33;fill-opacity:1;fill-rule:nonzero;stroke:none"
           d="m 0,0 8.604,0 0,-55.979 L 0,0 Z" /></g><g
         id="g772"
         transform="translate(278.1448,200.1594)"><path
           id="path770"
           style="fill:#b7814e;fill-opacity:1;fill-rule:nonzero;stroke:none"
           d="M 0,0 8.603,14.902 52.781,-20.538 0,0 Z" /></g><g
         id="g776"
         transform="translate(278.1448,200.1594)"><path
           id="path774"
           style="fill:#ae6d33;fill-opacity:1;fill-rule:nonzero;stroke:none"
           d="M 0,0 4.302,7.451 52.781,-20.538 0,0 Z" /></g><g
         id="g780"
         transform="translate(286.7482,233.2987)"><path
           id="path778"
           style="fill:#b7814e;fill-opacity:1;fill-rule:nonzero;stroke:none"
           d="M 0,0 -8.603,14.902 44.177,35.44 0,0 Z" /></g><g
         id="g784"
         transform="translate(286.7482,233.2987)"><path
           id="path782"
           style="fill:#ae6d33;fill-opacity:1;fill-rule:nonzero;stroke:none"
           d="M 0,0 -4.302,7.451 44.177,35.44 0,0 Z" /></g><g
         id="g788"
         transform="translate(278.0001,248.5777)"><path
           id="path786"
           style="fill:#b7814e;fill-opacity:1;fill-rule:nonzero;stroke:none"
           d="m 0,0 c -1.741,2.868 -6.854,5.736 -14.997,8.603 4.973,3.682 9.249,7.363 11.504,11.045 2.42,3.681 2.82,7.363 3.876,11.044 1.012,3.682 2.676,7.363 6.6,11.044 3.669,3.682 9.596,7.363 13.275,11.045 C 17.986,48.382 14.192,43.984 12.238,39.585 10.098,35.187 9.797,30.789 10.154,26.39 11.182,17.594 13.393,8.797 0,0" /></g><g
         id="g792"
         transform="translate(278.0001,248.5777)"><path
           id="path790"
           style="fill:#cd9e64;fill-opacity:1;fill-rule:nonzero;stroke:none"
           d="m 0,0 c -0.945,1.434 -2.559,2.868 -5.085,4.302 4.706,4.04 7.875,8.08 9.171,12.12 1.416,4.039 0.959,8.079 1.233,12.119 0.223,4.04 1.174,8.08 4.22,12.12 2.821,4.04 7.737,8.08 10.719,12.12 C 17.986,48.382 14.192,43.984 12.238,39.585 10.098,35.187 9.797,30.789 10.154,26.39 11.182,17.594 13.393,8.797 0,0" /></g><g
         id="g796"
         transform="translate(244.7445,257.3825)"><path
           id="path794"
           style="fill:#b7814e;fill-opacity:1;fill-rule:nonzero;stroke:none"
           d="m 0,0 c -3.354,-0.074 -8.395,-3.068 -14.949,-8.686 -0.702,6.147 -1.752,11.691 -3.813,15.484 -1.978,3.938 -4.966,6.125 -7.627,8.879 -2.682,2.718 -5.038,6 -6.264,11.238 -1.354,5.018 -1.578,11.993 -2.928,17.019 2.673,-4.167 4.586,-9.652 7.418,-13.543 2.739,-4.053 6.398,-6.512 10.385,-8.402 C -9.645,18.481 -0.922,15.997 0,0" /></g><g
         id="g800"
         transform="translate(244.7445,257.3825)"><path
           id="path798"
           style="fill:#cd9e64;fill-opacity:1;fill-rule:nonzero;stroke:none"
           d="m 0,0 c -1.714,-0.101 -3.763,-0.782 -6.268,-2.253 -1.145,6.096 -3.06,10.86 -5.911,14.002 -2.79,3.247 -6.517,4.871 -9.879,7.128 -3.387,2.213 -6.41,5.056 -8.386,9.714 -2.088,4.463 -3.129,10.741 -5.137,15.343 2.673,-4.167 4.586,-9.652 7.418,-13.543 2.739,-4.053 6.398,-6.512 10.385,-8.402 C -9.645,18.481 -0.922,15.997 0,0" /></g><g
         id="g804"
         transform="translate(220.4915,232.9848)"><path
           id="path802"
           style="fill:#b7814e;fill-opacity:1;fill-rule:nonzero;stroke:none"
           d="m 0,0 c -1.613,-2.942 -1.54,-8.804 0.048,-17.289 -5.675,2.465 -11.001,4.328 -15.317,4.44 -4.398,0.255 -7.787,-1.239 -11.502,-2.166 -3.695,-0.964 -7.715,-1.363 -12.865,0.194 -5.023,1.337 -11.175,4.63 -16.202,5.974 4.945,0.232 10.651,-0.855 15.437,-0.347 4.879,0.345 8.839,2.284 12.469,4.792 C -20.828,0.887 -14.315,7.2 0,0" /></g><g
         id="g808"
         transform="translate(220.4915,232.9848)"><path
           id="path806"
           style="fill:#cd9e64;fill-opacity:1;fill-rule:nonzero;stroke:none"
           d="m 0,0 c -0.769,-1.535 -1.204,-3.65 -1.183,-6.555 -5.852,2.056 -10.935,2.781 -15.081,1.882 -4.207,-0.793 -7.477,-3.209 -11.113,-4.991 -3.61,-1.827 -7.584,-3.024 -12.606,-2.406 -4.909,0.424 -10.866,2.661 -15.855,3.223 4.945,0.232 10.651,-0.855 15.437,-0.347 4.879,0.345 8.839,2.284 12.469,4.792 C -20.828,0.887 -14.315,7.2 0,0" /></g><g
         id="g812"
         transform="translate(229.494,199.7822)"><path
           id="path810"
           style="fill:#b7814e;fill-opacity:1;fill-rule:nonzero;stroke:none"
           d="m 0,0 c 1.741,-2.868 6.855,-5.736 14.997,-8.604 -4.973,-3.681 -9.248,-7.362 -11.504,-11.044 -2.42,-3.681 -2.82,-7.363 -3.876,-11.044 -1.012,-3.682 -2.676,-7.363 -6.6,-11.044 -3.668,-3.682 -9.596,-7.363 -13.275,-11.045 2.272,4.399 6.066,8.797 8.02,13.195 2.141,4.399 2.441,8.797 2.084,13.195 C -11.182,-17.594 -13.393,-8.797 0,0" /></g><g
         id="g816"
         transform="translate(229.494,199.7822)"><path
           id="path814"
           style="fill:#cd9e64;fill-opacity:1;fill-rule:nonzero;stroke:none"
           d="m 0,0 c 0.945,-1.434 2.559,-2.868 5.085,-4.302 -4.706,-4.04 -7.875,-8.08 -9.17,-12.119 -1.417,-4.041 -0.96,-8.08 -1.234,-12.12 -0.223,-4.04 -1.174,-8.08 -4.219,-12.12 -2.822,-4.04 -7.738,-8.08 -10.72,-12.12 2.272,4.399 6.066,8.797 8.02,13.195 2.141,4.399 2.441,8.797 2.084,13.195 C -11.182,-17.594 -13.393,-8.797 0,0" /></g><g
         id="g820"
         transform="translate(262.7496,190.9772)"><path
           id="path818"
           style="fill:#b7814e;fill-opacity:1;fill-rule:nonzero;stroke:none"
           d="m 0,0 c 3.354,0.074 8.395,3.068 14.949,8.686 0.702,-6.147 1.752,-11.691 3.813,-15.484 1.978,-3.937 4.966,-6.125 7.627,-8.879 2.682,-2.718 5.038,-6 6.264,-11.238 1.354,-5.018 1.578,-11.993 2.928,-17.019 -2.673,4.167 -4.586,9.652 -7.418,13.543 -2.739,4.053 -6.398,6.512 -10.385,8.402 C 9.645,-18.481 0.922,-15.997 0,0" /></g><g
         id="g824"
         transform="translate(262.7496,190.9772)"><path
           id="path822"
           style="fill:#cd9e64;fill-opacity:1;fill-rule:nonzero;stroke:none"
           d="m 0,0 c 1.714,0.101 3.763,0.782 6.268,2.253 1.145,-6.096 3.06,-10.86 5.911,-14.002 2.79,-3.247 6.517,-4.871 9.879,-7.128 3.387,-2.213 6.41,-5.056 8.386,-9.714 2.088,-4.463 3.129,-10.741 5.137,-15.343 -2.673,4.167 -4.586,9.652 -7.418,13.543 -2.739,4.053 -6.398,6.512 -10.385,8.402 C 9.645,-18.481 0.922,-15.997 0,0" /></g><g
         id="g828"
         transform="translate(287.0027,215.375)"><path
           id="path826"
           style="fill:#b7814e;fill-opacity:1;fill-rule:nonzero;stroke:none"
           d="m 0,0 c 1.613,2.942 1.54,8.804 -0.048,17.289 5.675,-2.465 11.001,-4.327 15.317,-4.44 4.398,-0.255 7.786,1.239 11.502,2.166 3.695,0.964 7.715,1.363 12.865,-0.194 5.023,-1.337 11.175,-4.63 16.202,-5.974 C 50.893,8.615 45.187,9.702 40.401,9.194 35.522,8.849 31.562,6.91 27.932,4.402 20.828,-0.887 14.315,-7.2 0,0" /></g><g
         id="g832"
         transform="translate(287.0027,215.375)"><path
           id="path830"
           style="fill:#cd9e64;fill-opacity:1;fill-rule:nonzero;stroke:none"
           d="M 0,0 C 0.769,1.535 1.204,3.65 1.183,6.555 7.035,4.499 12.118,3.774 16.264,4.673 c 4.207,0.793 7.477,3.209 11.113,4.991 3.61,1.827 7.584,3.024 12.606,2.406 C 44.892,11.646 50.849,9.409 55.838,8.847 50.893,8.615 45.187,9.702 40.401,9.194 35.522,8.849 31.562,6.91 27.932,4.402 20.828,-0.887 14.315,-7.2 0,0" /></g><g
         id="g836"
         transform="translate(288.5426,224.1799)"><path
           id="path834"
           style="fill:#dfb07a;fill-opacity:1;fill-rule:nonzero;stroke:none"
           d="m 0,0 c 0,-19.217 -15.578,-34.796 -34.796,-34.796 -19.217,0 -34.795,15.579 -34.795,34.796 0,19.217 15.578,34.796 34.795,34.796 C -15.578,34.796 0,19.217 0,0" /></g><g
         id="g844"><g
           id="g842"
           clip-path="url(#clipPath24)"><g
             id="g840"
             transform="translate(300.1372,208.4107)"><path
               id="path838"
               style="fill:#74410b;fill-opacity:1;fill-rule:nonzero;stroke:none"
               d="m 0,0 c 0,-8.901 -7.216,-16.116 -16.116,-16.116 -8.901,0 -16.117,7.215 -16.117,16.116 0,8.901 7.216,16.116 16.117,16.116 C -7.216,16.116 0,8.901 0,0 M -76.664,16.116 C -85.565,16.116 -92.78,8.901 -92.78,0 c 0,-8.901 7.215,-16.116 16.116,-16.116 8.901,0 16.116,7.215 16.116,16.116 0,8.901 -7.215,16.116 -16.116,16.116" /></g></g></g><g
         id="g848"
         transform="translate(248.0097,231.6914)"><path
           id="path846"
           style="fill:#ae6d33;fill-opacity:1;fill-rule:nonzero;stroke:none"
           d="m 0,0 c 0,0 -5.352,-6.439 -11.954,-6.439 -6.602,0 -11.954,6.439 -11.954,6.439 0,0 5.352,6.439 11.954,6.439 C -5.352,6.439 0,0 0,0" /></g><g
         id="g852"
         transform="translate(248.0097,228.9037)"><path
           id="path850"
           style="fill:#ffffff;fill-opacity:1;fill-rule:nonzero;stroke:none"
           d="m 0,0 c 0,0 -5.352,-6.439 -11.954,-6.439 -6.602,0 -11.954,6.439 -11.954,6.439 0,0 5.352,6.439 11.954,6.439 C -5.352,6.439 0,0 0,0" /></g><g
         id="g856"
         transform="translate(242.9615,228.8855)"><path
           id="path854"
           style="fill:#74410b;fill-opacity:1;fill-rule:nonzero;stroke:none"
           d="m 0,0 c 0,-3.738 -3.03,-6.768 -6.768,-6.768 -3.738,0 -6.768,3.03 -6.768,6.768 0,3.738 3.03,6.768 6.768,6.768 C -3.03,6.768 0,3.738 0,0" /></g><g
         id="g860"
         transform="translate(241.4132,228.8855)"><path
           id="path858"
           style="fill:#000000;fill-opacity:1;fill-rule:nonzero;stroke:none"
           d="m 0,0 c 0,-2.883 -2.337,-5.22 -5.219,-5.22 -2.883,0 -5.22,2.337 -5.22,5.22 0,2.883 2.337,5.219 5.22,5.219 C -2.337,5.219 0,2.883 0,0" /></g><g
         id="g864"
         transform="translate(253.7471,236.3498)"><path
           id="path862"
           style="fill:#ffffff;fill-opacity:1;fill-rule:nonzero;stroke:none"
           d="m 0,0 c 0,0 -4.171,3.467 -4.171,7.743 0,4.276 4.171,7.742 4.171,7.742 0,0 4.171,-3.466 4.171,-7.742 C 4.171,3.467 0,0 0,0" /></g><g
         id="g868"
         transform="translate(253.7471,239.8197)"><path
           id="path866"
           style="fill:#74410b;fill-opacity:1;fill-rule:nonzero;stroke:none"
           d="m 0,0 c -2.311,0 -4.184,1.873 -4.184,4.184 0,2.31 1.873,4.183 4.184,4.183 2.31,0 4.183,-1.873 4.183,-4.183 C 4.183,1.873 2.31,0 0,0" /></g><g
         id="g872"
         transform="translate(283.4172,231.6914)"><path
           id="path870"
           style="fill:#ae6d33;fill-opacity:1;fill-rule:nonzero;stroke:none"
           d="m 0,0 c 0,0 -5.352,-6.439 -11.954,-6.439 -6.602,0 -11.954,6.439 -11.954,6.439 0,0 5.352,6.439 11.954,6.439 C -5.352,6.439 0,0 0,0" /></g><g
         id="g876"
         transform="translate(283.4172,228.9037)"><path
           id="path874"
           style="fill:#ffffff;fill-opacity:1;fill-rule:nonzero;stroke:none"
           d="m 0,0 c 0,0 -5.352,-6.439 -11.954,-6.439 -6.602,0 -11.954,6.439 -11.954,6.439 0,0 5.352,6.439 11.954,6.439 C -5.352,6.439 0,0 0,0" /></g><g
         id="g880"
         transform="translate(278.3689,228.8855)"><path
           id="path878"
           style="fill:#74410b;fill-opacity:1;fill-rule:nonzero;stroke:none"
           d="m 0,0 c 0,-3.738 -3.03,-6.768 -6.768,-6.768 -3.738,0 -6.768,3.03 -6.768,6.768 0,3.738 3.03,6.768 6.768,6.768 C -3.03,6.768 0,3.738 0,0" /></g><g
         id="g884"
         transform="translate(276.8207,228.8855)"><path
           id="path882"
           style="fill:#000000;fill-opacity:1;fill-rule:nonzero;stroke:none"
           d="m 0,0 c 0,-2.883 -2.337,-5.22 -5.22,-5.22 -2.882,0 -5.219,2.337 -5.219,5.22 0,2.883 2.337,5.219 5.219,5.219 C -2.337,5.219 0,2.883 0,0" /></g><g
         id="g888"
         transform="translate(229.4342,233.3073)"><path
           id="path886"
           style="fill:none;stroke:#74410b;stroke-opacity:1;stroke-width:0.894;stroke-linecap:butt;stroke-linejoin:miter;stroke-miterlimit:10;stroke-dasharray:none"
           d="M 0,0 -1.231,2.874 M -2.383,-1.73 -4.215,0.803 m -2.804,-2.444 2.48,-1.904" /></g><g
         id="g892"
         transform="translate(279.2911,236.181)"><path
           id="path890"
           style="fill:none;stroke:#000000;stroke-opacity:1;stroke-width:0.568;stroke-linecap:butt;stroke-linejoin:miter;stroke-miterlimit:10;stroke-dasharray:none"
           d="m 0,0 -1.231,-2.874 m 4.215,0.803 -1.833,-2.533 m 2.157,-1.814 2.48,1.903" /></g><g
         id="g896"
         transform="translate(223.5308,240.7792)"><path
           id="path894"
           style="fill:#74410b;fill-opacity:1;fill-rule:nonzero;stroke:none"
           d="m 0,0 c 0,0 9.063,8.883 22.31,0.468 l 1.913,-7.137 C 19.372,0.487 7.683,2.614 0,0" /></g><g
         id="g900"
         transform="translate(283.9634,240.7792)"><path
           id="path898"
           style="fill:#74410b;fill-opacity:1;fill-rule:nonzero;stroke:none"
           d="m 0,0 c 0,0 -9.063,8.883 -22.31,0.468 l -1.913,-7.137 C -19.372,0.487 -7.683,2.614 0,0" /></g><g
         id="g904"
         transform="translate(223.4678,240.7792)"><path
           id="path902"
           style="fill:none;stroke:#74410b;stroke-opacity:1;stroke-width:0.894;stroke-linecap:butt;stroke-linejoin:miter;stroke-miterlimit:10;stroke-dasharray:none"
           d="m 0,0 c 10.378,3.263 25.325,-1.263 26.461,-12.819 0.685,-6.973 -3.67,-10.256 -3.67,-10.256 l 7.488,-4.802 7.489,4.802 c 0,0 -4.356,3.283 -3.67,10.256 C 35.234,-1.263 50.18,3.263 60.559,0" /></g><g
         id="g908"
         transform="translate(264.3952,209.1358)"><path
           id="path906"
           style="fill:#000000;fill-opacity:1;fill-rule:nonzero;stroke:none"
           d="M 0,0 -5.345,0.72 C -7.108,0.958 -8.848,0.094 -9.912,-1.547 l -0.736,-1.136 -0.737,1.136 c -1.063,1.641 -2.803,2.505 -4.566,2.267 L -21.296,0 C -14.198,-10.717 -7.099,-10.717 0,0" /></g><g
         id="g912"
         transform="translate(241.4573,210.2398)"><path
           id="path910"
           style="fill:none;stroke:#74410b;stroke-opacity:1;stroke-width:0.894;stroke-linecap:butt;stroke-linejoin:miter;stroke-miterlimit:10;stroke-dasharray:none"
           d="M 0,0 C 8.193,-5.906 16.386,-5.906 24.58,0" /></g><g
         id="g916"
         transform="translate(261.8996,195.1263)"><path
           id="path914"
           style="fill:none;stroke:#74410b;stroke-opacity:1;stroke-width:0.894;stroke-linecap:butt;stroke-linejoin:miter;stroke-miterlimit:10;stroke-dasharray:none"
           d="M 0,0 C -5.435,4.964 -10.87,4.964 -16.305,0" /></g><g
         id="g920"
         transform="translate(-8.3209,484.6067)"><path
           id="path918"
           style="fill:none;stroke:#cd9e64;stroke-opacity:1;stroke-width:0.894;stroke-linecap:butt;stroke-linejoin:miter;stroke-miterlimit:10;stroke-dasharray:none"
           d="m 0,0 1.853,-7.054 m -48.434,-19.517 5.15,-5.202 m -32.2,-41.094 7.035,-1.924 m -7.314,-51.698 7.054,1.853 m 19.517,-48.433 5.202,5.149 m 49.657,-0.887 -6.639,-24.278 -1.924,-7.035 m 51.769,6.776 1.853,-7.054 m 41.431,31.772 5.143,-5.201 m 20.022,48.219 7.035,-1.924 m -6.782,51.77 7.061,1.852 m -31.773,41.431 5.201,5.143 m -48.219,20.023 1.924,7.034 m -3.82,-13.96 -7.368,-26.938 m 27.348,-15.979 19.85,19.644 m 22.858,-40.07 -27.013,-7.088 m 26.773,-39.042 -26.938,7.368 m 3.665,-47.199 -19.645,19.851 m -27.513,-15.695 7.088,-27.013 m -46.131,0.24 7.369,26.938 m -27.349,15.979 -19.85,-19.645 m -22.858,40.071 27.014,7.088 m -26.774,39.042 26.938,-7.368 m -3.665,47.198 19.645,-19.85 m 20.425,42.708 7.088,-27.013 M 81.873,-3.925 50.104,-58.951 m 72.46,14.336 -55.027,-31.77 m 69.92,-23.814 -63.539,0 m 48.646,-55.585 -55.027,31.77 m 14.336,-72.46 -31.769,55.026 m -23.815,-69.92 0,63.539 m -55.584,-48.645 31.77,55.026 m -72.46,-14.336 55.026,31.77 m -69.92,23.815 63.539,0 m -48.645,55.584 55.026,-31.77 m -14.336,72.46 31.77,-55.026 m 23.814,69.92 0,-63.539" /></g><g
         id="g924"
         transform="translate(10.5165,250.063)"><path
           id="path922"
           style="fill:#fdf7ec;fill-opacity:1;fill-rule:nonzero;stroke:none"
           d="m 0,0 c 0,-1.237 -1.003,-2.24 -2.24,-2.24 -1.237,0 -2.239,1.003 -2.239,2.24 0,1.237 1.002,2.24 2.239,2.24 C -1.003,2.24 0,1.237 0,0" /></g><g
         id="g928"
         transform="translate(99.1296,215.4789)"><path
           id="path926"
           style="fill:#fdf7ec;fill-opacity:1;fill-rule:nonzero;stroke:none"
           d="m 0,0 c 0,-3.196 -2.591,-5.786 -5.786,-5.786 -3.196,0 -5.787,2.59 -5.787,5.786 0,3.196 2.591,5.786 5.787,5.786 C -2.591,5.786 0,3.196 0,0" /></g><g
         id="g932"
         transform="translate(66.6673,245.5582)"><path
           id="path930"
           style="fill:#cd9e64;fill-opacity:1;fill-rule:nonzero;stroke:none"
           d="m 0,0 c 3.478,0.225 6.11,1.203 6.11,1.203 0,0 -2.632,0.977 -6.11,1.202 -0.184,4.794 -1.397,8.506 -1.397,8.506 0,0 -1.212,-3.712 -1.397,-8.506 -3.477,-0.225 -6.11,-1.202 -6.11,-1.202 0,0 2.633,-0.978 6.11,-1.203 0.185,-4.794 1.397,-8.506 1.397,-8.506 0,0 1.213,3.712 1.397,8.506" /></g><g
         id="g936"
         transform="translate(84.3458,271.92)"><path
           id="path934"
           style="fill:none;stroke:#74410b;stroke-opacity:1;stroke-width:0.894;stroke-linecap:butt;stroke-linejoin:miter;stroke-miterlimit:10;stroke-dasharray:none"
           d="m 0,0 14.501,0 m -7.25,-7.251 0,14.502" /></g><g
         id="g940"
         transform="translate(5.7229,239.2967)"><path
           id="path938"
           style="fill:none;stroke:#74410b;stroke-opacity:1;stroke-width:0.894;stroke-linecap:butt;stroke-linejoin:miter;stroke-miterlimit:10;stroke-dasharray:none"
           d="m 0,0 5.978,0 m -2.989,-2.989 0,5.978" /></g><g
         id="g944"
         transform="translate(-93.1058,282.9753)"><path
           id="path942"
           style="fill:none;stroke:#74410b;stroke-opacity:1;stroke-width:0.531;stroke-linecap:butt;stroke-linejoin:miter;stroke-miterlimit:10;stroke-dasharray:none"
           d="m 0,0 c 3.383,-4.238 7.275,-7.927 9.338,-12.942 m 12.087,-18.506 c -1.474,3.52 -3.942,8.218 -3.991,12.033 m -14.872,9.403 c 3.578,-1.281 8.205,-4.613 10.471,-7.663 m 14.558,-33.103 c 5.421,-3.694 9.243,-7.557 13.825,-12.251 m 34.271,-31.693 c 6.683,2.385 11.769,2.396 17.443,2.008 m 1.685,-7.831 c 2.619,3.632 7.672,5.685 12.125,6.156 m 8.079,-0.04 c -3.15,0.011 -7.731,1.5 -9.187,4.293 m -22.573,-0.062 c -4.253,1.862 -9.774,5.193 -12.622,8.86 m -34.2,13.077 c 6.842,-1.152 14.668,-4.9 20.469,-8.707 M -26.549,2.308 c 14.351,3.254 28.866,-6.014 37.859,-17.662 8.992,-11.648 14.296,-25.717 22.522,-37.918 11.203,-16.618 27.89,-29.471 46.817,-36.062 18.927,-6.59 39.989,-6.881 59.09,-0.816" /></g><g
         id="g948"
         transform="translate(-5.504,204.7753)"><path
           id="path946"
           style="fill:#74410b;fill-opacity:1;fill-rule:nonzero;stroke:none"
           d="M 0,0 C -3.812,6.295 -5.52,13.645 -8.28,20.467 -5.201,13.066 2.008,8.456 8.394,3.611 22.107,-6.793 21.412,-14.965 21.412,-14.965 c 0,0 -12.894,0.9 -21.412,14.965" /></g><g
         id="g952"
         transform="translate(-7.9777,175.4773)"><path
           id="path950"
           style="fill:#ae6d33;fill-opacity:1;fill-rule:nonzero;stroke:none"
           d="m 0,0 c -3.43,-4.519 -5.271,-10.039 -7.513,-15.251 4.393,4.114 7.714,6.209 11.751,10.673 10.323,11.414 10.665,15.7 10.665,15.7 C 14.903,11.122 8.036,10.587 0,0" /></g><g
         id="g956"
         transform="translate(82.8102,384.4072)"><path
           id="path954"
           style="fill:#fdf7ec;fill-opacity:1;fill-rule:nonzero;stroke:none"
           d="m 0,0 c 0,-35.811 -29.031,-64.842 -64.842,-64.842 -35.811,0 -64.842,29.031 -64.842,64.842 0,35.811 29.031,64.842 64.842,64.842 C -29.031,64.842 0,35.811 0,0" /></g><g
         id="g960"
         transform="translate(1.1176,354.603)"><path
           id="path958"
           style="fill:#74410b;fill-opacity:1;fill-rule:nonzero;stroke:none"
           d="M 0,0 16.626,-4.433 -0.449,-35.081 0,0 Z" /></g><g
         id="g964"
         transform="translate(1.1176,354.603)"><path
           id="path962"
           style="fill:#ae6d33;fill-opacity:1;fill-rule:nonzero;stroke:none"
           d="M 0,0 8.313,-2.216 -0.449,-35.081 0,0 Z" /></g><g
         id="g968"
         transform="translate(18.2773,350.1707)"><path
           id="path966"
           style="fill:#74410b;fill-opacity:1;fill-rule:nonzero;stroke:none"
           d="M 0,0 16.615,4.474 17.151,-30.606 0,0 Z" /></g><g
         id="g972"
         transform="translate(18.2773,350.1707)"><path
           id="path970"
           style="fill:#ae6d33;fill-opacity:1;fill-rule:nonzero;stroke:none"
           d="M 0,0 8.307,2.237 17.151,-30.606 0,0 Z" /></g><g
         id="g976"
         transform="translate(9.3647,351.2679)"><path
           id="path974"
           style="fill:#b7814e;fill-opacity:1;fill-rule:nonzero;stroke:none"
           d="M 0,0 17.207,0 8.604,-55.979 0,0 Z" /></g><g
         id="g980"
         transform="translate(9.3647,351.2679)"><path
           id="path978"
           style="fill:#ae6d33;fill-opacity:1;fill-rule:nonzero;stroke:none"
           d="m 0,0 8.604,0 0,-55.979 L 0,0 Z" /></g><g
         id="g984"
         transform="translate(-6.2849,360.0095)"><path
           id="path982"
           style="fill:#b7814e;fill-opacity:1;fill-rule:nonzero;stroke:none"
           d="m 0,0 c 1.741,-2.868 6.855,-5.736 14.997,-8.603 -4.973,-3.682 -9.248,-7.363 -11.504,-11.045 -2.42,-3.681 -2.82,-7.363 -3.876,-11.044 -1.012,-3.682 -2.676,-7.363 -6.6,-11.045 -3.669,-3.681 -9.596,-7.362 -13.275,-11.044 2.272,4.399 6.066,8.797 8.02,13.195 2.141,4.399 2.441,8.797 2.084,13.195 C -11.182,-17.594 -13.393,-8.797 0,0" /></g><g
         id="g988"
         transform="translate(26.9708,351.2045)"><path
           id="path986"
           style="fill:#b7814e;fill-opacity:1;fill-rule:nonzero;stroke:none"
           d="m 0,0 c 3.354,0.074 8.394,3.068 14.949,8.686 0.702,-6.147 1.752,-11.691 3.813,-15.484 1.978,-3.938 4.966,-6.125 7.627,-8.879 2.682,-2.718 5.038,-6 6.264,-11.238 1.354,-5.018 1.578,-11.993 2.928,-17.019 -2.674,4.167 -4.586,9.652 -7.418,13.543 -2.739,4.053 -6.398,6.512 -10.385,8.402 C 9.645,-18.481 0.922,-15.997 0,0" /></g><g
         id="g992"
         transform="translate(26.9708,351.2045)"><path
           id="path990"
           style="fill:#cd9e64;fill-opacity:1;fill-rule:nonzero;stroke:none"
           d="m 0,0 c 1.714,0.101 3.763,0.782 6.268,2.253 1.145,-6.096 3.059,-10.86 5.911,-14.002 2.79,-3.247 6.517,-4.871 9.879,-7.128 3.387,-2.213 6.41,-5.056 8.386,-9.714 2.088,-4.463 3.129,-10.741 5.137,-15.343 -2.674,4.167 -4.586,9.652 -7.418,13.543 -2.739,4.053 -6.398,6.512 -10.385,8.402 C 9.645,-18.481 0.922,-15.997 0,0" /></g></pattern></defs><g
     transform="matrix(1.3333333,0,0,-1.3333333,0,666.66667)"
     id="g10"><path
       id="path12"
       style="fill:#e3d7c6;fill-opacity:1;fill-rule:nonzero;stroke:none"
       d="M 0,0 H 750 V 500 H 0 Z" /><path
       id="path996"
       style="fill:url(#pattern994);fill-opacity:1;fill-rule:nonzero;stroke:none"
       d="M 0,0 H 750 V 500 H 0 Z" /></g></svg>