<?xml version="1.0" encoding="UTF-8" standalone="no"?>
<svg
   xmlns:dc="http://purl.org/dc/elements/1.1/"
   xmlns:cc="http://creativecommons.org/ns#"
   xmlns:rdf="http://www.w3.org/1999/02/22-rdf-syntax-ns#"
   xmlns:svg="http://www.w3.org/2000/svg"
   xmlns="http://www.w3.org/2000/svg"
   viewBox="0 0 1000 666.66669"
   height="666.66669"
   width="1000"
   xml:space="preserve"
   id="svg2"
   version="1.1"><metadata
     id="metadata8"><rdf:RDF><cc:Work
         rdf:about=""><dc:format>image/svg+xml</dc:format><dc:type
           rdf:resource="http://purl.org/dc/dcmitype/StillImage" /></cc:Work></rdf:RDF></metadata><defs
     id="defs6"><clipPath
       id="clipPath28"
       clipPathUnits="userSpaceOnUse"><path
         id="path26"
         d="M 0,500 H 750 V 0 H 0 Z" /></clipPath><clipPath
       id="clipPath200"
       clipPathUnits="userSpaceOnUse"><path
         id="path198"
         d="M 0,0 H 750 V 500 H 0 Z" /></clipPath><clipPath
       id="clipPath208"
       clipPathUnits="userSpaceOnUse"><path
         id="path206"
         d="M 9.1716,490.206 H 203.693 V 295.684 H 9.1716 Z" /></clipPath><clipPath
       id="clipPath424"
       clipPathUnits="userSpaceOnUse"><path
         id="path422"
         d="m 61.534,392.944 c 0,-24.796 20.101,-44.898 44.898,-44.898 v 0 c 24.797,0 44.899,20.102 44.899,44.898 v 0 c 0,24.797 -20.102,44.9 -44.899,44.9 v 0 c -24.797,0 -44.898,-20.103 -44.898,-44.9" /></clipPath><clipPath
       id="clipPath436"
       clipPathUnits="userSpaceOnUse"><path
         id="path434"
         d="M 0,0 H 750 V 500 H 0 Z" /></clipPath><clipPath
       id="clipPath568"
       clipPathUnits="userSpaceOnUse"><path
         id="path566"
         d="M 562.607,186.012 H 738.765 V 9.85381 H 562.607 Z" /></clipPath><clipPath
       id="clipPath644"
       clipPathUnits="userSpaceOnUse"><path
         id="path642"
         d="m 620.053,153.159 c 26.667,-3.134 38.005,-28.37 34.478,-47.01 v 0 C 652.165,93.646 639.204,86.574 639.204,86.574 v 0 l 12.698,-8.144 c -2.49,-7.387 -6.657,-14.524 -11.593,-20.34 v 0 c -2.19,0.458 -6.231,-1.658 -5.4,-5.491 v 0 c -4.582,-4.259 -9.131,-7.192 -14.856,-9.892 v 0 c 7.89,-3.722 16.7,-5.811 26.001,-5.811 v 0 c 33.71,0 61.037,27.327 61.037,61.037 v 0 c 0,33.71 -27.327,61.037 -61.037,61.037 v 0 c -9.301,0 -18.111,-2.09 -26.001,-5.811" /></clipPath><clipPath
       id="clipPath656"
       clipPathUnits="userSpaceOnUse"><path
         id="path654"
         d="M 0,0 H 750 V 500 H 0 Z" /></clipPath><clipPath
       id="clipPath764"
       clipPathUnits="userSpaceOnUse"><path
         id="path762"
         d="M 0,500 H 750 V 0 H 0 Z" /></clipPath></defs><g
     transform="matrix(1.3333333,0,0,-1.3333333,0,666.66667)"
     id="g10"><path
       id="path12"
       style="fill:#e4d8c7;fill-opacity:1;fill-rule:nonzero;stroke:none"
       d="M 0,0 H 750 V 500 H 0 Z" /><g
       transform="translate(32.4449,193.8218)"
       id="g14"><path
         id="path16"
         style="fill:none;stroke:#74410b;stroke-width:1;stroke-linecap:butt;stroke-linejoin:miter;stroke-miterlimit:10;stroke-dasharray:none;stroke-opacity:1"
         d="M 0,0 V -164.602 H 412.637" /></g><g
       transform="translate(717.5551,306.1782)"
       id="g18"><path
         id="path20"
         style="fill:none;stroke:#74410b;stroke-width:1;stroke-linecap:butt;stroke-linejoin:miter;stroke-miterlimit:10;stroke-dasharray:none;stroke-opacity:1"
         d="M 0,0 V 164.602 H -412.637" /></g><g
       id="g22"><g
         clip-path="url(#clipPath28)"
         id="g24"><g
           transform="translate(406.7544,198.9197)"
           id="g30"><path
             id="path32"
             style="fill:#fef8ed;fill-opacity:1;fill-rule:nonzero;stroke:none"
             d="m 0,0 c 0,-2.695 -2.185,-4.88 -4.88,-4.88 -2.696,0 -4.88,2.185 -4.88,4.88 0,2.695 2.184,4.88 4.88,4.88 C -2.185,4.88 0,2.695 0,0" /></g><g
           transform="translate(45.0217,105.6479)"
           id="g34"><path
             id="path36"
             style="fill:#fef8ed;fill-opacity:1;fill-rule:nonzero;stroke:none"
             d="m 0,0 c 0,-2.695 -2.185,-4.88 -4.88,-4.88 -2.696,0 -4.88,2.185 -4.88,4.88 0,2.695 2.184,4.88 4.88,4.88 C -2.185,4.88 0,2.695 0,0" /></g><g
           transform="translate(94.639,237.4866)"
           id="g38"><path
             id="path40"
             style="fill:#fef8ed;fill-opacity:1;fill-rule:nonzero;stroke:none"
             d="m 0,0 c 0,-2.245 -1.82,-4.065 -4.065,-4.065 -2.245,0 -4.065,1.82 -4.065,4.065 0,2.245 1.82,4.065 4.065,4.065 C -1.82,4.065 0,2.245 0,0" /></g><g
           transform="translate(631.7256,458.7269)"
           id="g42"><path
             id="path44"
             style="fill:#fef8ed;fill-opacity:1;fill-rule:nonzero;stroke:none"
             d="m 0,0 c 0,-2.047 -1.659,-3.706 -3.706,-3.706 -2.046,0 -3.706,1.659 -3.706,3.706 0,2.047 1.66,3.706 3.706,3.706 C -1.659,3.706 0,2.047 0,0" /></g><g
           transform="translate(418.1234,443.3482)"
           id="g46"><path
             id="path48"
             style="fill:#fef8ed;fill-opacity:1;fill-rule:nonzero;stroke:none"
             d="m 0,0 c 0,-2.809 -2.277,-5.086 -5.086,-5.086 -2.809,0 -5.086,2.277 -5.086,5.086 0,2.809 2.277,5.086 5.086,5.086 C -2.277,5.086 0,2.809 0,0" /></g><g
           transform="translate(550.8379,371.6095)"
           id="g50"><path
             id="path52"
             style="fill:#fef8ed;fill-opacity:1;fill-rule:nonzero;stroke:none"
             d="m 0,0 c 0,-3.095 -2.509,-5.603 -5.604,-5.603 -3.094,0 -5.603,2.508 -5.603,5.603 0,3.095 2.509,5.604 5.603,5.604 C -2.509,5.604 0,3.095 0,0" /></g><g
           transform="translate(231.5812,241.5513)"
           id="g54"><path
             id="path56"
             style="fill:#fef8ed;fill-opacity:1;fill-rule:nonzero;stroke:none"
             d="m 0,0 c 0,-3.095 -2.509,-5.603 -5.604,-5.603 -3.094,0 -5.603,2.508 -5.603,5.603 0,3.095 2.509,5.604 5.603,5.604 C -2.509,5.604 0,3.095 0,0" /></g><g
           transform="translate(247.7202,127.4423)"
           id="g58"><path
             id="path60"
             style="fill:#fef8ed;fill-opacity:1;fill-rule:nonzero;stroke:none"
             d="m 0,0 c 0,-1.709 -1.386,-3.095 -3.095,-3.095 -1.71,0 -3.095,1.386 -3.095,3.095 0,1.709 1.385,3.095 3.095,3.095 C -1.386,3.095 0,1.709 0,0" /></g><g
           transform="translate(250.8153,364.074)"
           id="g62"><path
             id="path64"
             style="fill:#fef8ed;fill-opacity:1;fill-rule:nonzero;stroke:none"
             d="m 0,0 c 0,-1.709 -1.386,-3.095 -3.095,-3.095 -1.709,0 -3.095,1.386 -3.095,3.095 0,1.709 1.386,3.095 3.095,3.095 C -1.386,3.095 0,1.709 0,0" /></g><g
           transform="translate(520.333,479.4428)"
           id="g66"><path
             id="path68"
             style="fill:#fef8ed;fill-opacity:1;fill-rule:nonzero;stroke:none"
             d="m 0,0 c 0,-1.709 -1.386,-3.095 -3.095,-3.095 -1.709,0 -3.095,1.386 -3.095,3.095 0,1.709 1.386,3.095 3.095,3.095 C -1.386,3.095 0,1.709 0,0" /></g><g
           transform="translate(735.7846,275.2654)"
           id="g70"><path
             id="path72"
             style="fill:#fef8ed;fill-opacity:1;fill-rule:nonzero;stroke:none"
             d="m 0,0 c 0,-1.709 -1.386,-3.095 -3.095,-3.095 -1.709,0 -3.095,1.386 -3.095,3.095 0,1.709 1.386,3.095 3.095,3.095 C -1.386,3.095 0,1.709 0,0" /></g><g
           transform="translate(553.7372,293.1313)"
           id="g74"><path
             id="path76"
             style="fill:#fef8ed;fill-opacity:1;fill-rule:nonzero;stroke:none"
             d="m 0,0 c 0,-1.333 -1.081,-2.413 -2.413,-2.413 -1.333,0 -2.414,1.08 -2.414,2.413 0,1.333 1.081,2.414 2.414,2.414 C -1.081,2.414 0,1.333 0,0" /></g><g
           transform="translate(429.1474,265.2414)"
           id="g78"><path
             id="path80"
             style="fill:#fef8ed;fill-opacity:1;fill-rule:nonzero;stroke:none"
             d="m 0,0 c 0,-1.333 -1.08,-2.413 -2.413,-2.413 -1.333,0 -2.414,1.08 -2.414,2.413 0,1.333 1.081,2.414 2.414,2.414 C -1.08,2.414 0,1.333 0,0" /></g><g
           transform="translate(295.0174,249.4563)"
           id="g82"><path
             id="path84"
             style="fill:#fef8ed;fill-opacity:1;fill-rule:nonzero;stroke:none"
             d="m 0,0 c 0,-1.333 -1.081,-2.413 -2.413,-2.413 -1.333,0 -2.414,1.08 -2.414,2.413 0,1.333 1.081,2.413 2.414,2.413 C -1.081,2.413 0,1.333 0,0" /></g><g
           transform="translate(180.1112,114.9282)"
           id="g86"><path
             id="path88"
             style="fill:#fef8ed;fill-opacity:1;fill-rule:nonzero;stroke:none"
             d="m 0,0 c 0,-1.333 -1.081,-2.413 -2.413,-2.413 -1.333,0 -2.414,1.08 -2.414,2.413 0,1.333 1.081,2.413 2.414,2.413 C -1.081,2.413 0,1.333 0,0" /></g><g
           transform="translate(361.9919,21.9675)"
           id="g90"><path
             id="path92"
             style="fill:#fef8ed;fill-opacity:1;fill-rule:nonzero;stroke:none"
             d="m 0,0 c 0,-2.766 -2.242,-5.008 -5.008,-5.008 -2.766,0 -5.008,2.242 -5.008,5.008 0,2.766 2.242,5.008 5.008,5.008 C -2.242,5.008 0,2.766 0,0" /></g><g
           transform="translate(385.6784,105.4495)"
           id="g94"><path
             id="path96"
             style="fill:#fef8ed;fill-opacity:1;fill-rule:nonzero;stroke:none"
             d="m 0,0 c 0,-1.383 -1.121,-2.504 -2.504,-2.504 -1.383,0 -2.504,1.121 -2.504,2.504 0,1.383 1.121,2.504 2.504,2.504 C -1.121,2.504 0,1.383 0,0" /></g><g
           transform="translate(574.5541,97.7712)"
           id="g98"><path
             id="path100"
             style="fill:#fef8ed;fill-opacity:1;fill-rule:nonzero;stroke:none"
             d="m 0,0 c 0,-1.383 -1.121,-2.504 -2.504,-2.504 -1.383,0 -2.504,1.121 -2.504,2.504 0,1.383 1.121,2.504 2.504,2.504 C -1.121,2.504 0,1.383 0,0" /></g><g
           transform="translate(640.3567,286.1073)"
           id="g102"><path
             id="path104"
             style="fill:#fef8ed;fill-opacity:1;fill-rule:nonzero;stroke:none"
             d="m 0,0 c 0,-1.383 -1.121,-2.504 -2.504,-2.504 -1.383,0 -2.504,1.121 -2.504,2.504 0,1.383 1.121,2.504 2.504,2.504 C -1.121,2.504 0,1.383 0,0" /></g><g
           transform="translate(290.0431,36.3809)"
           id="g106"><path
             id="path108"
             style="fill:#fef8ed;fill-opacity:1;fill-rule:nonzero;stroke:none"
             d="m 0,0 c 0,-1.383 -1.121,-2.504 -2.504,-2.504 -1.383,0 -2.504,1.121 -2.504,2.504 0,1.383 1.121,2.504 2.504,2.504 C -1.121,2.504 0,1.383 0,0" /></g><g
           transform="translate(446.8013,33.8769)"
           id="g110"><path
             id="path112"
             style="fill:#fef8ed;fill-opacity:1;fill-rule:nonzero;stroke:none"
             d="m 0,0 c 0,-3.573 -2.896,-6.469 -6.469,-6.469 -3.573,0 -6.469,2.896 -6.469,6.469 0,3.573 2.896,6.469 6.469,6.469 C -2.896,6.469 0,3.573 0,0" /></g><g
           transform="translate(78.1002,458.7269)"
           id="g114"><path
             id="path116"
             style="fill:#fef8ed;fill-opacity:1;fill-rule:nonzero;stroke:none"
             d="m 0,0 c 0,-1.311 -1.063,-2.374 -2.374,-2.374 -1.311,0 -2.374,1.063 -2.374,2.374 0,1.311 1.063,2.374 2.374,2.374 C -1.063,2.374 0,1.311 0,0" /></g><g
           transform="translate(307.858,403.6969)"
           id="g118"><path
             id="path120"
             style="fill:#fef8ed;fill-opacity:1;fill-rule:nonzero;stroke:none"
             d="m 0,0 c 0,-1.311 -1.063,-2.374 -2.374,-2.374 -1.311,0 -2.374,1.063 -2.374,2.374 0,1.311 1.063,2.374 2.374,2.374 C -1.063,2.374 0,1.311 0,0" /></g><g
           transform="translate(365.6467,348.0282)"
           id="g122"><path
             id="path124"
             style="fill:#fef8ed;fill-opacity:1;fill-rule:nonzero;stroke:none"
             d="m 0,0 c 0,-1.945 -1.577,-3.522 -3.522,-3.522 -1.946,0 -3.523,1.577 -3.523,3.522 0,1.945 1.577,3.522 3.523,3.522 C -1.577,3.522 0,1.945 0,0" /></g><g
           transform="translate(731.1656,479.8365)"
           id="g126"><path
             id="path128"
             style="fill:#fef8ed;fill-opacity:1;fill-rule:nonzero;stroke:none"
             d="m 0,0 c 0,-1.945 -1.577,-3.522 -3.522,-3.522 -1.946,0 -3.523,1.577 -3.523,3.522 0,1.945 1.577,3.523 3.523,3.523 C -1.577,3.523 0,1.945 0,0" /></g><g
           transform="translate(4.2201,52.0839)"
           id="g130"><path
             id="path132"
             style="fill:#fef8ed;fill-opacity:1;fill-rule:nonzero;stroke:none"
             d="m 0,0 c 0,-1.585 -1.285,-2.87 -2.87,-2.87 -1.585,0 -2.87,1.285 -2.87,2.87 0,1.585 1.285,2.87 2.87,2.87 C -1.285,2.87 0,1.585 0,0" /></g><g
           transform="translate(363.9896,441.31)"
           id="g134"><path
             id="path136"
             style="fill:#f5ede9;fill-opacity:1;fill-rule:nonzero;stroke:none"
             d="m 0,0 c 4.644,0.301 8.159,1.606 8.159,1.606 0,0 -3.515,1.305 -8.159,1.606 -0.246,6.402 -1.866,11.359 -1.866,11.359 0,0 -1.619,-4.957 -1.865,-11.359 -4.644,-0.301 -8.159,-1.606 -8.159,-1.606 0,0 3.515,-1.305 8.159,-1.606 0.246,-6.402 1.865,-11.359 1.865,-11.359 0,0 1.62,4.957 1.866,11.359" /></g><g
           transform="translate(338.0343,228.43)"
           id="g138"><path
             id="path140"
             style="fill:#f5ede9;fill-opacity:1;fill-rule:nonzero;stroke:none"
             d="m 0,0 c 5,0.324 8.784,1.729 8.784,1.729 0,0 -3.784,1.404 -8.784,1.729 -0.265,6.892 -2.008,12.228 -2.008,12.228 0,0 -1.743,-5.336 -2.008,-12.228 -5,-0.325 -8.784,-1.729 -8.784,-1.729 0,0 3.784,-1.405 8.784,-1.729 0.265,-6.892 2.008,-12.228 2.008,-12.228 0,0 1.743,5.336 2.008,12.228" /></g><g
           transform="translate(331.9575,58.588)"
           id="g142"><path
             id="path144"
             style="fill:#f5ede9;fill-opacity:1;fill-rule:nonzero;stroke:none"
             d="m 0,0 c 3.888,0.252 6.831,1.344 6.831,1.344 0,0 -2.943,1.093 -6.831,1.345 -0.206,5.359 -1.562,9.509 -1.562,9.509 0,0 -1.355,-4.15 -1.561,-9.509 -3.888,-0.252 -6.831,-1.345 -6.831,-1.345 0,0 2.943,-1.092 6.831,-1.344 0.206,-5.359 1.561,-9.509 1.561,-9.509 0,0 1.356,4.15 1.562,9.509" /></g><g
           transform="translate(232.1717,464.2611)"
           id="g146"><path
             id="path148"
             style="fill:#f5ede9;fill-opacity:1;fill-rule:nonzero;stroke:none"
             d="m 0,0 c 3.565,0.231 6.264,1.233 6.264,1.233 0,0 -2.699,1.001 -6.264,1.233 -0.189,4.914 -1.432,8.72 -1.432,8.72 0,0 -1.243,-3.806 -1.432,-8.72 -3.565,-0.232 -6.264,-1.233 -6.264,-1.233 0,0 2.699,-1.002 6.264,-1.233 0.189,-4.915 1.432,-8.72 1.432,-8.72 0,0 1.243,3.805 1.432,8.72" /></g><g
           transform="translate(434.5157,132.2636)"
           id="g150"><path
             id="path152"
             style="fill:#f5ede9;fill-opacity:1;fill-rule:nonzero;stroke:none"
             d="m 0,0 c 2.056,0.133 3.613,0.711 3.613,0.711 0,0 -1.557,0.578 -3.613,0.711 -0.109,2.835 -0.826,5.029 -0.826,5.029 0,0 -0.717,-2.194 -0.826,-5.029 -2.056,-0.133 -3.613,-0.711 -3.613,-0.711 0,0 1.557,-0.578 3.613,-0.711 0.109,-2.835 0.826,-5.029 0.826,-5.029 0,0 0.717,2.194 0.826,5.029" /></g><g
           transform="translate(120.6441,103.7745)"
           id="g154"><path
             id="path156"
             style="fill:#f5ede9;fill-opacity:1;fill-rule:nonzero;stroke:none"
             d="m 0,0 c 4.844,0.314 8.511,1.675 8.511,1.675 0,0 -3.667,1.361 -8.511,1.675 -0.257,6.677 -1.946,11.847 -1.946,11.847 0,0 -1.689,-5.17 -1.945,-11.847 -4.844,-0.314 -8.511,-1.675 -8.511,-1.675 0,0 3.667,-1.361 8.511,-1.675 0.256,-6.677 1.945,-11.848 1.945,-11.848 0,0 1.689,5.171 1.946,11.848" /></g><g
           transform="translate(109.0682,163.1027)"
           id="g158"><path
             id="path160"
             style="fill:#f5ede9;fill-opacity:1;fill-rule:nonzero;stroke:none"
             d="m 0,0 c 2.056,0.133 3.613,0.711 3.613,0.711 0,0 -1.557,0.578 -3.613,0.711 -0.109,2.835 -0.826,5.029 -0.826,5.029 0,0 -0.717,-2.194 -0.826,-5.029 -2.056,-0.133 -3.613,-0.711 -3.613,-0.711 0,0 1.557,-0.578 3.613,-0.711 0.109,-2.835 0.826,-5.029 0.826,-5.029 0,0 0.717,2.194 0.826,5.029" /></g><g
           transform="translate(521.1589,268.1822)"
           id="g162"><path
             id="path164"
             style="fill:#f5ede9;fill-opacity:1;fill-rule:nonzero;stroke:none"
             d="m 0,0 c 2.056,0.133 3.613,0.711 3.613,0.711 0,0 -1.557,0.578 -3.613,0.711 -0.109,2.835 -0.826,5.029 -0.826,5.029 0,0 -0.717,-2.194 -0.826,-5.029 -2.056,-0.133 -3.612,-0.711 -3.612,-0.711 0,0 1.556,-0.578 3.612,-0.711 0.109,-2.835 0.826,-5.029 0.826,-5.029 0,0 0.717,2.194 0.826,5.029" /></g><g
           transform="translate(675.3316,352.1973)"
           id="g166"><path
             id="path168"
             style="fill:#f5ede9;fill-opacity:1;fill-rule:nonzero;stroke:none"
             d="m 0,0 c 2.056,0.133 3.613,0.711 3.613,0.711 0,0 -1.557,0.578 -3.613,0.711 -0.109,2.835 -0.826,5.029 -0.826,5.029 0,0 -0.717,-2.194 -0.826,-5.029 -2.056,-0.133 -3.613,-0.711 -3.613,-0.711 0,0 1.557,-0.578 3.613,-0.711 0.109,-2.835 0.826,-5.029 0.826,-5.029 0,0 0.717,2.194 0.826,5.029" /></g><g
           transform="translate(699.7695,227.5515)"
           id="g170"><path
             id="path172"
             style="fill:#f5ede9;fill-opacity:1;fill-rule:nonzero;stroke:none"
             d="m 0,0 c 2.056,0.133 3.613,0.711 3.613,0.711 0,0 -1.557,0.578 -3.613,0.711 -0.109,2.835 -0.826,5.029 -0.826,5.029 0,0 -0.717,-2.194 -0.826,-5.029 -2.056,-0.133 -3.612,-0.711 -3.612,-0.711 0,0 1.556,-0.578 3.612,-0.711 0.109,-2.835 0.826,-5.029 0.826,-5.029 0,0 0.717,2.194 0.826,5.029" /></g><g
           transform="translate(519.3998,24.2831)"
           id="g174"><path
             id="path176"
             style="fill:#f5ede9;fill-opacity:1;fill-rule:nonzero;stroke:none"
             d="m 0,0 c 2.056,0.133 3.613,0.711 3.613,0.711 0,0 -1.557,0.578 -3.613,0.711 -0.109,2.835 -0.826,5.029 -0.826,5.029 0,0 -0.717,-2.194 -0.826,-5.029 -2.056,-0.133 -3.613,-0.711 -3.613,-0.711 0,0 1.557,-0.578 3.613,-0.711 0.109,-2.834 0.826,-5.029 0.826,-5.029 0,0 0.717,2.195 0.826,5.029" /></g><g
           transform="translate(306.3098,477.4822)"
           id="g178"><path
             id="path180"
             style="fill:#f5ede9;fill-opacity:1;fill-rule:nonzero;stroke:none"
             d="m 0,0 c 2.056,0.133 3.613,0.711 3.613,0.711 0,0 -1.557,0.578 -3.613,0.711 -0.109,2.835 -0.826,5.029 -0.826,5.029 0,0 -0.717,-2.194 -0.826,-5.029 -2.056,-0.133 -3.612,-0.711 -3.612,-0.711 0,0 1.556,-0.578 3.612,-0.711 0.109,-2.835 0.826,-5.029 0.826,-5.029 0,0 0.717,2.194 0.826,5.029" /></g><g
           transform="translate(63.0264,328.6379)"
           id="g182"><path
             id="path184"
             style="fill:#f5ede9;fill-opacity:1;fill-rule:nonzero;stroke:none"
             d="m 0,0 c 2.056,0.133 3.613,0.711 3.613,0.711 0,0 -1.557,0.578 -3.613,0.711 -0.109,2.835 -0.826,5.029 -0.826,5.029 0,0 -0.717,-2.194 -0.826,-5.029 -2.056,-0.133 -3.613,-0.711 -3.613,-0.711 0,0 1.557,-0.578 3.613,-0.711 0.109,-2.835 0.826,-5.029 0.826,-5.029 0,0 0.717,2.194 0.826,5.029" /></g><g
           transform="translate(18.6513,188.6663)"
           id="g186"><path
             id="path188"
             style="fill:#f5ede9;fill-opacity:1;fill-rule:nonzero;stroke:none"
             d="m 0,0 c 4.683,0.303 8.227,1.619 8.227,1.619 0,0 -3.544,1.316 -8.227,1.619 -0.248,6.455 -1.881,11.453 -1.881,11.453 0,0 -1.633,-4.998 -1.881,-11.453 -4.683,-0.303 -8.227,-1.619 -8.227,-1.619 0,0 3.544,-1.316 8.227,-1.619 0.248,-6.455 1.881,-11.453 1.881,-11.453 0,0 1.633,4.998 1.881,11.453" /></g><g
           transform="translate(603.681,349.3692)"
           id="g190"><path
             id="path192"
             style="fill:#f5ede9;fill-opacity:1;fill-rule:nonzero;stroke:none"
             d="m 0,0 c 3.888,0.252 6.831,1.344 6.831,1.344 0,0 -2.943,1.093 -6.831,1.345 -0.206,5.359 -1.562,9.509 -1.562,9.509 0,0 -1.355,-4.15 -1.562,-9.509 -3.887,-0.252 -6.83,-1.345 -6.83,-1.345 0,0 2.943,-1.092 6.83,-1.344 0.207,-5.359 1.562,-9.509 1.562,-9.509 0,0 1.356,4.15 1.562,9.509" /></g></g></g><g
       id="g194"><g
         clip-path="url(#clipPath200)"
         id="g196"><g
           id="g202"><g
             id="g204" /><g
             id="g216"><g
               style="opacity:0.44999701"
               id="g214"
               clip-path="url(#clipPath208)"><g
                 id="g212"
                 transform="translate(203.6933,392.9446)"><path
                   id="path210"
                   style="fill:#fef8ed;fill-opacity:1;fill-rule:nonzero;stroke:none"
                   d="m 0,0 c 0,-53.716 -43.545,-97.261 -97.261,-97.261 -53.716,0 -97.261,43.545 -97.261,97.261 0,53.716 43.545,97.261 97.261,97.261 C -43.545,97.261 0,53.716 0,0" /></g></g></g></g><g
           transform="translate(190.1019,392.9446)"
           id="g218"><path
             id="path220"
             style="fill:#fef8ed;fill-opacity:1;fill-rule:nonzero;stroke:none"
             d="m 0,0 c 0,-46.209 -37.46,-83.67 -83.669,-83.67 -46.21,0 -83.67,37.461 -83.67,83.67 0,46.209 37.46,83.669 83.67,83.669 C -37.46,83.669 0,46.209 0,0" /></g><g
           transform="translate(117.534,435.7062)"
           id="g222"><path
             id="path224"
             style="fill:#b8824e;fill-opacity:1;fill-rule:nonzero;stroke:none"
             d="m 0,0 h -22.203 l 11.101,72.233 z" /></g><g
           transform="translate(117.534,435.7062)"
           id="g226"><path
             id="path228"
             style="fill:#af6d33;fill-opacity:1;fill-rule:nonzero;stroke:none"
             d="M 0,0 H -11.102 V 72.233 Z" /></g><g
           transform="translate(106.0336,437.122)"
           id="g230"><path
             id="path232"
             style="fill:#74410b;fill-opacity:1;fill-rule:nonzero;stroke:none"
             d="m 0,0 -21.439,-5.773 -0.692,45.265 z" /></g><g
           transform="translate(106.0336,437.122)"
           id="g234"><path
             id="path236"
             style="fill:#af6d33;fill-opacity:1;fill-rule:nonzero;stroke:none"
             d="M 0,0 -10.72,-2.887 -22.131,39.492 Z" /></g><g
           transform="translate(83.9984,431.0039)"
           id="g238"><path
             id="path240"
             style="fill:#74410b;fill-opacity:1;fill-rule:nonzero;stroke:none"
             d="M 0,0 -15.68,-15.719 -38.912,23.136 Z" /></g><g
           transform="translate(83.9984,431.0039)"
           id="g242"><path
             id="path244"
             style="fill:#af6d33;fill-opacity:1;fill-rule:nonzero;stroke:none"
             d="M 0,0 -7.84,-7.86 -38.912,23.136 Z" /></g><g
           transform="translate(67.9743,414.6879)"
           id="g246"><path
             id="path248"
             style="fill:#74410b;fill-opacity:1;fill-rule:nonzero;stroke:none"
             d="M 0,0 -5.72,-21.454 -45.267,0.58 Z" /></g><g
           transform="translate(67.9743,414.6879)"
           id="g250"><path
             id="path252"
             style="fill:#af6d33;fill-opacity:1;fill-rule:nonzero;stroke:none"
             d="M 0,0 -2.86,-10.727 -45.267,0.58 Z" /></g><g
           transform="translate(62.2551,392.5458)"
           id="g254"><path
             id="path256"
             style="fill:#74410b;fill-opacity:1;fill-rule:nonzero;stroke:none"
             d="m 0,0 5.773,-21.439 -45.265,-0.692 z" /></g><g
           transform="translate(62.2551,392.5458)"
           id="g258"><path
             id="path260"
             style="fill:#af6d33;fill-opacity:1;fill-rule:nonzero;stroke:none"
             d="M 0,0 2.887,-10.72 -39.492,-22.131 Z" /></g><g
           transform="translate(68.3732,370.5106)"
           id="g262"><path
             id="path264"
             style="fill:#74410b;fill-opacity:1;fill-rule:nonzero;stroke:none"
             d="M 0,0 15.719,-15.681 -23.136,-38.912 Z" /></g><g
           transform="translate(68.3732,370.5106)"
           id="g266"><path
             id="path268"
             style="fill:#af6d33;fill-opacity:1;fill-rule:nonzero;stroke:none"
             d="M 0,0 7.86,-7.84 -23.136,-38.912 Z" /></g><g
           transform="translate(84.6892,354.4865)"
           id="g270"><path
             id="path272"
             style="fill:#74410b;fill-opacity:1;fill-rule:nonzero;stroke:none"
             d="M 0,0 21.454,-5.72 -0.58,-45.267 Z" /></g><g
           transform="translate(84.6892,354.4865)"
           id="g274"><path
             id="path276"
             style="fill:#af6d33;fill-opacity:1;fill-rule:nonzero;stroke:none"
             d="M 0,0 10.727,-2.86 -0.58,-45.267 Z" /></g><g
           transform="translate(106.8313,348.7673)"
           id="g278"><path
             id="path280"
             style="fill:#74410b;fill-opacity:1;fill-rule:nonzero;stroke:none"
             d="m 0,0 21.439,5.773 0.692,-45.265 z" /></g><g
           transform="translate(106.8313,348.7673)"
           id="g282"><path
             id="path284"
             style="fill:#af6d33;fill-opacity:1;fill-rule:nonzero;stroke:none"
             d="M 0,0 10.72,2.887 22.131,-39.492 Z" /></g><g
           transform="translate(128.8665,354.8853)"
           id="g286"><path
             id="path288"
             style="fill:#74410b;fill-opacity:1;fill-rule:nonzero;stroke:none"
             d="M 0,0 15.681,15.719 38.912,-23.136 Z" /></g><g
           transform="translate(128.8665,354.8853)"
           id="g290"><path
             id="path292"
             style="fill:#af6d33;fill-opacity:1;fill-rule:nonzero;stroke:none"
             d="M 0,0 7.84,7.86 38.912,-23.136 Z" /></g><g
           transform="translate(144.8906,371.2013)"
           id="g294"><path
             id="path296"
             style="fill:#74410b;fill-opacity:1;fill-rule:nonzero;stroke:none"
             d="M 0,0 5.72,21.454 45.267,-0.58 Z" /></g><g
           transform="translate(144.8906,371.2013)"
           id="g298"><path
             id="path300"
             style="fill:#af6d33;fill-opacity:1;fill-rule:nonzero;stroke:none"
             d="M 0,0 2.86,10.727 45.267,-0.58 Z" /></g><g
           transform="translate(150.6098,393.3434)"
           id="g302"><path
             id="path304"
             style="fill:#74410b;fill-opacity:1;fill-rule:nonzero;stroke:none"
             d="m 0,0 -5.773,21.439 45.265,0.692 z" /></g><g
           transform="translate(150.6098,393.3434)"
           id="g306"><path
             id="path308"
             style="fill:#af6d33;fill-opacity:1;fill-rule:nonzero;stroke:none"
             d="M 0,0 -2.886,10.72 39.492,22.131 Z" /></g><g
           transform="translate(144.4917,415.3787)"
           id="g310"><path
             id="path312"
             style="fill:#74410b;fill-opacity:1;fill-rule:nonzero;stroke:none"
             d="M 0,0 -15.719,15.681 23.136,38.912 Z" /></g><g
           transform="translate(144.4917,415.3787)"
           id="g314"><path
             id="path316"
             style="fill:#af6d33;fill-opacity:1;fill-rule:nonzero;stroke:none"
             d="M 0,0 -7.86,7.84 23.136,38.912 Z" /></g><g
           transform="translate(128.1757,431.4027)"
           id="g318"><path
             id="path320"
             style="fill:#74410b;fill-opacity:1;fill-rule:nonzero;stroke:none"
             d="M 0,0 -21.453,5.72 0.58,45.267 Z" /></g><g
           transform="translate(128.1757,431.4027)"
           id="g322"><path
             id="path324"
             style="fill:#af6d33;fill-opacity:1;fill-rule:nonzero;stroke:none"
             d="M 0,0 -10.727,2.86 0.58,45.267 Z" /></g><g
           transform="translate(74.9506,423.9396)"
           id="g326"><path
             id="path328"
             style="fill:#b8824e;fill-opacity:1;fill-rule:nonzero;stroke:none"
             d="m 0,0 -11.102,-19.228 -57.004,45.73 z" /></g><g
           transform="translate(74.9506,423.9396)"
           id="g330"><path
             id="path332"
             style="fill:#af6d33;fill-opacity:1;fill-rule:nonzero;stroke:none"
             d="M 0,0 -5.551,-9.614 -68.106,26.502 Z" /></g><g
           transform="translate(63.8491,381.178)"
           id="g334"><path
             id="path336"
             style="fill:#b8824e;fill-opacity:1;fill-rule:nonzero;stroke:none"
             d="M 0,0 11.102,-19.228 -57.005,-45.73 Z" /></g><g
           transform="translate(63.8491,381.178)"
           id="g338"><path
             id="path340"
             style="fill:#af6d33;fill-opacity:1;fill-rule:nonzero;stroke:none"
             d="M 0,0 5.551,-9.614 -57.005,-45.73 Z" /></g><g
           transform="translate(95.3309,350.183)"
           id="g342"><path
             id="path344"
             style="fill:#b8824e;fill-opacity:1;fill-rule:nonzero;stroke:none"
             d="M 0,0 H 22.203 L 11.102,-72.233 Z" /></g><g
           transform="translate(95.3309,350.183)"
           id="g346"><path
             id="path348"
             style="fill:#af6d33;fill-opacity:1;fill-rule:nonzero;stroke:none"
             d="M 0,0 H 11.102 V -72.233 Z" /></g><g
           transform="translate(137.9143,361.9496)"
           id="g350"><path
             id="path352"
             style="fill:#b8824e;fill-opacity:1;fill-rule:nonzero;stroke:none"
             d="m 0,0 11.102,19.228 57.004,-45.73 z" /></g><g
           transform="translate(137.9143,361.9496)"
           id="g354"><path
             id="path356"
             style="fill:#af6d33;fill-opacity:1;fill-rule:nonzero;stroke:none"
             d="M 0,0 5.551,9.614 68.106,-26.502 Z" /></g><g
           transform="translate(149.0158,404.7112)"
           id="g358"><path
             id="path360"
             style="fill:#b8824e;fill-opacity:1;fill-rule:nonzero;stroke:none"
             d="M 0,0 -11.102,19.228 57.005,45.73 Z" /></g><g
           transform="translate(149.0158,404.7112)"
           id="g362"><path
             id="path364"
             style="fill:#af6d33;fill-opacity:1;fill-rule:nonzero;stroke:none"
             d="M 0,0 -5.551,9.614 57.005,45.73 Z" /></g><g
           transform="translate(137.7276,424.4265)"
           id="g366"><path
             id="path368"
             style="fill:#b8824e;fill-opacity:1;fill-rule:nonzero;stroke:none"
             d="m 0,0 c -2.247,3.701 -8.845,7.401 -19.351,11.102 6.416,4.75 11.933,9.5 14.843,14.251 3.124,4.75 3.64,9.5 5.002,14.251 1.306,4.75 3.454,9.5 8.516,14.251 4.734,4.75 12.383,9.501 17.13,14.251 C 23.208,62.43 18.312,56.755 15.792,51.079 13.029,45.404 12.642,39.728 13.102,34.053 14.429,22.702 17.282,11.351 0,0" /></g><g
           transform="translate(137.7276,424.4265)"
           id="g370"><path
             id="path372"
             style="fill:#ce9f64;fill-opacity:1;fill-rule:nonzero;stroke:none"
             d="M 0,0 C -1.219,1.85 -3.302,3.701 -6.562,5.551 -0.489,10.764 3.601,15.977 5.272,21.19 7.1,26.402 6.51,31.615 6.863,36.828 7.151,42.041 8.378,47.254 12.308,52.467 15.949,57.68 22.293,62.893 26.14,68.106 23.208,62.43 18.312,56.755 15.792,51.079 13.029,45.404 12.642,39.728 13.102,34.053 14.429,22.702 17.282,11.351 0,0" /></g><g
           transform="translate(94.8159,435.7879)"
           id="g374"><path
             id="path376"
             style="fill:#b8824e;fill-opacity:1;fill-rule:nonzero;stroke:none"
             d="m 0,0 c -4.328,-0.096 -10.832,-3.959 -19.29,-11.208 -0.906,7.932 -2.261,15.085 -4.92,19.98 -2.552,5.081 -6.408,7.903 -9.841,11.457 -3.461,3.507 -6.501,7.742 -8.084,14.501 -1.747,6.476 -2.036,15.475 -3.777,21.961 3.45,-5.377 5.917,-12.454 9.572,-17.475 3.534,-5.23 8.255,-8.404 13.4,-10.843 C -12.446,23.847 -1.189,20.642 0,0" /></g><g
           transform="translate(94.8159,435.7879)"
           id="g378"><path
             id="path380"
             style="fill:#ce9f64;fill-opacity:1;fill-rule:nonzero;stroke:none"
             d="m 0,0 c -2.212,-0.131 -4.856,-1.009 -8.088,-2.908 -1.478,7.867 -3.948,14.015 -7.627,18.068 -3.6,4.19 -8.41,6.286 -12.748,9.198 -4.37,2.856 -8.271,6.525 -10.821,12.535 -2.694,5.759 -4.037,13.86 -6.628,19.798 3.45,-5.377 5.917,-12.454 9.572,-17.475 3.534,-5.23 8.255,-8.404 13.4,-10.843 C -12.446,23.847 -1.189,20.642 0,0" /></g><g
           transform="translate(63.5208,404.3061)"
           id="g382"><path
             id="path384"
             style="fill:#b8824e;fill-opacity:1;fill-rule:nonzero;stroke:none"
             d="m 0,0 c -2.081,-3.796 -1.987,-11.36 0.061,-22.309 -7.322,3.181 -14.194,5.584 -19.763,5.729 -5.676,0.33 -10.048,-1.599 -14.843,-2.794 -4.767,-1.244 -9.955,-1.759 -16.6,0.25 -6.481,1.724 -14.419,5.973 -20.906,7.709 6.381,0.298 13.743,-1.104 19.919,-0.449 6.296,0.446 11.405,2.948 16.09,6.184 C -26.875,1.145 -18.471,9.291 0,0" /></g><g
           transform="translate(63.5208,404.3061)"
           id="g386"><path
             id="path388"
             style="fill:#ce9f64;fill-opacity:1;fill-rule:nonzero;stroke:none"
             d="m 0,0 c -0.993,-1.981 -1.554,-4.71 -1.526,-8.458 -7.551,2.653 -14.111,3.588 -19.461,2.429 -5.428,-1.024 -9.648,-4.141 -14.339,-6.442 -4.658,-2.357 -9.786,-3.901 -16.266,-3.103 -6.335,0.546 -14.021,3.433 -20.459,4.159 6.381,0.298 13.743,-1.104 19.919,-0.449 6.296,0.446 11.405,2.948 16.09,6.184 C -26.875,1.145 -18.471,9.291 0,0" /></g><g
           transform="translate(75.1373,361.4628)"
           id="g390"><path
             id="path392"
             style="fill:#b8824e;fill-opacity:1;fill-rule:nonzero;stroke:none"
             d="m 0,0 c 2.247,-3.701 8.845,-7.401 19.351,-11.102 -6.416,-4.75 -11.933,-9.5 -14.843,-14.251 -3.124,-4.75 -3.64,-9.5 -5.002,-14.251 -1.306,-4.75 -3.454,-9.501 -8.516,-14.251 -4.734,-4.75 -12.383,-9.501 -17.13,-14.251 2.932,5.675 7.828,11.351 10.348,17.026 2.763,5.676 3.15,11.351 2.69,17.027 C -14.429,-22.702 -17.282,-11.351 0,0" /></g><g
           transform="translate(75.1373,361.4628)"
           id="g394"><path
             id="path396"
             style="fill:#ce9f64;fill-opacity:1;fill-rule:nonzero;stroke:none"
             d="M 0,0 C 1.219,-1.85 3.302,-3.701 6.562,-5.551 0.489,-10.764 -3.601,-15.977 -5.272,-21.19 -7.1,-26.403 -6.51,-31.616 -6.863,-36.828 c -0.288,-5.213 -1.515,-10.426 -5.445,-15.639 -3.641,-5.213 -9.985,-10.426 -13.832,-15.639 2.932,5.675 7.828,11.351 10.348,17.026 2.763,5.676 3.15,11.351 2.69,17.027 C -14.429,-22.702 -17.282,-11.351 0,0" /></g><g
           transform="translate(118.049,350.1013)"
           id="g398"><path
             id="path400"
             style="fill:#b8824e;fill-opacity:1;fill-rule:nonzero;stroke:none"
             d="m 0,0 c 4.328,0.096 10.832,3.959 19.29,11.208 0.906,-7.932 2.261,-15.085 4.92,-19.98 2.552,-5.081 6.408,-7.903 9.841,-11.457 3.461,-3.507 6.501,-7.742 8.084,-14.501 1.746,-6.476 2.036,-15.475 3.777,-21.961 -3.45,5.377 -5.917,12.455 -9.572,17.475 -3.534,5.23 -8.255,8.404 -13.4,10.843 C 12.446,-23.847 1.189,-20.642 0,0" /></g><g
           transform="translate(118.049,350.1013)"
           id="g402"><path
             id="path404"
             style="fill:#ce9f64;fill-opacity:1;fill-rule:nonzero;stroke:none"
             d="m 0,0 c 2.212,0.131 4.856,1.009 8.088,2.908 1.478,-7.867 3.948,-14.014 7.627,-18.068 3.6,-4.19 8.41,-6.286 12.748,-9.198 4.37,-2.856 8.271,-6.525 10.821,-12.535 2.694,-5.759 4.037,-13.86 6.628,-19.798 -3.45,5.377 -5.917,12.455 -9.572,17.475 -3.534,5.23 -8.255,8.404 -13.4,10.843 C 12.446,-23.847 1.189,-20.642 0,0" /></g><g
           transform="translate(149.3441,381.5831)"
           id="g406"><path
             id="path408"
             style="fill:#b8824e;fill-opacity:1;fill-rule:nonzero;stroke:none"
             d="m 0,0 c 2.081,3.796 1.987,11.36 -0.061,22.31 7.322,-3.182 14.194,-5.585 19.763,-5.73 5.676,-0.33 10.048,1.599 14.843,2.794 4.767,1.244 9.955,1.76 16.6,-0.249 C 57.626,17.4 65.564,13.151 72.051,11.415 65.67,11.117 58.307,12.519 52.132,11.864 45.836,11.418 40.727,8.916 36.042,5.68 26.875,-1.145 18.471,-9.291 0,0" /></g><g
           transform="translate(149.3441,381.5831)"
           id="g410"><path
             id="path412"
             style="fill:#ce9f64;fill-opacity:1;fill-rule:nonzero;stroke:none"
             d="M 0,0 C 0.993,1.981 1.554,4.71 1.526,8.458 9.077,5.805 15.637,4.87 20.987,6.029 c 5.428,1.024 9.648,4.141 14.339,6.442 4.658,2.357 9.786,3.901 16.266,3.103 6.335,-0.546 14.021,-3.433 20.459,-4.159 C 65.67,11.117 58.307,12.519 52.132,11.864 45.836,11.418 40.727,8.916 36.042,5.68 26.875,-1.145 18.471,-9.291 0,0" /></g><g
           transform="translate(151.3312,392.9446)"
           id="g414"><path
             id="path416"
             style="fill:#e0b17a;fill-opacity:1;fill-rule:nonzero;stroke:none"
             d="m 0,0 c 0,-24.797 -20.102,-44.899 -44.899,-44.899 -24.797,0 -44.899,20.102 -44.899,44.899 0,24.797 20.102,44.899 44.899,44.899 C -20.102,44.899 0,24.797 0,0" /></g></g></g><g
       id="g418"><g
         clip-path="url(#clipPath424)"
         id="g420"><g
           transform="translate(145.4965,393.3926)"
           id="g426"><path
             id="path428"
             style="fill:#74410b;fill-opacity:1;fill-rule:nonzero;stroke:none"
             d="m 0,0 c -11.485,0 -20.796,-9.311 -20.796,-20.796 0,-11.485 9.311,-20.796 20.796,-20.796 11.485,0 20.796,9.311 20.796,20.796 C 20.796,-9.311 11.485,0 0,0 m -57.332,-20.796 c 0,-11.485 -9.311,-20.796 -20.796,-20.796 -11.485,0 -20.796,9.311 -20.796,20.796 0,11.485 9.311,20.796 20.796,20.796 11.485,0 20.796,-9.311 20.796,-20.796" /></g></g></g><g
       id="g430"><g
         clip-path="url(#clipPath436)"
         id="g432"><g
           transform="translate(99.0292,402.6372)"
           id="g438"><path
             id="path440"
             style="fill:#af6d33;fill-opacity:1;fill-rule:nonzero;stroke:none"
             d="M 0,0 C 0,0 -6.906,-8.309 -15.425,-8.309 -23.944,-8.309 -30.85,0 -30.85,0 c 0,0 6.906,8.309 15.425,8.309 C -6.906,8.309 0,0 0,0" /></g><g
           transform="translate(99.0292,399.04)"
           id="g442"><path
             id="path444"
             style="fill:#ffffff;fill-opacity:1;fill-rule:nonzero;stroke:none"
             d="M 0,0 C 0,0 -6.906,-8.309 -15.425,-8.309 -23.944,-8.309 -30.85,0 -30.85,0 c 0,0 6.906,8.309 15.425,8.309 C -6.906,8.309 0,0 0,0" /></g><g
           transform="translate(92.5152,399.0165)"
           id="g446"><path
             id="path448"
             style="fill:#74410b;fill-opacity:1;fill-rule:nonzero;stroke:none"
             d="m 0,0 c 0,-4.823 -3.91,-8.733 -8.733,-8.733 -4.823,0 -8.733,3.91 -8.733,8.733 0,4.823 3.91,8.733 8.733,8.733 C -3.91,8.733 0,4.823 0,0" /></g><g
           transform="translate(90.5174,399.0165)"
           id="g450"><path
             id="path452"
             style="fill:#000000;fill-opacity:1;fill-rule:nonzero;stroke:none"
             d="m 0,0 c 0,-3.72 -3.015,-6.735 -6.735,-6.735 -3.72,0 -6.735,3.015 -6.735,6.735 0,3.72 3.015,6.735 6.735,6.735 C -3.015,6.735 0,3.72 0,0" /></g><g
           transform="translate(106.4325,408.6482)"
           id="g454"><path
             id="path456"
             style="fill:#ffffff;fill-opacity:1;fill-rule:nonzero;stroke:none"
             d="m 0,0 c 0,0 -5.382,4.473 -5.382,9.991 0,5.518 5.382,9.991 5.382,9.991 0,0 5.382,-4.473 5.382,-9.991 C 5.382,4.473 0,0 0,0" /></g><g
           transform="translate(106.4325,413.1256)"
           id="g458"><path
             id="path460"
             style="fill:#74410b;fill-opacity:1;fill-rule:nonzero;stroke:none"
             d="m 0,0 c -2.981,0 -5.398,2.417 -5.398,5.398 0,2.981 2.417,5.398 5.398,5.398 2.981,0 5.398,-2.417 5.398,-5.398 C 5.398,2.417 2.981,0 0,0" /></g><g
           transform="translate(144.7175,402.6372)"
           id="g462"><path
             id="path464"
             style="fill:#af6d33;fill-opacity:1;fill-rule:nonzero;stroke:none"
             d="M 0,0 C 0,0 -6.906,-8.309 -15.425,-8.309 -23.944,-8.309 -30.85,0 -30.85,0 c 0,0 6.906,8.309 15.425,8.309 C -6.906,8.309 0,0 0,0" /></g><g
           transform="translate(144.7175,399.04)"
           id="g466"><path
             id="path468"
             style="fill:#ffffff;fill-opacity:1;fill-rule:nonzero;stroke:none"
             d="M 0,0 C 0,0 -6.906,-8.309 -15.425,-8.309 -23.944,-8.309 -30.85,0 -30.85,0 c 0,0 6.906,8.309 15.425,8.309 C -6.906,8.309 0,0 0,0" /></g><g
           transform="translate(138.2035,399.0165)"
           id="g470"><path
             id="path472"
             style="fill:#74410b;fill-opacity:1;fill-rule:nonzero;stroke:none"
             d="m 0,0 c 0,-4.823 -3.91,-8.733 -8.733,-8.733 -4.823,0 -8.733,3.91 -8.733,8.733 0,4.823 3.91,8.733 8.733,8.733 C -3.91,8.733 0,4.823 0,0" /></g><g
           transform="translate(136.2057,399.0165)"
           id="g474"><path
             id="path476"
             style="fill:#000000;fill-opacity:1;fill-rule:nonzero;stroke:none"
             d="m 0,0 c 0,-3.72 -3.016,-6.735 -6.735,-6.735 -3.72,0 -6.735,3.015 -6.735,6.735 0,3.72 3.015,6.735 6.735,6.735 C -3.016,6.735 0,3.72 0,0" /></g><g
           transform="translate(73.4715,408.4303)"
           id="g478"><path
             id="path480"
             style="fill:none;stroke:#74410b;stroke-width:1;stroke-linecap:butt;stroke-linejoin:miter;stroke-miterlimit:10;stroke-dasharray:none;stroke-opacity:1"
             d="m 0,0 1.589,-3.708 m -5.439,1.036 2.364,-3.269 m -2.782,-2.341 -3.2,2.457" /></g><g
           transform="translate(137.8048,404.7222)"
           id="g482"><path
             id="path484"
             style="fill:none;stroke:#000000;stroke-width:0.73299998;stroke-linecap:butt;stroke-linejoin:miter;stroke-miterlimit:10;stroke-dasharray:none;stroke-opacity:1"
             d="m 0,0 1.589,3.708 m 1.485,-5.941 2.365,3.269 m 3.618,-3.153 -3.2,-2.457" /></g><g
           transform="translate(67.4426,414.3637)"
           id="g486"><path
             id="path488"
             style="fill:#74410b;fill-opacity:1;fill-rule:nonzero;stroke:none"
             d="m 0,0 c 0,0 11.694,11.462 28.788,0.603 l 2.469,-9.209 C 24.997,0.629 9.913,3.373 0,0" /></g><g
           transform="translate(145.4223,414.3637)"
           id="g490"><path
             id="path492"
             style="fill:#74410b;fill-opacity:1;fill-rule:nonzero;stroke:none"
             d="m 0,0 c 0,0 -11.694,11.462 -28.788,0.603 l -2.469,-9.209 C -24.997,0.629 -9.913,3.373 0,0" /></g><g
           transform="translate(67.3613,414.3637)"
           id="g494"><path
             id="path496"
             style="fill:none;stroke:#74410b;stroke-width:1;stroke-linecap:butt;stroke-linejoin:miter;stroke-miterlimit:10;stroke-dasharray:none;stroke-opacity:1"
             d="m 0,0 c 13.392,4.211 32.678,-1.63 34.144,-16.542 0.885,-8.997 -4.736,-13.233 -4.736,-13.233 l 9.663,-6.197 9.663,6.197 c 0,0 -5.62,4.236 -4.736,13.233 C 45.464,-1.63 64.75,4.211 78.142,0" /></g><g
           transform="translate(120.1723,373.5324)"
           id="g498"><path
             id="path500"
             style="fill:#000000;fill-opacity:1;fill-rule:nonzero;stroke:none"
             d="m 0,0 -6.897,0.929 c -2.275,0.307 -4.52,-0.807 -5.892,-2.925 l -0.951,-1.466 -0.95,1.466 c -1.373,2.118 -3.617,3.232 -5.893,2.925 L -27.48,0 C -18.32,-13.829 -9.16,-13.829 0,0" /></g><g
           transform="translate(90.5742,374.9569)"
           id="g502"><path
             id="path504"
             style="fill:none;stroke:#74410b;stroke-width:1;stroke-linecap:butt;stroke-linejoin:miter;stroke-miterlimit:10;stroke-dasharray:none;stroke-opacity:1"
             d="M 0,0 C 10.572,-7.621 21.144,-7.621 31.717,0" /></g><g
           transform="translate(116.9522,355.455)"
           id="g506"><path
             id="path508"
             style="fill:none;stroke:#74410b;stroke-width:1;stroke-linecap:butt;stroke-linejoin:miter;stroke-miterlimit:10;stroke-dasharray:none;stroke-opacity:1"
             d="M 0,0 C -7.013,6.406 -14.026,6.406 -21.04,0" /></g><g
           transform="translate(238.5443,392.9446)"
           id="g510"><path
             id="path512"
             style="fill:none;stroke:#74410b;stroke-width:1;stroke-linecap:butt;stroke-linejoin:miter;stroke-miterlimit:10;stroke-dasharray:none;stroke-opacity:1"
             d="m 0,0 c 0,-72.963 -59.148,-132.112 -132.112,-132.112 -72.963,0 -132.112,59.149 -132.112,132.112 0,72.963 59.149,132.112 132.112,132.112 C -59.148,132.112 0,72.963 0,0 Z" /></g><g
           transform="translate(274.7211,392.9446)"
           id="g514"><path
             id="path516"
             style="fill:none;stroke:#74410b;stroke-width:1;stroke-linecap:butt;stroke-linejoin:miter;stroke-miterlimit:10;stroke-dasharray:none;stroke-opacity:1"
             d="m 0,0 c 0,-92.943 -75.345,-168.289 -168.289,-168.289 -92.943,0 -168.288,75.346 -168.288,168.289 0,92.943 75.345,168.289 168.288,168.289 C -75.345,168.289 0,92.943 0,0 Z" /></g><g
           transform="translate(212.3099,392.9446)"
           id="g518"><path
             id="path520"
             style="fill:none;stroke:#74410b;stroke-width:1;stroke-linecap:butt;stroke-linejoin:miter;stroke-miterlimit:10;stroke-dasharray:none;stroke-opacity:1"
             d="m 0,0 c 0,-58.475 -47.403,-105.877 -105.877,-105.877 -58.475,0 -105.878,47.402 -105.878,105.877 0,58.474 47.403,105.877 105.878,105.877 C -47.403,105.877 0,58.474 0,0 Z" /></g><g
           transform="translate(243.575,431.5702)"
           id="g522"><path
             id="path524"
             style="fill:#b8824e;fill-opacity:1;fill-rule:nonzero;stroke:none"
             d="m 0,0 c 0,-4.654 -3.772,-8.426 -8.426,-8.426 -4.654,0 -8.426,3.772 -8.426,8.426 0,4.654 3.772,8.426 8.426,8.426 C -3.772,8.426 0,4.654 0,0" /></g><g
           transform="translate(185.3698,281.2899)"
           id="g526"><path
             id="path528"
             style="fill:#b8824e;fill-opacity:1;fill-rule:nonzero;stroke:none"
             d="m 0,0 c 0,-2.906 -2.356,-5.262 -5.262,-5.262 -2.906,0 -5.262,2.356 -5.262,5.262 0,2.906 2.356,5.262 5.262,5.262 C -2.356,5.262 0,2.906 0,0" /></g><g
           transform="translate(130.7903,497.1491)"
           id="g530"><path
             id="path532"
             style="fill:#b8824e;fill-opacity:1;fill-rule:nonzero;stroke:none"
             d="m 0,0 c 0,-1.626 -1.319,-2.945 -2.945,-2.945 -1.627,0 -2.945,1.319 -2.945,2.945 0,1.626 1.318,2.945 2.945,2.945 C -1.319,2.945 0,1.626 0,0" /></g><g
           transform="translate(270.4832,343.1629)"
           id="g534"><path
             id="path536"
             style="fill:#74410b;fill-opacity:1;fill-rule:nonzero;stroke:none"
             d="m 0,0 c 0,-1.627 -1.319,-2.945 -2.945,-2.945 -1.627,0 -2.945,1.318 -2.945,2.945 0,1.626 1.318,2.945 2.945,2.945 C -1.319,2.945 0,1.626 0,0" /></g><g
           transform="translate(232.8077,346.3611)"
           id="g538"><path
             id="path540"
             style="fill:#e0b17a;fill-opacity:1;fill-rule:nonzero;stroke:none"
             d="m 0,0 c 6.785,0.136 11.994,0.886 11.994,0.886 0,0 -5.209,0.751 -11.994,0.886 2.134,2.436 3.37,4.553 3.37,4.553 0,0 -2.116,-1.237 -4.552,-3.371 -0.136,6.786 -0.886,11.994 -0.886,11.994 0,0 -0.751,-5.208 -0.886,-11.994 -2.436,2.134 -4.553,3.371 -4.553,3.371 0,0 1.237,-2.117 3.371,-4.553 -6.786,-0.135 -11.994,-0.886 -11.994,-0.886 0,0 5.208,-0.75 11.994,-0.886 -2.134,-2.435 -3.371,-4.552 -3.371,-4.552 0,0 2.117,1.236 4.553,3.37 0.135,-6.785 0.886,-11.994 0.886,-11.994 0,0 0.75,5.209 0.886,11.994 2.436,-2.134 4.552,-3.37 4.552,-3.37 0,0 -1.236,2.117 -3.37,4.552" /></g><g
           transform="translate(228.7912,507.6038)"
           id="g542"><path
             id="path544"
             style="fill:#b8824e;fill-opacity:1;fill-rule:nonzero;stroke:none"
             d="m 0,0 c 6.786,0.136 11.994,0.886 11.994,0.886 0,0 -5.208,0.751 -11.994,0.887 2.134,2.435 3.37,4.552 3.37,4.552 0,0 -2.116,-1.237 -4.552,-3.371 -0.136,6.786 -0.886,11.994 -0.886,11.994 0,0 -0.75,-5.208 -0.886,-11.994 -2.436,2.134 -4.553,3.371 -4.553,3.371 0,0 1.237,-2.117 3.371,-4.552 -6.786,-0.136 -11.994,-0.887 -11.994,-0.887 0,0 5.208,-0.75 11.994,-0.886 -2.134,-2.435 -3.371,-4.552 -3.371,-4.552 0,0 2.117,1.236 4.553,3.37 0.136,-6.785 0.886,-11.994 0.886,-11.994 0,0 0.75,5.209 0.886,11.994 2.436,-2.134 4.552,-3.37 4.552,-3.37 0,0 -1.236,2.117 -3.37,4.552" /></g><g
           transform="translate(31.1646,319.423)"
           id="g546"><path
             id="path548"
             style="fill:#b8824e;fill-opacity:1;fill-rule:nonzero;stroke:none"
             d="m 0,0 c 4.547,0.091 8.037,0.594 8.037,0.594 0,0 -3.49,0.503 -8.037,0.594 1.43,1.632 2.258,3.05 2.258,3.05 0,0 -1.418,-0.828 -3.05,-2.258 -0.091,4.546 -0.594,8.037 -0.594,8.037 0,0 -0.503,-3.491 -0.594,-8.037 -1.632,1.43 -3.05,2.258 -3.05,2.258 0,0 0.828,-1.418 2.258,-3.05 -4.546,-0.091 -8.037,-0.594 -8.037,-0.594 0,0 3.491,-0.503 8.037,-0.594 -1.43,-1.632 -2.258,-3.05 -2.258,-3.05 0,0 1.418,0.828 3.05,2.258 0.091,-4.547 0.594,-8.037 0.594,-8.037 0,0 0.503,3.49 0.594,8.037 1.632,-1.43 3.05,-2.258 3.05,-2.258 0,0 -0.828,1.418 -2.258,3.05" /></g><g
           transform="translate(25.1777,491.0887)"
           id="g550"><path
             id="path552"
             style="fill:#74410b;fill-opacity:1;fill-rule:nonzero;stroke:none"
             d="m 0,0 -6.38,-0.984 4.582,-4.547 -5.741,2.956 1.04,-6.373 -2.907,5.768 -2.907,-5.768 1.039,6.373 -5.741,-2.956 4.583,4.547 -6.38,0.984 6.38,0.984 -4.583,4.547 5.741,-2.956 -1.039,6.372 2.907,-5.767 2.907,5.767 -1.04,-6.372 5.741,2.956 -4.582,-4.547 z" /></g><g
           transform="translate(25.1777,253.6835)"
           id="g554"><path
             id="path556"
             style="fill:#b8824e;fill-opacity:1;fill-rule:nonzero;stroke:none"
             d="m 0,0 -6.38,-0.984 4.582,-4.547 -5.741,2.956 1.04,-6.373 -2.907,5.768 -2.907,-5.768 1.039,6.373 -5.741,-2.956 4.583,4.547 -6.38,0.984 6.38,0.984 -4.583,4.547 5.741,-2.956 -1.039,6.373 2.907,-5.768 2.907,5.768 -1.04,-6.373 5.741,2.956 -4.582,-4.547 z" /></g><g
           transform="translate(189.1822,464.845)"
           id="g558"><path
             id="path560"
             style="fill:#b8824e;fill-opacity:1;fill-rule:nonzero;stroke:none"
             d="m 0,0 -3.944,-0.608 2.833,-2.811 -3.549,1.827 0.642,-3.939 -1.796,3.565 -1.797,-3.565 0.642,3.939 -3.549,-1.827 2.833,2.811 -3.944,0.608 3.944,0.608 -2.833,2.811 3.549,-1.828 -0.642,3.94 1.797,-3.565 1.796,3.565 -0.642,-3.94 3.549,1.828 -2.833,-2.811 z" /></g><g
           id="g562"><g
             id="g564" /><g
             id="g576"><g
               style="opacity:0.44999701"
               id="g574"
               clip-path="url(#clipPath568)"><g
                 id="g572"
                 transform="translate(738.7649,97.9328)"><path
                   id="path570"
                   style="fill:#fef8ed;fill-opacity:1;fill-rule:nonzero;stroke:none"
                   d="m 0,0 c 0,-48.645 -39.434,-88.079 -88.079,-88.079 -48.645,0 -88.079,39.434 -88.079,88.079 0,48.645 39.434,88.079 88.079,88.079 C -39.434,88.079 0,48.645 0,0" /></g></g></g></g><g
           transform="translate(720.2597,97.9328)"
           id="g578"><path
             id="path580"
             style="fill:#fef8ed;fill-opacity:1;fill-rule:nonzero;stroke:none"
             d="m 0,0 c 0,-38.425 -31.149,-69.574 -69.574,-69.574 -38.425,0 -69.574,31.149 -69.574,69.574 0,38.425 31.149,69.574 69.574,69.574 C -31.149,69.574 0,38.425 0,0" /></g><g
           transform="translate(782.7977,97.9328)"
           id="g582"><path
             id="path584"
             style="fill:none;stroke:#74410b;stroke-width:1;stroke-linecap:butt;stroke-linejoin:miter;stroke-miterlimit:10;stroke-dasharray:none;stroke-opacity:1"
             d="m 0,0 c 0,-72.963 -59.149,-132.112 -132.112,-132.112 -72.963,0 -132.112,59.149 -132.112,132.112 0,72.963 59.149,132.112 132.112,132.112 C -59.149,132.112 0,72.963 0,0 Z" /></g><g
           transform="translate(818.9744,97.9328)"
           id="g586"><path
             id="path588"
             style="fill:none;stroke:#74410b;stroke-width:1;stroke-linecap:butt;stroke-linejoin:miter;stroke-miterlimit:10;stroke-dasharray:none;stroke-opacity:1"
             d="m 0,0 c 0,-92.943 -75.345,-168.289 -168.289,-168.289 -92.943,0 -168.288,75.346 -168.288,168.289 0,92.943 75.345,168.289 168.288,168.289 C -75.345,168.289 0,92.943 0,0 Z" /></g><g
           transform="translate(756.5632,97.9328)"
           id="g590"><path
             id="path592"
             style="fill:none;stroke:#74410b;stroke-width:1;stroke-linecap:butt;stroke-linejoin:miter;stroke-miterlimit:10;stroke-dasharray:none;stroke-opacity:1"
             d="m 0,0 c 0,-58.474 -47.403,-105.877 -105.877,-105.877 -58.475,0 -105.878,47.403 -105.878,105.877 0,58.475 47.403,105.878 105.878,105.878 C -47.403,105.878 0,58.475 0,0 Z" /></g><g
           transform="translate(524.137,85.2292)"
           id="g594"><path
             id="path596"
             style="fill:#74410b;fill-opacity:1;fill-rule:nonzero;stroke:none"
             d="m 0,0 c 0,-3.072 -2.491,-5.563 -5.563,-5.563 -3.073,0 -5.563,2.491 -5.563,5.563 0,3.072 2.49,5.563 5.563,5.563 C -2.491,5.563 0,3.072 0,0" /></g><g
           transform="translate(756.382,60.7518)"
           id="g598"><path
             id="path600"
             style="fill:#74410b;fill-opacity:1;fill-rule:nonzero;stroke:none"
             d="m 0,0 c 0,-3.072 -2.491,-5.563 -5.563,-5.563 -3.072,0 -5.563,2.491 -5.563,5.563 0,3.072 2.491,5.563 5.563,5.563 C -2.491,5.563 0,3.072 0,0" /></g><g
           transform="translate(532.5782,212.6754)"
           id="g602"><path
             id="path604"
             style="fill:#e0b17a;fill-opacity:1;fill-rule:nonzero;stroke:none"
             d="m 0,0 c 0,-2.959 -2.399,-5.358 -5.358,-5.358 -2.96,0 -5.359,2.399 -5.359,5.358 0,2.959 2.399,5.358 5.359,5.358 C -2.399,5.358 0,2.959 0,0" /></g><g
           transform="translate(675.0436,202.1374)"
           id="g606"><path
             id="path608"
             style="fill:#74410b;fill-opacity:1;fill-rule:nonzero;stroke:none"
             d="m 0,0 c 0,-1.627 -1.318,-2.945 -2.945,-2.945 -1.627,0 -2.945,1.318 -2.945,2.945 0,1.626 1.318,2.945 2.945,2.945 C -1.318,2.945 0,1.626 0,0" /></g><g
           transform="translate(587.3583,253.745)"
           id="g610"><path
             id="path612"
             style="fill:#74410b;fill-opacity:1;fill-rule:nonzero;stroke:none"
             d="m 0,0 c 0,-1.626 -1.319,-2.945 -2.945,-2.945 -1.627,0 -2.945,1.319 -2.945,2.945 0,1.627 1.318,2.945 2.945,2.945 C -1.319,2.945 0,1.627 0,0" /></g><g
           transform="translate(489.2006,131.2407)"
           id="g614"><path
             id="path616"
             style="fill:#e0b17a;fill-opacity:1;fill-rule:nonzero;stroke:none"
             d="m 0,0 c 10.137,0.203 17.917,1.324 17.917,1.324 0,0 -7.78,1.121 -17.917,1.324 3.188,3.638 5.035,6.8 5.035,6.8 0,0 -3.162,-1.847 -6.801,-5.035 -0.203,10.137 -1.324,17.918 -1.324,17.918 0,0 -1.121,-7.781 -1.324,-17.918 -3.638,3.188 -6.8,5.035 -6.8,5.035 0,0 1.847,-3.162 5.035,-6.8 -10.137,-0.203 -17.917,-1.324 -17.917,-1.324 0,0 7.78,-1.121 17.917,-1.324 -3.188,-3.638 -5.035,-6.8 -5.035,-6.8 0,0 3.162,1.846 6.8,5.034 0.203,-10.136 1.324,-17.917 1.324,-17.917 0,0 1.121,7.781 1.324,17.917 C 1.873,-4.954 5.035,-6.8 5.035,-6.8 5.035,-6.8 3.188,-3.638 0,0" /></g><g
           transform="translate(627.5944,-5.1041)"
           id="g618"><path
             id="path620"
             style="fill:#e0b17a;fill-opacity:1;fill-rule:nonzero;stroke:none"
             d="m 0,0 c 4.547,0.091 8.037,0.594 8.037,0.594 0,0 -3.49,0.503 -8.037,0.594 1.43,1.632 2.258,3.05 2.258,3.05 0,0 -1.418,-0.828 -3.05,-2.258 -0.091,4.546 -0.594,8.037 -0.594,8.037 0,0 -0.503,-3.491 -0.594,-8.037 -1.632,1.43 -3.05,2.258 -3.05,2.258 0,0 0.828,-1.418 2.258,-3.05 -4.546,-0.091 -8.036,-0.594 -8.036,-0.594 0,0 3.49,-0.503 8.036,-0.594 -1.43,-1.632 -2.258,-3.05 -2.258,-3.05 0,0 1.418,0.828 3.05,2.258 0.091,-4.547 0.594,-8.037 0.594,-8.037 0,0 0.503,3.49 0.594,8.037 1.632,-1.43 3.05,-2.258 3.05,-2.258 0,0 -0.828,1.418 -2.258,3.05" /></g><g
           transform="translate(569.431,196.0769)"
           id="g622"><path
             id="path624"
             style="fill:#b8824e;fill-opacity:1;fill-rule:nonzero;stroke:none"
             d="m 0,0 -6.38,-0.984 4.582,-4.547 -5.741,2.956 1.039,-6.373 -2.906,5.768 -2.907,-5.768 1.039,6.373 -5.741,-2.956 4.583,4.547 -6.38,0.984 6.38,0.984 -4.583,4.547 5.741,-2.956 -1.039,6.373 2.907,-5.768 2.907,5.767 -1.04,-6.372 5.742,2.956 -4.583,-4.547 z" /></g><g
           transform="translate(730.7775,171.0632)"
           id="g626"><path
             id="path628"
             style="fill:#b8824e;fill-opacity:1;fill-rule:nonzero;stroke:none"
             d="m 0,0 -3.944,-0.608 2.833,-2.811 -3.549,1.827 0.642,-3.939 -1.796,3.565 -1.797,-3.565 0.642,3.939 -3.549,-1.827 2.833,2.811 -3.944,0.608 3.944,0.608 -2.833,2.811 3.549,-1.827 -0.642,3.939 1.797,-3.565 1.796,3.565 -0.642,-3.94 3.549,1.828 -2.833,-2.811 z" /></g><g
           transform="translate(693.3114,260.6905)"
           id="g630"><path
             id="path632"
             style="fill:#e0b17a;fill-opacity:1;fill-rule:nonzero;stroke:none"
             d="m 0,0 -3.944,-0.608 2.833,-2.811 -3.549,1.827 0.642,-3.939 -1.797,3.565 -1.796,-3.565 0.642,3.939 -3.549,-1.827 2.833,2.811 -3.944,0.608 3.944,0.608 -2.833,2.811 3.549,-1.827 -0.642,3.939 1.796,-3.565 1.797,3.565 -0.642,-3.939 3.549,1.827 -2.833,-2.811 z" /></g><g
           transform="translate(646.0541,158.9697)"
           id="g634"><path
             id="path636"
             style="fill:#e0b17a;fill-opacity:1;fill-rule:nonzero;stroke:none"
             d="M 0,0 C -9.301,0 -18.112,-2.089 -26.001,-5.811 0.666,-8.944 12.004,-34.181 8.477,-52.821 6.111,-65.323 -6.85,-72.396 -6.85,-72.396 L 5.849,-80.54 c -2.491,-7.386 -6.658,-14.524 -11.594,-20.34 -2.19,0.458 -6.231,-1.657 -5.4,-5.491 -4.582,-4.259 -9.131,-7.192 -14.856,-9.892 7.889,-3.721 16.7,-5.811 26.001,-5.811 33.71,0 61.037,27.327 61.037,61.037 C 61.037,-27.327 33.71,0 0,0" /></g></g></g><g
       id="g638"><g
         clip-path="url(#clipPath644)"
         id="g640"><g
           transform="translate(699.159,98.5418)"
           id="g646"><path
             id="path648"
             style="fill:#74410b;fill-opacity:1;fill-rule:nonzero;stroke:none"
             d="m 0,0 c -15.613,0 -28.271,-12.657 -28.271,-28.271 0,-15.613 12.658,-28.27 28.271,-28.27 15.613,0 28.271,12.657 28.271,28.27 C 28.271,-12.657 15.613,0 0,0" /></g></g></g><g
       id="g650"><g
         clip-path="url(#clipPath656)"
         id="g652"><g
           transform="translate(641.9917,60.1678)"
           id="g658"><path
             id="path660"
             style="fill:#000000;fill-opacity:1;fill-rule:nonzero;stroke:none"
             d="M 0,0 C 2.725,-3.984 17.454,-0.981 24.525,12.718 L 13.64,13.575 C 4.728,14.161 3.913,9.656 4.728,6.906 0.922,6.467 -1.613,2.358 0,0" /></g><g
           transform="translate(646.7198,67.0737)"
           id="g662"><path
             id="path664"
             style="fill:none;stroke:#74410b;stroke-width:1;stroke-linecap:butt;stroke-linejoin:miter;stroke-miterlimit:10;stroke-dasharray:none;stroke-opacity:1"
             d="M 0,0 C 7.559,-0.283 15.118,2.3 22.677,7.749" /></g><g
           transform="translate(645.2478,55.56)"
           id="g666"><path
             id="path668"
             style="fill:none;stroke:#74410b;stroke-width:1;stroke-linecap:butt;stroke-linejoin:miter;stroke-miterlimit:10;stroke-dasharray:none;stroke-opacity:1"
             d="M 0,0 C -5.73,5.438 -11.924,0.553 -9.972,-3.809" /></g><g
           transform="translate(698.1001,110.8821)"
           id="g670"><path
             id="path672"
             style="fill:#b8824e;fill-opacity:1;fill-rule:nonzero;stroke:none"
             d="M 0,0 C 0,0 -9.388,-11.295 -20.969,-11.295 -32.55,-11.295 -41.938,0 -41.938,0 c 0,0 9.388,11.295 20.969,11.295 C -9.388,11.295 0,0 0,0" /></g><g
           transform="translate(698.1001,106.2191)"
           id="g674"><path
             id="path676"
             style="fill:#ffffff;fill-opacity:1;fill-rule:nonzero;stroke:none"
             d="M 0,0 C 0,0 -9.388,-11.296 -20.969,-11.296 -32.55,-11.296 -41.938,0 -41.938,0 c 0,0 9.388,11.296 20.969,11.296 C -9.388,11.296 0,0 0,0" /></g><g
           transform="translate(689.8064,106.6225)"
           id="g678"><path
             id="path680"
             style="fill:#74410b;fill-opacity:1;fill-rule:nonzero;stroke:none"
             d="m 0,0 c 0,-6.867 -5.567,-12.434 -12.434,-12.434 -6.867,0 -12.433,5.567 -12.433,12.434 0,6.867 5.566,12.434 12.433,12.434 C -5.567,12.434 0,6.867 0,0" /></g><g
           transform="translate(686.962,106.6225)"
           id="g682"><path
             id="path684"
             style="fill:#000000;fill-opacity:1;fill-rule:nonzero;stroke:none"
             d="m 0,0 c 0,-5.296 -4.293,-9.589 -9.589,-9.589 -5.296,0 -9.589,4.293 -9.589,9.589 0,5.296 4.293,9.589 9.589,9.589 C -4.293,9.589 0,5.296 0,0" /></g><g
           transform="translate(688.7027,113.9437)"
           id="g686"><path
             id="path688"
             style="fill:none;stroke:#74410b;stroke-width:1;stroke-linecap:butt;stroke-linejoin:miter;stroke-miterlimit:10;stroke-dasharray:none;stroke-opacity:1"
             d="m 0,0 2.16,5.041 m 2.019,-8.076 3.215,4.443 m 4.918,-4.286 -4.35,-3.34" /></g><g
           transform="translate(699.0582,127.0506)"
           id="g690"><path
             id="path692"
             style="fill:#74410b;fill-opacity:1;fill-rule:nonzero;stroke:none"
             d="m 0,0 c 0,0 -21.19,13.389 -44.428,-1.372 1.145,-3.127 1.843,-6.536 1.936,-10.327 C -33.982,0.855 -13.476,4.585 0,0" /></g><g
           transform="translate(750.0897,457.9383)"
           id="g694"><path
             id="path696"
             style="fill:#ce9f64;fill-opacity:1;fill-rule:nonzero;stroke:none"
             d="m 0,0 c 4.596,14.993 -3.832,30.873 -18.824,35.469 -7.873,2.413 -15.974,1.209 -22.574,-2.625 1.198,13.933 -7.408,27.296 -21.319,31.561 -10.794,3.309 -22.004,0.279 -29.677,-6.941 0.162,10.552 -6.59,20.38 -17.187,23.629 -10.681,3.274 -21.868,-1.18 -27.609,-10.151 -2.67,3.703 -6.506,6.611 -11.207,8.052 -8.325,2.553 -16.993,-0.171 -22.462,-6.239 -1.913,1.193 -3.991,2.185 -6.248,2.877 -1.958,0.6 -3.931,0.938 -5.89,1.078 0.948,17.656 -10.146,34.358 -27.813,39.774 -12.462,3.821 -25.362,1.155 -35.081,-6.063 -3.669,5.173 -8.988,9.236 -15.52,11.239 -10.869,3.332 -22.176,0.13 -29.717,-7.354 -1.222,0.562 -2.477,1.077 -3.799,1.483 -16.012,4.908 -32.971,-4.092 -37.88,-20.104 -4.908,-16.011 4.092,-32.971 20.104,-37.879 4.867,-1.492 9.818,-1.683 14.496,-0.798 -1.791,-15.658 7.736,-30.859 23.348,-35.645 5.317,-1.63 10.724,-1.844 15.838,-0.894 -1.53,-9.977 4.421,-19.83 14.357,-22.876 2.566,-0.787 5.165,-1.031 7.687,-0.831 0.617,-12.781 9.073,-24.394 22.012,-28.36 7.228,-2.216 14.644,-1.678 21.12,1.013 3.064,-7.129 9.11,-12.923 17.111,-15.375 12.07,-3.701 24.714,1.38 31.137,11.572 8.877,-2.521 18.098,1.074 23.047,8.365 3.988,-3.731 8.863,-6.638 14.436,-8.346 16.678,-5.113 34.19,2.129 42.714,16.494 6.673,-1.088 13.285,2.027 16.744,7.7 3.381,-3.938 7.858,-7.015 13.187,-8.649 C -20.476,-23.42 -4.596,-14.993 0,0" /></g><g
           transform="translate(624.9252,475.9374)"
           id="g698"><path
             id="path700"
             style="fill:none;stroke:#74410b;stroke-width:1;stroke-linecap:butt;stroke-linejoin:miter;stroke-miterlimit:10;stroke-dasharray:none;stroke-opacity:1"
             d="m 0,0 c -19.961,7.001 -36.435,-16.921 -25.7,-29.337 -8.977,-7.759 -4.955,-19.916 5.268,-23.05 m 80.197,16.513 c 2.676,5.121 6.431,20.2 -2.377,25.342 M -8.277,21.31 c 4.557,9.754 3.003,22.063 -3.833,30.379 m -88.988,-41.016 c 31.689,-8.96 28.792,27.28 28.792,27.28 8.375,0.866 13.369,10.459 14.474,20.758 M 83.766,14.845 c -6.979,-3.198 -21.588,-24.615 -2.548,-37.31 6.387,-4.259 15.605,-4.847 21.764,-0.263 4.47,3.327 7.679,11.358 5.684,16.561 C 102.66,9.496 84.054,2.745 88.968,-10.1 M 32.516,39.665 C 12.466,12.908 36.174,-4.398 46.727,-5.112 61.217,-6.094 63.608,6.229 63.7,8.019 64.758,28.713 35.714,28.674 36.292,15.329 M 9.524,-30.063 c -0.99,-8.696 17.863,-13.437 20.65,3.644 1.724,10.561 -8.519,23.732 -24.62,16.115 -14.395,-6.81 -11.338,-25.139 -2.939,-33.718 m -61.132,-5.34 c 9.732,-8.457 23.59,9.617 10.009,18.188 -11.308,7.137 -24.165,-5.316 -20.172,-17.41 m -27.571,21.107 c 12.6,-19.172 43.518,-0.977 31.869,20.611 -3.573,6.622 -18.093,18 -35.718,6.981 -7.278,-4.55 -12.447,-12.801 -11.712,-21.352 M -133.856,2.47 c 10.426,3.407 20.97,16.499 13.394,28.589 -2.239,3.572 -5.505,6.455 -9.274,8.344 -4.153,2.082 -8.936,3.078 -13.51,2.267 -4.574,-0.811 -8.882,-3.553 -11.1,-7.634 -2.218,-4.082 -2.077,-9.474 0.761,-13.151 2.838,-3.678 8.39,-5.136 12.469,-2.914 m 95.421,36.785 c -7.172,-6.327 -9.986,-18.487 -6.17,-27.256 3.816,-8.77 13.621,-14.53 23.139,-13.594 4.271,0.42 8.57,2.193 11.22,5.568 4.141,5.273 2.988,13.668 -1.977,18.173 -4.965,4.506 -12.85,5.057 -18.789,1.945 m -81.68,53.313 c -9.351,-7.732 -13.612,-21.112 -10.453,-32.827 3.158,-11.716 13.567,-21.141 25.538,-23.124 8.129,-1.347 17.061,0.795 22.814,6.695 5.754,5.899 7.536,15.73 3.155,22.709 -4.382,6.979 -15.109,9.404 -21.439,4.128 m -65.626,25.821 c 5.513,-3.542 8.736,-10.081 8.246,-16.615 -0.49,-6.535 -4.78,-12.646 -10.76,-15.326 -5.98,-2.679 -14.029,-2.528 -18.6,2.168 -7.556,7.763 3.086,20.884 11.757,15.597 6.12,-3.731 3.628,-11.122 -0.729,-11.262" /></g><g
           transform="translate(545.8307,524.5145)"
           id="g702"><path
             id="path704"
             style="fill:#fef8ed;fill-opacity:1;fill-rule:nonzero;stroke:none"
             d="m 0,0 c -6.055,-10.967 -2.073,-24.766 8.894,-30.821 2.267,-1.252 4.656,-2.069 7.072,-2.489 1.47,-12.009 8.474,-23.168 19.874,-29.462 11.009,-6.079 23.673,-6.271 34.387,-1.636 1.956,-7.044 6.578,-13.337 13.393,-17.248 -2.38,-2.193 -4.458,-4.792 -6.108,-7.78 -8.235,-14.916 -2.82,-33.682 12.095,-41.918 10.213,-5.638 22.231,-4.874 31.438,0.954 2.067,-2.922 4.808,-5.434 8.152,-7.28 3.963,-2.189 8.269,-3.157 12.489,-3.042 -2.624,-16.505 5.121,-33.614 20.595,-42.158 19.741,-10.899 44.579,-3.732 55.478,16.009 1.612,2.918 2.818,5.949 3.658,9.028 8.024,-0.54 16.032,1.112 23.144,4.714 1.833,-4.879 5.342,-9.157 10.262,-11.874 10.967,-6.055 24.767,-2.073 30.822,8.893 6.055,10.967 2.073,24.767 -8.894,30.822 -2.802,1.547 -5.79,2.435 -8.786,2.723 3.731,17.858 -3.883,36.757 -19.988,46.792 10.127,24.425 0.497,53.081 -23.195,66.162 -18.946,10.461 -41.53,8.002 -57.632,-4.437 -2.145,2.428 -4.731,4.539 -7.729,6.194 -6.824,3.768 -14.503,4.492 -21.485,2.636 -1.167,8.483 -6.182,16.328 -14.255,20.784 C 110.1,23.065 93.012,18.134 85.513,4.553 84.4,2.536 83.566,0.44 82.989,-1.689 80.307,1.128 77.159,3.59 73.574,5.569 61.293,12.35 46.951,11.811 35.558,5.41 34.167,6.742 32.586,7.919 30.821,8.893 19.854,14.949 6.055,10.967 0,0" /></g><g
           transform="translate(608.8474,517.6251)"
           id="g706"><path
             id="path708"
             style="fill:none;stroke:#ce9f64;stroke-width:1;stroke-linecap:butt;stroke-linejoin:miter;stroke-miterlimit:10;stroke-dasharray:none;stroke-opacity:1"
             d="M 0,0 C -6.715,4.772 -17.177,-6.398 -11.099,-19.387 1.133,-45.529 39.495,-21.684 19.972,5.201 M 57.573,-4.66 C 64.495,11.354 34.381,18.985 32.905,-5.116 31.052,-35.381 75.509,-28.959 74.919,1.672 m 29.214,-8.83 c -9.264,-8.484 -16.771,-25.432 -14.544,-34.803 0,0 -30.772,-1.838 -27.416,-31.893 m -109.224,47.433 c 10.62,-1.414 21.571,8.195 19.462,21.558 -2.009,12.721 -24.067,14.836 -25.349,0.828 -0.558,-6.091 7.196,-7.064 7.196,-7.064 M 15.39,-34.013 C 3.838,-44.694 7.21,-57.519 7.21,-57.519 m 13.394,-17.248 c 20.762,-9.459 33.016,16.797 19.535,29.917 -13.48,13.121 -26.454,-1.641 -21.138,-11.644 5.79,-10.895 13.49,-4.077 13.49,-4.077 m 37.259,-57.98 c 18.809,-8.222 25.591,20.089 5.793,24.933 -14.448,3.536 -26.054,-17.277 -17.515,-29.892 m 20.642,-10.322 c 6.934,0.263 13.791,7.525 14.425,15.392 m 111.853,2.764 c -11.043,1.201 -20.002,-2.105 -23.645,-7.115 m -50.952,77.188 c -7.698,-14.025 13.211,-27.141 24.169,-13.344 22.366,28.16 -29.079,57.004 -45.02,19.519 -23.037,-54.171 58.595,-67.495 75.461,-29.456 m 12.235,-76.151 c 6.876,-9.08 21.525,3.016 13.16,14.862 -12.233,17.322 -35.292,-2.311 -28.811,-16.066 m -50.693,-4.713 c -10.748,-15.654 -42.784,2.034 -31.481,26.885 14.22,31.264 67.157,20.269 59.029,-26.886" /></g><g
           transform="translate(250.0315,16.4319)"
           id="g710"><path
             id="path712"
             style="fill:#ce9f64;fill-opacity:1;fill-rule:nonzero;stroke:none"
             d="m 0,0 c -1.723,0 -3.392,-0.228 -4.983,-0.649 -5.88,9.495 -16.389,15.824 -28.379,15.824 -3.5,0 -6.873,-0.542 -10.043,-1.542 0.448,1.832 0.69,3.744 0.69,5.714 0,13.259 -10.749,24.008 -24.009,24.008 -7.881,0 -14.874,-3.798 -19.252,-9.662 -4.457,4.272 -10.502,6.903 -17.164,6.903 -2.927,0 -5.734,-0.511 -8.342,-1.441 -6.909,15.959 -22.792,27.129 -41.289,27.129 -23.131,0 -42.174,-17.463 -44.688,-39.923 -16.195,-0.855 -29.7,-11.85 -34.286,-26.754 -2.36,1.023 -4.963,1.593 -7.699,1.593 -10.707,0 -19.387,-8.68 -19.387,-19.387 0,-10.707 8.68,-19.387 19.387,-19.387 4.804,0 9.197,1.751 12.584,4.645 3.833,-5.634 9.143,-10.178 15.37,-13.089 -0.644,-2.651 -0.994,-5.417 -0.994,-8.266 0,-19.273 15.624,-34.897 34.897,-34.897 15.108,0 27.971,9.602 32.826,23.036 3.11,-1.831 6.732,-2.885 10.602,-2.885 3.264,0 6.353,0.748 9.107,2.08 4.481,-8.165 13.157,-13.701 23.128,-13.701 14.562,0 26.367,11.805 26.367,26.367 0,2.917 -0.481,5.721 -1.356,8.345 6.715,0.111 12.773,2.91 17.147,7.372 6.101,-7.893 15.656,-12.982 26.404,-12.982 11.131,0 20.981,5.456 27.042,13.834 1.982,-0.683 4.106,-1.059 6.32,-1.059 10.707,0 19.387,8.68 19.387,19.387 C 19.387,-8.68 10.707,0 0,0" /></g><g
           transform="translate(38.5414,-29.586)"
           id="g714"><path
             id="path716"
             style="fill:none;stroke:#74410b;stroke-width:1;stroke-linecap:butt;stroke-linejoin:miter;stroke-miterlimit:10;stroke-dasharray:none;stroke-opacity:1"
             d="M 0,0 C 13.399,38.641 57.55,24.998 55.274,-4.269 53.465,-27.533 22.188,-27.533 20.612,-11.379" /></g><g
           transform="translate(23.1713,-16.4971)"
           id="g718"><path
             id="path720"
             style="fill:none;stroke:#74410b;stroke-width:1;stroke-linecap:butt;stroke-linejoin:miter;stroke-miterlimit:10;stroke-dasharray:none;stroke-opacity:1"
             d="M 0,0 C 10.532,7.614 1.389,31.83 -14.92,23.923 -26.073,18.516 -20.109,3.414 -11.213,7.367" /></g><g
           transform="translate(52.5723,42.7932)"
           id="g722"><path
             id="path724"
             style="fill:none;stroke:#74410b;stroke-width:1;stroke-linecap:butt;stroke-linejoin:miter;stroke-miterlimit:10;stroke-dasharray:none;stroke-opacity:1"
             d="m 0,0 c -3.095,-35.429 63.488,-59.184 68.63,-9.134 3.559,34.633 -46.85,34.303 -41.748,3.993 2.499,-14.849 23.562,-13.674 23.597,0" /></g><g
           transform="translate(18.2866,16.0393)"
           id="g726"><path
             id="path728"
             style="fill:none;stroke:#74410b;stroke-width:1;stroke-linecap:butt;stroke-linejoin:miter;stroke-miterlimit:10;stroke-dasharray:none;stroke-opacity:1"
             d="M 0,0 C 8.759,-3.663 14.096,-9.838 14.753,-15.092" /></g><g
           transform="translate(173.1182,-29.5076)"
           id="g730"><path
             id="path732"
             style="fill:none;stroke:#74410b;stroke-width:1;stroke-linecap:butt;stroke-linejoin:miter;stroke-miterlimit:10;stroke-dasharray:none;stroke-opacity:1"
             d="M 0,0 C -19.443,1.5 -17.764,26.207 -2.258,30.455 13.249,34.703 16.858,18.299 8.748,13.01 -0.085,7.25 -3.03,15.533 -3.03,15.533" /></g><g
           transform="translate(243.7116,-21.2832)"
           id="g734"><path
             id="path736"
             style="fill:none;stroke:#74410b;stroke-width:1;stroke-linecap:butt;stroke-linejoin:miter;stroke-miterlimit:10;stroke-dasharray:none;stroke-opacity:1"
             d="M 0,0 C -8.53,3.329 -12.754,15.043 -5.656,24.17 1.102,32.859 18.481,25.328 13.653,14.317 11.554,9.53 5.35,12.005 5.35,12.005" /></g><g
           transform="translate(138.5495,55.5865)"
           id="g738"><path
             id="path740"
             style="fill:none;stroke:#74410b;stroke-width:1;stroke-linecap:butt;stroke-linejoin:miter;stroke-miterlimit:10;stroke-dasharray:none;stroke-opacity:1"
             d="m 0,0 c 3.427,-10.175 2.043,-25.957 -3.495,-32.049 0,0 22.265,-14.087 7.338,-35.189" /></g><g
           transform="translate(164.0558,50.1247)"
           id="g742"><path
             id="path744"
             style="fill:none;stroke:#74410b;stroke-width:1;stroke-linecap:butt;stroke-linejoin:miter;stroke-miterlimit:10;stroke-dasharray:none;stroke-opacity:1"
             d="M 0,0 C -13.095,-22.675 17.516,-45.846 28.632,-22.436 37.484,-3.793 11.8,2.938 10.364,-11.903" /></g><g
           transform="translate(206.6267,30.0654)"
           id="g746"><path
             id="path748"
             style="fill:none;stroke:#74410b;stroke-width:1;stroke-linecap:butt;stroke-linejoin:miter;stroke-miterlimit:10;stroke-dasharray:none;stroke-opacity:1"
             d="m 0,0 c -25.714,-12.051 -6.861,-45.74 13.091,-31.234 9.914,7.209 6.7,19.888 -0.296,19.092" /></g><g
           transform="translate(-162.4512,-2.5252)"
           id="g750"><path
             id="path752"
             style="fill:#fef8ed;fill-opacity:1;fill-rule:nonzero;stroke:none"
             d="m 0,0 c 0,-15.681 12.712,-28.394 28.394,-28.394 8.234,0 15.626,3.527 20.813,9.126 2.938,-13.672 15.083,-23.926 29.633,-23.926 11.29,0 21.119,6.183 26.339,15.335 2.939,-10.136 12.274,-17.554 23.358,-17.554 11.172,0 20.562,7.538 23.421,17.798 3.638,-2.758 8.158,-4.414 13.075,-4.414 8.708,0 16.196,5.144 19.647,12.549 2.178,-0.58 4.456,-0.919 6.817,-0.919 2.048,0 4.033,0.255 5.947,0.695 4.268,-17.158 19.771,-29.875 38.25,-29.875 13.034,0 24.586,6.33 31.763,16.08 5.024,-3.871 11.3,-6.197 18.132,-6.197 11.368,0 21.24,6.375 26.256,15.742 1.334,-0.18 2.685,-0.305 4.067,-0.305 16.747,0 30.324,13.577 30.324,30.324 0,16.747 -13.577,30.323 -30.324,30.323 -5.091,0 -9.88,-1.269 -14.093,-3.486 -2.877,15.495 -16.441,27.236 -32.77,27.236 -5.562,0 -10.794,-1.381 -15.405,-3.788 -1.461,9.987 -10.038,17.664 -20.431,17.664 -2.684,0 -5.24,-0.528 -7.593,-1.459 -4.336,12.039 -15.825,20.663 -29.357,20.663 -7.561,0 -14.493,-2.689 -19.896,-7.16 -5.019,5.919 -12.498,9.685 -20.866,9.685 -12.625,0 -23.224,-8.563 -26.378,-20.19 C 119.897,75.361 112.135,69.221 109.54,60.8 104.633,63.199 99.121,64.548 93.291,64.548 75.847,64.548 61.227,52.492 57.288,36.259 50.59,35.343 45.181,30.427 43.536,23.989 39.15,26.764 33.967,28.393 28.394,28.393 12.712,28.393 0,15.681 0,0" /></g><g
           transform="translate(-37.5082,16.9526)"
           id="g754"><path
             id="path756"
             style="fill:none;stroke:#ce9f64;stroke-width:1;stroke-linecap:butt;stroke-linejoin:miter;stroke-miterlimit:10;stroke-dasharray:none;stroke-opacity:1"
             d="M 0,0 C 21.136,-0.843 29.875,26.857 15.972,35.582 22.281,45.631 14.872,56.075 4.18,56.075 M -67.655,16.781 c -1.058,-5.68 -0.228,-21.197 9.7,-23.533 M 14.16,-17.948 c -1.498,-10.661 3.595,-21.974 12.569,-27.921 M 99.786,19.428 C 66.863,18.706 80.255,-15.093 80.255,-15.093 72.501,-18.375 70.538,-29.011 72.501,-39.182 m -148.237,0.437 c 5.735,5.103 13.426,29.861 -8.499,36.418 -7.355,2.2 -16.341,0.06 -20.886,-6.128 -3.298,-4.49 -4.012,-13.11 -0.58,-17.499 10.333,-13.216 26.143,-1.307 17.68,9.533 m 68.559,-31.032 c 11.327,31.458 -16.412,41.055 -26.711,38.645 -14.142,-3.309 -12.816,-15.791 -12.379,-17.529 5.054,-20.096 32.811,-11.546 28.347,1.044 m 12.287,51.244 c -1.601,8.604 -21.017,7.611 -18.675,-9.537 1.448,-10.602 15.101,-20.192 28.263,-8.191 11.767,10.731 3.472,27.359 -7.073,33.1 M 41.479,64.345 C 29.695,69.579 21.743,48.237 37.24,44.023 50.143,40.514 58.786,56.188 51.424,66.58 M 83.97,54.482 C 66.304,69.119 42.077,42.66 59.541,25.435 c 5.357,-5.284 22.575,-11.906 36.196,3.795 5.625,6.484 8.149,15.887 4.94,23.847 m 28.024,-16.205 c -8.97,-6.313 -15.213,-21.92 -4.426,-31.259 3.188,-2.759 7.156,-4.558 11.313,-5.259 4.58,-0.774 9.445,-0.323 13.58,1.792 4.135,2.116 7.45,6 8.375,10.553 0.924,4.552 -0.791,9.666 -4.582,12.35 -3.791,2.684 -9.527,2.451 -12.775,-0.869 M 59.737,-38.958 c 5.002,8.152 4.13,20.602 -2.09,27.868 -6.219,7.266 -17.281,9.899 -26.107,6.215 -3.96,-1.654 -7.55,-4.609 -9.095,-8.613 -2.413,-6.255 1.149,-13.943 7.217,-16.796 6.068,-2.852 13.768,-1.068 18.533,3.648 m 93.72,-27.03 c 6.674,10.133 6.826,24.174 0.372,34.449 -6.454,10.276 -19.168,16.236 -31.194,14.623 -8.167,-1.095 -16.079,-5.761 -19.85,-13.088 -3.772,-7.326 -2.595,-17.248 3.64,-22.636 6.235,-5.388 17.201,-4.563 21.707,2.337 m 70.312,-5.451 c -6.309,1.77 -11.307,7.077 -12.754,13.468 -1.447,6.391 0.864,13.491 5.796,17.806 4.931,4.315 12.672,6.529 18.418,3.38 9.5,-5.208 3.171,-20.872 -6.669,-18.359 -6.945,1.773 -6.728,9.57 -2.604,10.981" /></g></g></g><g
       id="g758"><g
         clip-path="url(#clipPath764)"
         id="g760"><g
           transform="translate(83.8323,161.4479)"
           id="g766"><path
             id="path768"
             style="fill:none;stroke:#74410b;stroke-width:0.69400001;stroke-linecap:butt;stroke-linejoin:miter;stroke-miterlimit:10;stroke-dasharray:none;stroke-opacity:1"
             d="m 0,0 h -16.212 m 8.106,8.106 V -8.106" /></g><g
           transform="translate(486.2992,201.8999)"
           id="g770"><path
             id="path772"
             style="fill:none;stroke:#74410b;stroke-width:0.69400001;stroke-linecap:butt;stroke-linejoin:miter;stroke-miterlimit:10;stroke-dasharray:none;stroke-opacity:1"
             d="m 0,0 h -16.213 m 8.107,8.106 V -8.106" /></g><g
           transform="translate(230.1941,70.7862)"
           id="g774"><path
             id="path776"
             style="fill:none;stroke:#74410b;stroke-width:0.361;stroke-linecap:butt;stroke-linejoin:miter;stroke-miterlimit:10;stroke-dasharray:none;stroke-opacity:1"
             d="m 0,0 h -8.433 m 4.217,4.216 v -8.432" /></g><g
           transform="translate(164.4167,79.6956)"
           id="g778"><path
             id="path780"
             style="fill:none;stroke:#74410b;stroke-width:0.361;stroke-linecap:butt;stroke-linejoin:miter;stroke-miterlimit:10;stroke-dasharray:none;stroke-opacity:1"
             d="m 0,0 h -8.433 m 4.217,4.217 v -8.433" /></g><g
           transform="translate(204.0161,194.0395)"
           id="g782"><path
             id="path784"
             style="fill:none;stroke:#74410b;stroke-width:0.41800001;stroke-linecap:butt;stroke-linejoin:miter;stroke-miterlimit:10;stroke-dasharray:none;stroke-opacity:1"
             d="m 0,0 h -9.76 m 4.88,4.88 v -9.76" /></g><g
           transform="translate(642.7328,210.0061)"
           id="g786"><path
             id="path788"
             style="fill:none;stroke:#74410b;stroke-width:0.41800001;stroke-linecap:butt;stroke-linejoin:miter;stroke-miterlimit:10;stroke-dasharray:none;stroke-opacity:1"
             d="m 0,0 h -9.76 m 4.88,4.88 v -9.76" /></g><g
           transform="translate(584.3145,278.3606)"
           id="g790"><path
             id="path792"
             style="fill:none;stroke:#74410b;stroke-width:0.41800001;stroke-linecap:butt;stroke-linejoin:miter;stroke-miterlimit:10;stroke-dasharray:none;stroke-opacity:1"
             d="m 0,0 h -9.76 m 4.88,4.88 v -9.76" /></g><g
           transform="translate(340.9062,124.3472)"
           id="g794"><path
             id="path796"
             style="fill:none;stroke:#74410b;stroke-width:0.41800001;stroke-linecap:butt;stroke-linejoin:miter;stroke-miterlimit:10;stroke-dasharray:none;stroke-opacity:1"
             d="m 0,0 h -9.76 m 4.88,4.88 v -9.76" /></g><g
           transform="translate(326.8835,366.0061)"
           id="g798"><path
             id="path800"
             style="fill:none;stroke:#74410b;stroke-width:0.41800001;stroke-linecap:butt;stroke-linejoin:miter;stroke-miterlimit:10;stroke-dasharray:none;stroke-opacity:1"
             d="m 0,0 h -9.76 m 4.88,4.88 v -9.76" /></g><g
           transform="translate(684.2661,306.1782)"
           id="g802"><path
             id="path804"
             style="fill:none;stroke:#74410b;stroke-width:0.41800001;stroke-linecap:butt;stroke-linejoin:miter;stroke-miterlimit:10;stroke-dasharray:none;stroke-opacity:1"
             d="m 0,0 h -9.76 m 4.88,4.88 v -9.76" /></g><g
           transform="translate(499.2856,348.0282)"
           id="g806"><path
             id="path808"
             style="fill:none;stroke:#74410b;stroke-width:0.41800001;stroke-linecap:butt;stroke-linejoin:miter;stroke-miterlimit:10;stroke-dasharray:none;stroke-opacity:1"
             d="m 0,0 h -9.76 m 4.88,4.88 v -9.76" /></g><g
           transform="translate(311.216,438.2624)"
           id="g810"><path
             id="path812"
             style="fill:none;stroke:#74410b;stroke-width:0.69400001;stroke-linecap:butt;stroke-linejoin:miter;stroke-miterlimit:10;stroke-dasharray:none;stroke-opacity:1"
             d="m 0,0 h -16.212 m 8.106,8.106 V -8.106" /></g><g
           transform="translate(494.4054,438.2624)"
           id="g814"><path
             id="path816"
             style="fill:none;stroke:#74410b;stroke-width:0.69400001;stroke-linecap:butt;stroke-linejoin:miter;stroke-miterlimit:10;stroke-dasharray:none;stroke-opacity:1"
             d="m 0,0 h -16.213 m 8.107,8.106 V -8.106" /></g><g
           transform="translate(262.2633,272.1703)"
           id="g818"><path
             id="path820"
             style="fill:none;stroke:#74410b;stroke-width:0.28600001;stroke-linecap:butt;stroke-linejoin:miter;stroke-miterlimit:10;stroke-dasharray:none;stroke-opacity:1"
             d="m 0,0 h -6.683 m 3.341,3.342 v -6.684" /></g><g
           transform="translate(617.1953,383.1531)"
           id="g822"><path
             id="path824"
             style="fill:none;stroke:#74410b;stroke-width:0.28600001;stroke-linecap:butt;stroke-linejoin:miter;stroke-miterlimit:10;stroke-dasharray:none;stroke-opacity:1"
             d="m 0,0 h -6.683 m 3.341,3.342 v -6.684" /></g><g
           transform="translate(739.0471,214.8863)"
           id="g826"><path
             id="path828"
             style="fill:none;stroke:#74410b;stroke-width:0.28600001;stroke-linecap:butt;stroke-linejoin:miter;stroke-miterlimit:10;stroke-dasharray:none;stroke-opacity:1"
             d="m 0,0 h -6.684 m 3.342,3.342 v -6.684" /></g><g
           transform="translate(375,250)"
           id="g830"><path
             id="path832"
             style="fill:none;stroke:#74410b;stroke-width:0.28600001;stroke-linecap:butt;stroke-linejoin:miter;stroke-miterlimit:10;stroke-dasharray:none;stroke-opacity:1"
             d="m 0,0 h -6.684 m 3.342,3.342 v -6.684" /></g><g
           transform="translate(421.4652,403.6968)"
           id="g834"><path
             id="path836"
             style="fill:none;stroke:#74410b;stroke-width:0.28600001;stroke-linecap:butt;stroke-linejoin:miter;stroke-miterlimit:10;stroke-dasharray:none;stroke-opacity:1"
             d="m 0,0 h -6.684 m 3.342,3.342 v -6.684" /></g><g
           transform="translate(450.143,59.9325)"
           id="g838"><path
             id="path840"
             style="fill:none;stroke:#74410b;stroke-width:0.28600001;stroke-linecap:butt;stroke-linejoin:miter;stroke-miterlimit:10;stroke-dasharray:none;stroke-opacity:1"
             d="m 0,0 h -6.683 m 3.341,3.342 v -6.684" /></g><g
           transform="translate(560.4207,15.9122)"
           id="g842"><path
             id="path844"
             style="fill:none;stroke:#74410b;stroke-width:0.28600001;stroke-linecap:butt;stroke-linejoin:miter;stroke-miterlimit:10;stroke-dasharray:none;stroke-opacity:1"
             d="m 0,0 h -6.683 m 3.341,3.342 v -6.684" /></g><g
           transform="translate(70.9616,95.2672)"
           id="g846"><path
             id="path848"
             style="fill:none;stroke:#74410b;stroke-width:0.28600001;stroke-linecap:butt;stroke-linejoin:miter;stroke-miterlimit:10;stroke-dasharray:none;stroke-opacity:1"
             d="m 0,0 h -6.684 m 3.342,3.342 v -6.684" /></g></g></g></g></svg>