<?xml version="1.0" encoding="utf-8"?>
<!-- Generator: Adobe Illustrator 27.5.0, SVG Export Plug-In . SVG Version: 6.00 Build 0)  -->
<svg version="1.1" xmlns="http://www.w3.org/2000/svg" xmlns:xlink="http://www.w3.org/1999/xlink" x="0px" y="0px"
	 viewBox="0 0 750 500" style="enable-background:new 0 0 750 500;" xml:space="preserve">
<g id="BACKGROUND">
	<rect style="fill:#EBD2E1;" width="750" height="500"/>
</g>
<g id="OBJECTS">
	<g>
		<g>
			<g>
				<path style="fill:#897FA4;" d="M327.839,355.328c-1.148,0-2.298-0.256-3.358-0.767c-2.123-1.022-3.664-2.954-4.189-5.251
					l-10.818-47.398l-43.801-21.094c-2.123-1.022-3.664-2.954-4.189-5.251c-0.524-2.297,0.026-4.707,1.495-6.549l30.312-38.01
					l-10.818-47.398c-0.529-2.316,0.036-4.747,1.531-6.594c1.495-1.846,3.742-2.895,6.131-2.869l47.937,0.709l30.877-38.718
					c1.469-1.843,3.697-2.915,6.052-2.915s4.583,1.072,6.052,2.915l31.758,39.823l48.843,0.722c2.352,0.034,4.561,1.137,6.003,2.997
					c1.442,1.859,1.96,4.273,1.408,6.56l-11.165,46.261l29.122,36.518c1.469,1.841,2.019,4.251,1.495,6.549
					c-0.524,2.297-2.066,4.229-4.189,5.251l-43.098,20.756l-11.544,47.83c-0.548,2.274-2.096,4.177-4.21,5.179
					c-2.113,1.002-4.566,0.995-6.674-0.021L375,333.467l-43.802,21.093C330.137,355.072,328.988,355.328,327.839,355.328z
					 M392.841,324.875l24.043,11.578l6.324-26.203L392.841,324.875z M327.316,310.503l5.911,25.897l23.932-11.525L327.316,310.503z
					 M322.909,291.198L375,316.284l52.9-25.476l13.172-54.579l-35.806-44.897l-59.828-0.885l-35.395,44.383L322.909,291.198z
					 M281.136,271.08l23.932,11.525l-7.371-32.293L281.136,271.08z M453.299,251.561l-7.377,30.568l22.943-11.049L453.299,251.561z
					 M425.305,191.628l20.367,25.538l6.069-25.148L425.305,191.628z M299.759,189.773l5.878,25.752l20.229-25.367L299.759,189.773z
					 M357.643,175.144l35.129,0.519L375,153.378L357.643,175.144z"/>
				<path style="fill:#403E4D;" d="M422.161,355.831c-1.221,0-2.441-0.273-3.576-0.82L375,334.022l-43.585,20.989
					c-2.219,1.068-4.934,1.068-7.151,0c-2.273-1.095-3.898-3.132-4.459-5.591l-10.765-47.163l-43.584-20.99
					c-2.273-1.093-3.898-3.131-4.459-5.59c-0.562-2.459,0.018-5,1.591-6.972l30.162-37.821l-10.765-47.164
					c-0.566-2.482,0.028-5.041,1.629-7.02c1.594-1.969,3.967-3.099,6.525-3.054l47.693,0.705l30.725-38.526
					c1.572-1.972,3.92-3.104,6.442-3.104c2.522,0,4.87,1.131,6.443,3.103l31.61,39.639l48.607,0.718
					c2.518,0.037,4.848,1.199,6.391,3.19c1.542,1.989,2.089,4.535,1.498,6.983l-11.107,46.023l28.97,36.327
					c1.572,1.971,2.152,4.512,1.592,6.972c-0.561,2.459-2.186,4.496-4.459,5.59L441.66,301.92l-11.488,47.6
					c-0.586,2.433-2.22,4.442-4.482,5.515C424.567,355.566,423.364,355.831,422.161,355.831z M375,332.967
					c0.074,0,0.148,0.017,0.217,0.05l43.802,21.094c1.981,0.953,4.256,0.961,6.243,0.02c1.987-0.941,3.423-2.708,3.938-4.845
					l11.544-47.83c0.035-0.145,0.134-0.269,0.27-0.333l43.099-20.756c1.996-0.962,3.425-2.752,3.918-4.912
					c0.492-2.161-0.018-4.394-1.398-6.126l-29.122-36.519c-0.097-0.12-0.132-0.278-0.096-0.429l11.164-46.261
					c0.52-2.151,0.04-4.388-1.316-6.136c-1.355-1.749-3.402-2.771-5.614-2.803l-48.844-0.722c-0.149-0.003-0.29-0.071-0.383-0.189
					l-31.758-39.823c-1.383-1.733-3.446-2.727-5.662-2.727s-4.279,0.994-5.661,2.727l-30.877,38.718
					c-0.097,0.121-0.263,0.171-0.398,0.189l-47.936-0.709c-2.271-0.023-4.334,0.954-5.735,2.683
					c-1.408,1.739-1.929,3.987-1.432,6.169l10.818,47.398c0.034,0.148-0.001,0.304-0.096,0.423l-30.312,38.01
					c-1.382,1.733-1.892,3.966-1.398,6.126c0.493,2.161,1.921,3.951,3.918,4.912l43.801,21.095c0.137,0.065,0.237,0.19,0.27,0.339
					l10.818,47.398c0.493,2.16,1.921,3.951,3.918,4.913c1.948,0.938,4.333,0.938,6.284,0l43.801-21.094
					C374.851,332.984,374.926,332.967,375,332.967z M416.884,336.953c-0.074,0-0.148-0.017-0.217-0.05l-24.042-11.578
					c-0.173-0.083-0.283-0.258-0.283-0.45c0-0.192,0.11-0.367,0.283-0.45l30.366-14.624c0.175-0.084,0.38-0.06,0.531,0.061
					c0.15,0.121,0.217,0.318,0.172,0.506l-6.324,26.202c-0.036,0.147-0.136,0.27-0.272,0.335
					C417.03,336.938,416.957,336.953,416.884,336.953z M393.994,324.875l22.549,10.859l5.932-24.575L393.994,324.875z
					 M333.226,336.901c-0.074,0-0.148-0.017-0.217-0.05c-0.137-0.065-0.237-0.19-0.27-0.339l-5.911-25.897
					c-0.043-0.188,0.025-0.383,0.176-0.502c0.149-0.12,0.356-0.143,0.528-0.059l29.843,14.372c0.173,0.083,0.283,0.258,0.283,0.45
					c0,0.192-0.11,0.367-0.283,0.45l-23.933,11.525C333.375,336.884,333.301,336.901,333.226,336.901z M328.034,311.405l5.54,24.273
					l22.432-10.803L328.034,311.405z M375,316.783c-0.074,0-0.148-0.017-0.217-0.05l-52.091-25.086
					c-0.137-0.065-0.237-0.19-0.271-0.339l-12.865-56.367c-0.034-0.148,0.001-0.304,0.096-0.423l35.395-44.383
					c0.097-0.122,0.25-0.202,0.398-0.188l59.829,0.885c0.149,0.002,0.29,0.071,0.383,0.188l35.806,44.897
					c0.097,0.12,0.132,0.278,0.096,0.429l-13.172,54.579c-0.035,0.146-0.134,0.269-0.27,0.333l-52.9,25.476
					C375.148,316.767,375.074,316.783,375,316.783z M323.343,290.852L375,315.729l52.47-25.268l13.06-54.111l-35.506-44.521
					l-59.347-0.878l-35.091,44.003L323.343,290.852z M305.068,283.105c-0.074,0-0.148-0.017-0.217-0.05l-23.932-11.524
					c-0.137-0.065-0.237-0.19-0.271-0.339c-0.034-0.148,0.001-0.304,0.096-0.423L297.306,250c0.12-0.15,0.314-0.22,0.502-0.176
					c0.187,0.043,0.334,0.188,0.376,0.376l7.371,32.293c0.043,0.188-0.025,0.383-0.176,0.502
					C305.289,283.068,305.179,283.105,305.068,283.105z M281.917,270.902l22.432,10.802l-6.909-30.269L281.917,270.902z
					 M445.922,282.629c-0.112,0-0.224-0.038-0.315-0.111c-0.15-0.121-0.217-0.318-0.172-0.506l7.377-30.568
					c0.045-0.186,0.191-0.33,0.378-0.371c0.189-0.039,0.381,0.026,0.499,0.177l15.566,19.52c0.095,0.119,0.131,0.274,0.097,0.423
					c-0.033,0.148-0.133,0.273-0.271,0.339l-22.943,11.049C446.07,282.612,445.996,282.629,445.922,282.629z M453.545,252.671
					l-6.89,28.55l21.428-10.319L453.545,252.671z M445.673,217.667c-0.15,0-0.295-0.067-0.391-0.189l-20.367-25.539
					c-0.121-0.151-0.143-0.358-0.059-0.532c0.084-0.171,0.259-0.28,0.449-0.28c0.002,0,0.005,0,0.008,0l26.436,0.39
					c0.151,0.002,0.294,0.074,0.388,0.193c0.093,0.12,0.126,0.276,0.091,0.424l-6.069,25.149c-0.045,0.186-0.191,0.33-0.378,0.371
					C445.745,217.663,445.709,217.667,445.673,217.667z M426.356,192.144l19.07,23.913l5.683-23.548L426.356,192.144z
					 M305.637,216.025c-0.037,0-0.074-0.004-0.111-0.013c-0.187-0.043-0.333-0.188-0.376-0.376l-5.878-25.752
					c-0.034-0.15,0.002-0.307,0.099-0.426c0.097-0.12,0.231-0.185,0.396-0.186l26.107,0.385c0.191,0.003,0.363,0.114,0.445,0.287
					c0.082,0.172,0.058,0.376-0.061,0.525l-20.229,25.367C305.932,215.957,305.788,216.025,305.637,216.025z M300.388,190.282
					l5.505,24.119l18.946-23.759L300.388,190.282z M392.772,176.163c-0.002,0-0.005,0-0.008,0l-35.129-0.519
					c-0.191-0.003-0.363-0.114-0.445-0.286c-0.082-0.173-0.058-0.376,0.061-0.525l17.357-21.766c0.189-0.238,0.592-0.238,0.781,0
					l17.773,22.285c0.121,0.151,0.143,0.358,0.059,0.532C393.137,176.055,392.963,176.163,392.772,176.163z M358.669,174.659
					l33.052,0.488L375,154.18L358.669,174.659z"/>
			</g>
		</g>
		<g>
			<path style="fill:#403E4D;" d="M425.769,355.828H324.231c-0.152,0-0.296-0.069-0.391-0.188l-63.308-79.386
				c-0.095-0.119-0.13-0.274-0.096-0.423l22.594-98.992c0.034-0.148,0.133-0.273,0.271-0.339l91.482-44.056
				c0.137-0.065,0.297-0.065,0.434,0l91.482,44.056c0.138,0.066,0.237,0.191,0.271,0.339l22.595,98.992
				c0.034,0.148-0.002,0.304-0.097,0.423L426.16,355.64C426.065,355.759,425.922,355.828,425.769,355.828z M324.472,354.828h101.056
				l63.008-79.009l-22.487-98.523L375,133.45l-91.048,43.847l-22.487,98.523L324.472,354.828z"/>
		</g>
		<g>
			<g>
				<path style="fill:#403E4D;" d="M422.161,355.831c-1.221,0-2.441-0.273-3.576-0.82L375,334.022l-43.585,20.989
					c-2.219,1.068-4.934,1.068-7.151,0c-2.273-1.095-3.898-3.132-4.459-5.591l-10.765-47.163l-43.584-20.99
					c-2.273-1.093-3.898-3.131-4.459-5.59c-0.562-2.459,0.018-5,1.591-6.972l30.162-37.821l-10.765-47.164
					c-0.566-2.482,0.028-5.041,1.629-7.02c1.594-1.969,3.967-3.099,6.525-3.054l47.693,0.705l30.725-38.526
					c1.572-1.972,3.92-3.104,6.442-3.104c2.522,0,4.87,1.131,6.443,3.103l31.61,39.639l48.607,0.718
					c2.518,0.037,4.848,1.199,6.391,3.19c1.542,1.989,2.089,4.535,1.498,6.983l-11.107,46.023l28.97,36.327
					c1.572,1.971,2.152,4.512,1.592,6.972c-0.561,2.459-2.186,4.496-4.459,5.59L441.66,301.92l-11.488,47.6
					c-0.586,2.433-2.22,4.442-4.482,5.515C424.567,355.566,423.364,355.831,422.161,355.831z M375,332.967
					c0.074,0,0.148,0.017,0.217,0.05l43.802,21.094c1.981,0.953,4.256,0.961,6.243,0.02c1.987-0.941,3.423-2.708,3.938-4.845
					l11.544-47.83c0.035-0.145,0.134-0.269,0.27-0.333l43.099-20.756c1.996-0.962,3.425-2.752,3.918-4.912
					c0.492-2.161-0.018-4.394-1.398-6.126l-29.122-36.519c-0.097-0.12-0.132-0.278-0.096-0.429l11.164-46.261
					c0.52-2.151,0.04-4.388-1.316-6.136c-1.355-1.749-3.402-2.771-5.614-2.803l-48.844-0.722c-0.149-0.003-0.29-0.071-0.383-0.189
					l-31.758-39.823c-1.383-1.733-3.446-2.727-5.662-2.727s-4.279,0.994-5.661,2.727l-30.877,38.718
					c-0.097,0.121-0.263,0.171-0.398,0.189l-47.936-0.709c-2.271-0.023-4.334,0.954-5.735,2.683
					c-1.408,1.739-1.929,3.987-1.432,6.169l10.818,47.398c0.034,0.148-0.001,0.304-0.096,0.423l-30.312,38.01
					c-1.382,1.733-1.892,3.966-1.398,6.126c0.493,2.161,1.921,3.951,3.918,4.912l43.801,21.095c0.137,0.065,0.237,0.19,0.27,0.339
					l10.818,47.398c0.493,2.16,1.921,3.951,3.918,4.913c1.948,0.938,4.333,0.938,6.284,0l43.801-21.094
					C374.851,332.984,374.926,332.967,375,332.967z M416.884,336.953c-0.074,0-0.148-0.017-0.217-0.05l-24.042-11.578
					c-0.173-0.083-0.283-0.258-0.283-0.45c0-0.192,0.11-0.367,0.283-0.45l30.366-14.624c0.175-0.084,0.38-0.06,0.531,0.061
					c0.15,0.121,0.217,0.318,0.172,0.506l-6.324,26.202c-0.036,0.147-0.136,0.27-0.272,0.335
					C417.03,336.938,416.957,336.953,416.884,336.953z M393.994,324.875l22.549,10.859l5.932-24.575L393.994,324.875z
					 M333.226,336.901c-0.074,0-0.148-0.017-0.217-0.05c-0.137-0.065-0.237-0.19-0.27-0.339l-5.911-25.897
					c-0.043-0.188,0.025-0.383,0.176-0.502c0.149-0.12,0.356-0.143,0.528-0.059l29.843,14.372c0.173,0.083,0.283,0.258,0.283,0.45
					c0,0.192-0.11,0.367-0.283,0.45l-23.933,11.525C333.375,336.884,333.301,336.901,333.226,336.901z M328.034,311.405l5.54,24.273
					l22.432-10.803L328.034,311.405z M375,316.783c-0.074,0-0.148-0.017-0.217-0.05l-52.091-25.086
					c-0.137-0.065-0.237-0.19-0.271-0.339l-12.865-56.367c-0.034-0.148,0.001-0.304,0.096-0.423l35.395-44.383
					c0.097-0.122,0.25-0.202,0.398-0.188l59.829,0.885c0.149,0.002,0.29,0.071,0.383,0.188l35.806,44.897
					c0.097,0.12,0.132,0.278,0.096,0.429l-13.172,54.579c-0.035,0.146-0.134,0.269-0.27,0.333l-52.9,25.476
					C375.148,316.767,375.074,316.783,375,316.783z M323.343,290.852L375,315.729l52.47-25.268l13.06-54.111l-35.506-44.521
					l-59.347-0.878l-35.091,44.003L323.343,290.852z M305.068,283.105c-0.074,0-0.148-0.017-0.217-0.05l-23.932-11.524
					c-0.137-0.065-0.237-0.19-0.271-0.339c-0.034-0.148,0.001-0.304,0.096-0.423L297.306,250c0.12-0.15,0.314-0.22,0.502-0.176
					c0.187,0.043,0.334,0.188,0.376,0.376l7.371,32.293c0.043,0.188-0.025,0.383-0.176,0.502
					C305.289,283.068,305.179,283.105,305.068,283.105z M281.917,270.902l22.432,10.802l-6.909-30.269L281.917,270.902z
					 M445.922,282.629c-0.112,0-0.224-0.038-0.315-0.111c-0.15-0.121-0.217-0.318-0.172-0.506l7.377-30.568
					c0.045-0.186,0.191-0.33,0.378-0.371c0.189-0.039,0.381,0.026,0.499,0.177l15.566,19.52c0.095,0.119,0.131,0.274,0.097,0.423
					c-0.033,0.148-0.133,0.273-0.271,0.339l-22.943,11.049C446.07,282.612,445.996,282.629,445.922,282.629z M453.545,252.671
					l-6.89,28.55l21.428-10.319L453.545,252.671z M445.673,217.667c-0.15,0-0.295-0.067-0.391-0.189l-20.367-25.539
					c-0.121-0.151-0.143-0.358-0.059-0.532c0.084-0.171,0.259-0.28,0.449-0.28c0.002,0,0.005,0,0.008,0l26.436,0.39
					c0.151,0.002,0.294,0.074,0.388,0.193c0.093,0.12,0.126,0.276,0.091,0.424l-6.069,25.149c-0.045,0.186-0.191,0.33-0.378,0.371
					C445.745,217.663,445.709,217.667,445.673,217.667z M426.356,192.144l19.07,23.913l5.683-23.548L426.356,192.144z
					 M305.637,216.025c-0.037,0-0.074-0.004-0.111-0.013c-0.187-0.043-0.333-0.188-0.376-0.376l-5.878-25.752
					c-0.034-0.15,0.002-0.307,0.099-0.426c0.097-0.12,0.231-0.185,0.396-0.186l26.107,0.385c0.191,0.003,0.363,0.114,0.445,0.287
					c0.082,0.172,0.058,0.376-0.061,0.525l-20.229,25.367C305.932,215.957,305.788,216.025,305.637,216.025z M300.388,190.282
					l5.505,24.119l18.946-23.759L300.388,190.282z M392.772,176.163c-0.002,0-0.005,0-0.008,0l-35.129-0.519
					c-0.191-0.003-0.363-0.114-0.445-0.286c-0.082-0.173-0.058-0.376,0.061-0.525l17.357-21.766c0.189-0.238,0.592-0.238,0.781,0
					l17.773,22.285c0.121,0.151,0.143,0.358,0.059,0.532C393.137,176.055,392.963,176.163,392.772,176.163z M358.669,174.659
					l33.052,0.488L375,154.18L358.669,174.659z"/>
			</g>
			<g>
				<path style="fill:#403E4D;" d="M293.29,231.507c-0.109,0-0.219-0.035-0.311-0.109c-0.216-0.172-0.251-0.486-0.08-0.702
					l44.78-56.152c0.174-0.216,0.488-0.251,0.703-0.08c0.216,0.172,0.252,0.487,0.08,0.703l-44.78,56.152
					C293.583,231.443,293.437,231.507,293.29,231.507z"/>
			</g>
			<g>
				<path style="fill:#403E4D;" d="M375,333.967c-0.073,0-0.147-0.016-0.217-0.05l-65.526-31.556
					c-0.249-0.119-0.353-0.418-0.234-0.667c0.12-0.248,0.419-0.355,0.668-0.233l65.526,31.556c0.249,0.119,0.354,0.418,0.233,0.667
					C375.364,333.862,375.185,333.967,375,333.967z"/>
			</g>
			<g>
				<path style="fill:#403E4D;" d="M441.229,302.073c-0.038,0-0.078-0.005-0.117-0.014c-0.269-0.065-0.434-0.335-0.369-0.604
					l16.67-69.074c0.065-0.268,0.336-0.429,0.603-0.369c0.269,0.065,0.434,0.335,0.369,0.604l-16.67,69.074
					C441.66,301.919,441.455,302.073,441.229,302.073z"/>
			</g>
			<g>
				<path style="fill:#403E4D;" d="M441.072,236.729c-0.038,0-0.078-0.005-0.117-0.014c-0.269-0.066-0.434-0.335-0.369-0.604
					l4.601-19.061c0.066-0.269,0.336-0.428,0.604-0.369c0.269,0.065,0.434,0.335,0.369,0.604l-4.601,19.062
					C441.503,236.575,441.298,236.729,441.072,236.729z"/>
			</g>
			<g>
				<path style="fill:#403E4D;" d="M423.208,310.751c-0.038,0-0.078-0.005-0.117-0.014c-0.268-0.065-0.434-0.335-0.369-0.603
					l4.692-19.443c0.065-0.268,0.334-0.43,0.603-0.369c0.268,0.065,0.434,0.335,0.369,0.603l-4.692,19.443
					C423.638,310.598,423.433,310.751,423.208,310.751z"/>
			</g>
			<g>
				<path style="fill:#403E4D;" d="M392.842,325.375c-0.073,0-0.147-0.016-0.217-0.05l-17.842-8.592
					c-0.249-0.119-0.353-0.418-0.233-0.667c0.12-0.249,0.423-0.353,0.667-0.233l17.842,8.592c0.249,0.119,0.354,0.418,0.233,0.667
					C393.206,325.271,393.027,325.375,392.842,325.375z"/>
			</g>
			<g>
				<path style="fill:#403E4D;" d="M322.908,291.698c-0.073,0-0.146-0.016-0.216-0.05l-17.841-8.593
					c-0.249-0.119-0.353-0.418-0.234-0.667c0.121-0.248,0.419-0.355,0.667-0.233l17.841,8.593c0.249,0.119,0.353,0.418,0.234,0.667
					C323.273,291.593,323.094,291.698,322.908,291.698z"/>
			</g>
			<g>
				<path style="fill:#403E4D;" d="M297.697,250.812c-0.109,0-0.219-0.035-0.311-0.109c-0.216-0.172-0.251-0.486-0.079-0.702
					l12.347-15.481c0.173-0.217,0.486-0.252,0.703-0.079c0.216,0.172,0.251,0.486,0.08,0.702l-12.347,15.482
					C297.989,250.747,297.844,250.812,297.697,250.812z"/>
			</g>
			<g>
				<path style="fill:#403E4D;" d="M345.438,190.947c-0.109,0-0.219-0.036-0.311-0.109c-0.216-0.172-0.251-0.487-0.08-0.703
					l12.205-15.303c0.173-0.216,0.487-0.252,0.703-0.08c0.216,0.172,0.252,0.487,0.08,0.703l-12.205,15.303
					C345.73,190.883,345.585,190.947,345.438,190.947z"/>
			</g>
			<g>
				<path style="fill:#403E4D;" d="M405.266,191.832c-0.146,0-0.292-0.064-0.391-0.189l-12.494-15.669
					c-0.173-0.216-0.137-0.53,0.079-0.703c0.216-0.171,0.53-0.137,0.702,0.08l12.494,15.668c0.173,0.216,0.137,0.53-0.079,0.703
					C405.486,191.796,405.376,191.832,405.266,191.832z"/>
			</g>
			<g>
				<path style="fill:#403E4D;" d="M425.305,192.128c-0.146,0-0.292-0.064-0.391-0.188l-12.495-15.669
					c-0.173-0.216-0.137-0.53,0.079-0.703c0.216-0.17,0.53-0.137,0.702,0.08l12.495,15.668c0.173,0.216,0.137,0.53-0.079,0.703
					C425.525,192.092,425.415,192.128,425.305,192.128z"/>
			</g>
		</g>
	</g>
	<g>
		<g>
			<g>
				<g>
					<path style="fill:#403E4D;" d="M511.791,313.483c-0.07,0-0.142-0.015-0.21-0.046c-0.25-0.116-0.359-0.413-0.244-0.664
						c9.103-19.726,13.72-40.809,13.72-62.665c0-82.744-67.313-150.061-150.052-150.061c-52.705,0-100.625,26.958-128.186,72.112
						c-0.143,0.236-0.452,0.311-0.688,0.166c-0.235-0.144-0.31-0.452-0.166-0.688c13.266-21.734,31.941-39.925,54.007-52.605
						c22.751-13.075,48.697-19.986,75.032-19.986c83.29,0,151.052,67.766,151.052,151.061c0,22.002-4.646,43.227-13.812,63.085
						C512.16,313.375,511.979,313.483,511.791,313.483z"/>
				</g>
				<g>
					<path style="fill:#403E4D;" d="M398.666,399.302c-0.241,0-0.454-0.176-0.493-0.422c-0.043-0.272,0.143-0.528,0.416-0.572
						c31.093-4.929,59.434-19.329,81.96-41.642c0.197-0.194,0.514-0.192,0.707,0.004c0.194,0.196,0.192,0.513-0.004,0.707
						c-22.675,22.461-51.205,36.956-82.507,41.919C398.718,399.3,398.692,399.302,398.666,399.302z"/>
				</g>
				<g>
					<path style="fill:#403E4D;" d="M367.074,400.953c-0.009,0-0.018,0-0.026-0.001c-38.599-2.013-74.613-18.613-101.406-46.744
						c-26.89-28.232-41.699-65.202-41.699-104.101c0-8.923,0.788-17.867,2.343-26.586c0.048-0.271,0.302-0.451,0.58-0.404
						c0.272,0.049,0.453,0.309,0.404,0.58c-1.544,8.66-2.327,17.546-2.327,26.41c0,79.869,62.443,145.689,142.157,149.847
						c0.275,0.014,0.487,0.249,0.473,0.525C367.559,400.746,367.339,400.953,367.074,400.953z"/>
				</g>
				<g>
					<path style="fill:#403E4D;" d="M375.005,367.804c-64.898,0-117.695-52.798-117.695-117.696
						c0-64.897,52.798-117.695,117.695-117.695c64.893,0,117.686,52.798,117.686,117.695
						C492.691,315.006,439.897,367.804,375.005,367.804z M375.005,133.412c-64.346,0-116.695,52.349-116.695,116.695
						c0,64.347,52.349,116.696,116.695,116.696c64.341,0,116.686-52.35,116.686-116.696
						C491.691,185.761,439.345,133.412,375.005,133.412z"/>
				</g>
			</g>
			<g>
				<path style="fill:#403E4D;" d="M375.005,367.804c-64.898,0-117.695-52.798-117.695-117.696
					c0-64.897,52.798-117.695,117.695-117.695c64.893,0,117.686,52.798,117.686,117.695
					C492.691,315.006,439.897,367.804,375.005,367.804z M375.005,133.412c-64.346,0-116.695,52.349-116.695,116.695
					c0,64.347,52.349,116.696,116.695,116.696c64.341,0,116.686-52.35,116.686-116.696
					C491.691,185.761,439.345,133.412,375.005,133.412z"/>
			</g>
			<g>
				<g>
					<path style="fill:#403E4D;" d="M382.346,118.576l-0.014,2.565l-9.898-0.053l0.013-2.565l3.68,0.019l0.049-9.07
						c-0.157,0.207-0.401,0.425-0.73,0.657c-0.329,0.231-0.701,0.446-1.117,0.642c-0.416,0.196-0.827,0.355-1.234,0.473
						c-0.406,0.119-0.783,0.177-1.128,0.175l0.015-2.669c0.345,0.002,0.748-0.099,1.207-0.305c0.458-0.205,0.904-0.449,1.338-0.731
						c0.433-0.283,0.806-0.557,1.119-0.824c0.313-0.266,0.495-0.459,0.547-0.58l2.928,0.016l-0.066,12.231L382.346,118.576z"/>
				</g>
				<g>
					<path style="fill:#403E4D;" d="M444.702,141.036c0.425-0.599,0.865-1.122,1.321-1.57c0.456-0.448,0.966-0.809,1.532-1.083
						s1.215-0.456,1.946-0.548c0.732-0.091,1.575-0.077,2.529,0.042c0.696,0.065,1.34,0.143,1.933,0.231
						c0.593,0.089,1.137,0.143,1.633,0.162c0.495,0.019,0.926-0.028,1.293-0.143c0.367-0.115,0.673-0.343,0.916-0.685
						c0.225-0.318,0.347-0.677,0.366-1.076c0.018-0.4-0.075-0.803-0.283-1.212c-0.209-0.408-0.552-0.783-1.031-1.123
						c-0.394-0.28-0.784-0.478-1.168-0.591c-0.386-0.114-0.766-0.183-1.141-0.206c-0.375-0.023-0.738-0.011-1.09,0.036
						c-0.352,0.048-0.665,0.1-0.94,0.159l-0.293-2.719c0.289-0.049,0.661-0.081,1.117-0.096c0.455-0.016,0.974,0.023,1.553,0.118
						c0.579,0.093,1.196,0.262,1.851,0.504c0.655,0.242,1.305,0.593,1.954,1.053c0.901,0.64,1.571,1.346,2.007,2.118
						c0.438,0.771,0.642,1.543,0.612,2.316c-0.03,0.773-0.287,1.501-0.773,2.185c-0.376,0.53-0.812,0.919-1.307,1.17
						c-0.496,0.251-1.011,0.417-1.546,0.5c-0.536,0.083-1.062,0.108-1.579,0.075c-0.517-0.034-0.998-0.08-1.443-0.138
						c-0.719-0.123-1.362-0.208-1.931-0.257c-0.57-0.049-1.07-0.06-1.503-0.033c-0.432,0.027-0.83,0.094-1.193,0.203
						c-0.363,0.108-0.719,0.274-1.069,0.499l6.971,4.951l-1.484,2.092L444.702,141.036z"/>
				</g>
				<g>
					<path style="fill:#403E4D;" d="M502.945,206.652c0.123,0.726,0.068,1.412-0.163,2.06c-0.232,0.647-0.612,1.224-1.144,1.729
						s-1.18,0.891-1.943,1.158c-1.031,0.358-2.015,0.418-2.956,0.179c-0.94-0.24-1.78-0.738-2.519-1.496
						c-0.739-0.758-1.325-1.757-1.756-2.997c-0.426-1.224-0.585-2.389-0.477-3.497c0.108-1.108,0.46-2.095,1.054-2.961l2.439,1.017
						c-0.467,0.602-0.764,1.272-0.89,2.012c-0.128,0.739-0.026,1.582,0.304,2.528c0.369,1.061,0.893,1.806,1.57,2.239
						c0.678,0.431,1.487,0.484,2.429,0.156c0.974-0.339,1.624-0.932,1.952-1.777c0.327-0.846,0.266-1.913-0.183-3.202l-0.23-0.661
						l2.105-0.733l0.255,0.735c0.382,1.093,0.937,1.841,1.668,2.245c0.73,0.404,1.497,0.466,2.3,0.187
						c0.535-0.186,0.931-0.462,1.188-0.825c0.257-0.364,0.401-0.785,0.432-1.262c0.03-0.477-0.053-1.001-0.253-1.572
						c-0.284-0.816-0.724-1.476-1.321-1.982c-0.597-0.505-1.278-0.836-2.046-0.989l1.223-2.319c0.636,0.144,1.247,0.43,1.835,0.856
						c0.587,0.426,1.122,0.977,1.604,1.65c0.481,0.674,0.87,1.435,1.166,2.283c0.363,1.044,0.506,2.041,0.429,2.992
						c-0.077,0.95-0.367,1.769-0.871,2.457c-0.503,0.687-1.201,1.187-2.096,1.498c-0.629,0.219-1.278,0.299-1.948,0.24
						c-0.671-0.059-1.28-0.25-1.828-0.571C503.725,207.706,503.283,207.248,502.945,206.652z"/>
				</g>
				<g>
					<path style="fill:#403E4D;" d="M494.68,284.224l3.954,1.155l2.231-7.637l2.437,0.712l8.485,11.711l-0.553,1.89l-10.92-3.19
						l-0.639,2.189l-2.487-0.727l0.639-2.189l-3.954-1.155L494.68,284.224z M502.545,281.23l-1.511,5.174l6.741,1.969
						L502.545,281.23z"/>
				</g>
				<g>
					<path style="fill:#403E4D;" d="M452.554,345.041c1.046-0.823,2.167-1.326,3.364-1.509c1.197-0.184,2.327-0.046,3.392,0.413
						l-0.297,2.345c-0.854-0.274-1.719-0.355-2.6-0.245c-0.881,0.111-1.66,0.432-2.339,0.967c-0.557,0.438-0.952,0.954-1.19,1.547
						c-0.236,0.593-0.312,1.202-0.226,1.827c0.085,0.626,0.341,1.209,0.769,1.753c0.427,0.543,0.923,0.927,1.487,1.155
						c0.563,0.227,1.142,0.293,1.738,0.198c0.596-0.096,1.152-0.346,1.668-0.752c0.529-0.416,0.926-0.917,1.193-1.5
						c0.266-0.584,0.371-1.204,0.315-1.863l1.975-1.555l5.004,9.748l-7.065,5.562l-1.619-2.056l5.436-4.28l-2.377-4.527
						c-0.039,0.426-0.196,0.868-0.472,1.328c-0.276,0.459-0.665,0.886-1.167,1.281c-0.909,0.716-1.879,1.16-2.908,1.333
						c-1.03,0.172-2.021,0.073-2.973-0.298c-0.952-0.372-1.786-1.013-2.503-1.922c-0.759-0.964-1.193-1.991-1.303-3.08
						s0.065-2.145,0.524-3.167C450.839,346.722,451.564,345.822,452.554,345.041z"/>
				</g>
				<g>
					<path style="fill:#403E4D;" d="M375.688,378.593c0.532-1,1.277-1.812,2.236-2.438c0.96-0.626,2.07-0.974,3.328-1.046
						c1.345-0.076,2.54,0.18,3.586,0.77c1.046,0.59,1.884,1.481,2.513,2.674c0.631,1.192,0.994,2.643,1.092,4.35
						c0.131,2.329-0.046,4.294-0.536,5.896c-0.488,1.602-1.231,2.83-2.23,3.683c-0.998,0.852-2.213,1.319-3.644,1.401
						c-1.173,0.067-2.262-0.144-3.268-0.632c-1.005-0.488-1.838-1.207-2.498-2.156l1.582-1.854c0.422,0.72,0.998,1.271,1.728,1.653
						c0.731,0.382,1.52,0.55,2.365,0.502c0.845-0.048,1.573-0.336,2.182-0.863c0.611-0.528,1.066-1.272,1.366-2.232
						c0.301-0.961,0.431-2.097,0.39-3.41c-0.229,0.532-0.544,0.995-0.946,1.391c-0.401,0.394-0.876,0.712-1.425,0.951
						c-0.549,0.239-1.151,0.377-1.807,0.414c-1.207,0.069-2.305-0.141-3.293-0.63c-0.988-0.49-1.789-1.183-2.403-2.083
						c-0.613-0.9-0.953-1.928-1.019-3.083C374.923,380.678,375.157,379.592,375.688,378.593z M379.467,378.184
						c-0.575,0.387-1.026,0.893-1.354,1.518c-0.328,0.624-0.472,1.289-0.431,1.997c0.04,0.707,0.257,1.343,0.653,1.909
						c0.396,0.566,0.897,1.009,1.503,1.329c0.607,0.32,1.263,0.46,1.971,0.42c0.724-0.041,1.373-0.255,1.948-0.643
						c0.575-0.388,1.023-0.88,1.345-1.478c0.32-0.598,0.46-1.259,0.419-1.984c-0.04-0.707-0.258-1.348-0.655-1.922
						c-0.396-0.575-0.897-1.026-1.504-1.355c-0.606-0.329-1.264-0.473-1.971-0.433C380.683,377.583,380.042,377.796,379.467,378.184
						z"/>
				</g>
				<g>
					<path style="fill:#403E4D;" d="M297.33,363.312l7.442,4.906l-1.44,2.185l-11.185-7.374l17.615-10.052l2.683,1.769
						L297.33,363.312z"/>
				</g>
				<g>
					<path style="fill:#403E4D;" d="M249.951,289.487c1.036-0.396,2.048-0.464,3.037-0.204c0.99,0.26,1.883,0.778,2.68,1.555
						c0.798,0.777,1.409,1.723,1.835,2.836c0.438,1.146,0.599,2.272,0.485,3.379c-0.115,1.108-0.466,2.078-1.056,2.914
						c-0.589,0.836-1.393,1.448-2.412,1.838c-0.68,0.26-1.351,0.346-2.016,0.257c-0.664-0.089-1.272-0.286-1.826-0.592
						c-0.553-0.306-1.027-0.662-1.422-1.065c-0.027,0.51-0.139,1.015-0.336,1.515c-0.197,0.501-0.47,0.947-0.819,1.34
						c-0.349,0.393-0.774,0.684-1.275,0.875c-0.742,0.284-1.467,0.371-2.174,0.263c-0.707-0.108-1.361-0.367-1.961-0.776
						c-0.6-0.409-1.126-0.901-1.578-1.478c-0.451-0.576-0.801-1.187-1.047-1.833c-0.247-0.645-0.396-1.337-0.447-2.077
						c-0.051-0.738,0.01-1.46,0.185-2.165c0.175-0.705,0.481-1.33,0.919-1.877c0.439-0.546,1.045-0.968,1.819-1.264
						c0.484-0.185,0.99-0.254,1.516-0.205c0.527,0.048,1.033,0.198,1.516,0.447c0.484,0.25,0.906,0.556,1.266,0.917
						c0.045-0.608,0.178-1.219,0.399-1.831c0.221-0.612,0.554-1.159,0.999-1.644C248.685,290.129,249.256,289.753,249.951,289.487z
						 M245.863,301.397c0.517-0.197,0.897-0.509,1.141-0.935c0.244-0.426,0.368-0.899,0.373-1.419
						c0.005-0.519-0.076-0.997-0.243-1.433c-0.178-0.468-0.444-0.885-0.796-1.25c-0.352-0.365-0.763-0.628-1.232-0.791
						c-0.469-0.163-0.961-0.146-1.478,0.052c-0.484,0.185-0.843,0.479-1.077,0.883c-0.234,0.404-0.36,0.859-0.38,1.366
						c-0.019,0.507,0.073,1.026,0.277,1.559c0.191,0.5,0.467,0.931,0.827,1.293c0.36,0.362,0.765,0.61,1.214,0.743
						C244.937,301.599,245.396,301.576,245.863,301.397z M250.795,292.272c-0.454,0.174-0.827,0.423-1.121,0.748
						c-0.294,0.325-0.504,0.71-0.631,1.156c-0.126,0.447-0.178,0.896-0.153,1.349c0.025,0.453,0.12,0.898,0.287,1.333
						c0.222,0.581,0.553,1.083,0.994,1.507c0.441,0.424,0.945,0.712,1.514,0.864c0.569,0.153,1.161,0.111,1.777-0.124
						c0.438-0.167,0.802-0.418,1.092-0.751c0.29-0.333,0.502-0.715,0.635-1.145c0.133-0.43,0.186-0.875,0.158-1.336
						c-0.027-0.461-0.122-0.901-0.282-1.321c-0.222-0.581-0.557-1.081-1.006-1.502c-0.448-0.42-0.958-0.711-1.531-0.871
						C251.956,292.018,251.378,292.049,250.795,292.272z"/>
				</g>
				<g>
					<path style="fill:#403E4D;" d="M240.093,217.871c-0.804-0.823-1.358-1.794-1.661-2.913c-0.303-1.119-0.294-2.279,0.028-3.481
						c0.353-1.318,0.98-2.375,1.88-3.171c0.9-0.796,2.029-1.303,3.387-1.52c1.358-0.217,2.882-0.099,4.573,0.354
						c2.306,0.618,4.16,1.415,5.565,2.391c1.404,0.976,2.363,2.074,2.878,3.294c0.515,1.22,0.586,2.523,0.215,3.907
						c-0.304,1.135-0.844,2.099-1.621,2.893c-0.776,0.794-1.72,1.363-2.832,1.709l-1.266-2.084c0.804-0.196,1.506-0.58,2.107-1.152
						c0.6-0.572,1.008-1.259,1.223-2.06c0.228-0.851,0.175-1.648-0.156-2.389c-0.332-0.742-0.922-1.41-1.77-2.004
						c-0.848-0.594-1.904-1.069-3.168-1.426c0.422,0.364,0.76,0.803,1.015,1.318c0.256,0.516,0.41,1.072,0.465,1.668
						c0.055,0.596-0.001,1.202-0.166,1.82c-0.308,1.151-0.858,2.127-1.648,2.925c-0.79,0.799-1.719,1.346-2.786,1.641
						c-1.067,0.295-2.172,0.29-3.315-0.017C241.878,219.262,240.896,218.695,240.093,217.871z M240.841,214.128
						c0.202,0.662,0.555,1.249,1.057,1.759c0.503,0.51,1.117,0.863,1.844,1.057c0.709,0.19,1.404,0.193,2.083,0.009
						c0.68-0.184,1.274-0.517,1.783-0.998c0.509-0.481,0.853-1.054,1.032-1.722c0.192-0.717,0.186-1.403-0.019-2.057
						c-0.204-0.654-0.554-1.235-1.048-1.743c-0.494-0.508-1.096-0.857-1.805-1.048c-0.726-0.195-1.434-0.197-2.125-0.006
						c-0.69,0.19-1.289,0.522-1.795,0.994c-0.507,0.473-0.852,1.051-1.035,1.735C240.629,212.792,240.638,213.466,240.841,214.128z"
						/>
				</g>
				<g>
					<path style="fill:#403E4D;" d="M296.585,139.382c0.943,1.164,1.552,2.384,1.829,3.66c0.276,1.276,0.241,2.481-0.107,3.616
						c-0.348,1.136-1.019,2.105-2.013,2.91c-0.993,0.805-2.084,1.261-3.275,1.37c-1.189,0.109-2.376-0.107-3.56-0.649
						c-1.184-0.542-2.246-1.395-3.188-2.559c-0.943-1.164-1.555-2.382-1.839-3.652c-0.283-1.27-0.25-2.479,0.099-3.627
						c0.348-1.147,1.02-2.123,2.014-2.928c0.993-0.804,2.085-1.255,3.272-1.351c1.189-0.097,2.378,0.123,3.568,0.659
						C294.577,137.368,295.643,138.218,296.585,139.382z M294.348,141.191c-0.637-0.787-1.319-1.376-2.046-1.766
						c-0.726-0.389-1.45-0.576-2.169-0.558c-0.72,0.017-1.369,0.26-1.946,0.727c-0.564,0.457-0.931,1.032-1.103,1.725
						c-0.172,0.694-0.142,1.44,0.094,2.238c0.234,0.799,0.671,1.592,1.309,2.379c0.638,0.788,1.323,1.374,2.056,1.759
						c0.733,0.384,1.453,0.567,2.161,0.548c0.707-0.018,1.349-0.261,1.926-0.729c0.564-0.456,0.93-1.035,1.097-1.735
						c0.167-0.7,0.135-1.446-0.094-2.238C295.404,142.75,294.976,141.966,294.348,141.191z"/>
				</g>
			</g>
			<g>
				<g>
					<path style="fill:#403E4D;" d="M424.379,392.84c-0.207,0-0.4-0.13-0.473-0.336l-10.64-30.649
						c-0.09-0.261,0.048-0.546,0.309-0.637c0.262-0.09,0.546,0.049,0.637,0.309l10.64,30.649c0.09,0.261-0.048,0.546-0.309,0.637
						C424.488,392.831,424.433,392.84,424.379,392.84z"/>
				</g>
				<g>
					<path style="fill:#403E4D;" d="M336.564,139.895c-0.207,0-0.4-0.129-0.472-0.336l-10.943-31.52
						c-0.091-0.261,0.047-0.546,0.308-0.636c0.26-0.093,0.545,0.047,0.636,0.308l10.943,31.52c0.091,0.261-0.047,0.546-0.308,0.636
						C336.674,139.886,336.618,139.895,336.564,139.895z"/>
				</g>
				<g>
					<path style="fill:#403E4D;" d="M278.869,183.656c-0.099,0-0.198-0.029-0.285-0.09l-27.367-19.059
						c-0.227-0.158-0.283-0.469-0.124-0.696c0.158-0.227,0.469-0.285,0.696-0.125l27.367,19.059
						c0.227,0.158,0.282,0.469,0.125,0.696C279.182,183.582,279.027,183.656,278.869,183.656z"/>
				</g>
				<g>
					<path style="fill:#403E4D;" d="M498.502,336.616c-0.099,0-0.198-0.029-0.286-0.09l-27.37-19.061
						c-0.227-0.157-0.282-0.47-0.124-0.696c0.158-0.226,0.469-0.281,0.696-0.124l27.37,19.061c0.226,0.157,0.282,0.47,0.124,0.696
						C498.815,336.54,498.659,336.616,498.502,336.616z"/>
				</g>
				<g>
					<path style="fill:#403E4D;" d="M331.436,394.396c-0.048,0-0.097-0.007-0.145-0.021c-0.264-0.08-0.414-0.359-0.333-0.623
						l9.578-31.615c0.08-0.265,0.358-0.413,0.624-0.334c0.264,0.08,0.414,0.359,0.333,0.623l-9.578,31.615
						C331.849,394.257,331.651,394.396,331.436,394.396z"/>
				</g>
				<g>
					<path style="fill:#403E4D;" d="M408.98,138.437c-0.048,0-0.097-0.007-0.145-0.021c-0.265-0.08-0.414-0.359-0.334-0.623
						l9.581-31.625c0.08-0.264,0.362-0.414,0.623-0.333c0.265,0.08,0.414,0.359,0.334,0.623l-9.581,31.625
						C409.393,138.298,409.195,138.437,408.98,138.437z"/>
				</g>
				<g>
					<path style="fill:#403E4D;" d="M468.372,179.87c-0.15,0-0.3-0.068-0.398-0.198c-0.167-0.22-0.124-0.534,0.097-0.7
						l26.587-20.141c0.219-0.165,0.532-0.124,0.7,0.097c0.167,0.22,0.124,0.534-0.097,0.7l-26.587,20.141
						C468.584,179.837,468.477,179.87,468.372,179.87z"/>
				</g>
				<g>
					<path style="fill:#403E4D;" d="M255.355,341.241c-0.151,0-0.301-0.068-0.399-0.198c-0.167-0.22-0.124-0.533,0.097-0.7
						l26.269-19.9c0.221-0.167,0.533-0.124,0.7,0.097c0.167,0.22,0.124,0.533-0.097,0.7l-26.269,19.9
						C255.566,341.207,255.46,341.241,255.355,341.241z"/>
				</g>
				<g>
					<path style="fill:#403E4D;" d="M492.19,248.261c-0.271,0-0.494-0.218-0.5-0.49c-0.006-0.275,0.214-0.504,0.49-0.51
						l33.334-0.667c0.25-0.026,0.504,0.215,0.51,0.49c0.006,0.275-0.214,0.504-0.49,0.51l-33.334,0.667
						C492.197,248.261,492.193,248.261,492.19,248.261z"/>
				</g>
				<g>
					<path style="fill:#403E4D;" d="M224.461,253.615c-0.271,0-0.495-0.218-0.5-0.49c-0.005-0.275,0.214-0.504,0.49-0.51
						l33.347-0.667c0.003,0,0.006,0,0.01,0c0.272,0,0.495,0.218,0.5,0.49c0.005,0.275-0.214,0.504-0.49,0.51l-33.347,0.667
						C224.468,253.615,224.465,253.615,224.461,253.615z"/>
				</g>
			</g>
		</g>
		<g>
			<g>
				<path style="fill:#D69EBF;" d="M375,454.428c-112.722,0-204.428-91.707-204.428-204.428S262.278,45.572,375,45.572
					S579.428,137.278,579.428,250S487.722,454.428,375,454.428z M375,87.266c-89.732,0-162.734,73.002-162.734,162.733
					S285.268,412.734,375,412.734S537.734,339.731,537.734,250S464.732,87.266,375,87.266z"/>
			</g>
		</g>
		<g>
			<g>
				<path style="fill:#403E4D;" d="M375,454.928c-112.998,0-204.928-91.931-204.928-204.929
					c0-112.997,91.931-204.927,204.928-204.927c112.998,0,204.929,91.93,204.929,204.927
					C579.928,362.997,487.998,454.928,375,454.928z M375,46.072c-112.446,0-203.928,91.481-203.928,203.927
					c0,112.446,91.482,203.929,203.928,203.929s203.929-91.483,203.929-203.929C578.928,137.553,487.446,46.072,375,46.072z"/>
			</g>
		</g>
		<g>
			<path style="fill:#403E4D;" d="M259.984,135.484c-0.128,0-0.256-0.049-0.354-0.146l-29.342-29.342
				c-0.195-0.195-0.195-0.512,0-0.707s0.512-0.195,0.707,0l29.342,29.342c0.195,0.195,0.195,0.512,0,0.707
				C260.24,135.435,260.112,135.484,259.984,135.484z"/>
		</g>
		<g>
			<path style="fill:#403E4D;" d="M332.879,93.305c-0.221,0-0.423-0.147-0.482-0.371l-10.718-40.002
				c-0.071-0.267,0.087-0.541,0.353-0.612c0.266-0.071,0.541,0.087,0.612,0.354l10.718,40.001c0.071,0.267-0.087,0.541-0.353,0.612
				C332.966,93.299,332.922,93.305,332.879,93.305z"/>
		</g>
		<g>
			<path style="fill:#403E4D;" d="M217.798,208.378c-0.043,0-0.086-0.005-0.13-0.017l-39.995-10.716
				c-0.267-0.071-0.425-0.346-0.354-0.612c0.071-0.267,0.346-0.424,0.612-0.354l39.995,10.716c0.267,0.071,0.425,0.346,0.354,0.612
				C218.221,208.231,218.019,208.378,217.798,208.378z"/>
		</g>
		<g>
			<path style="fill:#403E4D;" d="M177.802,303.339c-0.22,0-0.422-0.147-0.482-0.37c-0.072-0.267,0.086-0.541,0.353-0.612
				l39.977-10.782c0.268-0.07,0.541,0.085,0.613,0.353c0.072,0.267-0.086,0.541-0.353,0.612l-39.977,10.782
				C177.889,303.333,177.846,303.339,177.802,303.339z"/>
		</g>
		<g>
			<path style="fill:#403E4D;" d="M230.642,394.858c-0.128,0-0.256-0.049-0.354-0.146c-0.195-0.195-0.195-0.512,0-0.707
				l29.342-29.341c0.195-0.195,0.512-0.195,0.707,0c0.195,0.195,0.195,0.512,0,0.707l-29.342,29.341
				C230.898,394.809,230.77,394.858,230.642,394.858z"/>
		</g>
		<g>
			<path style="fill:#403E4D;" d="M322.162,447.697c-0.043,0-0.086-0.006-0.13-0.017c-0.267-0.072-0.425-0.346-0.353-0.613
				l10.716-39.993c0.072-0.266,0.346-0.418,0.612-0.354c0.267,0.072,0.425,0.346,0.354,0.613l-10.716,39.993
				C322.585,447.549,322.383,447.697,322.162,447.697z"/>
		</g>
		<g>
			<path style="fill:#403E4D;" d="M427.839,447.697c-0.221,0-0.423-0.147-0.483-0.37l-10.716-39.992
				c-0.071-0.268,0.087-0.541,0.354-0.613c0.27-0.066,0.541,0.088,0.613,0.354l10.716,39.992c0.071,0.268-0.087,0.541-0.354,0.613
				C427.925,447.691,427.882,447.697,427.839,447.697z"/>
		</g>
		<g>
			<path style="fill:#403E4D;" d="M519.358,394.858c-0.128,0-0.256-0.049-0.354-0.146l-29.342-29.342
				c-0.195-0.195-0.195-0.512,0-0.707c0.195-0.195,0.512-0.195,0.707,0l29.342,29.342c0.195,0.195,0.195,0.512,0,0.707
				C519.614,394.809,519.486,394.858,519.358,394.858z"/>
		</g>
		<g>
			<path style="fill:#403E4D;" d="M572.197,303.339c-0.043,0-0.086-0.006-0.13-0.017l-40.162-10.762
				c-0.267-0.072-0.425-0.346-0.354-0.613c0.072-0.266,0.346-0.418,0.613-0.354l40.162,10.762c0.267,0.072,0.425,0.346,0.354,0.613
				C572.62,303.192,572.418,303.339,572.197,303.339z"/>
		</g>
		<g>
			<path style="fill:#403E4D;" d="M532.199,208.379c-0.221,0-0.423-0.147-0.483-0.371c-0.071-0.267,0.087-0.541,0.354-0.612
				l39.998-10.717c0.269-0.071,0.541,0.086,0.613,0.354c0.071,0.267-0.087,0.541-0.354,0.612l-39.998,10.717
				C532.285,208.373,532.242,208.379,532.199,208.379z"/>
		</g>
		<g>
			<path style="fill:#403E4D;" d="M490.016,135.484c-0.128,0-0.256-0.049-0.353-0.146c-0.195-0.195-0.195-0.512,0-0.707
				l29.342-29.342c0.195-0.195,0.512-0.195,0.707,0s0.195,0.512,0,0.707l-29.342,29.342
				C490.272,135.435,490.144,135.484,490.016,135.484z"/>
		</g>
		<g>
			<path style="fill:#403E4D;" d="M417.121,93.301c-0.043,0-0.086-0.005-0.13-0.017c-0.267-0.071-0.425-0.346-0.354-0.612
				l10.718-39.998c0.073-0.267,0.347-0.424,0.613-0.354c0.267,0.071,0.425,0.346,0.354,0.612L417.604,92.93
				C417.544,93.154,417.342,93.301,417.121,93.301z"/>
		</g>
		<g>
			<g>
				<g>
					<path style="fill:#EBD2E1;" d="M378.642,80.421L378.642,80.421c-0.84,0-1.538-0.648-1.6-1.486
						c-0.706-9.606-3.759-23.821-8.071-23.821c-1.444,0-2.481,0.413-3.17,1.262c-1.543,1.901-1.176,5.666-0.904,6.956
						c0.183,0.866-0.37,1.716-1.236,1.901c-0.868,0.182-1.716-0.368-1.901-1.231c-0.053-0.251-1.276-6.15,1.543-9.637
						c0.906-1.121,2.625-2.459,5.668-2.459c5.267,0,8.139,7.89,9.671,15.227c1.532-7.337,4.405-15.227,9.672-15.227
						c3.041,0,4.761,1.337,5.667,2.459c2.819,3.486,1.596,9.387,1.543,9.637c-0.186,0.863-1.032,1.413-1.901,1.231
						c-0.865-0.185-1.418-1.035-1.236-1.901c0.272-1.29,0.638-5.055-0.904-6.956c-0.689-0.849-1.726-1.262-3.169-1.262
						c-4.312,0-7.367,14.215-8.072,23.821C380.18,79.773,379.483,80.421,378.642,80.421z"/>
				</g>
			</g>
		</g>
		<g>
			<g>
				<g>
					<path style="fill:#EBD2E1;" d="M467.601,107.309c-5.121,0-9.287-4.166-9.287-9.287c0-5.121,4.166-9.288,9.287-9.288
						c5.121,0,9.287,4.167,9.287,9.288C476.889,103.143,472.722,107.309,467.601,107.309z M467.601,91.941
						c-3.353,0-6.08,2.728-6.08,6.081c0,3.353,2.727,6.079,6.08,6.079s6.08-2.726,6.08-6.079
						C473.681,94.669,470.954,91.941,467.601,91.941z"/>
				</g>
			</g>
			<g>
				<g>
					<path style="fill:#EBD2E1;" d="M467.601,91.941c-7.053,0-8.409-3.444-9.306-5.722c-0.217-0.548-0.42-1.066-0.662-1.414
						c-0.723-1.038-1.873-0.507-2.001-0.445c-0.798,0.392-1.757,0.066-2.149-0.727c-0.392-0.794-0.067-1.756,0.727-2.149
						c1.293-0.637,4.222-1.151,6.057,1.491c0.454,0.653,0.738,1.372,1.012,2.069c0.779,1.979,1.453,3.69,6.322,3.69
						s5.543-1.71,6.322-3.69c0.274-0.697,0.557-1.416,1.012-2.069c1.836-2.642,4.765-2.128,6.057-1.491
						c0.794,0.393,1.119,1.355,0.727,2.149c-0.39,0.789-1.345,1.114-2.134,0.733c-0.393-0.18-1.369-0.495-2.016,0.438
						c-0.241,0.348-0.445,0.866-0.662,1.414C476.01,88.497,474.655,91.941,467.601,91.941z"/>
				</g>
			</g>
		</g>
		<g>
			<g>
				<g>
					<path style="fill:#EBD2E1;" d="M535.362,153.291c-6.269,0-11.674-3.077-13.45-7.656c-0.319-0.825,0.09-1.754,0.916-2.075
						c0.82-0.319,1.754,0.088,2.075,0.916c1.279,3.301,5.581,5.608,10.459,5.608c4.879,0,9.179-2.307,10.459-5.608
						c0.321-0.827,1.253-1.234,2.075-0.916c0.826,0.321,1.236,1.25,0.916,2.075C547.036,150.214,541.632,153.291,535.362,153.291z"
						/>
				</g>
			</g>
			<g>
				<g>
					<path style="fill:#EBD2E1;" d="M523.407,176.173c-0.193,0-0.389-0.034-0.58-0.108c-0.825-0.321-1.235-1.25-0.915-2.075
						c1.775-4.579,7.18-7.655,13.449-7.655c6.27,0,11.675,3.076,13.45,7.655c0.32,0.825-0.09,1.754-0.916,2.075
						c-0.824,0.315-1.754-0.089-2.075-0.916c-1.279-3.301-5.581-5.606-10.459-5.606s-9.179,2.305-10.46,5.606
						C524.656,175.784,524.049,176.173,523.407,176.173z"/>
				</g>
			</g>
			<g>
				<g>
					<path style="fill:#EBD2E1;" d="M531.385,169.948c-0.886,0-1.604-0.717-1.604-1.604v-17.248c0-0.886,0.718-1.604,1.604-1.604
						c0.886,0,1.604,0.717,1.604,1.604v17.248C532.989,169.231,532.271,169.948,531.385,169.948z"/>
				</g>
			</g>
			<g>
				<g>
					<path style="fill:#EBD2E1;" d="M539.338,169.948c-0.885,0-1.604-0.717-1.604-1.604v-17.248c0-0.886,0.718-1.604,1.604-1.604
						c0.886,0,1.604,0.717,1.604,1.604v17.248C540.941,169.231,540.223,169.948,539.338,169.948z"/>
				</g>
			</g>
		</g>
		<g>
			<g>
				<g>
					<path style="fill:#EBD2E1;" d="M549.81,250.75c-3.817,0-6.923-3.105-6.923-6.922c0-3.818,3.106-6.924,6.923-6.924
						s6.923,3.105,6.923,6.924C556.733,247.644,553.628,250.75,549.81,250.75z M549.81,240.112c-2.049,0-3.716,1.668-3.716,3.716
						s1.667,3.715,3.716,3.715c2.048,0,3.716-1.666,3.716-3.715S551.859,240.112,549.81,240.112z"/>
				</g>
			</g>
			<g>
				<g>
					<path style="fill:#EBD2E1;" d="M573.075,240.993c-0.228,0-0.459-0.049-0.679-0.152c-15.628-7.312-23.904-0.656-24.248-0.368
						c-0.678,0.565-1.688,0.479-2.256-0.196c-0.568-0.675-0.489-1.677,0.182-2.25c0.402-0.343,10.079-8.331,27.682-0.089
						c0.803,0.374,1.148,1.33,0.773,2.131C574.256,240.652,573.678,240.993,573.075,240.993z"/>
				</g>
			</g>
			<g>
				<g>
					<path style="fill:#EBD2E1;" d="M567.627,255.957c-3.817,0-6.923-3.105-6.923-6.924c0-3.816,3.105-6.922,6.923-6.922
						c3.817,0,6.923,3.105,6.923,6.922C574.551,252.852,571.445,255.957,567.627,255.957z M567.627,245.319
						c-2.048,0-3.715,1.666-3.715,3.715c0,2.048,1.667,3.716,3.715,3.716c2.049,0,3.716-1.668,3.716-3.716
						C571.344,246.985,569.677,245.319,567.627,245.319z"/>
				</g>
			</g>
			<g>
				<g>
					<path style="fill:#EBD2E1;" d="M558.76,258.64c-4.086,0-9.129-0.932-15.077-3.716c-0.803-0.374-1.148-1.33-0.773-2.131
						c0.375-0.803,1.328-1.15,2.132-0.772c15.627,7.312,23.905,0.655,24.249,0.368c0.678-0.565,1.687-0.479,2.256,0.196
						c0.568,0.675,0.489,1.677-0.182,2.25C571.098,255.061,566.766,258.64,558.76,258.64z"/>
				</g>
			</g>
		</g>
		<g>
			<g>
				<g>
					<path style="fill:#EBD2E1;" d="M520.495,356.338c-3.906,0-7.084-3.177-7.084-7.085c0-3.906,3.177-7.083,7.084-7.083
						s7.084,3.178,7.084,7.083C527.579,353.161,524.401,356.338,520.495,356.338z M520.495,345.378
						c-2.138,0-3.877,1.738-3.877,3.876s1.739,3.878,3.877,3.878c2.138,0,3.877-1.74,3.877-3.878S522.632,345.378,520.495,345.378z"
						/>
				</g>
			</g>
			<g>
				<g>
					<path style="fill:#EBD2E1;" d="M525.681,349.094c-0.56,0-1.104-0.294-1.398-0.819c-0.122-0.218-2.994-5.393-2.73-10.511
						c0.045-0.883,0.812-1.543,1.683-1.519c0.885,0.045,1.565,0.8,1.519,1.685c-0.215,4.177,2.3,8.732,2.326,8.778
						c0.431,0.772,0.156,1.749-0.616,2.182C526.216,349.028,525.947,349.094,525.681,349.094z"/>
				</g>
			</g>
			<g>
				<g>
					<path style="fill:#EBD2E1;" d="M533.915,362.23c-0.639,0-1.323-0.127-2.047-0.424c-4.607-1.885-2.816-7.226-0.55-13.986
						l0.121-0.363c1.993-5.949,1.965-9.545,1.965-9.581c0-2.412-1.94-4.35-4.323-4.35c-2.384,0-4.324,1.939-4.324,4.322
						c0,0.886-0.718,1.604-1.604,1.604c-0.886,0-1.604-0.717-1.604-1.604c0-4.152,3.379-7.53,7.531-7.53
						c4.152,0,7.53,3.378,7.53,7.53c0.003,0.132,0.059,4.092-2.131,10.627l-0.122,0.365c-1.98,5.909-3.016,9.287-1.275,9.999
						c1.795,0.745,2.923-1.176,3.13-1.569c0.414-0.778,1.381-1.082,2.162-0.672c0.781,0.409,1.088,1.366,0.685,2.15
						C538.351,360.123,536.511,362.23,533.915,362.23z"/>
				</g>
			</g>
		</g>
		<g>
			<g>
				<g>
					<path style="fill:#EBD2E1;" d="M458.118,420.152c-0.886,0-1.604-0.717-1.604-1.604v-18.376c0-1.394-1.3-3.038-1.801-3.553
						c-0.616-0.634-0.604-1.649,0.028-2.266c0.633-0.619,1.643-0.608,2.263,0.02c0.278,0.284,2.717,2.85,2.717,5.799v18.376
						C459.722,419.435,459.004,420.152,458.118,420.152z"/>
				</g>
			</g>
			<g>
				<g>
					<path style="fill:#EBD2E1;" d="M464.888,420.152c-0.886,0-1.604-0.717-1.604-1.604v-15.717c0-1.411-0.31-2.454-0.661-3.181
						l-3.239,4.166c-0.546,0.698-1.553,0.825-2.25,0.28c-0.699-0.543-0.825-1.55-0.282-2.25l4.513-5.802
						c0.539-0.689,1.529-0.821,2.228-0.297c0.118,0.088,2.899,2.227,2.899,7.085v15.717
						C466.492,419.435,465.774,420.152,464.888,420.152z"/>
				</g>
			</g>
			<g>
				<g>
					<path style="fill:#EBD2E1;" d="M474.506,425.525c-0.425,0-0.85-0.169-1.166-0.503c-3.062-3.243-3.271-6.09-3.284-6.405
						l-0.002-15.786c0-1.411-0.31-2.454-0.661-3.181l-3.239,4.166c-0.544,0.698-1.554,0.825-2.25,0.28
						c-0.699-0.543-0.825-1.55-0.282-2.25l4.513-5.802c0.539-0.689,1.529-0.821,2.228-0.297c0.118,0.088,2.899,2.227,2.899,7.085
						v15.717l0,0c0.005,0,0.182,1.914,2.41,4.272c0.608,0.644,0.579,1.658-0.065,2.266
						C475.297,425.38,474.901,425.525,474.506,425.525z"/>
				</g>
			</g>
			<g>
				<g>
					<path style="fill:#EBD2E1;" d="M465.585,422.732c-0.749,0-1.418-0.526-1.571-1.289c-0.174-0.869,0.389-1.713,1.258-1.887
						c3.723-0.746,8.451-2.689,9.838-7.719c0.864-3.138,0.36-5.796-0.252-7.53c-0.661,1.239-1.295,2.814-1.675,3.978
						c-0.274,0.841-1.178,1.308-2.021,1.027c-0.843-0.274-1.302-1.178-1.028-2.02c0.303-0.932,1.924-5.668,4.031-7.31
						c0.348-0.271,0.792-0.387,1.226-0.319c0.435,0.066,0.824,0.307,1.076,0.669c0.15,0.216,3.658,5.373,1.735,12.358
						c-1.441,5.227-5.694,8.69-12.301,10.012C465.795,422.722,465.689,422.732,465.585,422.732z"/>
				</g>
			</g>
		</g>
		<g>
			<g>
				<g>
					<path style="fill:#EBD2E1;" d="M389.301,442.806h-24.287c-0.886,0-1.604-0.717-1.604-1.604c0-0.886,0.718-1.604,1.604-1.604
						h24.287c0.886,0,1.604,0.717,1.604,1.604C390.905,442.088,390.187,442.806,389.301,442.806z"/>
				</g>
			</g>
			<g>
				<g>
					<path style="fill:#EBD2E1;" d="M389.296,436.202h-9.22c-0.732,0-1.371-0.496-1.553-1.206c-0.182-0.708,0.14-1.452,0.781-1.804
						c1.433-0.786,2.323-2.288,2.323-3.917c0-2.466-2.007-4.473-4.473-4.473c-2.46,0-4.462,2.006-4.462,4.473
						c0,1.629,0.89,3.13,2.323,3.917c0.641,0.352,0.963,1.096,0.781,1.804c-0.182,0.71-0.821,1.206-1.553,1.206h-9.232
						c-0.886,0-1.604-0.717-1.604-1.604c0-0.886,0.718-1.604,1.604-1.604h5.436c-0.621-1.12-0.963-2.394-0.963-3.719
						c0-4.235,3.441-7.68,7.669-7.68c4.235,0,7.681,3.445,7.681,7.68c0,1.325-0.342,2.6-0.963,3.719h5.425
						c0.886,0,1.604,0.717,1.604,1.604C390.9,435.484,390.182,436.202,389.296,436.202z"/>
				</g>
			</g>
		</g>
		<g>
			<g>
				<g>
					<path style="fill:#EBD2E1;" d="M274.52,421.483c-0.886,0-1.604-0.717-1.604-1.604v-18.376c0-1.394-1.3-3.038-1.8-3.555
						c-0.615-0.633-0.604-1.647,0.028-2.266c0.633-0.615,1.644-0.606,2.263,0.022c0.278,0.284,2.716,2.852,2.716,5.799v18.376
						C276.123,420.766,275.405,421.483,274.52,421.483z"/>
				</g>
			</g>
			<g>
				<g>
					<path style="fill:#EBD2E1;" d="M281.29,421.483c-0.886,0-1.604-0.717-1.604-1.604v-15.717c0-1.402-0.314-2.446-0.665-3.176
						l-3.237,4.161c-0.543,0.697-1.552,0.824-2.25,0.28c-0.698-0.544-0.824-1.55-0.28-2.25l4.514-5.802
						c0.538-0.691,1.529-0.822,2.228-0.298c0.118,0.089,2.898,2.23,2.898,7.085v15.717
						C282.894,420.766,282.176,421.483,281.29,421.483z"/>
				</g>
			</g>
			<g>
				<g>
					<path style="fill:#EBD2E1;" d="M293.484,424.168h-1.006c-3.32,0-6.021-2.701-6.021-6.021v-13.985
						c0-1.402-0.314-2.446-0.665-3.176l-3.235,4.161c-0.546,0.697-1.554,0.824-2.25,0.28c-0.699-0.544-0.825-1.55-0.282-2.25
						l4.513-5.802c0.539-0.691,1.53-0.822,2.228-0.298c0.118,0.089,2.898,2.23,2.898,7.085v13.985c0,1.552,1.262,2.814,2.814,2.814
						h1.006c0.886,0,1.604,0.717,1.604,1.604C295.088,423.451,294.37,424.168,293.484,424.168z"/>
				</g>
			</g>
			<g>
				<g>
					<path style="fill:#EBD2E1;" d="M297.566,423.018l-4.569,2.635c-0.342,0.205-0.787-0.051-0.787-0.462v-5.253
						c0-0.411,0.445-0.667,0.787-0.462l4.569,2.635C297.908,422.317,297.908,422.813,297.566,423.018z"/>
				</g>
			</g>
		</g>
		<g>
			<g>
				<g>
					<path style="fill:#EBD2E1;" d="M207.872,357.38c-0.41,0-0.821-0.157-1.134-0.47c-0.626-0.626-0.626-1.641,0-2.268
						l18.406-18.404c0.626-0.626,1.641-0.626,2.268,0c0.626,0.626,0.626,1.641,0,2.268l-18.406,18.404
						C208.692,357.224,208.282,357.38,207.872,357.38z"/>
				</g>
			</g>
			<g>
				<g>
					<path style="fill:#EBD2E1;" d="M217.913,355.21c-0.41,0-0.821-0.157-1.134-0.47l-7.87-7.869c-0.626-0.626-0.626-1.641,0-2.268
						c0.626-0.626,1.641-0.626,2.268,0l7.87,7.869c0.626,0.626,0.626,1.641,0,2.268C218.734,355.053,218.324,355.21,217.913,355.21z
						"/>
				</g>
			</g>
			<g>
				<g>
					<path style="fill:#EBD2E1;" d="M226.521,349.193c-0.886,0-1.604-0.717-1.604-1.604v-8.895h-8.821
						c-0.886,0-1.604-0.717-1.604-1.604c0-0.886,0.718-1.604,1.604-1.604h10.424c0.886,0,1.604,0.717,1.604,1.604v10.499
						C228.125,348.476,227.407,349.193,226.521,349.193z"/>
				</g>
			</g>
		</g>
		<g>
			<g>
				<g>
					<path style="fill:#EBD2E1;" d="M200.318,263.343c-0.214,0-0.43-0.042-0.638-0.133c-6.154-2.675-6.74-11.349-6.762-11.717
						c-0.164-2.947-0.64-5.873-1.015-7.827c-4.538,4.255-4.46,12.344-4.458,12.434c0.014,0.85-0.638,1.564-1.486,1.625
						c-0.86,0.06-1.597-0.548-1.708-1.392c-0.57-4.382-1.669-11.111-2.326-12.353c-0.494-0.933-1.762-0.733-1.903-0.708
						c-0.872,0.15-1.705-0.407-1.872-1.27c-0.167-0.863,0.381-1.698,1.241-1.875c1.381-0.279,4.064-0.11,5.368,2.352
						c0.417,0.788,0.846,2.495,1.237,4.446c1.15-2.838,3.05-5.667,6.185-7.407c0.437-0.244,0.962-0.269,1.42-0.067
						c0.458,0.199,0.796,0.601,0.915,1.087c0.053,0.218,1.302,5.365,1.602,10.77c0.004,0.061,0.496,7.074,4.838,8.961
						c0.813,0.352,1.185,1.298,0.831,2.109C201.527,262.983,200.938,263.343,200.318,263.343z"/>
				</g>
			</g>
			<g>
				<g>
					<path style="fill:#EBD2E1;" d="M202.05,263.656c-3.625,0-6.574-2.949-6.574-6.573c0-3.625,2.949-6.574,6.574-6.574
						c3.625,0,6.574,2.949,6.574,6.574C208.625,260.707,205.676,263.656,202.05,263.656z M202.05,253.717
						c-1.856,0-3.366,1.51-3.366,3.367c0,1.856,1.51,3.365,3.366,3.365c1.857,0,3.367-1.51,3.367-3.365
						C205.417,255.226,203.907,253.717,202.05,253.717z"/>
				</g>
			</g>
			<g>
				<g>
					<path style="fill:#EBD2E1;" d="M189.445,268.155c-1.078,0-1.917-0.154-2.119-0.194c-0.868-0.174-1.431-1.018-1.258-1.887
						c0.174-0.868,1.02-1.441,1.885-1.258c1.021,0.196,3.383,0.286,4.21-0.697c1.563-1.854,3.175-5.335,3.318-7.161
						c0.071-0.885,0.853-1.539,1.724-1.474c0.883,0.069,1.543,0.841,1.474,1.724c-0.222,2.83-2.282,6.862-4.062,8.978
						C193.254,267.805,191.075,268.155,189.445,268.155z"/>
				</g>
			</g>
		</g>
		<g>
			<g>
				<g>
					<path style="fill:#EBD2E1;" d="M203.508,156.969c-0.492,0-0.979-0.226-1.293-0.653c-0.525-0.713-0.373-1.716,0.341-2.243
						l7.444-5.481c0.424-0.312,0.973-0.395,1.471-0.226c0.497,0.171,0.879,0.575,1.023,1.081l0.778,2.742l5.617-3.685
						c0.428-0.28,0.967-0.337,1.443-0.161c0.479,0.18,0.843,0.578,0.981,1.071l0.788,2.825l5.76-3.718
						c0.43-0.277,0.962-0.334,1.438-0.152c0.477,0.18,0.839,0.576,0.976,1.066l1.373,4.916c0.239,0.853-0.26,1.738-1.113,1.976
						c-0.851,0.241-1.738-0.26-1.976-1.112l-0.788-2.82l-5.76,3.718c-0.429,0.277-0.96,0.334-1.439,0.152
						c-0.476-0.18-0.839-0.576-0.976-1.068l-0.784-2.808l-5.61,3.679c-0.427,0.28-0.961,0.341-1.44,0.161
						c-0.478-0.178-0.843-0.573-0.982-1.065l-0.742-2.618l-5.581,4.111C204.171,156.868,203.838,156.969,203.508,156.969z"/>
				</g>
			</g>
			<g>
				<g>
					<path style="fill:#EBD2E1;" d="M203.642,168.538c-0.492,0-0.979-0.226-1.293-0.653c-0.525-0.713-0.373-1.716,0.341-2.243
						l7.444-5.48c0.424-0.31,0.974-0.395,1.47-0.226c0.497,0.171,0.879,0.575,1.023,1.081l0.778,2.741l5.618-3.685
						c0.428-0.28,0.965-0.337,1.443-0.161c0.479,0.18,0.843,0.578,0.981,1.071l0.788,2.825l5.759-3.718
						c0.428-0.279,0.963-0.333,1.438-0.152c0.477,0.18,0.839,0.576,0.976,1.066l1.373,4.916c0.239,0.854-0.26,1.738-1.113,1.976
						c-0.855,0.24-1.738-0.26-1.976-1.112l-0.788-2.82l-5.76,3.719c-0.428,0.277-0.962,0.334-1.439,0.152
						c-0.476-0.18-0.839-0.576-0.976-1.068l-0.784-2.809l-5.61,3.679c-0.427,0.279-0.962,0.343-1.44,0.161
						c-0.478-0.177-0.842-0.573-0.982-1.065l-0.742-2.617l-5.582,4.109C204.305,168.436,203.972,168.538,203.642,168.538z"/>
				</g>
			</g>
		</g>
		<g>
			<g>
				<g>
					<path style="fill:#EBD2E1;" d="M297.816,103.428c-0.193,0-0.389-0.034-0.579-0.108c-4.579-1.776-7.656-7.18-7.656-13.449
						c0-6.27,3.077-11.675,7.656-13.451c0.82-0.318,1.754,0.088,2.075,0.916c0.319,0.825-0.09,1.754-0.916,2.075
						c-3.301,1.28-5.607,5.581-5.607,10.46c0,4.878,2.306,9.179,5.607,10.458c0.826,0.321,1.236,1.25,0.916,2.075
						C299.065,103.039,298.458,103.428,297.816,103.428z"/>
				</g>
			</g>
			<g>
				<g>
					<path style="fill:#EBD2E1;" d="M278.74,103.428c-0.643,0-1.249-0.388-1.496-1.024c-0.319-0.825,0.09-1.754,0.916-2.075
						c3.301-1.279,5.607-5.58,5.607-10.46c0-4.878-2.306-9.178-5.607-10.458c-0.826-0.321-1.236-1.25-0.916-2.075
						c0.321-0.828,1.252-1.232,2.075-0.916c4.579,1.774,7.656,7.18,7.656,13.449c0,6.27-3.077,11.676-7.656,13.451
						C279.129,103.393,278.934,103.428,278.74,103.428z"/>
				</g>
			</g>
			<g>
				<g>
					<path style="fill:#EBD2E1;" d="M296.963,90.917h-17.731c-0.886,0-1.604-0.717-1.604-1.604c0-0.886,0.718-1.604,1.604-1.604
						h17.731c0.886,0,1.604,0.717,1.604,1.604C298.566,90.199,297.848,90.917,296.963,90.917z"/>
				</g>
			</g>
		</g>
	</g>
	<g>
		<path style="fill:#D69EBF;" d="M662.125,294.406c-2.402-1.364-5.119-2.048-8.147-2.048c-1.646,0-3.173,0.26-4.576,0.781
			c-1.407,0.517-2.641,1.245-3.701,2.174c-1.06,0.93-1.914,2.044-2.565,3.343c0.087-3.288,0.575-6.114,1.462-8.472
			c0.886-2.359,2.131-4.153,3.733-5.387c1.599-1.234,3.462-1.852,5.582-1.852c2.12,0,4.066,0.532,5.842,1.592
			c0.85,0.51,1.606,1.107,2.268,1.802c0.579,0.608,1.356,0.908,2.131,0.908c0.796,0,1.588-0.315,2.181-0.933
			c1.067-1.118,1.118-2.862,0.109-4.034c-1.226-1.425-2.666-2.597-4.319-3.52c-2.445-1.364-5.141-2.044-8.082-2.044
			c-3.592,0-6.7,0.995-9.315,2.984c-2.619,1.993-4.652,4.956-6.103,8.896c-1.451,3.936-2.174,8.827-2.174,14.669
			c0,4.283,0.702,7.962,2.109,11.037c1.407,3.071,3.375,5.419,5.907,7.043c2.532,1.621,5.488,2.435,8.859,2.435
			c3.162,0,5.984-0.716,8.472-2.145c2.489-1.425,4.468-3.35,5.94-5.777c1.472-2.42,2.207-5.104,2.207-8.049
			c0-2.898-0.702-5.517-2.109-7.854C666.43,297.618,664.527,295.766,662.125,294.406z M661.832,312.743
			c-0.908,1.516-2.109,2.717-3.603,3.603c-1.49,0.886-3.126,1.331-4.902,1.331c-1.773,0-3.397-0.456-4.866-1.364
			c-1.472-0.908-2.663-2.109-3.571-3.603c-0.908-1.494-1.364-3.126-1.364-4.902c0-1.816,0.445-3.451,1.331-4.902
			c0.886-1.447,2.077-2.616,3.571-3.506c1.494-0.886,3.147-1.328,4.967-1.328c1.773,0,3.393,0.441,4.866,1.328
			c1.472,0.89,2.663,2.069,3.571,3.538c0.912,1.472,1.364,3.097,1.364,4.869C663.196,309.585,662.744,311.227,661.832,312.743z"/>
	</g>
	<g>
		<path style="fill:#403E4D;" d="M604.634,476.406H584.7c-1.185,0-2.305-0.519-3.071-1.422c-0.767-0.903-1.096-2.09-0.903-3.257
			c0.018-0.118,0.033-0.213,0.052-0.305c0.251-1.399,0.719-2.728,1.389-3.941c0.666-1.221,1.616-2.4,2.822-3.505
			c1.199-1.097,2.738-2.151,4.574-3.135c1.286-0.746,2.529-1.424,3.683-2.004c1.122-0.57,2.136-1.148,3.01-1.717
			c0.835-0.548,1.495-1.134,1.959-1.742c0.43-0.563,0.647-1.246,0.647-2.029c0-0.736-0.208-1.432-0.617-2.068
			c-0.411-0.643-1.02-1.18-1.812-1.597c-0.796-0.416-1.793-0.627-2.963-0.627c-0.979,0-1.859,0.132-2.616,0.391
			c-0.771,0.263-1.494,0.602-2.15,1.008c-0.666,0.414-1.251,0.858-1.788,1.359c-0.507,0.474-1.147,0.709-1.815,0.676
			c-0.669-0.031-1.282-0.325-1.727-0.826l-1.192-1.349c-0.455-0.51-0.672-1.167-0.609-1.848c0.062-0.676,0.405-1.303,0.942-1.722
			l0.261-0.2c0.806-0.613,1.797-1.21,2.943-1.771c1.144-0.564,2.475-1.054,3.952-1.452c1.475-0.398,3.108-0.601,4.857-0.601
			c2.432,0,4.568,0.422,6.351,1.255c1.796,0.839,3.194,2.007,4.156,3.472c0.957,1.468,1.441,3.168,1.441,5.055
			c0,1.468-0.3,2.781-0.891,3.903c-0.575,1.093-1.309,2.075-2.179,2.92c-0.854,0.832-1.78,1.558-2.753,2.158
			c-0.941,0.58-1.858,1.107-2.727,1.567c-1.446,0.698-2.643,1.329-3.676,1.938c-1.041,0.613-1.918,1.208-2.605,1.767
			c-0.692,0.557-1.282,1.145-1.755,1.753c-0.333,0.425-0.622,0.886-0.875,1.395h15.619c1.353,0,2.454,1.1,2.454,2.451v1.596
			C607.088,475.306,605.987,476.406,604.634,476.406z M593.469,448.058c1.333,0,2.486,0.249,3.428,0.741
			c0.948,0.501,1.685,1.154,2.188,1.942c0.515,0.799,0.776,1.677,0.776,2.608c0,1.008-0.287,1.895-0.852,2.636
			c-0.533,0.698-1.275,1.362-2.207,1.973c-0.905,0.589-1.949,1.186-3.105,1.773c-1.137,0.572-2.363,1.239-3.647,1.984
			c-1.778,0.953-3.249,1.959-4.386,3c-1.125,1.029-2.007,2.122-2.622,3.247c-0.618,1.12-1.049,2.347-1.282,3.647
			c-0.018,0.089-0.03,0.17-0.043,0.255c-0.149,0.903,0.099,1.795,0.674,2.474c0.577,0.68,1.419,1.069,2.31,1.069h19.934
			c0.802,0,1.454-0.652,1.454-1.454v-1.596c0-0.8-0.652-1.451-1.454-1.451h-16.39c-0.166,0-0.321-0.082-0.414-0.22
			c-0.093-0.138-0.111-0.313-0.05-0.467c0.35-0.869,0.794-1.651,1.321-2.324c0.52-0.668,1.164-1.313,1.914-1.915
			c0.735-0.597,1.628-1.203,2.727-1.851c1.058-0.622,2.277-1.266,3.731-1.968c0.833-0.442,1.732-0.959,2.653-1.527
			c0.911-0.561,1.779-1.242,2.581-2.023c0.795-0.771,1.465-1.67,1.991-2.669c0.515-0.977,0.775-2.134,0.775-3.438
			c0-1.689-0.43-3.206-1.278-4.507c-0.857-1.307-2.117-2.355-3.743-3.113c-1.648-0.771-3.643-1.161-5.927-1.161
			c-1.66,0-3.207,0.19-4.597,0.565c-1.415,0.382-2.685,0.848-3.772,1.385c-1.09,0.533-2.025,1.096-2.781,1.671l-0.252,0.194
			c-0.322,0.251-0.521,0.614-0.559,1.022c-0.037,0.402,0.091,0.791,0.36,1.094l1.193,1.349c0.265,0.297,0.629,0.472,1.027,0.49
			c0.379,0.019,0.778-0.12,1.07-0.393c0.592-0.553,1.245-1.051,1.958-1.493c0.722-0.447,1.514-0.818,2.354-1.104
			C591.39,448.207,592.38,448.058,593.469,448.058z"/>
	</g>
	<g>
		<path style="fill:#FBF2FF;" d="M728.192,430.846c-1.261-2.5-2.946-4.47-5.059-5.913c-2.112-1.44-4.538-2.162-7.282-2.162
			c-2.741,0-5.176,0.722-7.307,2.162c-2.131,1.444-3.819,3.414-5.058,5.913c-1.242,2.503-1.865,5.359-1.865,8.571
			c0,3.212,0.623,6.068,1.865,8.571c1.239,2.5,2.927,4.464,5.058,5.886c2.131,1.425,4.566,2.137,7.307,2.137
			c2.745,0,5.17-0.712,7.282-2.137c2.113-1.422,3.798-3.386,5.059-5.886c1.261-2.503,1.89-5.359,1.89-8.571
			C730.081,436.204,729.453,433.349,728.192,430.846z M722.883,445.07c-0.685,1.629-1.639,2.915-2.862,3.857
			c-1.22,0.942-2.611,1.413-4.169,1.413c-1.592,0-2.992-0.462-4.197-1.385c-1.202-0.923-2.159-2.199-2.862-3.832
			c-0.703-1.629-1.053-3.531-1.053-5.706c0-2.175,0.341-4.086,1.029-5.734c0.685-1.648,1.639-2.933,2.862-3.857
			c1.22-0.926,2.611-1.388,4.169-1.388c1.592,0,3.002,0.471,4.222,1.413c1.224,0.945,2.178,2.23,2.862,3.86
			c0.688,1.629,1.028,3.531,1.028,5.706C723.911,441.554,723.57,443.438,722.883,445.07z"/>
	</g>
	<g>
		<path style="fill:#403E4D;" d="M668.377,399.776c-2.637,0-5.02-0.482-7.082-1.435c-1.221-0.564-2.318-1.273-3.262-2.106
			c-0.601-0.53-0.957-1.268-1.004-2.075c-0.048-0.829,0.231-1.626,0.785-2.245c1.148-1.284,3.049-1.397,4.349-0.281
			c0.423,0.364,0.896,0.693,1.411,0.979c1.222,0.674,2.803,1.016,4.699,1.016c2.104,0,3.758-0.463,4.914-1.376
			c1.136-0.896,1.688-2.225,1.688-4.059c0-1.912-0.615-3.365-1.88-4.44c-1.273-1.081-3.226-1.63-5.803-1.63
			c-0.506,0-0.981-0.197-1.338-0.556c-0.356-0.354-0.553-0.829-0.553-1.336v-1.644c0-1.043,0.848-1.891,1.891-1.891h0.155
			c2.159,0,3.83-0.516,4.966-1.533c1.136-1.017,1.688-2.267,1.688-3.821c0-1.009-0.229-1.843-0.68-2.479
			c-0.459-0.64-1.089-1.132-1.871-1.46c-0.812-0.344-1.794-0.518-2.921-0.518c-1.614,0-3.07,0.375-4.327,1.115
			c-0.531,0.315-1.021,0.678-1.456,1.076c-1.257,1.158-3.216,1.101-4.363-0.131c-0.536-0.575-0.831-1.325-0.831-2.11
			c0-0.852,0.357-1.664,0.981-2.23c0.356-0.323,0.759-0.643,1.195-0.945c1.224-0.853,2.666-1.526,4.286-2
			c1.62-0.474,3.364-0.714,5.186-0.714c2.25,0,4.301,0.4,6.096,1.188c1.809,0.802,3.238,1.95,4.248,3.412
			c1.015,1.472,1.528,3.219,1.528,5.194c0,1.393-0.292,2.744-0.867,4.019c-0.576,1.281-1.382,2.368-2.395,3.23
			c-0.579,0.494-1.228,0.892-1.94,1.192c0.817,0.312,1.565,0.74,2.236,1.28c1.119,0.903,2.008,2.066,2.64,3.458
			c0,0.001,0,0.001,0.001,0.001c0.627,1.391,0.945,2.94,0.945,4.609c0,2.253-0.565,4.25-1.681,5.936
			c-1.106,1.675-2.673,2.995-4.656,3.924C673.395,399.31,671.047,399.776,668.377,399.776z M660.116,391.867
			c-0.566,0-1.125,0.231-1.531,0.686c-0.401,0.448-0.59,0.987-0.558,1.548c0.032,0.54,0.269,1.031,0.668,1.384
			c0.87,0.77,1.887,1.425,3.02,1.948c1.93,0.891,4.171,1.343,6.662,1.343c2.522,0,4.728-0.434,6.555-1.29
			c1.813-0.849,3.242-2.05,4.246-3.568c1.005-1.521,1.515-3.332,1.515-5.386c0-1.525-0.288-2.938-0.857-4.197
			c-0.567-1.248-1.36-2.289-2.356-3.092c-0.989-0.798-2.175-1.317-3.523-1.545c-0.239-0.041-0.415-0.247-0.417-0.49
			c-0.002-0.242,0.171-0.451,0.41-0.495c1.245-0.228,2.326-0.727,3.213-1.482c0.899-0.766,1.616-1.734,2.131-2.88
			c0.518-1.145,0.779-2.357,0.779-3.607c0-1.769-0.455-3.325-1.352-4.626c-0.903-1.309-2.191-2.34-3.828-3.065
			c-1.666-0.732-3.582-1.103-5.692-1.103c-1.726,0-3.376,0.227-4.904,0.673c-1.517,0.444-2.861,1.07-3.996,1.861
			c-0.401,0.279-0.769,0.57-1.094,0.866c-0.423,0.382-0.654,0.91-0.654,1.488c0,0.531,0.2,1.039,0.563,1.429
			c0.786,0.846,2.084,0.879,2.954,0.076c0.486-0.446,1.032-0.85,1.624-1.2c1.414-0.833,3.04-1.255,4.836-1.255
			c1.262,0,2.375,0.2,3.31,0.597c0.953,0.4,1.727,1.006,2.297,1.8c0.574,0.811,0.865,1.839,0.865,3.06
			c0,1.83-0.68,3.366-2.021,4.566c-1.324,1.187-3.22,1.788-5.633,1.788h-0.155c-0.491,0-0.891,0.399-0.891,0.891v1.644
			c0,0.238,0.093,0.462,0.26,0.629c0.169,0.17,0.393,0.263,0.631,0.263c2.821,0,4.991,0.629,6.45,1.868
			c1.481,1.259,2.232,3.01,2.232,5.202c0,2.131-0.696,3.76-2.068,4.844c-1.337,1.056-3.198,1.591-5.533,1.591
			c-2.067,0-3.812-0.384-5.183-1.141c-0.576-0.318-1.106-0.688-1.58-1.095C661.102,392.04,660.606,391.867,660.116,391.867z"/>
	</g>
	<g>
		<path style="fill:#D69EBF;" d="M138.299,118.704c-2.041-1.353-4.449-2.026-7.228-2.026c-2.532,0-4.82,0.594-6.861,1.779
			c-2.041,1.188-3.658,2.791-4.852,4.805c-1.197,2.014-1.797,4.246-1.797,6.69c0,2.411,0.573,4.59,1.714,6.531
			c1.144,1.944,2.711,3.482,4.699,4.614c1.985,1.135,4.193,1.7,6.623,1.7c1.3,0,2.523-0.212,3.667-0.632
			c1.141-0.424,2.153-1.021,3.032-1.794c0.882-0.773,1.567-1.67,2.062-2.691c-0.038,2.673-0.415,5.002-1.135,6.981
			c-0.723,1.982-1.726,3.494-3.008,4.54c-1.341,1.088-2.958,1.609-4.855,1.562c-1.57-0.041-3.114-0.497-4.455-1.315
			c-0.682-0.415-1.291-0.894-1.829-1.441c-0.494-0.503-1.144-0.756-1.794-0.756c-0.638,0-1.276,0.247-1.759,0.753
			c-0.879,0.918-0.915,2.356-0.079,3.311c1.006,1.156,2.176,2.106,3.502,2.853c1.97,1.109,4.152,1.664,6.546,1.664
			c2.92,0,5.443-0.829,7.572-2.485c2.129-1.656,3.782-4.123,4.961-7.399c1.176-3.276,1.767-7.346,1.767-12.207
			c0-3.564-0.574-6.622-1.714-9.181C141.933,122.006,140.339,120.054,138.299,118.704z M137.931,134.052
			c-0.738,1.241-1.697,2.235-2.876,2.982c-1.179,0.747-2.526,1.121-4.038,1.121c-1.409,0-2.717-0.374-3.932-1.121
			c-1.212-0.747-2.182-1.741-2.9-2.982c-0.723-1.238-1.085-2.605-1.085-4.102c0-1.529,0.37-2.926,1.109-4.182
			c0.738-1.259,1.706-2.262,2.903-3.008c1.197-0.747,2.517-1.123,3.958-1.123c1.444,0,2.761,0.377,3.958,1.123
			c1.194,0.747,2.165,1.75,2.903,3.008c0.738,1.256,1.109,2.653,1.109,4.182C139.04,131.446,138.669,132.814,137.931,134.052z"/>
	</g>
	<g>
		<path style="fill:#897FA4;" d="M71.221,82.721h-2.792V54.142c0-2.031-1.642-3.673-3.673-3.673h-0.111
			c-1.134,0-2.207,0.524-2.903,1.421L38.491,81.878c-0.5,0.643-0.774,1.433-0.774,2.248v2.272c0,2.027,1.646,3.673,3.677,3.673
			h18.879v8.009c0,2.027,1.646,3.673,3.677,3.673h0.807c2.031,0,3.673-1.646,3.673-3.673V90.07h2.792c1.015,0,1.933-0.409,2.6-1.077
			c0.663-0.663,1.073-1.585,1.073-2.596C74.894,84.367,73.252,82.721,71.221,82.721z M61.157,82.721H45.873L61.157,62.81V82.721z"/>
	</g>
	<g>
		<path style="fill:#897FA4;" d="M722.535,292.059c0.778,1.322,1.168,2.852,1.168,4.588c0,1.842-0.442,3.454-1.324,4.841
			c-0.88,1.387-2.068,2.471-3.556,3.249c-1.493,0.776-3.184,1.166-5.076,1.166c-1.998,0-3.786-0.446-5.368-1.342
			c-1.055-0.598-1.944-1.337-2.666-2.219c-0.605-0.739-0.537-1.823,0.143-2.494c0.36-0.355,0.83-0.533,1.3-0.533
			c0.472,0,0.945,0.18,1.309,0.537c0.498,0.49,1.053,0.919,1.664,1.287c1.14,0.685,2.358,1.029,3.656,1.029
			c1.062,0,2.009-0.238,2.839-0.72c0.828-0.479,1.484-1.127,1.963-1.944c0.479-0.817,0.719-1.742,0.719-2.781
			c0-1.036-0.227-1.95-0.68-2.741c-0.455-0.791-1.077-1.406-1.868-1.849c-0.791-0.44-1.677-0.661-2.664-0.661
			c-1.01,0-1.944,0.221-2.8,0.661c-0.613,0.319-1.146,0.735-1.602,1.25c-0.36,0.41-0.869,0.657-1.415,0.657h-0.598
			c-1.17,0-2.048-1.066-1.825-2.215l2.718-13.924h11.635c1.027,0,1.859,0.832,1.859,1.857v0.212c0,1.025-0.832,1.857-1.859,1.857
			h-8.523l-1.4,7.544c0.44-0.466,1.036-0.841,1.788-1.127c0.752-0.284,1.608-0.427,2.566-0.427c1.738,0,3.294,0.375,4.668,1.127
			C720.682,289.699,721.757,290.735,722.535,292.059z"/>
	</g>
	<g>
		<path style="fill:#D69EBF;" d="M678.736,465.65v1.36c0,0.819-0.665,1.484-1.484,1.484h-13.733c-0.821,0-1.486-0.665-1.486-1.484
			v-1.36c0-0.819,0.665-1.484,1.486-1.484h4.722v-15.305c-0.263,0.351-0.67,0.721-1.223,1.116c-0.556,0.392-1.182,0.758-1.881,1.092
			c-0.699,0.336-1.391,0.607-2.076,0.809l-0.022,0.007c-0.938,0.278-1.881-0.426-1.881-1.406v-1.54c0-0.663,0.441-1.243,1.077-1.426
			c0.302-0.085,0.619-0.205,0.958-0.358c0.772-0.348,1.523-0.765,2.252-1.245c0.729-0.482,1.355-0.948,1.879-1.399
			c0.156-0.134,0.292-0.258,0.409-0.37c0.417-0.397,0.967-0.614,1.542-0.614h1.664c1.24,0,2.244,1.004,2.244,2.244v18.395h4.069
			C678.07,464.167,678.736,464.832,678.736,465.65z"/>
	</g>
	<g>
		<path style="fill:#FBF2FF;" d="M180.687,65.935c-0.992-0.855-2.045-1.545-3.159-2.068c0.939-0.416,1.818-0.992,2.638-1.722
			c0.817-0.73,1.46-1.574,1.932-2.531c0.468-0.957,0.704-1.958,0.704-3.002c0-1.67-0.358-3.115-1.07-4.334
			c-0.713-1.216-1.67-2.243-2.871-3.077c-1.201-0.835-2.516-1.469-3.941-1.905c-1.428-0.436-2.836-0.655-4.227-0.655
			c-1.393,0-2.792,0.218-4.203,0.655c-1.408,0.436-2.714,1.07-3.915,1.905c-1.198,0.835-2.158,1.879-2.871,3.13
			c-0.713,1.254-1.068,2.682-1.068,4.282c0,1.079,0.241,2.089,0.73,3.028c0.486,0.939,1.129,1.774,1.932,2.504
			c0.8,0.73,1.67,1.306,2.609,1.722c-1.044,0.454-2.054,1.091-3.028,1.911c-0.974,0.82-1.783,1.824-2.426,3.008
			c-0.646,1.187-0.966,2.513-0.966,3.979c0,2.196,0.573,4.151,1.722,5.858c1.149,1.71,2.723,3.072,4.724,4.084
			c2.001,1.009,4.235,1.519,6.708,1.519c2.4,0,4.619-0.471,6.656-1.414c2.033-0.942,3.654-2.251,4.852-3.927
			c1.201-1.673,1.803-3.627,1.803-5.858c0-1.501-0.297-2.845-0.887-4.029C182.47,67.812,181.679,66.791,180.687,65.935z
			 M165.34,54.134c0.576-0.75,1.332-1.332,2.272-1.751c0.94-0.416,1.949-0.625,3.028-0.625c1.149,0,2.19,0.201,3.133,0.599
			c0.937,0.401,1.702,0.966,2.295,1.699c0.59,0.73,0.887,1.617,0.887,2.662c0,1.114-0.323,2.054-0.966,2.819
			c-0.643,0.765-1.437,1.35-2.374,1.748c-0.94,0.401-1.917,0.599-2.923,0.599c-0.939,0-1.896-0.189-2.871-0.573
			c-0.974-0.384-1.774-0.957-2.403-1.722c-0.625-0.765-0.94-1.705-0.94-2.819C164.479,55.76,164.767,54.882,165.34,54.134z
			 M177.034,75.939c-0.713,0.96-1.626,1.713-2.74,2.254c-1.114,0.541-2.298,0.812-3.549,0.812c-0.908,0-1.803-0.14-2.688-0.419
			c-0.887-0.279-1.69-0.698-2.403-1.257c-0.713-0.562-1.277-1.233-1.696-2.019s-0.628-1.652-0.628-2.595
			c0-1.329,0.349-2.473,1.047-3.433c0.695-0.963,1.6-1.704,2.711-2.228c1.114-0.524,2.298-0.785,3.552-0.785
			c0.94,0,1.844,0.14,2.714,0.419c0.87,0.279,1.678,0.698,2.426,1.257c0.748,0.561,1.324,1.233,1.722,2.019
			c0.401,0.785,0.602,1.667,0.602,2.647C178.104,73.868,177.746,74.979,177.034,75.939z"/>
	</g>
	<g>
		<path style="fill:#403E4D;" d="M77.42,232.846h-0.635c-1.25,0-2.385-0.636-3.038-1.702c-0.652-1.064-0.702-2.365-0.134-3.478
			l15.84-31.01H72.481c-1.965,0-3.564-1.597-3.564-3.561c0-0.951,0.371-1.845,1.045-2.519c0.672-0.672,1.566-1.042,2.519-1.042
			h22.678c1.379,0,2.633,0.702,3.355,1.877c0.722,1.175,0.781,2.612,0.158,3.842l0,0l-18.077,35.643
			C79.987,232.099,78.77,232.846,77.42,232.846z M72.481,190.534c-0.686,0-1.329,0.266-1.812,0.749
			c-0.485,0.485-0.752,1.128-0.752,1.812c0,1.412,1.15,2.561,2.564,2.561h17.79c0.174,0,0.335,0.09,0.426,0.239
			c0.091,0.148,0.098,0.333,0.019,0.489l-16.212,31.738c-0.409,0.8-0.373,1.735,0.096,2.501c0.469,0.767,1.286,1.224,2.185,1.224
			h0.635c0.971,0,1.846-0.537,2.283-1.401l18.077-35.643c0.465-0.918,0.421-1.99-0.118-2.867c-0.539-0.877-1.475-1.4-2.503-1.4
			H72.481z M98.226,195.028h0.01H98.226z"/>
	</g>
	<g>
		<path style="fill:#403E4D;" d="M170.718,438.547c-2.829,0-5.381-0.747-7.585-2.221c-2.197-1.466-3.956-3.512-5.229-6.08
			c-1.271-2.563-1.917-5.521-1.917-8.793c0-3.272,0.645-6.23,1.917-8.794c1.27-2.561,3.027-4.615,5.226-6.104
			c2.208-1.492,4.76-2.248,7.588-2.248c2.831,0,5.376,0.757,7.564,2.249c2.173,1.484,3.93,3.537,5.223,6.101
			c0,0.001,0,0.001,0,0.001c1.289,2.56,1.943,5.519,1.943,8.796c0,3.277-0.654,6.236-1.943,8.796
			c-1.296,2.57-3.055,4.614-5.226,6.076C176.094,437.799,173.55,438.547,170.718,438.547z M170.718,405.307
			c-2.624,0-4.989,0.698-7.028,2.076c-2.053,1.391-3.698,3.315-4.89,5.721c-1.203,2.424-1.813,5.233-1.813,8.35
			c0,3.116,0.61,5.926,1.813,8.349c1.194,2.41,2.838,4.325,4.888,5.692c2.038,1.362,4.403,2.053,7.03,2.053
			c2.629,0,4.985-0.69,7.003-2.051c2.028-1.365,3.674-3.282,4.892-5.697c1.218-2.418,1.836-5.227,1.836-8.346
			c0-3.119-0.618-5.928-1.836-8.347c-1.216-2.411-2.862-4.337-4.894-5.725C175.7,406.005,173.344,405.307,170.718,405.307z
			 M170.718,432.875c-1.699,0-3.213-0.501-4.501-1.488c-1.27-0.975-2.285-2.33-3.017-4.029c-0.726-1.683-1.094-3.67-1.094-5.904
			c0-2.235,0.359-4.23,1.067-5.926c0.715-1.723,1.732-3.09,3.022-4.064c1.302-0.987,2.807-1.488,4.471-1.488
			c1.699,0,3.222,0.511,4.527,1.518c1.288,0.993,2.303,2.359,3.018,4.061c0.708,1.679,1.067,3.664,1.067,5.899
			c0,2.197-0.359,4.165-1.067,5.848c-0.716,1.703-1.731,3.068-3.019,4.059C173.889,432.366,172.383,432.875,170.718,432.875z
			 M170.666,410.975c-1.441,0-2.742,0.433-3.867,1.286c-1.147,0.866-2.056,2.094-2.703,3.65c-0.657,1.575-0.99,3.44-0.99,5.542
			c0,2.098,0.341,3.951,1.012,5.508c0.664,1.541,1.575,2.763,2.708,3.633c1.109,0.85,2.418,1.281,3.893,1.281
			c1.439,0,2.739-0.44,3.864-1.308c1.148-0.884,2.059-2.113,2.706-3.654v-0.001c0.656-1.559,0.989-3.395,0.989-5.459
			c0-2.102-0.333-3.956-0.989-5.512c-0.648-1.541-1.559-2.771-2.708-3.658C173.456,411.415,172.138,410.975,170.666,410.975z"/>
	</g>
	<g>
		<path style="fill:#897FA4;" d="M133.603,447.687v1.36c0,0.819-0.665,1.484-1.484,1.484h-13.733c-0.821,0-1.486-0.665-1.486-1.484
			v-1.36c0-0.819,0.665-1.484,1.486-1.484h4.722v-15.305c-0.263,0.351-0.67,0.721-1.223,1.116c-0.556,0.392-1.182,0.758-1.881,1.092
			c-0.699,0.336-1.391,0.607-2.076,0.809l-0.022,0.007c-0.938,0.278-1.881-0.426-1.881-1.406v-1.54c0-0.663,0.441-1.243,1.077-1.426
			c0.302-0.085,0.619-0.205,0.958-0.358c0.772-0.348,1.523-0.765,2.252-1.245c0.729-0.482,1.355-0.948,1.879-1.399
			c0.156-0.134,0.292-0.258,0.409-0.37c0.417-0.397,0.967-0.614,1.542-0.614h1.664c1.24,0,2.244,1.004,2.244,2.244v18.395h4.069
			C132.938,446.203,133.603,446.868,133.603,447.687z"/>
	</g>
	<g>
		<path style="fill:#FBF2FF;" d="M134.134,363.137c1.18,2.005,1.772,4.326,1.772,6.96c0,2.794-0.671,5.24-2.009,7.344
			c-1.335,2.104-3.136,3.748-5.395,4.928c-2.265,1.177-4.829,1.769-7.699,1.769c-3.031,0-5.743-0.677-8.143-2.035
			c-1.601-0.907-2.949-2.028-4.043-3.366c-0.917-1.121-0.815-2.765,0.217-3.784c0.546-0.539,1.259-0.809,1.973-0.809
			c0.717,0,1.433,0.273,1.986,0.815c0.756,0.743,1.598,1.394,2.525,1.953c1.729,1.039,3.577,1.561,5.546,1.561
			c1.611,0,3.048-0.362,4.307-1.091c1.256-0.727,2.252-1.71,2.978-2.949c0.727-1.239,1.092-2.643,1.092-4.218
			c0-1.571-0.345-2.959-1.032-4.159c-0.69-1.2-1.634-2.134-2.834-2.804c-1.2-0.667-2.545-1.003-4.04-1.003
			c-1.532,0-2.949,0.335-4.247,1.003c-0.93,0.483-1.739,1.114-2.43,1.897c-0.546,0.621-1.318,0.996-2.147,0.996h-0.907
			c-1.775,0-3.107-1.617-2.768-3.36l4.123-21.122h17.65c1.558,0,2.821,1.262,2.821,2.817v0.322c0,1.555-1.262,2.817-2.821,2.817
			h-12.929l-2.124,11.444c0.667-0.707,1.572-1.276,2.712-1.71c1.141-0.431,2.439-0.648,3.892-0.648c2.636,0,4.997,0.569,7.081,1.71
			C131.323,359.557,132.954,361.128,134.134,363.137z"/>
	</g>
	<g>
		<path style="fill:#403E4D;" d="M724.067,104.048c-1.918,0-3.695-0.452-5.281-1.345c-1.043-0.587-1.971-1.336-2.759-2.225
			c-0.768-0.865-0.854-2.143-0.207-3.039c0.457-0.631,1.161-0.993,1.931-0.993c0.656,0,1.273,0.26,1.736,0.731
			c0.391,0.397,0.842,0.751,1.343,1.051c0.913,0.549,1.947,0.865,2.991,0.914c1.42,0.072,2.583-0.289,3.564-1.085
			c0.911-0.744,1.638-1.846,2.16-3.276c0.364-1.001,0.612-2.141,0.741-3.405c-0.202,0.229-0.421,0.446-0.654,0.651
			c-0.717,0.63-1.554,1.126-2.488,1.473c-0.935,0.344-1.942,0.518-2.995,0.518c-1.952,0-3.75-0.462-5.344-1.373
			c-1.6-0.911-2.878-2.167-3.798-3.73c-0.922-1.567-1.389-3.343-1.389-5.278c0-1.962,0.489-3.78,1.453-5.402
			c0.957-1.617,2.273-2.92,3.91-3.874c1.643-0.953,3.503-1.437,5.531-1.437c2.229,0,4.192,0.552,5.836,1.642l0,0
			c1.646,1.088,2.943,2.676,3.857,4.72c0.905,2.028,1.363,4.473,1.363,7.268c0,3.776-0.468,6.993-1.39,9.561
			c-0.937,2.601-2.275,4.592-3.981,5.918C728.48,103.369,726.417,104.048,724.067,104.048z M717.751,97.446
			c-0.445,0-0.854,0.211-1.12,0.579c-0.375,0.52-0.315,1.272,0.145,1.79c0.715,0.806,1.556,1.485,2.501,2.018
			c1.435,0.807,3.047,1.216,4.791,1.216c2.121,0,3.978-0.608,5.519-1.806c1.553-1.208,2.781-3.047,3.652-5.467
			c0.883-2.459,1.331-5.562,1.331-9.222c0-2.654-0.43-4.962-1.276-6.86c-0.835-1.868-2.012-3.313-3.495-4.294
			c-0.001,0-0.001,0-0.001,0c-1.478-0.979-3.255-1.476-5.284-1.476c-1.85,0-3.541,0.438-5.028,1.301
			c-1.487,0.866-2.683,2.05-3.553,3.52c-0.872,1.466-1.313,3.112-1.313,4.892c0,1.755,0.421,3.36,1.25,4.771
			c0.83,1.411,1.985,2.544,3.432,3.369c1.441,0.824,3.072,1.242,4.849,1.242c0.935,0,1.826-0.153,2.648-0.456
			c0.817-0.303,1.55-0.736,2.175-1.286c0.623-0.547,1.116-1.19,1.466-1.913c0.102-0.211,0.341-0.324,0.565-0.269
			c0.229,0.054,0.388,0.259,0.385,0.494c-0.03,2.11-0.334,3.973-0.903,5.535c-0.585,1.602-1.415,2.85-2.468,3.709
			c-1.165,0.946-2.588,1.385-4.243,1.308c-1.209-0.057-2.405-0.422-3.46-1.056c-0.572-0.344-1.091-0.75-1.54-1.207
			C718.501,97.599,718.136,97.446,717.751,97.446z M724.472,90.446c-1.172,0-2.277-0.315-3.287-0.936
			c-1.005-0.62-1.813-1.451-2.401-2.47c-0.599-1.023-0.902-2.17-0.902-3.406c0-1.262,0.31-2.429,0.921-3.47
			c0.607-1.035,1.415-1.871,2.4-2.486c1.998-1.246,4.622-1.247,6.62,0c0.986,0.617,1.794,1.453,2.4,2.486
			c0.611,1.041,0.921,2.208,0.921,3.47c0,1.236-0.31,2.384-0.923,3.412c-0.607,1.019-1.405,1.847-2.375,2.461
			C726.862,90.13,725.727,90.446,724.472,90.446z M724.513,77.737c-1.007,0-1.943,0.265-2.781,0.789
			c-0.847,0.528-1.542,1.25-2.066,2.143c-0.521,0.886-0.784,1.883-0.784,2.964c0,1.056,0.258,2.033,0.767,2.904
			c0.507,0.877,1.199,1.59,2.062,2.121c0.861,0.53,1.765,0.788,2.763,0.788c1.063,0,2.018-0.264,2.839-0.784
			c0.836-0.529,1.525-1.245,2.051-2.128l0,0c0.52-0.872,0.782-1.847,0.782-2.9c0-1.081-0.264-2.079-0.784-2.964
			c-0.523-0.892-1.219-1.613-2.066-2.144C726.456,78.002,725.52,77.737,724.513,77.737z"/>
	</g>
	<g>
		<path style="fill:#FBF2FF;" d="M712.983,53.791h-2.036V31.803c0-1.56-1.265-2.826-2.826-2.826h-0.085
			c-0.873,0-1.698,0.403-2.233,1.093l-17.889,23.071c-0.384,0.494-0.595,1.102-0.595,1.729v1.748c0,1.56,1.265,2.826,2.826,2.826
			h14.528v6.161c0,1.561,1.265,2.826,2.826,2.826h0.624c1.56,0,2.826-1.265,2.826-2.826v-6.161h2.148c0.781,0,1.487-0.315,2-0.829
			c0.62-0.62,0.952-1.533,0.781-2.507C715.651,54.822,714.29,53.791,712.983,53.791z M705.353,53.791h-11.759l11.759-15.319V53.791z
			"/>
	</g>
	<g>
		<path style="fill:#897FA4;" d="M689.673,130.392l-13.907,27.422c-0.4,0.79-1.214,1.289-2.1,1.289h-0.489
			c-1.759,0-2.897-1.859-2.097-3.426l12.472-24.417h-13.587c-1.078,0-2.217-0.847-2.415-1.907c-0.153-0.823,0.127-1.592,0.65-2.114
			c0.426-0.426,1.014-0.689,1.666-0.689h17.447C689.286,126.551,690.565,128.633,689.673,130.392z"/>
	</g>
	<g>
		<g>
			<path style="fill:#403E4D;" d="M43.359,311.041c-0.198,0-0.377-0.117-0.458-0.298l-2.74-6.214l-6.75,0.733
				c-0.202,0.025-0.388-0.075-0.487-0.247c-0.099-0.172-0.087-0.386,0.03-0.545l4.011-5.479l-4.011-5.479
				c-0.117-0.159-0.129-0.373-0.03-0.545c0.099-0.172,0.292-0.268,0.487-0.247l6.75,0.733l2.74-6.213
				c0.16-0.361,0.755-0.361,0.915,0l2.74,6.213l6.75-0.733c0.19-0.026,0.388,0.074,0.487,0.247c0.099,0.172,0.087,0.386-0.03,0.545
				l-4.011,5.479l4.011,5.479c0.117,0.159,0.129,0.373,0.03,0.545c-0.099,0.173-0.292,0.273-0.487,0.247l-6.75-0.733l-2.74,6.214
				C43.737,310.924,43.557,311.041,43.359,311.041z M40.472,303.492c0.196,0,0.377,0.115,0.458,0.298l2.43,5.512l2.43-5.512
				c0.088-0.199,0.284-0.322,0.512-0.295l5.987,0.651l-3.557-4.86c-0.129-0.176-0.129-0.414,0-0.59l3.557-4.86l-5.987,0.651
				c-0.228,0.021-0.424-0.096-0.512-0.295l-2.43-5.511l-2.43,5.511c-0.088,0.199-0.286,0.316-0.512,0.295l-5.987-0.651l3.557,4.86
				c0.129,0.176,0.129,0.414,0,0.59l-3.557,4.86l5.987-0.651C40.436,303.493,40.454,303.492,40.472,303.492z"/>
		</g>
		<g>
			<polygon style="fill:#D69EBF;" points="50.939,387.585 54.283,419.355 63.298,415.07 59.013,424.085 75.872,427.429 
				59.013,430.773 63.298,439.788 54.283,435.503 50.939,467.274 47.594,435.503 38.58,439.788 42.865,430.773 26.005,427.429 
				42.865,424.085 38.58,415.07 47.594,419.355 			"/>
		</g>
		<g>
			<path style="fill:#403E4D;" d="M56.306,331.676c-4.504,0-4.512,7,0,7C60.81,338.676,60.817,331.676,56.306,331.676z"/>
		</g>
		<g>
			<path style="fill:#403E4D;" d="M36.227,378.014c-4.504,0-4.512,7,0,7C40.731,385.014,40.738,378.014,36.227,378.014z"/>
		</g>
		<g>
			<path style="fill:#403E4D;" d="M21.771,408.37c-1.93,0-1.934,3,0,3C23.701,411.37,23.705,408.37,21.771,408.37z"/>
		</g>
		<g>
			<path style="fill:#403E4D;" d="M21.771,391.134c-1.93,0-1.934,3,0,3C23.701,394.134,23.705,391.134,21.771,391.134z"/>
		</g>
		<g>
			<path style="fill:#403E4D;" d="M14.543,397.806c-1.93,0-1.934,3,0,3C16.473,400.806,16.477,397.806,14.543,397.806z"/>
		</g>
		<g>
			<path style="fill:#403E4D;" d="M50.745,316.441c-1.93,0-1.933,3,0,3C52.676,319.441,52.679,316.441,50.745,316.441z"/>
		</g>
		<g>
			<path style="fill:#403E4D;" d="M75.765,335.344c-1.93,0-1.934,3,0,3C77.695,338.344,77.698,335.344,75.765,335.344z"/>
		</g>
	</g>
	<g>
		<g>
			<path style="fill:#403E4D;" d="M210.615,53.097c-0.198,0-0.377-0.117-0.458-0.298l-2.74-6.213l-6.751,0.734
				c-0.2,0.021-0.389-0.076-0.487-0.247c-0.099-0.171-0.087-0.385,0.03-0.545l4.011-5.479l-4.011-5.479
				c-0.117-0.16-0.129-0.374-0.03-0.545c0.099-0.171,0.287-0.27,0.487-0.247l6.751,0.734l2.74-6.213c0.16-0.362,0.755-0.362,0.915,0
				l2.74,6.213l6.75-0.734c0.203-0.023,0.388,0.076,0.487,0.247c0.099,0.171,0.087,0.385-0.03,0.545l-4.011,5.479l4.011,5.479
				c0.117,0.16,0.129,0.374,0.03,0.545c-0.099,0.172-0.292,0.272-0.487,0.247l-6.75-0.734l-2.74,6.213
				C210.992,52.98,210.813,53.097,210.615,53.097z M207.727,45.549c0.196,0,0.377,0.116,0.458,0.298l2.43,5.511l2.43-5.511
				c0.088-0.199,0.285-0.321,0.512-0.295l5.987,0.651l-3.558-4.859c-0.129-0.176-0.129-0.415,0-0.591l3.558-4.86l-5.987,0.651
				c-0.228,0.023-0.424-0.096-0.512-0.295l-2.43-5.511l-2.43,5.511c-0.088,0.199-0.286,0.319-0.512,0.295l-5.987-0.651l3.558,4.86
				c0.129,0.176,0.129,0.415,0,0.591l-3.558,4.859l5.987-0.651C207.692,45.55,207.71,45.549,207.727,45.549z"/>
		</g>
		<g>
			<path style="fill:#403E4D;" d="M221.128,62.732c-4.504,0-4.512,7,0,7C225.632,69.732,225.639,62.732,221.128,62.732z"/>
		</g>
		<g>
			<path style="fill:#403E4D;" d="M230.579,25.813c-1.93,0-1.934,3,0,3C232.51,28.813,232.513,25.813,230.579,25.813z"/>
		</g>
		<g>
			<path style="fill:#403E4D;" d="M233.359,48.609c-1.93,0-1.933,3,0,3C235.29,51.609,235.293,48.609,233.359,48.609z"/>
		</g>
		<g>
			<path style="fill:#403E4D;" d="M246.147,37.489c-1.93,0-1.934,3,0,3C248.077,40.489,248.081,37.489,246.147,37.489z"/>
		</g>
	</g>
	<g>
		<g>
			<polygon style="fill:#D69EBF;" points="628.789,13.543 631.486,39.168 638.757,35.711 635.301,42.982 648.899,45.68 
				635.301,48.377 638.757,55.648 631.486,52.192 628.789,77.816 626.091,52.192 618.821,55.648 622.277,48.377 608.678,45.68 
				622.277,42.982 618.821,35.711 626.091,39.168 			"/>
		</g>
		<g>
			<path style="fill:#403E4D;" d="M586.858,101.593c-0.198,0-0.378-0.117-0.457-0.298l-2.74-6.213l-6.751,0.734
				c-0.2,0.021-0.388-0.076-0.486-0.247c-0.1-0.171-0.088-0.385,0.029-0.545l4.011-5.479l-4.011-5.479
				c-0.117-0.16-0.129-0.374-0.029-0.545c0.099-0.171,0.288-0.269,0.486-0.247l6.751,0.734l2.74-6.213
				c0.158-0.362,0.756-0.362,0.914,0l2.74,6.213l6.751-0.734c0.194-0.022,0.388,0.076,0.486,0.247
				c0.1,0.171,0.088,0.385-0.029,0.545l-4.011,5.479l4.011,5.479c0.117,0.16,0.129,0.374,0.029,0.545
				c-0.099,0.171-0.291,0.269-0.486,0.247l-6.751-0.734l-2.74,6.213C587.236,101.476,587.056,101.593,586.858,101.593z
				 M583.97,94.045c0.196,0,0.377,0.116,0.457,0.298l2.431,5.511l2.431-5.511c0.087-0.199,0.298-0.322,0.511-0.295l5.987,0.651
				l-3.558-4.86c-0.129-0.176-0.129-0.415,0-0.591l3.558-4.859l-5.987,0.651c-0.213,0.022-0.424-0.097-0.511-0.295l-2.431-5.511
				l-2.431,5.511c-0.088,0.199-0.3,0.318-0.511,0.295l-5.987-0.651l3.558,4.859c0.129,0.176,0.129,0.415,0,0.591l-3.558,4.86
				l5.987-0.651C583.934,94.046,583.953,94.045,583.97,94.045z"/>
		</g>
		<g>
			<path style="fill:#403E4D;" d="M563.677,56.45c-4.504,0-4.512,7,0,7C568.181,63.45,568.188,56.45,563.677,56.45z"/>
		</g>
		<g>
			<path style="fill:#403E4D;" d="M573.128,35.654c-1.93,0-1.934,3,0,3C575.059,38.654,575.062,35.654,573.128,35.654z"/>
		</g>
		<g>
			<path style="fill:#403E4D;" d="M583.136,57.894c-1.93,0-1.934,3,0,3C585.066,60.894,585.069,57.894,583.136,57.894z"/>
		</g>
		<g>
			<path style="fill:#403E4D;" d="M549.221,45.106c-1.93,0-1.933,3,0,3C551.151,48.106,551.154,45.106,549.221,45.106z"/>
		</g>
		<g>
			<path style="fill:#403E4D;" d="M648.943,86.108c-1.93,0-1.934,3,0,3C650.874,89.108,650.877,86.108,648.943,86.108z"/>
		</g>
		<g>
			<path style="fill:#403E4D;" d="M663.955,74.988c-1.93,0-1.934,3,0,3C665.885,77.988,665.888,74.988,663.955,74.988z"/>
		</g>
		<g>
			<path style="fill:#403E4D;" d="M661.175,94.447c-1.93,0-1.933,3,0,3C663.105,97.447,663.108,94.447,661.175,94.447z"/>
		</g>
	</g>
	<g>
		<g>
			<path style="fill:#403E4D;" d="M592.139,368.341L592.139,368.341c-0.198,0-0.378-0.117-0.457-0.298l-2.739-6.213l-6.752,0.733
				c-0.197,0.021-0.388-0.076-0.486-0.247c-0.1-0.172-0.088-0.386,0.029-0.545l4.011-5.48l-4.011-5.479
				c-0.117-0.159-0.129-0.373-0.029-0.545c0.099-0.172,0.291-0.269,0.486-0.247l6.752,0.733l2.739-6.213
				c0.158-0.361,0.756-0.361,0.914,0l2.74,6.213l6.752-0.733c0.19-0.022,0.388,0.075,0.486,0.247c0.1,0.172,0.088,0.386-0.029,0.545
				l-4.011,5.479l4.011,5.48c0.117,0.159,0.129,0.373,0.029,0.545c-0.099,0.172-0.294,0.269-0.486,0.247l-6.752-0.733l-2.74,6.213
				C592.517,368.224,592.338,368.341,592.139,368.341z M589.253,360.793c0.196,0,0.377,0.115,0.457,0.298l2.43,5.511l2.431-5.511
				c0.087-0.199,0.298-0.318,0.511-0.295l5.988,0.651l-3.558-4.861c-0.129-0.176-0.129-0.414,0-0.59l3.558-4.86l-5.988,0.651
				c-0.213,0.02-0.424-0.096-0.511-0.295l-2.431-5.511l-2.43,5.511c-0.088,0.199-0.295,0.315-0.511,0.295l-5.988-0.651l3.558,4.86
				c0.129,0.176,0.129,0.414,0,0.59l-3.558,4.861l5.988-0.651C589.217,360.794,589.235,360.793,589.253,360.793z"/>
		</g>
		<g>
			<path style="fill:#403E4D;" d="M564.121,386.981c-4.504,0-4.512,7,0,7C568.626,393.981,568.633,386.981,564.121,386.981z"/>
		</g>
		<g>
			<path style="fill:#403E4D;" d="M606.588,377.22c-4.504,0-4.512,7,0,7C611.092,384.22,611.099,377.22,606.588,377.22z"/>
		</g>
		<g>
			<path style="fill:#403E4D;" d="M553.558,409.776c-4.504,0-4.512,7,0,7C558.062,416.776,558.069,409.776,553.558,409.776z"/>
		</g>
		<g>
			<path style="fill:#403E4D;" d="M593.589,395.097c-1.93,0-1.934,3,0,3C595.519,398.097,595.522,395.097,593.589,395.097z"/>
		</g>
		<g>
			<path style="fill:#403E4D;" d="M566.902,406.772c-1.93,0-1.934,3,0,3C568.832,409.772,568.835,406.772,566.902,406.772z"/>
		</g>
	</g>
	<g>
		<g>
			<path style="fill:#FBF2FF;" d="M429.774,244.115c0,0-15.442,30.684-54.771,30.684c-39.336,0-54.777-30.684-54.777-30.684
				s15.442-30.691,54.777-30.691C414.332,213.424,429.774,244.115,429.774,244.115z"/>
		</g>
		<g>
			<path style="fill:#403E4D;" d="M375.004,275.299c-39.191,0-55.068-30.649-55.224-30.959c-0.071-0.142-0.071-0.308,0-0.449
				c0.156-0.309,16.033-30.966,55.224-30.966c39.183,0,55.061,30.657,55.217,30.966c0.071,0.142,0.071,0.308,0,0.449
				C430.065,244.65,414.186,275.299,375.004,275.299z M320.793,244.115c1.518,2.782,17.425,30.184,54.211,30.184
				c36.778,0,52.686-27.401,54.204-30.184c-1.518-2.783-17.426-30.191-54.204-30.191
				C338.218,213.924,322.31,241.332,320.793,244.115z"/>
		</g>
		<g>
			<circle style="fill:#D69EBF;" cx="375" cy="244.112" r="30.04"/>
		</g>
		<g>
			<circle style="fill:#403E4D;" cx="375" cy="244.112" r="16.453"/>
		</g>
		<g>
			<path style="fill:#FBF2FF;" d="M395.852,232.804c0,3.403-2.759,6.162-6.162,6.162c-3.403,0-6.162-2.759-6.162-6.162
				c0-3.403,2.759-6.162,6.162-6.162C393.093,226.642,395.852,229.401,395.852,232.804z"/>
		</g>
		<g>
			<path style="fill:#403E4D;" d="M375,274.652c-16.84,0-30.54-13.7-30.54-30.54c0-16.84,13.7-30.54,30.54-30.54
				c16.84,0,30.54,13.7,30.54,30.54C405.54,260.951,391.84,274.652,375,274.652z M375,214.572c-16.289,0-29.54,13.252-29.54,29.54
				c0,16.288,13.251,29.54,29.54,29.54c16.288,0,29.54-13.252,29.54-29.54C404.54,227.824,391.288,214.572,375,214.572z"/>
		</g>
		<g>
			<path style="fill:#403E4D;" d="M356.808,262.804c-0.128,0-0.256-0.049-0.354-0.146c-0.195-0.195-0.195-0.512,0-0.707l6.558-6.558
				c0.195-0.195,0.512-0.195,0.707,0c0.195,0.195,0.195,0.512,0,0.707l-6.558,6.558
				C357.064,262.755,356.936,262.804,356.808,262.804z"/>
		</g>
		<g>
			<path style="fill:#403E4D;" d="M393.192,262.804c-0.128,0-0.256-0.049-0.354-0.146l-6.558-6.558
				c-0.195-0.195-0.195-0.512,0-0.707c0.195-0.195,0.512-0.195,0.707,0l6.558,6.558c0.195,0.195,0.195,0.512,0,0.707
				C393.448,262.755,393.32,262.804,393.192,262.804z"/>
		</g>
		<g>
			<path style="fill:#403E4D;" d="M363.366,232.978c-0.128,0-0.256-0.049-0.354-0.146l-6.558-6.558
				c-0.195-0.195-0.195-0.512,0-0.707c0.195-0.195,0.512-0.195,0.707,0l6.558,6.558c0.195,0.195,0.195,0.512,0,0.707
				C363.622,232.929,363.494,232.978,363.366,232.978z"/>
		</g>
		<g>
			<path style="fill:#403E4D;" d="M375,228.158c-0.276,0-0.5-0.224-0.5-0.5v-9.274c0-0.276,0.224-0.5,0.5-0.5s0.5,0.224,0.5,0.5
				v9.274C375.5,227.935,375.276,228.158,375,228.158z"/>
		</g>
		<g>
			<path style="fill:#403E4D;" d="M375,270.339c-0.276,0-0.5-0.224-0.5-0.5v-9.274c0-0.276,0.224-0.5,0.5-0.5s0.5,0.224,0.5,0.5
				v9.274C375.5,270.116,375.276,270.339,375,270.339z"/>
		</g>
		<g>
			<path style="fill:#403E4D;" d="M400.727,244.611h-9.274c-0.276,0-0.5-0.224-0.5-0.5c0-0.276,0.224-0.5,0.5-0.5h9.274
				c0.276,0,0.5,0.224,0.5,0.5C401.227,244.388,401.004,244.611,400.727,244.611z"/>
		</g>
		<g>
			<path style="fill:#403E4D;" d="M358.547,244.611h-9.274c-0.276,0-0.5-0.224-0.5-0.5c0-0.276,0.224-0.5,0.5-0.5h9.274
				c0.276,0,0.5,0.224,0.5,0.5C359.047,244.388,358.823,244.611,358.547,244.611z"/>
		</g>
	</g>
	<g>
		<g>
			<path style="fill:#403E4D;" d="M48.291,143.31c-0.198,0-0.377-0.117-0.457-0.298l-2.74-6.213l-6.751,0.734
				c-0.196,0.02-0.389-0.076-0.487-0.247c-0.099-0.171-0.087-0.385,0.03-0.545l4.011-5.48l-4.011-5.479
				c-0.117-0.16-0.129-0.374-0.03-0.545c0.099-0.171,0.296-0.268,0.487-0.247l6.75,0.734l2.74-6.213c0.16-0.362,0.755-0.362,0.915,0
				l2.74,6.213l6.751-0.734c0.201-0.021,0.389,0.076,0.487,0.247c0.099,0.171,0.087,0.385-0.03,0.545l-4.011,5.479l4.011,5.48
				c0.117,0.16,0.129,0.374,0.03,0.545c-0.099,0.172-0.288,0.272-0.487,0.247l-6.751-0.734l-2.74,6.213
				C48.668,143.193,48.489,143.31,48.291,143.31z M45.403,135.761c0.196,0,0.377,0.116,0.458,0.298l2.43,5.511l2.43-5.511
				c0.088-0.199,0.284-0.317,0.512-0.295l5.987,0.651l-3.558-4.86c-0.129-0.176-0.129-0.415,0-0.591l3.558-4.859l-5.987,0.651
				c-0.229,0.021-0.424-0.097-0.512-0.295l-2.43-5.511l-2.43,5.511c-0.088,0.199-0.287,0.317-0.512,0.295l-5.987-0.651l3.558,4.859
				c0.129,0.176,0.129,0.415,0,0.591l-3.558,4.86l5.987-0.651C45.367,135.762,45.386,135.761,45.403,135.761z"/>
		</g>
		<g>
			<polygon style="fill:#D69EBF;" points="26.222,150.577 28.233,169.682 33.654,167.105 31.077,172.525 41.216,174.536 
				31.077,176.548 33.654,181.968 28.233,179.391 26.222,198.496 24.211,179.391 18.791,181.968 21.367,176.548 11.229,174.536 
				21.367,172.525 18.791,167.105 24.211,169.682 			"/>
		</g>
		<g>
			<path style="fill:#403E4D;" d="M74.893,151.491c-4.504,0-4.512,7,0,7C79.397,158.491,79.404,151.491,74.893,151.491z"/>
		</g>
		<g>
			<path style="fill:#403E4D;" d="M69.333,136.256c-1.93,0-1.934,3,0,3C71.263,139.256,71.266,136.256,69.333,136.256z"/>
		</g>
		<g>
			<path style="fill:#403E4D;" d="M94.352,155.159c-1.93,0-1.934,3,0,3C96.282,158.159,96.285,155.159,94.352,155.159z"/>
		</g>
	</g>
	<g>
		<path style="fill:#403E4D;" d="M649.299,240.726c-16.64,0-30.178-13.537-30.178-30.177c0-16.64,13.538-30.178,30.178-30.178
			c5.132,0,10.202,1.313,14.664,3.799c0.202,0.113,0.301,0.35,0.238,0.573c-0.063,0.223-0.273,0.373-0.502,0.364
			c-0.16-0.006-0.321,0.004-0.494-0.006c-14.032,0-25.448,11.416-25.448,25.449c0,14.032,11.416,25.448,25.448,25.448
			c0.173,0.011,0.334,0,0.494-0.007c0.226-0.01,0.439,0.142,0.502,0.364c0.063,0.223-0.036,0.46-0.238,0.572
			C659.501,239.412,654.43,240.726,649.299,240.726z M649.299,181.371c-16.089,0-29.178,13.089-29.178,29.178
			c0,16.088,13.089,29.177,29.178,29.177c4.299,0,8.553-0.953,12.418-2.77c-13.894-0.774-24.96-12.322-24.96-26.407
			c0-14.085,11.066-25.633,24.96-26.407C657.851,182.324,653.597,181.371,649.299,181.371z"/>
	</g>
	<g>
		<path style="fill:#403E4D;" d="M118.146,83.945c-16.64,0-30.177-13.537-30.177-30.177c0-16.64,13.538-30.177,30.177-30.177
			c5.133,0,10.204,1.313,14.664,3.798c0.202,0.113,0.301,0.349,0.238,0.572c-0.062,0.223-0.261,0.383-0.501,0.365
			c-0.161-0.006-0.325-0.013-0.496-0.006c-14.032,0-25.448,11.416-25.448,25.448s11.416,25.448,25.448,25.448
			c0.165-0.002,0.334,0,0.494-0.006c0.232-0.015,0.439,0.141,0.502,0.364c0.063,0.223-0.036,0.46-0.238,0.573
			C128.35,82.631,123.279,83.945,118.146,83.945z M118.146,24.59c-16.088,0-29.177,13.089-29.177,29.177
			c0,16.088,13.089,29.177,29.177,29.177c4.3,0,8.554-0.953,12.418-2.77c-13.894-0.774-24.96-12.322-24.96-26.407
			s11.067-25.633,24.961-26.407C126.701,25.544,122.446,24.59,118.146,24.59z"/>
	</g>
	<g>
		<path style="fill:#403E4D;" d="M220.211,462.064c-10.389,0-18.84-8.452-18.84-18.841c0-10.389,8.452-18.84,18.84-18.84
			c3.203,0,6.369,0.82,9.155,2.372c0.202,0.112,0.301,0.349,0.238,0.571c-0.062,0.224-0.26,0.37-0.501,0.365
			c-0.098-0.004-0.201-0.01-0.299-0.004c-8.566,0-15.536,6.969-15.536,15.535s6.969,15.536,15.536,15.536
			c0.104-0.002,0.202,0,0.299-0.004c0.224-0.01,0.438,0.142,0.501,0.365c0.063,0.223-0.036,0.459-0.238,0.571
			C226.58,461.243,223.414,462.064,220.211,462.064z M220.211,425.383c-9.837,0-17.84,8.003-17.84,17.84
			c0,9.838,8.003,17.841,17.84,17.841c2.377,0,4.732-0.477,6.909-1.39c-8.33-0.847-14.851-7.902-14.851-16.451
			c0-8.549,6.521-15.604,14.851-16.45C224.943,425.86,222.588,425.383,220.211,425.383z"/>
	</g>
</g>
</svg>
