<?xml version="1.0" encoding="UTF-8"?>
<svg id="SolarSystem" xmlns="http://www.w3.org/2000/svg" xmlns:xlink="http://www.w3.org/1999/xlink" viewBox="-100 -100 1349.1 1264">
  <defs>
    <style>
      .cls-1 {
        fill: url(#Dégradé_sans_nom_30);
      }

      .cls-1, .cls-2, .cls-3 {
        opacity: .55;
      }

      .cls-1, .cls-2, .cls-3, .cls-4, .cls-5, .cls-6, .cls-7, .cls-8, .cls-9, .cls-10, .cls-11, .cls-12, .cls-13, .cls-14, .cls-15, .cls-16, .cls-17, .cls-18, .cls-19, .cls-20, .cls-21, .cls-22, .cls-23, .cls-24, .cls-25, .cls-26, .cls-27, .cls-28, .cls-29, .cls-30, .cls-31, .cls-32, .cls-33, .cls-34, .cls-35, .cls-36, .cls-37, .cls-38, .cls-39, .cls-40, .cls-41, .cls-42, .cls-43, .cls-44, .cls-45, .cls-46, .cls-47, .cls-48, .cls-49, .cls-50, .cls-51, .cls-52, .cls-53, .cls-54, .cls-55, .cls-56, .cls-57, .cls-58, .cls-59, .cls-60, .cls-61, .cls-62, .cls-63, .cls-64, .cls-65, .cls-66, .cls-67, .cls-68 {
        stroke-width: 0px;
      }

      .cls-1, .cls-2, .cls-3, .cls-6, .cls-7, .cls-8, .cls-9, .cls-10, .cls-19, .cls-20, .cls-27 {
        isolation: isolate;
      }

      .cls-2 {
        fill: url(#Dégradé_sans_nom_44);
      }

      .cls-3 {
        fill: url(#Dégradé_sans_nom_22);
      }

      .cls-69 {
        clip-path: url(#clippath);
      }

      .cls-4, .cls-70 {
        fill: none;
      }

      .cls-5 {
        fill: url(#Dégradé_sans_nom);
      }

      .cls-6 {
        fill: url(#Dégradé_sans_nom_43);
      }

      .cls-6, .cls-7, .cls-8, .cls-9, .cls-10 {
        opacity: .45;
      }

      .cls-7 {
        fill: url(#Dégradé_sans_nom_60);
      }

      .cls-8 {
        fill: url(#Dégradé_sans_nom_55);
      }

      .cls-9 {
        fill: url(#Dégradé_sans_nom_54);
      }

      .cls-10 {
        fill: url(#Dégradé_sans_nom_21);
      }

      .cls-71 {
        clip-path: url(#clippath-1);
      }

      .cls-72 {
        clip-path: url(#clippath-4);
      }

      .cls-73 {
        clip-path: url(#clippath-3);
      }

      .cls-74 {
        clip-path: url(#clippath-2);
      }

      .cls-11 {
        fill: url(#Dégradé_sans_nom_8);
      }

      .cls-12 {
        fill: url(#Dégradé_sans_nom_9);
      }

      .cls-13 {
        fill: url(#Dégradé_sans_nom_6);
      }

      .cls-14 {
        fill: url(#Dégradé_sans_nom_7);
      }

      .cls-15 {
        fill: url(#Dégradé_sans_nom_4);
      }

      .cls-16 {
        fill: url(#Dégradé_sans_nom_5);
      }

      .cls-17 {
        fill: url(#Dégradé_sans_nom_2);
      }

      .cls-18 {
        fill: url(#Dégradé_sans_nom_3);
      }

      .cls-75 {
        opacity: .7;
      }

      .cls-76 {
        opacity: .75;
      }

      .cls-19 {
        fill: url(#Dégradé_sans_nom_29);
      }

      .cls-19, .cls-20 {
        opacity: .35;
      }

      .cls-20 {
        fill: url(#Dégradé_sans_nom_59);
      }

      .cls-70 {
        stroke: #aeaeae;
      }

      .cls-21 {
        fill: #f79c41;
      }

      .cls-22 {
        fill: #4a3e9e;
      }

      .cls-23 {
        fill: #3d3789;
      }

      .cls-24, .cls-27 {
        fill: #056db1;
      }

      .cls-25 {
        fill: #e27c37;
      }

      .cls-26 {
        fill: #ef903a;
      }

      .cls-27 {
        opacity: .5;
      }

      .cls-28 {
        fill: url(#Dégradé_sans_nom_41);
      }

      .cls-29 {
        fill: url(#Dégradé_sans_nom_42);
      }

      .cls-30 {
        fill: url(#Dégradé_sans_nom_49);
      }

      .cls-31 {
        fill: url(#Dégradé_sans_nom_40);
      }

      .cls-32 {
        fill: url(#Dégradé_sans_nom_28);
      }

      .cls-33 {
        fill: url(#Dégradé_sans_nom_31);
      }

      .cls-34 {
        fill: url(#Dégradé_sans_nom_33);
      }

      .cls-35 {
        fill: url(#Dégradé_sans_nom_35);
      }

      .cls-36 {
        fill: url(#Dégradé_sans_nom_32);
      }

      .cls-37 {
        fill: url(#Dégradé_sans_nom_37);
      }

      .cls-38 {
        fill: url(#Dégradé_sans_nom_34);
      }

      .cls-39 {
        fill: url(#Dégradé_sans_nom_36);
      }

      .cls-40 {
        fill: url(#Dégradé_sans_nom_38);
      }

      .cls-41 {
        fill: url(#Dégradé_sans_nom_39);
      }

      .cls-42 {
        fill: url(#Dégradé_sans_nom_46);
      }

      .cls-43 {
        fill: url(#Dégradé_sans_nom_47);
      }

      .cls-44 {
        fill: url(#Dégradé_sans_nom_45);
      }

      .cls-45 {
        fill: url(#Dégradé_sans_nom_48);
      }

      .cls-46 {
        fill: url(#Dégradé_sans_nom_14);
      }

      .cls-47 {
        fill: url(#Dégradé_sans_nom_15);
      }

      .cls-48 {
        fill: url(#Dégradé_sans_nom_12);
      }

      .cls-49 {
        fill: url(#Dégradé_sans_nom_19);
      }

      .cls-50 {
        fill: url(#Dégradé_sans_nom_18);
      }

      .cls-51 {
        fill: url(#Dégradé_sans_nom_11);
      }

      .cls-52 {
        fill: url(#Dégradé_sans_nom_16);
      }

      .cls-53 {
        fill: url(#Dégradé_sans_nom_17);
      }

      .cls-54 {
        fill: url(#Dégradé_sans_nom_13);
      }

      .cls-55 {
        fill: url(#Dégradé_sans_nom_10);
      }

      .cls-56 {
        fill: url(#Dégradé_sans_nom_61);
      }

      .cls-57 {
        fill: url(#Dégradé_sans_nom_57);
      }

      .cls-58 {
        fill: url(#Dégradé_sans_nom_52);
      }

      .cls-59 {
        fill: url(#Dégradé_sans_nom_51);
      }

      .cls-60 {
        fill: url(#Dégradé_sans_nom_53);
      }

      .cls-61 {
        fill: url(#Dégradé_sans_nom_50);
      }

      .cls-62 {
        fill: url(#Dégradé_sans_nom_24);
      }

      .cls-63 {
        fill: url(#Dégradé_sans_nom_20);
      }

      .cls-64 {
        fill: url(#Dégradé_sans_nom_56);
      }

      .cls-65 {
        fill: url(#Dégradé_sans_nom_58);
      }

      .cls-66 {
        fill: url(#Dégradé_sans_nom_27);
      }

      .cls-67 {
        fill: url(#Dégradé_sans_nom_26);
      }

      .cls-68 {
        fill: url(#Dégradé_sans_nom_25);
      }
    </style>
    <clipPath id="clippath">
      <rect class="cls-4" x="995" y="499" width="140" height="110"/>
    </clipPath>
    <radialGradient id="Dégradé_sans_nom" data-name="Dégradé sans nom" cx="-768.69" cy=".28" fx="-768.69" fy=".28" r="1" gradientTransform="translate(40421.82 540.01) scale(51.2 51.09)" gradientUnits="userSpaceOnUse">
      <stop offset="0" stop-color="#f9ab63"/>
      <stop offset="1" stop-color="#ffcc9c" stop-opacity="0"/>
    </radialGradient>
    <radialGradient id="Dégradé_sans_nom_2" data-name="Dégradé sans nom 2" cx="-769.03" cy=".27" fx="-769.03" fy=".27" r="1" gradientTransform="translate(41336.12 521.06) scale(52.36 52.25)" gradientUnits="userSpaceOnUse">
      <stop offset="0" stop-color="#fbdfb6"/>
      <stop offset="1" stop-color="#ed8d35"/>
    </radialGradient>
    <linearGradient id="Dégradé_sans_nom_3" data-name="Dégradé sans nom 3" x1="1026.53" y1="622.36" x2="1042.74" y2="508.69" gradientTransform="translate(0 -14)" gradientUnits="userSpaceOnUse">
      <stop offset="0" stop-color="#bd602b"/>
      <stop offset="1" stop-color="#e28e2b" stop-opacity="0"/>
    </linearGradient>
    <linearGradient id="Dégradé_sans_nom_4" data-name="Dégradé sans nom 4" x1="1074.04" y1="629.14" x2="1090.25" y2="515.46" gradientTransform="translate(0 -14)" gradientUnits="userSpaceOnUse">
      <stop offset="0" stop-color="#bd7a2b"/>
      <stop offset="1" stop-color="#e2832b" stop-opacity="0"/>
    </linearGradient>
    <linearGradient id="Dégradé_sans_nom_5" data-name="Dégradé sans nom 5" x1="1043.43" y1="624.77" x2="1059.63" y2="511.1" gradientTransform="translate(0 -14)" gradientUnits="userSpaceOnUse">
      <stop offset="0" stop-color="#bd712b"/>
      <stop offset="1" stop-color="#e2992b" stop-opacity="0"/>
    </linearGradient>
    <linearGradient id="Dégradé_sans_nom_6" data-name="Dégradé sans nom 6" x1="1077.96" y1="629.7" x2="1094.16" y2="516.02" gradientTransform="translate(0 -14)" gradientUnits="userSpaceOnUse">
      <stop offset="0" stop-color="#bd602b"/>
      <stop offset="1" stop-color="#e22b57" stop-opacity="0"/>
    </linearGradient>
    <linearGradient id="Dégradé_sans_nom_7" data-name="Dégradé sans nom 7" x1="1083.08" y1="630.43" x2="1099.29" y2="516.75" gradientTransform="translate(0 -14)" gradientUnits="userSpaceOnUse">
      <stop offset="0" stop-color="#bd712b"/>
      <stop offset="1" stop-color="#e22b57" stop-opacity="0"/>
    </linearGradient>
    <linearGradient id="Dégradé_sans_nom_8" data-name="Dégradé sans nom 8" x1="1050.64" y1="625.8" x2="1066.85" y2="512.12" gradientTransform="translate(0 -14)" gradientUnits="userSpaceOnUse">
      <stop offset="0" stop-color="#bd832b"/>
      <stop offset="1" stop-color="#e22b57" stop-opacity="0"/>
    </linearGradient>
    <linearGradient id="Dégradé_sans_nom_9" data-name="Dégradé sans nom 9" x1="1045.81" y1="625.11" x2="1062.02" y2="511.43" gradientTransform="translate(0 -14)" gradientUnits="userSpaceOnUse">
      <stop offset="0" stop-color="#bd832b"/>
      <stop offset="1" stop-color="#e22b57" stop-opacity="0"/>
    </linearGradient>
    <linearGradient id="Dégradé_sans_nom_10" data-name="Dégradé sans nom 10" x1="1052.21" y1="626.03" x2="1068.42" y2="512.35" gradientTransform="translate(0 -14)" gradientUnits="userSpaceOnUse">
      <stop offset="0" stop-color="#bd712b"/>
      <stop offset="1" stop-color="#e22b57" stop-opacity="0"/>
    </linearGradient>
    <linearGradient id="Dégradé_sans_nom_11" data-name="Dégradé sans nom 11" x1="1078.71" y1="629.8" x2="1094.92" y2="516.13" gradientTransform="translate(0 -14)" gradientUnits="userSpaceOnUse">
      <stop offset="0" stop-color="#bd602b"/>
      <stop offset="1" stop-color="#e2782b" stop-opacity="0"/>
    </linearGradient>
    <linearGradient id="Dégradé_sans_nom_12" data-name="Dégradé sans nom 12" x1="1091.72" y1="631.66" x2="1107.93" y2="517.98" gradientTransform="translate(0 -14)" gradientUnits="userSpaceOnUse">
      <stop offset="0" stop-color="#bd7a2b"/>
      <stop offset="1" stop-color="#e22b57" stop-opacity="0"/>
    </linearGradient>
    <linearGradient id="Dégradé_sans_nom_13" data-name="Dégradé sans nom 13" x1="1054.89" y1="626.41" x2="1071.1" y2="512.73" gradientTransform="translate(0 -14)" gradientUnits="userSpaceOnUse">
      <stop offset="0" stop-color="#bd832b"/>
      <stop offset="1" stop-color="#e2992b" stop-opacity="0"/>
    </linearGradient>
    <linearGradient id="Dégradé_sans_nom_14" data-name="Dégradé sans nom 14" x1="1072.24" y1="628.88" x2="1088.45" y2="515.2" gradientTransform="translate(0 -14)" gradientUnits="userSpaceOnUse">
      <stop offset="0" stop-color="#bd832b"/>
      <stop offset="1" stop-color="#e2782b" stop-opacity="0"/>
    </linearGradient>
    <linearGradient id="Dégradé_sans_nom_15" data-name="Dégradé sans nom 15" x1="1069.29" y1="628.46" x2="1085.49" y2="514.78" gradientTransform="translate(0 -14)" gradientUnits="userSpaceOnUse">
      <stop offset="0" stop-color="#bd7a2b"/>
      <stop offset="1" stop-color="#e2992b" stop-opacity="0"/>
    </linearGradient>
    <linearGradient id="Dégradé_sans_nom_16" data-name="Dégradé sans nom 16" x1="1038" y1="624" x2="1054.21" y2="510.32" gradientTransform="translate(0 -14)" gradientUnits="userSpaceOnUse">
      <stop offset="0" stop-color="#bd712b"/>
      <stop offset="1" stop-color="#e2992b" stop-opacity="0"/>
    </linearGradient>
    <linearGradient id="Dégradé_sans_nom_17" data-name="Dégradé sans nom 17" x1="1026.55" y1="622.37" x2="1042.75" y2="508.69" gradientTransform="translate(0 -14)" gradientUnits="userSpaceOnUse">
      <stop offset="0" stop-color="#bd602b"/>
      <stop offset="1" stop-color="#e2992b" stop-opacity="0"/>
    </linearGradient>
    <linearGradient id="Dégradé_sans_nom_18" data-name="Dégradé sans nom 18" x1="1032.56" y1="623.22" x2="1048.77" y2="509.55" gradientTransform="translate(0 -14)" gradientUnits="userSpaceOnUse">
      <stop offset="0" stop-color="#bd712b"/>
      <stop offset="1" stop-color="#e2a42b" stop-opacity="0"/>
    </linearGradient>
    <linearGradient id="Dégradé_sans_nom_19" data-name="Dégradé sans nom 19" x1="1071.51" y1="628.78" x2="1087.72" y2="515.1" gradientTransform="translate(0 -14)" gradientUnits="userSpaceOnUse">
      <stop offset="0" stop-color="#bd712b"/>
      <stop offset="1" stop-color="#e2832b" stop-opacity="0"/>
    </linearGradient>
    <linearGradient id="Dégradé_sans_nom_20" data-name="Dégradé sans nom 20" x1="1097.05" y1="632.42" x2="1113.25" y2="518.74" gradientTransform="translate(0 -14)" gradientUnits="userSpaceOnUse">
      <stop offset="0" stop-color="#bd712b"/>
      <stop offset="1" stop-color="#e2a42b" stop-opacity="0"/>
    </linearGradient>
    <linearGradient id="Dégradé_sans_nom_21" data-name="Dégradé sans nom 21" x1="1051.99" y1="609.65" x2="1058.68" y2="570.72" gradientTransform="translate(0 -14)" gradientUnits="userSpaceOnUse">
      <stop offset="0" stop-color="#bd712b"/>
      <stop offset="1" stop-color="#e2992b" stop-opacity="0"/>
    </linearGradient>
    <linearGradient id="Dégradé_sans_nom_22" data-name="Dégradé sans nom 22" x1="1074.77" y1="613.81" x2="1066.91" y2="582.52" gradientTransform="translate(0 -14)" gradientUnits="userSpaceOnUse">
      <stop offset="0" stop-color="#a66d2b"/>
      <stop offset="1" stop-color="#ae522b" stop-opacity="0"/>
    </linearGradient>
    <linearGradient id="Dégradé_sans_nom_24" data-name="Dégradé sans nom 24" x1="1100.38" y1="516.92" x2="1081.27" y2="543.78" gradientTransform="translate(0 -14)" gradientUnits="userSpaceOnUse">
      <stop offset="0" stop-color="#faead1"/>
      <stop offset="1" stop-color="#f9e4dd" stop-opacity="0"/>
    </linearGradient>
    <linearGradient id="Dégradé_sans_nom_25" data-name="Dégradé sans nom 25" x1="1060.55" y1="594.83" x2="1071.1" y2="557.45" gradientTransform="translate(0 -14)" gradientUnits="userSpaceOnUse">
      <stop offset="0" stop-color="#fac2b0"/>
      <stop offset="1" stop-color="#f2aa68"/>
    </linearGradient>
    <linearGradient id="Dégradé_sans_nom_26" data-name="Dégradé sans nom 26" x1="1059.83" y1="594.63" x2="1070.38" y2="557.24" gradientTransform="translate(0 -14)" gradientUnits="userSpaceOnUse">
      <stop offset="0" stop-color="#fac2b0"/>
      <stop offset="1" stop-color="#f29168"/>
    </linearGradient>
    <clipPath id="clippath-1">
      <rect class="cls-4" x="97" y="670" width="162" height="116"/>
    </clipPath>
    <radialGradient id="Dégradé_sans_nom_27" data-name="Dégradé sans nom 27" cx="-769.69" cy=".25" fx="-769.69" fy=".25" r="1" gradientTransform="translate(42352.57 714) scale(54.79 54.75)" gradientUnits="userSpaceOnUse">
      <stop offset="0" stop-color="#c7f1f6"/>
      <stop offset="1" stop-color="#d3f4f9" stop-opacity="0"/>
    </radialGradient>
    <radialGradient id="Dégradé_sans_nom_28" data-name="Dégradé sans nom 28" cx="-774.79" cy=".16" fx="-774.79" fy=".16" r="1" gradientTransform="translate(66151.52 688.44) scale(85.16 85.09)" gradientUnits="userSpaceOnUse">
      <stop offset="0" stop-color="#31e7c2"/>
      <stop offset="1" stop-color="#652fb0"/>
    </radialGradient>
    <linearGradient id="Dégradé_sans_nom_29" data-name="Dégradé sans nom 29" x1="202.68" y1="810.17" x2="166.36" y2="709.93" gradientTransform="translate(0 -14)" gradientUnits="userSpaceOnUse">
      <stop offset="0" stop-color="#4a3e9e"/>
      <stop offset="1" stop-color="#4ae09e" stop-opacity=".5"/>
    </linearGradient>
    <linearGradient id="Dégradé_sans_nom_30" data-name="Dégradé sans nom 30" x1="179.84" y1="800.53" x2="173.22" y2="724.82" gradientTransform="translate(0 -14)" gradientUnits="userSpaceOnUse">
      <stop offset="0" stop-color="#3d3789"/>
      <stop offset="1" stop-color="#3dcc5e" stop-opacity=".2"/>
    </linearGradient>
    <linearGradient id="Dégradé_sans_nom_31" data-name="Dégradé sans nom 31" x1="176.77" y1="771.55" x2="179.32" y2="725.84" gradientTransform="translate(0 -14)" gradientUnits="userSpaceOnUse">
      <stop offset="0" stop-color="#83ecec"/>
      <stop offset="1" stop-color="#8ee2d3" stop-opacity=".3"/>
    </linearGradient>
    <linearGradient id="Dégradé_sans_nom_32" data-name="Dégradé sans nom 32" x1="175.49" y1="686.32" x2="175.63" y2="713.19" gradientTransform="translate(0 -14)" gradientUnits="userSpaceOnUse">
      <stop offset="0" stop-color="#c7f1f6"/>
      <stop offset="1" stop-color="#d3f4f9" stop-opacity="0"/>
    </linearGradient>
    <clipPath id="clippath-2">
      <rect class="cls-4" x="320" y="211" width="83" height="83"/>
    </clipPath>
    <radialGradient id="Dégradé_sans_nom_33" data-name="Dégradé sans nom 33" cx="-763.59" cy=".36" fx="-763.59" fy=".36" r="1" gradientTransform="translate(29684.2 238.5) scale(38.4 38.43)" gradientUnits="userSpaceOnUse">
      <stop offset="0" stop-color="#ffb16c"/>
      <stop offset="1" stop-color="#ffa360" stop-opacity="0"/>
    </radialGradient>
    <radialGradient id="Dégradé_sans_nom_34" data-name="Dégradé sans nom 34" cx="-769.07" cy=".27" fx="-769.07" fy=".27" r="1" gradientTransform="translate(40749.35 220.38) scale(52.52 52.56)" gradientUnits="userSpaceOnUse">
      <stop offset="0" stop-color="#ffa360"/>
      <stop offset="1" stop-color="#f22749"/>
    </radialGradient>
    <linearGradient id="Dégradé_sans_nom_35" data-name="Dégradé sans nom 35" x1="355.86" y1="227.27" x2="368.64" y2="316.19" gradientTransform="translate(0 -14)" gradientUnits="userSpaceOnUse">
      <stop offset="0" stop-color="#ffbb71"/>
      <stop offset="1" stop-color="#ffbb71" stop-opacity="0"/>
    </linearGradient>
    <linearGradient id="Dégradé_sans_nom_36" data-name="Dégradé sans nom 36" x1="356.95" y1="227.11" x2="369.73" y2="316.04" gradientTransform="translate(0 -14)" gradientUnits="userSpaceOnUse">
      <stop offset="0" stop-color="#ffbb71"/>
      <stop offset="1" stop-color="#ffbb71" stop-opacity="0"/>
    </linearGradient>
    <linearGradient id="Dégradé_sans_nom_37" data-name="Dégradé sans nom 37" x1="357.19" y1="227.08" x2="369.97" y2="316" gradientTransform="translate(0 -14)" gradientUnits="userSpaceOnUse">
      <stop offset="0" stop-color="#ffbb71"/>
      <stop offset="1" stop-color="#ffbb71" stop-opacity="0"/>
    </linearGradient>
    <linearGradient id="Dégradé_sans_nom_38" data-name="Dégradé sans nom 38" x1="357.72" y1="227" x2="370.5" y2="315.93" gradientTransform="translate(0 -14)" gradientUnits="userSpaceOnUse">
      <stop offset="0" stop-color="#ffbb71"/>
      <stop offset="1" stop-color="#ffbb71" stop-opacity="0"/>
    </linearGradient>
    <linearGradient id="Dégradé_sans_nom_39" data-name="Dégradé sans nom 39" x1="363.12" y1="226.23" x2="375.9" y2="315.15" gradientTransform="translate(0 -14)" gradientUnits="userSpaceOnUse">
      <stop offset="0" stop-color="#ffbb71"/>
      <stop offset="1" stop-color="#ffbb71" stop-opacity="0"/>
    </linearGradient>
    <linearGradient id="Dégradé_sans_nom_40" data-name="Dégradé sans nom 40" x1="353.6" y1="227.59" x2="366.38" y2="316.52" gradientTransform="translate(0 -14)" gradientUnits="userSpaceOnUse">
      <stop offset="0" stop-color="#ffbb71"/>
      <stop offset="1" stop-color="#ffbb71" stop-opacity="0"/>
    </linearGradient>
    <linearGradient id="Dégradé_sans_nom_41" data-name="Dégradé sans nom 41" x1="344.41" y1="228.91" x2="357.18" y2="317.84" gradientTransform="translate(0 -14)" gradientUnits="userSpaceOnUse">
      <stop offset="0" stop-color="#ffbb71"/>
      <stop offset="1" stop-color="#ffbb71" stop-opacity="0"/>
    </linearGradient>
    <linearGradient id="Dégradé_sans_nom_42" data-name="Dégradé sans nom 42" x1="364.1" y1="226.08" x2="376.88" y2="315.01" gradientTransform="translate(0 -14)" gradientUnits="userSpaceOnUse">
      <stop offset="0" stop-color="#ffbb71"/>
      <stop offset="1" stop-color="#ffbb71" stop-opacity="0"/>
    </linearGradient>
    <linearGradient id="Dégradé_sans_nom_43" data-name="Dégradé sans nom 43" x1="357.01" y1="298" x2="363.34" y2="253.69" gradientTransform="translate(0 -14)" gradientUnits="userSpaceOnUse">
      <stop offset="0" stop-color="#d8274d"/>
      <stop offset="1" stop-color="#f22749" stop-opacity="0"/>
    </linearGradient>
    <linearGradient id="Dégradé_sans_nom_44" data-name="Dégradé sans nom 44" x1="362.71" y1="297.74" x2="360.28" y2="275.91" gradientTransform="translate(0 -14)" gradientUnits="userSpaceOnUse">
      <stop offset="0" stop-color="#a9273e"/>
      <stop offset="1" stop-color="#b62738" stop-opacity="0"/>
    </linearGradient>
    <linearGradient id="Dégradé_sans_nom_45" data-name="Dégradé sans nom 45" x1="391.37" y1="227.55" x2="367.11" y2="256.38" gradientTransform="translate(0 -14)" gradientUnits="userSpaceOnUse">
      <stop offset="0" stop-color="#ffecb8"/>
      <stop offset="1" stop-color="#ffd371" stop-opacity=".2"/>
    </linearGradient>
    <clipPath id="clippath-3">
      <rect class="cls-4" x="470" y="226" width="118" height="117"/>
    </clipPath>
    <radialGradient id="Dégradé_sans_nom_46" data-name="Dégradé sans nom 46" cx="-768.6" cy=".28" fx="-768.6" fy=".28" r="1" gradientTransform="translate(39650.99 270.5) scale(50.9 50.51)" gradientUnits="userSpaceOnUse">
      <stop offset="0" stop-color="#90dd6f"/>
      <stop offset="1" stop-color="#b8ffa9" stop-opacity="0"/>
    </radialGradient>
    <radialGradient id="Dégradé_sans_nom_47" data-name="Dégradé sans nom 47" cx="-768.83" cy=".27" fx="-768.83" fy=".27" r="1" gradientTransform="translate(40277.1 254.04) scale(51.7 51.3)" gradientUnits="userSpaceOnUse">
      <stop offset="0" stop-color="#00b3dc"/>
      <stop offset="1" stop-color="#056db0"/>
    </radialGradient>
    <linearGradient id="Dégradé_sans_nom_48" data-name="Dégradé sans nom 48" x1="501.05" y1="233.41" x2="510.67" y2="355" gradientTransform="translate(0 -14)" gradientUnits="userSpaceOnUse">
      <stop offset="0" stop-color="#f2f236"/>
      <stop offset="1" stop-color="#f2f236" stop-opacity="0"/>
    </linearGradient>
    <linearGradient id="Dégradé_sans_nom_49" data-name="Dégradé sans nom 49" x1="548.73" y1="229.63" x2="558.36" y2="351.22" gradientTransform="translate(0 -14)" gradientUnits="userSpaceOnUse">
      <stop offset="0" stop-color="#f2f236"/>
      <stop offset="1" stop-color="#f2f236" stop-opacity="0"/>
    </linearGradient>
    <linearGradient id="Dégradé_sans_nom_50" data-name="Dégradé sans nom 50" x1="552.59" y1="229.33" x2="562.21" y2="350.92" gradientTransform="translate(0 -14)" gradientUnits="userSpaceOnUse">
      <stop offset="0" stop-color="#f2f236"/>
      <stop offset="1" stop-color="#f2f236" stop-opacity="0"/>
    </linearGradient>
    <linearGradient id="Dégradé_sans_nom_51" data-name="Dégradé sans nom 51" x1="522.77" y1="231.69" x2="532.39" y2="353.28" gradientTransform="translate(0 -14)" gradientUnits="userSpaceOnUse">
      <stop offset="0" stop-color="#f2f236"/>
      <stop offset="1" stop-color="#f2f236" stop-opacity="0"/>
    </linearGradient>
    <linearGradient id="Dégradé_sans_nom_52" data-name="Dégradé sans nom 52" x1="539.28" y1="230.38" x2="548.91" y2="351.97" gradientTransform="translate(0 -14)" gradientUnits="userSpaceOnUse">
      <stop offset="0" stop-color="#f2f236"/>
      <stop offset="1" stop-color="#f2f236" stop-opacity="0"/>
    </linearGradient>
    <linearGradient id="Dégradé_sans_nom_53" data-name="Dégradé sans nom 53" x1="514.92" y1="232.31" x2="524.55" y2="353.9" gradientTransform="translate(0 -14)" gradientUnits="userSpaceOnUse">
      <stop offset="0" stop-color="#f2f236"/>
      <stop offset="1" stop-color="#f2f236" stop-opacity="0"/>
    </linearGradient>
    <linearGradient id="Dégradé_sans_nom_54" data-name="Dégradé sans nom 54" x1="522.56" y1="353.32" x2="528.86" y2="295.5" gradientTransform="translate(0 -14)" gradientUnits="userSpaceOnUse">
      <stop offset="0" stop-color="#00acd8"/>
      <stop offset="1" stop-color="#0983bd"/>
    </linearGradient>
    <linearGradient id="Dégradé_sans_nom_55" data-name="Dégradé sans nom 55" x1="526.85" y1="350.83" x2="533.88" y2="290.4" gradientTransform="translate(0 -14)" gradientUnits="userSpaceOnUse">
      <stop offset="0" stop-color="#056eb1"/>
      <stop offset="1" stop-color="#00a9d7" stop-opacity=".3"/>
    </linearGradient>
    <linearGradient id="Dégradé_sans_nom_56" data-name="Dégradé sans nom 56" x1="559.62" y1="232.91" x2="533.14" y2="285.53" gradientTransform="translate(0 -14)" gradientUnits="userSpaceOnUse">
      <stop offset="0" stop-color="#e2ffb5"/>
      <stop offset="1" stop-color="#ffffb3" stop-opacity="0"/>
    </linearGradient>
    <clipPath id="clippath-4">
      <rect class="cls-4" x="609" y="413" width="91" height="91"/>
    </clipPath>
    <radialGradient id="Dégradé_sans_nom_57" data-name="Dégradé sans nom 57" cx="-765.38" cy=".33" fx="-765.38" fy=".33" r="1" gradientTransform="translate(32878.23 444.5) scale(42.1 42.13)" gradientUnits="userSpaceOnUse">
      <stop offset="0" stop-color="#ffd86c"/>
      <stop offset="1" stop-color="#ffd160" stop-opacity="0"/>
    </radialGradient>
    <radialGradient id="Dégradé_sans_nom_58" data-name="Dégradé sans nom 58" cx="-769.39" cy=".26" fx="-769.39" fy=".26" r="1" gradientTransform="translate(41948.9 425.79) scale(53.67 53.71)" gradientUnits="userSpaceOnUse">
      <stop offset="0" stop-color="#ffe46a"/>
      <stop offset="1" stop-color="#ffa44a"/>
    </radialGradient>
    <linearGradient id="Dégradé_sans_nom_59" data-name="Dégradé sans nom 59" x1="624.44" y1="491" x2="686.62" y2="461.93" gradientTransform="translate(0 -14)" gradientUnits="userSpaceOnUse">
      <stop offset="0" stop-color="#e27437"/>
      <stop offset="1" stop-color="#e27437" stop-opacity=".2"/>
    </linearGradient>
    <linearGradient id="Dégradé_sans_nom_60" data-name="Dégradé sans nom 60" x1="647.74" y1="523.29" x2="647.4" y2="436.12" gradientTransform="translate(0 -14)" gradientUnits="userSpaceOnUse">
      <stop offset="0" stop-color="#cc622e"/>
      <stop offset="1" stop-color="#cc622e" stop-opacity=".2"/>
    </linearGradient>
    <linearGradient id="Dégradé_sans_nom_61" data-name="Dégradé sans nom 61" x1="685.73" y1="437.19" x2="664.32" y2="460.88" gradientTransform="translate(0 -14)" gradientUnits="userSpaceOnUse">
      <stop offset="0" stop-color="#fff2b6"/>
      <stop offset="1" stop-color="#fff49a" stop-opacity=".2"/>
    </linearGradient>
  </defs>
  <circle id="Circle5" class="cls-70" cx="532" cy="532" r="531.5"/>
  <path id="Circle4" class="cls-70" d="M929.5,529c0,230-180,416.5-402,416.5S125.5,759,125.5,529,305.5,112.5,527.5,112.5s402,186.5,402,416.5Z"/>
  <path id="Circle3" class="cls-70" d="M842.5,525.5c0,178.4-142.6,323-318.5,323s-318.5-144.6-318.5-323,142.6-323,318.5-323,318.5,144.6,318.5,323Z"/>
  <path id="Circle2" class="cls-70" d="M771.5,527c0,136.1-109,246.5-243.5,246.5s-243.5-110.4-243.5-246.5,109-246.5,243.5-246.5,243.5,110.4,243.5,246.5Z"/>
  <path id="Circle1" class="cls-70" d="M665.5,516c0,78.7-63.1,142.5-141,142.5s-141-63.8-141-142.5,63.1-142.5,141-142.5,141,63.8,141,142.5Z"/>
  <g id="Jupiter">
    <g class="cls-69">
      <g>
        <path class="cls-5" d="M1120.9,553.8c0-1.9-.1-3.8-.3-5.6-1.5-14.6-8.4-26.7-18.2-35.3-9.1-8.1-20.9-13.2-34-13.8-11.7-.6-23.8,2.5-34.6,10.2,0,0-.1,0-.1.1h-.1c-9.1,6.6-15.5,15.2-19.2,24.7-18.1.4-30.2,3.7-31.4,9.8-1.2,6.5,10.2,14.6,28.9,22,0,.1.1.2.1.3v.1c.1.5.2,1,.3,1.4v.2c.1.5.3.9.4,1.4v.1c.3,1,.6,1.9.9,2.9v.1c.1.4.3.8.5,1.2,3.5,9.4,9.7,17.9,18.4,24.5.2.2.5.3.7.5.2.1.3.2.4.3.4.3.8.6,1.3.9,10.7,7.2,22.7,10,34.1,9.2,2.1-.1,4.2-.4,6.3-.7,5.3-.9,10.4-2.7,15.1-5,.5-.2,1-.5,1.5-.8.1,0,.2-.1.2-.1.5-.3.9-.5,1.4-.8,0,0,.1,0,.1-.1.5-.3.9-.6,1.4-.8,0,0,.1,0,.1-.1.5-.3.9-.6,1.4-.9h.1l.1-.1c.3-.2.6-.4.9-.6q.1-.1.2-.2c.3-.2.6-.4.9-.6.1,0,.1-.1.2-.1.7-.5,1.3-1,2-1.6.1-.1.2-.2.3-.2.2-.2.4-.4.6-.6.1-.1.2-.2.4-.3.2-.2.4-.3.6-.5.1-.1.2-.2.4-.4h0q.1-.1.2-.2c2.8-2.6,5.4-5.5,7.7-8.7,21.7.4,36.6-3,37.9-9.8,1.3-6.6-9.8-14.6-28.1-22ZM1012.9,538.6h0c.1-.2.1-.4.2-.6-.1.2-.2.4-.2.6ZM1011.3,545.6v.1c-.1.5-.1.9-.2,1.4v.2c-.1.5-.1.9-.2,1.4v.1c0,.5-.1.9-.1,1.4v.3c0,.5-.1.9-.1,1.4v.9c-8.5-3.6-13.3-7-12.8-9.7.5-2.6,6-4,14.9-4.2-.6,2.2-1.1,4.4-1.5,6.7ZM1120.7,559c9.7,3.9,15.3,7.7,14.8,10.5-.5,2.9-7.4,4.3-18.2,4.3,1.8-4.6,2.9-9.6,3.4-14.8ZM989.6,543.8c1.1-5.8,13.4-7.5,24.1-7.8-.2.4-.3.9-.4,1.3-13.5.5-21.7,2.9-22.4,6.8-.8,4,6.5,9.6,20,15.3,0,0,.1,0,.1.1h0v.5c0,.3.1.6.1.9-.3-.1-.5-.2-.8-.3-10.1-4.3-21.9-10.7-20.7-16.8ZM1145.1,573.6c-1.2,6.1-14.5,7.6-25.5,7.9h-6c.2-.4.5-.9.7-1.3h5.3c14.6-.3,23.4-2.8,24.2-6.8.8-4-6.5-9.6-20-15.3-1-.4-2-.8-3.1-1.3v-.2c0-.4,0-.8.1-1.2,1.2.5,2.4,1,3.5,1.4,10.2,4.4,22,10.7,20.8,16.8Z"/>
        <path class="cls-17" d="M1109.7,554c0,35.3-39.6,55.7-68.3,36.4-25.4-17-26.1-54.1-1.2-72h.1c28.6-20.5,69.4-.4,69.4,35.6Z"/>
        <path class="cls-18" d="M1047.2,554c.3,2.6-8.8,0-14.5,0-3.8,0-7.8.7-10.9-.3,0-4.2.6-8.2,1.8-12,1.5-.2,4.1.2,8.1,3.3,7,5.4,15.3,6.4,15.5,9Z"/>
        <path class="cls-15" d="M1077.4,559.4c-6.5-.5-13.7-2.3-15-1s10.4,4.6,21.2,6.4c11.9,2.1,19.4,2.8,16.8-.5-2.6-3.4-6.7-7.5-13.2-5.4-6.4,2.1-6.1.8-9.8.5Z"/>
        <path class="cls-16" d="M1076.9,577.5c0,2.8-25.6-4.6-34.1-1.3-6.4,2.5-8.4,4.3-12.3,4-4.5-6.1-7.5-13.4-8.4-21.4,2.2.8,6.1,2.5,12.1,5.6,11.2,5.6,42.7,9.2,42.7,13.1Z"/>
        <path class="cls-13" d="M1097.1,584.8c-3.3,3.4-7.2,6.2-11.5,8.4-1.2-1-2.3-2.2-4-2.8-4.4-1.5-16-4.4-13.7-5.9s9.8-.5,18.6-1c5.3-.4,8.7.5,10.6,1.3Z"/>
        <path class="cls-14" d="M1093.5,577.7c-3.1-3.3-11.9-2.6-10.6.5.7,1.7,14.7,3.9,10.6-.5Z"/>
        <path class="cls-11" d="M1056,582.4c-3.8-.9-6.4.8-7,2.1-.5,1.3,10.6,3.1,10.8,1.8.4-1.4-1.5-3.4-3.8-3.9Z"/>
        <path class="cls-12" d="M1054.5,560.2c-2.6-.6-7.2.5-7.2,2.1s6.2,3.4,8.8,2.6c2.5-.8,3.5-3.4-1.6-4.7Z"/>
        <path class="cls-55" d="M1058.9,565.1c-.8-.1-1.8.8-1.3,1.5.5.8,4.4-1,1.3-1.5Z"/>
        <path class="cls-51" d="M1084.9,572.3c-1.6-.5-2.8.3-2.1,1.8.9,1.6,7.3-.3,2.1-1.8Z"/>
        <path class="cls-48" d="M1097.1,580.3c-.9-.9-1.5.8-1,1.3s3.1.8,1-1.3Z"/>
        <path class="cls-54" d="M1073.6,597.1c-2.5.4-5.1.7-7.7.7-9,0-17.4-2.7-24.4-7.4,5.2-1.5,13.8-.3,22.4,3.8,3.9,1.9,7.2,2.7,9.7,2.9Z"/>
        <path class="cls-46" d="M1075.4,592.4c-1.3,0-1.3.8-1.3,1.5,0,.8,1.3,1,2.1,0,.7-1,.2-1.5-.8-1.5Z"/>
        <path class="cls-47" d="M1072,593.2c-.5-.1-.8,1.3,0,1.5.8.3,1.6-1.3,0-1.5Z"/>
        <path class="cls-52" d="M1042.6,579c-1.8.4-4.4,1.6-2.1,3.1s7.3-4.1,2.1-3.1Z"/>
        <path class="cls-53" d="M1034.1,557.6c-.9-.9-1.6,1.5-1,1.8.4.3,2-.8,1-1.8Z"/>
        <path class="cls-50" d="M1041.6,542.9c-2.3-1.1-5.4-2.1-5.9-1-.5,1,9.3,8,11.6,6.4,2.3-1.5-3.7-4.3-5.7-5.4Z"/>
        <path class="cls-49" d="M1079.5,554c-1.6-.8-1.6,2.8.8,3.9,2.3,1,.3-3.4-.8-3.9Z"/>
        <path class="cls-63" d="M1104.8,558.4c-3.1-.1-2.1,4.9,0,5.4,2.1.5,5.5-5.2,0-5.4Z"/>
        <path class="cls-10" d="M1090.5,590.2c-1.6,1.1-3.2,2-4.9,2.9-3.7,1.9-7.8,3.2-12,4-2.5.4-5.1.7-7.7.7-9,0-17.5-2.7-24.4-7.4-4.2-2.8-7.8-6.3-10.8-10.3-.6-.9-1.3-1.8-1.8-2.7-3.5-5.5-5.8-11.9-6.5-18.7-.2-1.5-.2-3.1-.2-4.7v-.3c0-3.4.5-6.8,1.2-10,5.5,14.5,16,31,35.9,39.9,2.5,1.1,5.1,2.1,7.9,2.9,8.1,2.7,16,3.7,23.3,3.7Z"/>
        <path class="cls-3" d="M1107.2,568.6c-2.2,6.1-5.7,11.6-10.1,16.2-2,2-4.2,3.9-6.6,5.5-1.6,1.1-3.2,2-4.9,2.9-3.7,1.9-7.8,3.2-12,4-2.5.4-5.1.7-7.7.7-9,0-17.5-2.7-24.4-7.4-4.2-2.8-7.8-6.3-10.8-10.3-.6-.9-1.3-1.8-1.8-2.7,11.2,3.9,21.3,5.8,30.4,6.2,21.9,1,37.6-6.8,47.9-15.1Z"/>
        <path class="cls-62" d="M1109.4,559.3c.2-1.9,1.8-23.7-24.6-38.2-26.3-14.5-43-3.9-44.5-2.8,7.2-5.1,16-8.2,25.5-8.2,26.4.1,46.8,23.2,43.6,49.2Z"/>
        <path class="cls-68" d="M1112.1,557.3c-.8-.3-1.6-.7-2.4-1,0,.6-.1,1.1-.1,1.7,7.8,3.1,12.2,6.1,11.8,8.4-.4,2.3-5.9,3.4-14.6,3.4-10.4,0-25.5-1.6-42-4.8-17.8-3.4-33.3-7.8-42.9-11.9-6.8-2.9-10.6-5.6-10.2-7.7.4-2,4.8-3.2,11.9-3.4,0-.1.1-.2.1-.3.1-.3.2-.7.3-1-10.8.4-17.3,2.3-17.9,5.4-.6,3.2,5.2,7.6,15.9,12.2h.1c11.1,4.7,26.2,9,42.5,12.1,14.5,2.8,28.4,4.3,39.8,4.5h4.3c11.6-.3,18.7-2.2,19.3-5.4.7-3.3-5.2-7.7-15.9-12.2Z"/>
        <path class="cls-67" d="M1109.7,553.9v1.3c1,.4,1.9.8,2.8,1.1,8,3.4,17.4,8.5,16.5,13.3s-11.6,6.1-20.3,6.3h-4.9c-11.3-.2-25.1-1.7-39.4-4.5-16.1-3.1-31.1-7.3-42.2-11.9-.2-.1-.4-.2-.6-.3-8-3.4-17.5-8.5-16.5-13.3.9-4.6,10.7-6,19.2-6.2.2-.5.4-1,.6-1.6-14.5.3-24.1,2.9-25,7.8-1,5.2,8.1,11.7,23,17.6,10.8,4.3,24.7,8.2,40,11.2,14.3,2.7,27.8,4.2,39,4.4,17.4.3,29.2-2.4,30.3-7.8,1-5.2-7.9-11.6-22.5-17.4Z"/>
      </g>
    </g>
  </g>
  <g id="Uranus">
    <g class="cls-71">
      <g>
        <path class="cls-66" d="M240.1,727c11.5-7,17.8-13.7,16.4-18.6-1.5-5.2-11.6-7.4-26.7-6.7,0,.1.1.2.1.2-9.7-19.3-29.5-32-51.9-32-25.5,0-47.4,16.5-55.1,39.7,0-.1.1-.3.1-.4-31.2,2.9-35.3,14.4-7.2,26.5-11.5,7-17.8,13.7-16.4,18.6,1.7,5.7,13.4,7.7,30.6,6.5,6.1,8.9,14.5,15.8,24.1,20.1,7.3,3.3,15.3,5.1,23.8,5.1,22.4,0,42.3-12.7,52-32.2,1-.2,27.6-1.4,28.9-10.7.9-5-6.3-10.8-18.7-16.1ZM230.4,703c12.3-.6,20.3.9,21.5,4.8,1.9,6.4-15.2,15.4-16,15.9-.5-7.5-2.5-14.7-5.7-21.1.1.2.1.3.2.4ZM122.6,710.6c.1-.5-2.7,7.3-2.7,17.4,0,1.6.1,2.9.2,4.2h0c-25.4-9.8-25-19.2,2.5-21.6ZM103.1,751.4c-1.1-3.8,4.3-9.1,14.3-15,1.8.7,3,1.2,3.4,1.4,1.1,6.5,3.3,12.7,6.4,18.3-.7,0-22.1,2-24.1-4.7ZM255,740.6c-1,6.9-22,7.9-22.7,8,2.4-6.3,3.6-12.8,3.8-19.2.8-.4,1.5-.9,2.7-1.6,10.6,4.4,16.8,8.9,16.2,12.8Z"/>
        <path class="cls-32" d="M226.3,728c0,1.7-.1,3.3-.3,5-.2,1.6-.4,3.2-.7,4.8-.8,3.8-2,7.4-3.6,10.8-1.6,3.5-3.7,6.8-6.1,9.7-2.4,3-5.3,5.8-8.4,8.1-4.2,3.2-9,5.8-14.1,7.5-4.8,1.6-9.8,2.4-15.1,2.4-7.1,0-13.7-1.5-19.8-4.2-6.2-2.8-11.6-6.8-16.1-11.7-7.2-7.9-11.7-18.3-12.3-29.6-.1-.9-.1-1.8-.1-2.7,0-4.3.5-8.4,1.6-12.3.8-2.9,1.8-5.8,3.1-8.5,7.8-16.3,24.4-27.5,43.6-27.5,16,0,30.1,7.7,38.9,19.6,1.4,1.9,2.7,4,3.8,6.1,3.1,5.9,5,12.5,5.5,19.5.1.9.1,2,.1,3Z"/>
        <path class="cls-23" d="M157.4,752.9h-.2c-1.7.3-2-2-1.4-4,.4-1.5,1.4-3,2.3-3,.3,0,.6.1.8.4,3.1,3.7.3,6.2-1.5,6.6Z"/>
        <path class="cls-22" d="M158.2,772c-6.2-2.8-11.6-6.8-16.1-11.7.8-.3,1.7-.5,2.8-.5h1c8.5.6,8.8,6,11.1,8.8.5.6.8,1.2,1,1.7.3.7.3,1.3.2,1.7Z"/>
        <g class="cls-76">
          <path class="cls-22" d="M168.6,767.7c-4-3.7-8.5-5-8.3-7.9,0-.2,0-.4.1-.6.9-3.4,9.4-.5,13.1,0,4.5.6,8.5.6,9.4,6.5.8,6-10,6-14.3,2Z"/>
          <path class="cls-22" d="M195.3,757.5c-3.3,1-7.2.2-8.1-1.8-.1-.2-.2-.5-.2-.8,0-2.6,6-2.8,8.2-4.5,2.1-1.7,4.1-2.9,5.5-3,1.3-.1,2.2.6,2.7,2.4,1.3,4.3-4.4,6.6-8.1,7.7Z"/>
          <path class="cls-22" d="M214.4,724.6c-1.8,1-4,1.9-4.5.3-.2-.7-.1-1.7.5-3.4,1.5-4.3,5.7-6.4,8.2-5.5.8.2,1.4.8,1.7,1.6,2,4.4-3.4,5.6-5.9,7Z"/>
          <path class="cls-22" d="M149.7,741.6q-.1,0,0,0c-5.4,2.9-12.6-3.6-12-6.2.1-.4.2-.8.4-1,.8-1.2,2.7-.3,7,.1,5,.6,7.6,5.4,4.6,7.1Z"/>
          <path class="cls-22" d="M137.6,726.3c-.2.1-.4.2-.6.3-1.8.6-2.4-2.5-3.1-4.8-.7-2.2,0-2.9.9-2.7.2,0,.4.1.5.2,2.9,1.3,4.6,5.6,2.3,7Z"/>
          <path class="cls-22" d="M207.3,766.4c-4.2,3.2-9,5.8-14.1,7.5-.2-.2-.4-.5-.6-.7-.6-1-.8-2.3.2-4,2.4-3.8,5.1-2.6,9.1-3.4,1.5-.3,2.6-.3,3.6-.1.7.1,1.3.4,1.8.7Z"/>
          <path class="cls-22" d="M225.3,737.8c-1.6,7.6-5,14.6-9.7,20.5-.6-.3-1.1-.7-1.5-1.3h0c-2.8-4,1.4-7.7,3.1-14.8,1-4.3,3.9-5,6.1-4.8.8.1,1.6.2,2,.4Z"/>
          <path class="cls-22" d="M226.3,728c0,1.7-.1,3.3-.3,5-.5-.1-1.1-.2-1.4-.7-.1-.2-.2-.4-.3-.6-.6-2-2.6-1.2-2-3.1.6-1.9,1.7-2.8,2.6-3.2.5-.3,1-.4,1.3-.4.1.9.1,2,.1,3Z"/>
          <path class="cls-22" d="M181.4,751.3h0c-.6,2.5-6.4,1.7-8,1.1-1.7-.6-5.7-3.3-4.5-6,.4-1,1-1.3,1.7-1.2,1.8.1,4.3,2.5,6,3,3.1.7,5.2,1.1,4.8,3.1Z"/>
          <path class="cls-22" d="M143.1,750.1c-.2.3-.4.6-.7.8-1.2.9-3.1.1-4.7-1.3-1.4-1.2-1.9-3.2-1.3-3.7.3-.2.8-.2,1.6.3,2.5,1.7,6.2,2,5.1,3.9Z"/>
          <path class="cls-22" d="M206.6,748.4c-.9.8-2,0-2.6-.9-.2-.3-.3-.7-.4-1-.2-1.3.2-1.7,2.1-.8.8.4,1.3.8,1.5,1.1.3.5.1,1-.6,1.6Z"/>
          <path class="cls-22" d="M207.3,737.9s-.1,0,0,0c-1-2,2-2.3,3.1-3.7,1-1.2,3-3,4.1-1.9.2.2.3.4.4.8,1.5,4.3-6.5,6.8-7.6,4.8Z"/>
          <path class="cls-22" d="M186,769.2c-.5-.1-1.3-.5-1.6-2.1,0-.1-.1-.3-.1-.5-.3-2-.3-4.3.9-4.3.6,0,.6,2,2.6,4,.2.2.3.5.4.7.1,1.1-1.1,2.4-2.2,2.2Z"/>
          <path class="cls-22" d="M193.3,743c-.5-.1-1-.2-1.4-.5-2.8-1.6.4-7.6,3.2-5.3.1.1.2.1.2.2,3.9,3.8.8,6-2,5.6Z"/>
          <path class="cls-22" d="M157.4,752.9c-.3-.4-.6-.8-.8-1.4-.5-1.6.9-4.4,1.5-5.5.3,0,.6.1.8.4,3.1,3.6.3,6.1-1.5,6.5Z"/>
        </g>
        <g class="cls-75">
          <path class="cls-23" d="M161.8,750.1c-.6,0-.8,2.3-.3,2.6.6.3,2.6-2.6.3-2.6Z"/>
          <path class="cls-23" d="M217.7,709.7c-2.5-.2-2.2,2.7.1,3.4,2.3.5,4.2-3-.1-3.4Z"/>
          <path class="cls-23" d="M205,758.9c-1.5,0-1.4,1.1,0,2.3s5.4-2.3,0-2.3Z"/>
          <path class="cls-23" d="M141.1,726.6c-1.9.8-.6,2.3.8,2.8,1.4.6,2-4-.8-2.8Z"/>
          <path class="cls-23" d="M135.9,712.4c-1.2.2-.6,2,1.1,2.3,1.8.2,1.8-2.9-1.1-2.3Z"/>
          <path class="cls-23" d="M217.5,705c-1.4.3.3,3.1,1.4,2,1.2-1.2,0-2.3-1.4-2Z"/>
          <path class="cls-23" d="M168.1,739.9c-1.3.7.3,3.1,2.3,2.6,1.9-.6.2-4-2.3-2.6Z"/>
        </g>
        <path class="cls-23" d="M188,767c.2,1.1-.9,2.4-2.1,2.1-.5-.1-1.3-.5-1.6-2.1,1.5.9,2.8.5,3.7,0Z"/>
        <path class="cls-23" d="M134,721.7c-.7-2.2,0-2.9.9-2.7-.9,2,1.2,5.8,2.3,7.5-1.9.6-2.5-2.4-3.2-4.8Z"/>
        <path class="cls-23" d="M142.4,750.9c-1.2.9-3.1.1-4.7-1.3-1.4-1.2-1.9-3.2-1.3-3.7.6,3,4,4.4,6,5Z"/>
        <path class="cls-23" d="M149.7,741.6q-.1,0,0,0c-5.4,2.9-12.6-3.6-12-6.2.1-.4.2-.8.4-1,.8,1.1,2.1,2.4,4.2,4.1,3.1,2.6,5.7,3.1,7.4,3.1Z"/>
        <path class="cls-23" d="M168.9,746.5c.4-1,1-1.3,1.7-1.2-1,1.4-1.4,3.1.8,4.9,3.4,2.8,7.7,1.9,9.9,1.2-.6,2.5-6.4,1.6-8,1.1-1.6-.7-5.5-3.3-4.4-6Z"/>
        <path class="cls-23" d="M182.8,765.8c.9,6-9.9,6-14.2,2-4-3.7-8.5-5-8.3-7.9,2.7,1.6,7.2,5,12.3,8.2,7.4,4.5,10.2-2.3,10.2-2.3Z"/>
        <path class="cls-23" d="M193.3,743c2.5-.6,2.2-4,1.8-5.8.1.1.2.1.2.2,3.9,3.8.8,6-2,5.6Z"/>
        <path class="cls-23" d="M203.6,749.9c1.1,4.3-4.5,6.5-8.2,7.7-3.3,1-7.2.2-8.1-1.8.9.5,2.2,1,3.5,1.2,2.6.3,8.5-.8,10.5-4.8,1.2-2.3.4-3.8-.4-4.7,1.2-.2,2.2.5,2.7,2.4Z"/>
        <path class="cls-23" d="M207.3,746.8c.3.5.1,1-.6,1.6-.9.8-2,0-2.6-.9,1.3.6,2.5-.1,3.2-.7Z"/>
        <path class="cls-23" d="M214.9,733.1c1.4,4.3-6.5,6.8-7.7,4.8,0,0,0-.1-.1-.1,6.2-.5,7.3-3.4,7.3-5.5.3.2.4.5.5.8Z"/>
        <path class="cls-23" d="M214.4,724.6c-1.8,1-4,1.9-4.5.3,2.1-1.9,7-2.4,9.3-4.3,1.9-1.5.5-3.5-.6-4.7.8.2,1.4.8,1.7,1.6,2,4.5-3.4,5.7-5.9,7.1Z"/>
        <path class="cls-23" d="M158,770.3c.3.7.3,1.3.2,1.7-6.2-2.8-11.6-6.8-16.1-11.7.8-.3,1.7-.5,2.8-.5,1.1,1.5,2.6,3.2,4.7,5.4,2,2.1,4.9,3.8,8.4,5.1Z"/>
        <path class="cls-23" d="M205.4,765.6c.8.1,1.4.4,1.8.8-4.2,3.2-9,5.8-14.1,7.5-.2-.2-.4-.4-.6-.7,5.4-2,10.5-5.6,12.9-7.6Z"/>
        <path class="cls-23" d="M225.3,737.8c-1.6,7.6-5,14.6-9.7,20.5-.6-.3-1.1-.7-1.5-1.3,5.7-5.1,8.5-16.4,9.2-19.6.8.1,1.6.2,2,.4Z"/>
        <path class="cls-23" d="M226.3,728c0,1.7-.1,3.3-.3,5-.5-.1-1.1-.2-1.4-.7,1.4-1.7.8-5.2.3-7,.5-.3,1-.4,1.3-.4.1,1,.1,2.1.1,3.1Z"/>
        <path class="cls-19" d="M226.3,728c0,1.7-.1,3.3-.3,5-.2,1.6-.4,3.2-.7,4.8-1.6,7.6-5,14.6-9.7,20.5-2.4,3-5.3,5.8-8.4,8.1-4.2,3.2-9,5.8-14.1,7.5-4.8,1.6-9.8,2.4-15.1,2.4-7.1,0-13.7-1.5-19.8-4.2-6.2-2.8-11.6-6.8-16.1-11.7-7.2-7.9-11.7-18.3-12.3-29.6,13.4,40.9,95.5,34.1,91-25.2,3.1,5.9,5,12.5,5.5,19.5,0,.8,0,1.9,0,2.9Z"/>
        <path class="cls-1" d="M221.7,748.5c-1.6,3.5-3.7,6.8-6.1,9.7-2.4,3-5.3,5.8-8.4,8.1-4.2,3.2-9,5.8-14.1,7.5-4.8,1.6-9.8,2.4-15.1,2.4-7.1,0-13.7-1.5-19.8-4.2-6.2-2.8-11.6-6.8-16.1-11.7-7.2-7.9-11.7-18.3-12.3-29.6-.1-.9-.1-1.8-.1-2.7,0-4.3.5-8.4,1.6-12.3,9.8,20.2,36.6,58.6,90.4,32.8Z"/>
        <path class="cls-33" d="M229.7,727.2c-1.1-.5-2.2-.9-3.4-1.4-.5-.2-.9-.4-1.4-.5-.4.2-.9.5-1.3.7,1,.3,1.9.7,2.8,1,.8.3,1.5.6,2.3.9,8.9,3.6,14,7.4,13.5,10.7-.5,3.6-7.7,5.8-18.9,6.7-8.9.7-20.3.4-33-.8-3.7-.4-7.4-.8-11.3-1.3-.8-.1-1.7-.2-2.6-.4-17.4-2.5-32.9-6.2-44.1-10.2-.5-.2-.9-.3-1.4-.5-.3-.1-.7-.3-1-.4-10.1-3.9-15.9-8-15.4-11.4s7.1-5.6,17.5-6.5c.1-.4.2-.7.4-1.1-12.7,1.2-21,4.2-21.6,8.7-.6,4.2,5.4,8.9,15.7,13.4.4.2.8.3,1.2.5.9.4,1.9.8,2.9,1.1,9.9,3.8,22.9,7.2,37.5,9.8,2.5.4,5.1.9,7.8,1.2,1.2.2,2.4.3,3.6.5,15.9,2.1,30.6,2.6,42.1,1.8,14.1-1,23.4-4.1,24.1-8.9.3-4.4-5.7-9.2-16-13.6Z"/>
        <path class="cls-36" d="M216.9,699.4c-5-4.7-17.4-16.8-42.7-14.4-22.9,2.2-35.1,15.6-39.8,22.2,7.8-16.3,24.4-27.5,43.6-27.5,16,0,30.1,7.8,38.9,19.7Z"/>
      </g>
    </g>
  </g>
  <g id="Mars">
    <g class="cls-74">
      <g>
        <path class="cls-34" d="M357.5,211.2c-32.2,3-49.5,41.4-28.2,67.5,9.8,12.1,26.3,18.1,42.5,14,8.7-2.2,16.2-7.2,21.5-13.7,23.4-28.1,1.4-71.3-35.8-67.8Z"/>
        <path class="cls-38" d="M393.6,252.5c0,.9,0,1.9-.1,2.8s-.2,1.7-.3,2.6c-.1.8-.3,1.6-.5,2.4-.6,2.3-1.4,4.6-2.5,6.6-.3.7-.7,1.3-1.1,2-.7,1.2-1.5,2.3-2.4,3.4-.4.6-.9,1.1-1.4,1.6-3,3.4-6.8,6.1-11,7.9-.3.1-.6.3-.9.4-.9.4-1.9.7-2.9,1-.7.2-1.4.4-2.1.5-2.2.5-4.5.7-6.9.7-9.1,0-17.3-3.8-23.1-9.9-.7-.7-1.4-1.5-2-2.3-1.3-1.6-2.4-3.3-3.3-5.1-.2-.5-.5-.9-.7-1.4-.8-1.7-1.4-3.6-1.9-5.4-.7-2.5-1-5.2-1-8,0-1.7.1-3.3.4-5,.1-.6.2-1.2.3-1.8.1-.7.3-1.4.5-2,.3-1.2.8-2.4,1.3-3.6.9-2.1,2-4.1,3.3-5.9.8-1.1,1.6-2.2,2.6-3.2,1.7-1.9,3.7-3.6,5.8-5.1.1,0,.1-.1.2-.1,1.4-1,2.9-1.8,4.5-2.5,3.1-1.4,6.5-2.3,10.1-2.7,1-.1,2-.1,3.1-.1,3.1,0,6.1.4,8.9,1.2,1.2.3,2.4.8,3.5,1.2.4.2.8.4,1.3.6,1.7.8,3.4,1.8,4.9,2.9,1.7,1.2,3.2,2.5,4.6,4,2.7,2.9,4.9,6.2,6.4,9.9.2.5.4.9.5,1.4.5,1.5,1,3.1,1.3,4.7.4,2.1.6,4.2.6,6.3Z"/>
        <path class="cls-35" d="M393.6,252.5c0,2.7-.3,5.3-1,7.8-16-6.9-43.5,5.8-62.2.1-.7-2.5-1-5.2-1-8,0-1.7.1-3.4.4-5,32.7,11.6,44.6-4.5,63.2-1.2.4,2.1.6,4.2.6,6.3Z"/>
        <path class="cls-39" d="M391.7,241.7c-17.4-2.9-37.7,9.1-61,2,.3-1.2.8-2.4,1.3-3.6,18.9,7.4,41.7-2,59.2.2.1.4.3.9.5,1.4Z"/>
        <path class="cls-37" d="M384.7,230.4c-18.3,11.3-41.5,6.1-49.5,3.8.8-1.1,1.6-2.2,2.6-3.2,22.9,5.8,37.2-1.2,42.3-4.6,1.7,1.1,3.2,2.5,4.6,4Z"/>
        <path class="cls-40" d="M375.2,223.5c-7.7,5-18.1,1.7-31.6,2.4,1.5-1,3.1-1.9,4.7-2.6,8.1.4,19.6,3.1,25.6-.3.4.1.8.3,1.3.5Z"/>
        <path class="cls-41" d="M370.4,221.7c-2.2,1.1-6.2,2-12-1.1,1-.1,2-.1,3.1-.1,3.1-.1,6.1.3,8.9,1.2Z"/>
        <path class="cls-31" d="M390.1,267c-.3.7-.7,1.3-1.1,2-13.8-6.2-39.2.7-56-1.6-.2-.5-.5-.9-.7-1.4,22.1,2.6,45.9-6.3,57.8,1Z"/>
        <path class="cls-28" d="M370.5,283.3c-.7.2-1.4.4-2.1.5-5.9-1-24.2-11.3-30-9.1-.7-.7-1.4-1.5-2-2.3,12.8-.1,26.4,10.3,34.1,10.9Z"/>
        <path class="cls-29" d="M385.3,274c-3,3.4-6.8,6.1-11,7.9-6-1.8-9.5-5.4-11.6-6.4-3.1-1.5-4-2.7,7.9-3.6,6-.4,11.1.8,14.7,2.1Z"/>
        <path class="cls-6" d="M393.1,257.9c-2.1,12.7-11.9,23.2-24.7,26-22.9,5-43.1-15.4-38.2-38.2,2.7,5,8.6,10.4,21.4,12.4,19.5,3,32.2-2.4,41.5-.2Z"/>
        <path class="cls-2" d="M386.2,273c-.3.3-.6.7-.8,1-3,3.4-6.8,6.1-11,7.9-.3.1-.6.3-.9.4-.9.4-1.9.7-2.9,1-.7.2-1.4.4-2.1.5-2.2.5-4.5.7-6.9.7-9.1,0-17.3-3.8-23.1-9.9-.6-.6-1.2-1.3-1.7-1.9,5.3,2,12.9,2.4,24-.4,9.6-2.3,18.1-1.6,25.4.7Z"/>
        <path class="cls-44" d="M393.6,252.5c0,.9,0,1.9-.1,2.8-.1-7.2-2.6-15.9-11.4-23.4-16.8-14.5-33.9-8.1-38.3-6.1,1.4-1,2.9-1.8,4.5-2.5,3.1-1.4,6.5-2.3,10.1-2.7,1-.1,2-.1,3.1-.1,3.1,0,6.1.4,8.9,1.2,1.2.3,2.4.8,3.5,1.2.4.2.8.4,1.3.6,1.7.8,3.4,1.8,4.9,2.9,1.7,1.2,3.2,2.5,4.6,4,2.7,2.9,4.9,6.2,6.4,9.9.2.5.4.9.5,1.4.5,1.5,1,3.1,1.3,4.7.5,1.9.7,4,.7,6.1Z"/>
      </g>
    </g>
  </g>
  <g id="Earth">
    <g class="cls-73">
      <g>
        <path class="cls-42" d="M523.4,226.3c-45.7,4.3-70.3,58.3-40,95.2,14,17.1,37.4,25.6,60.4,19.7,12.3-3.2,23-10.2,30.6-19.3,33.1-39.6,1.9-100.6-51-95.6Z"/>
        <path class="cls-43" d="M528.9,326.9c-16.1,0-30.1-8.8-37.3-21.9-16-28.8,6.1-63.7,38.3-62.7,20.5.4,37.8,15.4,41.1,35.3,4.3,25.7-15.7,49.3-42.1,49.3Z"/>
        <g class="cls-76">
          <path class="cls-24" d="M545.9,291.4c-1.8-.4-2.3,1.7-1.3,2.2s3.5,2,4,1c.5-.9-.7-2.7-2.7-3.2Z"/>
          <path class="cls-24" d="M563.4,273c-1.7.4-3.8,1.2-2,2.5,1.8,1.2,4.5.7,4.8-.7.2-1.5.5-2.5-2.8-1.8Z"/>
          <path class="cls-24" d="M529.1,313.1c-3.7-2.2-9-3-9.5-.7-.5,2.2,3,5.7,7.3,5.2,4.2-.6,4.7-3.1,2.2-4.5Z"/>
          <path class="cls-24" d="M541,325.1c-3.3,1-6.8,1.6-10.4,1.7.8-5.2,5.8-3.5,8.4-2.8.9.2,1.5.6,2,1.1Z"/>
          <path class="cls-24" d="M505.8,312.8c1.6.7,2.8-2.7.5-5.7s-3.3-6.7-6-7.5c-2.8-.7-4.3,9,5.5,13.2Z"/>
          <path class="cls-24" d="M494.7,300.6c-.9.2-1.3,2,.8,2.2,2,.3,2-2.7-.8-2.2Z"/>
          <path class="cls-24" d="M517,290.4c-1.8-.2-3.5.7-3.3,2.7s3,0,4.3,0c1.3.1,1.8-2.4-1-2.7Z"/>
          <path class="cls-24" d="M534.3,267.3c-1.5-.7-1.8,2.5-.5,3s4.8-1,.5-3Z"/>
        </g>
        <path class="cls-45" d="M518.3,283.5c-8.5,1.5-9.8,1.7-17.5,8.2-5.1,4.3-10.5,2.9-13.5,1.5-.6-2.8-.9-5.6-.9-8.6,0-12,5.1-22.9,13.2-30.6,1.7,1,3.4,2.3,4.7,4.1,3.8,5,3,7,14,12.7,11,5.7,8.5,11.2,0,12.7Z"/>
        <path class="cls-30" d="M567.4,266.5c-7.9-1.6-13.2,7.2-18.6,6.5-6.3-.7-4.5-9.9-9.8-19.6-2.6-4.9-2.8-8.2-2.4-10.4,13.7,2.5,25.1,11.4,30.8,23.5Z"/>
        <path class="cls-61" d="M571.5,284.6c0,16.4-9.4,30.6-23.2,37.6-3.1-4.9,2-8.6,8-12.4,7.5-4.7.5-6.7,1.8-14.4,1.3-7.7-3.5-8.2-1.3-14.7,1.6-4.6,10-.2,14.6,2.6.1.5.1.9.1,1.3Z"/>
        <path class="cls-59" d="M531.6,297.4c-4.6,1.4-7-4-12.8-2.7-5.8,1.2-10.5,11.4-2.8,11.2,7.8-.2,9.8-1.2,15.5,2.7,5.8,4,12.5,1.2,14.5-5,2.1-6.2.8-10.9-14.4-6.2Z"/>
        <path class="cls-58" d="M541.1,278.7c-2.4.8-3,2-2.3,3.5.8,1.5,3.8,1.2,5.3,3.5,1.5,2.2,5.3,5,6.3,0,1-5-3.8-8.7-9.3-7Z"/>
        <path class="cls-27" d="M532.3,265.8c-.4,3.3-3.5,0-8.5-1s-7-4-4.8-6c2.3-2,5.3-3.5,8.3-1.7,3,1.7,5.5,5,5,8.7Z"/>
        <path class="cls-60" d="M527.1,246.2c-6.3,0-9.3,3.5-15,5.5-3.4,1.2-6.2-.2-7.8-1.5,7-4.9,15.5-7.8,24.7-7.8h.9c.4,1.7.3,3.8-2.8,3.8Z"/>
        <path class="cls-9" d="M569.5,297.5c-3.5,10.7-11.2,19.6-21.1,24.7-2.3,1.2-4.8,2.2-7.3,2.9-3.3,1-6.8,1.6-10.4,1.7h-1.7c-16.1,0-30.1-8.8-37.3-21.9-2-3.6-3.5-7.6-4.4-11.8-.6-2.8-.9-5.6-.9-8.6,0-5.1.9-10,2.6-14.5,4.8,14.3,15.8,32.7,40.9,36.1,4.9.7,9.5.8,13.7.4,10.4-.8,19-4.5,25.9-9Z"/>
        <path class="cls-8" d="M571.5,284.6c0,4.5-.7,8.9-2,12.9-3.5,10.7-11.2,19.6-21.1,24.7-2.3,1.2-4.8,2.2-7.3,2.9-3.3,1-6.8,1.6-10.4,1.7h-1.7c-16.1,0-30.1-8.8-37.3-21.9,7.4,3,16.1,5.1,26.5,5.5,10.1.4,18.5-1.1,25.4-3.9,14.9-5.9,23.2-17.2,27.7-26.5.1,1.1.2,2.2.2,3.3,0,.5,0,.9,0,1.3Z"/>
        <path class="cls-64" d="M571,277.7s-6.1-22-34-29.3c-16.7-4.4-28.3-.4-34.9,3.4,21.1-17.1,53.4-10.3,65.3,14.7,2.8,5.8,3.4,10.4,3.6,11.2Z"/>
      </g>
    </g>
  </g>
  <g id="Mercury">
    <g class="cls-72">
      <g>
        <path class="cls-57" d="M650.2,413.2c-35.3,3.3-54.2,45.3-30.9,74,10.8,13.3,28.8,19.9,46.6,15.3,9.5-2.5,17.7-7.9,23.6-15,25.6-30.7,1.5-78.2-39.3-74.3Z"/>
        <path class="cls-65" d="M689.6,458.4c0,2.1-.2,4.1-.5,6-.2,1.1-.4,2.1-.7,3.1-1.5,5.6-4.3,10.6-8.2,14.8-1.4,1.5-2.9,2.9-4.5,4.1-1.5,1.1-3.1,2.2-4.8,3.1-2.3,1.2-4.7,2.2-7.2,2.9-3,.8-6.1,1.2-9.3,1.2-1.5,0-2.9-.1-4.3-.3-11.9-1.5-22-8.9-27.1-19.2-2-4-3.3-8.5-3.6-13.2-.1-.8-.1-1.7-.1-2.5,0-5.3,1.2-10.3,3.3-14.8,1.9-4,4.5-7.6,7.7-10.7,2.9-2.8,6.4-5.1,10.1-6.7,4.3-1.9,9.1-2.9,14-2.9,15.2,0,28.1,9.6,33,23.1,1.2,3.4,2,6.9,2.1,10.7.1.4.1.8.1,1.3Z"/>
        <path class="cls-21" d="M623,474.1c-.2-.5-.5-1-.7-1.5-1.6-3.6-2.6-7.5-2.9-11.6v-.1c.7-.1,1.7.2,2.4,2.2,1,2.7,5.2,9,1.2,11Z"/>
        <path class="cls-21" d="M650.6,468.1c0,.3-.1.6-.3.8-1.1,2-5,3-9.4,2.2-3.8-.7-6.8-2.4-7.8-4.4-.3-.6-.4-1.2-.3-1.7.4-2.5,4.7-3.1,9.6-2.3,5,.9,8.7,2.9,8.2,5.4Z"/>
        <path class="cls-21" d="M640.2,451.4h0c-1,1.5-4,.1-7.5-2.2-2.9-1.9-4.9-3.8-5.1-5.2,0-.3,0-.6.2-.9,1-1.5,4.8-1.6,8.4.7,3.5,2.3,5,6.1,4,7.6Z"/>
        <path class="cls-21" d="M679.2,473c-2.8,2.4-6.3,3-7.6,1.4-.1-.1-.1-.2-.2-.3-1-1.7.2-4.7,2.9-7s6-2.9,7.5-1.5q.1.1.2.2c1.2,1.6,0,4.9-2.8,7.2Z"/>
        <path class="cls-21" d="M658.6,453.5c-2.9,2.3-5.8,3.5-7.5,1.4-.2-.2-.3-.4-.4-.6-1.1-2.1,0-5.3,2.6-7.3,2.9-2.3,6.8-3.4,9.5,0v.1c1.6,2.1-1.3,4.2-4.2,6.4Z"/>
        <path class="cls-21" d="M647.1,485.4c-.4.4-1.2.6-2.5.6-4.8-.2-9.9-6-8.5-7.9,0,0,0-.1.1-.1,1.5-1.7,5.2,1.4,7.2,2.4,3.1,1.6,4.8,3.9,3.7,5Z"/>
        <path class="cls-21" d="M665.8,481.1c0,1.1-1.5,2.3-3.8,2.4-4.3.2-6.7-.6-7.3-2.2-.1-.2-.1-.3-.1-.5-.2-1.9,3.7-1.5,5.8-1.7,3.8-.2,5.4.9,5.4,2Z"/>
        <path class="cls-21" d="M678.8,456.4c-.5.7-1.4,1.2-2.6,1.2-3.7,0-8.7-2.7-8.1-5.2.1-.3.2-.5.3-.7,1-1.5,3.4-.8,5.7-.3,4.7,1,5.7,3.5,4.7,5Z"/>
        <path class="cls-21" d="M666.7,438.1c0-.1-.1-.2-.1-.4-.1-1.1.9-2.6,3-3.2,1.3-.4,3.1-.3,4.2.4.5.3.8.7,1,1.3.3,1.5-7.4,3.6-8.1,1.9Z"/>
        <path class="cls-21" d="M645.5,434.8c-.3.2-.6.1-.9-.2-2.3-2.3-2.5-6-1.2-6.6.5-.2.9-.3,1.3-.3,2.4.3,2.1,6.3.8,7.1Z"/>
        <path class="cls-21" d="M684.5,447.9c-.2.1-.4.1-.6,0-.9-.2-2-1.6-2.3-3.6-.2-1.2.4-2.3,1.2-2.7.8-.4,1.9.2,2.4,2.7.1,1.5.1,3.1-.7,3.6Z"/>
        <path class="cls-21" d="M680.3,482.3c-2.7,2.9-5.8,5.3-9.3,7.2-.4-.2-.7-.5-.9-.9-.1-.4-.1-.8.3-1.4,1.4-2.3,2.9-5.8,6.2-6,1-.1,1.7.1,2.3.3.6.2,1.1.5,1.4.8Z"/>
        <path class="cls-21" d="M663.8,492.4c-3,.8-6.1,1.2-9.3,1.2-1.5,0-2.9-.1-4.3-.3,0-.4.1-.9.3-1.2.2-.4.7-.7,1.3-.8,2.5-.4,3.7-2.1,7.2-1.9,1.8.1,3.1,1,3.9,1.8.4.5.7.9.9,1.2Z"/>
        <path class="cls-21" d="M659.3,428.3c-.2.9-1.7,1.2-2.4.9-.2-.1-.3-.2-.3-.3-.4-.8,2.3-2.4,2.7-1v.4Z"/>
        <path class="cls-26" d="M648.5,474.8c-.9-.5-1.7-.8-1.4,1,.2,1.9,1.7,2.3,2.9,2.3,1.2,0-.7-2.9-1.5-3.3Z"/>
        <path class="cls-26" d="M631.3,473.5c-.8-.2-.8,1.2-1.4,2.7-.6,1.4.2,2.5,1.4,2.5,1.3,0,1.7-4.8,0-5.2Z"/>
        <path class="cls-26" d="M627.6,454.9c-.8-.4-1.7-.8-1.9,0s1.7,3.1,2.7,3.1c1.1,0,1.5-2.1-.8-3.1Z"/>
        <path class="cls-26" d="M689.6,458.4c0,2.1-.2,4.1-.5,6-.3-.1-.6-.3-.9-.6-2.1-2.1-.5-5,0-6,.6-1.1,1.1-1,1.4-.8v1.4Z"/>
        <path class="cls-26" d="M668.4,460.7c-1.2-.1-1.9.8,0,1.7,1.8.8,1.6-1.5,0-1.7Z"/>
        <path class="cls-26" d="M623.9,451.4c-.6.3-.6,1.4.8,1.2,1.5-.2.4-1.8-.8-1.2Z"/>
        <path class="cls-26" d="M653.3,436.9c-.6.2-1.4.8,0,1s.6-1.2,0-1Z"/>
        <path class="cls-26" d="M656.8,436.9c-.8-.4-.8,1.7-.2,2.5.6.8,2.7-1.1.2-2.5Z"/>
        <path class="cls-26" d="M663.4,485.9c-.4.1-.6.8.6,1.2,1.3.5,1.3-1.6-.6-1.2Z"/>
        <path class="cls-26" d="M645.4,489.5c-.6.2-1.2.6,0,1,1.2.4.6-1.3,0-1Z"/>
        <path class="cls-26" d="M646.4,459c-1,.1,1.2,1.4,1.9,1.7.6.2,2.5-1.9-1.9-1.7Z"/>
        <path class="cls-26" d="M680.3,453.7c-.5.4.4,2.7,1.2,2.5.9-.3.7-4-1.2-2.5Z"/>
        <path class="cls-21" d="M663.7,468.2c-.1.4-.2.7-.3,1-.6,1.6-4.2,2.2-5.1,1.5l-.1-.1c-.8-.8,0-2.9.4-3.9.6-1.4,3.7-2.5,4.8-2.1.8.4.7,2.1.3,3.6Z"/>
        <path class="cls-25" d="M627.6,444c0-.3,0-.6.2-.9,1-1.5,4.8-1.6,8.4.7s5,6.1,4,7.5h0c.1-.9-.3-2.2-1.6-3.9-3.5-4.5-9.7-6.1-11-3.4Z"/>
        <path class="cls-25" d="M650.6,468.1c0,.3-.1.6-.3.8-.1-.4-.8-3.1-4.3-4.3-3.6-1.2-8.5-2.3-11.4,0-.9.7-1.3,1.5-1.4,2.2-.3-.6-.4-1.2-.3-1.7.4-2.5,4.7-3.1,9.6-2.3,4.9.8,8.6,2.8,8.1,5.3Z"/>
        <path class="cls-25" d="M656.4,446.4c-3.8,1.3-5.5,5.1-5.6,7.9-1.1-2.1,0-5.3,2.6-7.3,2.9-2.3,6.8-3.4,9.5,0v.1c-1.2-.9-3.3-1.8-6.5-.7Z"/>
        <path class="cls-25" d="M663.7,468.2c0-1.5-.4-3.2-2-2.7s-3.4,3.4-3.4,5.2l-.1-.1c-.8-.8,0-2.9.4-3.9.6-1.4,3.7-2.5,4.8-2.1.8.4.7,2.1.3,3.6Z"/>
        <path class="cls-25" d="M678.8,456.4c.5-2.7-3.9-3.6-6.1-4.4-2.2-.8-3.6-.5-4.2-.3,1-1.5,3.4-.8,5.7-.3,4.6,1,5.6,3.5,4.6,5Z"/>
        <path class="cls-25" d="M666.7,438.1c0-.1-.1-.2-.1-.4,1.3.9,4.6.2,6.5-.7,1.3-.6,1.1-1.5.7-2.1.5.3.8.7,1,1.3.3,1.5-7.4,3.6-8.1,1.9Z"/>
        <path class="cls-25" d="M645.5,434.8c-.3.2-.6.1-.9-.2-2.3-2.3-2.5-6-1.2-6.6.5-.2.9-.3,1.3-.3-.5.1-1.3.5-1.3,2.4-.1,2.1.9,3.8,2.1,4.7Z"/>
        <path class="cls-25" d="M659.3,428.3c-.1-.4-.3-.7-1.3-.5-.7.2-1,.8-1.1,1.3-.2-.1-.3-.2-.3-.3-.4-.8,2.3-2.4,2.7-1,0,.2,0,.3,0,.5Z"/>
        <path class="cls-25" d="M647.1,485.4c-.2-1.1-1.2-2.2-3-3.2-2.3-1.2-3.9-2.5-5.4-3.5-.8-.5-1.8-.7-2.6-.7,1.5-1.7,5.2,1.4,7.2,2.4,3.2,1.6,4.9,3.9,3.8,5Z"/>
        <path class="cls-25" d="M665.8,481.1c-.3-.8-1.3-1.2-3-1.2h-5.8c-2.2,0-2.4,1.3-2.4,1.3-.1-.2-.1-.3-.1-.5-.2-1.9,3.7-1.5,5.8-1.7,3.9-.1,5.5,1,5.5,2.1Z"/>
        <path class="cls-25" d="M662.9,491.3c.4.4.7.8.8,1.1-3,.8-6.1,1.2-9.3,1.2-1.5,0-2.9-.1-4.3-.3,0-.4.1-.9.3-1.2,7,1.6,10.9.1,12.5-.8Z"/>
        <path class="cls-25" d="M680.3,482.3c-2.7,2.9-5.8,5.3-9.3,7.2-.4-.2-.7-.5-.9-.9,5.8-2.2,8.3-6.1,8.8-7.1.6.2,1.1.5,1.4.8Z"/>
        <path class="cls-25" d="M681.7,465.6c-.5-.2-3.8-1.1-7.6,3.3-1.9,2.2-2.6,4-2.8,5.2-1-1.7.2-4.7,2.9-7,2.8-2.2,6.1-2.9,7.5-1.5Z"/>
        <path class="cls-25" d="M683.9,447.9c-.9-.2-2-1.6-2.3-3.6-.2-1.2.4-2.3,1.2-2.7-.3.4-.6,1.1-.5,2,.1,1.6.6,3.1,1.6,4.3Z"/>
        <path class="cls-25" d="M623,474.1c-.2-.5-.5-1-.7-1.5,1-.9,2-2.5.7-5.1-1.5-3.2-2.3-6-3.6-6.5v-.1c.7-.1,1.7.2,2.4,2.2,1,2.7,5.2,9,1.2,11Z"/>
        <path class="cls-20" d="M689.6,458.4c0,2.1-.2,4.1-.5,6-1.2,6.8-4.3,13-8.8,17.9-2.7,2.9-5.8,5.3-9.3,7.2-2.3,1.2-4.7,2.2-7.2,2.9-3,.8-6.1,1.2-9.3,1.2-1.5,0-2.9-.1-4.3-.3-11.9-1.5-22-8.9-27.1-19.2-2-4-3.3-8.5-3.6-13.2-.1-.8-.1-1.7-.1-2.5,0-5.3,1.2-10.3,3.3-14.9.3,30.5,63.2,38.1,64.9,2.7,1.2,3.4,2,6.9,2.1,10.7-.1.6-.1,1-.1,1.5Z"/>
        <path class="cls-7" d="M675.8,486.4c-1.5,1.1-3.1,2.2-4.8,3.1-2.3,1.2-4.7,2.2-7.2,2.9-3,.8-6.1,1.2-9.3,1.2-1.5,0-2.9-.1-4.3-.3-11.9-1.5-22-8.9-27.1-19.2-2-4-3.3-8.5-3.6-13.2-.1-.8-.1-1.7-.1-2.5,0-5.3,1.2-10.3,3.3-14.8,1.9-4,4.5-7.6,7.7-10.7-9.9,46.8,26.2,53.3,45.4,53.5Z"/>
        <path class="cls-56" d="M689.6,458.4c0,2.1-.2,4.1-.5,6-.2,1.1-.4,2.1-.7,3.1-1.2-28.3-20.4-44.4-48-41.4,4.3-1.9,9.1-2.9,14-2.9,15.2,0,28.1,9.6,33,23.1,1.2,3.4,2,6.9,2.1,10.7.1.5.1.9.1,1.4Z"/>
      </g>
    </g>
  </g>
</svg>