<svg width="1440" height="900" viewBox="0 0 1440 900" fill="none" xmlns="http://www.w3.org/2000/svg">
<rect width="1440" height="900" fill="black"/>
<circle cx="80.6433" cy="408.643" r="0.643284" fill="white" fill-opacity="0.6"/>
<circle cx="569.817" cy="368.817" r="0.81688" fill="white" fill-opacity="0.5"/>
<circle cx="773.839" cy="114.839" r="0.838772" fill="white" fill-opacity="0.4"/>
<circle cx="143.864" cy="65.8641" r="0.864051" fill="white" fill-opacity="0.5"/>
<circle cx="1192.68" cy="264.675" r="0.675026" fill="white" fill-opacity="0.4"/>
<circle cx="740.611" cy="572.611" r="0.61128" fill="white" fill-opacity="0.4"/>
<circle cx="1064.78" cy="278.778" r="0.777928" fill="white" fill-opacity="0.6"/>
<circle cx="1087.97" cy="315.969" r="0.969356" fill="white" fill-opacity="0.6"/>
<circle cx="566.994" cy="776.994" r="0.993599" fill="white" fill-opacity="0.5"/>
<circle cx="881.972" cy="431.972" r="0.972328" fill="white" fill-opacity="0.5"/>
<circle cx="886.603" cy="111.603" r="0.603211" fill="white" fill-opacity="0.4"/>
<circle cx="741.978" cy="451.978" r="0.977607" fill="white" fill-opacity="0.3"/>
<circle cx="291.713" cy="337.713" r="0.712659" fill="white" fill-opacity="0.6"/>
<circle cx="1392.99" cy="526.991" r="0.991342" fill="white" fill-opacity="0.4"/>
<circle cx="1261.57" cy="499.572" r="0.572219" fill="white" fill-opacity="0.3"/>
<circle cx="706.962" cy="343.962" r="0.962223" fill="white" fill-opacity="0.6"/>
<circle cx="208.552" cy="187.552" r="0.552121" fill="white" fill-opacity="0.5"/>
<circle cx="1290.63" cy="323.632" r="0.631753" fill="white" fill-opacity="0.6"/>
<circle cx="494.596" cy="64.5958" r="0.595827" fill="white" fill-opacity="0.5"/>
<circle cx="44.7254" cy="537.725" r="0.725406" fill="white" fill-opacity="0.5"/>
<circle cx="677.642" cy="813.642" r="0.642202" fill="white" fill-opacity="0.4"/>
<circle cx="977.938" cy="326.938" r="0.938276" fill="white" fill-opacity="0.5"/>
<circle cx="1118.73" cy="108.725" r="0.72504" fill="white" fill-opacity="0.4"/>
<circle cx="1364.62" cy="720.621" r="0.620924" fill="white" fill-opacity="0.6"/>
<circle cx="1002.98" cy="511.976" r="0.976259" fill="white" fill-opacity="0.5"/>
<circle cx="1248.95" cy="309.951" r="0.950523" fill="white" fill-opacity="0.6"/>
<circle cx="1155.8" cy="285.805" r="0.804974" fill="white" fill-opacity="0.5"/>
<circle cx="1199.53" cy="218.534" r="0.534015" fill="white" fill-opacity="0.6"/>
<circle cx="238.993" cy="418.993" r="0.993128" fill="white" fill-opacity="0.3"/>
<circle cx="1082.53" cy="146.525" r="0.524964" fill="white" fill-opacity="0.4"/>
<circle cx="1058.79" cy="804.786" r="0.786124" fill="white" fill-opacity="0.6"/>
<circle cx="1374.59" cy="849.59" r="0.590314" fill="white" fill-opacity="0.4"/>
<circle cx="1359.54" cy="86.54" r="0.539967" fill="white" fill-opacity="0.6"/>
<circle cx="889.929" cy="385.929" r="0.929026" fill="white" fill-opacity="0.5"/>
<circle cx="1219.92" cy="115.921" r="0.92117" fill="white" fill-opacity="0.3"/>
<circle cx="472.645" cy="508.645" r="0.644621" fill="white" fill-opacity="0.3"/>
<circle cx="1399.9" cy="407.898" r="0.898154" fill="white" fill-opacity="0.5"/>
<circle cx="1040.65" cy="268.654" r="0.654243" fill="white" fill-opacity="0.6"/>
<circle cx="1288.62" cy="691.622" r="0.621963" fill="white" fill-opacity="0.3"/>
<circle cx="382.535" cy="10.5351" r="0.535062" fill="white" fill-opacity="0.4"/>
<circle cx="1326.82" cy="389.818" r="0.81811" fill="white" fill-opacity="0.5"/>
<circle cx="884.555" cy="435.555" r="0.554723" fill="white" fill-opacity="0.6"/>
<circle cx="447.619" cy="299.619" r="0.619381" fill="white" fill-opacity="0.6"/>
<circle cx="1402.97" cy="672.97" r="0.969601" fill="white" fill-opacity="0.3"/>
<circle cx="1076.96" cy="435.965" r="0.965014" fill="white" fill-opacity="0.4"/>
<circle cx="1207.98" cy="42.9795" r="0.979503" fill="white" fill-opacity="0.5"/>
<circle cx="353.633" cy="54.6329" r="0.632916" fill="white" fill-opacity="0.5"/>
<circle cx="248.892" cy="757.892" r="0.891735" fill="white" fill-opacity="0.3"/>
<circle cx="919.795" cy="553.795" r="0.79523" fill="white" fill-opacity="0.4"/>
<circle cx="1427.58" cy="425.577" r="0.576944" fill="white" fill-opacity="0.6"/>
<circle cx="1356.7" cy="873.702" r="0.702156" fill="white" fill-opacity="0.5"/>
<circle cx="388.509" cy="219.509" r="0.509086" fill="white" fill-opacity="0.5"/>
<circle cx="173.888" cy="857.888" r="0.888059" fill="white" fill-opacity="0.6"/>
<circle cx="1216.96" cy="758.965" r="0.96489" fill="white" fill-opacity="0.3"/>
<circle cx="801.609" cy="39.6087" r="0.608692" fill="white" fill-opacity="0.4"/>
<circle cx="939.61" cy="825.61" r="0.609731" fill="white" fill-opacity="0.6"/>
<circle cx="793.838" cy="6.83837" r="0.838365" fill="white" fill-opacity="0.6"/>
<circle cx="1251.87" cy="648.874" r="0.87418" fill="white" fill-opacity="0.3"/>
<circle cx="995.764" cy="345.764" r="0.763639" fill="white" fill-opacity="0.5"/>
<circle cx="1224.61" cy="741.61" r="0.610127" fill="white" fill-opacity="0.5"/>
<circle cx="1147.71" cy="750.706" r="0.705583" fill="white" fill-opacity="0.6"/>
<circle cx="42.8756" cy="521.876" r="0.875588" fill="white" fill-opacity="0.4"/>
<circle cx="18.6115" cy="641.611" r="0.611473" fill="white" fill-opacity="0.5"/>
<circle cx="695.551" cy="559.551" r="0.55062" fill="white" fill-opacity="0.4"/>
<circle cx="963.664" cy="629.664" r="0.66383" fill="white" fill-opacity="0.6"/>
<circle cx="189.985" cy="875.984" r="0.984522" fill="white" fill-opacity="0.3"/>
<circle cx="580.683" cy="740.683" r="0.682801" fill="white" fill-opacity="0.5"/>
<circle cx="903.883" cy="845.883" r="0.882546" fill="white" fill-opacity="0.4"/>
<circle cx="1057.65" cy="614.647" r="0.647437" fill="white" fill-opacity="0.4"/>
<circle cx="1171.87" cy="278.867" r="0.866635" fill="white" fill-opacity="0.5"/>
<circle cx="736.723" cy="744.723" r="0.722751" fill="white" fill-opacity="0.5"/>
<circle cx="975.593" cy="408.593" r="0.59272" fill="white" fill-opacity="0.4"/>
<circle cx="684.928" cy="349.928" r="0.928284" fill="white" fill-opacity="0.5"/>
<circle cx="1034.84" cy="377.835" r="0.835113" fill="white" fill-opacity="0.4"/>
<circle cx="1097.9" cy="396.903" r="0.903414" fill="white" fill-opacity="0.5"/>
<circle cx="286.781" cy="848.781" r="0.781089" fill="white" fill-opacity="0.6"/>
<circle cx="1257.56" cy="9.56221" r="0.562212" fill="white" fill-opacity="0.4"/>
<circle cx="122.539" cy="396.539" r="0.539392" fill="white" fill-opacity="0.5"/>
<circle cx="71.9498" cy="170.95" r="0.949825" fill="white" fill-opacity="0.6"/>
<circle cx="1055.62" cy="738.616" r="0.616149" fill="white" fill-opacity="0.6"/>
<circle cx="756.617" cy="695.617" r="0.617115" fill="white" fill-opacity="0.6"/>
<circle cx="988.945" cy="537.945" r="0.944684" fill="white" fill-opacity="0.6"/>
<circle cx="189.788" cy="483.788" r="0.787649" fill="white" fill-opacity="0.5"/>
<circle cx="1170.74" cy="425.737" r="0.736587" fill="white" fill-opacity="0.6"/>
<circle cx="42.562" cy="652.562" r="0.562015" fill="white" fill-opacity="0.4"/>
<circle cx="816.861" cy="488.861" r="0.861146" fill="white" fill-opacity="0.3"/>
<circle cx="1435.7" cy="859.702" r="0.702296" fill="white" fill-opacity="0.3"/>
<circle cx="1237.76" cy="535.763" r="0.763387" fill="white" fill-opacity="0.4"/>
<circle cx="1189.69" cy="806.694" r="0.693595" fill="white" fill-opacity="0.6"/>
<circle cx="950.981" cy="714.981" r="0.980816" fill="white" fill-opacity="0.5"/>
<circle cx="1213.66" cy="123.657" r="0.657249" fill="white" fill-opacity="0.5"/>
<circle cx="1344.5" cy="849.504" r="0.503714" fill="white" fill-opacity="0.5"/>
<circle cx="694.707" cy="351.707" r="0.70746" fill="white" fill-opacity="0.4"/>
<circle cx="189.524" cy="264.524" r="0.523638" fill="white" fill-opacity="0.5"/>
<circle cx="236.979" cy="142.979" r="0.979275" fill="white" fill-opacity="0.5"/>
<circle cx="973.982" cy="528.982" r="0.98185" fill="white" fill-opacity="0.3"/>
<circle cx="1047.84" cy="859.837" r="0.837041" fill="white" fill-opacity="0.5"/>
<circle cx="1194.83" cy="149.834" r="0.833716" fill="white" fill-opacity="0.3"/>
<circle cx="585.552" cy="12.5519" r="0.551925" fill="white" fill-opacity="0.4"/>
<circle cx="564.916" cy="163.916" r="0.915556" fill="white" fill-opacity="0.6"/>
<circle cx="699.545" cy="390.545" r="0.545362" fill="white" fill-opacity="0.3"/>
<circle cx="1368.83" cy="764.828" r="0.828117" fill="white" fill-opacity="0.6"/>
<circle cx="1397.87" cy="700.872" r="0.872512" fill="white" fill-opacity="0.4"/>
<circle cx="593.624" cy="320.624" r="0.624221" fill="white" fill-opacity="0.4"/>
<circle cx="1393.54" cy="700.539" r="0.538749" fill="white" fill-opacity="0.4"/>
<circle cx="1220.59" cy="19.5872" r="0.587191" fill="white" fill-opacity="0.6"/>
<circle cx="1319.62" cy="551.621" r="0.621463" fill="white" fill-opacity="0.4"/>
<circle cx="523.975" cy="29.9746" r="0.974611" fill="white" fill-opacity="0.3"/>
<circle cx="253.608" cy="387.608" r="0.60797" fill="white" fill-opacity="0.4"/>
<circle cx="779.986" cy="542.986" r="0.985778" fill="white" fill-opacity="0.5"/>
<circle cx="582.885" cy="731.885" r="0.884616" fill="white" fill-opacity="0.4"/>
<circle cx="781.958" cy="303.958" r="0.958177" fill="white" fill-opacity="0.4"/>
<circle cx="856.713" cy="538.713" r="0.712505" fill="white" fill-opacity="0.4"/>
<circle cx="688.532" cy="368.532" r="0.532349" fill="white" fill-opacity="0.3"/>
<circle cx="1168.69" cy="532.69" r="0.690012" fill="white" fill-opacity="0.5"/>
<circle cx="681.8" cy="826.8" r="0.800183" fill="white" fill-opacity="0.4"/>
<circle cx="149.799" cy="625.799" r="0.799296" fill="white" fill-opacity="0.5"/>
<circle cx="1223.84" cy="405.837" r="0.837334" fill="white" fill-opacity="0.5"/>
<circle cx="1420.68" cy="631.678" r="0.6777" fill="white" fill-opacity="0.5"/>
<circle cx="282.7" cy="540.7" r="0.700461" fill="white" fill-opacity="0.5"/>
<circle cx="1142.84" cy="540.842" r="0.841723" fill="white" fill-opacity="0.3"/>
<circle cx="41.6568" cy="513.657" r="0.656759" fill="white" fill-opacity="0.6"/>
<circle cx="1212.6" cy="807.604" r="0.604224" fill="white" fill-opacity="0.5"/>
<circle cx="1067.76" cy="171.76" r="0.75967" fill="white" fill-opacity="0.5"/>
<circle cx="1081.92" cy="28.9225" r="0.922459" fill="white" fill-opacity="0.3"/>
<circle cx="1406.55" cy="363.551" r="0.550852" fill="white" fill-opacity="0.3"/>
<circle cx="762.971" cy="423.971" r="0.970827" fill="white" fill-opacity="0.4"/>
<circle cx="549.934" cy="527.934" r="0.933656" fill="white" fill-opacity="0.5"/>
<circle cx="739.649" cy="733.649" r="0.649368" fill="white" fill-opacity="0.4"/>
<circle cx="1199.69" cy="454.694" r="0.693593" fill="white" fill-opacity="0.4"/>
<circle cx="492.665" cy="449.665" r="0.664649" fill="white" fill-opacity="0.6"/>
<circle cx="950.71" cy="746.71" r="0.710438" fill="white" fill-opacity="0.3"/>
<circle cx="672.915" cy="542.915" r="0.915236" fill="white" fill-opacity="0.5"/>
<circle cx="880.939" cy="896.939" r="0.939276" fill="white" fill-opacity="0.5"/>
<circle cx="399.876" cy="63.8764" r="0.876382" fill="white" fill-opacity="0.3"/>
<circle cx="1407.75" cy="91.7548" r="0.754834" fill="white" fill-opacity="0.5"/>
<circle cx="164.5" cy="521.5" r="0.500221" fill="white" fill-opacity="0.4"/>
<circle cx="351.555" cy="508.555" r="0.554984" fill="white" fill-opacity="0.6"/>
<circle cx="1334.57" cy="198.573" r="0.572807" fill="white" fill-opacity="0.6"/>
<circle cx="965.536" cy="401.536" r="0.53584" fill="white" fill-opacity="0.5"/>
<circle cx="308.77" cy="148.77" r="0.769526" fill="white" fill-opacity="0.6"/>
<circle cx="1204.59" cy="517.585" r="0.585154" fill="white" fill-opacity="0.4"/>
<circle cx="1000.52" cy="421.524" r="0.523712" fill="white" fill-opacity="0.4"/>
<circle cx="1309.59" cy="205.59" r="0.590008" fill="white" fill-opacity="0.4"/>
<circle cx="1027.5" cy="428.501" r="0.500838" fill="white" fill-opacity="0.6"/>
<circle cx="583.569" cy="805.569" r="0.568588" fill="white" fill-opacity="0.4"/>
<circle cx="656.857" cy="133.857" r="0.857207" fill="white" fill-opacity="0.3"/>
<circle cx="1053.94" cy="345.937" r="0.936964" fill="white" fill-opacity="0.3"/>
<circle cx="738.803" cy="12.8028" r="0.802768" fill="white" fill-opacity="0.6"/>
<circle cx="620.544" cy="871.544" r="0.544402" fill="white" fill-opacity="0.6"/>
<circle cx="766.808" cy="585.808" r="0.808435" fill="white" fill-opacity="0.3"/>
<circle cx="869.707" cy="71.7068" r="0.706769" fill="white" fill-opacity="0.6"/>
<circle cx="355.674" cy="770.674" r="0.673614" fill="white" fill-opacity="0.4"/>
<circle cx="661.745" cy="638.745" r="0.744888" fill="white" fill-opacity="0.6"/>
<circle cx="991.607" cy="189.607" r="0.60719" fill="white" fill-opacity="0.4"/>
<circle cx="868.555" cy="622.555" r="0.554607" fill="white" fill-opacity="0.6"/>
<circle cx="1081.93" cy="37.9336" r="0.933614" fill="white" fill-opacity="0.5"/>
<circle cx="306.944" cy="279.944" r="0.944373" fill="white" fill-opacity="0.6"/>
<circle cx="1209.61" cy="798.609" r="0.609281" fill="white" fill-opacity="0.4"/>
<circle cx="744.763" cy="470.763" r="0.762565" fill="white" fill-opacity="0.6"/>
<circle cx="63.752" cy="78.752" r="0.751993" fill="white" fill-opacity="0.4"/>
<circle cx="758.633" cy="281.633" r="0.632853" fill="white" fill-opacity="0.4"/>
<circle cx="1127.86" cy="181.858" r="0.857766" fill="white" fill-opacity="0.5"/>
<circle cx="668.995" cy="679.995" r="0.994599" fill="white" fill-opacity="0.5"/>
<circle cx="1086.69" cy="835.689" r="0.689301" fill="white" fill-opacity="0.5"/>
<circle cx="1366.74" cy="262.74" r="0.740302" fill="white" fill-opacity="0.6"/>
<circle cx="182.819" cy="110.819" r="0.819064" fill="white" fill-opacity="0.4"/>
<circle cx="716.593" cy="706.593" r="0.592605" fill="white" fill-opacity="0.4"/>
<circle cx="769.939" cy="196.939" r="0.938678" fill="white" fill-opacity="0.4"/>
<circle cx="602.795" cy="137.795" r="0.794533" fill="white" fill-opacity="0.6"/>
<circle cx="514.999" cy="892.999" r="0.99918" fill="white" fill-opacity="0.4"/>
<circle cx="1343.61" cy="61.6146" r="0.61459" fill="white" fill-opacity="0.5"/>
<circle cx="1110.87" cy="639.875" r="0.874554" fill="white" fill-opacity="0.5"/>
<circle cx="62.5725" cy="15.5725" r="0.572527" fill="white" fill-opacity="0.3"/>
<circle cx="520.694" cy="794.694" r="0.694042" fill="white" fill-opacity="0.6"/>
<circle cx="607.592" cy="267.592" r="0.591626" fill="white" fill-opacity="0.5"/>
<circle cx="597.556" cy="215.556" r="0.556442" fill="white" fill-opacity="0.5"/>
<circle cx="897.611" cy="257.611" r="0.611068" fill="white" fill-opacity="0.4"/>
<circle cx="1341.83" cy="179.831" r="0.830751" fill="white" fill-opacity="0.6"/>
<circle cx="768.892" cy="749.892" r="0.891752" fill="white" fill-opacity="0.6"/>
<circle cx="1275.98" cy="469.983" r="0.982877" fill="white" fill-opacity="0.5"/>
<circle cx="1273.97" cy="738.975" r="0.974905" fill="white" fill-opacity="0.5"/>
<circle cx="769.761" cy="417.761" r="0.760786" fill="white" fill-opacity="0.5"/>
<circle cx="844.571" cy="601.571" r="0.571448" fill="white" fill-opacity="0.4"/>
<circle cx="464.778" cy="103.778" r="0.778104" fill="white" fill-opacity="0.4"/>
<circle cx="866.706" cy="751.706" r="0.705943" fill="white" fill-opacity="0.4"/>
<circle cx="1210.54" cy="868.54" r="0.539915" fill="white" fill-opacity="0.5"/>
<circle cx="163.521" cy="498.521" r="0.521096" fill="white" fill-opacity="0.3"/>
<circle cx="1316.53" cy="172.527" r="0.527308" fill="white" fill-opacity="0.4"/>
<circle cx="878.974" cy="888.974" r="0.974236" fill="white" fill-opacity="0.3"/>
<circle cx="1042.72" cy="329.719" r="0.719069" fill="white" fill-opacity="0.6"/>
<circle cx="1226.72" cy="206.716" r="0.715887" fill="white" fill-opacity="0.3"/>
<circle cx="937.656" cy="337.655" r="0.655495" fill="white" fill-opacity="0.5"/>
<circle cx="859.578" cy="470.578" r="0.578178" fill="white" fill-opacity="0.5"/>
<circle cx="338.624" cy="510.624" r="0.624449" fill="white" fill-opacity="0.6"/>
<circle cx="1377.74" cy="188.736" r="0.735757" fill="white" fill-opacity="0.4"/>
<circle cx="878.908" cy="636.908" r="0.908205" fill="white" fill-opacity="0.3"/>
<circle cx="802.697" cy="615.697" r="0.696607" fill="white" fill-opacity="0.5"/>
<circle cx="1219.62" cy="558.624" r="0.623783" fill="white" fill-opacity="0.4"/>
<circle cx="462.712" cy="531.712" r="0.711736" fill="white" fill-opacity="0.6"/>
<circle cx="565.659" cy="808.659" r="0.658966" fill="white" fill-opacity="0.4"/>
<circle cx="11.7539" cy="873.754" r="0.753903" fill="white" fill-opacity="0.5"/>
<circle cx="1415.53" cy="643.528" r="0.527799" fill="white" fill-opacity="0.3"/>
<circle cx="167.722" cy="388.722" r="0.722324" fill="white" fill-opacity="0.5"/>
<circle cx="270.53" cy="290.53" r="0.529982" fill="white" fill-opacity="0.5"/>
<circle cx="381.799" cy="682.799" r="0.798649" fill="white" fill-opacity="0.6"/>
<circle cx="1133.73" cy="374.732" r="0.73163" fill="white" fill-opacity="0.4"/>
<circle cx="972.518" cy="138.518" r="0.517502" fill="white" fill-opacity="0.4"/>
<circle cx="562.959" cy="157.959" r="0.95869" fill="white" fill-opacity="0.3"/>
<circle cx="809.868" cy="8.86824" r="0.868243" fill="white" fill-opacity="0.5"/>
<circle cx="479.528" cy="550.528" r="0.527856" fill="white" fill-opacity="0.4"/>
<circle cx="885.693" cy="98.6931" r="0.693124" fill="white" fill-opacity="0.5"/>
<circle cx="150.887" cy="125.887" r="0.887101" fill="white" fill-opacity="0.6"/>
<circle cx="1433.7" cy="601.705" r="0.704556" fill="white" fill-opacity="0.5"/>
<circle cx="977.672" cy="896.672" r="0.671905" fill="white" fill-opacity="0.6"/>
<circle cx="829.84" cy="390.84" r="0.840261" fill="white" fill-opacity="0.5"/>
<circle cx="571.801" cy="644.801" r="0.800725" fill="white" fill-opacity="0.4"/>
<circle cx="1328.56" cy="566.557" r="0.55681" fill="white" fill-opacity="0.5"/>
<circle cx="1413.79" cy="48.7897" r="0.789701" fill="white" fill-opacity="0.5"/>
<circle cx="1110.8" cy="614.797" r="0.797327" fill="white" fill-opacity="0.4"/>
<circle cx="873.819" cy="642.819" r="0.819087" fill="white" fill-opacity="0.3"/>
<circle cx="1392.89" cy="437.887" r="0.886521" fill="white" fill-opacity="0.4"/>
<circle cx="887.787" cy="764.787" r="0.787477" fill="white" fill-opacity="0.4"/>
<circle cx="999.831" cy="609.831" r="0.8306" fill="white" fill-opacity="0.6"/>
<circle cx="1322.82" cy="488.824" r="0.823802" fill="white" fill-opacity="0.6"/>
<circle cx="764.997" cy="102.997" r="0.996707" fill="white" fill-opacity="0.3"/>
<circle cx="964.802" cy="12.8018" r="0.801828" fill="white" fill-opacity="0.3"/>
<circle cx="314.633" cy="497.633" r="0.632823" fill="white" fill-opacity="0.4"/>
<circle cx="582.665" cy="787.665" r="0.664864" fill="white" fill-opacity="0.4"/>
<circle cx="990.57" cy="492.57" r="0.569974" fill="white" fill-opacity="0.5"/>
<circle cx="411.704" cy="158.704" r="0.703958" fill="white" fill-opacity="0.4"/>
<circle cx="314.554" cy="525.554" r="0.553888" fill="white" fill-opacity="0.5"/>
<circle cx="1096.99" cy="377.99" r="0.990157" fill="white" fill-opacity="0.5"/>
<circle cx="802.652" cy="814.652" r="0.651824" fill="white" fill-opacity="0.4"/>
<circle cx="285.876" cy="673.876" r="0.875895" fill="white" fill-opacity="0.5"/>
<circle cx="473.69" cy="89.6896" r="0.689608" fill="white" fill-opacity="0.5"/>
<circle cx="1262.76" cy="793.757" r="0.757387" fill="white" fill-opacity="0.5"/>
<circle cx="1269.81" cy="709.808" r="0.808072" fill="white" fill-opacity="0.3"/>
<circle cx="809.784" cy="236.784" r="0.783737" fill="white" fill-opacity="0.5"/>
<circle cx="254.923" cy="860.923" r="0.923274" fill="white" fill-opacity="0.4"/>
<circle cx="901.605" cy="423.605" r="0.605465" fill="white" fill-opacity="0.5"/>
<circle cx="1332.84" cy="896.837" r="0.837058" fill="white" fill-opacity="0.5"/>
<circle cx="697.641" cy="479.641" r="0.640995" fill="white" fill-opacity="0.6"/>
<circle cx="913.917" cy="817.917" r="0.916613" fill="white" fill-opacity="0.5"/>
<circle cx="67.7254" cy="827.725" r="0.725378" fill="white" fill-opacity="0.4"/>
<circle cx="1161.52" cy="11.5156" r="0.515608" fill="white" fill-opacity="0.6"/>
<circle cx="1406.96" cy="432.962" r="0.962194" fill="white" fill-opacity="0.4"/>
<circle cx="1431.67" cy="317.668" r="0.66835" fill="white" fill-opacity="0.4"/>
<circle cx="159.78" cy="883.78" r="0.77972" fill="white" fill-opacity="0.4"/>
<circle cx="1356.93" cy="190.932" r="0.931525" fill="white" fill-opacity="0.5"/>
<circle cx="946.667" cy="885.667" r="0.666994" fill="white" fill-opacity="0.3"/>
<circle cx="554.753" cy="265.753" r="0.752846" fill="white" fill-opacity="0.3"/>
<circle cx="184.556" cy="21.5562" r="0.556165" fill="white" fill-opacity="0.3"/>
<circle cx="941.727" cy="859.727" r="0.727495" fill="white" fill-opacity="0.5"/>
<circle cx="494.881" cy="830.881" r="0.881476" fill="white" fill-opacity="0.4"/>
<circle cx="723.763" cy="793.763" r="0.762831" fill="white" fill-opacity="0.5"/>
<circle cx="814.707" cy="488.707" r="0.707074" fill="white" fill-opacity="0.3"/>
<circle cx="7.50019" cy="400.5" r="0.500188" fill="white" fill-opacity="0.3"/>
<circle cx="774.795" cy="10.7945" r="0.794546" fill="white" fill-opacity="0.5"/>
<circle cx="888.563" cy="291.563" r="0.563304" fill="white" fill-opacity="0.3"/>
<circle cx="38.9973" cy="532.997" r="0.997292" fill="white" fill-opacity="0.4"/>
<circle cx="40.82" cy="178.82" r="0.819986" fill="white" fill-opacity="0.6"/>
<circle cx="142.777" cy="534.777" r="0.777472" fill="white" fill-opacity="0.5"/>
<circle cx="388.74" cy="755.74" r="0.740167" fill="white" fill-opacity="0.6"/>
<circle cx="428.867" cy="485.867" r="0.866519" fill="white" fill-opacity="0.5"/>
<circle cx="792.814" cy="192.814" r="0.813525" fill="white" fill-opacity="0.5"/>
<circle cx="886.607" cy="514.607" r="0.606983" fill="white" fill-opacity="0.6"/>
<circle cx="529.896" cy="896.896" r="0.89603" fill="white" fill-opacity="0.6"/>
<circle cx="85.9061" cy="659.906" r="0.906118" fill="white" fill-opacity="0.3"/>
<circle cx="360.902" cy="611.902" r="0.90231" fill="white" fill-opacity="0.3"/>
<circle cx="1201.51" cy="285.51" r="0.510298" fill="white" fill-opacity="0.5"/>
<circle cx="517.544" cy="781.544" r="0.543804" fill="white" fill-opacity="0.3"/>
<circle cx="1082.93" cy="428.93" r="0.930448" fill="white" fill-opacity="0.4"/>
<circle cx="734.753" cy="100.753" r="0.753361" fill="white" fill-opacity="0.3"/>
<circle cx="758.962" cy="272.962" r="0.962012" fill="white" fill-opacity="0.3"/>
<circle cx="643.523" cy="641.523" r="0.523013" fill="white" fill-opacity="0.5"/>
<circle cx="579.905" cy="482.905" r="0.904717" fill="white" fill-opacity="0.6"/>
<circle cx="577.725" cy="268.725" r="0.72527" fill="white" fill-opacity="0.3"/>
<circle cx="151.981" cy="494.981" r="0.981463" fill="white" fill-opacity="0.6"/>
<circle cx="1377.75" cy="864.75" r="0.749749" fill="white" fill-opacity="0.6"/>
<circle cx="601.653" cy="225.653" r="0.653443" fill="white" fill-opacity="0.5"/>
<circle cx="15.9921" cy="528.992" r="0.992132" fill="white" fill-opacity="0.4"/>
<circle cx="1407.93" cy="203.932" r="0.932436" fill="white" fill-opacity="0.4"/>
<circle cx="1238.58" cy="61.5796" r="0.57964" fill="white" fill-opacity="0.4"/>
<circle cx="1214.58" cy="5.58408" r="0.584077" fill="white" fill-opacity="0.4"/>
<circle cx="261.875" cy="849.875" r="0.874529" fill="white" fill-opacity="0.3"/>
<circle cx="217.591" cy="386.591" r="0.590661" fill="white" fill-opacity="0.4"/>
<circle cx="506.651" cy="342.651" r="0.650527" fill="white" fill-opacity="0.5"/>
<circle cx="1313.53" cy="571.531" r="0.531444" fill="white" fill-opacity="0.6"/>
<circle cx="511.877" cy="42.8769" r="0.876903" fill="white" fill-opacity="0.4"/>
<circle cx="1436.68" cy="281.682" r="0.682506" fill="white" fill-opacity="0.3"/>
<circle cx="398.502" cy="488.502" r="0.502049" fill="white" fill-opacity="0.5"/>
<circle cx="387.507" cy="722.507" r="0.507341" fill="white" fill-opacity="0.5"/>
<circle cx="773.55" cy="100.55" r="0.549982" fill="white" fill-opacity="0.4"/>
<circle cx="310.777" cy="687.777" r="0.776968" fill="white" fill-opacity="0.6"/>
<circle cx="1255.77" cy="284.774" r="0.774453" fill="white" fill-opacity="0.5"/>
<circle cx="1297.74" cy="895.745" r="0.744559" fill="white" fill-opacity="0.5"/>
<circle cx="1374.6" cy="325.604" r="0.604111" fill="white" fill-opacity="0.5"/>
<circle cx="324.631" cy="790.631" r="0.631155" fill="white" fill-opacity="0.6"/>
<circle cx="1176.77" cy="611.771" r="0.771134" fill="white" fill-opacity="0.4"/>
<circle cx="689.599" cy="704.599" r="0.598737" fill="white" fill-opacity="0.4"/>
<circle cx="292.896" cy="0.896307" r="0.896307" fill="white" fill-opacity="0.6"/>
<circle cx="863.503" cy="674.503" r="0.502881" fill="white" fill-opacity="0.5"/>
<circle cx="466.667" cy="632.667" r="0.667169" fill="white" fill-opacity="0.4"/>
<circle cx="918.58" cy="526.58" r="0.579538" fill="white" fill-opacity="0.5"/>
<circle cx="962.914" cy="882.914" r="0.914214" fill="white" fill-opacity="0.5"/>
<circle cx="46.6997" cy="94.6997" r="0.699701" fill="white" fill-opacity="0.4"/>
<circle cx="654.634" cy="444.634" r="0.634211" fill="white" fill-opacity="0.5"/>
<circle cx="643.646" cy="16.6457" r="0.645676" fill="white" fill-opacity="0.6"/>
<circle cx="1134.64" cy="698.644" r="0.643789" fill="white" fill-opacity="0.5"/>
<circle cx="1077.55" cy="463.548" r="0.547833" fill="white" fill-opacity="0.4"/>
<circle cx="580.911" cy="419.911" r="0.911046" fill="white" fill-opacity="0.5"/>
<circle cx="559.68" cy="285.68" r="0.680322" fill="white" fill-opacity="0.4"/>
<circle cx="1011.6" cy="353.601" r="0.600701" fill="white" fill-opacity="0.5"/>
<circle cx="1103.58" cy="499.577" r="0.576818" fill="white" fill-opacity="0.6"/>
<circle cx="306.883" cy="311.883" r="0.883272" fill="white" fill-opacity="0.4"/>
<circle cx="876.677" cy="18.6765" r="0.676536" fill="white" fill-opacity="0.4"/>
<circle cx="84.5594" cy="598.559" r="0.559406" fill="white" fill-opacity="0.6"/>
<circle cx="1189.58" cy="551.584" r="0.583678" fill="white" fill-opacity="0.5"/>
<circle cx="323.639" cy="382.639" r="0.639069" fill="white" fill-opacity="0.4"/>
<circle cx="1425.84" cy="685.843" r="0.84289" fill="white" fill-opacity="0.5"/>
<circle cx="1438.5" cy="393.502" r="0.501881" fill="white" fill-opacity="0.6"/>
<circle cx="731.668" cy="334.668" r="0.668079" fill="white" fill-opacity="0.6"/>
<circle cx="608.723" cy="729.723" r="0.722971" fill="white" fill-opacity="0.6"/>
<circle cx="997.966" cy="292.966" r="0.966173" fill="white" fill-opacity="0.3"/>
<circle cx="270.957" cy="852.957" r="0.957346" fill="white" fill-opacity="0.5"/>
<circle cx="183.671" cy="865.671" r="0.670545" fill="white" fill-opacity="0.4"/>
<circle cx="977.87" cy="690.87" r="0.870441" fill="white" fill-opacity="0.4"/>
<circle cx="140.557" cy="811.557" r="0.556814" fill="white" fill-opacity="0.5"/>
<circle cx="833.843" cy="434.843" r="0.843323" fill="white" fill-opacity="0.5"/>
<circle cx="857.55" cy="277.55" r="0.549845" fill="white" fill-opacity="0.5"/>
<circle cx="1011.56" cy="459.564" r="0.564205" fill="white" fill-opacity="0.3"/>
<circle cx="1430.67" cy="800.668" r="0.667958" fill="white" fill-opacity="0.5"/>
<circle cx="244.718" cy="458.717" r="0.717513" fill="white" fill-opacity="0.5"/>
<circle cx="421.582" cy="547.582" r="0.581547" fill="white" fill-opacity="0.5"/>
<circle cx="392.646" cy="293.646" r="0.646375" fill="white" fill-opacity="0.3"/>
<circle cx="1073.51" cy="539.511" r="0.511294" fill="white" fill-opacity="0.5"/>
<circle cx="1282.73" cy="294.735" r="0.734872" fill="white" fill-opacity="0.6"/>
<circle cx="905.646" cy="214.646" r="0.645913" fill="white" fill-opacity="0.4"/>
<circle cx="879.673" cy="297.673" r="0.672796" fill="white" fill-opacity="0.6"/>
<circle cx="1079.92" cy="103.916" r="0.915873" fill="white" fill-opacity="0.5"/>
<circle cx="315.549" cy="898.549" r="0.548929" fill="white" fill-opacity="0.5"/>
<circle cx="564.739" cy="471.739" r="0.738706" fill="white" fill-opacity="0.4"/>
<circle cx="665.7" cy="711.7" r="0.70032" fill="white" fill-opacity="0.5"/>
<circle cx="975.576" cy="242.576" r="0.575737" fill="white" fill-opacity="0.4"/>
<circle cx="1272.55" cy="279.551" r="0.550626" fill="white" fill-opacity="0.5"/>
<circle cx="1157.83" cy="604.833" r="0.83287" fill="white" fill-opacity="0.6"/>
<circle cx="81.6697" cy="237.67" r="0.669691" fill="white" fill-opacity="0.3"/>
<circle cx="847.659" cy="353.659" r="0.65853" fill="white" fill-opacity="0.4"/>
<circle cx="609.636" cy="723.636" r="0.635806" fill="white" fill-opacity="0.5"/>
<circle cx="1285.98" cy="299.982" r="0.9815" fill="white" fill-opacity="0.5"/>
<circle cx="1053.78" cy="620.775" r="0.774982" fill="white" fill-opacity="0.6"/>
<circle cx="538.831" cy="689.831" r="0.830476" fill="white" fill-opacity="0.3"/>
<circle cx="697.952" cy="426.952" r="0.952474" fill="white" fill-opacity="0.6"/>
<circle cx="1413.53" cy="347.535" r="0.534537" fill="white" fill-opacity="0.6"/>
<circle cx="1024.67" cy="34.6661" r="0.666092" fill="white" fill-opacity="0.4"/>
<circle cx="990.859" cy="43.859" r="0.858985" fill="white" fill-opacity="0.6"/>
<circle cx="434.636" cy="117.636" r="0.635887" fill="white" fill-opacity="0.5"/>
<circle cx="758.776" cy="472.776" r="0.776007" fill="white" fill-opacity="0.6"/>
<circle cx="1306.52" cy="638.522" r="0.522012" fill="white" fill-opacity="0.3"/>
<circle cx="788.696" cy="32.6961" r="0.696078" fill="white" fill-opacity="0.4"/>
<circle cx="1325.83" cy="69.8345" r="0.834519" fill="white" fill-opacity="0.5"/>
<circle cx="753.598" cy="142.598" r="0.598004" fill="white" fill-opacity="0.5"/>
<circle cx="29.9918" cy="214.992" r="0.991811" fill="white" fill-opacity="0.3"/>
<circle cx="496.84" cy="375.84" r="0.840234" fill="white" fill-opacity="0.3"/>
<circle cx="1097.65" cy="363.646" r="0.646029" fill="white" fill-opacity="0.3"/>
<circle cx="431.804" cy="27.8038" r="0.803822" fill="white" fill-opacity="0.4"/>
<circle cx="173.51" cy="134.51" r="0.509996" fill="white" fill-opacity="0.6"/>
<circle cx="1049.88" cy="300.878" r="0.878237" fill="white" fill-opacity="0.6"/>
<circle cx="670.734" cy="535.734" r="0.7345" fill="white" fill-opacity="0.4"/>
<circle cx="1259.64" cy="243.636" r="0.635966" fill="white" fill-opacity="0.4"/>
<circle cx="678.679" cy="773.679" r="0.679331" fill="white" fill-opacity="0.5"/>
<circle cx="803.52" cy="473.52" r="0.519574" fill="white" fill-opacity="0.3"/>
<circle cx="522.844" cy="420.844" r="0.84434" fill="white" fill-opacity="0.4"/>
<circle cx="829.922" cy="783.922" r="0.922251" fill="white" fill-opacity="0.6"/>
<circle cx="429.892" cy="826.892" r="0.891663" fill="white" fill-opacity="0.4"/>
<circle cx="1031" cy="234.999" r="0.998798" fill="white" fill-opacity="0.3"/>
<circle cx="954.62" cy="379.62" r="0.619503" fill="white" fill-opacity="0.5"/>
<circle cx="1336.61" cy="493.611" r="0.611132" fill="white" fill-opacity="0.5"/>
<circle cx="1251.74" cy="724.742" r="0.741675" fill="white" fill-opacity="0.5"/>
<circle cx="418.654" cy="644.654" r="0.654256" fill="white" fill-opacity="0.5"/>
<circle cx="293.634" cy="554.634" r="0.633584" fill="white" fill-opacity="0.4"/>
<circle cx="1077.66" cy="786.656" r="0.655751" fill="white" fill-opacity="0.4"/>
<circle cx="1355.85" cy="880.853" r="0.852964" fill="white" fill-opacity="0.5"/>
<circle cx="1283.9" cy="146.897" r="0.896677" fill="white" fill-opacity="0.5"/>
<circle cx="1227.84" cy="555.837" r="0.836715" fill="white" fill-opacity="0.4"/>
<circle cx="1122.86" cy="441.856" r="0.855633" fill="white" fill-opacity="0.4"/>
<circle cx="268.733" cy="753.733" r="0.732962" fill="white" fill-opacity="0.5"/>
<circle cx="925.718" cy="774.718" r="0.718327" fill="white" fill-opacity="0.5"/>
<circle cx="587.916" cy="359.916" r="0.91643" fill="white" fill-opacity="0.3"/>
<circle cx="1079.72" cy="464.723" r="0.722712" fill="white" fill-opacity="0.3"/>
<circle cx="470.634" cy="586.634" r="0.634182" fill="white" fill-opacity="0.3"/>
<circle cx="255.862" cy="254.862" r="0.862202" fill="white" fill-opacity="0.5"/>
<circle cx="342.522" cy="825.522" r="0.522306" fill="white" fill-opacity="0.5"/>
<circle cx="178.809" cy="27.8088" r="0.808845" fill="white" fill-opacity="0.5"/>
<circle cx="1026.78" cy="39.7774" r="0.777412" fill="white" fill-opacity="0.5"/>
<circle cx="1078.5" cy="610.501" r="0.501389" fill="white" fill-opacity="0.4"/>
<circle cx="1273.86" cy="75.8645" r="0.864498" fill="white" fill-opacity="0.4"/>
<circle cx="22.9714" cy="348.971" r="0.971367" fill="white" fill-opacity="0.5"/>
<circle cx="1199.88" cy="766.877" r="0.876959" fill="white" fill-opacity="0.4"/>
<circle cx="1268.88" cy="194.88" r="0.87985" fill="white" fill-opacity="0.6"/>
<circle cx="269.523" cy="442.523" r="0.523431" fill="white" fill-opacity="0.6"/>
<circle cx="1015.93" cy="281.927" r="0.92745" fill="white" fill-opacity="0.5"/>
<circle cx="465.547" cy="91.5468" r="0.546836" fill="white" fill-opacity="0.4"/>
<circle cx="547.557" cy="277.557" r="0.556812" fill="white" fill-opacity="0.5"/>
<circle cx="776.558" cy="318.558" r="0.558448" fill="white" fill-opacity="0.5"/>
<circle cx="1409.85" cy="90.8466" r="0.846614" fill="white" fill-opacity="0.4"/>
<circle cx="317.995" cy="15.995" r="0.994965" fill="white" fill-opacity="0.6"/>
<circle cx="7.63211" cy="253.632" r="0.632109" fill="white" fill-opacity="0.6"/>
<circle cx="963.582" cy="62.5821" r="0.582124" fill="white" fill-opacity="0.6"/>
<circle cx="1188.81" cy="91.8105" r="0.810475" fill="white" fill-opacity="0.5"/>
<circle cx="1203.86" cy="573.859" r="0.859494" fill="white" fill-opacity="0.4"/>
<circle cx="778.856" cy="865.856" r="0.856041" fill="white" fill-opacity="0.6"/>
<circle cx="560.553" cy="226.553" r="0.553132" fill="white" fill-opacity="0.4"/>
<circle cx="866.522" cy="188.522" r="0.521863" fill="white" fill-opacity="0.4"/>
<circle cx="534.82" cy="65.8198" r="0.819759" fill="white" fill-opacity="0.4"/>
<circle cx="1210.82" cy="514.825" r="0.824768" fill="white" fill-opacity="0.3"/>
<circle cx="382.563" cy="207.563" r="0.563168" fill="white" fill-opacity="0.5"/>
<circle cx="901.819" cy="512.819" r="0.818665" fill="white" fill-opacity="0.5"/>
<circle cx="1345.69" cy="542.685" r="0.685046" fill="white" fill-opacity="0.5"/>
<circle cx="1269.64" cy="117.638" r="0.63763" fill="white" fill-opacity="0.5"/>
<circle cx="1169.59" cy="64.5938" r="0.593804" fill="white" fill-opacity="0.5"/>
<circle cx="943.696" cy="395.696" r="0.69622" fill="white" fill-opacity="0.4"/>
<circle cx="1212.81" cy="94.8064" r="0.806381" fill="white" fill-opacity="0.5"/>
<circle cx="529.857" cy="213.857" r="0.856622" fill="white" fill-opacity="0.4"/>
<circle cx="785.882" cy="314.882" r="0.881911" fill="white" fill-opacity="0.4"/>
<circle cx="1009.82" cy="7.82051" r="0.820514" fill="white" fill-opacity="0.6"/>
<circle cx="711.896" cy="739.896" r="0.896141" fill="white" fill-opacity="0.5"/>
<circle cx="552.879" cy="426.879" r="0.879104" fill="white" fill-opacity="0.3"/>
<circle cx="162.624" cy="454.624" r="0.623937" fill="white" fill-opacity="0.6"/>
<circle cx="829.785" cy="707.785" r="0.785064" fill="white" fill-opacity="0.5"/>
<circle cx="53.5149" cy="510.515" r="0.514908" fill="white" fill-opacity="0.5"/>
<circle cx="245.784" cy="844.784" r="0.78387" fill="white" fill-opacity="0.4"/>
<circle cx="454.898" cy="182.898" r="0.897869" fill="white" fill-opacity="0.4"/>
<circle cx="402.642" cy="827.642" r="0.642222" fill="white" fill-opacity="0.6"/>
<circle cx="518.736" cy="649.736" r="0.735931" fill="white" fill-opacity="0.5"/>
<circle cx="780.644" cy="708.644" r="0.643901" fill="white" fill-opacity="0.3"/>
<circle cx="459.549" cy="347.549" r="0.548646" fill="white" fill-opacity="0.4"/>
<circle cx="222.629" cy="155.629" r="0.629465" fill="white" fill-opacity="0.5"/>
<circle cx="1413.62" cy="346.621" r="0.621427" fill="white" fill-opacity="0.4"/>
<circle cx="238.909" cy="480.909" r="0.908922" fill="white" fill-opacity="0.4"/>
<circle cx="574.615" cy="84.6148" r="0.614846" fill="white" fill-opacity="0.5"/>
<circle cx="1119.93" cy="332.928" r="0.927885" fill="white" fill-opacity="0.5"/>
<circle cx="751.891" cy="471.891" r="0.891453" fill="white" fill-opacity="0.4"/>
<circle cx="679.704" cy="827.704" r="0.704312" fill="white" fill-opacity="0.3"/>
<circle cx="248.792" cy="610.792" r="0.79185" fill="white" fill-opacity="0.6"/>
<circle cx="735.754" cy="164.754" r="0.754166" fill="white" fill-opacity="0.3"/>
<circle cx="569.748" cy="32.7481" r="0.74805" fill="white" fill-opacity="0.5"/>
<circle cx="861.577" cy="370.577" r="0.576725" fill="white" fill-opacity="0.4"/>
<circle cx="674.614" cy="181.614" r="0.614242" fill="white" fill-opacity="0.4"/>
<circle cx="792.652" cy="706.652" r="0.652357" fill="white" fill-opacity="0.3"/>
<circle cx="304.892" cy="724.892" r="0.891727" fill="white" fill-opacity="0.4"/>
<circle cx="207.9" cy="453.9" r="0.899926" fill="white" fill-opacity="0.3"/>
<circle cx="1209.51" cy="679.511" r="0.51118" fill="white" fill-opacity="0.5"/>
<circle cx="645.7" cy="893.7" r="0.699724" fill="white" fill-opacity="0.5"/>
<circle cx="598.745" cy="211.745" r="0.74529" fill="white" fill-opacity="0.6"/>
<circle cx="32.7695" cy="572.769" r="0.769476" fill="white" fill-opacity="0.6"/>
<circle cx="168.758" cy="194.758" r="0.757857" fill="white" fill-opacity="0.6"/>
<circle cx="107.557" cy="674.557" r="0.556822" fill="white" fill-opacity="0.4"/>
<circle cx="390.756" cy="576.756" r="0.755971" fill="white" fill-opacity="0.4"/>
<circle cx="48.9157" cy="750.916" r="0.915701" fill="white" fill-opacity="0.4"/>
<circle cx="700.537" cy="78.5368" r="0.536768" fill="white" fill-opacity="0.4"/>
<circle cx="190.589" cy="70.5887" r="0.588716" fill="white" fill-opacity="0.5"/>
<circle cx="973.739" cy="202.739" r="0.738563" fill="white" fill-opacity="0.3"/>
<circle cx="793.529" cy="147.529" r="0.528829" fill="white" fill-opacity="0.4"/>
<circle cx="1150.84" cy="815.845" r="0.844944" fill="white" fill-opacity="0.5"/>
<circle cx="1203.9" cy="362.896" r="0.895654" fill="white" fill-opacity="0.5"/>
<circle cx="1321.73" cy="424.73" r="0.730089" fill="white" fill-opacity="0.6"/>
<circle cx="136.593" cy="419.593" r="0.592542" fill="white" fill-opacity="0.4"/>
<circle cx="185.832" cy="185.832" r="0.831998" fill="white" fill-opacity="0.6"/>
<circle cx="432.628" cy="370.628" r="0.628477" fill="white" fill-opacity="0.4"/>
<circle cx="1060.66" cy="778.657" r="0.657098" fill="white" fill-opacity="0.5"/>
<circle cx="486.961" cy="782.961" r="0.961049" fill="white" fill-opacity="0.3"/>
<circle cx="1089.95" cy="749.951" r="0.951352" fill="white" fill-opacity="0.4"/>
<circle cx="61.9507" cy="784.951" r="0.950684" fill="white" fill-opacity="0.6"/>
<circle cx="358.748" cy="510.748" r="0.748397" fill="white" fill-opacity="0.3"/>
<circle cx="1185.52" cy="346.523" r="0.523449" fill="white" fill-opacity="0.3"/>
<circle cx="742.61" cy="184.61" r="0.610496" fill="white" fill-opacity="0.5"/>
<circle cx="1330.64" cy="703.636" r="0.63596" fill="white" fill-opacity="0.4"/>
<circle cx="514.966" cy="48.9656" r="0.96557" fill="white" fill-opacity="0.6"/>
<circle cx="691.651" cy="249.651" r="0.650789" fill="white" fill-opacity="0.3"/>
<circle cx="738.908" cy="700.908" r="0.908044" fill="white" fill-opacity="0.3"/>
<circle cx="1408.52" cy="403.521" r="0.520814" fill="white" fill-opacity="0.4"/>
<circle cx="781.925" cy="367.925" r="0.925065" fill="white" fill-opacity="0.5"/>
<circle cx="350.945" cy="400.945" r="0.945173" fill="white" fill-opacity="0.5"/>
<circle cx="1412.66" cy="141.656" r="0.656395" fill="white" fill-opacity="0.5"/>
<circle cx="372.955" cy="96.9552" r="0.955221" fill="white" fill-opacity="0.4"/>
<circle cx="498.695" cy="514.695" r="0.695152" fill="white" fill-opacity="0.4"/>
<circle cx="871.684" cy="477.684" r="0.683966" fill="white" fill-opacity="0.4"/>
<circle cx="1382.84" cy="140.845" r="0.844949" fill="white" fill-opacity="0.4"/>
<circle cx="1380.8" cy="194.804" r="0.804185" fill="white" fill-opacity="0.5"/>
<circle cx="1323.97" cy="662.968" r="0.968183" fill="white" fill-opacity="0.5"/>
<circle cx="611.515" cy="883.515" r="0.514568" fill="white" fill-opacity="0.4"/>
<circle cx="1419.87" cy="494.874" r="0.874212" fill="white" fill-opacity="0.5"/>
<circle cx="947.919" cy="285.919" r="0.919186" fill="white" fill-opacity="0.6"/>
<circle cx="744.829" cy="514.829" r="0.828685" fill="white" fill-opacity="0.4"/>
<circle cx="157.854" cy="377.853" r="0.853498" fill="white" fill-opacity="0.4"/>
<circle cx="822.99" cy="846.99" r="0.990223" fill="white" fill-opacity="0.5"/>
<circle cx="938.552" cy="346.552" r="0.552483" fill="white" fill-opacity="0.4"/>
<circle cx="190.533" cy="420.533" r="0.533187" fill="white" fill-opacity="0.3"/>
</svg>
