<?xml version="1.0" encoding="UTF-8"?>
<svg id="Calque_2" data-name="Calque 2" xmlns="http://www.w3.org/2000/svg" xmlns:xlink="http://www.w3.org/1999/xlink" viewBox="0 0 623.62 384.03">
  <defs>
    <style>
      .cls-1 {
        clip-path: url(#clippath);
      }

      .cls-2, .cls-3 {
        fill: none;
      }

      .cls-2, .cls-4, .cls-5 {
        stroke-width: 0px;
      }

      .cls-3 {
        stroke: #222221;
        stroke-linecap: round;
        stroke-linejoin: round;
        stroke-width: .61px;
      }

      .cls-6 {
        clip-path: url(#clippath-1);
      }

      .cls-4 {
        fill: #222221;
      }

      .cls-5 {
        fill: #a98152;
      }
    </style>
    <clipPath id="clippath">
      <rect id="SVGID" class="cls-2" x="468.2" width="155.42" height="258.57"/>
    </clipPath>
    <clipPath id="clippath-1">
      <rect id="SVGID-2" data-name="SVGID" class="cls-2" y="112.58" width="155.42" height="258.57" transform="translate(155.42 483.74) rotate(180)"/>
    </clipPath>
  </defs>
  <g id="PRINT_2" data-name="PRINT 2">
    <g id="sun">
      <g>
        <g>
          <path class="cls-4" d="M255.12,130.28l-39.77-98.88,67.85,80.28s-4.43,17.97-28.07,18.6Z"/>
          <path class="cls-4" d="M375.22,264.1l35.42,92.02-63.52-73.47s4.97-17.13,28.1-18.56Z"/>
          <path class="cls-4" d="M254.54,259.22l-75.22,30.62,56.77-60.63s15.08,6.17,18.45,30.01Z"/>
          <path class="cls-4" d="M316.35,106.04l35.42-95.65-2.7,103.58s-14.98,8.88-32.72-7.93Z"/>
          <path class="cls-4" d="M314.27,288.41l-34.38,91,1.66-98.9s14.86-8.33,32.72,7.9Z"/>
          <path class="cls-4" d="M401.29,200.54l88.04,40.32-95.12-5.8s-8.24-16.16,7.08-34.53Z"/>
          <path class="cls-4" d="M229.17,194.15l-90.19-40.8,97.25,6.27s8.5,16.22-7.07,34.53Z"/>
          <path class="cls-5" d="M280.31,108.92s11.8-23.48,7.75-35.51c-4.05-12.04-21.31-30.29-12.75-46.73,8.56-16.44,4.7-21.59,4.7-21.59,0,0,8.3,7.95,5.81,22.23-2.49,14.28,13.96,25.58,17.64,29.13,5.64,5.44,20.46,23.96,8.26,47.95-12.21,24-36.96,18.25-31.41,4.51Z"/>
          <path class="cls-5" d="M349.73,285.39s-11.99,22.41-8.04,33.81c3.94,11.4,21.01,28.59,12.33,44.29-8.69,15.69-4.88,20.55-4.88,20.55,0,0-8.22-7.48-5.61-21.07s-13.72-24.18-17.37-27.53c-5.58-5.12-20.23-22.58-7.83-45.48,12.4-22.9,37.07-17.66,31.4-4.56Z"/>
          <path class="cls-5" d="M397.28,162.52s21.35,13.22,31.99,9.28c10.65-3.95,26.46-21.72,41.42-12.15,14.96,9.57,19.45,5.63,19.45,5.63,0,0-6.87,8.58-19.71,5.51-12.85-3.07-22.47,14.06-25.53,17.86-4.7,5.83-20.82,21.01-42.64,7.34-21.82-13.67-17.42-39.78-4.97-33.47Z"/>
          <path class="cls-5" d="M232.5,232.53s-22.62-13.01-34.02-8.93c-11.4,4.08-28.47,22.07-44.32,12.65-15.85-9.42-20.68-5.42-20.68-5.42,0,0,7.42-8.67,21.09-5.74,13.67,2.93,24.12-14.35,27.44-18.19,5.08-5.89,22.45-21.29,45.57-7.85,23.12,13.45,18.13,39.66,4.92,33.48Z"/>
          <path class="cls-5" d="M349.02,109.4s24.66-8.31,30.03-20.2c5.36-11.89,5.49-38.32,22.97-43.92,17.48-5.59,18.24-12.28,18.24-12.28,0,0,.51,12.11-11.12,20.7-11.62,8.59-7.54,29.31-7.34,34.7.32,8.25-1.74,33.04-27.05,41.42-25.31,8.38-39.2-14.54-25.74-20.42Z"/>
          <path class="cls-5" d="M281.55,284.2s-23.49,6.65-28.14,17.53c-4.65,10.88-3.57,35.61-20.24,40.04-16.67,4.44-17.1,10.66-17.1,10.66,0,0-1.04-11.35,9.82-18.86,10.86-7.51,5.97-27.08,5.52-32.14-.68-7.74.18-30.83,24.3-37.52,24.12-6.69,38.6,15.39,25.84,20.28Z"/>
          <path class="cls-5" d="M396.56,234.37s4.85,24.13,14.19,28.83c9.35,4.7,31.06,3.39,34.26,20.51,3.19,17.12,8.63,17.51,8.63,17.51,0,0-10,1.17-16.12-9.95-6.13-11.12-23.49-5.93-27.94-5.42-6.81.77-27.02.06-31.87-24.71-4.85-24.77,15.11-39.86,18.86-26.76Z"/>
          <path class="cls-5" d="M232.6,159.92s-6.46-25.27-16.75-30.63c-10.28-5.36-33.54-5.14-37.87-23.06-4.33-17.92-10.19-18.61-10.19-18.61,0,0,10.67-.69,17.84,11.16,7.16,11.85,25.54,7.37,30.29,7.09,7.28-.44,29.02,1.35,35.52,27.29,6.51,25.94-14.14,40.54-18.86,26.77Z"/>
          <path class="cls-4" d="M376.84,134.98l89.47-39.68-71.11,69.75s-16.76-5.1-18.36-30.07Z"/>
        </g>
        <g>
          <ellipse class="cls-5" cx="315.08" cy="197.5" rx="94.71" ry="101.02" transform="translate(-28.94 56.32) rotate(-9.77)"/>
          <path class="cls-3" d="M263.3,111.81c31.52-21.08,70.69-19.54,100.87.5"/>
          <path class="cls-3" d="M235.54,250.68c-23.08-38.19-19.44-86.05,5.91-118.54"/>
          <path class="cls-3" d="M366.85,283.18c-35.83,23.96-81.56,18.69-112.71-9.75"/>
          <path class="cls-3" d="M394.61,144.31c25.2,41.7,18.54,94.93-13.45,127.09"/>
          <path class="cls-3" d="M326.45,106.19c11.82,1.93,23.29,6.42,33.61,13.27"/>
          <path class="cls-3" d="M267.64,119.01c15.83-10.58,33.76-14.94,51.29-13.7"/>
          <path class="cls-3" d="M236.7,155.7c2.93-6.42,6.58-12.49,10.93-18.08"/>
          <path class="cls-3" d="M228.68,205.94c-1.47-13.86.04-27.8,4.3-40.73"/>
          <path class="cls-3" d="M242.22,246.22c-5.72-9.47-9.65-19.59-11.88-29.9"/>
          <path class="cls-3" d="M280.36,281.39c-7.54-3.65-14.66-8.45-21.11-14.33"/>
          <path class="cls-3" d="M328.52,289.08c-13.13,1.87-26.5.49-39.05-3.9"/>
          <path class="cls-3" d="M362.51,275.99c-7.16,4.79-14.75,8.3-22.54,10.6"/>
          <path class="cls-3" d="M395.59,234.2c-4.45,11.53-11.17,22.13-19.98,30.99"/>
          <path class="cls-3" d="M387.93,148.78c12.86,21.28,16.66,45.83,12.44,68.5"/>
        </g>
      </g>
    </g>
    <g id="hands">
      <g class="cls-1">
        <g>
          <path class="cls-5" d="M638.64,244.72l48.17-46.41s-70.17-45.54-75.3-49.81c-5.12-4.27-15.06-9.04-16.88-16.97-1.82-7.93-13.55-42.14-14.25-48.3-.69-6.16-3.94-17.38-6.78-20.88-2.85-3.5-15.52-20.29-21.2-28.37s-9.63-11.04-12.49-12.42-46.81-6.4-56.48-9.41-1.73,12.1,6.82,15.98c0,0-11.21,4.24-12.28,5.49-1.07,1.25,4.09,9.24,17.33,7.01,0,0-9.9,5.99-12.02,8.4-2.12,2.41,3.45,9.96,11.88,7.39,0,0,3.99,2.88,11.8,5.88,7.81,3,17.94,9.39,17.94,9.39,0,0,10.02,20.51,10.48,27.69.46,7.18,10.51,51.31,20.19,59.13,9.68,7.82,13.64,10.2,13.64,10.2l69.42,76.01Z"/>
          <path class="cls-4" d="M528.2,42.63c.71.98,2.95,2.24,1.7,3.54-3.46,2.5-6.34,6.38-10.06,8.25-12.19-8.8-3.97-25.86,8.36-11.78Z"/>
          <path class="cls-4" d="M489.69,27.98c.99,0,.2,1.13-.18,1.46-12.85,10.38-19.52,2.86.18-1.46Z"/>
          <path class="cls-4" d="M480.6,14.77c-3.75-.96-1.99-4.54,1.22-4.22,3.06.4,5.86,2.03,8.91,2.57.61.16,1.49.24,1.67.97-1.04,5.15-8.51,1.62-11.8.68Z"/>
          <path class="cls-4" d="M563.1,92s-.04.03-.06.05c-.19.12-.45.07-.57-.12-.16-.25-16.15-24.81-21.76-35.12-5.87-10.78-17.84-22.01-22.93-19.27-5.62,3.02-5.59,8.22-3.7,12.08,2.12,4.31,10.52,20.56,10.61,20.73.1.2.03.45-.18.55-.2.1-.45.03-.55-.18-.08-.16-8.49-16.42-10.61-20.74-2.06-4.2-2.08-9.87,4.05-13.17,6-3.23,18.53,9.47,24.05,19.61,5.6,10.28,21.57,34.82,21.73,35.06.11.17.08.39-.06.52Z"/>
          <path class="cls-4" d="M520.14,37.01c-.13.12-.33.15-.49.06l-3.9-2.26c-10.45.44-24.32-5.85-24.46-5.91-.21-.09-.3-.34-.2-.54.09-.21.34-.3.54-.2.14.06,13.94,6.32,24.2,5.83.08,0,.16.02.23.06l4,2.32c.2.11.26.37.15.56-.02.03-.04.06-.07.09Z"/>
          <path class="cls-4" d="M512.17,40.89c-.1.1-.24.14-.39.1l-6.7-1.69c-3.97.73-9.7,1.74-9.7,1.74l-.14-.81s5.81-1.02,9.79-1.76c.06-.01.12,0,.18,0l6.79,1.71c.22.06.35.28.3.5-.02.08-.06.14-.11.2Z"/>
          <path class="cls-4" d="M515.15,53.1c-.11.1-.27.14-.42.09-.05-.02-5.17-1.78-8.32-.78-3.27,1.04-10.06,3.71-10.12,3.74-.21.08-.45-.02-.53-.23-.08-.21.02-.45.23-.53.07-.03,6.88-2.71,10.18-3.76,3.41-1.09,8.62.71,8.84.78.21.07.33.31.25.52-.02.06-.06.12-.1.16Z"/>
          <path class="cls-4" d="M516.17,34.4c-.11.11-.27.15-.43.09-.21-.08-.32-.32-.24-.53l1.58-4.29c.08-.21.31-.32.53-.24.21.08.32.31.24.53l-1.58,4.29c-.02.06-.06.11-.1.15Z"/>
          <path class="cls-4" d="M530.87,42.72c-.13.12-.32.15-.48.07-.2-.11-.28-.36-.17-.56,1.4-2.62,3.41-4.92,5.83-6.64.18-.13.44-.09.57.1.13.18.09.45-.1.57-2.31,1.65-4.24,3.85-5.58,6.36-.02.04-.05.07-.08.1Z"/>
          <path class="cls-4" d="M505.65,38.81c-.06.06-.15.1-.24.11-.23.03-.43-.14-.46-.36-.16-1.36.21-2.78,1.02-3.89.13-.18.39-.22.57-.09.18.13.23.39.09.57-.68.94-1,2.15-.87,3.31.02.13-.03.26-.12.34Z"/>
          <path class="cls-4" d="M506.9,51.9s-.09.07-.14.09c-.21.08-.45-.03-.53-.24-.78-2.13-.94-4.52-.45-6.73.05-.22.27-.36.49-.31.22.05.36.27.31.49-.46,2.06-.31,4.29.41,6.27.06.16.01.33-.1.44Z"/>
          <path class="cls-4" d="M582.98,161.65c-.07.06-.15.11-.25.11-4.33.36-8.62,2.31-11.69,5.37,0,0,0,0,0,0-.16.16-.42.15-.58,0-.16-.16-.16-.42,0-.58,3.25-3.17,7.68-5.22,12.2-5.6.23-.02.43.15.44.38.01.13-.04.25-.12.33Z"/>
        </g>
      </g>
      <g class="cls-6">
        <g>
          <path class="cls-5" d="M-15.02,126.43l-48.17,46.41S6.98,218.37,12.11,222.65c5.12,4.27,15.06,9.04,16.88,16.97,1.82,7.93,13.55,42.14,14.25,48.3.69,6.16,3.94,17.38,6.78,20.88,2.85,3.5,15.52,20.29,21.2,28.37,5.67,8.08,9.63,11.04,12.49,12.42,2.86,1.37,46.81,6.4,56.48,9.41,9.67,3.01,1.73-12.1-6.82-15.98,0,0,11.21-4.24,12.28-5.49,1.07-1.25-4.09-9.24-17.33-7.01,0,0,9.9-5.99,12.02-8.4,2.12-2.41-3.45-9.96-11.88-7.39,0,0-3.99-2.88-11.8-5.88-7.81-3-17.94-9.39-17.94-9.39,0,0-10.02-20.51-10.48-27.69-.46-7.18-10.51-51.31-20.19-59.13s-13.64-10.2-13.64-10.2L-15.02,126.43Z"/>
          <path class="cls-4" d="M95.42,328.53c-.71-.98-2.95-2.24-1.7-3.54,3.46-2.5,6.34-6.38,10.06-8.25,12.19,8.8,3.97,25.86-8.36,11.79Z"/>
          <path class="cls-4" d="M133.93,343.17c-.99,0-.2-1.13.18-1.46,12.85-10.38,19.52-2.86-.18,1.46Z"/>
          <path class="cls-4" d="M143.02,356.38c3.75.96,1.99,4.54-1.22,4.22-3.06-.4-5.86-2.03-8.91-2.57-.61-.16-1.49-.24-1.67-.97,1.04-5.15,8.51-1.62,11.8-.68Z"/>
          <path class="cls-4" d="M60.52,279.16s.04-.03.06-.05c.19-.12.45-.07.57.12.16.25,16.15,24.81,21.76,35.12,5.87,10.78,17.84,22.01,22.93,19.27,5.62-3.02,5.59-8.22,3.7-12.08-2.12-4.31-10.52-20.57-10.61-20.73-.1-.2-.03-.45.18-.55.2-.1.45-.03.55.18.08.16,8.49,16.42,10.61,20.74,2.06,4.2,2.08,9.87-4.05,13.17-6,3.23-18.53-9.47-24.05-19.61-5.6-10.28-21.57-34.82-21.73-35.06-.11-.17-.08-.39.06-.52Z"/>
          <path class="cls-4" d="M103.48,334.15c.13-.12.33-.15.49-.06l3.9,2.26c10.45-.44,24.32,5.85,24.46,5.91.21.09.3.34.2.54-.09.21-.34.3-.54.2-.14-.06-13.94-6.32-24.2-5.83-.08,0-.16-.02-.23-.06l-4-2.32c-.2-.11-.26-.37-.15-.56.02-.03.04-.06.07-.09Z"/>
          <path class="cls-4" d="M111.45,330.27c.1-.1.24-.14.39-.1l6.7,1.69c3.97-.73,9.7-1.74,9.7-1.74l.14.81s-5.81,1.02-9.79,1.76c-.06.01-.12,0-.18,0l-6.79-1.71c-.22-.06-.35-.28-.3-.5.02-.08.06-.14.11-.2Z"/>
          <path class="cls-4" d="M108.47,318.05c.11-.1.27-.14.42-.09.05.02,5.17,1.78,8.32.78,3.27-1.04,10.06-3.71,10.12-3.74.21-.08.45.02.53.23.08.21-.02.45-.23.53-.07.03-6.88,2.71-10.18,3.76-3.41,1.09-8.62-.71-8.84-.78-.21-.08-.33-.31-.25-.52.02-.06.06-.12.1-.16Z"/>
          <path class="cls-4" d="M107.45,336.75c.11-.11.27-.15.43-.09.21.08.32.32.24.53l-1.58,4.29c-.08.21-.31.32-.53.24-.21-.08-.32-.31-.24-.53l1.58-4.29c.02-.06.06-.11.1-.15Z"/>
          <path class="cls-4" d="M92.75,328.43c.12-.12.32-.15.48-.07.2.11.28.36.17.56-1.4,2.62-3.41,4.92-5.83,6.64-.18.13-.44.09-.57-.1-.13-.18-.09-.45.1-.57,2.31-1.65,4.24-3.85,5.58-6.36.02-.04.05-.07.08-.1Z"/>
          <path class="cls-4" d="M117.97,332.34c.06-.06.15-.1.24-.11.23-.03.43.14.46.36.16,1.36-.21,2.78-1.02,3.89-.13.18-.39.22-.57.09-.18-.13-.23-.39-.09-.57.68-.94,1-2.15.87-3.31-.02-.13.03-.26.12-.34Z"/>
          <path class="cls-4" d="M116.72,319.25s.09-.07.14-.09c.21-.08.45.03.53.25.78,2.13.94,4.52.45,6.73-.05.22-.27.36-.49.31-.22-.05-.36-.27-.31-.49.46-2.06.31-4.29-.41-6.27-.06-.16-.01-.33.1-.44Z"/>
          <path class="cls-4" d="M40.64,209.5c.07-.06.15-.11.25-.11,4.33-.36,8.62-2.31,11.69-5.37h0c.16-.16.42-.16.58,0,.16.16.16.42,0,.58-3.25,3.17-7.68,5.22-12.2,5.6-.23.02-.43-.15-.44-.38-.01-.13.04-.25.12-.33Z"/>
        </g>
      </g>
    </g>
  </g>
</svg>