<?xml version="1.0" encoding="UTF-8"?>
<svg id="Calque_2" data-name="Calque 2" xmlns="http://www.w3.org/2000/svg" viewBox="0 0 624.23 283.27">
  <defs>
    <style>
      .cls-1 {
        stroke-width: 1.25px;
      }

      .cls-1, .cls-2, .cls-3, .cls-4 {
        fill: none;
      }

      .cls-1, .cls-2, .cls-4 {
        stroke: #222221;
      }

      .cls-1, .cls-4 {
        stroke-miterlimit: 10;
      }

      .cls-2, .cls-3 {
        stroke-linecap: round;
        stroke-linejoin: round;
        stroke-width: .62px;
      }

      .cls-3 {
        stroke: #f3eadf;
      }

      .cls-4 {
        stroke-width: 1.2px;
      }

      .cls-5 {
        fill: #353637;
      }

      .cls-5, .cls-6, .cls-7 {
        stroke-width: 0px;
      }

      .cls-6 {
        fill: #222221;
      }

      .cls-7 {
        fill: #a98152;
      }
    </style>
  </defs>
  <g id="PRINT_2" data-name="PRINT 2">
    <g>
      <g>
        <g>
          <path class="cls-7" d="M145.84,235.79c7.63-2.08,15.82-2.59,23.43-.44,7.61,2.15,14.59,7.15,18.26,14.21,4.93-.72,10.31.94,13.9,4.42,3.59,3.48,5.46,8.67,4.93,13.66,2.44-2.35,6.64-3.43,9.68-1.96.8.39,1.52.92,2.18,1.52,1.54,1.42,2.72,3.23,3.39,5.22,3.6-7.3,10.44-13.14,18.15-15.59,7.71-2.46,16.28-1.88,23.75,1.25,7.47,3.13,13.85,8.72,18.29,15.54,1.82,2.8,3.33,5.79,4.83,8.78h-142.28s2.89-12.23,2.89-24.22-1.41-22.39-1.41-22.39Z"/>
          <g>
            <path class="cls-1" d="M170.01,268.61c.7,2.03-.23,4.38-1.86,5.78-2.71,2.33-7.11,2.16-9.87-.11-2.76-2.27-3.82-6.26-2.92-9.72.9-3.46,3.58-6.31,6.81-7.83,3.49-1.63,7.65-1.77,11.24-.38,3.59,1.39,6.57,4.3,8.05,7.86,3.02-.6,6.6.01,8.95,2.01,2.34,2,3.71,5.1,3.59,8.18"/>
            <path class="cls-1" d="M150.77,240.56c5.96-1.92,12.24-2.27,18.24-.48,6,1.78,10.43,6.02,13.59,11.09"/>
            <path class="cls-1" d="M277.16,281.27c-2.4-6.05-6.69-11.38-12.29-14.1"/>
            <path class="cls-1" d="M218.46,275.71c1-1.21,2.49-1.99,4.04-2.14,1.56-.14,3.17.36,4.36,1.37"/>
            <path class="cls-1" d="M207.83,270.71c-1.37-1.56-3.44-2.49-5.52-2.46"/>
            <path class="cls-1" d="M154.17,249.04c3.35-2.24,7.51-3.25,11.52-2.8"/>
            <path class="cls-1" d="M160.59,270.17c-.56-.9-.8-2-.67-3.05.09-.68.33-1.35.75-1.89.96-1.28,2.73-1.75,4.32-1.55.96.12,1.98.53,2.43,1.38"/>
            <path class="cls-1" d="M166.25,281.7c3.91-.2,7.61-2.69,9.29-6.23,1.67-3.54,1.23-7.98-1.09-11.13"/>
          </g>
        </g>
        <g>
          <path class="cls-7" d="M.46,35.29c9.09.05,17.65,5.51,22.69,13.07,5.04,7.56,6.83,16.96,6.35,26.03,7.04.95,13.39,6.58,15.53,13.35,2.14,6.78,1.03,14.27-1.8,20.79,8.18,7.83,11.53,19.5,11.46,30.83-.08,11.53-3.56,23.25-10.99,32.07-7.43,8.82-19.03,14.37-30.5,13.24.27,4.55-.8,8.87-2.85,12.94-2.05,4.07-5.84,7.95-10.01,9.81l.12-172.13Z"/>
          <g>
            <path class="cls-1" d="M42.99,108.76c.26-.13.09-.52-.11-.73-5.17-5.42-13-8.16-20.43-7.17"/>
            <path class="cls-1" d="M21.88,120.15c-4.68,1.62-8.31,5.94-9.09,10.83-.79,4.89,1.31,10.13,5.24,13.13,2.43,1.85,5.6,2.87,8.6,2.27,3-.6,5.68-3.01,6.15-6.03.47-3.02-1.67-6.34-4.7-6.76"/>
            <path class="cls-1" d="M42.57,117.5c5.39,8.64,6.8,19.65,3.76,29.37"/>
            <path class="cls-1" d="M42.22,158.81c-4.52,10.27-15.67,17.24-26.89,16.79"/>
            <path class="cls-1" d="M25.06,72.3c2.87,1.19,4.96,4.08,5.2,7.19"/>
            <path class="cls-1" d="M.46,40.46c5.11.34,10.09,2.38,13.97,5.71,3.88,3.33,6.65,7.95,7.76,12.94"/>
            <path class="cls-1" d="M38.15,92.31c.13.11.17.3.2.47.57,3.53-.01,7.23-1.64,10.41"/>
            <path class="cls-1" d="M.36,72.47c2.79,1.08,5.01,3.35,6.44,5.97,1.43,2.62,2.13,5.59,2.49,8.56.53,4.43.33,8.31-1,12.57-1.32,4.26-4.18,8.44-7.7,9.99"/>
            <path class="cls-1" d="M4.34,146.41c1.57,4.67,4.93,8.72,9.23,11.13,4.3,2.41,9.51,3.15,14.31,2.04"/>
            <path class="cls-1" d="M19.31,139.41c-2.41-2.96-2.78-7.42-.89-10.73,1.89-3.32,5.91-5.27,9.69-4.7,3.77.57,7.05,3.61,7.88,7.34"/>
            <path class="cls-1" d="M7.75,162.72c1.91,2.02,4.37,3.51,7.04,4.27"/>
            <path class="cls-1" d="M.77,57.7c4.59,1.12,8.39,4.97,9.47,9.57"/>
          </g>
        </g>
        <g>
          <path class="cls-5" d="M.41,173.09c10.68-7.49,24.47-10.88,37.16-7.84,12.69,3.04,23.83,12.91,27.14,25.53,4.9-3.58,14.2-4.51,20.06-2.92,5.85,1.59,10.89,5.95,13.3,11.52,16.47-7.46,39.95-1.11,50.33,13.69,10.38,14.8,10.25,35.66,1.35,51.39,2.08,0,6.36.4,9.2,2.42,5.36,3.82,6.81,9.45,5.93,16.04H.41v-109.84Z"/>
          <g>
            <path class="cls-1" d="M99.74,198.75c10.1-2.9,23.19-.15,31.35,6.26,8.17,6.41,13.07,16.48,13.3,26.62.11,4.66-.71,9.37-2.75,13.59-3.56,7.34-10.3,13.85-20.14,14.9-9.85,1.05-18.21-3.48-22.93-10.19-4.72-6.71-4.82-16.24.06-22.85,4.88-6.6,14.53-9.63,22.39-6.72"/>
            <path class="cls-1" d="M.68,215.57c10.21-4.98,22.5-6.16,33.03-1.89,10.53,4.27,18.82,14.35,19.7,25.67,5.24-1.17,11.72-.95,16.14,2.1,4.77,3.3,7.4,8.7,7.21,14.07,6.4,0,13.12,2.28,17.2,8.27,3.56,5.23,3.84,13.64,1.7,19.14"/>
            <path class="cls-1" d="M11.76,278.29c-2.55-2.37-3.45-6.72-2.44-10.12,1.01-3.4,3.76-6.11,6.99-7.28,3.23-1.17,6.87-1.34,10.03.05,2.75,1.2,5.46,4.68,5.46,8.19"/>
            <path class="cls-1" d="M114.53,250.07c5.81,1.73,12.56-.89,15.92-5.94,3.36-5.05,3.26-12.09-.02-17.19"/>
            <path class="cls-1" d="M55.56,191.23c2.75-.22,5.57.03,8.13,1.07,2.55,1.04,4.82,2.92,6.01,5.41"/>
            <path class="cls-1" d="M93.23,202.52c2.7-2.22,7.07-2.01,9.55.45"/>
            <path class="cls-1" d="M148.33,245.91c5.22-12.24,3.76-27.34-8.74-41.51"/>
            <path class="cls-1" d="M147.25,274.99c1.88.09,3.7.94,4.99,2.3,1.29,1.36,2.03,3.24,2.02,5.11"/>
            <path class="cls-1" d="M10.4,251.32c6.94-3.43,15.48-3.41,22.41.05,6.92,3.46,12.06,10.29,13.47,17.9,4.48-.88,9.64-.88,13.61,1.39,3.97,2.27,6.87,7.18,6.74,11.75"/>
            <path class="cls-1" d="M.89,201.21c7.89-3.83,16.76-5.93,25.49-5.03,8.73.9,17.26,4.98,22.74,11.83"/>
            <path class="cls-1" d="M150.72,262.67c-3.48,6.02-10.67,11.49-17.31,12.79"/>
            <path class="cls-1" d="M43.66,236.93c4.34,0,8.52,1.57,11.06,4.83,1.33,1.71,2.16,3.9,2.64,6.5"/>
            <path class="cls-1" d="M87.58,282.93c2.44-4.94,2.17-11.13-.7-15.84"/>
            <path class="cls-1" d="M.88,193.61c3.7-2.64,8.12-4.28,12.65-4.67"/>
            <path class="cls-1" d="M.41,182.39c5.15-4.46,12.51-8.34,19.26-9.34,4.95-.74,10.02-.91,14.93.06,4.91.97,9.65,3.12,13.25,6.59"/>
          </g>
        </g>
      </g>
      <g>
        <g>
          <path class="cls-7" d="M578.65,143.09c-2-7.34-2.49-15.2-.42-22.52,2.07-7.32,6.87-14.02,13.66-17.55-.69-4.74.9-9.91,4.25-13.36,3.34-3.45,8.33-5.25,13.13-4.74-2.26-2.34-3.3-6.38-1.88-9.3.37-.77.88-1.46,1.46-2.1,1.36-1.48,3.11-2.62,5.02-3.26-7.02-3.46-12.62-10.03-14.99-17.45-2.36-7.41-1.8-15.64,1.2-22.83,3.01-7.18,8.38-13.31,14.93-17.58,2.69-1.75,5.57-3.2,8.44-4.64v136.75s-11.75-2.78-23.28-2.78-21.52,1.35-21.52,1.35Z"/>
          <g>
            <path class="cls-4" d="M610.2,119.86c1.96-.67,4.21.22,5.56,1.79,2.24,2.6,2.07,6.83-.11,9.48-2.18,2.65-6.02,3.67-9.34,2.81-3.32-.87-6.07-3.44-7.52-6.55-1.57-3.36-1.7-7.35-.36-10.81,1.34-3.45,4.14-6.31,7.56-7.73-.58-2.91,0-6.34,1.93-8.6,1.92-2.25,4.9-3.56,7.86-3.45"/>
            <path class="cls-4" d="M583.24,138.36c-1.84-5.73-2.18-11.76-.46-17.53,1.71-5.77,5.78-10.02,10.66-13.06"/>
            <path class="cls-4" d="M622.36,16.88c-5.81,2.31-10.93,6.43-13.55,11.81"/>
            <path class="cls-4" d="M617.03,73.3c-1.16-.96-1.92-2.39-2.05-3.89s.35-3.04,1.32-4.19"/>
            <path class="cls-4" d="M612.22,83.52c-1.5,1.32-2.39,3.3-2.36,5.3"/>
            <path class="cls-4" d="M591.39,135.09c-2.15-3.22-3.13-7.22-2.69-11.07"/>
            <path class="cls-4" d="M611.7,128.92c-.86.54-1.92.77-2.93.64-.65-.09-1.29-.32-1.82-.72-1.23-.93-1.69-2.62-1.49-4.15.12-.93.51-1.9,1.33-2.34"/>
            <path class="cls-4" d="M622.78,123.48c-.2-3.76-2.59-7.32-5.99-8.92-3.4-1.61-7.67-1.19-10.69,1.05"/>
          </g>
        </g>
        <g>
          <path class="cls-7" d="M385.95,282.82c.05-8.73,5.3-16.96,12.56-21.81,7.27-4.85,16.3-6.57,25.02-6.1.91-6.77,6.32-12.87,12.84-14.93,6.51-2.06,13.72-.99,19.98,1.73,7.53-7.86,18.75-11.09,29.63-11.01,11.08.08,22.35,3.43,30.82,10.57,8.48,7.14,13.81,18.29,12.72,29.31,4.37-.26,8.52.77,12.43,2.73,3.91,1.97,7.64,5.62,9.43,9.62l-165.44-.11Z"/>
          <g>
            <path class="cls-4" d="M456.56,241.95c-.12-.25-.5-.08-.7.11-5.21,4.97-7.85,12.5-6.89,19.63"/>
            <path class="cls-4" d="M467.51,262.23c1.56,4.5,5.71,7.99,10.41,8.74,4.7.76,9.74-1.25,12.62-5.04,1.78-2.33,2.76-5.38,2.18-8.26-.58-2.88-2.89-5.46-5.79-5.91-2.9-.45-6.1,1.61-6.5,4.52"/>
            <path class="cls-4" d="M464.97,242.35c8.3-5.18,18.89-6.54,28.23-3.61"/>
            <path class="cls-4" d="M504.67,242.69c9.87,4.35,16.57,15.06,16.14,25.84"/>
            <path class="cls-4" d="M421.52,259.18c1.15-2.76,3.93-4.77,6.91-4.99"/>
            <path class="cls-4" d="M390.92,282.82c.33-4.91,2.29-9.69,5.49-13.43,3.2-3.73,7.64-6.39,12.44-7.46"/>
            <path class="cls-4" d="M440.75,246.6c.11-.13.28-.16.45-.19,3.39-.55,6.95.01,10.01,1.58"/>
            <path class="cls-4" d="M421.68,282.92c1.04-2.68,3.22-4.82,5.74-6.19,2.52-1.38,5.37-2.05,8.22-2.39,4.26-.51,7.98-.31,12.08.96,4.09,1.27,8.11,4.02,9.61,7.4"/>
            <path class="cls-4" d="M492.75,279.1c4.49-1.51,8.38-4.73,10.69-8.87,2.31-4.13,3.03-9.14,1.96-13.75"/>
            <path class="cls-4" d="M486.02,264.71c-2.84,2.32-7.13,2.67-10.31.86-3.19-1.81-5.07-5.68-4.52-9.31.54-3.63,3.47-6.77,7.05-7.58"/>
            <path class="cls-4" d="M508.43,275.82c1.94-1.84,3.37-4.2,4.11-6.77"/>
            <path class="cls-4" d="M407.49,282.53c1.08-4.41,4.77-8.07,9.19-9.1"/>
          </g>
        </g>
        <g>
          <path class="cls-5" d="M518.39,282.87c-7.2-10.27-10.45-23.52-7.54-35.71,2.92-12.19,12.41-22.9,24.54-26.08-3.44-4.71-4.33-13.65-2.8-19.28,1.53-5.63,5.72-10.47,11.07-12.79-7.17-15.83-1.07-38.4,13.16-48.38,14.23-9.97,34.27-9.86,49.39-1.3,0-2,.39-6.12,2.33-8.85,3.67-5.15,9.08-6.55,15.42-5.7v158.08h-105.57Z"/>
          <g>
            <path class="cls-4" d="M543.05,187.4c-2.78-9.7-.15-22.29,6.01-30.13,6.16-7.85,15.84-12.56,25.59-12.78,4.48-.1,9.01.68,13.06,2.64,7.06,3.42,13.31,9.9,14.32,19.35,1.01,9.47-3.35,17.51-9.8,22.04-6.45,4.54-15.61,4.63-21.96-.05-6.35-4.69-9.25-13.97-6.46-21.52"/>
            <path class="cls-4" d="M559.23,282.62c-4.79-9.81-5.92-21.63-1.82-31.75,4.1-10.12,13.79-18.09,24.68-18.93-1.13-5.04-.91-11.26,2.02-15.51,3.17-4.59,8.36-7.11,13.52-6.93,0-6.15,2.2-12.61,7.95-16.53,5.03-3.42,13.11-3.69,18.39-1.63"/>
            <path class="cls-4" d="M619.51,271.96c-2.28,2.45-6.46,3.31-9.73,2.34-3.27-.97-5.87-3.61-7-6.72-1.12-3.11-1.28-6.61.04-9.64,1.16-2.64,4.49-5.25,7.87-5.25"/>
            <path class="cls-4" d="M592.38,173.19c1.66-5.59-.85-12.07-5.7-15.3-4.85-3.23-11.62-3.13-16.53.02"/>
            <path class="cls-4" d="M535.83,229.86c-.21-2.64.03-5.36,1.03-7.81,1-2.46,2.81-4.64,5.2-5.77"/>
            <path class="cls-4" d="M546.68,193.66c-2.13-2.59-1.93-6.79.43-9.18"/>
            <path class="cls-4" d="M588.39,140.7c-11.76-5.01-26.27-3.61-39.89,8.4"/>
            <path class="cls-4" d="M616.33,141.74c.09-1.8.9-3.56,2.21-4.8,1.31-1.24,3.11-1.95,4.91-1.94"/>
            <path class="cls-4" d="M593.58,273.27c-3.3-6.67-3.28-14.88.05-21.53,3.33-6.65,9.89-11.59,17.21-12.95-.85-4.31-.84-9.27,1.34-13.08,2.18-3.81,6.9-6.61,11.3-6.48"/>
            <path class="cls-4" d="M545.42,282.41c-3.69-7.58-5.7-16.11-4.83-24.5.87-8.39,4.78-16.59,11.37-21.85"/>
            <path class="cls-4" d="M604.49,138.41c5.79,3.35,11.05,10.25,12.29,16.63"/>
            <path class="cls-4" d="M579.75,241.31c0-4.17,1.51-8.19,4.64-10.63,1.64-1.28,3.75-2.07,6.24-2.54"/>
            <path class="cls-4" d="M623.97,199.09c-4.75-2.35-10.7-2.08-15.22.68"/>
            <path class="cls-4" d="M538.11,282.42c-2.54-3.56-4.11-7.8-4.49-12.16"/>
            <path class="cls-4" d="M527.33,282.87c-4.29-4.95-8.01-12.03-8.98-18.51-.71-4.75-.87-9.63.05-14.35.93-4.72,3-9.28,6.33-12.74"/>
          </g>
        </g>
      </g>
    </g>
    <g>
      <g>
        <path class="cls-6" d="M165.19,127.32s17.5-20.67,5.92-51.91c0,0-25.24,22.11-5.92,51.91Z"/>
        <path class="cls-6" d="M185.05,151.75s17.5-20.67,5.92-51.91c0,0-25.24,22.11-5.92,51.91Z"/>
        <path class="cls-6" d="M144.63,94.4s20.24-17.99,13.18-50.55c0,0-28.11,18.32-13.18,50.55Z"/>
        <path class="cls-6" d="M143,90.83s-11.14-24.68-44.32-27.66c0,0,9.11,32.3,44.32,27.66Z"/>
        <path class="cls-6" d="M160.86,121.41s-17.32-20.82-50.1-14.83c0,0,17.39,28.7,50.1,14.83Z"/>
        <path class="cls-6" d="M182.23,148.66s-17.32-20.82-50.1-14.83c0,0,17.39,28.7,50.1,14.83Z"/>
        <path class="cls-3" d="M165.19,127.32s-1.11-33.03,5.92-51.91"/>
        <path class="cls-3" d="M98.67,63.17s16.86,16.33,44.32,27.66"/>
        <path class="cls-3" d="M182.23,148.66s-28.27-4.09-50.1-14.83"/>
        <path class="cls-3" d="M110.77,106.58s23.27,12.37,50.1,14.83"/>
        <path class="cls-3" d="M185.05,151.75s-1.36-25,5.92-51.91"/>
        <path class="cls-3" d="M144.63,94.4s3.21-31.62,13.18-50.55"/>
        <path class="cls-2" d="M195.82,162.72s-45.1-40.34-68.83-108.41"/>
        <path class="cls-6" d="M130.58,63.97s9.34-25.42-12.25-50.79c0,0-16.13,29.42,12.25,50.79Z"/>
        <path class="cls-3" d="M130.58,63.97s-12.52-29.84-12.25-50.79"/>
      </g>
      <g>
        <path class="cls-6" d="M468.08,125.76s-17.5-20.67-5.92-51.91c0,0,25.24,22.11,5.92,51.91Z"/>
        <path class="cls-6" d="M448.21,150.19s-17.5-20.67-5.92-51.91c0,0,25.24,22.11,5.92,51.91Z"/>
        <path class="cls-6" d="M488.63,92.84s-20.24-17.99-13.18-50.55c0,0,28.11,18.32,13.18,50.55Z"/>
        <path class="cls-6" d="M490.27,89.27s11.14-24.68,44.32-27.66c0,0-9.11,32.3-44.32,27.66Z"/>
        <path class="cls-6" d="M472.4,119.85s17.32-20.82,50.1-14.83c0,0-17.39,28.7-50.1,14.83Z"/>
        <path class="cls-6" d="M451.04,147.1s17.32-20.82,50.1-14.83c0,0-17.39,28.7-50.1,14.83Z"/>
        <path class="cls-3" d="M468.08,125.76s1.11-33.03-5.92-51.91"/>
        <path class="cls-3" d="M534.59,61.61s-16.86,16.33-44.32,27.66"/>
        <path class="cls-3" d="M451.04,147.1s28.27-4.09,50.1-14.83"/>
        <path class="cls-3" d="M522.5,105.02s-23.27,12.37-50.1,14.83"/>
        <path class="cls-3" d="M448.21,150.19s1.36-25-5.92-51.91"/>
        <path class="cls-3" d="M488.63,92.84s-3.21-31.62-13.18-50.55"/>
        <path class="cls-2" d="M437.45,161.16s45.1-40.34,68.83-108.41"/>
        <path class="cls-6" d="M502.69,62.41s-9.34-25.42,12.25-50.79c0,0,16.13,29.42-12.25,50.79Z"/>
        <path class="cls-3" d="M502.69,62.41s12.52-29.84,12.25-50.79"/>
      </g>
    </g>
    <g>
      <polygon class="cls-7" points="337.3 149.91 321.65 152.44 327.17 161.55 318.06 156.03 315.52 171.68 312.99 156.03 303.88 161.55 309.4 152.44 293.75 149.91 309.4 147.37 303.88 138.26 312.99 143.78 315.52 128.13 318.06 143.78 327.17 138.26 321.65 147.37 337.3 149.91"/>
      <polygon class="cls-7" points="344.9 213.33 323.78 216.75 331.24 229.04 318.94 221.59 315.52 242.71 312.1 221.59 299.81 229.04 307.26 216.75 286.14 213.33 307.26 209.9 299.81 197.61 312.1 205.06 315.52 183.95 318.94 205.06 331.24 197.61 323.78 209.9 344.9 213.33"/>
      <polygon class="cls-7" points="328.59 42.59 319.2 44.11 322.51 49.58 317.04 46.27 315.52 55.66 314 46.27 308.53 49.58 311.85 44.11 302.46 42.59 311.85 41.07 308.53 35.6 314 38.92 315.52 29.53 317.04 38.92 322.51 35.6 319.2 41.07 328.59 42.59"/>
      <polygon class="cls-7" points="323.45 7.93 317.75 8.86 319.76 12.17 316.45 10.16 315.52 15.86 314.6 10.16 311.28 12.17 313.29 8.86 307.59 7.93 313.29 7.01 311.28 3.69 314.6 5.7 315.52 0 316.45 5.7 319.76 3.69 317.75 7.01 323.45 7.93"/>
      <path class="cls-7" d="M312.16,106.06c27.85,0,50.42,22.57,50.42,50.42,0,2.5-.24,4.93-.59,7.33,4.88-8.45,7.71-18.23,7.71-28.68,0-31.78-25.76-57.54-57.54-57.54s-57.54,25.76-57.54,57.54c0,10.46,2.83,20.23,7.71,28.68-.35-2.4-.59-4.83-.59-7.33,0-27.85,22.57-50.42,50.42-50.42Z"/>
    </g>
  </g>
</svg>