<?xml version="1.0" encoding="utf-8"?>
<!-- Generator: Adobe Illustrator 27.5.0, SVG Export Plug-In . SVG Version: 6.00 Build 0)  -->
<svg version="1.1" xmlns="http://www.w3.org/2000/svg" xmlns:xlink="http://www.w3.org/1999/xlink" x="0px" y="0px"
	 viewBox="0 0 750 500" style="enable-background:new 0 0 750 500;" xml:space="preserve">
<g id="BACKGROUND">
	<g>
		<rect style="fill:#403E4D;" width="750" height="500"/>
	</g>
</g>
<g id="OBJECTS">
	<g>
		<g>
			<g>
				<path style="fill:#D69EBF;" d="M381.132,99.963l-9.076-0.408c-0.328-0.014-0.485-0.173-0.472-0.476l0.087-1.928
					c0.014-0.303,0.184-0.447,0.512-0.432l2.874,0.129l0.966-21.481l-2.874-0.13c-0.327-0.014-0.485-0.173-0.471-0.476l0.087-1.928
					c0.013-0.303,0.184-0.446,0.511-0.432l9.076,0.408c0.327,0.015,0.485,0.174,0.472,0.476l-0.087,1.929
					c-0.014,0.302-0.185,0.446-0.512,0.432l-2.912-0.131l-0.965,21.481l2.912,0.131c0.327,0.015,0.485,0.173,0.471,0.476
					l-0.087,1.928C381.63,99.834,381.459,99.979,381.132,99.963z"/>
			</g>
			<g>
				<path style="fill:#D69EBF;" d="M463.281,127.302l-7.414-5.251c-0.268-0.19-0.314-0.408-0.139-0.656l1.116-1.575
					c0.175-0.247,0.396-0.276,0.664-0.087l2.348,1.663l12.427-17.548l-2.348-1.663c-0.268-0.189-0.314-0.408-0.139-0.655
					l1.116-1.576c0.175-0.247,0.396-0.276,0.664-0.086l7.415,5.251c0.267,0.189,0.313,0.408,0.139,0.655l-1.116,1.576
					c-0.175,0.247-0.397,0.276-0.664,0.087l-2.379-1.685L462.544,123.3l2.379,1.685c0.267,0.189,0.314,0.408,0.139,0.656
					l-1.116,1.575C463.771,127.463,463.548,127.492,463.281,127.302z"/>
			</g>
			<g>
				<path style="fill:#D69EBF;" d="M474.297,136.451l-7.1-5.67c-0.256-0.205-0.29-0.426-0.101-0.662l1.205-1.509
					c0.189-0.236,0.411-0.252,0.668-0.048l2.248,1.796l13.417-16.803l-2.248-1.795c-0.256-0.205-0.29-0.426-0.101-0.662l1.205-1.508
					c0.189-0.237,0.411-0.253,0.668-0.048l7.1,5.669c0.256,0.204,0.29,0.426,0.101,0.662l-1.205,1.508
					c-0.189,0.237-0.412,0.253-0.668,0.048l-2.278-1.819l-13.417,16.803l2.277,1.819c0.256,0.204,0.29,0.426,0.101,0.662
					l-1.205,1.508C474.775,136.639,474.552,136.655,474.297,136.451z"/>
			</g>
			<g>
				<path style="fill:#D69EBF;" d="M515.218,191.217l-3.938-8.188c-0.142-0.296-0.076-0.509,0.197-0.64l1.739-0.837
					c0.273-0.131,0.481-0.049,0.623,0.246l1.247,2.593l19.378-9.319l-1.247-2.593c-0.142-0.296-0.077-0.509,0.196-0.64l1.739-0.837
					c0.273-0.131,0.481-0.049,0.623,0.247l3.937,8.188c0.142,0.296,0.076,0.509-0.196,0.64l-1.74,0.837
					c-0.273,0.131-0.481,0.048-0.623-0.246l-1.264-2.628l-19.378,9.319l1.264,2.627c0.142,0.296,0.077,0.509-0.196,0.64
					l-1.739,0.837C515.567,191.596,515.36,191.513,515.218,191.217z"/>
			</g>
			<g>
				<path style="fill:#D69EBF;" d="M520.618,205.017l-3.024-8.568c-0.109-0.309-0.021-0.514,0.264-0.615l1.82-0.643
					c0.286-0.101,0.483,0.003,0.592,0.313l0.958,2.713l20.276-7.159l-0.958-2.713c-0.109-0.31-0.021-0.515,0.264-0.615l1.82-0.643
					c0.286-0.1,0.483,0.004,0.592,0.313l3.025,8.568c0.109,0.309,0.021,0.514-0.264,0.615l-1.82,0.643
					c-0.286,0.101-0.483-0.004-0.592-0.313l-0.97-2.749l-20.276,7.159l0.97,2.749c0.109,0.309,0.021,0.515-0.264,0.615l-1.82,0.643
					C520.925,205.43,520.727,205.326,520.618,205.017z"/>
			</g>
			<g>
				<path style="fill:#D69EBF;" d="M523.642,219.363l-2.052-8.851c-0.075-0.32,0.036-0.514,0.331-0.582l1.881-0.436
					c0.295-0.069,0.48,0.057,0.554,0.377l0.65,2.803l20.946-4.859l-0.65-2.802c-0.074-0.32,0.036-0.514,0.331-0.582l1.88-0.437
					c0.295-0.069,0.48,0.057,0.554,0.377l2.053,8.851c0.074,0.319-0.036,0.513-0.332,0.582l-1.88,0.436
					c-0.295,0.068-0.48-0.058-0.553-0.377l-0.659-2.839l-20.946,4.858l0.659,2.84c0.073,0.319-0.036,0.513-0.331,0.582l-1.881,0.436
					C523.901,219.807,523.716,219.681,523.642,219.363z"/>
			</g>
			<g>
				<path style="fill:#D69EBF;" d="M524.958,276.353l1.72-8.921c0.062-0.323,0.242-0.455,0.539-0.397l1.896,0.366
					c0.298,0.057,0.415,0.247,0.353,0.57l-0.544,2.824l21.113,4.072l0.544-2.824c0.062-0.323,0.242-0.455,0.539-0.397l1.896,0.366
					c0.297,0.057,0.415,0.247,0.353,0.569l-1.72,8.921c-0.062,0.322-0.242,0.455-0.539,0.397l-1.896-0.366
					c-0.297-0.057-0.415-0.248-0.353-0.57l0.552-2.862l-21.113-4.072l-0.552,2.862c-0.062,0.322-0.242,0.455-0.539,0.397
					l-1.896-0.366C525.014,276.865,524.896,276.675,524.958,276.353z"/>
			</g>
			<g>
				<path style="fill:#D69EBF;" d="M519.1,295.937l0.437-1.41c0.142-0.458,0.359-0.774,0.651-0.947
					c0.292-0.174,0.733-0.275,1.323-0.303l24.416-1.659l0.719-2.314c0.097-0.314,0.29-0.425,0.579-0.336l1.844,0.572
					c0.289,0.09,0.385,0.291,0.289,0.605l-2.525,8.135c-0.089,0.289-0.279,0.389-0.568,0.299l-1.844-0.572
					c-0.289-0.09-0.389-0.279-0.3-0.568l0.763-2.458l-21.693,1.315l-0.068,0.217l17.138,13.364l0.763-2.459
					c0.098-0.314,0.29-0.426,0.58-0.336l1.844,0.572c0.289,0.09,0.385,0.291,0.288,0.605l-2.524,8.135
					c-0.097,0.312-0.29,0.425-0.579,0.335l-1.845-0.572c-0.289-0.09-0.385-0.292-0.288-0.604l0.74-2.387l-19.21-15.117
					c-0.454-0.326-0.76-0.639-0.918-0.939C518.955,296.81,518.951,296.419,519.1,295.937z"/>
			</g>
			<g>
				<path style="fill:#D69EBF;" d="M469.154,366.878l1.054-1.034c0.343-0.335,0.683-0.511,1.022-0.525
					c0.34-0.015,0.776,0.105,1.308,0.36l22.284,10.117l1.729-1.697c0.234-0.23,0.457-0.237,0.669-0.02l1.352,1.378
					c0.212,0.216,0.201,0.439-0.033,0.669l-6.08,5.966c-0.217,0.212-0.43,0.21-0.643-0.007l-1.352-1.378
					c-0.212-0.217-0.21-0.43,0.007-0.642l1.837-1.803l-19.723-9.129l-0.162,0.159l8.752,19.893l1.838-1.803
					c0.234-0.23,0.457-0.237,0.669-0.02l1.352,1.378c0.212,0.217,0.201,0.439-0.033,0.669l-6.08,5.965
					c-0.234,0.23-0.458,0.236-0.669,0.02l-1.352-1.379c-0.212-0.216-0.201-0.439,0.033-0.669l1.783-1.75l-9.746-22.418
					c-0.245-0.503-0.366-0.923-0.362-1.262C468.612,367.577,468.794,367.231,469.154,366.878z"/>
			</g>
			<g>
				<path style="fill:#D69EBF;" d="M388.873,400.372l1.474-0.087c0.479-0.028,0.851,0.063,1.116,0.275
					c0.266,0.212,0.516,0.589,0.749,1.132l10.154,22.267l2.418-0.144c0.328-0.019,0.501,0.122,0.518,0.425l0.115,1.927
					c0.017,0.302-0.137,0.463-0.465,0.483l-8.503,0.503c-0.302,0.018-0.462-0.124-0.48-0.426l-0.114-1.928
					c-0.018-0.302,0.125-0.462,0.426-0.48l2.57-0.152l-8.872-19.839l-0.227,0.013l-6.471,20.748l2.57-0.152
					c0.328-0.02,0.5,0.122,0.518,0.424l0.114,1.928c0.018,0.302-0.137,0.463-0.465,0.483l-8.503,0.503
					c-0.327,0.02-0.5-0.122-0.518-0.424l-0.114-1.928c-0.018-0.303,0.137-0.463,0.465-0.483l2.494-0.147l7.381-23.304
					c0.145-0.539,0.331-0.936,0.556-1.19C388.005,400.543,388.369,400.401,388.873,400.372z"/>
			</g>
			<g>
				<path style="fill:#D69EBF;" d="M365.158,400.195l9.075,0.434c0.329,0.016,0.485,0.175,0.47,0.477l-0.092,1.928
					c-0.014,0.302-0.185,0.446-0.513,0.43l-2.874-0.138l-1.028,21.478l2.873,0.138c0.328,0.016,0.484,0.174,0.47,0.477l-0.092,1.928
					c-0.015,0.302-0.185,0.446-0.513,0.43l-9.075-0.434c-0.327-0.016-0.484-0.174-0.47-0.478l0.092-1.928
					c0.014-0.302,0.185-0.446,0.513-0.43l2.912,0.14l1.028-21.478l-2.912-0.139c-0.327-0.015-0.484-0.174-0.47-0.477l0.093-1.929
					C364.659,400.322,364.831,400.179,365.158,400.195z"/>
			</g>
			<g>
				<path style="fill:#D69EBF;" d="M298.543,380.904l1.236,0.808c0.401,0.263,0.646,0.558,0.732,0.886
					c0.087,0.329,0.063,0.78-0.072,1.355l-5.11,23.932l2.028,1.326c0.275,0.18,0.329,0.396,0.163,0.649l-1.056,1.616
					c-0.166,0.254-0.386,0.29-0.66,0.111l-7.129-4.661c-0.253-0.166-0.297-0.375-0.132-0.629l1.056-1.616
					c0.166-0.253,0.375-0.297,0.629-0.132l2.154,1.409l4.694-21.22l-0.191-0.124l-17.557,12.808l2.154,1.409
					c0.275,0.179,0.329,0.396,0.164,0.649l-1.056,1.615c-0.166,0.254-0.386,0.291-0.66,0.111l-7.129-4.662
					c-0.274-0.179-0.329-0.396-0.164-0.65l1.057-1.616c0.166-0.253,0.386-0.29,0.661-0.111l2.091,1.367l19.812-14.32
					c0.438-0.347,0.823-0.555,1.155-0.625C297.745,380.524,298.121,380.628,298.543,380.904z"/>
			</g>
			<g>
				<path style="fill:#D69EBF;" d="M279.307,366.477l7.029,5.756c0.254,0.208,0.284,0.429,0.093,0.664l-1.223,1.494
					c-0.192,0.234-0.415,0.247-0.669,0.039l-2.226-1.823l-13.624,16.635l2.226,1.823c0.254,0.208,0.284,0.429,0.093,0.664
					l-1.223,1.494c-0.192,0.234-0.414,0.247-0.669,0.039l-7.029-5.756c-0.254-0.207-0.285-0.429-0.093-0.664l1.223-1.493
					c0.191-0.234,0.414-0.247,0.668-0.04l2.255,1.847l13.624-16.635l-2.255-1.847c-0.253-0.207-0.284-0.429-0.093-0.664l1.223-1.493
					C278.831,366.282,279.053,366.269,279.307,366.477z"/>
			</g>
			<g>
				<path style="fill:#D69EBF;" d="M268.901,357.389l6.444,6.405c0.233,0.231,0.243,0.454,0.029,0.669l-1.361,1.369
					c-0.213,0.215-0.436,0.207-0.669-0.025l-2.04-2.028l-15.157,15.252l2.041,2.028c0.232,0.231,0.242,0.454,0.029,0.669
					l-1.361,1.369c-0.214,0.215-0.437,0.207-0.669-0.025l-6.445-6.404c-0.232-0.231-0.242-0.454-0.029-0.67l1.361-1.369
					c0.213-0.215,0.437-0.206,0.669,0.025l2.067,2.055l15.157-15.252l-2.067-2.055c-0.233-0.23-0.243-0.454-0.029-0.669l1.361-1.369
					C268.445,357.15,268.669,357.158,268.901,357.389z"/>
			</g>
			<g>
				<path style="fill:#D69EBF;" d="M243.233,315.75l0.667,1.318c0.217,0.427,0.281,0.805,0.192,1.133
					c-0.088,0.328-0.334,0.708-0.739,1.139l-16.377,18.184l1.094,2.161c0.148,0.293,0.088,0.507-0.183,0.644l-1.722,0.872
					c-0.27,0.137-0.479,0.06-0.628-0.233l-3.849-7.599c-0.137-0.27-0.071-0.473,0.2-0.61l1.723-0.873
					c0.27-0.136,0.474-0.07,0.61,0.201l1.164,2.296l14.661-16.042l-0.103-0.203l-21.608,2.332l1.164,2.296
					c0.148,0.293,0.087,0.507-0.183,0.644l-1.723,0.872c-0.27,0.137-0.479,0.059-0.628-0.234l-3.849-7.598
					c-0.148-0.292-0.087-0.507,0.183-0.644l1.723-0.872c0.27-0.137,0.479-0.059,0.628,0.233l1.129,2.229l24.315-2.515
					c0.553-0.082,0.991-0.07,1.313,0.035C242.73,315.022,243.005,315.3,243.233,315.75z"/>
			</g>
			<g>
				<path style="fill:#D69EBF;" d="M232.726,292.764l3.21,8.499c0.116,0.308,0.032,0.514-0.25,0.621l-1.806,0.682
					c-0.283,0.107-0.483,0.007-0.599-0.3l-1.017-2.691l-20.115,7.598l1.017,2.691c0.116,0.307,0.032,0.514-0.251,0.621l-1.806,0.682
					c-0.283,0.107-0.482,0.007-0.598-0.3l-3.211-8.499c-0.116-0.307-0.032-0.514,0.251-0.621l1.806-0.682
					c0.283-0.107,0.482-0.007,0.598,0.3l1.03,2.727l20.115-7.598l-1.03-2.727c-0.115-0.307-0.032-0.514,0.251-0.621l1.806-0.682
					C232.411,292.357,232.61,292.458,232.726,292.764z"/>
			</g>
			<g>
				<path style="fill:#D69EBF;" d="M228.333,280.705l2.253,8.801c0.082,0.319-0.025,0.515-0.318,0.59l-1.871,0.479
					c-0.293,0.075-0.48-0.046-0.561-0.364l-0.714-2.787l-20.831,5.331l0.714,2.788c0.082,0.318-0.025,0.514-0.318,0.59l-1.871,0.479
					c-0.293,0.075-0.481-0.046-0.562-0.364l-2.252-8.802c-0.081-0.317,0.025-0.514,0.318-0.59l1.871-0.479
					c0.293-0.075,0.481,0.047,0.562,0.364l0.722,2.824l20.831-5.332l-0.723-2.823c-0.081-0.318,0.025-0.515,0.318-0.59l1.871-0.479
					C228.064,280.265,228.252,280.387,228.333,280.705z"/>
			</g>
			<g>
				<path style="fill:#D69EBF;" d="M225.158,267.221l1.739,8.917c0.063,0.323-0.054,0.513-0.352,0.571l-1.895,0.369
					c-0.297,0.058-0.477-0.074-0.54-0.396l-0.551-2.824l-21.105,4.116l0.551,2.824c0.063,0.322-0.054,0.512-0.352,0.57l-1.895,0.37
					c-0.297,0.057-0.478-0.074-0.54-0.396l-1.74-8.917c-0.062-0.322,0.055-0.512,0.352-0.57l1.895-0.37
					c0.297-0.058,0.478,0.074,0.54,0.396l0.558,2.861l21.105-4.116l-0.558-2.861c-0.063-0.322,0.054-0.513,0.352-0.57l1.895-0.37
					C224.915,266.767,225.095,266.9,225.158,267.221z"/>
			</g>
			<g>
				<path style="fill:#D69EBF;" d="M230.433,211.655l-2.262,8.799c-0.082,0.318-0.27,0.439-0.563,0.364l-1.87-0.481
					c-0.294-0.076-0.399-0.272-0.317-0.59l0.716-2.787l-20.824-5.355l-0.717,2.786c-0.082,0.319-0.269,0.439-0.562,0.364
					l-1.87-0.481c-0.293-0.075-0.399-0.272-0.317-0.59l2.196-10.332c0.082-0.318,0.269-0.439,0.562-0.364l1.87,0.481
					c0.293,0.075,0.399,0.273,0.317,0.59l-0.66,4.356l20.825,5.355l0.725-2.823c0.082-0.317,0.27-0.439,0.563-0.363l1.869,0.48
					C230.41,211.141,230.515,211.338,230.433,211.655z"/>
			</g>
			<g>
				<path style="fill:#D69EBF;" d="M240.106,180.921l-3.238,8.529c-0.107,0.284-0.303,0.372-0.587,0.264l-1.805-0.685
					c-0.283-0.107-0.371-0.303-0.263-0.586l0.887-2.336l-10.477,2.743l5.948,9.183l0.9-2.371c0.117-0.306,0.316-0.406,0.599-0.299
					l1.805,0.685c0.283,0.108,0.366,0.316,0.25,0.622l-3.225,8.494c-0.116,0.307-0.316,0.406-0.599,0.299l-1.805-0.685
					c-0.283-0.108-0.366-0.314-0.25-0.622l1.035-2.725l-7.254-11.501l-12.861,3.904l-1.021,2.69
					c-0.116,0.307-0.316,0.406-0.599,0.299l-1.805-0.685c-0.284-0.107-0.366-0.314-0.25-0.621l3.225-8.494
					c0.116-0.307,0.316-0.406,0.599-0.299l1.805,0.685c0.283,0.108,0.366,0.315,0.25,0.622l-0.914,2.407l10.282-2.98l-5.714-9.053
					l-0.82,2.159c-0.107,0.283-0.303,0.371-0.586,0.263l-1.805-0.685c-0.283-0.107-0.371-0.303-0.263-0.586l3.239-8.53
					c0.108-0.283,0.302-0.371,0.586-0.263l1.805,0.685c0.283,0.108,0.371,0.303,0.263,0.586l-1.115,2.938l7.042,11.421l13.006-3.646
					l1.075-2.831c0.107-0.283,0.303-0.371,0.586-0.263l1.805,0.685C240.127,180.442,240.214,180.638,240.106,180.921z"/>
			</g>
			<g>
				<path style="fill:#D69EBF;" d="M295.966,121.144l-7.608,5.037c-0.252,0.167-0.462,0.124-0.629-0.128l-1.066-1.61
					c-0.167-0.252-0.124-0.463,0.128-0.63l2.084-1.379l-10.109-3.886l-0.528,10.928l2.115-1.4c0.273-0.181,0.494-0.145,0.661,0.107
					l1.065,1.609c0.167,0.253,0.114,0.47-0.159,0.651l-7.575,5.016c-0.274,0.181-0.494,0.145-0.661-0.107l-1.065-1.61
					c-0.167-0.252-0.114-0.469,0.16-0.65l2.43-1.609l0.82-13.574l-12.722-4.335l-2.399,1.588c-0.273,0.182-0.493,0.146-0.661-0.107
					l-1.066-1.61c-0.167-0.252-0.114-0.469,0.159-0.65l7.576-5.016c0.273-0.181,0.494-0.145,0.661,0.107l1.066,1.61
					c0.167,0.252,0.114,0.47-0.159,0.651l-2.147,1.421l10.09,3.581l0.643-10.687l-1.926,1.275c-0.252,0.167-0.463,0.124-0.629-0.128
					l-1.066-1.61c-0.167-0.252-0.124-0.463,0.128-0.63l7.607-5.036c0.253-0.167,0.463-0.124,0.63,0.128l1.066,1.61
					c0.167,0.252,0.124,0.463-0.128,0.629l-2.62,1.735l-0.946,13.384l12.69,4.629l2.526-1.672c0.252-0.167,0.462-0.125,0.629,0.128
					l1.066,1.61C296.261,120.767,296.218,120.977,295.966,121.144z"/>
			</g>
		</g>
		<g>
			<path style="fill:#EBD2E1;" d="M375.006,394.63c-79.676,0-144.497-64.821-144.497-144.497
				c0-79.676,64.821-144.497,144.497-144.497c79.67,0,144.485,64.821,144.485,144.497
				C519.491,329.809,454.676,394.63,375.006,394.63z M375.006,106.635c-79.125,0-143.497,64.372-143.497,143.497
				S295.881,393.63,375.006,393.63c79.118,0,143.485-64.372,143.485-143.497S454.124,106.635,375.006,106.635z"/>
		</g>
		<g>
			<g>
				<path style="fill:#EBD2E1;" d="M435.672,425.391c-0.207,0-0.4-0.13-0.473-0.336l-13.074-37.657
					c-0.09-0.261,0.048-0.546,0.309-0.637c0.263-0.089,0.546,0.048,0.637,0.309l13.074,37.657c0.09,0.261-0.048,0.546-0.309,0.637
					C435.781,425.382,435.726,425.391,435.672,425.391z"/>
			</g>
			<g>
				<path style="fill:#EBD2E1;" d="M327.774,114.6c-0.207,0-0.4-0.129-0.472-0.336l-13.445-38.728
					c-0.091-0.261,0.047-0.546,0.308-0.636c0.261-0.093,0.545,0.047,0.636,0.308l13.445,38.728c0.091,0.261-0.047,0.546-0.308,0.636
					C327.884,114.591,327.828,114.6,327.774,114.6z"/>
			</g>
			<g>
				<path style="fill:#EBD2E1;" d="M256.885,168.37c-0.099,0-0.198-0.029-0.285-0.09l-33.625-23.418
					c-0.227-0.158-0.283-0.469-0.125-0.696c0.157-0.227,0.469-0.283,0.696-0.124l33.625,23.418c0.227,0.158,0.283,0.469,0.124,0.696
					C257.198,168.296,257.043,168.37,256.885,168.37z"/>
			</g>
			<g>
				<path style="fill:#EBD2E1;" d="M526.746,356.309c-0.099,0-0.198-0.029-0.286-0.09l-33.629-23.42
					c-0.227-0.157-0.282-0.47-0.124-0.696c0.157-0.226,0.469-0.281,0.696-0.124l33.629,23.42c0.227,0.157,0.282,0.47,0.124,0.696
					C527.059,356.234,526.903,356.309,526.746,356.309z"/>
			</g>
			<g>
				<path style="fill:#EBD2E1;" d="M321.474,427.303c-0.048,0-0.097-0.007-0.145-0.022c-0.264-0.08-0.414-0.359-0.333-0.623
					l11.769-38.846c0.08-0.265,0.358-0.412,0.624-0.334c0.264,0.08,0.414,0.359,0.333,0.623l-11.769,38.846
					C321.887,427.164,321.689,427.303,321.474,427.303z"/>
			</g>
			<g>
				<path style="fill:#EBD2E1;" d="M416.752,112.809c-0.048,0-0.097-0.007-0.145-0.021c-0.265-0.08-0.414-0.359-0.334-0.624
					l11.772-38.857c0.08-0.264,0.36-0.413,0.623-0.333c0.265,0.08,0.414,0.359,0.334,0.624l-11.772,38.857
					C417.165,112.67,416.967,112.809,416.752,112.809z"/>
			</g>
			<g>
				<path style="fill:#EBD2E1;" d="M489.725,163.718c-0.15,0-0.3-0.068-0.398-0.198c-0.167-0.22-0.124-0.534,0.097-0.7
					l32.667-24.747c0.218-0.166,0.532-0.124,0.7,0.097c0.167,0.22,0.124,0.534-0.097,0.7l-32.667,24.747
					C489.937,163.685,489.831,163.718,489.725,163.718z"/>
			</g>
			<g>
				<path style="fill:#EBD2E1;" d="M227.993,361.991c-0.151,0-0.301-0.068-0.399-0.198c-0.167-0.22-0.124-0.533,0.097-0.7
					l32.276-24.451c0.219-0.168,0.534-0.123,0.7,0.097c0.167,0.22,0.124,0.533-0.097,0.7l-32.276,24.451
					C228.204,361.958,228.098,361.991,227.993,361.991z"/>
			</g>
			<g>
				<path style="fill:#EBD2E1;" d="M518.99,247.748c-0.271,0-0.494-0.218-0.5-0.49c-0.006-0.275,0.214-0.504,0.49-0.51l40.958-0.818
					c0.31-0.003,0.504,0.215,0.51,0.49c0.006,0.275-0.214,0.504-0.49,0.51L519,247.748
					C518.997,247.748,518.993,247.748,518.99,247.748z"/>
			</g>
			<g>
				<path style="fill:#EBD2E1;" d="M190.035,254.326c-0.271,0-0.495-0.218-0.5-0.49c-0.005-0.275,0.214-0.504,0.49-0.51
					l40.973-0.819c0.25,0.021,0.504,0.215,0.51,0.49s-0.214,0.504-0.49,0.51l-40.973,0.819
					C190.042,254.326,190.038,254.326,190.035,254.326z"/>
			</g>
		</g>
		<g>
			<path style="fill:#EBD2E1;" d="M375.04,435.695c-102.3,0-185.527-83.228-185.527-185.527c0-102.3,83.227-185.528,185.527-185.528
				c102.3,0,185.527,83.228,185.527,185.528C560.567,352.467,477.34,435.695,375.04,435.695z M375.04,65.639
				c-101.749,0-184.527,82.779-184.527,184.528s82.779,184.527,184.527,184.527c101.749,0,184.527-82.778,184.527-184.527
				S476.789,65.639,375.04,65.639z"/>
		</g>
	</g>
	<g>
		<g>
			<path style="fill:#EBD2E1;" d="M448.061,350.93H301.938c-0.217,0-0.409-0.14-0.476-0.346l-45.154-138.971
				c-0.067-0.206,0.006-0.432,0.182-0.559l118.216-85.889c0.176-0.128,0.412-0.128,0.588,0l118.216,85.889
				c0.175,0.127,0.248,0.353,0.182,0.559l-45.154,138.971C448.469,350.79,448.278,350.93,448.061,350.93z M302.302,349.93h145.396
				l44.93-138.28L375,126.188L257.372,211.65L302.302,349.93z"/>
		</g>
		<g>
			<g>
				<path style="fill:#EBD2E1;" d="M301.938,354.433c-0.824,0-1.648-0.256-2.352-0.767c-1.405-1.021-1.989-2.819-1.453-4.473
					l27.01-83.125l-70.711-51.374c-1.405-1.021-1.989-2.819-1.453-4.473c0.538-1.653,2.066-2.764,3.805-2.764h87.402l27.009-83.125
					c0.538-1.653,2.066-2.764,3.805-2.764c1.738,0,3.267,1.11,3.805,2.763l27.009,83.125h87.403c1.738,0,3.267,1.11,3.805,2.763
					c0.536,1.654-0.048,3.452-1.453,4.473l-70.712,51.375l27.01,83.124c0.536,1.653-0.048,3.451-1.453,4.473
					c-1.375,1-3.328,1-4.703,0L375,302.292l-70.71,51.374C303.587,354.177,302.762,354.433,301.938,354.433z M256.784,208.459
					c-1.304,0-2.451,0.833-2.854,2.073c-0.402,1.24,0.036,2.588,1.09,3.355l71.005,51.587c0.175,0.127,0.249,0.353,0.182,0.559
					l-27.122,83.471c-0.402,1.24,0.036,2.589,1.09,3.355c1.055,0.766,2.473,0.766,3.527,0l71.004-51.588
					c0.176-0.127,0.412-0.127,0.588,0l71.004,51.588c1.031,0.748,2.496,0.748,3.527,0c1.054-0.767,1.492-2.115,1.09-3.355
					l-27.122-83.47c-0.066-0.206,0.007-0.432,0.182-0.559l71.006-51.587c1.054-0.767,1.492-2.115,1.09-3.355
					c-0.403-1.239-1.55-2.072-2.854-2.072H405.45c-0.217,0-0.408-0.14-0.476-0.346l-27.121-83.471
					c-0.403-1.239-1.55-2.072-2.854-2.072s-2.45,0.833-2.853,2.073l-27.121,83.47c-0.067,0.206-0.259,0.346-0.476,0.346H256.784z
					 M441.404,341.767c-0.103,0-0.206-0.032-0.294-0.096l-60.449-43.919c-0.13-0.094-0.206-0.244-0.206-0.404
					c0-0.16,0.076-0.311,0.206-0.404L418.02,269.8c0.13-0.096,0.295-0.121,0.448-0.071c0.152,0.05,0.272,0.169,0.321,0.321
					l23.09,71.063c0.066,0.206-0.007,0.432-0.182,0.559C441.61,341.735,441.508,341.767,441.404,341.767z M381.805,297.348
					l58.647,42.61l-22.401-68.945L381.805,297.348z M308.595,341.767c-0.103,0-0.206-0.032-0.294-0.096
					c-0.175-0.127-0.249-0.353-0.182-0.559l23.09-71.063c0.049-0.152,0.169-0.271,0.321-0.321c0.152-0.051,0.319-0.023,0.448,0.071
					l37.36,27.145c0.13,0.094,0.206,0.244,0.206,0.404c0,0.16-0.076,0.31-0.206,0.404l-60.45,43.919
					C308.802,341.735,308.698,341.767,308.595,341.767z M331.948,271.012l-22.401,68.946l58.648-42.61L331.948,271.012z
					 M375,293.522c-0.103,0-0.206-0.032-0.294-0.096l-41.04-29.818c-0.175-0.127-0.249-0.353-0.182-0.559l15.676-48.245
					c0.067-0.206,0.259-0.346,0.475-0.346h50.729c0.217,0,0.408,0.14,0.476,0.346l15.676,48.246
					c0.066,0.206-0.007,0.432-0.182,0.559l-41.04,29.817C375.206,293.49,375.103,293.522,375,293.522z M334.548,263.012L375,292.404
					l40.452-29.391l-15.451-47.554h-50.002L334.548,263.012z M421.994,259.378c-0.052,0-0.104-0.008-0.154-0.024
					c-0.152-0.05-0.271-0.169-0.321-0.321l-14.27-43.919c-0.05-0.152-0.023-0.319,0.071-0.448c0.094-0.129,0.244-0.206,0.404-0.206
					h74.721c0.217,0,0.408,0.14,0.476,0.346c0.066,0.206-0.007,0.432-0.182,0.559l-60.451,43.919
					C422.201,259.346,422.098,259.378,421.994,259.378z M408.413,215.459l13.844,42.611l58.649-42.611H408.413z M328.006,259.377
					c-0.104,0-0.208-0.032-0.294-0.096l-60.45-43.918c-0.175-0.127-0.249-0.353-0.182-0.559c0.067-0.206,0.259-0.346,0.476-0.346
					h74.72c0.16,0,0.311,0.077,0.404,0.206c0.094,0.129,0.121,0.296,0.071,0.448l-14.27,43.918
					c-0.049,0.152-0.169,0.272-0.321,0.321C328.11,259.369,328.057,259.377,328.006,259.377z M269.094,215.459l58.648,42.61
					l13.844-42.61H269.094z M398.09,208.459h-46.18c-0.16,0-0.311-0.077-0.404-0.206c-0.094-0.129-0.121-0.296-0.071-0.448
					l23.09-71.063c0.135-0.412,0.816-0.412,0.951,0l23.09,71.063c0.05,0.152,0.023,0.319-0.071,0.448
					C398.4,208.382,398.25,208.459,398.09,208.459z M352.598,207.459h44.803L375,138.514L352.598,207.459z"/>
			</g>
		</g>
		<g>
			<path style="fill:#EBD2E1;" d="M373.456,388.218h-0.081c-3.95,0-7.935-0.17-11.842-0.506c-0.275-0.023-0.479-0.266-0.455-0.541
				c0.023-0.275,0.256-0.477,0.541-0.455c3.879,0.333,7.834,0.502,11.756,0.502c0.276,0,0.541,0.224,0.541,0.5
				S373.732,388.218,373.456,388.218z M385.337,387.7c-0.256,0-0.475-0.196-0.497-0.457c-0.024-0.274,0.18-0.518,0.455-0.541
				c3.92-0.341,7.873-0.858,11.746-1.538c0.264-0.054,0.531,0.133,0.579,0.405c0.048,0.272-0.134,0.531-0.405,0.579
				c-3.903,0.685-7.884,1.207-11.834,1.55C385.366,387.699,385.351,387.7,385.337,387.7z M349.783,386.184
				c-0.028,0-0.057-0.002-0.086-0.008c-3.904-0.681-7.826-1.543-11.657-2.564c-0.267-0.071-0.425-0.346-0.354-0.612
				c0.071-0.267,0.346-0.42,0.612-0.355c3.803,1.014,7.695,1.87,11.571,2.546c0.272,0.047,0.454,0.306,0.407,0.578
				C350.233,386.013,350.022,386.184,349.783,386.184z M408.739,383.588c-0.221,0-0.423-0.147-0.483-0.37
				c-0.071-0.268,0.087-0.541,0.354-0.613c3.806-1.02,7.607-2.22,11.301-3.565c0.261-0.095,0.546,0.039,0.641,0.299
				c0.095,0.259-0.039,0.546-0.299,0.641c-3.721,1.357-7.551,2.565-11.383,3.593C408.825,383.582,408.782,383.588,408.739,383.588z
				 M326.823,380.065c-0.057,0-0.114-0.01-0.17-0.03c-3.722-1.351-7.434-2.887-11.035-4.565c-0.25-0.116-0.358-0.414-0.242-0.664
				c0.118-0.251,0.415-0.359,0.664-0.242c3.574,1.666,7.259,3.19,10.953,4.532c0.26,0.094,0.394,0.381,0.3,0.641
				C327.219,379.939,327.028,380.065,326.823,380.065z M431.06,375.451c-0.188,0-0.368-0.106-0.453-0.288
				c-0.117-0.25-0.009-0.548,0.241-0.665c3.563-1.665,7.096-3.51,10.501-5.481c0.236-0.139,0.544-0.06,0.684,0.182
				c0.139,0.239,0.057,0.545-0.182,0.684c-3.432,1.987-6.99,3.845-10.579,5.522C431.204,375.437,431.132,375.451,431.06,375.451z
				 M305.275,370.022c-0.085,0-0.171-0.021-0.249-0.067c-3.434-1.983-6.822-4.143-10.069-6.417c-0.227-0.158-0.281-0.47-0.123-0.696
				c0.158-0.225,0.472-0.281,0.696-0.122c3.224,2.258,6.587,4.4,9.996,6.37c0.239,0.138,0.321,0.443,0.183,0.683
				C305.616,369.932,305.448,370.022,305.275,370.022z M451.622,363.548c-0.157,0-0.312-0.074-0.409-0.213
				c-0.159-0.226-0.104-0.538,0.122-0.696c3.22-2.261,6.381-4.69,9.395-7.223c0.211-0.178,0.526-0.15,0.704,0.062
				c0.178,0.211,0.15,0.526-0.061,0.704c-3.035,2.551-6.219,4.999-9.463,7.275C451.822,363.519,451.721,363.548,451.622,363.548z
				 M285.805,356.387c-0.113,0-0.227-0.038-0.321-0.117c-3.04-2.55-6.003-5.262-8.806-8.061c-0.195-0.195-0.195-0.512,0-0.707
				c0.195-0.195,0.512-0.195,0.708,0c2.782,2.778,5.724,5.471,8.742,8.002c0.211,0.177,0.239,0.492,0.062,0.704
				C286.089,356.326,285.948,356.387,285.805,356.387z M469.816,348.26c-0.128,0-0.256-0.049-0.354-0.147
				c-0.195-0.195-0.195-0.512,0-0.707c2.783-2.784,5.478-5.724,8.008-8.737c0.178-0.211,0.493-0.239,0.704-0.062
				c0.212,0.178,0.239,0.493,0.061,0.704c-2.549,3.036-5.263,5.997-8.066,8.802C470.072,348.211,469.944,348.26,469.816,348.26z
				 M268.986,339.595c-0.143,0-0.284-0.061-0.383-0.178c-2.55-3.03-5-6.213-7.282-9.459c-0.159-0.226-0.104-0.537,0.122-0.696
				c0.225-0.159,0.538-0.104,0.697,0.122c2.265,3.222,4.697,6.381,7.228,9.389c0.178,0.212,0.151,0.527-0.061,0.705
				C269.214,339.557,269.099,339.595,268.986,339.595z M485.099,330.055c-0.1,0-0.2-0.029-0.287-0.091
				c-0.226-0.158-0.281-0.47-0.122-0.696c2.26-3.223,4.404-6.584,6.376-9.991c0.14-0.239,0.446-0.32,0.683-0.183
				c0.239,0.138,0.321,0.444,0.183,0.683c-1.985,3.433-4.146,6.819-6.423,10.065C485.412,329.981,485.257,330.055,485.099,330.055z
				 M255.324,320.153c-0.172,0-0.34-0.089-0.433-0.249c-1.989-3.43-3.849-6.988-5.529-10.575c-0.117-0.25-0.009-0.548,0.241-0.665
				c0.249-0.118,0.547-0.009,0.665,0.241c1.668,3.561,3.515,7.093,5.489,10.497c0.139,0.239,0.057,0.545-0.182,0.684
				C255.496,320.131,255.41,320.153,255.324,320.153z M496.999,309.478c-0.071,0-0.143-0.015-0.212-0.047
				c-0.25-0.117-0.358-0.414-0.241-0.665c1.666-3.569,3.193-7.254,4.539-10.951c0.095-0.26,0.38-0.393,0.641-0.299
				c0.26,0.095,0.394,0.381,0.299,0.641c-1.355,3.725-2.894,7.436-4.572,11.033C497.367,309.371,497.186,309.478,496.999,309.478z
				 M245.251,298.639c-0.204,0-0.396-0.126-0.47-0.328c-1.36-3.725-2.571-7.554-3.599-11.382c-0.072-0.267,0.086-0.541,0.353-0.612
				c0.264-0.07,0.541,0.087,0.612,0.353c1.02,3.801,2.222,7.602,3.572,11.298c0.095,0.26-0.039,0.547-0.298,0.642
				C245.366,298.629,245.308,298.639,245.251,298.639z M505.127,287.142c-0.042,0-0.086-0.006-0.129-0.017
				c-0.267-0.071-0.426-0.346-0.354-0.612c1.015-3.8,1.873-7.692,2.553-11.569c0.047-0.273,0.311-0.463,0.578-0.406
				c0.272,0.047,0.454,0.307,0.406,0.578c-0.684,3.906-1.549,7.827-2.57,11.655C505.551,286.994,505.348,287.142,505.127,287.142z
				 M239.09,275.691c-0.238,0-0.449-0.171-0.492-0.413c-0.687-3.896-1.211-7.878-1.557-11.832c-0.024-0.275,0.179-0.517,0.455-0.542
				c0.272-0.017,0.518,0.18,0.542,0.454c0.344,3.926,0.864,7.878,1.545,11.746c0.048,0.272-0.133,0.531-0.405,0.579
				C239.148,275.689,239.118,275.691,239.09,275.691z M509.225,263.737c-0.015,0-0.029-0.001-0.044-0.002
				c-0.275-0.023-0.478-0.266-0.455-0.541c0.338-3.912,0.509-7.896,0.509-11.837v-0.321c0-0.276,0.224-0.5,0.5-0.5
				c0.276,0,0.5,0.224,0.5,0.5v0.321c0,3.971-0.173,7.982-0.513,11.923C509.7,263.541,509.481,263.737,509.225,263.737z
				 M237.014,252.02c-0.276,0-0.5-0.224-0.5-0.5l0.001-0.167c0-3.911,0.167-7.868,0.499-11.756c0.023-0.275,0.26-0.474,0.541-0.456
				c0.275,0.024,0.479,0.266,0.456,0.54c-0.328,3.86-0.495,7.789-0.495,11.677l-0.001,0.162
				C237.514,251.796,237.291,252.02,237.014,252.02z M509.195,239.656c-0.256,0-0.474-0.196-0.497-0.456
				c-0.347-3.92-0.871-7.871-1.559-11.745c-0.049-0.271,0.133-0.531,0.405-0.579c0.267-0.046,0.531,0.132,0.579,0.405
				c0.692,3.901,1.221,7.882,1.57,11.831c0.024,0.275-0.179,0.518-0.454,0.542C509.225,239.654,509.211,239.656,509.195,239.656z
				 M239.035,228.346c-0.028,0-0.057-0.002-0.086-0.008c-0.272-0.047-0.455-0.306-0.407-0.578c0.679-3.907,1.54-7.83,2.557-11.658
				c0.071-0.267,0.345-0.428,0.612-0.355c0.267,0.071,0.426,0.345,0.355,0.612c-1.01,3.799-1.864,7.692-2.539,11.572
				C239.485,228.175,239.274,228.346,239.035,228.346z M505.042,216.261c-0.221,0-0.423-0.146-0.482-0.37
				c-1.025-3.8-2.231-7.6-3.586-11.293c-0.095-0.259,0.038-0.546,0.298-0.641c0.259-0.094,0.546,0.038,0.642,0.297
				c1.364,3.721,2.579,7.549,3.611,11.378c0.072,0.267-0.086,0.541-0.353,0.612C505.129,216.255,505.085,216.261,505.042,216.261z
				 M245.14,205.381c-0.057,0-0.114-0.01-0.17-0.03c-0.26-0.094-0.393-0.381-0.3-0.641c1.351-3.725,2.884-7.438,4.56-11.038
				c0.116-0.25,0.412-0.359,0.664-0.242c0.25,0.116,0.359,0.414,0.242,0.664c-1.663,3.573-3.185,7.259-4.525,10.957
				C245.537,205.255,245.345,205.381,245.14,205.381z M496.866,193.954c-0.188,0-0.367-0.106-0.452-0.288
				c-1.674-3.562-3.524-7.091-5.501-10.491c-0.139-0.239-0.058-0.545,0.182-0.684c0.236-0.138,0.544-0.059,0.684,0.181
				c1.991,3.425,3.855,6.981,5.54,10.569c0.118,0.25,0.011,0.547-0.239,0.665C497.01,193.939,496.937,193.954,496.866,193.954z
				 M255.17,183.828c-0.085,0-0.17-0.021-0.249-0.067c-0.239-0.138-0.321-0.444-0.183-0.683c1.98-3.433,4.137-6.822,6.411-10.073
				c0.158-0.227,0.47-0.281,0.696-0.123c0.226,0.158,0.281,0.47,0.123,0.696c-2.257,3.227-4.398,6.591-6.364,10
				C255.511,183.738,255.343,183.828,255.17,183.828z M484.927,173.413c-0.156,0-0.312-0.074-0.409-0.212
				c-2.265-3.215-4.7-6.372-7.238-9.382c-0.179-0.211-0.151-0.526,0.06-0.705c0.21-0.176,0.526-0.151,0.704,0.06
				c2.558,3.032,5.011,6.211,7.293,9.45c0.158,0.226,0.104,0.538-0.121,0.697C485.127,173.383,485.026,173.413,484.927,173.413z
				 M268.793,164.35c-0.113,0-0.227-0.038-0.321-0.117c-0.212-0.177-0.239-0.493-0.062-0.704c2.545-3.039,5.255-6.003,8.055-8.811
				c0.195-0.196,0.512-0.195,0.707-0.001c0.196,0.195,0.196,0.512,0.001,0.707c-2.779,2.787-5.47,5.73-7.997,8.747
				C269.078,164.289,268.936,164.35,268.793,164.35z M469.606,155.246c-0.128,0-0.255-0.048-0.353-0.146
				c-2.792-2.781-5.737-5.469-8.753-7.992c-0.211-0.177-0.239-0.492-0.063-0.704c0.18-0.211,0.494-0.24,0.705-0.063
				c3.037,2.541,6.003,5.25,8.815,8.05c0.196,0.195,0.196,0.512,0.002,0.708C469.863,155.197,469.734,155.246,469.606,155.246z
				 M285.577,147.521c-0.142,0-0.284-0.061-0.382-0.178c-0.178-0.211-0.151-0.527,0.06-0.705c3.032-2.554,6.213-5.005,9.455-7.287
				c0.226-0.16,0.538-0.105,0.696,0.121c0.159,0.226,0.105,0.538-0.121,0.696c-3.218,2.265-6.376,4.699-9.386,7.234
				C285.805,147.482,285.69,147.521,285.577,147.521z M451.376,139.995c-0.1,0-0.199-0.029-0.286-0.09
				c-3.227-2.254-6.593-4.394-10.004-6.358c-0.239-0.138-0.321-0.443-0.184-0.683c0.138-0.24,0.442-0.322,0.684-0.184
				c3.436,1.979,6.826,4.134,10.076,6.405c0.227,0.158,0.282,0.47,0.124,0.696C451.688,139.921,451.533,139.995,451.376,139.995z
				 M305.011,133.847c-0.172,0-0.34-0.089-0.433-0.249c-0.139-0.239-0.057-0.545,0.182-0.684c3.428-1.99,6.985-3.852,10.573-5.535
				c0.252-0.118,0.548-0.01,0.665,0.24c0.117,0.25,0.01,0.548-0.24,0.665c-3.561,1.67-7.092,3.519-10.496,5.495
				C305.182,133.825,305.096,133.847,305.011,133.847z M430.778,128.132c-0.071,0-0.143-0.015-0.211-0.046
				c-3.575-1.661-7.264-3.182-10.96-4.519c-0.26-0.094-0.395-0.381-0.3-0.64c0.094-0.26,0.383-0.395,0.64-0.3
				c3.725,1.348,7.439,2.879,11.042,4.552c0.25,0.117,0.358,0.413,0.242,0.664C431.147,128.025,430.967,128.132,430.778,128.132z
				 M326.518,123.761c-0.204,0-0.396-0.125-0.47-0.328c-0.095-0.259,0.039-0.546,0.298-0.642c3.721-1.361,7.55-2.574,11.38-3.605
				c0.266-0.072,0.541,0.087,0.613,0.353c0.072,0.267-0.087,0.541-0.353,0.613c-3.802,1.023-7.602,2.227-11.296,3.579
				C326.634,123.752,326.576,123.761,326.518,123.761z M408.427,120.045c-0.042,0-0.085-0.005-0.128-0.017
				c-3.801-1.008-7.695-1.86-11.574-2.532c-0.272-0.047-0.455-0.306-0.408-0.578c0.048-0.272,0.311-0.455,0.578-0.407
				c3.908,0.677,7.831,1.535,11.66,2.55c0.268,0.071,0.426,0.345,0.355,0.612C408.85,119.897,408.648,120.045,408.427,120.045z
				 M349.463,117.587c-0.238,0-0.449-0.17-0.492-0.413c-0.048-0.271,0.133-0.531,0.405-0.579c3.898-0.69,7.879-1.216,11.832-1.564
				c0.286-0.027,0.518,0.179,0.542,0.454c0.024,0.275-0.179,0.518-0.454,0.542c-3.924,0.346-7.876,0.868-11.746,1.552
				C349.521,117.585,349.492,117.587,349.463,117.587z M385.015,115.988c-0.015,0-0.028-0.001-0.043-0.002
				c-3.832-0.324-7.734-0.488-11.598-0.488h-0.241c-0.276,0-0.5-0.224-0.5-0.5c0-0.276,0.224-0.5,0.5-0.5h0.241
				c3.892,0,7.822,0.165,11.682,0.492c0.275,0.023,0.479,0.265,0.456,0.54C385.491,115.79,385.272,115.988,385.015,115.988z"/>
		</g>
		<g>
			<circle style="fill:#D69EBF;" cx="375" cy="128.703" r="10.395"/>
		</g>
		<g>
			<circle style="fill:#D69EBF;" cx="490.03" cy="213.332" r="10.395"/>
		</g>
		<g>
			<circle style="fill:#D69EBF;" cx="444.204" cy="346.33" r="10.395"/>
		</g>
		<g>
			<circle style="fill:#D69EBF;" cx="258.539" cy="212.547" r="10.395"/>
		</g>
		<g>
			
				<ellipse transform="matrix(0.9752 -0.2215 0.2215 0.9752 -68.9684 75.9869)" style="fill:#D69EBF;" cx="304.365" cy="345.545" rx="10.395" ry="10.395"/>
		</g>
	</g>
	<g>
		<g>
			<path style="fill:#EBD2E1;" d="M624.575,408.656c-0.085,0-0.17-0.021-0.246-0.064l-33.578-18.966
				c-0.24-0.136-0.325-0.441-0.19-0.682c0.136-0.241,0.44-0.325,0.682-0.19l33.1,18.696l12.835-28.725
				c0.097-0.216,0.326-0.335,0.563-0.284l67.157,14.613c0.036,0.008,0.07,0.02,0.104,0.035l20.244,9.389l-25.575-57.546
				c-0.021-0.048-0.035-0.099-0.04-0.15l-7.438-70.344l-28.72-19.146c-0.229-0.153-0.292-0.463-0.14-0.692l17.723-26.738
				c0.151-0.226,0.456-0.29,0.684-0.146l35.443,22.386c0.13,0.082,0.215,0.219,0.231,0.371c0.017,0.151-0.038,0.303-0.148,0.41
				l-24.077,23.459l7.429,70.258L726.7,403.29c0.085,0.19,0.042,0.413-0.106,0.559c-0.148,0.146-0.371,0.186-0.561,0.097
				l-21.402-9.926l-66.706-14.515l-12.894,28.854c-0.057,0.128-0.166,0.227-0.3,0.271
				C624.68,408.649,624.628,408.656,624.575,408.656z M664.442,254.738l28.163,18.775l23.508-22.904l-34.494-21.786L664.442,254.738
				z"/>
		</g>
		<g>
			<polygon style="fill:#EBD2E1;" points="693.291,264.205 695.509,269.236 700.976,268.642 697.728,273.078 700.976,277.515 
				695.509,276.921 693.291,281.952 691.072,276.921 685.606,277.515 688.854,273.078 685.606,268.642 691.072,269.236 			"/>
		</g>
		<g>
			<polygon style="fill:#EBD2E1;" points="590.997,381.812 593.215,386.843 598.682,386.249 595.434,390.685 598.682,395.122 
				593.215,394.528 590.997,399.559 588.778,394.528 583.312,395.122 586.56,390.685 583.312,386.249 588.778,386.843 			"/>
		</g>
		<g>
			<path style="fill:#EBD2E1;" d="M680.82,225.758c-3.955,0-3.962,6.147,0,6.147C684.775,231.905,684.781,225.758,680.82,225.758z"
				/>
		</g>
		<g>
			<path style="fill:#EBD2E1;" d="M664.587,253.098c-3.955,0-3.961,6.147,0,6.147C668.542,259.245,668.548,253.098,664.587,253.098z
				"/>
		</g>
		<g>
			<path style="fill:#EBD2E1;" d="M714.568,247.972c-3.955,0-3.962,6.147,0,6.147C718.523,254.118,718.529,247.972,714.568,247.972z
				"/>
		</g>
		<g>
			<path style="fill:#EBD2E1;" d="M700.898,341.098c-3.955,0-3.962,6.147,0,6.147C704.853,347.245,704.859,341.098,700.898,341.098z
				"/>
		</g>
		<g>
			<path style="fill:#EBD2E1;" d="M727.81,400.477c-3.955,0-3.961,6.147,0,6.147C731.766,406.624,731.772,400.477,727.81,400.477z"
				/>
		</g>
		<g>
			<path style="fill:#EBD2E1;" d="M706.024,390.652c-3.955,0-3.962,6.147,0,6.147C709.979,396.799,709.986,390.652,706.024,390.652z
				"/>
		</g>
		<g>
			<path style="fill:#EBD2E1;" d="M637.247,376.128c-3.955,0-3.961,6.147,0,6.147C641.202,382.274,641.208,376.128,637.247,376.128z
				"/>
		</g>
		<g>
			<path style="fill:#EBD2E1;" d="M624.858,404.749c-3.955,0-3.962,6.147,0,6.147C628.813,410.896,628.82,404.749,624.858,404.749z"
				/>
		</g>
	</g>
	<g>
		<g>
			<polygon style="fill:#D69EBF;" points="46.378,295.826 49.722,327.597 58.737,323.312 54.451,332.327 71.311,335.671 
				54.451,339.015 58.737,348.03 49.722,343.745 46.378,375.516 43.033,343.745 34.019,348.03 38.304,339.015 21.444,335.671 
				38.304,332.327 34.019,323.312 43.033,327.597 			"/>
		</g>
		<g>
			<path style="fill:#EBD2E1;" d="M55.585,265.085c-4.504,0-4.512,7,0,7C60.09,272.085,60.097,265.085,55.585,265.085z"/>
		</g>
		<g>
			<path style="fill:#EBD2E1;" d="M17.21,316.611c-1.931,0-1.934,3,0,3C19.14,319.611,19.143,316.611,17.21,316.611z"/>
		</g>
		<g>
			<path style="fill:#EBD2E1;" d="M17.21,299.376c-1.931,0-1.934,3,0,3C19.14,302.376,19.143,299.376,17.21,299.376z"/>
		</g>
		<g>
			<path style="fill:#EBD2E1;" d="M9.982,306.048c-1.93,0-1.934,3,0,3C11.912,309.048,11.916,306.048,9.982,306.048z"/>
		</g>
	</g>
	<g>
		<g>
			<path style="fill:#EBD2E1;" d="M39.307,57.099c-0.198,0-0.377-0.117-0.458-0.298l-2.74-6.213l-6.75,0.734
				c-0.197,0.019-0.389-0.076-0.487-0.247c-0.099-0.171-0.087-0.385,0.03-0.545l4.011-5.479l-4.011-5.479
				c-0.117-0.16-0.129-0.374-0.03-0.545c0.099-0.171,0.295-0.264,0.487-0.247l6.75,0.734l2.74-6.213c0.16-0.362,0.755-0.362,0.915,0
				l2.74,6.213l6.75-0.734c0.201-0.021,0.389,0.076,0.487,0.247c0.099,0.171,0.087,0.385-0.03,0.545l-4.011,5.479l4.011,5.479
				c0.117,0.16,0.129,0.374,0.03,0.545c-0.099,0.172-0.289,0.271-0.487,0.247l-6.75-0.734l-2.74,6.213
				C39.685,56.982,39.506,57.099,39.307,57.099z M36.42,49.551c0.196,0,0.377,0.116,0.458,0.298l2.43,5.511l2.43-5.511
				c0.088-0.199,0.285-0.319,0.512-0.295l5.987,0.651l-3.557-4.86c-0.129-0.176-0.129-0.415,0-0.591l3.557-4.859l-5.987,0.651
				c-0.228,0.025-0.424-0.097-0.512-0.295l-2.43-5.511l-2.43,5.511c-0.088,0.199-0.286,0.321-0.512,0.295l-5.987-0.651l3.557,4.859
				c0.129,0.176,0.129,0.415,0,0.591l-3.557,4.86l5.987-0.651C36.384,49.552,36.403,49.551,36.42,49.551z"/>
		</g>
		<g>
			<path style="fill:#EBD2E1;" d="M52.254,77.735c-4.504,0-4.512,7,0,7C56.758,84.735,56.765,77.735,52.254,77.735z"/>
		</g>
		<g>
			<path style="fill:#EBD2E1;" d="M46.694,62.499c-1.93,0-1.934,3,0,3C48.624,65.499,48.627,62.499,46.694,62.499z"/>
		</g>
		<g>
			<path style="fill:#EBD2E1;" d="M71.713,81.403c-1.93,0-1.934,3,0,3C73.644,84.403,73.647,81.403,71.713,81.403z"/>
		</g>
	</g>
	<g>
		<g>
			<path style="fill:#EBD2E1;" d="M436.985,50.121c-0.198,0-0.378-0.117-0.457-0.298l-2.74-6.213l-6.752,0.734
				c-0.196,0.017-0.388-0.076-0.486-0.247c-0.1-0.171-0.088-0.385,0.029-0.545l4.011-5.479l-4.011-5.479
				c-0.117-0.16-0.129-0.374-0.029-0.545c0.099-0.171,0.292-0.272,0.486-0.247l6.752,0.734l2.74-6.213
				c0.079-0.181,0.259-0.298,0.457-0.298l0,0c0.198,0,0.378,0.117,0.458,0.298l2.738,6.213l6.752-0.734
				c0.192-0.026,0.388,0.076,0.486,0.247c0.1,0.171,0.088,0.385-0.029,0.545l-4.011,5.479l4.011,5.479
				c0.117,0.16,0.129,0.374,0.029,0.545c-0.099,0.171-0.293,0.265-0.486,0.247l-6.752-0.734l-2.738,6.213
				C437.363,50.004,437.183,50.121,436.985,50.121z M434.098,42.572c0.196,0,0.377,0.116,0.457,0.298l2.431,5.511l2.43-5.511
				c0.087-0.199,0.299-0.321,0.511-0.295l5.988,0.651l-3.558-4.86c-0.129-0.176-0.129-0.415,0-0.591l3.558-4.86l-5.988,0.651
				c-0.213,0.023-0.424-0.096-0.511-0.295l-2.43-5.511l-2.431,5.511c-0.088,0.199-0.301,0.319-0.511,0.295l-5.988-0.651l3.558,4.86
				c0.129,0.176,0.129,0.415,0,0.591l-3.558,4.86l5.988-0.651C434.061,42.574,434.08,42.572,434.098,42.572z"/>
		</g>
		<g>
			<path style="fill:#EBD2E1;" d="M447.498,59.756c-4.504,0-4.512,7,0,7C452.002,66.756,452.009,59.756,447.498,59.756z"/>
		</g>
		<g>
			<path style="fill:#EBD2E1;" d="M456.95,22.837c-1.93,0-1.934,3,0,3C458.88,25.837,458.883,22.837,456.95,22.837z"/>
		</g>
		<g>
			<path style="fill:#EBD2E1;" d="M459.729,45.632c-1.93,0-1.933,3,0,3C461.66,48.632,461.663,45.632,459.729,45.632z"/>
		</g>
		<g>
			<path style="fill:#EBD2E1;" d="M472.517,34.513c-1.93,0-1.934,3,0,3C474.447,37.513,474.451,34.513,472.517,34.513z"/>
		</g>
	</g>
	<g>
		<g>
			<path style="fill:#EBD2E1;" d="M688.136,206.365c-0.198,0-0.378-0.117-0.457-0.298l-2.74-6.213l-6.752,0.734
				c-0.197,0.017-0.388-0.076-0.486-0.247c-0.1-0.171-0.088-0.385,0.029-0.545l4.011-5.48l-4.011-5.479
				c-0.117-0.16-0.129-0.374-0.029-0.546c0.099-0.171,0.291-0.271,0.486-0.247l6.752,0.734l2.74-6.213
				c0.079-0.181,0.259-0.298,0.457-0.298l0,0c0.198,0,0.378,0.117,0.457,0.298l2.739,6.213l6.752-0.734
				c0.19-0.026,0.388,0.076,0.486,0.247c0.1,0.171,0.088,0.385-0.029,0.546l-4.011,5.479l4.011,5.48
				c0.117,0.16,0.129,0.374,0.029,0.545c-0.099,0.171-0.294,0.266-0.486,0.247l-6.752-0.734l-2.739,6.213
				C688.514,206.248,688.335,206.365,688.136,206.365z M685.249,198.817c0.196,0,0.377,0.116,0.457,0.298l2.431,5.511l2.43-5.511
				c0.087-0.199,0.299-0.317,0.511-0.295l5.988,0.651l-3.558-4.86c-0.129-0.176-0.129-0.415,0-0.591l3.558-4.86l-5.988,0.651
				c-0.213,0.02-0.424-0.097-0.511-0.295l-2.43-5.511l-2.431,5.511c-0.088,0.199-0.301,0.317-0.511,0.295l-5.988-0.651l3.558,4.86
				c0.129,0.176,0.129,0.415,0,0.591l-3.558,4.86l5.988-0.651C685.213,198.818,685.231,198.817,685.249,198.817z"/>
		</g>
		<g>
			<path style="fill:#EBD2E1;" d="M664.955,161.222c-4.504,0-4.512,7,0,7C669.459,168.222,669.466,161.222,664.955,161.222z"/>
		</g>
		<g>
			<path style="fill:#EBD2E1;" d="M674.406,140.427c-1.93,0-1.934,3,0,3C676.337,143.427,676.34,140.427,674.406,140.427z"/>
		</g>
		<g>
			<path style="fill:#EBD2E1;" d="M684.414,162.666c-1.93,0-1.934,3,0,3C686.344,165.666,686.348,162.666,684.414,162.666z"/>
		</g>
		<g>
			<path style="fill:#EBD2E1;" d="M650.499,149.879c-1.93,0-1.933,3,0,3C652.429,152.879,652.432,149.879,650.499,149.879z"/>
		</g>
	</g>
	<g>
		<g>
			<polygon style="fill:#D69EBF;" points="626.679,266.723 629.377,292.348 636.648,288.892 633.191,296.163 646.79,298.86 
				633.191,301.557 636.648,308.828 629.377,305.372 626.679,330.997 623.982,305.372 616.711,308.828 620.167,301.557 
				606.569,298.86 620.167,296.163 616.711,288.892 623.982,292.348 			"/>
		</g>
		<g>
			<path style="fill:#EBD2E1;" d="M646.834,339.288c-1.93,0-1.934,3,0,3C648.764,342.288,648.767,339.288,646.834,339.288z"/>
		</g>
		<g>
			<path style="fill:#EBD2E1;" d="M661.845,328.168c-1.93,0-1.934,3,0,3C663.776,331.168,663.779,328.168,661.845,328.168z"/>
		</g>
		<g>
			<path style="fill:#EBD2E1;" d="M659.065,347.628c-1.93,0-1.933,3,0,3C660.996,350.628,660.999,347.628,659.065,347.628z"/>
		</g>
	</g>
	<g>
		<g>
			<path style="fill:#EBD2E1;" d="M689.597,451.016L689.597,451.016c-0.198,0-0.378-0.117-0.458-0.298l-2.738-6.214l-6.752,0.733
				c-0.199,0.018-0.388-0.075-0.486-0.247c-0.1-0.172-0.088-0.386,0.029-0.545l4.011-5.479l-4.011-5.479
				c-0.117-0.159-0.129-0.373-0.029-0.545c0.099-0.172,0.288-0.271,0.486-0.247l6.752,0.733l2.739-6.213
				c0.158-0.361,0.756-0.361,0.914,0l2.74,6.213l6.752-0.733c0.193-0.026,0.388,0.075,0.486,0.247
				c0.1,0.172,0.088,0.386-0.029,0.545l-4.011,5.479l4.011,5.479c0.117,0.159,0.129,0.373,0.029,0.545
				c-0.099,0.172-0.291,0.267-0.486,0.247l-6.752-0.733l-2.74,6.214C689.975,450.899,689.796,451.016,689.597,451.016z
				 M686.711,443.467c0.196,0,0.377,0.115,0.458,0.298l2.429,5.512l2.431-5.512c0.087-0.199,0.299-0.321,0.511-0.295l5.988,0.651
				l-3.558-4.86c-0.129-0.176-0.129-0.414,0-0.59l3.558-4.86l-5.988,0.651c-0.213,0.022-0.424-0.097-0.511-0.295l-2.431-5.511
				l-2.43,5.511c-0.088,0.198-0.295,0.318-0.511,0.295l-5.988-0.651l3.558,4.86c0.129,0.176,0.129,0.414,0,0.59l-3.558,4.86
				l5.988-0.651C686.675,443.468,686.693,443.467,686.711,443.467z"/>
		</g>
		<g>
			<path style="fill:#EBD2E1;" d="M616.997,448.852c-4.504,0-4.512,7,0,7C621.502,455.852,621.509,448.852,616.997,448.852z"/>
		</g>
		<g>
			<path style="fill:#EBD2E1;" d="M630.897,460.527c-4.504,0-4.512,7,0,7C635.401,467.527,635.409,460.527,630.897,460.527z"/>
		</g>
		<g>
			<path style="fill:#EBD2E1;" d="M606.434,471.647c-4.504,0-4.512,7,0,7C610.938,478.647,610.945,471.647,606.434,471.647z"/>
		</g>
		<g>
			<path style="fill:#EBD2E1;" d="M698.832,459.623c-1.93,0-1.934,3,0,3C700.763,462.623,700.766,459.623,698.832,459.623z"/>
		</g>
		<g>
			<path style="fill:#EBD2E1;" d="M687.713,484.087c-1.93,0-1.933,3,0,3C689.643,487.087,689.646,484.087,687.713,484.087z"/>
		</g>
		<g>
			<path style="fill:#EBD2E1;" d="M619.778,468.643c-1.93,0-1.934,3,0,3C621.708,471.643,621.711,468.643,619.778,468.643z"/>
		</g>
	</g>
	<g>
		<polygon style="fill:#D69EBF;" points="506.059,40.111 507.826,56.897 512.589,54.633 510.325,59.396 519.233,61.163 
			510.325,62.931 512.589,67.693 507.826,65.429 506.059,82.216 504.292,65.429 499.529,67.693 501.793,62.931 492.885,61.163 
			501.793,59.396 499.529,54.633 504.292,56.897 		"/>
	</g>
	<g>
		<polygon style="fill:#D69EBF;" points="213.686,390.647 215.453,407.434 220.216,405.17 217.952,409.933 226.86,411.7 
			217.952,413.467 220.216,418.23 215.453,415.966 213.686,432.752 211.919,415.966 207.156,418.23 209.42,413.467 200.512,411.7 
			209.42,409.933 207.156,405.17 211.919,407.434 		"/>
	</g>
	<g>
		<polygon style="fill:#D69EBF;" points="285.238,14.134 287.005,30.921 291.768,28.657 289.504,33.42 298.412,35.187 
			289.504,36.954 291.768,41.717 287.005,39.453 285.238,56.239 283.471,39.453 278.707,41.717 280.972,36.954 272.064,35.187 
			280.972,33.42 278.707,28.657 283.471,30.921 		"/>
	</g>
	<g>
		<path style="fill:#D69EBF;" d="M148.842,250.939c-1.574-0.894-3.353-1.341-5.337-1.341c-1.078,0-2.078,0.171-2.998,0.512
			c-0.922,0.339-1.73,0.815-2.424,1.424c-0.694,0.609-1.254,1.339-1.68,2.19c0.057-2.154,0.377-4.005,0.958-5.55
			c0.581-1.545,1.396-2.721,2.446-3.529c1.047-0.808,2.268-1.213,3.657-1.213c1.389,0,2.664,0.348,3.827,1.043
			c0.557,0.334,1.052,0.725,1.486,1.18c0.379,0.398,0.889,0.595,1.396,0.595c0.521,0,1.04-0.206,1.429-0.612
			c0.699-0.732,0.732-1.875,0.071-2.642c-0.803-0.934-1.747-1.702-2.83-2.306c-1.602-0.894-3.368-1.339-5.294-1.339
			c-2.353,0-4.389,0.652-6.102,1.955c-1.716,1.306-3.048,3.247-3.998,5.827c-0.95,2.579-1.424,5.783-1.424,9.61
			c0,2.806,0.46,5.216,1.382,7.231c0.922,2.012,2.211,3.55,3.87,4.614c1.659,1.062,3.595,1.595,5.804,1.595
			c2.071,0,3.92-0.469,5.55-1.405c1.63-0.934,2.927-2.195,3.891-3.785c0.965-1.585,1.446-3.344,1.446-5.273
			c0-1.898-0.46-3.614-1.382-5.145C151.662,253.044,150.415,251.831,148.842,250.939z M148.65,262.952
			c-0.595,0.993-1.382,1.78-2.36,2.36c-0.976,0.581-2.048,0.872-3.211,0.872c-1.161,0-2.225-0.299-3.188-0.893
			c-0.965-0.595-1.744-1.382-2.339-2.361c-0.595-0.979-0.893-2.047-0.893-3.211c0-1.19,0.292-2.261,0.872-3.211
			c0.581-0.948,1.36-1.713,2.339-2.296c0.979-0.581,2.062-0.87,3.254-0.87c1.161,0,2.223,0.289,3.188,0.87
			c0.965,0.583,1.744,1.356,2.339,2.318c0.597,0.965,0.893,2.029,0.893,3.19C149.543,260.884,149.247,261.959,148.65,262.952z"/>
	</g>
	<g>
		<path style="fill:#EBD2E1;" d="M551.646,111.238h-13.059c-0.826,0-1.607-0.361-2.143-0.992c-0.535-0.63-0.766-1.459-0.632-2.274
			l0.037-0.209c0.165-0.925,0.477-1.813,0.926-2.627c0.448-0.82,1.083-1.607,1.885-2.34c0.793-0.726,1.813-1.426,3.03-2.079
			c0.839-0.487,1.656-0.932,2.417-1.314c0.736-0.375,1.394-0.75,1.954-1.115c0.53-0.347,0.948-0.718,1.241-1.102
			c0.262-0.343,0.389-0.743,0.389-1.225c0-0.455-0.123-0.868-0.377-1.262c-0.253-0.396-0.631-0.727-1.122-0.987
			c-0.496-0.258-1.123-0.39-1.86-0.39c-0.622,0-1.18,0.083-1.658,0.247c-0.496,0.169-0.958,0.385-1.374,0.644
			c-0.421,0.262-0.806,0.554-1.145,0.87c-0.365,0.341-0.831,0.513-1.313,0.488c-0.485-0.023-0.931-0.235-1.254-0.599l-0.781-0.883
			c-0.325-0.365-0.486-0.854-0.441-1.341c0.044-0.49,0.293-0.944,0.684-1.247l0.171-0.132c0.538-0.409,1.196-0.805,1.956-1.178
			c0.76-0.374,1.642-0.699,2.62-0.963c0.982-0.265,2.068-0.399,3.227-0.399c1.62,0,3.045,0.282,4.234,0.839
			c1.206,0.562,2.146,1.348,2.794,2.335c0.646,0.992,0.973,2.137,0.973,3.405c0,0.99-0.203,1.877-0.604,2.638
			c-0.385,0.731-0.877,1.39-1.46,1.956c-0.57,0.555-1.186,1.038-1.833,1.437c-0.628,0.386-1.231,0.733-1.796,1.033
			c-0.935,0.452-1.738,0.875-2.401,1.265c-0.676,0.399-1.243,0.784-1.687,1.143c-0.444,0.358-0.821,0.734-1.121,1.12
			c-0.155,0.198-0.296,0.409-0.423,0.636h9.945c0.981,0,1.78,0.798,1.78,1.778v1.045
			C553.427,110.439,552.628,111.238,551.646,111.238z M544.333,92.321c0.9,0,1.683,0.17,2.325,0.505
			c0.648,0.343,1.152,0.791,1.499,1.333c0.356,0.552,0.535,1.159,0.535,1.802c0,0.699-0.2,1.315-0.594,1.832
			c-0.361,0.474-0.862,0.922-1.488,1.332c-0.591,0.385-1.28,0.778-2.051,1.17c-0.744,0.375-1.545,0.811-2.381,1.295
			c-1.159,0.622-2.11,1.272-2.843,1.943c-0.721,0.658-1.287,1.359-1.684,2.084c-0.396,0.719-0.672,1.504-0.82,2.335l-0.027,0.152
			c-0.091,0.555,0.058,1.089,0.402,1.495c0.346,0.406,0.849,0.639,1.381,0.639h13.059c0.431,0,0.78-0.35,0.78-0.781v-1.045
			c0-0.429-0.35-0.778-0.78-0.778h-10.737c-0.166,0-0.321-0.082-0.414-0.22c-0.094-0.138-0.111-0.313-0.05-0.467
			c0.237-0.586,0.536-1.112,0.891-1.564c0.346-0.445,0.777-0.877,1.281-1.283c0.486-0.394,1.078-0.796,1.807-1.226
			c0.697-0.411,1.501-0.834,2.458-1.296c0.532-0.283,1.113-0.617,1.722-0.992c0.585-0.36,1.144-0.798,1.661-1.302
			c0.509-0.494,0.937-1.067,1.273-1.705c0.324-0.615,0.488-1.346,0.488-2.172c0-1.072-0.273-2.033-0.81-2.858
			c-0.544-0.829-1.345-1.494-2.38-1.977c-1.057-0.494-2.339-0.745-3.812-0.745c-1.071,0-2.069,0.122-2.967,0.364
			c-0.916,0.248-1.736,0.549-2.439,0.896c-0.703,0.345-1.306,0.708-1.793,1.077l-0.102,0.078c-0.235,0.183-0.342,0.377-0.362,0.596
			c-0.019,0.216,0.049,0.424,0.193,0.586l0.782,0.884c0.143,0.16,0.339,0.254,0.553,0.264c0.214,0.01,0.418-0.065,0.575-0.211
			c0.395-0.37,0.832-0.702,1.309-0.999c0.48-0.298,1.011-0.547,1.578-0.74C542.933,92.422,543.6,92.321,544.333,92.321z"/>
	</g>
	<path style="fill:#FBF2FF;" d="M432.098,475.922c-0.826-1.638-1.93-2.928-3.314-3.874c-1.384-0.944-2.973-1.416-4.771-1.416
		c-1.796,0-3.391,0.473-4.787,1.416c-1.396,0.946-2.502,2.236-3.314,3.874c-0.814,1.64-1.222,3.511-1.222,5.615
		s0.408,3.975,1.222,5.615c0.812,1.638,1.918,2.924,3.314,3.856c1.396,0.934,2.991,1.4,4.787,1.4c1.798,0,3.387-0.467,4.771-1.4
		c1.384-0.931,2.488-2.218,3.314-3.856c0.826-1.64,1.238-3.511,1.238-5.615S432.924,477.562,432.098,475.922z M428.62,485.241
		c-0.449,1.067-1.073,1.909-1.875,2.526c-0.8,0.617-1.711,0.925-2.731,0.925c-1.043,0-1.96-0.302-2.75-0.907
		c-0.787-0.605-1.414-1.441-1.875-2.51c-0.461-1.067-0.69-2.313-0.69-3.738c0-1.425,0.223-2.677,0.674-3.756
		c0.448-1.08,1.073-1.922,1.875-2.526c0.8-0.607,1.711-0.909,2.731-0.909c1.043,0,1.966,0.309,2.766,0.925
		c0.802,0.619,1.426,1.461,1.875,2.529c0.451,1.067,0.674,2.313,0.674,3.738C429.294,482.938,429.071,484.171,428.62,485.241z"/>
	<g>
		<path style="fill:#EBD2E1;" d="M356.719,488.061c-1.754,0-3.339-0.321-4.711-0.955c-0.815-0.377-1.548-0.851-2.179-1.407
			c-0.428-0.379-0.682-0.903-0.715-1.479c-0.035-0.589,0.164-1.156,0.558-1.596c0.815-0.914,2.167-0.993,3.09-0.199
			c0.27,0.232,0.57,0.44,0.895,0.619c0.775,0.428,1.783,0.645,2.996,0.645c1.338,0,2.385-0.291,3.111-0.864
			c0.7-0.553,1.04-1.378,1.04-2.523c0-1.199-0.383-2.108-1.171-2.778c-0.802-0.681-2.043-1.026-3.689-1.026
			c-0.378,0-0.732-0.148-0.999-0.414c-0.266-0.266-0.413-0.62-0.413-0.997v-1.077c0-0.778,0.633-1.411,1.412-1.411h0.102
			c1.371,0,2.427-0.323,3.139-0.96c0.705-0.632,1.047-1.409,1.047-2.375c0-0.625-0.139-1.138-0.413-1.524
			c-0.285-0.397-0.663-0.691-1.152-0.897c-0.511-0.216-1.132-0.325-1.847-0.325c-1.025,0-1.95,0.238-2.747,0.707
			c-0.337,0.199-0.648,0.429-0.925,0.684c-0.895,0.822-2.287,0.779-3.102-0.096c-0.38-0.408-0.59-0.941-0.59-1.5
			c0-0.607,0.255-1.187,0.7-1.589c0.244-0.221,0.51-0.432,0.799-0.633c0.818-0.57,1.78-1.018,2.859-1.333
			c1.076-0.315,2.235-0.476,3.445-0.476c1.498,0,2.864,0.268,4.063,0.794c1.215,0.537,2.176,1.31,2.855,2.295
			c0.685,0.993,1.032,2.171,1.032,3.501c0,0.936-0.196,1.845-0.583,2.703c-0.389,0.862-0.932,1.595-1.614,2.176
			c-0.294,0.251-0.614,0.465-0.958,0.642c0.412,0.191,0.796,0.429,1.149,0.713c0.754,0.607,1.353,1.391,1.778,2.328
			c0,0.001,0.001,0.001,0.001,0.001c0.421,0.933,0.634,1.973,0.634,3.091c0,1.51-0.38,2.851-1.13,3.984
			c-0.742,1.123-1.793,2.009-3.121,2.632C360.056,487.75,358.493,488.061,356.719,488.061z M351.306,482.881
			c-0.324,0-0.642,0.132-0.874,0.391c-0.232,0.26-0.34,0.568-0.321,0.89c0.018,0.308,0.153,0.587,0.379,0.787
			c0.558,0.493,1.21,0.913,1.937,1.249c1.24,0.573,2.684,0.863,4.292,0.863c1.627,0,3.047-0.278,4.221-0.828
			c1.159-0.543,2.071-1.31,2.711-2.276c0.64-0.968,0.964-2.123,0.964-3.434c0-0.975-0.184-1.876-0.545-2.678
			c-0.361-0.795-0.864-1.455-1.496-1.963c-0.626-0.504-1.376-0.833-2.229-0.977c-0.24-0.04-0.415-0.247-0.417-0.489
			c-0.001-0.243,0.171-0.452,0.41-0.496c0.786-0.143,1.467-0.457,2.024-0.933c0.57-0.485,1.024-1.1,1.351-1.826
			c0.329-0.728,0.495-1.499,0.495-2.292c0-1.14-0.279-2.099-0.854-2.933c-0.574-0.832-1.394-1.487-2.437-1.948
			c-1.07-0.471-2.301-0.709-3.659-0.709c-1.115,0-2.179,0.146-3.164,0.435c-0.976,0.285-1.839,0.686-2.568,1.194
			c-0.252,0.176-0.485,0.359-0.699,0.554c-0.24,0.217-0.372,0.518-0.372,0.848c0,0.305,0.114,0.596,0.322,0.818
			c0.45,0.482,1.193,0.503,1.693,0.041c0.328-0.302,0.696-0.573,1.094-0.809c0.954-0.562,2.048-0.846,3.255-0.846
			c0.849,0,1.601,0.136,2.235,0.403c0.655,0.276,1.186,0.692,1.578,1.239c0.398,0.561,0.599,1.269,0.599,2.104
			c0,1.249-0.464,2.299-1.38,3.119c-0.9,0.807-2.181,1.216-3.806,1.216h-0.102c-0.227,0-0.412,0.185-0.412,0.411v1.077
			c0,0.109,0.042,0.212,0.12,0.289c0.079,0.079,0.182,0.122,0.292,0.122c1.89,0,3.35,0.426,4.337,1.265
			c1.011,0.859,1.523,2.05,1.523,3.54c0,1.451-0.478,2.565-1.42,3.309c-0.907,0.716-2.163,1.079-3.731,1.079
			c-1.383,0-2.554-0.259-3.479-0.77c-0.385-0.213-0.743-0.46-1.063-0.736C351.873,482.981,351.588,482.881,351.306,482.881z"/>
	</g>
	<g>
		<path style="fill:#D69EBF;" d="M180.178,141.38c-1.337-0.886-2.915-1.327-4.735-1.327c-1.659,0-3.157,0.389-4.494,1.166
			c-1.337,0.778-2.397,1.828-3.179,3.148c-0.784,1.32-1.177,2.782-1.177,4.383c0,1.58,0.376,3.007,1.123,4.279
			c0.749,1.273,1.776,2.281,3.078,3.023c1.3,0.744,2.747,1.113,4.339,1.113c0.852,0,1.653-0.139,2.402-0.414
			c0.747-0.277,1.41-0.668,1.986-1.175c0.578-0.507,1.027-1.094,1.351-1.763c-0.025,1.751-0.272,3.277-0.744,4.574
			c-0.474,1.299-1.131,2.289-1.971,2.975c-0.878,0.713-1.938,1.054-3.181,1.023c-1.029-0.027-2.04-0.326-2.919-0.861
			c-0.447-0.272-0.846-0.586-1.198-0.944c-0.324-0.329-0.749-0.495-1.175-0.495c-0.418,0-0.836,0.162-1.152,0.493
			c-0.576,0.601-0.599,1.543-0.052,2.169c0.659,0.757,1.426,1.379,2.294,1.869c1.291,0.726,2.72,1.09,4.289,1.09
			c1.913,0,3.566-0.543,4.961-1.628c1.395-1.085,2.478-2.701,3.25-4.847c0.771-2.146,1.158-4.812,1.158-7.997
			c0-2.335-0.376-4.339-1.123-6.015C182.559,143.544,181.515,142.264,180.178,141.38z M179.937,151.435
			c-0.484,0.813-1.112,1.464-1.884,1.954c-0.773,0.489-1.655,0.734-2.645,0.734c-0.923,0-1.78-0.245-2.576-0.734
			c-0.794-0.489-1.429-1.141-1.9-1.954c-0.474-0.811-0.711-1.707-0.711-2.688c0-1.002,0.243-1.917,0.726-2.739
			c0.484-0.825,1.117-1.482,1.901-1.971c0.784-0.489,1.649-0.736,2.593-0.736c0.946,0,1.809,0.247,2.593,0.736
			c0.782,0.489,1.418,1.146,1.902,1.971c0.483,0.823,0.726,1.738,0.726,2.739C180.664,149.728,180.421,150.624,179.937,151.435z"/>
	</g>
	<g>
		<path style="fill:#897FA4;" d="M96.278,124.683h-1.389v-14.217c0-1.01-0.817-1.827-1.827-1.827h-0.055
			c-0.564,0-1.098,0.261-1.444,0.707l-11.567,14.918c-0.248,0.32-0.385,0.713-0.385,1.118v1.13c0,1.008,0.819,1.827,1.829,1.827
			h9.392v3.984c0,1.008,0.819,1.827,1.829,1.827h0.401c1.01,0,1.827-0.819,1.827-1.827v-3.984h1.389
			c0.505,0,0.961-0.204,1.293-0.536c0.33-0.33,0.534-0.788,0.534-1.291C98.105,125.502,97.289,124.683,96.278,124.683z
			 M91.272,124.683h-7.603l7.603-9.905V124.683z"/>
	</g>
	<g>
		<path style="fill:#897FA4;" d="M734.95,202.254c0.51,0.866,0.765,1.868,0.765,3.005c0,1.207-0.29,2.263-0.867,3.172
			c-0.576,0.909-1.354,1.618-2.33,2.128c-0.978,0.508-2.086,0.764-3.325,0.764c-1.309,0-2.48-0.292-3.517-0.879
			c-0.691-0.392-1.273-0.876-1.746-1.454c-0.396-0.484-0.352-1.194,0.094-1.634c0.236-0.233,0.544-0.349,0.852-0.349
			c0.31,0,0.619,0.118,0.858,0.352c0.327,0.321,0.69,0.602,1.09,0.843c0.747,0.449,1.545,0.674,2.395,0.674
			c0.696,0,1.316-0.156,1.86-0.471c0.542-0.314,0.972-0.738,1.286-1.273c0.314-0.535,0.471-1.141,0.471-1.822
			c0-0.679-0.149-1.278-0.446-1.796c-0.298-0.518-0.706-0.921-1.224-1.211c-0.518-0.288-1.099-0.433-1.745-0.433
			c-0.662,0-1.273,0.145-1.834,0.433c-0.402,0.209-0.751,0.481-1.049,0.819c-0.236,0.268-0.569,0.43-0.927,0.43h-0.392
			c-0.767,0-1.342-0.699-1.195-1.451l1.78-9.122h7.622c0.673,0,1.218,0.545,1.218,1.217v0.139c0,0.672-0.545,1.217-1.218,1.217
			h-5.584l-0.917,4.942c0.288-0.305,0.679-0.551,1.171-0.738c0.493-0.186,1.053-0.28,1.681-0.28c1.139,0,2.158,0.246,3.058,0.738
			C733.736,200.708,734.44,201.386,734.95,202.254z"/>
	</g>
	<g>
		<path style="fill:#D69EBF;" d="M590.158,441.299v0.891c0,0.536-0.436,0.972-0.972,0.972h-8.997c-0.538,0-0.974-0.436-0.974-0.972
			v-0.891c0-0.536,0.436-0.972,0.974-0.972h3.094v-10.026c-0.172,0.23-0.439,0.473-0.801,0.731
			c-0.364,0.257-0.774,0.496-1.232,0.715c-0.458,0.22-0.911,0.397-1.36,0.53l-0.014,0.005c-0.615,0.182-1.232-0.279-1.232-0.921
			v-1.009c0-0.434,0.289-0.814,0.706-0.934c0.198-0.056,0.405-0.134,0.627-0.235c0.506-0.228,0.998-0.501,1.475-0.816
			c0.477-0.316,0.888-0.621,1.231-0.916c0.102-0.088,0.192-0.169,0.268-0.243c0.273-0.26,0.634-0.402,1.01-0.402h1.09
			c0.813,0,1.47,0.658,1.47,1.47v12.05h2.666C589.723,440.327,590.158,440.763,590.158,441.299z"/>
	</g>
	<g>
		<path style="fill:#FBF2FF;" d="M186.547,99.485c-1.098-0.947-2.263-1.71-3.497-2.289c1.04-0.46,2.012-1.098,2.92-1.906
			c0.905-0.808,1.616-1.742,2.138-2.801c0.518-1.059,0.779-2.167,0.779-3.323c0-1.848-0.396-3.448-1.185-4.797
			c-0.789-1.346-1.848-2.482-3.178-3.407c-1.33-0.924-2.785-1.626-4.363-2.109c-1.581-0.483-3.139-0.724-4.678-0.724
			c-1.542,0-3.091,0.242-4.653,0.724c-1.558,0.483-3.004,1.185-4.334,2.109c-1.327,0.924-2.389,2.08-3.178,3.464
			c-0.789,1.388-1.182,2.969-1.182,4.74c0,1.194,0.267,2.312,0.808,3.352c0.538,1.04,1.249,1.964,2.138,2.772
			c0.886,0.808,1.848,1.446,2.888,1.906c-1.156,0.502-2.273,1.207-3.352,2.115c-1.078,0.908-1.974,2.019-2.685,3.329
			c-0.715,1.314-1.069,2.782-1.069,4.405c0,2.431,0.634,4.595,1.906,6.485c1.272,1.893,3.014,3.4,5.229,4.521
			c2.215,1.117,4.688,1.681,7.425,1.681c2.656,0,5.113-0.522,7.367-1.565c2.251-1.043,4.044-2.492,5.37-4.347
			c1.33-1.851,1.996-4.015,1.996-6.484c0-1.661-0.328-3.149-0.982-4.459C188.521,101.562,187.645,100.432,186.547,99.485z
			 M169.56,86.423c0.637-0.831,1.475-1.475,2.515-1.938c1.04-0.46,2.157-0.692,3.352-0.692c1.272,0,2.424,0.222,3.468,0.663
			c1.037,0.444,1.884,1.069,2.54,1.88c0.654,0.808,0.982,1.79,0.982,2.946c0,1.233-0.357,2.273-1.069,3.12
			c-0.712,0.847-1.59,1.494-2.627,1.935c-1.04,0.444-2.122,0.663-3.236,0.663c-1.04,0-2.099-0.209-3.178-0.634
			c-1.079-0.425-1.964-1.059-2.66-1.906c-0.692-0.847-1.04-1.887-1.04-3.12C168.607,88.222,168.925,87.25,169.56,86.423z
			 M182.503,110.558c-0.789,1.063-1.8,1.896-3.033,2.495s-2.544,0.898-3.928,0.898c-1.005,0-1.996-0.155-2.975-0.464
			c-0.982-0.309-1.871-0.773-2.66-1.391c-0.789-0.621-1.413-1.365-1.877-2.235c-0.464-0.869-0.695-1.829-0.695-2.872
			c0-1.471,0.386-2.737,1.159-3.799c0.769-1.066,1.771-1.887,3.001-2.466c1.233-0.579,2.544-0.869,3.931-0.869
			c1.04,0,2.041,0.155,3.004,0.464c0.963,0.309,1.858,0.773,2.685,1.391c0.827,0.621,1.465,1.365,1.906,2.234
			c0.444,0.869,0.666,1.845,0.666,2.93C183.688,108.265,183.292,109.495,182.503,110.558z"/>
	</g>
	<g>
		<path style="fill:#EBD2E1;" d="M115.682,195.393h-0.416c-0.879,0-1.678-0.448-2.137-1.197s-0.494-1.665-0.094-2.447l10.248-20.064
			h-10.837c-1.382,0-2.507-1.124-2.507-2.505c0-0.669,0.261-1.298,0.735-1.772c0.473-0.472,1.102-0.732,1.772-0.732h14.856
			c0.964,0,1.841,0.49,2.345,1.312c0.505,0.822,0.546,1.826,0.11,2.686l0,0l-11.842,23.35
			C117.487,194.868,116.631,195.393,115.682,195.393z M112.447,167.674c-0.403,0-0.781,0.156-1.065,0.44
			c-0.285,0.285-0.442,0.663-0.442,1.065c0,0.83,0.676,1.505,1.507,1.505H124.1c0.174,0,0.335,0.09,0.426,0.239
			c0.091,0.148,0.098,0.333,0.019,0.489l-10.62,20.792c-0.24,0.47-0.219,1.02,0.057,1.47c0.275,0.45,0.755,0.719,1.284,0.719h0.416
			c0.57,0,1.084-0.315,1.342-0.824l11.842-23.35c0.277-0.548,0.251-1.187-0.07-1.71c-0.321-0.523-0.879-0.835-1.493-0.835H112.447z
			 M129.312,170.445h0.01H129.312z"/>
	</g>
	<g>
		<path style="fill:#EBD2E1;" d="M126.087,441.028c-1.887,0-3.591-0.5-5.065-1.484c-1.464-0.978-2.637-2.34-3.484-4.05
			c-0.845-1.702-1.273-3.666-1.273-5.837s0.429-4.135,1.274-5.838c0.845-1.704,2.016-3.072,3.48-4.065
			c1.476-0.997,3.181-1.502,5.068-1.502c1.89,0,3.59,0.506,5.053,1.503c1.448,0.99,2.619,2.357,3.479,4.062c0,0.001,0,0.001,0,0.001
			c0.857,1.701,1.291,3.666,1.291,5.84c0,2.174-0.435,4.139-1.291,5.84c-0.863,1.71-2.034,3.071-3.481,4.046
			C129.677,440.528,127.977,441.028,126.087,441.028z M126.087,419.251c-1.684,0-3.201,0.447-4.507,1.33
			c-1.319,0.895-2.378,2.134-3.145,3.682c-0.776,1.563-1.17,3.378-1.17,5.394c0,2.016,0.394,3.83,1.169,5.393
			c0.769,1.551,1.826,2.783,3.143,3.662c1.307,0.874,2.824,1.316,4.51,1.316c1.687,0,3.198-0.442,4.491-1.314
			c1.304-0.879,2.363-2.111,3.148-3.667c0.786-1.56,1.184-3.373,1.184-5.39c0-2.016-0.399-3.829-1.184-5.39l0,0
			c-0.783-1.553-1.843-2.793-3.15-3.687C129.283,419.698,127.772,419.251,126.087,419.251z M126.087,437.312
			c-1.152,0-2.179-0.34-3.054-1.011c-0.856-0.656-1.539-1.568-2.03-2.709c-0.484-1.122-0.73-2.446-0.73-3.936
			c0-1.488,0.24-2.816,0.713-3.948c0.48-1.157,1.165-2.077,2.036-2.733c0.881-0.67,1.902-1.01,3.032-1.01
			c1.152,0,2.186,0.346,3.071,1.029c0.868,0.67,1.551,1.589,2.031,2.73c0.473,1.12,0.713,2.443,0.713,3.932
			c0,1.463-0.24,2.774-0.713,3.897l0,0c-0.48,1.143-1.164,2.063-2.031,2.73C128.239,436.966,127.217,437.312,126.087,437.312z
			 M126.053,422.965c-0.919,0-1.714,0.264-2.429,0.808c-0.728,0.548-1.305,1.328-1.716,2.319c-0.422,1.011-0.636,2.209-0.636,3.564
			c0,1.352,0.218,2.543,0.649,3.54c0.423,0.982,1.002,1.76,1.72,2.311c0.706,0.541,1.505,0.804,2.445,0.804
			c0.916,0,1.71-0.268,2.426-0.82c0.728-0.561,1.307-1.344,1.719-2.325v-0.001c0.421-0.999,0.635-2.18,0.635-3.509
			c0-1.354-0.213-2.547-0.634-3.544c-0.412-0.981-0.991-1.764-1.72-2.327C127.797,423.234,126.992,422.965,126.053,422.965z"/>
	</g>
	<g>
		<path style="fill:#897FA4;" d="M175.98,455.167v0.891c0,0.536-0.436,0.972-0.972,0.972h-8.997c-0.538,0-0.974-0.436-0.974-0.972
			v-0.891c0-0.536,0.436-0.972,0.974-0.972h3.094v-10.026c-0.173,0.23-0.439,0.473-0.801,0.731
			c-0.364,0.257-0.774,0.496-1.232,0.715c-0.458,0.22-0.911,0.397-1.36,0.53l-0.014,0.005c-0.615,0.182-1.232-0.279-1.232-0.921
			v-1.009c0-0.434,0.289-0.814,0.706-0.934c0.198-0.056,0.405-0.134,0.627-0.235c0.506-0.228,0.998-0.501,1.475-0.816
			c0.477-0.316,0.887-0.621,1.231-0.916c0.102-0.088,0.191-0.169,0.268-0.243c0.273-0.26,0.634-0.402,1.01-0.402h1.09
			c0.813,0,1.47,0.658,1.47,1.47v12.05h2.666C175.544,454.194,175.98,454.63,175.98,455.167z"/>
	</g>
	<g>
		<path style="fill:#FBF2FF;" d="M182.262,387.873c0.773,1.314,1.161,2.834,1.161,4.559c0,1.831-0.439,3.433-1.316,4.811
			c-0.874,1.378-2.055,2.455-3.534,3.228c-1.484,0.771-3.164,1.159-5.044,1.159c-1.986,0-3.762-0.444-5.335-1.333
			c-1.049-0.594-1.932-1.329-2.649-2.205c-0.601-0.734-0.534-1.811,0.142-2.479c0.357-0.353,0.825-0.53,1.292-0.53
			c0.469,0,0.939,0.179,1.301,0.534c0.495,0.487,1.047,0.913,1.654,1.279c1.133,0.68,2.343,1.023,3.633,1.023
			c1.055,0,1.997-0.237,2.821-0.715c0.823-0.476,1.475-1.12,1.951-1.932c0.476-0.812,0.715-1.732,0.715-2.763
			c0-1.029-0.226-1.938-0.676-2.724c-0.452-0.786-1.07-1.398-1.856-1.837c-0.786-0.437-1.667-0.657-2.647-0.657
			c-1.004,0-1.932,0.22-2.783,0.657c-0.609,0.317-1.139,0.73-1.592,1.243c-0.357,0.407-0.864,0.653-1.406,0.653h-0.594
			c-1.163,0-2.035-1.06-1.813-2.201l2.701-13.837h11.563c1.021,0,1.848,0.827,1.848,1.846v0.211c0,1.019-0.827,1.846-1.848,1.846
			h-8.47l-1.391,7.497c0.437-0.463,1.029-0.836,1.777-1.12c0.747-0.282,1.598-0.424,2.55-0.424c1.727,0,3.274,0.373,4.639,1.12
			C180.42,385.528,181.488,386.557,182.262,387.873z"/>
	</g>
	<g>
		<path style="fill:#EBD2E1;" d="M633.932,244.728c-1.288,0-2.48-0.304-3.544-0.903c-0.697-0.392-1.32-0.894-1.852-1.492
			c-0.556-0.627-0.617-1.556-0.147-2.207c0.612-0.848,1.935-0.936,2.666-0.191c0.244,0.249,0.528,0.472,0.844,0.661
			c0.574,0.345,1.224,0.544,1.879,0.575c0.883,0.033,1.609-0.179,2.22-0.673c0.57-0.466,1.029-1.163,1.361-2.071
			c0.185-0.509,0.323-1.073,0.414-1.688c-0.027,0.024-0.055,0.049-0.083,0.073c-0.483,0.426-1.05,0.762-1.683,0.997
			c-0.632,0.232-1.313,0.35-2.023,0.35c-1.309,0-2.516-0.311-3.586-0.923c-1.074-0.611-1.933-1.454-2.551-2.505
			c-0.619-1.054-0.934-2.247-0.934-3.546c0-1.317,0.328-2.538,0.976-3.628c0.643-1.084,1.525-1.959,2.623-2.598
			c1.103-0.641,2.351-0.965,3.71-0.965c1.496,0,2.815,0.371,3.92,1.104l0,0c1.104,0.731,1.976,1.797,2.588,3.166
			c0.603,1.351,0.908,2.976,0.908,4.831c0,2.495-0.31,4.622-0.92,6.321c-0.625,1.734-1.52,3.065-2.663,3.955
			C636.897,244.271,635.51,244.728,633.932,244.728z M629.795,240.404c-0.139,0-0.4,0.04-0.594,0.307
			c-0.196,0.271-0.16,0.684,0.084,0.958c0.457,0.516,0.993,0.947,1.594,1.285c0.912,0.514,1.94,0.775,3.054,0.775
			c1.351,0,2.531-0.386,3.511-1.146c0.99-0.771,1.776-1.951,2.336-3.504c0.571-1.591,0.861-3.604,0.861-5.983
			c0-1.714-0.276-3.202-0.821-4.423c-0.533-1.193-1.282-2.115-2.227-2.74l0,0c-0.939-0.622-2.071-0.938-3.367-0.938
			c-1.181,0-2.26,0.279-3.207,0.829c-0.948,0.552-1.711,1.308-2.266,2.244c-0.555,0.933-0.836,1.981-0.836,3.117
			c0,1.118,0.268,2.141,0.795,3.039c0.529,0.897,1.264,1.619,2.185,2.143c0.919,0.525,1.958,0.791,3.091,0.791
			c0.593,0,1.156-0.097,1.677-0.288c0.515-0.191,0.977-0.464,1.369-0.81c0.391-0.342,0.699-0.745,0.919-1.199
			c0.102-0.211,0.335-0.327,0.565-0.269c0.228,0.054,0.388,0.259,0.385,0.493c-0.02,1.398-0.222,2.638-0.602,3.684
			c-0.395,1.081-0.957,1.923-1.67,2.505c-0.798,0.647-1.767,0.948-2.898,0.895c-0.82-0.038-1.632-0.286-2.348-0.716
			c-0.388-0.233-0.738-0.508-1.042-0.817C630.196,240.486,630.002,240.404,629.795,240.404z M634.198,235.818
			c-0.799,0-1.554-0.215-2.243-0.64c-0.682-0.419-1.231-0.983-1.633-1.679c-0.407-0.696-0.614-1.477-0.614-2.317
			c0-0.858,0.211-1.652,0.628-2.361c0.41-0.699,0.958-1.268,1.628-1.686c1.367-0.852,3.157-0.852,4.521,0
			c0.672,0.421,1.22,0.988,1.63,1.688c0.416,0.708,0.627,1.502,0.627,2.36c0,0.843-0.212,1.624-0.629,2.324
			c-0.412,0.691-0.954,1.253-1.611,1.669C635.828,235.601,635.052,235.818,634.198,235.818z M634.224,227.492
			c-0.627,0-1.209,0.165-1.73,0.49c-0.532,0.332-0.968,0.785-1.296,1.345c-0.325,0.553-0.49,1.177-0.49,1.855
			c0,0.661,0.161,1.271,0.479,1.815c0.319,0.551,0.754,0.998,1.292,1.329c1.119,0.688,2.491,0.635,3.487,0.004
			c0.524-0.332,0.957-0.781,1.287-1.337c0,0,0,0,0-0.001c0.324-0.542,0.488-1.151,0.488-1.811c0-0.678-0.165-1.302-0.489-1.854
			c-0.328-0.56-0.765-1.013-1.298-1.347C635.427,227.653,634.861,227.492,634.224,227.492z"/>
	</g>
	<g>
		<path style="fill:#FBF2FF;" d="M614.453,206.952h-1.984V185.52c0-1.521-1.233-2.754-2.754-2.754h-0.083
			c-0.851,0-1.655,0.393-2.177,1.065l-17.437,22.488c-0.375,0.482-0.58,1.075-0.58,1.686v1.704c0,1.521,1.233,2.754,2.754,2.754
			h14.161v6.006c0,1.521,1.233,2.754,2.754,2.754h0.608c1.521,0,2.754-1.233,2.754-2.754v-6.006h2.094
			c0.761,0,1.449-0.307,1.95-0.807c0.604-0.604,0.928-1.494,0.761-2.443C617.053,207.958,615.727,206.952,614.453,206.952z
			 M607.016,206.952h-11.462l11.462-14.932V206.952z"/>
	</g>
	<g>
		<path style="fill:#897FA4;" d="M595.551,261.814l-9.111,17.964c-0.262,0.518-0.795,0.845-1.376,0.845h-0.32
			c-1.153,0-1.898-1.218-1.374-2.245l8.171-15.996h-8.901c-0.706,0-1.453-0.555-1.582-1.249c-0.1-0.539,0.083-1.043,0.426-1.385
			c0.279-0.279,0.664-0.451,1.091-0.451h11.43C595.297,259.298,596.135,260.661,595.551,261.814z"/>
	</g>
	<g>
		<defs>
			<rect id="SVGID_1_" width="750" height="500"/>
		</defs>
		<clipPath id="SVGID_00000133531231159279461690000011688262171602549922_">
			<use xlink:href="#SVGID_1_"  style="overflow:visible;"/>
		</clipPath>
		<g style="clip-path:url(#SVGID_00000133531231159279461690000011688262171602549922_);">
			<g>
				<path style="fill:#EBD2E1;" d="M178.213,49.604c-0.057,0-0.115-0.01-0.17-0.03l-29.148-10.543l-42.822-0.62
					c-0.204-0.003-0.385-0.129-0.459-0.32c-0.074-0.19-0.024-0.406,0.125-0.545l29.226-27.36c0.093-0.087,0.215-0.135,0.342-0.135
					h22.827l29.009-24.071l37.263-71.421c0.104-0.199,0.326-0.306,0.546-0.258c0.219,0.046,0.381,0.233,0.396,0.457l6.84,103.845
					c0.005,0.085-0.011,0.171-0.048,0.248l-13.058,27.36c-0.063,0.133-0.182,0.231-0.325,0.268c-0.141,0.037-0.294,0.01-0.414-0.075
					l-16.517-11.622L178.48,49.527C178.399,49.577,178.306,49.604,178.213,49.604z M107.327,37.429l41.666,0.603
					c0.056,0.001,0.11,0.011,0.163,0.03l28.996,10.488l23.422-14.793c0.17-0.107,0.39-0.103,0.555,0.014l16.306,11.474
					l12.747-26.708l-6.714-101.934l-36.484,69.929c-0.031,0.059-0.073,0.111-0.124,0.153l-29.226,24.251
					c-0.09,0.075-0.203,0.115-0.319,0.115h-22.81L107.327,37.429z"/>
			</g>
			<g>
				<polygon style="fill:#EBD2E1;" points="106.081,28.329 108.299,33.361 113.766,32.766 110.518,37.203 113.766,41.64 
					108.299,41.046 106.081,46.077 103.862,41.046 98.396,41.64 101.644,37.203 98.396,32.766 103.862,33.361 				"/>
			</g>
			<g>
				<polygon style="fill:#EBD2E1;" points="224.004,-94.084 226.223,-89.053 231.689,-89.647 228.441,-85.21 231.689,-80.773 
					226.223,-81.368 224.004,-76.336 221.786,-81.368 216.319,-80.773 219.567,-85.21 216.319,-89.647 221.786,-89.053 				"/>
			</g>
			<g>
				<polygon style="fill:#EBD2E1;" points="219.72,35.709 221.939,40.74 227.405,40.146 224.157,44.583 227.405,49.02 
					221.939,48.425 219.72,53.456 217.502,48.425 212.035,49.02 215.283,44.583 212.035,40.146 217.502,40.74 				"/>
			</g>
			<g>
				<path style="fill:#EBD2E1;" d="M134.71,7.784c-3.955,0-3.962,6.147,0,6.147C138.665,13.931,138.672,7.784,134.71,7.784z"/>
			</g>
			<g>
				<path style="fill:#EBD2E1;" d="M158.918,8.069c-3.955,0-3.962,6.147,0,6.147C162.873,14.216,162.879,8.069,158.918,8.069z"/>
			</g>
			<g>
				<path style="fill:#EBD2E1;" d="M187.966-16.707c-3.955,0-3.962,6.147,0,6.147C191.921-10.561,191.928-16.707,187.966-16.707z"/>
			</g>
			<g>
				<path style="fill:#EBD2E1;" d="M201.921,30.853c-3.955,0-3.962,6.147,0,6.147C205.876,36.999,205.882,30.853,201.921,30.853z"/>
			</g>
			<g>
				<path style="fill:#EBD2E1;" d="M231.254,15.474c-3.955,0-3.961,6.147,0,6.147C235.21,21.62,235.216,15.474,231.254,15.474z"/>
			</g>
			<g>
				<path style="fill:#EBD2E1;" d="M178.853,45.946c-3.955,0-3.961,6.147,0,6.147C182.808,52.093,182.815,45.946,178.853,45.946z"/>
			</g>
			<g>
				<path style="fill:#EBD2E1;" d="M149.234,35.409c-3.955,0-3.961,6.147,0,6.147C153.19,41.556,153.196,35.409,149.234,35.409z"/>
			</g>
		</g>
		<g style="clip-path:url(#SVGID_00000133531231159279461690000011688262171602549922_);">
			<g>
				<path style="fill:#EBD2E1;" d="M1.964,504.784c-0.099,0-0.198-0.029-0.283-0.088l-41.663-28.604
					c-0.203-0.139-0.274-0.405-0.168-0.627l24.251-50.989c0.119-0.249,0.417-0.355,0.667-0.236c0.25,0.118,0.355,0.417,0.237,0.666
					l-24.068,50.604L1.99,503.695l57.644-32.5l-30.685-34.981c-0.095-0.108-0.139-0.253-0.12-0.396
					c0.019-0.143,0.098-0.271,0.218-0.351l35.444-23.629l24.184-22.954l41.079-31.746c0.218-0.17,0.533-0.129,0.701,0.09
					c0.169,0.219,0.129,0.532-0.09,0.701l-41.04,31.713l-24.212,22.975l-35.036,23.366l30.715,35.015
					c0.099,0.113,0.142,0.266,0.117,0.414c-0.025,0.148-0.116,0.277-0.247,0.352L2.209,504.72
					C2.133,504.763,2.048,504.784,1.964,504.784z"/>
			</g>
			<g>
				<path style="fill:#EBD2E1;" d="M89.019,389.747c-0.131,0-0.258-0.052-0.352-0.146c-0.111-0.109-0.164-0.264-0.144-0.419
					l4.975-38.553c0.036-0.273,0.287-0.466,0.56-0.432c0.274,0.035,0.467,0.286,0.432,0.561l-4.891,37.904l40.393-5.508
					c0.275-0.046,0.526,0.153,0.563,0.428c0.037,0.273-0.154,0.525-0.428,0.563l-41.04,5.597
					C89.064,389.745,89.041,389.747,89.019,389.747z"/>
			</g>
			<g>
				<polygon style="fill:#EBD2E1;" points="89.019,382.039 91.237,387.071 96.704,386.476 93.456,390.913 96.704,395.35 
					91.237,394.756 89.019,399.787 86.8,394.756 81.334,395.35 84.582,390.913 81.334,386.476 86.8,387.071 				"/>
			</g>
			<g>
				<polygon style="fill:#EBD2E1;" points="2.666,495.411 4.885,500.442 10.351,499.848 7.103,504.285 10.351,508.722 
					4.885,508.127 2.666,513.159 0.448,508.127 -5.019,508.722 -1.771,504.285 -5.019,499.848 0.448,500.442 				"/>
			</g>
			<g>
				<polygon style="fill:#EBD2E1;" points="-16.212,417.683 -13.994,422.714 -8.527,422.12 -11.775,426.557 -8.527,430.994 
					-13.994,430.399 -16.212,435.431 -18.431,430.399 -23.897,430.994 -20.649,426.557 -23.897,422.12 -18.431,422.714 				"/>
			</g>
			<g>
				<path style="fill:#EBD2E1;" d="M-40.112,472.567c-3.955,0-3.962,6.147,0,6.147C-36.157,478.714-36.151,472.567-40.112,472.567z"
					/>
			</g>
			<g>
				<path style="fill:#EBD2E1;" d="M29.946,432.981c-3.955,0-3.961,6.147,0,6.147C33.902,439.128,33.908,432.981,29.946,432.981z"/>
			</g>
			<g>
				<path style="fill:#EBD2E1;" d="M59.28,468.011c-3.955,0-3.962,6.147,0,6.147C63.235,474.158,63.242,468.011,59.28,468.011z"/>
			</g>
			<g>
				<path style="fill:#EBD2E1;" d="M130.193,380.58c-3.955,0-3.962,6.147,0,6.147C134.148,386.727,134.155,380.58,130.193,380.58z"
					/>
			</g>
			<g>
				<path style="fill:#EBD2E1;" d="M130.193,354.094c-3.955,0-3.962,6.147,0,6.147C134.148,360.241,134.155,354.094,130.193,354.094
					z"/>
			</g>
			<g>
				<path style="fill:#EBD2E1;" d="M93.17,346.12c-3.955,0-3.962,6.147,0,6.147C97.125,352.267,97.132,346.12,93.17,346.12z"/>
			</g>
		</g>
		<g style="clip-path:url(#SVGID_00000133531231159279461690000011688262171602549922_);">
			<g>
				<path style="fill:#EBD2E1;" d="M600.201,128.786c-0.095,0-0.188-0.027-0.271-0.079c-0.148-0.095-0.235-0.262-0.229-0.439
					l1.239-34.061l-20.452-36.565c-0.113-0.203-0.072-0.458,0.101-0.614l40.419-36.688c0.18-0.164,0.452-0.175,0.645-0.023
					l28.038,21.943l10.23-31.894l-59.352-35.241c-0.238-0.141-0.316-0.448-0.175-0.685c0.141-0.238,0.448-0.316,0.685-0.174
					L660.773,9.71c0.201,0.119,0.292,0.361,0.222,0.583l-10.571,32.956c-0.051,0.156-0.174,0.277-0.33,0.325
					c-0.156,0.047-0.325,0.016-0.455-0.084l-28.271-22.126l-39.812,36.137l20.326,36.341c0.045,0.08,0.066,0.171,0.063,0.262
					l-1.214,33.358l36.556-18.278c0.247-0.123,0.547-0.024,0.671,0.224c0.123,0.247,0.023,0.547-0.224,0.671l-37.31,18.655
					C600.354,128.769,600.277,128.786,600.201,128.786z"/>
			</g>
			<g>
				<path style="fill:#EBD2E1;" d="M633.779,140.601c-0.055,0-0.111-0.009-0.166-0.028l-33.578-11.814
					c-0.261-0.092-0.397-0.377-0.306-0.638c0.092-0.26,0.377-0.399,0.638-0.306l33.578,11.814c0.261,0.092,0.398,0.377,0.306,0.638
					C634.178,140.472,633.985,140.601,633.779,140.601z"/>
			</g>
			<g>
				<path style="fill:#EBD2E1;" d="M726.431,118.215c-0.136,0-0.271-0.055-0.37-0.164l-24.873-27.36
					c-0.124-0.137-0.163-0.33-0.101-0.504l12.377-34.657l-12.379-35.9c-0.018-0.053-0.027-0.107-0.027-0.163v-42.284
					c0-0.276,0.224-0.5,0.5-0.5c0.276,0,0.5,0.224,0.5,0.5v42.2l12.409,35.987c0.037,0.107,0.036,0.224-0.002,0.331l-12.336,34.54
					l24.672,27.138c0.185,0.205,0.171,0.521-0.034,0.707C726.672,118.172,726.552,118.215,726.431,118.215z"/>
			</g>
			<g>
				<path style="fill:#EBD2E1;" d="M678.551,54.789c-0.062,0-0.123-0.011-0.183-0.034l-28.604-11.193
					c-0.257-0.101-0.384-0.391-0.283-0.648c0.101-0.257,0.388-0.384,0.648-0.284l28.227,11.046l22.785-34.485
					c0.151-0.231,0.462-0.294,0.692-0.142c0.23,0.152,0.294,0.462,0.142,0.692l-23.008,34.822
					C678.873,54.708,678.715,54.789,678.551,54.789z"/>
			</g>
			<g>
				<path style="fill:#EBD2E1;" d="M751.305,67.226c-0.048,0-0.097-0.007-0.144-0.021l-37.31-11.193
					c-0.265-0.08-0.415-0.358-0.335-0.623c0.079-0.265,0.359-0.411,0.622-0.335l37.132,11.14l27.813-12.361
					c0.253-0.111,0.548,0,0.66,0.254c0.112,0.252-0.002,0.548-0.254,0.66l-27.982,12.437
					C751.443,67.211,751.374,67.226,751.305,67.226z"/>
			</g>
			<g>
				<polygon style="fill:#EBD2E1;" points="599.488,119.326 601.707,124.358 607.173,123.763 603.925,128.2 607.173,132.637 
					601.707,132.043 599.488,137.074 597.27,132.043 591.803,132.637 595.051,128.2 591.803,123.763 597.27,124.358 				"/>
			</g>
			<g>
				<polygon style="fill:#EBD2E1;" points="701.558,10.593 703.777,15.625 709.243,15.03 705.995,19.467 709.243,23.904 
					703.777,23.31 701.558,28.341 699.34,23.31 693.873,23.904 697.121,19.467 693.873,15.03 699.34,15.625 				"/>
			</g>
			<g>
				<polygon style="fill:#EBD2E1;" points="713.995,45.415 716.213,50.447 721.68,49.852 718.432,54.289 721.68,58.726 
					716.213,58.132 713.995,63.163 711.776,58.132 706.31,58.726 709.558,54.289 706.31,49.852 711.776,50.447 				"/>
			</g>
			<g>
				<polygon style="fill:#EBD2E1;" points="649.947,31.082 652.165,36.114 657.632,35.519 654.384,39.956 657.632,44.393 
					652.165,43.799 649.947,48.83 647.728,43.799 642.262,44.393 645.51,39.956 642.262,35.519 647.728,36.114 				"/>
			</g>
			<g>
				<path style="fill:#EBD2E1;" d="M679.168,51.293c-3.955,0-3.962,6.147,0,6.147C683.123,57.439,683.13,51.293,679.168,51.293z"/>
			</g>
			<g>
				<path style="fill:#EBD2E1;" d="M636.877,107.468c-3.955,0-3.962,6.147,0,6.147C640.832,113.614,640.839,107.468,636.877,107.468
					z"/>
			</g>
			<g>
				<path style="fill:#EBD2E1;" d="M601.207,91.235c-3.955,0-3.961,6.147,0,6.147C605.162,97.381,605.169,91.235,601.207,91.235z"/>
			</g>
			<g>
				<path style="fill:#EBD2E1;" d="M580.061,53.856c-3.955,0-3.962,6.147,0,6.147C584.016,60.003,584.023,53.856,580.061,53.856z"/>
			</g>
			<g>
				<path style="fill:#EBD2E1;" d="M620.217,18.399c-3.955,0-3.962,6.147,0,6.147C624.172,24.546,624.178,18.399,620.217,18.399z"/>
			</g>
			<g>
				<path style="fill:#EBD2E1;" d="M659.945,7.293c-3.955,0-3.961,6.147,0,6.147C663.9,13.439,663.907,7.293,659.945,7.293z"/>
			</g>
			<g>
				<path style="fill:#EBD2E1;" d="M600.139-27.737c-3.955,0-3.961,6.147,0,6.147C604.094-21.59,604.1-27.737,600.139-27.737z"/>
			</g>
			<g>
				<path style="fill:#EBD2E1;" d="M700.955-25.387c-3.955,0-3.962,6.147,0,6.147C704.91-19.24,704.917-25.387,700.955-25.387z"/>
			</g>
			<g>
				<path style="fill:#EBD2E1;" d="M779.13,50.866c-3.955,0-3.962,6.147,0,6.147C783.085,57.012,783.092,50.866,779.13,50.866z"/>
			</g>
			<g>
				<path style="fill:#EBD2E1;" d="M751.363,63.895c-3.955,0-3.962,6.147,0,6.147C755.318,70.041,755.325,63.895,751.363,63.895z"/>
			</g>
			<g>
				<path style="fill:#EBD2E1;" d="M702.45,86.536c-3.955,0-3.962,6.147,0,6.147C706.405,92.682,706.412,86.536,702.45,86.536z"/>
			</g>
			<g>
				<path style="fill:#EBD2E1;" d="M726.159,114.303c-3.955,0-3.962,6.147,0,6.147C730.114,120.45,730.121,114.303,726.159,114.303z
					"/>
			</g>
			<g>
				<path style="fill:#EBD2E1;" d="M634.1,137.798c-3.955,0-3.962,6.147,0,6.147C638.055,143.945,638.062,137.798,634.1,137.798z"/>
			</g>
		</g>
		<g style="clip-path:url(#SVGID_00000133531231159279461690000011688262171602549922_);">
			<g>
				<path style="fill:#EBD2E1;" d="M113.882,307.743c-0.183,0-0.358-0.101-0.446-0.274l-17.688-34.912L57.648,232.6l-30.03-8.823
					c-0.142-0.042-0.258-0.145-0.317-0.28L-1.926,156.34c-0.11-0.253,0.006-0.548,0.259-0.658c0.253-0.11,0.548,0.006,0.658,0.259
					l29.132,66.943l29.935,8.795c0.084,0.024,0.16,0.071,0.221,0.135l38.242,40.107c0.034,0.035,0.062,0.075,0.084,0.119
					l17.722,34.978c0.125,0.246,0.026,0.547-0.22,0.672C114.035,307.726,113.957,307.743,113.882,307.743z"/>
			</g>
			<g>
				<path style="fill:#EBD2E1;" d="M57.917,232.657c-0.061,0-0.123-0.011-0.183-0.034c-0.257-0.102-0.384-0.392-0.283-0.649
					l9.992-25.434h-24.45c-0.166,0-0.321-0.082-0.414-0.22c-0.093-0.137-0.112-0.312-0.05-0.466l13.154-32.963l-7.579-30.624
					c-0.066-0.268,0.097-0.539,0.365-0.605c0.268-0.067,0.539,0.097,0.605,0.365l7.618,30.78c0.025,0.102,0.018,0.208-0.021,0.306
					l-12.94,32.427h24.446c0.166,0,0.32,0.082,0.413,0.218c0.093,0.137,0.113,0.311,0.052,0.464l-10.26,26.116
					C58.306,232.537,58.117,232.657,57.917,232.657z"/>
			</g>
			<g>
				<polygon style="fill:#EBD2E1;" points="-1.467,145.854 0.752,150.885 6.218,150.291 2.97,154.728 6.218,159.165 0.752,158.57 
					-1.467,163.602 -3.685,158.57 -9.152,159.165 -5.904,154.728 -9.152,150.291 -3.685,150.885 				"/>
			</g>
			<g>
				<polygon style="fill:#EBD2E1;" points="57.451,222.818 59.669,227.849 65.136,227.254 61.888,231.691 65.136,236.128 
					59.669,235.534 57.451,240.565 55.232,235.534 49.766,236.128 53.014,231.691 49.766,227.254 55.232,227.849 				"/>
			</g>
			<g>
				<polygon style="fill:#EBD2E1;" points="96.543,262.446 98.762,267.477 104.228,266.883 100.98,271.32 104.228,275.757 
					98.762,275.162 96.543,280.194 94.325,275.162 88.858,275.757 92.106,271.32 88.858,266.883 94.325,267.477 				"/>
			</g>
			<g>
				<path style="fill:#EBD2E1;" d="M48.009,139.539c-3.955,0-3.962,6.147,0,6.147C51.964,145.686,51.971,139.539,48.009,139.539z"/>
			</g>
			<g>
				<path style="fill:#EBD2E1;" d="M55.272,168.588c-3.955,0-3.962,6.147,0,6.147C59.227,174.735,59.233,168.588,55.272,168.588z"/>
			</g>
			<g>
				<path style="fill:#EBD2E1;" d="M42.883,201.909c-3.955,0-3.962,6.147,0,6.147C46.838,208.055,46.845,201.909,42.883,201.909z"/>
			</g>
			<g>
				<path style="fill:#EBD2E1;" d="M68.941,203.617c-3.955,0-3.961,6.147,0,6.147C72.897,209.764,72.903,203.617,68.941,203.617z"/>
			</g>
			<g>
				<path style="fill:#EBD2E1;" d="M27.077,219.423c-3.955,0-3.962,6.147,0,6.147C31.032,225.57,31.039,219.423,27.077,219.423z"/>
			</g>
			<g>
				<path style="fill:#EBD2E1;" d="M113.796,305.715c-3.955,0-3.961,6.147,0,6.147C117.751,311.862,117.758,305.715,113.796,305.715
					z"/>
			</g>
		</g>
		<g style="clip-path:url(#SVGID_00000133531231159279461690000011688262171602549922_);">
			<g>
				<path style="fill:#EBD2E1;" d="M130.898,575.599c-0.118,0-0.235-0.041-0.33-0.125c-0.207-0.183-0.227-0.498-0.045-0.705
					l34.28-38.913l-24.085-44.465c-0.067-0.123-0.079-0.268-0.033-0.401c0.046-0.133,0.145-0.239,0.273-0.296l85.811-37.31
					c0.161-0.068,0.344-0.05,0.488,0.051l15.809,11.159l23.264,9.306c0.103,0.041,0.189,0.114,0.245,0.21L288,510.44l26.08,27.941
					c0.188,0.201,0.177,0.518-0.024,0.706c-0.203,0.188-0.519,0.178-0.707-0.024l-26.117-27.981
					c-0.024-0.026-0.046-0.056-0.065-0.087l-21.366-36.229l-23.16-9.265c-0.037-0.014-0.071-0.033-0.103-0.056l-15.627-11.031
					l-85.054,36.98l23.992,44.292c0.1,0.185,0.074,0.411-0.064,0.568l-34.511,39.175
					C131.175,575.541,131.036,575.599,130.898,575.599z"/>
			</g>
			<g>
				<path style="fill:#EBD2E1;" d="M245.624,550.57c-0.276,0-0.5-0.224-0.5-0.5v-49.124c0-0.11,0.037-0.218,0.104-0.306
					l20.52-26.583c0.168-0.219,0.482-0.26,0.702-0.09c0.218,0.168,0.259,0.482,0.09,0.701l-20.417,26.448v48.953
					C246.124,550.347,245.901,550.57,245.624,550.57z"/>
			</g>
			<g>
				<polygon style="fill:#EBD2E1;" points="264.254,465.49 266.472,470.521 271.939,469.927 268.691,474.363 271.939,478.8 
					266.472,478.206 264.254,483.237 262.035,478.206 256.569,478.8 259.817,474.363 256.569,469.927 262.035,470.521 				"/>
			</g>
			<g>
				<polygon style="fill:#EBD2E1;" points="166.593,526.597 168.812,531.628 174.278,531.034 171.03,535.471 174.278,539.907 
					168.812,539.313 166.593,544.344 164.375,539.313 158.908,539.907 162.156,535.471 158.908,531.034 164.375,531.628 				"/>
			</g>
			<g>
				<path style="fill:#EBD2E1;" d="M130.627,571.999c-3.955,0-3.962,6.147,0,6.147C134.582,578.146,134.589,571.999,130.627,571.999
					z"/>
			</g>
			<g>
				<path style="fill:#EBD2E1;" d="M244.259,547.222c-3.955,0-3.962,6.147,0,6.147C248.214,553.369,248.22,547.222,244.259,547.222z
					"/>
			</g>
			<g>
				<path style="fill:#EBD2E1;" d="M312.608,535.688c-3.955,0-3.962,6.147,0,6.147C316.563,541.835,316.57,535.688,312.608,535.688z
					"/>
			</g>
			<g>
				<path style="fill:#EBD2E1;" d="M245.113,497.668c-3.955,0-3.962,6.147,0,6.147C249.068,503.815,249.075,497.668,245.113,497.668
					z"/>
			</g>
			<g>
				<path style="fill:#EBD2E1;" d="M241.695,461.358c-3.955,0-3.962,6.147,0,6.147C245.65,467.504,245.657,461.358,241.695,461.358z
					"/>
			</g>
			<g>
				<path style="fill:#EBD2E1;" d="M225.035,451.105c-3.955,0-3.962,6.147,0,6.147C228.99,457.252,228.997,451.105,225.035,451.105z
					"/>
			</g>
			<g>
				<path style="fill:#EBD2E1;" d="M140.025,487.843c-3.955,0-3.962,6.147,0,6.147C143.98,493.99,143.987,487.843,140.025,487.843z"
					/>
			</g>
		</g>
		<g style="clip-path:url(#SVGID_00000133531231159279461690000011688262171602549922_);">
			<g>
				<path style="fill:#EBD2E1;" d="M461.606,562.236c-0.049,0-0.099-0.007-0.147-0.023c-0.264-0.081-0.412-0.361-0.33-0.625
					l10.493-33.949l-10.258-12.973h-37.348l-12.934,33.26c-0.101,0.257-0.391,0.384-0.647,0.284c-0.257-0.1-0.385-0.39-0.284-0.648
					l13.058-33.578c0.074-0.191,0.26-0.318,0.466-0.318h37.932c0.153,0,0.298,0.07,0.393,0.19l10.571,13.369
					c0.102,0.13,0.134,0.301,0.085,0.458l-10.571,34.2C462.017,562.098,461.82,562.236,461.606,562.236z"/>
			</g>
			<g>
				<path style="fill:#EBD2E1;" d="M542.133,514.666h-40.108c-0.18,0-0.345-0.096-0.435-0.252l-18.654-32.647
					c-0.063-0.111-0.081-0.242-0.051-0.367l10.26-41.973c0.033-0.136,0.121-0.251,0.243-0.318c0.123-0.066,0.268-0.08,0.4-0.037
					l30.384,10.128l10.993-20.152c0.131-0.243,0.435-0.332,0.678-0.199c0.242,0.132,0.332,0.436,0.199,0.678l-11.193,20.52
					c-0.115,0.212-0.365,0.313-0.597,0.235l-30.266-10.089l-10.083,41.252l18.411,32.222h39.501l22.25-47.283
					c0.117-0.25,0.416-0.357,0.665-0.239c0.25,0.117,0.357,0.415,0.239,0.665l-22.385,47.57
					C542.503,514.554,542.326,514.666,542.133,514.666z"/>
			</g>
			<g>
				<path style="fill:#EBD2E1;" d="M472.177,528.035c-0.19,0-0.373-0.11-0.456-0.296c-0.113-0.252,0-0.548,0.252-0.66l29.847-13.369
					c0.25-0.116,0.548,0,0.66,0.252c0.113,0.252,0,0.548-0.252,0.66l-29.847,13.369
					C472.315,528.022,472.246,528.035,472.177,528.035z"/>
			</g>
			<g>
				<path style="fill:#EBD2E1;" d="M461.606,514.666c-0.096,0-0.192-0.027-0.277-0.084c-0.229-0.153-0.292-0.464-0.139-0.693
					l21.764-32.647c0.154-0.23,0.465-0.291,0.693-0.139c0.23,0.153,0.292,0.464,0.139,0.693l-21.764,32.647
					C461.926,514.588,461.767,514.666,461.606,514.666z"/>
			</g>
			<g>
				<polygon style="fill:#EBD2E1;" points="461.606,551.859 463.824,556.89 469.291,556.295 466.043,560.732 469.291,565.169 
					463.824,564.575 461.606,569.606 459.388,564.575 453.921,565.169 457.169,560.732 453.921,556.295 459.388,556.89 				"/>
			</g>
			<g>
				<polygon style="fill:#EBD2E1;" points="493.267,429.639 495.486,434.671 500.952,434.076 497.704,438.513 500.952,442.95 
					495.486,442.356 493.267,447.387 491.049,442.356 485.582,442.95 488.83,438.513 485.582,434.076 491.049,434.671 				"/>
			</g>
			<g>
				<polygon style="fill:#EBD2E1;" points="502.025,504.131 504.243,509.162 509.71,508.568 506.461,513.005 509.71,517.442 
					504.243,516.847 502.025,521.879 499.806,516.847 494.34,517.442 497.588,513.005 494.34,508.568 499.806,509.162 				"/>
			</g>
			<g>
				<path style="fill:#EBD2E1;" d="M524.83,445.808c-3.955,0-3.962,6.147,0,6.147C528.785,451.954,528.792,445.808,524.83,445.808z"
					/>
			</g>
			<g>
				<path style="fill:#EBD2E1;" d="M535.082,425.73c-3.955,0-3.962,6.147,0,6.147C539.037,431.876,539.044,425.73,535.082,425.73z"
					/>
			</g>
			<g>
				<path style="fill:#EBD2E1;" d="M411.198,545.199c-3.955,0-3.961,6.147,0,6.147C415.154,551.346,415.16,545.199,411.198,545.199z
					"/>
			</g>
			<g>
				<path style="fill:#EBD2E1;" d="M424.014,511.024c-3.955,0-3.962,6.147,0,6.147C427.969,517.171,427.976,511.024,424.014,511.024
					z"/>
			</g>
			<g>
				<path style="fill:#EBD2E1;" d="M462.176,511.024c-3.955,0-3.962,6.147,0,6.147C466.131,517.171,466.138,511.024,462.176,511.024
					z"/>
			</g>
			<g>
				<path style="fill:#EBD2E1;" d="M472.428,524.695c-3.955,0-3.962,6.147,0,6.147C476.383,530.841,476.39,524.695,472.428,524.695z
					"/>
			</g>
			<g>
				<path style="fill:#EBD2E1;" d="M482.966,479.698c-3.955,0-3.962,6.147,0,6.147C486.921,485.844,486.927,479.698,482.966,479.698
					z"/>
			</g>
			<g>
				<path style="fill:#EBD2E1;" d="M541.633,511.024c-3.955,0-3.962,6.147,0,6.147C545.587,517.171,545.594,511.024,541.633,511.024
					z"/>
			</g>
			<g>
				<path style="fill:#EBD2E1;" d="M564.7,463.749c-3.955,0-3.961,6.147,0,6.147C568.656,469.896,568.662,463.749,564.7,463.749z"/>
			</g>
		</g>
	</g>
</g>
</svg>
